<?xml version="1.0" encoding="utf-8"?>
<!-- Generator: Adobe Illustrator 19.2.1, SVG Export Plug-In . SVG Version: 6.00 Build 0)  -->
<svg version="1.2" baseProfile="tiny" id="Capa_1" xmlns="http://www.w3.org/2000/svg" xmlns:xlink="http://www.w3.org/1999/xlink"
	 x="0px" y="0px" viewBox="0 0 90.7 109.4" xml:space="preserve">
<path fill="#21252A" d="M5.3,71.3c-1.2-1.5-1.9-3.4-2-5.5c-0.1-4.8,3.5-8.9,8.2-9.5c5.4-0.7,10.1,3.3,10.5,8.6
	c0.1,1.3-0.1,2.6-0.5,3.7l0,0c0,0-3.6,11.2-13.9,13.3C7.6,82,7.8,75.8,5.3,71.3z"/>
<path fill="#21252A" d="M85.9,71.1c1.2-1.5,1.9-3.4,2-5.5c0.1-4.8-3.5-8.9-8.2-9.5c-5.4-0.7-10.1,3.3-10.5,8.6
	c-0.1,1.3,0.1,2.6,0.5,3.7l0,0c0,0,3.6,11.2,13.9,13.3C83.6,81.8,83.4,75.7,85.9,71.1z"/>
<rect x="13" y="41.1" fill="#21252A" width="66.1" height="28.8"/>
<path fill="#E3B98C" d="M72.6,17.9h-53c-2.9,0-5.3,2.4-5.3,5.3v40.1c0,2.9,2.4,5.3,5.3,5.3h7.1c-1,0.6-8.4,5.6-8.3,18.8l0,0
	c0,3.9,3.2,7,7,7v-7l0,0c0-3.3,0.5-5.9,1.2-7.8v15.2l0,0v3.9c0,1.1,0.9,2.1,2.1,2.1H44c1.1,0,2.1-0.9,2.1-2.1v-3.6h0.1v3.6
	c0,1.1,0.9,2.1,2.1,2.1h15.3c1.1,0,2.1-0.9,2.1-2.1v-3.9l0,0v-15c0.7,1.9,1.3,4.5,1.2,7.8l0,0v7c3.9,0,7-3.1,7-7l0,0
	c0.1-13.1-7.1-18.1-8.2-18.8h7c2.9,0,5.3-2.4,5.3-5.3V23.2C77.9,20.3,75.5,17.9,72.6,17.9z"/>
<path fill="#E3B98C" d="M66.8,87.5"/>
<g>
	<circle fill="#38271B" cx="26.5" cy="49.1" r="2.4"/>
	<circle fill="#38271B" cx="65.4" cy="49.1" r="2.4"/>
</g>
<path fill="#C69572" d="M46.1,62.3c-2.2,0-4-1.8-4-4c0-0.4,0.3-0.6,0.6-0.6s0.6,0.3,0.6,0.6c0,1.5,1.2,2.7,2.7,2.7s2.7-1.2,2.7-2.7
	c0-0.4,0.3-0.6,0.6-0.6S50,58,50,58.3C50,60.5,48.3,62.3,46.1,62.3z"/>
<path fill="#D8A981" d="M14.3,55.9c-1.1-0.9-1.9-2.7-1.9-4.6c0-2,0.8-3.7,1.9-4.6V55.9z"/>
<path fill="#D8A981" d="M78,55.9c1.1-0.9,1.9-2.7,1.9-4.6c0-2-0.8-3.7-1.9-4.6V55.9z"/>
<path fill="#D8A981" d="M57.4,68.7c0,0.8-0.6,1.4-1.2,1.4H34c-0.7,0-1.2-0.6-1.2-1.4H57.4z"/>
<path fill="#D8A981" d="M46.1,55.9L46.1,55.9c-0.9,0-1.6-0.7-1.6-1.6v-4c0-0.9,0.7-1.6,1.6-1.6l0,0c0.9,0,1.6,0.7,1.6,1.6v4
	C47.7,55.2,47,55.9,46.1,55.9z"/>
<path fill="#D8A981" d="M23.2,91.9L23.2,91.9c-0.5,0-0.9-0.4-0.9-0.9v-1.5c0-0.5,0.4-0.9,0.9-0.9l0,0c0.5,0,0.9,0.4,0.9,0.9V91
	C24.1,91.5,23.7,91.9,23.2,91.9z"/>
<path fill="#D8A981" d="M68.9,91.9L68.9,91.9c0.5,0,0.9-0.4,0.9-0.9v-1.5c0-0.5-0.4-0.9-0.9-0.9l0,0c-0.5,0-0.9,0.4-0.9,0.9V91
	C68.1,91.5,68.5,91.9,68.9,91.9z"/>
<path fill="#21252A" d="M68.8,11.1c0,0-14.8-6.8-33.4-3.2c-6.7,1.3-12.1,3.7-18.4,9.9C7.3,27.6,3.8,34.7,0,34.2
	c0,0,7.3,1.7,12.6,1.7c0,0-1.5,4.9-5.9,5.2c0,0,18.1,6.6,34.4-10.6c0,0,0.4,6.1-3.6,8.2c0,0,19.5,4,28.6-15c0,0,5.3,20.6,13.5,18.4
	C79.6,42,85.5,19.6,68.8,11.1z"/>
<g>
	<path fill="#E94D51" d="M15.5,52l-1.9,2.7c0,0,0,0.1-0.1,0.1c-0.1-0.1-0.2-0.1-0.4-0.2L10,53.5c-1.4-0.5-2.7,0.8-2.2,2.2l1.3,3.8
		c0.5,1.4,2.3,1.8,3.1,0.6l1.9-2.7c0,0,0-0.1,0.1-0.1c0.1,0.1,0.2,0.1,0.4,0.2l3.2,1.2c1.4,0.5,2.7-0.8,2.2-2.2l-1.3-3.8
		C18.1,51.2,16.3,50.9,15.5,52z"/>
	<path fill="#D34745" d="M15.7,55.6c0.3,1-0.2,2.1-1.2,2.4c-1,0.3-2.1-0.3-2.4-1.3c-0.3-1,0.2-2.1,1.2-2.4S15.4,54.6,15.7,55.6z"/>
</g>
<g>
	<path fill="#E94D51" d="M76.1,52l1.9,2.7c0,0,0,0.1,0.1,0.1c0.1-0.1,0.2-0.1,0.4-0.2l3.2-1.2c1.4-0.5,2.7,0.8,2.2,2.2l-1.3,3.8
		c-0.5,1.4-2.3,1.8-3.1,0.6l-1.9-2.7c0,0,0-0.1-0.1-0.1c-0.1,0.1-0.2,0.1-0.4,0.2l-3.2,1.2c-1.4,0.5-2.7-0.8-2.2-2.2l1.3-3.8
		C73.5,51.2,75.3,50.9,76.1,52z"/>
	<path fill="#D34745" d="M75.9,55.6c-0.3,1,0.2,2.1,1.2,2.4c1,0.3,2.1-0.3,2.4-1.3s-0.2-2.1-1.2-2.4C77.3,54,76.3,54.6,75.9,55.6z"
		/>
</g>
<g>
	<path fill="#21252A" d="M22.2,46.4c0.3-0.5,0.8-0.9,1.2-1.2c0.5-0.3,1-0.6,1.6-0.8s1.2-0.4,1.8-0.4c0.6,0.1,1.2,0.3,1.7,0.7v0.1
		c-0.3,0.1-0.6,0.1-0.9,0.2c-0.3,0-0.6,0-0.8,0c-0.5,0.1-1,0-1.5,0.1s-1,0.3-1.5,0.5C23.2,45.8,22.7,46.1,22.2,46.4L22.2,46.4z"/>
	<path fill="#21252A" d="M69.5,46.4c-0.3-0.5-0.8-0.9-1.2-1.2c-0.5-0.3-1-0.6-1.6-0.8S65.5,44,64.9,44c-0.6,0.1-1.2,0.3-1.7,0.7v0.1
		c0.3,0.1,0.6,0.1,0.9,0.2c0.4,0,0.6,0,0.9,0c0.5,0.1,1,0,1.5,0.1s1,0.3,1.5,0.5S69,46.1,69.5,46.4L69.5,46.4z"/>
</g>
<g>
	<path fill="#F6EBD6" d="M63.9,100.9H47.7c-0.9,0-1.6-0.7-1.6-1.6v-1.9c6.5,0,13.1,0,19.6,0c0,0.6,0,1.3,0,1.9
		c0,0.2-0.1,0.7-0.6,1.1C64.6,100.8,64.1,100.9,63.9,100.9z"/>
	<path fill="#E8D6B8" d="M59.7,99.8H52v-1.5c0-0.7,0.5-1.2,1.2-1.2h5.2c0.7,0,1.2,0.5,1.2,1.2L59.7,99.8L59.7,99.8z"/>
	<path fill="#DDD3BF" d="M47.8,100.9h16.4C64.2,100.9,56.5,97.6,47.8,100.9z"/>
	<g>
		<rect x="51.3" y="99" fill="#FFFFFF" width="8.8" height="0.1"/>
		<rect x="51.3" y="98.4" fill="#FFFFFF" width="8.8" height="0.1"/>
		<rect x="51.3" y="97.7" fill="#FFFFFF" width="8.8" height="0.1"/>
	</g>
</g>
<g>
	<path fill="#F6EBD6" d="M44.5,100.9H28.2c-0.9,0-1.6-0.7-1.6-1.6v-1.9c6.5,0,13,0,19.5,0c0,0.7,0,1.3,0,2c0,0.2,0,0.4-0.2,0.7
		C45.5,100.8,44.6,100.9,44.5,100.9z"/>
	<path fill="#E8D6B8" d="M40.2,99.8h-7.7v-1.5c0-0.7,0.5-1.2,1.2-1.2H39c0.7,0,1.2,0.5,1.2,1.2V99.8z"/>
	<path fill="#DDD3BF" d="M28.3,100.9h16.4C44.7,100.9,37,97.6,28.3,100.9z"/>
	<g>
		<rect x="31.9" y="99" fill="#FFFFFF" width="8.8" height="0.1"/>
		<rect x="31.9" y="98.4" fill="#FFFFFF" width="8.8" height="0.1"/>
		<rect x="31.9" y="97.7" fill="#FFFFFF" width="8.8" height="0.1"/>
	</g>
</g>
<g>
	<g>
		<g>
			<path fill="#ED6E71" d="M21.4,73.5c0.3-0.7,4.1-4.4,5.3-4.8l3.7,5.5h0.1c-1.4,2.3-2.9,4.5-4.3,6.8C24.6,78.5,22.9,76,21.4,73.5z"
				/>
		</g>
		<g>
			<path fill="#ED6E71" d="M70.9,73.5c-0.3-0.7-2.5-3.2-5.3-4.8l-3.7,5.5h-0.1c1.4,2.3,2.9,4.5,4.3,6.8C67.7,78.5,69.4,76,70.9,73.5
				z"/>
		</g>
		<path fill="#F8C4C5" d="M65.7,68.7v19.4c-13,0-26.1,0.1-39.1,0.1c0-6.5,0.1-12.9,0.1-19.4h11.1c1.4,2.7,4.5,4.5,8,4.7
			c3.7,0.1,7.1-1.7,8.6-4.6L65.7,68.7z"/>
		<path fill="#ED6E71" d="M54.1,68.7c-1.6,2.8-4.8,4.7-8.2,4.5c-3.2-0.1-6.1-1.9-7.6-4.5h-1.2c1.5,3.3,5,5.5,8.8,5.6
			c0.1,0,0.2,0,0.3,0c3.9,0,7.6-2.2,9.2-5.6H54.1z"/>
	</g>
	<g>
		<circle fill="#ED6E71" cx="43.4" cy="81" r="0.5"/>
		<circle fill="#ED6E71" cx="49.4" cy="81" r="0.5"/>
		<path fill="#ED6E71" d="M47.5,82.7c0,0.2-0.4,0.2-0.5,0.2c-0.2-0.1-0.3-0.2-0.3-0.4l0.5-0.5c0.1-0.1,0-0.4-0.2-0.4h-1
			c-0.2,0-0.3,0.2-0.2,0.4l0.5,0.5c0,0.2-0.1,0.3-0.3,0.4s-0.5,0-0.5-0.2s-0.3-0.1-0.3,0.1c0.1,0.3,0.5,0.5,0.8,0.4
			c0.2,0,0.4-0.2,0.5-0.4c0.1,0.2,0.3,0.3,0.5,0.4c0.3,0.1,0.7-0.1,0.8-0.4C47.8,82.6,47.5,82.5,47.5,82.7z"/>
		<path fill="#ED6E71" d="M52.4,82.6c-0.3-0.1-0.5-0.1-0.8-0.2c0-0.1,0.1-0.3,0.1-0.5c0.1,0,0.2,0,0.3,0c0.2,0,0.2-0.3,0-0.3
			c-0.1,0-0.2,0-0.2,0c0.1-0.6,0-1.1-0.2-1.6c0.1,0,0.1-0.1,0.1-0.2c0.1-1,0.1-2.4-0.6-3.2c-0.6-0.7-1.4,0.3-2,0.8
			c-0.5-0.2-1.1-0.3-1.7-0.3l0,0c-1.1-0.1-2.3,0-3.4,0.4c-0.5-0.4-1.4-1.6-2.1-0.9c-0.7,0.8-0.6,2.1-0.6,3.1c0,0.1,0,0.1,0,0.1
			c-0.1,0.2-0.1,0.3-0.2,0.5C41,80.7,41,81.1,41,81.5h-0.1c-0.2,0-0.2,0.3,0,0.3c0.1,0,0.1,0,0.2,0c0,0.2,0.1,0.3,0.1,0.5
			c-0.2,0-0.5,0.1-0.7,0.2c-0.2,0-0.1,0.3,0.1,0.3c0.3-0.1,0.5-0.1,0.8-0.2c0.1,0.2,0.2,0.4,0.3,0.6c-0.1,0-0.1,0.1-0.2,0.1
			c-0.2,0.1,0,0.3,0.1,0.2c0.1,0,0.2-0.1,0.2-0.1c0.9,1.1,2.5,1.9,3.9,2c2.1,0.2,4.2-0.4,5.2-2c0.1,0,0.2,0.1,0.2,0.1
			c0.2,0.1,0.3-0.2,0.1-0.2c-0.1,0-0.1-0.1-0.2-0.1c0.1-0.2,0.2-0.4,0.3-0.6c0.3,0,0.6,0.1,0.8,0.2C52.5,82.9,52.6,82.6,52.4,82.6z
			 M50.1,77.3c0.1-0.1,0.3-0.3,0.5-0.3c0.2,0.1,0.3,0.4,0.3,0.6c0.2,0.5,0.2,0.9,0.2,1.4c-0.1-0.1-0.1-0.2-0.2-0.3
			c0-0.4-0.1-0.8-0.3-1.1c0-0.1-0.1-0.1-0.1-0.1c-0.1,0-0.1,0-0.2,0.1c-0.1,0.1-0.2,0.2-0.3,0.3c-0.1,0-0.2-0.1-0.2-0.1
			C49.8,77.6,50,77.5,50.1,77.3z M42.1,77.7c0-0.1,0.1-0.4,0.2-0.5c0.2-0.2,0.3,0,0.5,0.1c0.2,0.2,0.4,0.3,0.6,0.5
			c-0.1,0-0.2,0.1-0.3,0.2c-0.1-0.1-0.2-0.2-0.3-0.2s-0.1-0.1-0.2-0.1c-0.1,0-0.1,0.1-0.1,0.1c-0.1,0.3-0.2,0.5-0.3,0.8
			c-0.1,0.1-0.2,0.2-0.3,0.3C41.9,78.5,42,78.1,42.1,77.7z M50.6,83.1c-0.3-0.1-0.6-0.2-1-0.2c-0.1,0-0.2,0-0.2,0.1l0,0v0.1l0,0
			c0.1,0.1,0.1,0,0.2,0c0.3,0.1,0.5,0.1,0.8,0.2c-1.1,1.6-3.1,1.8-4.9,1.6c-1.1-0.2-2.3-0.8-3-1.6c0.2-0.1,0.4-0.1,0.7-0.2
			c0,0,0.1,0,0.2,0l0,0V83l0,0c0-0.1-0.1-0.1-0.2-0.1c-0.3,0.1-0.6,0.1-0.9,0.2c-0.1-0.1-0.2-0.3-0.3-0.4c0.3,0,0.7,0,1,0
			c0.2,0,0.2-0.3,0-0.3c-0.4,0-0.8,0-1.1,0c-0.1-0.1-0.1-0.3-0.1-0.4c0.3,0,0.6,0,0.9,0.1c0,0,0.1,0.1,0.2,0l0,0L43,82l0,0
			c0-0.1,0-0.1-0.1-0.1c-0.4-0.1-0.7-0.1-1.1-0.1c-0.1-0.8,0.1-1.6,0.8-2.5c0.6-0.7,1.3-1,2.1-1.2c0,0.3,0,0.5,0.1,0.8
			c0,0.2,0.1,0.4,0.3,0.4c0.1,0,0.2,0,0.3-0.1c0.2-0.2,0.3-0.6,0.3-0.9c0-0.1,0-0.3,0-0.4c0.1,0,0.3,0,0.4,0c0,0.4,0,0.9,0.1,1.3
			c0.1,0.2,0.2,0.4,0.4,0.5c0.1,0,0.2,0,0.3-0.1c0.3-0.2,0.3-0.7,0.3-1c0-0.2,0-0.4,0-0.6c0.1,0,0.2,0,0.4,0c0,0.3,0,0.7,0.1,1
			c0,0.2,0.1,0.4,0.3,0.4c0.1,0,0.2,0,0.3-0.1c0.2-0.2,0.3-0.6,0.3-0.9c0-0.1,0-0.2,0-0.3c1.7,0.4,2.8,2.1,2.6,3.8
			c-0.3,0-0.7,0-1,0.1c-0.1,0-0.1,0.1-0.1,0.1l0,0c0,0,0,0.1,0.1,0.1l0,0c0.1,0,0.1,0,0.2,0c0.3,0,0.5-0.1,0.8-0.1
			c0,0.1-0.1,0.3-0.1,0.4c-0.4,0-0.7,0-1.1,0c-0.2,0-0.2,0.3,0,0.3c0.3,0,0.7,0,1,0C50.8,82.8,50.7,82.9,50.6,83.1z"/>
	</g>
</g>
<g>
	<path fill="#AFC9E3" d="M26.6,87.9c13,0,26.1,0,39.1,0c0,2.1,0,4.1,0,6.2c-13,0-26.1,0-39.1,0C26.6,94.1,26.6,87.9,26.6,87.9z"/>
</g>
<polygon fill="#7AA6D3" points="64.4,91.8 64.5,91.6 62.5,89.7 62.4,89.8 "/>
<polygon fill="#7AA6D3" points="27.7,91.8 27.6,91.6 29.6,89.7 29.7,89.8 "/>
<path fill="#7AA6D3" d="M65.7,87.8c-13,0-26.1,0-39.1,0V89H45v1.8l1,0.9v2.4h0.3V89c6.5,0,12.9,0,19.4,0
	C65.7,88.6,65.7,88.2,65.7,87.8z M46,91.3l-0.8-0.7v-1.7H46V91.3z"/>
<rect x="26.5" y="94" fill="#95B9DC" width="19.6" height="1.3"/>
<rect x="46.1" y="94" fill="#95B9DC" width="19.6" height="1.3"/>
<rect x="35.6" y="88.1" fill="#95B9DC" width="0.7" height="1.8"/>
<rect x="54.5" y="88.1" fill="#95B9DC" width="0.7" height="1.8"/>
<circle fill="#F2DFBE" cx="45.5" cy="88.3" r="0.4"/>
</svg>
