<?xml version="1.0" encoding="utf-8"?>
<!-- Generator: Adobe Illustrator 19.2.1, SVG Export Plug-In . SVG Version: 6.00 Build 0)  -->
<svg version="1.2" baseProfile="tiny" id="Capa_1" xmlns="http://www.w3.org/2000/svg" xmlns:xlink="http://www.w3.org/1999/xlink"
	 x="0px" y="0px" viewBox="0 0 90.7 109.4" xml:space="preserve">
<ellipse fill="#FAC356" cx="49.9" cy="34.2" rx="47.9" ry="17.6"/>
<path fill="#614B38" d="M84.7,57.3c0.7-0.6,1.1-1.5,1.1-2.4c0-2-1.8-3.6-4-3.6c-0.2,0-0.4,0-0.6,0L79,27.9c-0.2-2.6-2.5-4.7-5.1-4.7
	h-49c-2.7,0-4.9,2-5.1,4.7l-2.2,23.5c-0.3-0.1-0.7-0.1-1.1-0.1c-2.2,0-4,1.6-4,3.6c0,0.9,0.4,1.8,1.1,2.4c-0.7,0.6-1.1,1.5-1.1,2.4
	s0.4,1.8,1.1,2.4c-0.7,0.6-1.1,1.5-1.1,2.4s0.4,1.8,1.1,2.4c-0.7,0.6-1.1,1.5-1.1,2.4s0.4,1.8,1.1,2.4c-0.7,0.6-1.1,1.5-1.1,2.4
	s0.4,1.8,1.1,2.4c-0.7,0.6-1.1,1.5-1.1,2.4c0,2,1.8,3.6,4,3.6s4-1.6,4-3.6c0-0.9-0.4-1.8-1.1-2.4c0.7-0.6,1.1-1.5,1.1-2.4
	c0-0.1,0-0.2,0-0.3c0.2,0,0.4,0,0.6,0h56.5h0.1c0,0.1,0,0.1,0,0.2c0,0.9,0.4,1.8,1.1,2.4c-0.7,0.6-1.1,1.5-1.1,2.4
	c0,2,1.8,3.6,4,3.6s4-1.6,4-3.6c0-0.9-0.4-1.8-1.1-2.4c0.7-0.6,1.1-1.5,1.1-2.4s-0.4-1.8-1.1-2.4c0.7-0.6,1.1-1.5,1.1-2.4
	s-0.4-1.8-1.1-2.4c0.7-0.6,1.1-1.5,1.1-2.4s-0.4-1.8-1.1-2.4c0.7-0.6,1.1-1.5,1.1-2.4S85.4,58,84.7,57.3z"/>
<path fill="#FAD6B6" d="M75.8,21.2h-53c-2.9,0-5.3,2.4-5.3,5.3v40.1c0,2.9,2.4,5.3,5.3,5.3h7.1c-1,0.6-8.4,5.6-8.3,18.8l0,0
	c0,3.9,3.2,7,7,7v-7l0,0c0-3.3,0.5-5.9,1.2-7.8v15.2l0,0v3.9c0,1.1,0.9,2.1,2.1,2.1h15.3c1.1,0,2.1-0.9,2.1-2.1v-3.6h0.1v3.6
	c0,1.1,0.9,2.1,2.1,2.1h15.3c1.1,0,2.1-0.9,2.1-2.1v-3.9l0,0V83c0.7,1.9,1.3,4.5,1.2,7.8l0,0v7c3.9,0,7-3.1,7-7l0,0
	C77.2,77.7,70,72.7,68.9,72h7c2.9,0,5.3-2.4,5.3-5.3V26.5C81.1,23.5,78.7,21.2,75.8,21.2z"/>
<path fill="#E2B88B" d="M70,90.8"/>
<g>
	<circle fill="#404049" cx="29.8" cy="52.3" r="2.4"/>
	<circle fill="#404049" cx="68.6" cy="52.3" r="2.4"/>
</g>
<path fill="#E0B391" d="M49.3,65.5c-2.2,0-4-1.8-4-4c0-0.4,0.3-0.6,0.6-0.6c0.4,0,0.6,0.3,0.6,0.6c0,1.5,1.2,2.7,2.7,2.7
	s2.7-1.2,2.7-2.7c0-0.4,0.3-0.6,0.6-0.6c0.4,0,0.6,0.3,0.6,0.6C53.3,63.7,51.5,65.5,49.3,65.5z"/>
<g>
	<path fill="#EBC29E" d="M17.5,59.2c-1.1-0.9-1.9-2.7-1.9-4.6c0-2,0.8-3.7,1.9-4.6V59.2z"/>
	<path fill="#EBC29E" d="M81.1,59.2c1.1-0.9,1.9-2.7,1.9-4.6c0-2-0.8-3.7-1.9-4.6V59.2z"/>
	<path fill="#EBC29E" d="M60.6,72c0,0.8-0.6,1.4-1.2,1.4H37.2c-0.7,0-1.2-0.6-1.2-1.4H60.6z"/>
	<path fill="#EBC29E" d="M49.3,59.2L49.3,59.2c-0.9,0-1.6-0.7-1.6-1.6v-4c0-0.9,0.7-1.6,1.6-1.6l0,0c0.9,0,1.6,0.7,1.6,1.6v4
		C50.9,58.5,50.2,59.2,49.3,59.2z"/>
	<path fill="#EBC29E" d="M26.4,95.1L26.4,95.1c-0.5,0-0.9-0.4-0.9-0.9v-1.5c0-0.5,0.4-0.9,0.9-0.9l0,0c0.5,0,0.9,0.4,0.9,0.9v1.5
		C27.3,94.7,26.9,95.1,26.4,95.1z"/>
	<path fill="#EBC29E" d="M72.2,95.1L72.2,95.1c0.5,0,0.9-0.4,0.9-0.9v-1.5c0-0.5-0.4-0.9-0.9-0.9l0,0c-0.5,0-0.9,0.4-0.9,0.9v1.5
		C71.3,94.7,71.7,95.1,72.2,95.1z"/>
</g>
<path fill="#614B38" d="M84,27.6c-0.5-3.4-4.9-17.1-34.9-18.1C17.3,8.5,14.5,28,14.5,28l-0.3,23.1c-0.1,1.8,1.3,3.3,3.1,3.3H18
	l5.7-21.5c6.5,8.8,21,7.8,21,7.8c-2.3-1.1-2.9-3.8-3.1-5.5c8.8,8,20.5,5.5,20.5,5.5c-2-1-2.8-3.2-3-4.9c6.1,5.1,13.3,5.4,17.1,5.1
	l4.4,13.5h0.7c1.8,0,3.2-1.5,3.1-3.3C84.3,51.1,84.1,28,84,27.6z"/>
<path fill="#E2AD43" d="M84.9,24.4H14.3l6.2-16.3c0.6-1.7,2.3-2.8,4.3-2.8h49.6c1.9,0,3.6,1.1,4.3,2.8L84.9,24.4z"/>
<path fill="#F8CC73" d="M82.9,20.6c-8.2-3-19.3-7-31.9-7c-13.6,0-26.1,4.4-34.9,7.7l-0.8,1c9.1-3.4,21.9-6.2,35.8-6.2
	c12.9,0,24.5,2.3,32.8,5.4L82.9,20.6z"/>
<g>
	<path fill="#8D7DB6" d="M85.2,16.1c1-0.5,1.7-1.2,1.7-1.7c0-0.6-1-1-1.8-1.2c0.7-0.8,1-1.5,0.8-2s-1.3-0.6-2.1-0.5
		C84.1,9.8,84,9,83.7,8.8c-0.5-0.4-1.8,0.2-2.4,0.6c-0.1,0.1-0.2,0.2-0.3,0.3c-0.2-1.1-0.7-2-1.3-2.1c-0.7-0.1-1.4,1.1-1.8,1.8v0.1
		c-0.7-0.8-1.5-1.2-1.9-1c-0.6,0.2-0.7,1.4-0.7,2.2c-0.8-0.3-1.6-0.3-1.9,0c-0.5,0.5,0,1.8,0.4,2.5c0.1,0.2,0.2,0.3,0.3,0.4
		c-1.3,0.1-2.3,0.6-2.4,1.1c-0.2,0.7,1,1.5,1.7,1.9c0.2,0.1,0.4,0.2,0.7,0.3c-1.1,0.8-1.7,1.8-1.5,2.4c0.2,0.7,1.7,0.7,2.4,0.6
		c0.1,0,0.2,0,0.3-0.1c-0.1,0.8,0,1.4,0.3,1.6c0.5,0.4,1.8-0.2,2.4-0.7c0.1-0.1,0.1-0.1,0.2-0.2c0.3,1.1,0.9,1.9,1.4,1.9
		c0.7,0,1.3-1.2,1.6-1.9l0,0c1,0.9,2,1.4,2.5,1.1c0.6-0.3,0.5-1.7,0.2-2.5c0,0,0,0,0-0.1c1.2,0.3,2.3,0.1,2.6-0.3
		c0.4-0.6-0.5-1.7-1-2.3C85.4,16.2,85.3,16.2,85.2,16.1z M79.7,15.4l-0.1-0.1c0.1,0,0.2,0,0.3,0l0,0C79.8,15.4,79.8,15.4,79.7,15.4z
		"/>

		<ellipse transform="matrix(0.2615 -0.9652 0.9652 0.2615 43.8598 88.0362)" fill="#F49021" cx="79.5" cy="15.4" rx="2.1" ry="2.1"/>
</g>
<g>
	<path fill="#BB2030" d="M90,22.3c0.8-0.4,1.3-0.9,1.3-1.3c0-0.5-0.8-0.8-1.4-0.9c0.5-0.6,0.8-1.2,0.7-1.5c-0.2-0.4-1-0.5-1.6-0.4
		c0.2-0.7,0.2-1.3-0.1-1.5c-0.4-0.3-1.4,0.1-1.9,0.5c-0.1,0.1-0.2,0.1-0.3,0.2c-0.2-0.9-0.6-1.5-1-1.6c-0.5-0.1-1.1,0.8-1.3,1.4v0.1
		c-0.5-0.6-1.1-0.9-1.5-0.8c-0.5,0.2-0.6,1.1-0.5,1.7c-0.6-0.2-1.2-0.3-1.4,0c-0.4,0.4,0,1.4,0.3,1.9c0.1,0.1,0.1,0.2,0.2,0.3
		c-1,0.1-1.7,0.4-1.8,0.9c-0.1,0.5,0.7,1.2,1.3,1.4c0.2,0.1,0.4,0.2,0.5,0.2c-0.8,0.6-1.3,1.4-1.2,1.8c0.2,0.5,1.3,0.6,1.9,0.5
		c0.1,0,0.2,0,0.2,0c-0.1,0.6,0,1.1,0.2,1.2c0.4,0.3,1.4-0.2,1.8-0.5c0.1,0,0.1-0.1,0.1-0.1c0.3,0.8,0.7,1.4,1.1,1.5
		c0.5,0,1-0.9,1.2-1.5l0,0c0.7,0.7,1.5,1.1,1.9,0.8c0.5-0.3,0.4-1.3,0.2-1.9l0,0c0.9,0.2,1.8,0.1,2-0.3c0.3-0.5-0.3-1.3-0.8-1.8
		C90.1,22.4,90,22.4,90,22.3z M85.7,21.8C85.7,21.8,85.7,21.7,85.7,21.8c0-0.1,0.1-0.1,0.1-0.1l0,0C85.8,21.8,85.8,21.8,85.7,21.8z"
		/>

		<ellipse transform="matrix(0.2615 -0.9652 0.9652 0.2615 42.0517 98.6557)" fill="#F5E82B" cx="85.5" cy="21.8" rx="1.6" ry="1.6"/>
</g>
<g>
	<path fill="#EF6C53" d="M74.1,15.7c0.2-0.2,0.5-0.5,0.6-0.8c0.4-1.1-0.2-2.1-0.3-2.2c-0.1-0.3-0.4-0.9-0.9-1.2
		c-0.4-0.2-0.8-0.2-1.2-0.1c0-0.2-0.1-0.5-0.2-0.8c-0.5-1-1.7-1.2-1.9-1.2c-0.3-0.1-0.9-0.3-1.5-0.1c-0.5,0.2-0.8,0.6-1,1
		c-0.1,0-0.1-0.1-0.2-0.1c-1.1-0.5-2.1,0.2-2.2,0.2c-0.3,0.1-0.9,0.3-1.2,0.9c-0.3,0.6-0.2,1.3,0.1,1.9c-0.3,0-0.5,0.1-0.8,0.2
		c-1,0.6-1.1,1.8-1.2,1.9c-0.1,0.3-0.3,0.9,0,1.5c0.4,0.8,1.4,1.1,2.2,1.2c-0.2,0.3-0.3,0.8-0.3,1.3c0.1,1.1,1.2,1.8,1.3,1.9
		c0.2,0.2,0.7,0.7,1.4,0.7c0.7,0,1.2-0.4,1.6-0.9c0.2,0.2,0.4,0.5,0.6,0.6c1,0.6,2.1,0.1,2.3,0.1c0.3-0.1,1-0.2,1.4-0.7
		c0.2-0.2,0.3-0.5,0.3-0.8h0.1c1.1-0.2,1.6-1.4,1.7-1.5c0.2-0.3,0.6-0.8,0.5-1.5C75.1,16.5,74.6,16,74.1,15.7z"/>

		<ellipse transform="matrix(0.2615 -0.9652 0.9652 0.2615 35.4782 78.0524)" fill="#FBDB04" cx="68.7" cy="15.8" rx="1.3" ry="1.3"/>
</g>
<path fill="#FAC356" d="M96.8,31.3c0,4.8-20.3-3-46.3-3s-47.6,7.9-47.6,3s22-15.8,48-15.8S96.8,26.5,96.8,31.3z"/>
<path fill="#5C81C0" d="M68.9,83l0.6,14H29.3c0.2-4.6,0.3-9.3,0.5-13.9c1.1-3.7,2.3-7.3,3.4-11h9.5l4.2,6.9c0.5-0.3,1.6-0.9,3.2-1
	c1.7,0,3,0.6,3.5,0.9l3.7-6.8l8.6,0.1L68.9,83z"/>
<path fill="#E5E6EB" d="M42.7,72.1c-0.6,0.5-1.6,1.5-1.7,2.9c-0.2,2.6,3.1,5.2,5.9,4.8c1.6-0.2,2.6-1.4,3-1.8
	c-1-0.3-2.8-0.9-4.5-2.4c-1-0.9-1.7-1.9-2.1-2.6c-0.1-0.1-0.1-0.3-0.2-0.4c-0.1-0.1-0.1-0.2-0.2-0.3C42.8,72.2,42.7,72.2,42.7,72.1z
	"/>
<path fill="#E5E6EB" d="M57.3,72.1c0.6,0.5,1.6,1.5,1.6,2.8c0,2.6-3,5.2-5.9,4.8c-1.6-0.2-2.7-1.3-3.1-1.7c1.1-0.4,2.6-1.2,4.2-2.5
	C55.6,74.3,56.6,73.1,57.3,72.1z"/>
<g>
	<path fill="#3A302B" d="M25.8,49.8c0.3-0.5,0.8-0.9,1.2-1.2c0.5-0.3,1-0.6,1.6-0.8s1.2-0.4,1.8-0.4c0.6,0.1,1.2,0.3,1.7,0.7v0.1
		c-0.3,0.1-0.6,0.1-0.9,0.2c-0.3,0.1-0.5,0.1-0.8,0.1c-0.5,0.1-1,0-1.5,0.1s-1,0.3-1.5,0.5C26.8,49.2,26.3,49.5,25.8,49.8L25.8,49.8
		z"/>
	<path fill="#3A302B" d="M73.2,49.8c-0.3-0.5-0.8-0.9-1.2-1.2c-0.5-0.3-1-0.6-1.6-0.8s-1.2-0.4-1.8-0.4c-0.6,0.1-1.2,0.3-1.7,0.7
		v0.1c0.3,0.1,0.6,0.1,0.9,0.2c0.3,0.1,0.5,0.1,0.8,0.1c0.5,0.1,1,0,1.5,0.1s1,0.3,1.5,0.5C72.2,49.2,72.6,49.5,73.2,49.8L73.2,49.8
		z"/>
</g>
<g>
	<rect x="32.8" y="101.8" fill="#614B38" width="13.5" height="0.2"/>
	<rect x="52.5" y="101.8" fill="#614B38" width="13.5" height="0.2"/>
	<g>
		<path fill="#614B38" d="M46.3,101.4C46.3,101.4,46.3,101.5,46.3,101.4c0,0.6-3,1-6.8,1s-6.8-0.4-6.8-0.9l0,0h-2.9v0.6
			c0,1.1,0.9,2.1,2.1,2.1h15.3c1.1,0,2.1-0.9,2.1-2.1v-0.6L46.3,101.4z"/>
		<path fill="#614B38" d="M52.4,101.4C52.4,101.4,52.4,101.5,52.4,101.4c0,0.6,3,1,6.8,1s6.8-0.4,6.8-0.9l0,0h2.9v0.6
			c0,1.1-0.9,2.1-2.1,2.1H51.4c-1.1,0-2.1-0.9-2.1-2.1v-0.6L52.4,101.4z"/>
	</g>
</g>
</svg>
