<?xml version="1.0" encoding="utf-8"?>
<!-- Generator: Adobe Illustrator 19.2.1, SVG Export Plug-In . SVG Version: 6.00 Build 0)  -->
<svg version="1.2" baseProfile="tiny" id="Capa_1" xmlns="http://www.w3.org/2000/svg" xmlns:xlink="http://www.w3.org/1999/xlink"
	 x="0px" y="0px" viewBox="0 0 90.7 109.4" xml:space="preserve">
<path fill="#BF3D3C" d="M71.7,77H16.2c-3.3,0-5.9-2.6-5.9-5.9l1.1-30.4h65.1l1.1,30.4C77.6,74.4,74.9,77,71.7,77z"/>
<path fill="#F9D6B6" d="M70.4,22.4h-53c-2.9,0-5.3,2.4-5.3,5.3v38.7c0,2.9,2.4,5.3,5.3,5.3h7.1c-1,0.6-8.4,5.6-8.3,18.8l0,0
	c0,3.9,3.2,7,7,7v-7l0,0c0-3.3,0.5-5.9,1.2-7.8V98l0,0v3.9c0,1.1,0.9,2.1,2.1,2.1h15.3c1.1,0,2.1-0.9,2.1-2.1v-3.6H44v3.6
	c0,1.1,0.9,2.1,2.1,2.1h15.3c1.1,0,2.1-0.9,2.1-2.1V98l0,0V82.8c0.7,1.9,1.3,4.5,1.2,7.8l0,0v7c3.9,0,7-3.1,7-7l0,0
	c0.1-13.1-7.1-18.1-8.2-18.8h7c2.9,0,5.3-2.4,5.3-5.3V27.7C75.7,24.8,73.3,22.4,70.4,22.4z"/>
<path fill="#E3B98C" d="M64.7,90.6"/>
<g>
	<circle fill="#674528" cx="24.4" cy="52.1" r="2.4"/>
	<circle fill="#674528" cx="63.2" cy="52.1" r="2.4"/>
</g>
<path fill="#EBC29E" d="M12.1,59c-1.1-0.9-1.9-2.7-1.9-4.6c0-2,0.8-3.7,1.9-4.6V59z"/>
<path fill="#EBC29E" d="M75.7,59c1.1-0.9,1.9-2.7,1.9-4.6c0-2-0.8-3.7-1.9-4.6V59z"/>
<path fill="#EBC29E" d="M55.2,71.8c0,0.8-0.6,1.4-1.2,1.4H31.8c-0.7,0-1.2-0.6-1.2-1.4H55.2z"/>
<path fill="#EBC29E" d="M43.9,59L43.9,59c-0.9,0-1.6-0.7-1.6-1.6v-4c0-0.9,0.7-1.6,1.6-1.6l0,0c0.9,0,1.6,0.7,1.6,1.6v4
	C45.5,58.2,44.8,59,43.9,59z"/>
<path fill="#EBC29E" d="M21,94.9L21,94.9c-0.5,0-0.9-0.4-0.9-0.9v-1.5c0-0.5,0.4-0.9,0.9-0.9l0,0c0.5,0,0.9,0.4,0.9,0.9V94
	C21.9,94.5,21.5,94.9,21,94.9z"/>
<path fill="#EBC29E" d="M66.8,94.9L66.8,94.9c0.5,0,0.9-0.4,0.9-0.9v-1.5c0-0.5-0.4-0.9-0.9-0.9l0,0c-0.5,0-0.9,0.4-0.9,0.9V94
	C65.9,94.5,66.3,94.9,66.8,94.9z"/>
<path fill="#BF3D3C" d="M72.5,33.6c0,0-2.8-6.3-8-5.9c-5.2,0.3-3.8,5.6-15.2,5.5c-6.9-0.8-8.7-2-12.2-3.7c-1.7-0.8-3.4-1.4-5.2-1.7
	c-5.5-1-6.4-1.2-10.4,0.5C17,29.6,15.1,34,15.1,34s-2.5,4.2-2.7,16.2c0,0-5.1-13.8-0.6-23.8c0,0-1.8-2.9-0.4-4.5
	c0,0,0.6,2.2,2.4,1.7c0,0-1-1.1-0.3-2.2c0,0,1,1.6,1.9,1.4c0,0,3.4-9.1,16.8-10.9c12-1.7,28.4,3.5,37.8-6.2c0,0,1.2,6.1-2.9,8.9
	c0,0,5.5-4,7.8-7.9c0,0,3.8,2.7,0.7,8.2c0,0,1.4,0.9,3.4-2.2c0,0,1.6,4.3-3.6,7.7c0,0,0.6,1.8,3.4-0.6c0,0,0.4,2.7-1.5,3.7
	c-0.1,0,4.1,19.8-2.1,26.9C75.2,50.4,74,36.5,72.5,33.6z"/>
<g>
	<path fill="#80C8C1" d="M71.9,90.6c0.1-13.9-8.1-18.7-8.5-18.9c-3.7,0-7.5,0-11.2,0c-1.2,1.9-2.4,2.4-3.2,2.6
		c-1.9,0.4-2.7-1-5.1-0.8c-2.2,0.2-2.6,1.4-4.2,1.3c-1-0.1-2.4-0.7-3.9-3.1c-3.8,0-7.5,0-11.3,0c-0.7,0.4-1.7,1.1-2.7,2.1
		c-0.4,0.4-1.1,1.2-1.9,2.4c-2.1,3.3-2.9,6.7-3.2,8c-0.3,1.5-0.6,3.6-0.5,6.2c1.2,0,2.4,0,3.7-0.1c1.2,0,2.3,0,3.5,0
		c0-1.3,0-2.8,0.3-4.5c0.2-1.1,0.4-2.1,0.7-3c0,1.9,0,3.8,0,5.7c0,1.6,0,3.2,0.1,4.7c6.5,0,13.1,0,19.7-0.1c6.5,0,13-0.1,19.4-0.1
		c0-3.5-0.1-6.9-0.1-10.4c0.3,0.9,0.6,2,0.9,3.2c0.3,1.7,0.4,3.2,0.3,4.5c0.9,0,2.9,0.1,3.7,0.1C69.1,90.5,71.1,90.6,71.9,90.6z"/>
	<path fill="#4FBAAA" d="M33.4,71.6c0.6,1.1,1.7,2.5,3.3,4c1.6,1.4,3.2,2.2,4.3,2.7c0.9-1.6,1.9-3.2,2.8-4.8c-1-0.1-2.6-0.5-4.2-1.3
		c-0.3-0.2-0.6-0.3-0.9-0.5L33.4,71.6z"/>
	<path fill="#4FBAAA" d="M49,71.7c-0.3,0.2-0.5,0.3-0.8,0.4c-1.7,0.8-3.2,1.2-4.2,1.3c0.9,1.6,1.9,3.2,2.8,4.8
		c1.1-0.4,2.7-1.2,4.3-2.7c1.6-1.4,2.5-3,3-4L49,71.7z"/>
	<ellipse fill="#FFFFFF" cx="45.3" cy="78.8" rx="0.5" ry="0.5"/>
	<ellipse fill="#FFFFFF" cx="45.3" cy="83.1" rx="0.5" ry="0.5"/>
	<ellipse fill="#FFFFFF" cx="45.3" cy="87.3" rx="0.5" ry="0.5"/>
	<g>
		<line fill="none" x1="43.9" y1="73.5" x2="44" y2="93.3"/>
		
			<rect x="43.7" y="73.5" transform="matrix(1 -5.174943e-03 5.174943e-03 1 -0.431 0.2286)" fill="#4FBAAA" width="0.5" height="19.8"/>
	</g>
</g>
<path fill="#DFB290" d="M46.1,65.6h-4.8c-0.4,0-0.7-0.3-0.7-0.7c0-0.4,0.3-0.7,0.7-0.7h4.8c0.7,0,1.3-0.2,1.8-0.6l0.8-0.6
	c0.3-0.2,0.7-0.2,0.9,0.1s0.2,0.7-0.1,0.9l-0.8,0.6C48,65.3,47.1,65.6,46.1,65.6z"/>
<path fill="#BF3D3C" d="M43.9,58.3c0.4-0.2,1.2-0.5,2.1-0.6c2.1-0.1,3.5,1.2,4.3,1.8c0.3,0.3,2.1,1.9,2.6,4.4
	c0.3,1.3,0.2,2.6,0.1,3.4c-0.1,1.2-0.2,1.7-0.2,2.8c0.1,1.4,0.4,2.1,0.5,2.3c0.3,0.7,0.7,1.3,1,1.6c-0.4-0.2-0.9-0.6-1.4-1.1
	c-0.2-0.2-0.9-1-1.5-2.5c-0.5-1.4-0.1-1.5-0.6-3c-0.3-0.9-0.5-1.8-1.3-2.7c-0.7-0.8-1.5-1.2-2.1-1.4c-0.5-0.2-1-0.5-1.6-0.5
	c-0.1,0-0.2,0-0.6-0.1c-0.7-0.1-0.8-0.1-1-0.2c-0.1-0.1-0.3-0.2-0.4-0.4c-0.1,0.2-0.3,0.4-0.6,0.6c-0.2,0.1-0.4,0.1-0.8,0.1
	c0,0-0.2,0-0.9,0.1c-0.5,0.1-1.3,0.3-2,0.8c-0.4,0.2-1.4,0.8-2,1.8c-0.3,0.5-0.5,1.2-0.8,2.6c-0.3,1.2-0.3,1.5-0.6,2.4
	c-0.2,0.5-0.4,1-0.7,1.6c-0.3,0.5-0.9,1.3-2,2.1c0.3-0.5,0.8-1.2,1.1-2.2c0.2-0.6,0.2-1.1,0.1-3.2c-0.1-2.8-0.2-3-0.1-3.9
	c0.1-0.8,0.2-1.7,0.7-2.8c0.8-1.6,2-2.5,2.5-2.9c0.4-0.3,1-0.7,1.9-1.1c0.6-0.2,1.6-0.6,2.8-0.4C43,57.8,43.6,58.1,43.9,58.3z"/>
<g>
	<path fill="#E95740" d="M20.4,49.7c0.3-0.5,0.8-0.9,1.2-1.2c0.5-0.3,1-0.6,1.6-0.8s1.2-0.4,1.8-0.4c0.6,0.1,1.2,0.3,1.7,0.7v0.1
		c-0.3,0.1-0.6,0.1-0.9,0.2c-0.3,0.1-0.5,0.1-0.8,0.1c-0.5,0.1-1,0-1.5,0.1s-1,0.3-1.5,0.5C21.4,49.2,20.9,49.5,20.4,49.7L20.4,49.7
		z"/>
	<path fill="#E95740" d="M67.8,49.7c-0.3-0.5-0.8-0.9-1.2-1.2c-0.5-0.3-1-0.6-1.6-0.8s-1.2-0.4-1.8-0.4c-0.6,0.1-1.2,0.3-1.7,0.7
		v0.1c0.3,0.1,0.6,0.1,0.9,0.2c0.3,0.1,0.5,0.1,0.8,0.1c0.5,0.1,1,0,1.5,0.1s1,0.3,1.5,0.5C66.8,49.2,67.2,49.5,67.8,49.7L67.8,49.7
		z"/>
</g>
<g>
	<circle fill="#DFB290" cx="29.5" cy="57" r="0.5"/>
	<circle fill="#DFB290" cx="24.6" cy="57" r="0.5"/>
	<circle fill="#DFB290" cx="19.7" cy="57" r="0.5"/>
	<circle fill="#DFB290" cx="27.2" cy="59.9" r="0.5"/>
	<circle fill="#DFB290" cx="22.3" cy="59.9" r="0.5"/>
</g>
<g>
	<circle fill="#DFB290" cx="68.5" cy="57" r="0.5"/>
	<circle fill="#DFB290" cx="63.6" cy="57" r="0.5"/>
	<circle fill="#DFB290" cx="58.7" cy="57" r="0.5"/>
	<circle fill="#DFB290" cx="66.2" cy="59.9" r="0.5"/>
	<circle fill="#DFB290" cx="61.3" cy="59.9" r="0.5"/>
</g>
<g>
	<g>
		<rect x="24.4" y="91.1" fill="#4F5257" width="19.6" height="8.1"/>
	</g>
	<g>
		<rect x="44" y="91.1" fill="#4F5257" width="19.6" height="8.1"/>
	</g>
	<g>
		<polygon fill="#21252A" points="62.3,95 62.5,94.9 60.5,92.9 60.3,93 		"/>
		<polygon fill="#21252A" points="25.5,95 25.4,94.9 27.4,92.9 27.5,93 		"/>
		<path fill="#21252A" d="M63.6,91H24.3v1.2h18.5V94l1,0.9v4.4h0.3v-7.1h19.5V91L63.6,91z M43.9,94.6L43,93.9v-1.7h0.8v2.4H43.9z"/>
	</g>
	<g>
		<rect x="24.3" y="99.2" fill="#7A7D80" width="19.7" height="0.9"/>
		<rect x="44.1" y="99.2" fill="#7A7D80" width="19.7" height="0.9"/>
		<rect x="33.5" y="91.4" fill="#7A7D80" width="0.7" height="1.8"/>
		<rect x="52.5" y="91.4" fill="#7A7D80" width="0.7" height="1.8"/>
	</g>
	<ellipse fill="#F2DFBE" cx="43.4" cy="91.6" rx="0.4" ry="0.4"/>
</g>
<g>
	<g>
		<path fill="#F6EBD6" d="M61.9,104H45.6c-0.9,0-1.6-0.7-1.6-1.6v-2h19.6v2C63.6,103.3,62.8,104,61.9,104z"/>
		<path fill="#BCB7AC" d="M57.7,102.8h-7.8v-1.6c0-0.7,0.6-1.2,1.2-1.2h5.2c0.7,0,1.2,0.6,1.2,1.2v1.6H57.7z"/>
		<path fill="#DDD3BF" d="M45.7,104h16.5C62.2,104,54.4,100.5,45.7,104z"/>
		<g>
			<rect x="49.3" y="102" fill="#6E675C" width="8.9" height="0.1"/>
			<rect x="49.3" y="101.4" fill="#6E675C" width="8.9" height="0.1"/>
			<rect x="49.3" y="100.7" fill="#6E675C" width="8.9" height="0.1"/>
		</g>
	</g>
	<g>
		<path fill="#F6EBD6" d="M42.3,104H26c-0.9,0-1.6-0.7-1.6-1.6v-2H44v2C43.9,103.3,43.2,104,42.3,104z"/>
		<path fill="#BCB7AC" d="M38,102.8h-7.8v-1.6c0-0.7,0.6-1.2,1.2-1.2h5.2c0.7,0,1.2,0.6,1.2,1.2v1.6H38z"/>
		<path fill="#DDD3BF" d="M26,104h16.5C42.6,104,34.9,100.5,26,104z"/>
		<g>
			<rect x="29.6" y="102" fill="#6E675C" width="8.9" height="0.1"/>
			<rect x="29.6" y="101.4" fill="#6E675C" width="8.9" height="0.1"/>
			<rect x="29.6" y="100.7" fill="#6E675C" width="8.9" height="0.1"/>
		</g>
	</g>
</g>
</svg>
