<?xml version="1.0" encoding="utf-8"?>
<!-- Generator: Adobe Illustrator 21.0.0, SVG Export Plug-In . SVG Version: 6.00 Build 0)  -->
<svg version="1.2" baseProfile="tiny" id="Capa_1" xmlns="http://www.w3.org/2000/svg" xmlns:xlink="http://www.w3.org/1999/xlink"
	 x="0px" y="0px" viewBox="0 0 90.7 109.4" xml:space="preserve">
<path fill="#683D18" d="M15,43.7c-1.5,0.5-2.9,1-4.4,1.7c-0.4,0.2-0.8,0.4-1.1,0.7c-0.9,1.2,0.7,3.3-0.3,4.4
	c-0.3,0.3-0.7,0.5-0.9,0.8c-0.4,0.6,0,1.4,0.6,1.9s1.2,1,1.4,1.6c0.5,1.6-1.6,3.2-0.9,4.7c0.3,0.6,1,0.9,1.2,1.6
	c0.1,0.4-0.1,0.8-0.1,1.1c-0.1,1.5,1.9,2.3,3.4,2.1s3.1-0.8,4.5-0.1c0.5,0.3,0.9,0.7,1.4,1c1.5,0.8,3.4-0.1,4.3-1.5s1.2-3.1,1.4-4.7
	c0.1-0.6,0.1-1.3-0.3-1.7c-0.2-0.2-0.5-0.3-0.7-0.5c-0.6-0.6-0.5-1.6-0.4-2.5c0.5-3.7-0.3-7.6-2.3-10.7c-0.4-0.6-0.9-1.2-1.6-1.3
	c-0.7-0.1-1.4,0.3-2,0.6c-1.5,0.7-3.2,0.8-4.8,0.4"/>
<path fill="#683D18" d="M73.6,43.7c1.5,0.5,2.9,1,4.4,1.7c0.4,0.2,0.8,0.4,1.1,0.7c0.9,1.2-0.7,3.3,0.3,4.4c0.3,0.3,0.7,0.5,0.9,0.8
	c0.4,0.6,0,1.4-0.6,1.9s-1.2,1-1.4,1.6c-0.5,1.6,1.6,3.2,0.9,4.7c-0.3,0.6-1,0.9-1.2,1.6c-0.1,0.4,0.1,0.8,0.1,1.1
	c0.1,1.5-1.9,2.3-3.4,2.1s-3.1-0.8-4.5-0.1c-0.5,0.3-0.9,0.7-1.4,1c-1.5,0.8-3.4-0.1-4.3-1.5c-0.9-1.4-1.2-3.1-1.4-4.7
	c-0.1-0.6-0.1-1.3,0.3-1.7c0.2-0.2,0.5-0.3,0.7-0.5c0.6-0.6,0.5-1.6,0.4-2.5c-0.5-3.7,0.3-7.6,2.3-10.7c0.4-0.6,0.9-1.2,1.6-1.3
	c0.7-0.1,1.4,0.3,2,0.6c1.5,0.7,3.2,0.8,4.8,0.4"/>
<path fill="#E3B98C" d="M71.2,20h-53c-2.9,0-5.3,2.4-5.3,5.3v40.1c0,2.9,2.4,5.3,5.3,5.3h7.1c-1,0.6-8.4,5.6-8.3,18.8l0,0
	c0,3.9,3.2,7,7,7v-7h0c0-3.3,0.5-5.9,1.2-7.8V97h0v3.9c0,1.1,0.9,2.1,2.1,2.1h15.3c1.1,0,2.1-0.9,2.1-2.1v-3.6h0.1v3.6
	c0,1.1,0.9,2.1,2.1,2.1h15.3c1.1,0,2.1-0.9,2.1-2.1V97h0V81.8c0.7,1.9,1.3,4.5,1.2,7.8h0v7c3.9,0,7-3.1,7-7l0,0
	c0.1-13.1-7.1-18.1-8.2-18.8h7c2.9,0,5.3-2.4,5.3-5.3V25.3C76.6,22.3,74.2,20,71.2,20z"/>
<path fill="#E3B98C" d="M65.5,89.6"/>
<g>
	<circle fill="#404049" cx="25.2" cy="51.2" r="2.4"/>
	<circle fill="#404049" cx="64" cy="51.2" r="2.4"/>
</g>
<path fill="#B48364" d="M44.7,59.7c2.2,0,4,1.8,4,4c0,0.4-0.3,0.6-0.6,0.6c-0.4,0-0.6-0.3-0.6-0.6c0-1.5-1.2-2.7-2.7-2.7
	c-1.5,0-2.7,1.2-2.7,2.7c0,0.4-0.3,0.6-0.6,0.6c-0.4,0-0.6-0.3-0.6-0.6C40.8,61.5,42.6,59.7,44.7,59.7z"/>
<g>
	<path fill="#D8A980" d="M12.9,58c-1.1-0.9-1.9-2.7-1.9-4.6c0-2,0.8-3.7,1.9-4.6L12.9,58z"/>
	<path fill="#D8A980" d="M76.6,58c1.1-0.9,1.9-2.7,1.9-4.6c0-2-0.8-3.7-1.9-4.6L76.6,58z"/>
	<path fill="#D8A980" d="M56,70.8c0,0.8-0.6,1.4-1.2,1.4H32.6c-0.7,0-1.2-0.6-1.2-1.4H56z"/>
	<path fill="#D8A980" d="M44.7,58L44.7,58c-0.9,0-1.6-0.7-1.6-1.6v-4c0-0.9,0.7-1.6,1.6-1.6l0,0c0.9,0,1.6,0.7,1.6,1.6v4
		C46.4,57.3,45.6,58,44.7,58z"/>
	<path fill="#D8A980" d="M21.9,93.9L21.9,93.9c-0.5,0-0.9-0.4-0.9-0.9v-1.5c0-0.5,0.4-0.9,0.9-0.9h0c0.5,0,0.9,0.4,0.9,0.9v1.5
		C22.7,93.5,22.4,93.9,21.9,93.9z"/>
	<path fill="#D8A980" d="M67.6,93.9L67.6,93.9c0.5,0,0.9-0.4,0.9-0.9v-1.5c0-0.5-0.4-0.9-0.9-0.9h0c-0.5,0-0.9,0.4-0.9,0.9v1.5
		C66.7,93.5,67.1,93.9,67.6,93.9z"/>
</g>
<path fill="#683D18" d="M19.8,14.8c0,0,0.6-0.9,1.9-0.5c0.4,0.2,0.5-0.8,1-0.9c0.5-0.1,0.9,0,1.4,0.1c0.2,0,0.5,0.1,0.7,0
	c0.2-0.1,0.3-0.3,0.4-0.5c0.2-0.4,0.5-0.8,0.9-1.2c1.8-1.6,2.8-0.6,4-0.2c0.7,0.2,1-1.9,1.6-1.8c0.6,0.1,0.6-0.6,1.3-0.9
	c1.1-0.4,2.5,1,3,0c0.1-0.3,0.3-0.6,0.6-0.8C37,8,37.4,8.3,37.8,8.5c1.5,0.4,2.7-1.8,4.2-1.6c0.5,0.1,1,0.5,1.5,0.7
	c1.7,0.6,3.4-1.4,5.2-1.4c0.1,0.3,0.1,0.6,0.2,0.9c0.6,0.5,1.5-0.5,2.2-0.4c0.4,0.1,0.7,0.5,1.2,0.7c0.8,0.2,1.5-0.6,2.3-0.6
	c1.3,0,1.8,1.9,3.1,2c0.6,0,1.4-0.4,1.9,0c0.7,0.7-0.6,1.8-0.4,2.8c0.2,0.9,1.5,1,2.3,0.6c0.9-0.4,1.8-1,2.7-0.6
	c1.1,0.4,1.2,2,2.3,2.5c0.7,0.3,1.6-0.1,2.3-0.5c-0.6,0.5-0.7,1.4-0.3,2c0.4,0.6,1.3,0.8,2,0.5c0.3,0.3-0.1,0.8-0.2,1.2
	c-0.2,0.8,0.7,1.4,1.5,1.4c0.8,0,1.6-0.2,2.4,0c-0.6,1.6,1.3,3.4,2.9,2.8c0.1,0.8-0.2,1.6-0.7,2.2c1.1,0.6,1.6,1.3,3,1.6
	c0.4,0.1,0.8,0.4,0.8,0.8c0.2,1-1.5,1.2-1.4,2.1c0,0.5,0.7,0.8,1.1,1.1c0.9,0.6,1.2,1.9,0.7,2.8c-0.1,0.2-0.3,0.5-0.3,0.7
	c0,0.3,0.4,0.6,0.6,0.8c0.2,0.3,0.3,0.8,0.3,1.2c0.1,1,0.1,2.2-0.7,2.7c-0.3,0.2-0.6,0.3-0.9,0.4c-0.3,0.2-0.5,0.5-0.4,0.8
	c0.2,0.5,1,0.5,1.4,0.9c0.3,0.5,0.3,1.1,0,1.5c-0.6,1.1-1.3,2.1-1,3.5c0.1,0.5,0.4,0.9,0.4,1.4c0.1,0.5-0.2,1.1-0.7,1.1
	c0.2,0.5-0.1,1.1-0.4,1.4c-0.4,0.4-0.9,0.6-1.4,0.8c-0.1,0-0.2,0.1-0.3,0.1c-0.4,0-0.4-0.5-0.7-0.6c-0.3-0.1-0.3,0.3-0.6,0.2
	c-0.5-0.2-0.4-1-0.2-1.4c0.3-0.5-0.2-1.5,0-2.1c0.4-1,0.7-1.5,0-2.4c-0.6-0.1-1.2-0.2-1.8-0.4c-0.3-0.5,0-1.1,0.3-1.6
	c0.3-0.5,0.5-1.3,0-1.6c-0.2-0.1-0.4-0.1-0.6-0.1c-1-0.1-1.8-0.6-2-1.6c-0.2-1-0.3-2,0.6-2.5c0.4-0.5-0.5-1.1-0.8-1.6
	c-0.3-0.6-0.2-1.3,0.1-1.9c0.3-0.6,0.7-1.2,0.7-1.8c0-0.7-0.5-1.4-1.2-1.3c-0.2,0-0.4,0.2-0.6,0.2c-1.1,0.2-1.8-1.6-2.8-1.4
	c-0.4,0.1-0.6,0.5-1,0.5c-0.4,0.1-0.7-0.2-1.1-0.4c-0.6-0.5-1.2-0.9-1.8-1.4c-0.9-0.7-1.7-1.2-2.6-0.4c0,0,0,0,0,0
	c-0.1,0.1-0.3,0.2-0.5,0.2c-0.3,0-0.4-0.4-0.6-0.7c-0.6-1.1-2.2-0.9-3.3-0.5c-0.4,0.1-0.7,0.2-1.1,0.4c-1.4,0.5-2.9,1-3.9,2.1
	c-0.4-0.9-1.9-0.8-2.3,0.1c-0.1,0.3-0.1,0.6-0.3,0.9c-0.6,1.2-2.6,0.4-3.7,1.1c-0.3,0.2-0.6,0.6-0.9,0.8c-1.6,1.1-3.7-1.2-5.5-0.5
	c-0.5,0.2-1,0.6-1.6,0.8C36.6,31,35.8,30.5,36,30c-1.4,1-3.2,2.1-4.6,1.1c-0.3-0.2-0.5-0.4-0.8-0.5c-0.4-0.1-0.8,0.2-1.1,0.4
	c-0.7,0.4-1.1,1.1-1.8,0.7c-0.7-0.4-0.9-1.6-0.3-2.1c-0.7-0.8-2-0.8-2.7-0.1c-0.3,0.3-0.5,0.7-0.8,0.9c-0.7,0.3-1.4-0.3-1.7-1
	c-0.3-0.6-1.3-3.5-2.1-1.9c-0.3,0.6,0.1,1.1-0.7,1.5c-0.7,0.4-1.5,0.2-2.1,0.7c0.5,0.5,0.9,1,1.2,1.6c-0.4,0.1-0.9,0.2-1.3,0.5
	c-0.4,0.3-0.6,0.8-0.4,1.2c0.2,0.5,0.9,0.7,0.9,1.3c0,0.3-0.2,0.6-0.4,0.8c-0.6,0.7-1.7,0.9-2.3,1.7c-0.1,0.1-0.2,0.3-0.2,0.5
	c0,0.3,0.4,0.4,0.4,0.7c0,0.2-0.2,0.4-0.3,0.5C14.6,39,15,39.5,15,40c0,0.6-0.6,1.1-0.5,1.7c0,0.5,0.5,1,0.5,1.5
	c0,0.8-1.2,1.3-1.2,2.1c0,0.5,0.4,0.9,0.5,1.4c0.2,0.7-0.1,1.4-0.3,2c-0.2,0.4-0.4,0.8-0.5,1.3c-0.1,0.2-0.1,0.3-0.3,0.4
	c-0.2,0-0.3-0.1-0.4-0.2c-0.6-0.6-0.7-1.6-0.3-2.4c-0.7-0.6-1.7,0.1-2.6-0.2C9,47.3,8.6,46.3,9,45.6c0.2-0.4,0.6-0.6,0.9-0.8
	c0.3-0.3,0.6-0.7,0.4-1.1c-0.1-0.4-0.7-0.7-0.6-1.2c0.1-0.5,0.8-0.5,1-0.9c0.5-0.8-1-1.4-1-2.3c0-0.8,1.2-1.3,1.2-2.2
	c0-0.4-0.4-0.8-0.8-1.1c-0.3-0.3-0.6-0.8-0.4-1.2c0.2-0.3,0.6-0.3,0.8-0.6c0.3-0.5,0.9-1.1,0.4-1.4c-0.6-0.3-1.5-0.5-1.5-1.4
	c0-0.6,0.5-1.2,1.1-1.4c1.2-0.4,1-0.9,1-1.9c0-0.6-0.5-1.1-0.2-1.7l0.3-0.3c0.1-0.4,0.2-0.8,0.4-1.2c0.1-0.2,0.2-0.5,0.2-0.7
	c0-0.2-0.1-0.4-0.2-0.6c-0.4-1,0-2.2,0.9-2.8c0.3-0.2,0.6-0.3,0.8-0.6c0.1-0.3,0-0.6,0.1-0.8c0.3-1,2-0.6,2.7-1.4
	c0.6-0.6,0.3-1.9,1.1-2.2c0.4-0.1,0.8,0,1.2-0.1C19.3,15.7,19.4,15.1,19.8,14.8"/>
<g>
	<path fill="#614B38" d="M22.2,46.4c0.5-0.2,1.1-0.4,1.7-0.4c0.6-0.1,1.2,0,1.8,0.1c0.6,0.1,1.2,0.2,1.7,0.6
		c0.5,0.4,0.9,0.8,1.1,1.4l-0.1,0.1c-0.3-0.1-0.6-0.2-0.8-0.3c-0.3-0.1-0.5-0.2-0.7-0.3c-0.5-0.2-0.9-0.5-1.4-0.7
		c-0.5-0.2-1-0.3-1.5-0.4c-0.5-0.1-1.1-0.1-1.6,0L22.2,46.4z"/>
	<path fill="#614B38" d="M66.5,46c-0.6-0.2-1.1-0.2-1.7-0.2c-0.6,0-1.2,0.1-1.7,0.3c-0.6,0.2-1.2,0.3-1.6,0.8
		c-0.5,0.4-0.8,0.9-0.9,1.5l0.1,0.1c0.3-0.1,0.6-0.2,0.8-0.4c0.3-0.1,0.5-0.3,0.7-0.4c0.4-0.2,0.8-0.6,1.3-0.8
		c0.5-0.2,1-0.4,1.5-0.5c0.5-0.1,1.1-0.2,1.6-0.2L66.5,46z"/>
</g>
<g>
	<path fill="#A0CC72" d="M69.3,75.7c0,0-2.6-3.6-5.1-4.9l0,0H53c-1.5,3.4-4.9,5.6-8.6,5.5c-3.4-0.1-6.5-2.3-8-5.5l-11.2,0l0,0l0,0
		c-2.6,1.3-5.1,4.9-5.1,4.9c1.5,2.6,3.1,5.1,4.6,7.7c0.2-0.3,0.4-0.6,0.6-0.9l0,6.2l38.9,0l0-6.1c0.2,0.3,0.3,0.5,0.5,0.8
		C66.3,80.8,67.8,78.2,69.3,75.7z"/>
	<path fill="#7CB342" d="M69.3,75.7c0,0-0.3-0.5-0.5-0.6c-1.5,2.5-3,5.1-4.5,7.7c0.1,0.2,0.3,0.4,0.4,0.7
		C66.2,80.8,67.8,78.3,69.3,75.7z"/>
	<path fill="#7CB342" d="M52.7,77.7l7.6,0l0,3.1c0,2-1.6,3.5-3.6,3.5l-0.5,0c-2,0-3.5-1.6-3.5-3.6L52.7,77.7z"/>
	<path fill="#7CB342" d="M20.1,75.7c0,0,0.3-0.5,0.5-0.6c1.5,2.5,3,5.1,4.5,7.7c-0.1,0.2-0.3,0.4-0.4,0.7
		C23.2,80.8,21.7,78.3,20.1,75.7z"/>
</g>
<g>
	<g>
		<rect x="25.3" y="88.7" fill="#4D5155" width="19.4" height="9.6"/>
	</g>
	<g>
		<rect x="44.8" y="88.7" fill="#4D5155" width="19.4" height="9.6"/>
	</g>
	<g>
		<polygon fill="#21252A" points="63,93.3 63.1,93.1 61.1,90.7 61,90.9 		"/>
		<polygon fill="#21252A" points="26.4,93.3 26.3,93.1 28.3,90.7 28.4,90.9 		"/>
		<path fill="#21252A" d="M64.2,88.5H25.2v1.4h18.3l0,2.2l1,1v5.2h0.3v-8.4h19.3V88.5z M44.6,92.7l-0.7-0.8l0-2h0.8V92.7z"/>
	</g>
	<g>
		<rect x="25.2" y="98.2" fill="#7A7C7F" width="19.5" height="1"/>
		<rect x="44.8" y="98.2" fill="#7A7C7F" width="19.5" height="1"/>
		<rect x="34.3" y="88.9" fill="#7A7C7F" width="0.7" height="2.1"/>
		<rect x="53.2" y="88.9" fill="#7A7C7F" width="0.7" height="2.1"/>
	</g>
	<ellipse fill="#F3DFBF" cx="44.2" cy="89.1" rx="0.4" ry="0.3"/>
</g>
<g>
	<g>
		<path fill="#454B55" d="M62.6,103.1H46.5c-0.9,0-1.7-0.7-1.7-1.7v-2.2h19.4v2.2C64.3,102.4,63.5,103.1,62.6,103.1z"/>
		<path fill="#6A6F77" d="M58.4,101.8h-7.7v-1.8c0-0.7,0.6-1.3,1.3-1.3h5.1c0.7,0,1.3,0.6,1.3,1.3V101.8z"/>
		<path fill="#DDD2BF" d="M46.5,103.1H63C63,103.1,55.3,99.4,46.5,103.1z"/>
		<g>
			<rect x="50.1" y="101" fill="#DDD2BF" width="8.8" height="0.1"/>
			<rect x="50.1" y="100.3" fill="#DDD2BF" width="8.8" height="0.1"/>
			<rect x="50.1" y="99.6" fill="#DDD2BF" width="8.8" height="0.1"/>
		</g>
	</g>
	<g>
		<path fill="#454B55" d="M43.2,103.1H27.1c-0.9,0-1.7-0.7-1.7-1.7v-2.2h19.4v2.2C44.8,102.4,44.1,103.1,43.2,103.1z"/>
		<path fill="#6A6F77" d="M39,101.8h-7.7v-1.8c0-0.7,0.6-1.3,1.3-1.3h5.1c0.7,0,1.3,0.6,1.3,1.3V101.8z"/>
		<path fill="#DDD2BF" d="M27.1,103.1h16.4C43.5,103.1,35.8,99.4,27.1,103.1z"/>
		<g>
			<rect x="30.7" y="101" fill="#DDD2BF" width="8.8" height="0.1"/>
			<rect x="30.7" y="100.3" fill="#DDD2BF" width="8.8" height="0.1"/>
			<rect x="30.7" y="99.6" fill="#DDD2BF" width="8.8" height="0.1"/>
		</g>
	</g>
</g>
</svg>
