<?xml version="1.0" encoding="utf-8"?>
<!-- Generator: Adobe Illustrator 21.0.0, SVG Export Plug-In . SVG Version: 6.00 Build 0)  -->
<svg version="1.2" baseProfile="tiny" id="Capa_1" xmlns="http://www.w3.org/2000/svg" xmlns:xlink="http://www.w3.org/1999/xlink"
	 x="0px" y="0px" viewBox="0 0 90.7 109.4" xml:space="preserve">
<polygon fill="#D1D1D3" points="78.9,87.6 11.2,87.6 15.9,21.8 74.2,21.8 "/>
<path fill="#E3B98C" d="M71.3,19h-53c-2.9,0-5.3,2.4-5.3,5.3v40.1c0,2.9,2.4,5.3,5.3,5.3h7.1c-1,0.6-8.4,5.6-8.3,18.8l0,0
	c0,3.9,3.2,7,7,7v-7l0,0c0-3.3,0.5-5.9,1.2-7.8V96l0,0v3.9c0,1.1,0.9,2.1,2.1,2.1h15.3c1.1,0,2.1-0.9,2.1-2.1v-3.6h0.1v3.6
	c0,1.1,0.9,2.1,2.1,2.1h15.3c1.1,0,2.1-0.9,2.1-2.1V96l0,0V80.8c0.7,1.9,1.3,4.5,1.2,7.8l0,0v7c3.9,0,7-3.1,7-7l0,0
	c0.1-13.1-7.1-18.1-8.2-18.8h7c2.9,0,5.3-2.4,5.3-5.3V24.3C76.6,21.3,74.2,19,71.3,19z"/>
<path fill="#E3B98C" d="M65.5,88.6"/>
<g>
	<circle fill="#404049" cx="25.3" cy="50.2" r="2.4"/>
	<circle fill="#404049" cx="64.1" cy="50.2" r="2.4"/>
</g>
<path fill="#C89773" d="M44.8,63.3c-2.2,0-4-1.8-4-4c0-0.4,0.3-0.6,0.6-0.6c0.4,0,0.6,0.3,0.6,0.6c0,1.5,1.2,2.7,2.7,2.7
	s2.7-1.2,2.7-2.7c0-0.4,0.3-0.6,0.6-0.6c0.4,0,0.6,0.3,0.6,0.6C48.8,61.5,47,63.3,44.8,63.3z"/>
<g>
	<path fill="#D8A980" d="M13,57c-1.1-0.9-1.9-2.7-1.9-4.6c0-2,0.8-3.7,1.9-4.6V57z"/>
	<path fill="#D8A980" d="M76.6,57c1.1-0.9,1.9-2.7,1.9-4.6c0-2-0.8-3.7-1.9-4.6V57z"/>
	<path fill="#D8A980" d="M56.1,69.8c0,0.8-0.6,1.4-1.2,1.4H32.7c-0.7,0-1.2-0.6-1.2-1.4H56.1z"/>
	<path fill="#D8A980" d="M44.8,57L44.8,57c-0.9,0-1.6-0.7-1.6-1.6v-4c0-0.9,0.7-1.6,1.6-1.6l0,0c0.9,0,1.6,0.7,1.6,1.6v4
		C46.4,56.3,45.7,57,44.8,57z"/>
	<path fill="#D8A980" d="M21.9,92.9L21.9,92.9c-0.5,0-0.9-0.4-0.9-0.9v-1.5c0-0.5,0.4-0.9,0.9-0.9l0,0c0.5,0,0.9,0.4,0.9,0.9V92
		C22.8,92.5,22.4,92.9,21.9,92.9z"/>
	<path fill="#D8A980" d="M67.7,92.9L67.7,92.9c0.5,0,0.9-0.4,0.9-0.9v-1.5c0-0.5-0.4-0.9-0.9-0.9l0,0c-0.5,0-0.9,0.4-0.9,0.9V92
		C66.8,92.5,67.2,92.9,67.7,92.9z"/>
</g>
<path fill="#E5E6EB" d="M67.9,34.2c1.3-0.4,2.7,0.4,2.9,1.8l6.6,53.3h0.7c1.8,0,3.3-1.5,3.2-3.2l-1.7-59.5c0,0-1.8-18.4-34.6-18.5
	C15,8,10.6,22.8,10.1,26.2c0,0.4-1.6,59.9-1.6,59.9c-0.1,1.8,1.4,3.2,3.2,3.2h0.7l6.8-53c0.2-1.4,1.6-2.3,2.9-1.8
	c4.2,1.4,13.4,2.9,23.5-1.1C45.6,33.3,58.6,37.4,67.9,34.2z"/>
<g>
	<path fill="#F2F1F2" d="M20.9,47.5c0.3-0.5,0.8-0.9,1.2-1.2c0.5-0.3,1-0.6,1.6-0.8s1.2-0.4,1.8-0.4c0.6,0.1,1.2,0.3,1.7,0.7v0.1
		C26.8,46,26.6,46,26.3,46c-0.3,0.1-0.5,0.1-0.8,0.1c-0.5,0.1-1,0-1.5,0.1s-1,0.3-1.5,0.5C21.9,47,21.4,47.2,20.9,47.5L20.9,47.5z"
		/>
	<path fill="#F2F1F2" d="M68.3,47.5c-0.3-0.5-0.8-0.9-1.2-1.2c-0.5-0.3-1-0.6-1.6-0.8s-1.2-0.4-1.8-0.4c-0.6,0.1-1.2,0.3-1.7,0.7
		v0.1c0.3,0.1,0.6,0.1,0.9,0.2c0.3,0.1,0.5,0.1,0.8,0.1c0.5,0.1,1,0,1.5,0.1s1,0.3,1.5,0.5C67.3,47,67.7,47.2,68.3,47.5L68.3,47.5z"
		/>
</g>
<g>
	<path fill="#8D7DB6" d="M64.3,80.7l0.6,14H24.7l0.7-14.1L28.6,70l9-0.2l6.2,4.9c0.8,1.1,2,1.1,2.9,0l6.2-5l8.6,0.1L64.3,80.7z"/>
	<polygon fill="#6E6298" points="36.2,69.8 41.8,76.7 43.7,74.7 37.5,69.8 	"/>
	<polygon fill="#6E6298" points="54,69.8 48.5,76.7 46.5,74.7 52.7,69.8 	"/>
</g>
<g>
	<rect x="28.3" y="99.6" fill="#66666D" width="13.5" height="0.2"/>
	<rect x="48" y="99.6" fill="#66666D" width="13.5" height="0.2"/>
	<g>
		<path fill="#66666D" d="M41.7,99.3C41.8,99.3,41.8,99.3,41.7,99.3c0,0.6-3,1-6.8,1s-6.8-0.4-6.8-0.9l0,0h-2.9v0.6
			c0,1.1,0.9,2.1,2.1,2.1h15.3c1.1,0,2.1-0.9,2.1-2.1v-0.6L41.7,99.3z"/>
		<path fill="#66666D" d="M47.9,99.3L47.9,99.3c0,0.6,3,1,6.8,1s6.8-0.4,6.8-0.9l0,0h2.9v0.6c0,1.1-0.9,2.1-2.1,2.1H46.9
			c-1.1,0-2.1-0.9-2.1-2.1v-0.6L47.9,99.3z"/>
	</g>
</g>
</svg>
