<?xml version="1.0" encoding="utf-8"?>
<!-- Generator: Adobe Illustrator 21.0.0, SVG Export Plug-In . SVG Version: 6.00 Build 0)  -->
<svg version="1.2" baseProfile="tiny" id="Capa_1" xmlns="http://www.w3.org/2000/svg" xmlns:xlink="http://www.w3.org/1999/xlink"
	 x="0px" y="0px" viewBox="0 0 90.7 109.4" xml:space="preserve">
<path fill="#E3B98C" d="M72.1,20.5h-53c-2.9,0-5.3,2.4-5.3,5.3V66c0,2.9,2.4,5.3,5.3,5.3h7.1c-1,0.6-8.4,5.6-8.3,18.8l0,0
	c0,3.9,3.2,7,7,7v-7h0c0-3.3,0.5-5.9,1.2-7.8v15.2h0v3.9c0,1.1,0.9,2.1,2.1,2.1h15.3c1.1,0,2.1-0.9,2.1-2.1v-3.6h0.1v3.6
	c0,1.1,0.9,2.1,2.1,2.1h15.3c1.1,0,2.1-0.9,2.1-2.1v-3.9h0V82.4c0.7,1.9,1.3,4.5,1.2,7.8h0v7c3.9,0,7-3.1,7-7l0,0
	c0.1-13.1-7.1-18.1-8.2-18.8h7c2.9,0,5.3-2.4,5.3-5.3V25.8C77.4,22.9,75,20.5,72.1,20.5z"/>
<path fill="#E3B98C" d="M66.3,90.1"/>
<g>
	<circle fill="#404049" cx="26" cy="51.7" r="2.4"/>
	<circle fill="#404049" cx="64.9" cy="51.7" r="2.4"/>
</g>
<g>
	<path fill="#D8A980" d="M13.7,58.5c-1.1-0.9-1.9-2.7-1.9-4.6c0-2,0.8-3.7,1.9-4.6L13.7,58.5z"/>
	<path fill="#D8A980" d="M77.4,58.5c1.1-0.9,1.9-2.7,1.9-4.6c0-2-0.8-3.7-1.9-4.6L77.4,58.5z"/>
	<path fill="#D8A980" d="M56.8,71.3c0,0.8-0.6,1.4-1.2,1.4H33.4c-0.7,0-1.2-0.6-1.2-1.4H56.8z"/>
	<path fill="#D8A980" d="M45.6,58.5L45.6,58.5c-0.9,0-1.6-0.7-1.6-1.6v-4c0-0.9,0.7-1.6,1.6-1.6h0c0.9,0,1.6,0.7,1.6,1.6v4
		C47.2,57.8,46.5,58.5,45.6,58.5z"/>
	<path fill="#D8A980" d="M22.7,94.5L22.7,94.5c-0.5,0-0.9-0.4-0.9-0.9v-1.5c0-0.5,0.4-0.9,0.9-0.9h0c0.5,0,0.9,0.4,0.9,0.9v1.5
		C23.6,94.1,23.2,94.5,22.7,94.5z"/>
	<path fill="#D8A980" d="M68.4,94.5L68.4,94.5c0.5,0,0.9-0.4,0.9-0.9v-1.5c0-0.5-0.4-0.9-0.9-0.9l0,0c-0.5,0-0.9,0.4-0.9,0.9v1.5
		C67.5,94.1,67.9,94.5,68.4,94.5z"/>
</g>
<path fill="#21252A" d="M14.8,50.4c0.4-0.7,0.4-1,0.5-1.9c0.1-0.8-1.7-1.1-1.5-1.9c0.1-0.8,0.8-0.7,1-1.5c0.1-0.8,0.1-0.8,0.2-1.7
	c0.1-0.8-0.8-1-0.6-1.8c0.1-0.8,0.4-0.8,0.6-1.6c0.1-0.8,0-0.9,0.1-1.7c0.1-0.8,1.5-0.6,1.6-1.4c0.1-0.8-0.1-0.9,0-1.7
	c0.1-0.8-0.1-0.9,0.1-1.7c0,0.1,0.7-0.6,1.8-0.5c0.5,0.1,1,0,1.6,0c0.5,0,1,0.8,1.6,0.8c0.5,0,1,1,1.6,1c0.5,0,1.1-1.4,1.7-1.4
	c0.5,0,1.1,1.2,1.7,1.2c0.5,0,1.1,0.3,1.7,0.3c0.5,0,1.1-0.3,1.7-0.4c0.5,0,1-1.2,1.6-1.2c0.6,0,1.2,1.2,1.8,1.2
	c0.6,0,1.1-0.7,1.6-0.7c0.6-0.1,1.1-0.5,1.6-0.6c0.6-0.1,1.3,0.8,1.8,0.8c0.5-0.1,1.3,0.2,1.8,0.1c0.5-0.2,0.5-2.1,1.1-2.3
	c0.5-0.1,1.3,0.7,1.8,0.6c0.5-0.1,1-0.6,1.6-0.7c0.5-0.1,1.1-0.5,1.6-0.5c0.5,0,1.1,0,1.7,0c0.5,0,1.1,0.3,1.7,0.3
	c0.5,0,1.1,1,1.7,0.9c0.5,0,1.1-1.1,1.6-1.1c0.5,0,1.1,0.9,1.7,0.9c0.6,0,1.1-1,1.7-1c0.6,0,1.1,0.1,1.7,0.1c0.6,0,1.1-0.3,1.7-0.3
	c0.6,0,1,1.4,1.6,1.4c0.6,0,1.1-0.7,1.7-0.7c0.6,0,1.1-0.2,1.7-0.2c0.6,0,1,1.1,1.6,1.1c0.6,0,1.2-0.9,1.7-0.8
	c0.6,0.1,1,1.2,1.5,1.3c0.6,0.1,1.3-1.4,1.8-1.4c0.6,0.1,1,1.1,1.5,1.1c0.9,0.2,2.1,0,2.1,0.1c0.1,0.8,0.3,0.8,0.5,1.6
	c0.1,0.8-0.1,0.9,0.1,1.7c0.1,0.8,0.2,0.8,0.4,1.6c0.1,0.8,0.4,0.8,0.6,1.6c0.1,0.8-0.3,0.9-0.1,1.7c0.1,0.8-1.3,1.1-1.2,1.9
	c0.1,0.8,0.3,0.8,0.4,1.6c0.1,0.8,1.7,0.5,1.9,1.4c0.1,0.8-0.6,0.9-0.4,1.8s-0.6,1.1-0.3,1.9c0.3,0.8,0.7-0.9,1-1.8
	c0.1-0.4,0.7-0.9,0.8-1.5c0.1-0.5-0.1-1.1,0-1.7c0.1-0.5,0.2-1.1,0.3-1.6c0.1-0.5-0.6-1.2-0.5-1.8c0.1-0.5,1.6-0.8,1.6-1.4
	c0.1-0.5,0.7-1,0.8-1.6c0.1-0.5-0.5-1.2-0.5-1.7c0-0.5-0.5-1.1-0.5-1.7c0-0.5-0.5-1.1-0.5-1.6c0-0.6,1.9-1.1,1.9-1.7
	c0-0.6-0.6-1.1-0.7-1.6c-0.1-0.6,0.3-1.2,0.2-1.7c-0.1-0.5-0.2-1.2-0.3-1.7c-0.1-0.5-0.2-1.2-0.3-1.7c-0.2-0.5-1.2-0.7-1.4-1.2
	c-0.2-0.9-0.5-0.7-1.1-1.5c-0.3-0.5,0.1-1.9-0.5-2.1c-0.7-0.5-1.4,0.7-2.1-0.1c-0.3-0.4,0.5-1.9,0-2.3c-0.4-0.4-1.4-0.1-1.9-0.5
	c-0.4-0.3-1.5,0.3-2-0.1c-0.4-0.3-0.2-1.7-0.7-2c-0.5-0.3-1.3,0-1.8-0.2c-0.5-0.2-0.6-1.4-1.2-1.6c-0.5-0.2-1-0.6-1.6-0.7
	c-0.5-0.2-1.1-0.2-1.7-0.3c-0.5-0.1-1.3,0.6-1.9,0.5c-0.5-0.1-1-1-1.6-1.1c-0.5-0.1-1.2,1.5-1.8,1.4c-0.5,0-1.3-0.4-1.8-0.4
	c-0.4-0.4-0.9-0.9-1.3-1.2c-0.4-0.3,0-1.9-0.5-2.2c-0.5-0.3-1.4,0.2-1.9-0.1c-0.5-0.2-0.8-1.1-1.3-1.3C51.7,8,51,8.3,50.5,8.1
	C50,8,49.6,7.1,49,7c-0.5-0.1-1.3,0.6-1.8,0.5c-0.5-0.1-1.1,0.4-1.7,0.3c-0.5-0.1-1-0.5-1.6-0.5c-0.5,0-1.1-0.3-1.6-0.4
	c-0.5,0-1.1-0.7-1.7-0.7c-0.5,0-1.1,0.7-1.6,0.7c-0.5,0-0.9,1.5-1.5,1.5c-0.5,0.1-1.1-0.2-1.6-0.1c-0.5,0.1-1,0.5-1.5,0.6
	c-0.5,0.1-1.2-0.6-1.7-0.4c-0.5,0.1-1.3-0.7-1.8-0.6c-0.5,0.1-1.2-0.1-1.7,0.1c-0.5,0.1-0.6,1.7-1.1,1.9c-0.5,0.2-0.8,0.9-1.3,1.1
	c-0.5,0.2-1.1,0.1-1.6,0.3c-0.5,0.2-0.9,0.5-1.4,0.8c-0.5,0.2-1.2-0.1-1.7,0.1c-0.5,0.2-1.1,0.2-1.6,0.5c-0.5,0.3-1,0.4-1.5,0.7
	c-0.5,0.3-0.4,1.3-0.9,1.6c-0.5,0.3-1.8-0.5-2.2-0.2c-0.4,0.4-0.7,1-1.1,1.3c-0.4,0.4-1.2,0.5-1.5,0.9c-0.4,0.4-0.3,1.2-0.6,1.7
	c-0.3,0.5,0.5,1.5,0.3,1.9c-0.2,0.5-1.4,0.7-1.5,1.2c-0.1,0.5-0.4,1.2-0.3,1.8c0,0,0.4,0.5,0.2,1.4c-0.1,0.4-0.4,0.9-0.5,1.5
	c-0.1,0.5,0.2,1.1,0.2,1.6c-0.1,0.5-0.7,1-0.7,1.5c-0.1,0.5,1.4,1.2,1.4,1.7c0,0.5-2,0.9-2.1,1.4c0,0.5,0.8,1.1,0.8,1.7
	c0,0.5,0.1,1.1,0.1,1.6c0,0.5-0.1,1.1-0.1,1.6c0,0.5,0.6,1,0.6,1.6c0,0.5-0.1,1.1-0.1,1.6c0.1,0.5,0.1,1.1,0.2,1.6
	c0.1,0.5-0.6,1.2-0.5,1.7c0.1,0.5,1.6,0.7,1.7,1.2c0.2,0.5,0.2,1,0.4,1.5c0.2,0.5,0.5,0.8,0.8,1.3C14.1,48.8,14.5,50.1,14.8,50.4z"
	/>
<g>
	<path fill="#21252A" d="M21.9,49c0.3-0.5,0.8-0.9,1.2-1.2c0.5-0.3,1-0.6,1.6-0.8c0.6-0.2,1.2-0.4,1.8-0.4c0.6,0.1,1.2,0.3,1.7,0.7
		l0,0.1c-0.3,0.1-0.6,0.1-0.9,0.2c-0.3,0.1-0.5,0.1-0.8,0.1c-0.5,0.1-1,0-1.5,0.1c-0.5,0.1-1,0.3-1.5,0.5
		C22.9,48.4,22.5,48.7,21.9,49L21.9,49z"/>
	<path fill="#21252A" d="M69.3,49c-0.3-0.5-0.8-0.9-1.2-1.2c-0.5-0.3-1-0.6-1.6-0.8c-0.6-0.2-1.2-0.4-1.8-0.4
		c-0.6,0.1-1.2,0.3-1.7,0.7l0,0.1c0.3,0.1,0.6,0.1,0.9,0.2c0.3,0.1,0.5,0.1,0.8,0.1c0.5,0.1,1,0,1.5,0.1c0.5,0.1,1,0.3,1.5,0.5
		C68.3,48.4,68.8,48.7,69.3,49L69.3,49z"/>
</g>
<g>
	<path fill="#FFFFFF" d="M71,77.9c-2-3.7-4.5-5.8-5.6-6.6c-0.1-0.1-0.2-0.1-0.3-0.1v0H52.3c0,0,0,0,0,0c0,3.5-3,6.3-6.7,6.3
		s-6.7-2.8-6.7-6.3c0,0,0,0,0,0H25.9l0,0c-0.1,0-0.3,0-0.4,0.1c-1.1,0.8-3.6,2.8-5.6,6.6l6.3,4l0.1,15.7H65l0.1-16L71,77.9z"/>
	<g>
		<rect x="58.9" y="79.9" fill="none" width="2.4" height="2.4"/>
		<rect x="58.9" y="84.9" fill="none" width="2.4" height="2.4"/>
		<path fill="none" d="M70.6,77.3c-0.5-0.9-1.1-1.7-1.6-2.4v2.4H70.6z"/>
		<rect x="33.9" y="79.9" fill="none" width="2.4" height="2.4"/>
		<rect x="58.9" y="74.9" fill="none" width="2.4" height="2.4"/>
		<rect x="43.9" y="89.9" fill="none" width="2.4" height="2.4"/>
		<rect x="48.9" y="89.9" fill="none" width="2.4" height="2.4"/>
		<rect x="53.9" y="89.9" fill="none" width="2.4" height="2.4"/>
		<rect x="58.9" y="89.9" fill="none" width="2.4" height="2.4"/>
		<rect x="64" y="74.9" fill="none" width="2.4" height="2.4"/>
		<rect x="38.9" y="89.9" fill="none" width="2.4" height="2.4"/>
		<rect x="53.9" y="74.9" fill="none" width="2.4" height="2.4"/>
		<rect x="28.9" y="74.9" fill="none" width="2.4" height="2.4"/>
		<rect x="28.9" y="79.9" fill="none" width="2.4" height="2.4"/>
		<rect x="28.9" y="89.9" fill="none" width="2.4" height="2.4"/>
		<polygon fill="none" points="64,79.9 64,82.3 65.1,82.3 65.1,81.7 66.4,80.9 66.4,79.9 		"/>
		<rect x="28.9" y="84.9" fill="none" width="2.4" height="2.4"/>
		<path fill="none" d="M26.3,71.2h-0.4l0,0c-0.1,0-0.3,0-0.4,0.1c-0.3,0.2-0.7,0.5-1.1,0.9h2V71.2z"/>
		<rect x="28.9" y="71.2" fill="none" width="2.4" height="1.1"/>
		<rect x="33.9" y="71.2" fill="none" width="2.4" height="1.1"/>
		<path fill="none" d="M21.3,75.7c-0.3,0.5-0.7,1-1,1.6h1V75.7z"/>
		<polygon fill="none" points="26.3,79.9 23.9,79.9 23.9,80.5 26.1,82 26.1,82.3 26.3,82.3 		"/>
		<polygon fill="none" points="26.3,89.9 26.2,89.9 26.2,92.4 26.3,92.4 		"/>
		<polygon fill="none" points="26.3,95 26.2,95 26.2,97.4 26.3,97.4 		"/>
		<polygon fill="none" points="26.3,84.9 26.1,84.9 26.1,87.3 26.3,87.3 		"/>
		<path fill="none" d="M38.9,77.3h2.4v-1.2c-0.5-0.4-0.9-0.8-1.3-1.3h-1.1V77.3z"/>
		<rect x="33.9" y="89.9" fill="none" width="2.4" height="2.4"/>
		<rect x="43.9" y="84.9" fill="none" width="2.4" height="2.4"/>
		<rect x="38.9" y="84.9" fill="none" width="2.4" height="2.4"/>
		<rect x="33.9" y="84.9" fill="none" width="2.4" height="2.4"/>
		<rect x="48.9" y="84.9" fill="none" width="2.4" height="2.4"/>
		<path fill="none" d="M66.4,72.3v-0.1c-0.4-0.3-0.7-0.6-1-0.8c-0.1-0.1-0.2-0.1-0.3-0.1v0H64v1.1H66.4z"/>
		<rect x="53.9" y="84.9" fill="none" width="2.4" height="2.4"/>
		<rect x="53.9" y="71.2" fill="none" width="2.4" height="1.1"/>
		<rect x="58.9" y="71.2" fill="none" width="2.4" height="1.1"/>
		<path fill="none" d="M51.3,77.3v-2.4H51c-0.5,0.7-1.2,1.3-2,1.7v0.7H51.3z"/>
		<rect x="53.9" y="79.9" fill="none" width="2.4" height="2.4"/>
		<rect x="28.9" y="95" fill="none" width="2.4" height="2.4"/>
		<rect x="53.9" y="95" fill="none" width="2.4" height="2.4"/>
		<polygon fill="none" points="64,87.3 65.1,87.3 65.1,84.9 64,84.9 		"/>
		<rect x="38.9" y="95" fill="none" width="2.4" height="2.4"/>
		<rect x="33.9" y="95" fill="none" width="2.4" height="2.4"/>
		<polygon fill="none" points="64,97.4 65,97.4 65,95 64,95 		"/>
		<rect x="43.9" y="95" fill="none" width="2.4" height="2.4"/>
		<rect x="23.9" y="74.9" fill="none" width="2.4" height="2.4"/>
		<rect x="58.9" y="95" fill="none" width="2.4" height="2.4"/>
		<rect x="48.9" y="79.9" fill="none" width="2.4" height="2.4"/>
		<polygon fill="none" points="64,92.4 65,92.4 65,89.9 64,89.9 		"/>
		<rect x="33.9" y="74.9" fill="none" width="2.4" height="2.4"/>
		<rect x="43.9" y="79.9" fill="none" width="2.4" height="2.4"/>
		<rect x="38.9" y="79.9" fill="none" width="2.4" height="2.4"/>
		<rect x="48.9" y="95" fill="none" width="2.4" height="2.4"/>
		<polygon fill="#BCA590" points="22.9,79.9 23.9,80.5 23.9,79.9 		"/>
		<path fill="#BCA590" d="M23.9,77.3v-2.4h-2c-0.2,0.3-0.4,0.5-0.6,0.8v1.6H23.9z"/>
		<rect x="26.3" y="84.9" fill="#BCA590" width="2.6" height="2.4"/>
		<rect x="26.3" y="74.9" fill="#BCA590" width="2.6" height="2.4"/>
		<rect x="26.3" y="79.9" fill="#BCA590" width="2.6" height="2.4"/>
		<rect x="26.3" y="89.9" fill="#BCA590" width="2.6" height="2.4"/>
		<rect x="26.3" y="71.2" fill="#BCA590" width="2.6" height="1.1"/>
		<rect x="26.3" y="95" fill="#BCA590" width="2.6" height="2.4"/>
		<rect x="31.3" y="71.2" fill="#BCA590" width="2.6" height="1.1"/>
		<rect x="31.3" y="79.9" fill="#BCA590" width="2.6" height="2.4"/>
		<rect x="31.3" y="95" fill="#BCA590" width="2.6" height="2.4"/>
		<rect x="31.3" y="84.9" fill="#BCA590" width="2.6" height="2.4"/>
		<rect x="31.3" y="74.9" fill="#BCA590" width="2.6" height="2.4"/>
		<rect x="31.3" y="89.9" fill="#BCA590" width="2.6" height="2.4"/>
		<path fill="#BCA590" d="M38.8,72.3c-0.1-0.3-0.1-0.7-0.1-1c0,0,0,0,0,0h-2.4v1.1H38.8z"/>
		<rect x="36.3" y="74.9" fill="#BCA590" width="2.6" height="2.4"/>
		<rect x="36.3" y="84.9" fill="#BCA590" width="2.6" height="2.4"/>
		<rect x="36.3" y="89.9" fill="#BCA590" width="2.6" height="2.4"/>
		<rect x="36.3" y="79.9" fill="#BCA590" width="2.6" height="2.4"/>
		<rect x="36.3" y="95" fill="#BCA590" width="2.6" height="2.4"/>
		<path fill="#BCA590" d="M43.9,77.3c-1-0.2-1.8-0.6-2.6-1.2v1.2H43.9z"/>
		<rect x="41.3" y="89.9" fill="#BCA590" width="2.6" height="2.4"/>
		<rect x="41.3" y="84.9" fill="#BCA590" width="2.6" height="2.4"/>
		<rect x="41.3" y="79.9" fill="#BCA590" width="2.6" height="2.4"/>
		<rect x="41.3" y="95" fill="#BCA590" width="2.6" height="2.4"/>
		<rect x="46.3" y="95" fill="#BCA590" width="2.6" height="2.4"/>
		<rect x="46.3" y="79.9" fill="#BCA590" width="2.6" height="2.4"/>
		<rect x="46.3" y="84.9" fill="#BCA590" width="2.6" height="2.4"/>
		<path fill="#BCA590" d="M48.9,76.6c-0.6,0.3-1.2,0.5-1.8,0.7h1.8V76.6z"/>
		<rect x="46.3" y="89.9" fill="#BCA590" width="2.6" height="2.4"/>
		<rect x="51.3" y="74.9" fill="#BCA590" width="2.6" height="2.4"/>
		<rect x="51.3" y="79.9" fill="#BCA590" width="2.6" height="2.4"/>
		<rect x="51.3" y="95" fill="#BCA590" width="2.6" height="2.4"/>
		<rect x="51.3" y="84.9" fill="#BCA590" width="2.6" height="2.4"/>
		<path fill="#BCA590" d="M53.9,71.2h-1.7c0,0,0,0,0,0c0,0.4,0,0.7-0.1,1h1.8V71.2z"/>
		<rect x="51.3" y="89.9" fill="#BCA590" width="2.6" height="2.4"/>
		<rect x="56.3" y="84.9" fill="#BCA590" width="2.6" height="2.4"/>
		<rect x="56.3" y="71.2" fill="#BCA590" width="2.6" height="1.1"/>
		<rect x="56.3" y="95" fill="#BCA590" width="2.6" height="2.4"/>
		<rect x="56.3" y="79.9" fill="#BCA590" width="2.6" height="2.4"/>
		<rect x="56.3" y="89.9" fill="#BCA590" width="2.6" height="2.4"/>
		<rect x="56.3" y="74.9" fill="#BCA590" width="2.6" height="2.4"/>
		<rect x="61.4" y="71.2" fill="#BCA590" width="2.6" height="1.1"/>
		<rect x="61.4" y="74.9" fill="#BCA590" width="2.6" height="2.4"/>
		<rect x="61.4" y="79.9" fill="#BCA590" width="2.6" height="2.4"/>
		<rect x="61.4" y="89.9" fill="#BCA590" width="2.6" height="2.4"/>
		<rect x="61.4" y="95" fill="#BCA590" width="2.6" height="2.4"/>
		<rect x="61.4" y="84.9" fill="#BCA590" width="2.6" height="2.4"/>
		<path fill="#BCA590" d="M66.5,72.3c-0.1,0-0.1-0.1-0.2-0.1v0.1H66.5z"/>
		<polygon fill="#BCA590" points="66.4,80.9 67.9,79.9 66.4,79.9 		"/>
		<path fill="#BCA590" d="M66.4,77.3H69v-2.4c0,0,0,0,0,0h-2.6V77.3z"/>
		<rect x="43.9" y="97.4" fill="#BC9663" width="2.4" height="0.3"/>
		<rect x="58.9" y="97.4" fill="#BC9663" width="2.4" height="0.3"/>
		<rect x="64" y="97.4" fill="#BC9663" width="1.1" height="0.3"/>
		<rect x="48.9" y="97.4" fill="#BC9663" width="2.4" height="0.3"/>
		<rect x="53.9" y="97.4" fill="#BC9663" width="2.4" height="0.3"/>
		<rect x="28.9" y="97.4" fill="#BC9663" width="2.4" height="0.3"/>
		
			<rect x="26.2" y="97.4" transform="matrix(1 -6.102243e-03 6.102243e-03 1 -0.5948 0.1619)" fill="#BC9663" width="0.1" height="0.3"/>
		<rect x="33.9" y="97.4" fill="#BC9663" width="2.4" height="0.3"/>
		<rect x="38.9" y="97.4" fill="#BC9663" width="2.4" height="0.3"/>
		<rect x="26.3" y="97.4" fill="#BCA590" width="2.6" height="0.3"/>
		<rect x="26.3" y="97.4" fill="#BC9663" width="2.6" height="0.3"/>
		<rect x="31.3" y="97.4" fill="#BCA590" width="2.6" height="0.3"/>
		<rect x="31.3" y="97.4" fill="#BC9663" width="2.6" height="0.3"/>
		<rect x="36.3" y="97.4" fill="#BCA590" width="2.6" height="0.3"/>
		<rect x="36.3" y="97.4" fill="#BC9663" width="2.6" height="0.3"/>
		<rect x="41.3" y="97.4" fill="#BCA590" width="2.6" height="0.3"/>
		<rect x="41.3" y="97.4" fill="#BC9663" width="2.6" height="0.3"/>
		<rect x="46.3" y="97.4" fill="#BCA590" width="2.6" height="0.3"/>
		<rect x="46.3" y="97.4" fill="#BC9663" width="2.6" height="0.3"/>
		<rect x="51.3" y="97.4" fill="#BCA590" width="2.6" height="0.3"/>
		<rect x="51.3" y="97.4" fill="#BC9663" width="2.6" height="0.3"/>
		<rect x="56.3" y="97.4" fill="#BCA590" width="2.6" height="0.3"/>
		<rect x="56.3" y="97.4" fill="#BC9663" width="2.6" height="0.3"/>
		<rect x="61.4" y="97.4" fill="#BCA590" width="2.6" height="0.3"/>
		<rect x="61.4" y="97.4" fill="#BC9663" width="2.6" height="0.3"/>
		<rect x="33.9" y="92.4" fill="#BCA590" width="2.4" height="2.6"/>
		<polygon fill="#BCA590" points="64,95 65,95 65,92.4 64,92.4 		"/>
		<rect x="28.9" y="92.4" fill="#BCA590" width="2.4" height="2.6"/>
		<polygon fill="#BCA590" points="26.3,92.4 26.2,92.4 26.2,95 26.3,95 		"/>
		<rect x="58.9" y="92.4" fill="#BCA590" width="2.4" height="2.6"/>
		<rect x="43.9" y="92.4" fill="#BCA590" width="2.4" height="2.6"/>
		<rect x="53.9" y="92.4" fill="#BCA590" width="2.4" height="2.6"/>
		<rect x="48.9" y="92.4" fill="#BCA590" width="2.4" height="2.6"/>
		<rect x="38.9" y="92.4" fill="#BCA590" width="2.4" height="2.6"/>
		<rect x="26.3" y="92.4" fill="#BCA590" width="2.6" height="2.6"/>
		<rect x="26.3" y="92.4" fill="#BCA590" width="2.6" height="2.6"/>
		<rect x="31.3" y="92.4" fill="#BCA590" width="2.6" height="2.6"/>
		<rect x="31.3" y="92.4" fill="#BCA590" width="2.6" height="2.6"/>
		<rect x="36.3" y="92.4" fill="#BCA590" width="2.6" height="2.6"/>
		<rect x="36.3" y="92.4" fill="#BCA590" width="2.6" height="2.6"/>
		<rect x="41.3" y="92.4" fill="#BCA590" width="2.6" height="2.6"/>
		<rect x="41.3" y="92.4" fill="#BCA590" width="2.6" height="2.6"/>
		<rect x="46.3" y="92.4" fill="#BCA590" width="2.6" height="2.6"/>
		<rect x="46.3" y="92.4" fill="#BCA590" width="2.6" height="2.6"/>
		<rect x="51.3" y="92.4" fill="#BCA590" width="2.6" height="2.6"/>
		<rect x="51.3" y="92.4" fill="#BCA590" width="2.6" height="2.6"/>
		<rect x="56.3" y="92.4" fill="#BCA590" width="2.6" height="2.6"/>
		<rect x="56.3" y="92.4" fill="#BCA590" width="2.6" height="2.6"/>
		<rect x="61.4" y="92.4" fill="#BCA590" width="2.6" height="2.6"/>
		<rect x="61.4" y="92.4" fill="#BCA590" width="2.6" height="2.6"/>
		<polygon fill="#BC9663" points="64,89.9 65,89.9 65.1,87.3 64,87.3 		"/>
		<rect x="53.9" y="87.3" fill="#BC9663" width="2.4" height="2.6"/>
		<rect x="43.9" y="87.3" fill="#BC9663" width="2.4" height="2.6"/>
		<rect x="58.9" y="87.3" fill="#BC9663" width="2.4" height="2.6"/>
		<rect x="28.9" y="87.3" fill="#BC9663" width="2.4" height="2.6"/>
		<rect x="33.9" y="87.3" fill="#BC9663" width="2.4" height="2.6"/>
		<polygon fill="#BC9663" points="26.3,87.3 26.1,87.3 26.2,89.9 26.3,89.9 		"/>
		<rect x="38.9" y="87.3" fill="#BC9663" width="2.4" height="2.6"/>
		<rect x="48.9" y="87.3" fill="#BC9663" width="2.4" height="2.6"/>
		<rect x="26.3" y="87.3" fill="#BCA590" width="2.6" height="2.6"/>
		<rect x="26.3" y="87.3" fill="#BC9663" width="2.6" height="2.6"/>
		<rect x="31.3" y="87.3" fill="#BCA590" width="2.6" height="2.6"/>
		<rect x="31.3" y="87.3" fill="#BC9663" width="2.6" height="2.6"/>
		<rect x="36.3" y="87.3" fill="#BCA590" width="2.6" height="2.6"/>
		<rect x="36.3" y="87.3" fill="#BC9663" width="2.6" height="2.6"/>
		<rect x="41.3" y="87.3" fill="#BCA590" width="2.6" height="2.6"/>
		<rect x="41.3" y="87.3" fill="#BC9663" width="2.6" height="2.6"/>
		<rect x="46.3" y="87.3" fill="#BCA590" width="2.6" height="2.6"/>
		<rect x="46.3" y="87.3" fill="#BC9663" width="2.6" height="2.6"/>
		<rect x="51.3" y="87.3" fill="#BCA590" width="2.6" height="2.6"/>
		<rect x="51.3" y="87.3" fill="#BC9663" width="2.6" height="2.6"/>
		<rect x="56.3" y="87.3" fill="#BCA590" width="2.6" height="2.6"/>
		<rect x="56.3" y="87.3" fill="#BC9663" width="2.6" height="2.6"/>
		<rect x="61.4" y="87.3" fill="#BCA590" width="2.6" height="2.6"/>
		<rect x="61.4" y="87.3" fill="#BC9663" width="2.6" height="2.6"/>
		<polygon fill="#BCA590" points="26.3,82.3 26.1,82.3 26.1,84.9 26.3,84.9 		"/>
		<rect x="53.9" y="82.3" fill="#BCA590" width="2.4" height="2.6"/>
		<rect x="38.9" y="82.3" fill="#BCA590" width="2.4" height="2.6"/>
		<rect x="28.9" y="82.3" fill="#BCA590" width="2.4" height="2.6"/>
		<rect x="48.9" y="82.3" fill="#BCA590" width="2.4" height="2.6"/>
		<polygon fill="#BCA590" points="64,84.9 65.1,84.9 65.1,82.3 64,82.3 		"/>
		<rect x="43.9" y="82.3" fill="#BCA590" width="2.4" height="2.6"/>
		<rect x="58.9" y="82.3" fill="#BCA590" width="2.4" height="2.6"/>
		<rect x="33.9" y="82.3" fill="#BCA590" width="2.4" height="2.6"/>
		<rect x="26.3" y="82.3" fill="#BCA590" width="2.6" height="2.6"/>
		<rect x="26.3" y="82.3" fill="#BCA590" width="2.6" height="2.6"/>
		<rect x="31.3" y="82.3" fill="#BCA590" width="2.6" height="2.6"/>
		<rect x="31.3" y="82.3" fill="#BCA590" width="2.6" height="2.6"/>
		<rect x="36.3" y="82.3" fill="#BCA590" width="2.6" height="2.6"/>
		<rect x="36.3" y="82.3" fill="#BCA590" width="2.6" height="2.6"/>
		<rect x="41.3" y="82.3" fill="#BCA590" width="2.6" height="2.6"/>
		<rect x="41.3" y="82.3" fill="#BCA590" width="2.6" height="2.6"/>
		<rect x="46.3" y="82.3" fill="#BCA590" width="2.6" height="2.6"/>
		<rect x="46.3" y="82.3" fill="#BCA590" width="2.6" height="2.6"/>
		<rect x="51.3" y="82.3" fill="#BCA590" width="2.6" height="2.6"/>
		<rect x="51.3" y="82.3" fill="#BCA590" width="2.6" height="2.6"/>
		<rect x="56.3" y="82.3" fill="#BCA590" width="2.6" height="2.6"/>
		<rect x="56.3" y="82.3" fill="#BCA590" width="2.6" height="2.6"/>
		<rect x="61.4" y="82.3" fill="#BCA590" width="2.6" height="2.6"/>
		<rect x="61.4" y="82.3" fill="#BCA590" width="2.6" height="2.6"/>
		<rect x="23.9" y="77.3" fill="#BC9663" width="2.4" height="2.6"/>
		<path fill="#BC9663" d="M46.3,79.9v-2.5c-0.3,0-0.6,0.1-0.8,0.1c-0.5,0-1.1-0.1-1.6-0.2v2.6H46.3z"/>
		<rect x="38.9" y="77.3" fill="#BC9663" width="2.4" height="2.6"/>
		<path fill="#BC9663" d="M20.2,77.3c-0.1,0.2-0.3,0.4-0.4,0.6l1.4,0.9v-1.5H20.2z"/>
		<rect x="64" y="77.3" fill="#BC9663" width="2.4" height="2.6"/>
		<path fill="#BC9663" d="M69,79.2l2-1.3c-0.1-0.2-0.2-0.4-0.4-0.6H69V79.2z"/>
		<rect x="53.9" y="77.3" fill="#BC9663" width="2.4" height="2.6"/>
		<rect x="48.9" y="77.3" fill="#BC9663" width="2.4" height="2.6"/>
		<rect x="58.9" y="77.3" fill="#BC9663" width="2.4" height="2.6"/>
		<rect x="28.9" y="77.3" fill="#BC9663" width="2.4" height="2.6"/>
		<rect x="33.9" y="77.3" fill="#BC9663" width="2.4" height="2.6"/>
		<polygon fill="#BCA590" points="23.9,77.3 21.3,77.3 21.3,78.8 22.9,79.9 23.9,79.9 		"/>
		<polygon fill="#BC9663" points="23.9,77.3 21.3,77.3 21.3,78.8 22.9,79.9 23.9,79.9 		"/>
		<rect x="26.3" y="77.3" fill="#BCA590" width="2.6" height="2.6"/>
		<rect x="26.3" y="77.3" fill="#BC9663" width="2.6" height="2.6"/>
		<rect x="31.3" y="77.3" fill="#BCA590" width="2.6" height="2.6"/>
		<rect x="31.3" y="77.3" fill="#BC9663" width="2.6" height="2.6"/>
		<rect x="36.3" y="77.3" fill="#BCA590" width="2.6" height="2.6"/>
		<rect x="36.3" y="77.3" fill="#BC9663" width="2.6" height="2.6"/>
		<path fill="#BCA590" d="M41.3,79.9h2.6v-2.6c0,0,0,0,0,0h-2.6V79.9z"/>
		<path fill="#BC9663" d="M41.3,79.9h2.6v-2.6c0,0,0,0,0,0h-2.6V79.9z"/>
		<path fill="#BCA590" d="M48.9,79.9v-2.6h-1.8c-0.3,0.1-0.5,0.1-0.8,0.1v2.5H48.9z"/>
		<path fill="#BC9663" d="M48.9,79.9v-2.6h-1.8c-0.3,0.1-0.5,0.1-0.8,0.1v2.5H48.9z"/>
		<rect x="51.3" y="77.3" fill="#BCA590" width="2.6" height="2.6"/>
		<rect x="51.3" y="77.3" fill="#BC9663" width="2.6" height="2.6"/>
		<rect x="56.3" y="77.3" fill="#BCA590" width="2.6" height="2.6"/>
		<rect x="56.3" y="77.3" fill="#BC9663" width="2.6" height="2.6"/>
		<rect x="61.4" y="77.3" fill="#BCA590" width="2.6" height="2.6"/>
		<rect x="61.4" y="77.3" fill="#BC9663" width="2.6" height="2.6"/>
		<polygon fill="#BCA590" points="66.4,77.3 66.4,79.9 67.9,79.9 69,79.2 69,77.3 		"/>
		<polygon fill="#BC9663" points="66.4,77.3 66.4,79.9 67.9,79.9 69,79.2 69,77.3 		"/>
		<path fill="#BCA590" d="M51.3,74.3c-0.1,0.2-0.2,0.4-0.4,0.5h0.4V74.3z"/>
		<path fill="#BCA590" d="M26.3,74.9v-2.6h-2c-0.1,0.1-0.3,0.3-0.4,0.4v2.2H26.3z"/>
		<rect x="28.9" y="72.3" fill="#BCA590" width="2.4" height="2.6"/>
		<path fill="#BCA590" d="M40,74.9c-0.5-0.7-0.9-1.5-1.1-2.3v2.3H40z"/>
		<rect x="64" y="72.3" fill="#BCA590" width="2.4" height="2.6"/>
		<rect x="58.9" y="72.3" fill="#BCA590" width="2.4" height="2.6"/>
		<rect x="53.9" y="72.3" fill="#BCA590" width="2.4" height="2.6"/>
		<rect x="33.9" y="72.3" fill="#BCA590" width="2.4" height="2.6"/>
		<path fill="#BCA590" d="M23.9,72.7c-0.6,0.6-1.3,1.3-2,2.2h2V72.7z"/>
		<path fill="#BCA590" d="M23.9,72.7c-0.6,0.6-1.3,1.3-2,2.2h2V72.7z"/>
		<rect x="26.3" y="72.3" fill="#BCA590" width="2.6" height="2.6"/>
		<rect x="26.3" y="72.3" fill="#BCA590" width="2.6" height="2.6"/>
		<rect x="31.3" y="72.3" fill="#BCA590" width="2.6" height="2.6"/>
		<rect x="31.3" y="72.3" fill="#BCA590" width="2.6" height="2.6"/>
		<path fill="#BCA590" d="M36.3,74.9h2.6v-2.3c0-0.1,0-0.2-0.1-0.3h-2.5V74.9z"/>
		<path fill="#BCA590" d="M36.3,74.9h2.6v-2.3c0-0.1,0-0.2-0.1-0.3h-2.5V74.9z"/>
		<path fill="#BCA590" d="M53.9,74.9v-2.6h-1.8c-0.1,0.7-0.4,1.4-0.8,2.1v0.5H53.9z"/>
		<path fill="#BCA590" d="M53.9,74.9v-2.6h-1.8c-0.1,0.7-0.4,1.4-0.8,2.1v0.5H53.9z"/>
		<rect x="56.3" y="72.3" fill="#BCA590" width="2.6" height="2.6"/>
		<rect x="56.3" y="72.3" fill="#BCA590" width="2.6" height="2.6"/>
		<rect x="61.4" y="72.3" fill="#BCA590" width="2.6" height="2.6"/>
		<rect x="61.4" y="72.3" fill="#BCA590" width="2.6" height="2.6"/>
		<path fill="#BCA590" d="M66.4,74.9H69c-0.9-1.1-1.7-2-2.4-2.6h-0.2V74.9z"/>
		<path fill="#BCA590" d="M66.4,74.9H69c-0.9-1.1-1.7-2-2.4-2.6h-0.2V74.9z"/>
	</g>
</g>
<g>
	<g>
		<rect x="26.1" y="90.4" fill="#917368" width="19.4" height="8.1"/>
	</g>
	<g>
		<rect x="45.6" y="90.4" fill="#917368" width="19.4" height="8.1"/>
	</g>
	<g>
		<polygon fill="#765042" points="63.9,94.3 64,94.2 62,92.2 61.9,92.3 		"/>
		<polygon fill="#765042" points="27.2,94.3 27.1,94.2 29.1,92.2 29.2,92.3 		"/>
		<path fill="#765042" d="M65.1,90.3h-39v1.2h18.4l0,1.8l1,0.9v4.4h0.3v-7.1h19.3V90.3z M45.5,93.9l-0.8-0.7l0-1.7h0.8V93.9z"/>
	</g>
	<g>
		<rect x="26" y="98.5" fill="#AD968D" width="19.6" height="0.9"/>
		<rect x="45.6" y="98.5" fill="#AD968D" width="19.6" height="0.9"/>
		<rect x="35.1" y="90.7" fill="#AD968D" width="0.7" height="1.8"/>
		<rect x="54" y="90.7" fill="#AD968D" width="0.7" height="1.8"/>
	</g>
	<circle fill="#F3DFBF" cx="45" cy="90.9" r="0.4"/>
</g>
<g>
	<path fill="#21252A" d="M77.4,47.3C77.6,63.7,64.4,64,64.4,64c-0.6,0-1.6-0.1-2.8-0.3c-1,0.7-2.2,1.2-3.2,1.2c-1.5,0-2-0.2-2.1-0.3
		l0.3,0.5c0,0-2.5,1.1-5.6-0.5c-2.8-1.5-4-2.7-5.5-2.5c-1.5-0.2-2.7,1-5.5,2.5c-3.1,1.6-5.6,0.5-5.6,0.5l0.3-0.5
		c-0.2,0.1-0.6,0.3-2.1,0.3c-1,0-2.2-0.4-3.1-1.1c-1.1,0.1-1.9,0.2-2.4,0.2c0,0-13.2-0.3-13.1-16.8l-0.1,19.1c0,0,0.2,4.9,5.2,5
		l26.4,0l0,0l27,0c5,0,5.2-5,5.2-5L77.4,47.3z"/>
	<path fill="#21252A" d="M45.5,58.2c0,0-3.3-1.3-6,0.8c-2.2,1.8-4.9,4.2-6.7,4.6c-1.8,0.5-5-0.3-4.9-2.8c0-2.5,1.4-2.6,1.4-2.6
		s-1.5,0.1-1.7,2.6c-0.2,2.6,2.8,4.6,5.1,4.6c2.3,0,2.2-0.4,2.2-0.4l-0.4,0.6c0,0,2.5,1.1,5.6-0.5c2.8-1.5,4-2.7,5.5-2.5
		c1.5-0.2,2.7,1,5.5,2.5c3.1,1.6,5.6,0.5,5.6,0.5L56.2,65c0,0-0.1,0.4,2.2,0.4c2.3,0,5.2-2,5.1-4.6c-0.2-2.6-1.7-2.6-1.7-2.6
		s1.3,0.1,1.4,2.6c0,2.5-3.1,3.3-4.9,2.8c-1.8-0.5-4.5-2.9-6.7-4.6C48.8,56.8,45.5,58.2,45.5,58.2z"/>
	<path fill="#E2B88B" d="M48.8,64c-2.3-1.7-3.3-1.3-3.3-1.3c-0.1,0-1.1-0.3-3.3,1.3l-1.1,0.6c0,0,2.3,0.9,2.8,0.2
		c0,0,0.3-1.3,1.6-0.8l0,0c0,0,0,0,0,0c0,0,0,0,0,0l0,0c1.2-0.6,1.6,0.8,1.6,0.8c0.5,0.8,2.8-0.2,2.8-0.2L48.8,64z"/>
</g>
<g>
	<path fill="#382019" d="M43.5,103.5H28.2c-1.1,0-2.1-0.9-2.1-2.1v-1.3h19.4v1.3C45.6,102.6,44.6,103.5,43.5,103.5z"/>
	<path fill="#382019" d="M63,103.5H47.7c-1.1,0-2.1-0.9-2.1-2.1v-1.3H65v1.3C65,102.6,64.1,103.5,63,103.5z"/>
</g>
</svg>
