<?xml version="1.0" encoding="utf-8"?>
<!-- Generator: Adobe Illustrator 21.0.0, SVG Export Plug-In . SVG Version: 6.00 Build 0)  -->
<svg version="1.2" baseProfile="tiny" id="Capa_1" xmlns="http://www.w3.org/2000/svg" xmlns:xlink="http://www.w3.org/1999/xlink"
	 x="0px" y="0px" viewBox="0 0 90.7 109.4" xml:space="preserve">
<path fill="#AE593A" d="M77.1,75.8l-64.4-0.5c-3.1,0-5.4-2.8-5-6l6.7-40.6l62.3,0.6L82.3,70C82.6,73.1,80.2,75.8,77.1,75.8z"/>
<path fill="#FBD8B7" d="M71.4,20.1h-53c-2.9,0-5.3,2.4-5.3,5.3v40.1c0,2.9,2.4,5.3,5.3,5.3h7.1c-1,0.6-8.4,5.6-8.3,18.8l0,0
	c0,3.9,3.2,7,7,7v-7l0,0c0-3.3,0.5-5.9,1.2-7.8V97l0,0v3.9c0,1.1,0.9,2.1,2.1,2.1h15.3c1.1,0,2.1-0.9,2.1-2.1v-3.6H45v3.6
	c0,1.1,0.9,2.1,2.1,2.1h15.3c1.1,0,2.1-0.9,2.1-2.1V97l0,0V82c0.7,1.9,1.3,4.5,1.2,7.8l0,0v7c3.9,0,7-3.1,7-7l0,0
	c0.1-13.1-7.1-18.1-8.2-18.8h7c2.9,0,5.3-2.4,5.3-5.3V25.4C76.7,22.5,74.3,20.1,71.4,20.1z"/>
<path fill="#E3B98C" d="M65.6,89.7"/>
<g>
	<circle fill="#674428" cx="25.4" cy="51.3" r="2.4"/>
	<circle fill="#674428" cx="64.2" cy="51.3" r="2.4"/>
</g>
<g>
	<path fill="#EDC39F" d="M13,58.1c-1.1-0.9-1.9-2.7-1.9-4.6c0-2,0.8-3.7,1.9-4.6V58.1z"/>
	<path fill="#EDC39F" d="M76.7,58.1c1.1-0.9,1.9-2.7,1.9-4.6c0-2-0.8-3.7-1.9-4.6V58.1z"/>
	<path fill="#EDC39F" d="M56.2,70.9c0,0.8-0.6,1.4-1.2,1.4H32.8c-0.7,0-1.2-0.6-1.2-1.4H56.2z"/>
	<path fill="#EDC39F" d="M44.9,58.1L44.9,58.1c-0.9,0-1.6-0.7-1.6-1.6v-4c0-0.9,0.7-1.6,1.6-1.6l0,0c0.9,0,1.6,0.7,1.6,1.6v4
		C46.5,57.4,45.8,58.1,44.9,58.1z"/>
	<path fill="#EDC39F" d="M22,94.1L22,94.1c-0.5,0-0.9-0.4-0.9-0.9v-1.5c0-0.5,0.4-0.9,0.9-0.9l0,0c0.5,0,0.9,0.4,0.9,0.9v1.5
		C22.9,93.7,22.5,94.1,22,94.1z"/>
	<path fill="#EDC39F" d="M67.7,94.1L67.7,94.1c0.5,0,0.9-0.4,0.9-0.9v-1.5c0-0.5-0.4-0.9-0.9-0.9l0,0c-0.5,0-0.9,0.4-0.9,0.9v1.5
		C66.9,93.7,67.3,94.1,67.7,94.1z"/>
</g>
<path fill="#AE593A" d="M25.4,26.5c0,0-5.3,20.6-13.5,18.4c-1-3.4-1.8-5.2-1.2-10.7c0.5-4.4,2.1-8.1,2.4-8.8
	c0.3-0.7,1.1-2.2,2.7-4.5c1-1.5,3.5-5.2,7.7-7.8c4.1-2.7,8-3.7,12.2-4.2c8.1-1,14.7,0.5,17.8,1.3c6.7,1.8,15.3,2.1,20.9,10.5
	c4.7,7.1,4.7,14.7,4.5,18c0.4,0.8,0.9,1.6,1.3,2.5c-2,1.4-5.3,3.2-9.7,3.5c-12,0.8-19.7-10.7-20.1-11.3c0,0-0.4,6.1,3.6,8.2
	C54,41.5,34.5,45.4,25.4,26.5z"/>
<g>
	<path fill="#F3844F" d="M13.2,36.3c0,0,7.3-22,34-20.5s29.6,21.1,29.6,21.1s-2-26.6-31.3-26.6S13.2,36.3,13.2,36.3z"/>
	<g>
		<path fill="#E37940" d="M15.3,14.5c0,0,3.1,8.6,11,4.8C26.3,19.3,24.1,10.6,15.3,14.5z"/>
		<path fill="#F79D70" d="M21.2,8.4c0,0-3.3,8.5,5.3,10.8C26.5,19.2,30.5,11.1,21.2,8.4z"/>
	</g>
</g>
<g>
	<path fill="#AE593A" d="M20.9,48.2c0.3-0.5,0.8-0.9,1.2-1.2c0.5-0.3,1-0.6,1.6-0.8s1.2-0.4,1.8-0.4c0.6,0.1,1.2,0.3,1.7,0.7v0.1
		c-0.3,0.1-0.6,0.1-0.9,0.2c-0.3,0.1-0.5,0.1-0.8,0.1c-0.5,0.1-1,0-1.5,0.1s-1,0.3-1.5,0.5C21.9,47.7,21.5,48,20.9,48.2L20.9,48.2z"
		/>
	<path fill="#AE593A" d="M68.3,48.2c-0.3-0.5-0.8-0.9-1.2-1.2c-0.5-0.3-1-0.6-1.6-0.8s-1.2-0.4-1.8-0.4c-0.6,0.1-1.2,0.3-1.7,0.7
		v0.1c0.3,0.1,0.6,0.1,0.9,0.2c0.3,0.1,0.5,0.1,0.8,0.1c0.5,0.1,1,0,1.5,0.1s1,0.3,1.5,0.5C67.3,47.7,67.8,48,68.3,48.2L68.3,48.2z"
		/>
</g>
<g>
	<path id="XMLID_2_" fill="#F79D70" d="M45.5,60.3c-1.6-1-3-0.9-4.3,0.1c-1.5,1.1-3,0.7-3,0.7s2.5,3.3,7.3,3.3s7.3-3.3,7.3-3.3
		s-1.5,0.5-3-0.7C48.5,59.5,47.1,59.3,45.5,60.3z"/>
	<path id="XMLID_1_" fill="#E98D68" d="M38.2,60.9c0,0,2.5,3.7,7.3,3.7s7.3-3.7,7.3-3.7S47.2,63.5,38.2,60.9z"/>
</g>
<g>
	<path fill="#F3844F" d="M64.5,81.7l0.6,14H25l0.7-14.1l3.2-10.8h9.4l4.2,6.9c0.4,0.5,2.5-1.1,3.3-1.1c0.9,0,3,1.6,3.4,1l3.7-6.8
		l8.6,0.1L64.5,81.7z"/>
	<path fill="#E6E7EC" d="M38.9,70.4c-0.4,0.3-2.1,1.5-2.3,3.3c-0.2,2.7,3.1,5.2,5.9,4.8c1.6-0.2,2.7-1.3,3.1-1.8
		c-1.4-0.6-2.5-1.3-3.2-1.8c-1.5-1-2-1.5-2.3-1.8c0,0,0-0.1-0.1-0.1C39.4,72.2,39,71.3,38.9,70.4z"/>
	<path fill="#E6E7EC" d="M52.4,70.4c0.4,0.3,2.1,1.5,2.3,3.3c0.2,2.7-3.1,5.2-5.9,4.8c-1.6-0.2-2.7-1.3-3.1-1.8
		c1.4-0.6,2.5-1.3,3.2-1.8c1.5-1,2-1.5,2.3-1.8c0,0,0-0.1,0.1-0.1C51.9,72.1,52.2,71.2,52.4,70.4z"/>
</g>
<g>
	<rect x="28.4" y="100.7" fill="#765042" width="13.5" height="0.2"/>
	<rect x="48" y="100.7" fill="#765042" width="13.5" height="0.2"/>
	<g>
		<path fill="#765042" d="M41.8,100.4L41.8,100.4c0,0.6-3,1-6.8,1s-6.8-0.4-6.8-0.9l0,0h-2.9v0.6c0,1.1,0.9,2.1,2.1,2.1h15.3
			c1.1,0,2.1-0.9,2.1-2.1v-0.6L41.8,100.4z"/>
		<path fill="#765042" d="M48,100.4C48,100.4,47.9,100.4,48,100.4c0,0.6,3,1,6.8,1s6.8-0.4,6.8-0.9l0,0h2.9v0.6
			c0,1.1-0.9,2.1-2.1,2.1H47c-1.1,0-2.1-0.9-2.1-2.1v-0.6L48,100.4z"/>
	</g>
</g>
</svg>
