<?xml version="1.0" encoding="utf-8"?>
<!-- Generator: Adobe Illustrator 21.0.0, SVG Export Plug-In . SVG Version: 6.00 Build 0)  -->
<svg version="1.2" baseProfile="tiny" id="Capa_1" xmlns="http://www.w3.org/2000/svg" xmlns:xlink="http://www.w3.org/1999/xlink"
	 x="0px" y="0px" viewBox="0 0 90.7 109.4" xml:space="preserve">
<path fill="#E3B98C" d="M71.6,14h-53c-2.9,0-5.3,2.4-5.3,5.3v40.1c0,2.9,2.4,5.3,5.3,5.3h7.1c-1,0.6-8.4,5.6-8.3,18.8l0,0
	c0,3.9,3.2,7,7,7v-7h0c0-3.3,0.5-5.9,1.2-7.8V91h0v3.9c0,1.1,0.9,2.1,2.1,2.1H43c1.1,0,2.1-0.9,2.1-2.1v-3.6h0.1v3.6
	c0,1.1,0.9,2.1,2.1,2.1h15.3c1.1,0,2.1-0.9,2.1-2.1V91h0V75.9c0.7,1.9,1.3,4.5,1.2,7.8h0v7c3.9,0,7-3.1,7-7l0,0
	c0.1-13.1-7.1-18.1-8.2-18.8h7c2.9,0,5.3-2.4,5.3-5.3V19.3C77,16.4,74.6,14,71.6,14z"/>
<path fill="#E3B98C" d="M65.9,83.6"/>
<g>
	<circle fill="#404049" cx="25.6" cy="45.2" r="2.4"/>
	<circle fill="#404049" cx="64.4" cy="45.2" r="2.4"/>
</g>
<path fill="#C89773" d="M45.1,58.3c-2.2,0-4-1.8-4-4c0-0.4,0.3-0.6,0.6-0.6c0.4,0,0.6,0.3,0.6,0.6c0,1.5,1.2,2.7,2.7,2.7
	c1.5,0,2.7-1.2,2.7-2.7c0-0.4,0.3-0.6,0.6-0.6c0.4,0,0.6,0.3,0.6,0.6C49.1,56.6,47.3,58.3,45.1,58.3z"/>
<g>
	<path fill="#D8A980" d="M13.3,52c-1.1-0.9-1.9-2.7-1.9-4.6c0-2,0.8-3.7,1.9-4.6L13.3,52z"/>
	<path fill="#D8A980" d="M77,52c1.1-0.9,1.9-2.7,1.9-4.6c0-2-0.8-3.7-1.9-4.6L77,52z"/>
	<path fill="#D8A980" d="M56.4,64.8c0,0.8-0.6,1.4-1.2,1.4H33c-0.7,0-1.2-0.6-1.2-1.4H56.4z"/>
	<path fill="#D8A980" d="M45.1,52L45.1,52c-0.9,0-1.6-0.7-1.6-1.6v-4c0-0.9,0.7-1.6,1.6-1.6h0c0.9,0,1.6,0.7,1.6,1.6v4
		C46.8,51.3,46,52,45.1,52z"/>
	<path fill="#D8A980" d="M22.3,88L22.3,88c-0.5,0-0.9-0.4-0.9-0.9v-1.5c0-0.5,0.4-0.9,0.9-0.9h0c0.5,0,0.9,0.4,0.9,0.9v1.5
		C23.2,87.6,22.8,88,22.3,88z"/>
	<path fill="#D8A980" d="M68,88L68,88c0.5,0,0.9-0.4,0.9-0.9v-1.5c0-0.5-0.4-0.9-0.9-0.9l0,0c-0.5,0-0.9,0.4-0.9,0.9v1.5
		C67.1,87.6,67.5,88,68,88z"/>
</g>
<g>
	<path fill="#422918" d="M21,42.1c0.3-0.5,0.8-0.9,1.2-1.2c0.5-0.3,1-0.6,1.6-0.8c0.6-0.2,1.2-0.4,1.8-0.4c0.6,0.1,1.2,0.3,1.7,0.7
		l0,0.1c-0.3,0.1-0.6,0.1-0.9,0.2c-0.3,0.1-0.5,0.1-0.8,0.1c-0.5,0.1-1,0-1.5,0.1c-0.5,0.1-1,0.3-1.5,0.5C22,41.6,21.5,41.9,21,42.1
		L21,42.1z"/>
	<path fill="#422918" d="M68.3,42.1c-0.3-0.5-0.8-0.9-1.2-1.2c-0.5-0.3-1-0.6-1.6-0.8c-0.6-0.2-1.2-0.4-1.8-0.4
		c-0.6,0.1-1.2,0.3-1.7,0.7l0,0.1c0.3,0.1,0.6,0.1,0.9,0.2c0.3,0.1,0.5,0.1,0.8,0.1c0.5,0.1,1,0,1.5,0.1c0.5,0.1,1,0.3,1.5,0.5
		C67.3,41.6,67.8,41.9,68.3,42.1L68.3,42.1z"/>
</g>
<g>
	<g>
		<path fill="#4A4C58" d="M20.5,69.6c0.3-0.7,4.1-4.4,5.3-4.8l3.7,5.5l0.1,0c-1.4,2.3-2.9,4.5-4.3,6.8C23.7,74.5,22,72.1,20.5,69.6z
			"/>
	</g>
	<g>
		<path fill="#4A4C58" d="M69.9,69.6c-0.3-0.7-2.5-3.2-5.2-4.8l-3.7,5.5l-0.1,0c1.4,2.3,2.9,4.5,4.3,6.8
			C66.7,74.5,68.4,72.1,69.9,69.6z"/>
	</g>
	<path fill="#7B99CF" d="M64.7,64.7l0,21.6l-38.9,0.2l0-21.8l11.1,0c1.4,3.2,4.5,5.3,7.9,5.5c3.7,0.1,7.1-2,8.6-5.4L64.7,64.7z"/>
	<path fill="#4A4C58" d="M53.2,64.7c-1.6,3-4.8,5-8.2,4.8c-3.2-0.1-6.1-2-7.5-4.8l-1.2,0c1.5,3.5,5,5.8,8.7,6c0.1,0,0.2,0,0.3,0
		c3.9,0,7.5-2.3,9.1-6L53.2,64.7z"/>
</g>
<g>
	<g>
		<rect x="25.8" y="84.1" fill="#5A606A" width="19.4" height="8.2"/>
	</g>
	<g>
		<rect x="45.3" y="84.1" fill="#5A606A" width="19.4" height="8.2"/>
	</g>
	<g>
		<polygon fill="#444850" points="63.6,88 63.7,87.8 61.7,85.8 61.6,86 		"/>
		<polygon fill="#444850" points="26.9,88 26.8,87.8 28.8,85.8 28.9,86 		"/>
		<path fill="#444850" d="M64.7,83.9H25.8v1.2h18.4l0,1.8l1,0.9v4.4h0.3v-7.1h19.2V83.9z M45.1,87.5l-0.8-0.7l0-1.7h0.8V87.5z"/>
	</g>
	<g>
		<rect x="25.6" y="92.2" fill="#7B8088" width="19.6" height="0.9"/>
		<rect x="45.3" y="92.2" fill="#7B8088" width="19.6" height="0.9"/>
		<rect x="34.8" y="84.3" fill="#7B8088" width="0.7" height="1.8"/>
		<rect x="53.7" y="84.3" fill="#7B8088" width="0.7" height="1.8"/>
	</g>
	<ellipse fill="#7B8088" cx="44.7" cy="84.5" rx="0.4" ry="0.4"/>
</g>
<g>
	<g>
		<path fill="#454B55" d="M63,97H46.8c-0.9,0-1.7-0.7-1.7-1.7v-2.2h19.4v2.2C64.6,96.3,63.9,97,63,97z"/>
		<path fill="#6A6F77" d="M58.8,95.8h-7.7V94c0-0.7,0.6-1.3,1.3-1.3h5.1c0.7,0,1.3,0.6,1.3,1.3V95.8z"/>
		<path fill="#DDD2BF" d="M46.9,97h16.4C63.3,97,55.6,93.3,46.9,97z"/>
		<g>
			<rect x="50.4" y="95" fill="#DDD2BF" width="8.8" height="0.1"/>
			<rect x="50.4" y="94.2" fill="#DDD2BF" width="8.8" height="0.1"/>
			<rect x="50.4" y="93.5" fill="#DDD2BF" width="8.8" height="0.1"/>
		</g>
	</g>
	<g>
		<path fill="#454B55" d="M43.5,97H27.4c-0.9,0-1.7-0.7-1.7-1.7v-2.2h19.4v2.2C45.2,96.3,44.4,97,43.5,97z"/>
		<path fill="#6A6F77" d="M39.3,95.8h-7.7V94c0-0.7,0.6-1.3,1.3-1.3H38c0.7,0,1.3,0.6,1.3,1.3V95.8z"/>
		<path fill="#DDD2BF" d="M27.4,97h16.4C43.8,97,36.1,93.3,27.4,97z"/>
		<g>
			<rect x="31" y="95" fill="#DDD2BF" width="8.8" height="0.1"/>
			<rect x="31" y="94.2" fill="#DDD2BF" width="8.8" height="0.1"/>
			<rect x="31" y="93.5" fill="#DDD2BF" width="8.8" height="0.1"/>
		</g>
	</g>
</g>
<path fill="#422918" d="M77.8,58.5c-0.1-1.8-0.5-3.8-0.5-3.8c-0.2-1.1,0-2.6-0.4-3.4c-0.6,1.3-2.1,3.9-4.4,5.3
	c-1,0.6-1.9,0.8-3.8,1.4c-1.5,0.4-3,0.7-4.4,1c-0.2-0.4-0.4-0.7-0.8-1.3c-1.3-1.7-2.9-2.6-3.8-3.1c-0.9-0.5-0.9-0.4-2.7-1.2
	c-2.2-0.9-2.8-1.4-4-2c-0.3-0.1-0.7-0.3-1.2-0.5c-1.3-0.5-2.4-0.9-3.7-0.8c-1,0.1-0.9,0.4-2.3,0.5c-0.6,0.1-1.4,0.2-2.5,0
	c-1.2-0.2-1.2-0.5-2-0.5c-0.9,0-0.9,0.3-2.2,0.4c-0.6,0-0.9,0-1.8,0.1c-0.2,0-0.6,0.1-1.1,0.2c-0.7,0.2-1.2,0.5-2.3,1
	c-1.4,0.7-2.5,1.4-3.2,1.9c-1.2,0.8-1.2,1-3.2,2.5c-0.8,0.6-1.6,1.2-2.4,1.9c-2-0.2-3.3-0.4-4.7-0.4c-0.2,0-0.8,0-1.5-0.2
	c-1.8-0.4-2.9-1.6-3.6-2.2c-1.3-1.3-1.8-3-2.2-4c-0.3,1.9-0.6,5-0.4,8.3c0.3,4.7,3.2,11.6,7.7,16.9c2.8,3.3,6,4.6,9.4,5.9
	c4.8,1.9,8.6,2,13.9,2.3c5.3,0.2,8.4,0.4,13.7-1.1c4.1-1.2,8.1-2.3,11.3-6.2c2-2.4,4.8-4.2,6.1-8.5C74.9,69,78,62.5,77.8,58.5z
	 M47.4,58.1c-0.6-0.1-1.1-0.1-1.8-0.2c-1,0-1.8-0.1-2.8,0.2c-1.1,0.2-1.1,0.5-2.4,0.8c-1.1,0.3-1.9,0.3-2.1,0.3c-0.4,0-0.8,0-1.1,0
	c0-0.5,0.1-1.2,0.2-1.9c0.3-1.7,0.7-4.2,2.2-4.7c1-0.3,1.6,0.4,3.5,0c0.5-0.1,0.8-0.2,1.4-0.3c0.9-0.1,1.5,0.1,2.1,0.1
	c1.9,0.3,2.3-0.4,3.3-0.1c1.9,0.5,2.6,3.7,3.3,6.7c0.1,0.3,0.1,0.6,0.2,0.8c-2.6-0.2-3.4-0.7-3.4-0.7C49.3,58.9,48.6,58.3,47.4,58.1
	z"/>
</svg>
