<?xml version="1.0" encoding="utf-8"?>
<!-- Generator: Adobe Illustrator 21.0.0, SVG Export Plug-In . SVG Version: 6.00 Build 0)  -->
<svg version="1.2" baseProfile="tiny" id="Capa_1" xmlns="http://www.w3.org/2000/svg" xmlns:xlink="http://www.w3.org/1999/xlink"
	 x="0px" y="0px" viewBox="0 0 90.7 109.4" xml:space="preserve">
<path fill="#FBD8B7" d="M71.3,20.4h-53c-2.9,0-5.3,2.4-5.3,5.3v40.1c0,2.9,2.4,5.3,5.3,5.3h7.1c-1,0.6-8.4,5.6-8.3,18.8l0,0
	c0,3.9,3.2,7,7,7v-7h0c0-3.3,0.5-5.9,1.2-7.8v15.2h0v3.9c0,1.1,0.9,2.1,2.1,2.1h15.3c1.1,0,2.1-0.9,2.1-2.1v-3.6h0.1v3.6
	c0,1.1,0.9,2.1,2.1,2.1h15.3c1.1,0,2.1-0.9,2.1-2.1v-3.9h0V82.3c0.7,1.9,1.3,4.5,1.2,7.8h0v7c3.9,0,7-3.1,7-7l0,0
	c0.1-13.1-7.1-18.1-8.2-18.8h7c2.9,0,5.3-2.4,5.3-5.3V25.8C76.6,22.8,74.2,20.4,71.3,20.4z"/>
<path fill="#E3B98C" d="M65.6,90"/>
<g>
	<circle fill="#674428" cx="25.3" cy="51.6" r="2.4"/>
	<circle fill="#674428" cx="64.1" cy="51.6" r="2.4"/>
</g>
<path fill="#E1B492" d="M44.8,64.8c-2.2,0-4-1.8-4-4c0-0.4,0.3-0.6,0.6-0.6c0.4,0,0.6,0.3,0.6,0.6c0,1.5,1.2,2.7,2.7,2.7
	c1.5,0,2.7-1.2,2.7-2.7c0-0.4,0.3-0.6,0.6-0.6s0.6,0.3,0.6,0.6C48.8,63,47,64.8,44.8,64.8z"/>
<g>
	<path fill="#EDC39F" d="M13,58.5c-1.1-0.9-1.9-2.7-1.9-4.6c0-2,0.8-3.7,1.9-4.6L13,58.5z"/>
	<path fill="#EDC39F" d="M76.6,58.5c1.1-0.9,1.9-2.7,1.9-4.6c0-2-0.8-3.7-1.9-4.6L76.6,58.5z"/>
	<path fill="#EDC39F" d="M56.1,71.2c0,0.8-0.6,1.4-1.2,1.4H32.7c-0.7,0-1.2-0.6-1.2-1.4H56.1z"/>
	<path fill="#EDC39F" d="M44.8,58.5L44.8,58.5c-0.9,0-1.6-0.7-1.6-1.6v-4c0-0.9,0.7-1.6,1.6-1.6h0c0.9,0,1.6,0.7,1.6,1.6v4
		C46.4,57.7,45.7,58.5,44.8,58.5z"/>
	<path fill="#EDC39F" d="M21.9,94.4L21.9,94.4c-0.5,0-0.9-0.4-0.9-0.9v-1.5c0-0.5,0.4-0.9,0.9-0.9h0c0.5,0,0.9,0.4,0.9,0.9v1.5
		C22.8,94,22.4,94.4,21.9,94.4z"/>
	<path fill="#EDC39F" d="M67.7,94.4L67.7,94.4c0.5,0,0.9-0.4,0.9-0.9v-1.5c0-0.5-0.4-0.9-0.9-0.9l0,0c-0.5,0-0.9,0.4-0.9,0.9v1.5
		C66.8,94,67.2,94.4,67.7,94.4z"/>
</g>
<path fill="#BE3C3C" d="M74.7,49.6c-0.4-0.7,1.6-1.4,1.4-2.2c-0.1-0.8-1.9-0.5-2-1.3c-0.1-0.8,1-1,0.8-1.8c-0.1-0.8-1.2-0.6-1.4-1.5
	c-0.1-0.8,1.2-1,1-1.9c-0.1-0.8-0.8-0.7-0.9-1.5c-0.1-0.8,0.3-0.9,0.2-1.7c-0.1-0.8-1.1-0.7-1.2-1.5c-0.1-0.8,1.6-1.1,1.4-1.9
	s-1.4-0.6-1.5-1.4c0,0.1-0.2,1-1.2,1.1c-0.5,0.1-1.2-1.2-1.8-1.1c-0.5,0-1,0.7-1.6,0.8c-0.5,0-1.1-0.6-1.7-0.6
	c-0.5,0-1.1-0.3-1.7-0.3c-0.5,0-1.1,0.1-1.7,0.1c-0.5,0-1.1,1-1.7,1c-0.5,0-1.1,0-1.7,0c-0.5,0-1-1.4-1.6-1.5
	c-0.6,0-1.2,1.3-1.8,1.2c-0.6,0-1.2,0.6-1.8,0.5c-0.6-0.1-1-0.8-1.6-0.8c-0.6-0.1-1.1-0.1-1.7-0.2c-0.5-0.1-0.9-1.2-1.4-1.3
	c-0.5-0.2-1.2,0.6-1.8,0.4c-0.5-0.1-1.1,0.3-1.6,0.2c-0.5-0.1-1-0.1-1.6-0.1c-0.5-0.1-1-0.3-1.5-0.4c-0.5,0-1-0.1-1.6-0.1
	c-0.5,0-1-0.7-1.6-0.8c-0.5,0-1.1,0.7-1.6,0.7c-0.5,0-1.1,0.2-1.6,0.2c-0.5,0-1.1-1.4-1.6-1.4c-0.5,0-1,1-1.6,1
	c-0.5,0-1.1-0.4-1.6-0.4c-0.5,0-1.1,0.1-1.6,0.1c-0.5,0-1.1-0.2-1.6-0.2c-0.5,0-1.1-0.1-1.6,0c-0.5,0.1-0.9,1.7-1.4,1.7
	c-0.5,0.1-1.1,0-1.6,0.1c-0.6,0.1-1.2-1.1-1.8-1c-0.6,0.1-1,1-1.5,1.1c-0.6,0.1-1.3-0.7-1.7-0.6c-0.6,0.1-1.1,0.3-1.6,0.4
	C16.7,33,16,33.5,16,33.7c-0.1,0.8-0.3,0.8-0.4,1.7c-0.1,0.8,0.3,0.9,0.2,1.8c-0.1,0.8,0.1,0.9,0,1.7c-0.1,0.8,0.2,0.9,0.1,1.7
	c-0.1,0.8,0,0.9-0.2,1.7c-0.1,0.8-0.6,0.8-0.8,1.6c-0.1,0.8-0.4,0.8-0.5,1.6c-0.1,0.8-0.5,0.8-0.7,1.6c-0.1,0.8-0.2,0.8-0.3,1.7
	s0.9,1.2,0.5,2c-0.3,0.7-1.4-0.6-1.7-1.5c-0.1-0.4,0.9-1.3,0.8-1.9c-0.1-0.5,0-1-0.2-1.6c-0.1-0.5-1.3-0.7-1.4-1.3
	c-0.1-0.5,0.4-1.2,0.3-1.7c-0.1-0.5-1.7-0.7-1.8-1.3c-0.1-0.5-0.1-1.1-0.2-1.6c-0.1-0.5,0.7-1.2,0.7-1.7c-0.1-0.5-0.9-1-1-1.5
	c0-0.5,0.5-1.1,0.5-1.6c0-0.5,0.7-1,0.7-1.6c0-0.5-0.9-1.1-0.8-1.6c0.1-0.5-0.4-1.2-0.3-1.7c0.1-0.5,1.6-0.8,1.7-1.3
	c0.1-0.5-0.1-1.1,0.1-1.6c0.2-0.5-0.6-1.2-0.4-1.7c0.2-0.9,1.2-0.5,1.8-1.3c0.3-0.5,1.2-0.3,1.8-0.4c0.6-0.5-1.2-1.8-0.7-2.7
	c0.2-0.4,1.8,0,2.2-0.6c0.3-0.4,0-1.3,0.4-1.7c0.3-0.4,0.9-0.6,1.3-1c0.4-0.4,0.5-1,0.9-1.4c0.4-0.4,0.6-1,1-1.4
	c0.4-0.3,0.8-0.8,1.3-1.1c0.5-0.3,1.1-0.3,1.6-0.6c0.5-0.2,1.5,0.7,2,0.5c0.5-0.2,0.6-1.4,1.1-1.6c0.5-0.2,0.9-1,1.4-1.1
	c0.5-0.1,1.4,1.3,1.9,1.2c0.5-0.1,1-1.1,1.5-1.2c0.5,0,1.1,0.1,1.6,0.1c0.4-0.4,0.4-1.2,0.8-1.5c0.4-0.3,1.7,0.6,2.2,0.3
	c0.5-0.3,0-2.2,0.5-2.4c0.5-0.2,1.2-0.1,1.7-0.3c0.5-0.2,1.4,0.8,1.9,0.6C40,8,40.4,7.5,40.9,7.4c0.5-0.1,0.9-1.2,1.4-1.2
	C42.9,6.1,43.4,6,44,5.9c0.5-0.1,1.1,0.3,1.7,0.3c0.5,0,1.1,0.6,1.6,0.6c0.5,0,1.1-0.7,1.6-0.7c0.5,0,1.1,0.3,1.6,0.3
	c0.5,0,1.1-0.4,1.7-0.3c0.5,0.1,1.1,0.4,1.6,0.5c0.5,0.1,1.1,0.1,1.6,0.2c0.5,0.1,0.9,1,1.4,1.1c0.5,0.1,1,0.5,1.5,0.6
	c0.5,0.1,1.3-0.7,1.8-0.6c0.5,0.1,0.9,0.8,1.4,1c0.5,0.2,0.9,0.7,1.4,0.9c0.5,0.2,1,0.4,1.5,0.6c0.5,0.2,1.3-0.2,1.8,0
	c0.5,0.2,0.6,1.2,1.1,1.4c0.5,0.2,0.7,0.9,1.2,1.1c0.5,0.3,0.9,0.5,1.4,0.8c0.5,0.3,1.3-0.1,1.7,0.3c0.5,0.3,0.5,1.1,0.9,1.5
	c0.4,0.4,0.8,0.6,1.2,1c0.4,0.4,1.1,0.4,1.4,0.8c0.4,0.4,1,0.6,1.2,1.1c0.3,0.5,0,1.2,0.2,1.6c0.2,0.5,0.5,0.9,0.6,1.4
	c0.1,0.5,0.8,1,0.7,1.6c0,0,0.4,0.5,0.5,1.5c0.1,0.4-0.6,1.1-0.6,1.7c0.1,0.5,1.1,0.9,1.2,1.4c0.1,0.5,0.1,1,0.1,1.6
	c0.1,0.5-0.8,1.1-0.7,1.7c0,0.5,0.1,1,0.2,1.6c0,0.5,1.3,1,1.3,1.5c0,0.5-0.8,1.1-0.8,1.6c0,0.5,0.8,1.1,0.8,1.6
	c0,0.5-0.7,1.1-0.7,1.6c0,0.5-1.1,1-1.1,1.5c-0.1,0.5,0.7,1.2,0.7,1.7c-0.1,0.5-1.3,0.8-1.4,1.3c-0.1,0.5,1.3,1.4,1.1,1.9
	c-0.2,0.5-1,0.8-1.3,1.3c-0.2,0.5-1.1,0.6-1.3,1C75.5,47.9,75.1,49.2,74.7,49.6z"/>
<g>
	<g>
		<path fill="#BE3C3C" d="M21.2,49.5c-0.3-0.6-0.2-1.4,0.3-1.9c0.3-0.3,0.6-0.5,0.9-0.7c0.6-0.4,1.2-0.7,1.9-0.9
			c0.7-0.2,1.4-0.4,2.2-0.3c0.8,0,2.2,0.7,2.4,1.8l0,0.1c-0.4,0.1-0.7,0.2-1.1,0.2c-0.3,0.1-0.7,0.1-1,0.2c-0.6,0.1-1.3,0.1-1.9,0.2
			c-0.6,0.1-1.3,0.3-1.9,0.6c-0.6,0.2-1.2,0.6-1.7,0.9L21.2,49.5z"/>
	</g>
	<g>
		<path fill="#BE3C3C" d="M68.1,49.5c0.3-0.6,0.2-1.4-0.3-1.9c-0.3-0.3-0.6-0.5-0.9-0.7c-0.6-0.4-1.2-0.7-1.9-0.9h0
			c-0.7-0.2-1.4-0.4-2.2-0.3c-0.8,0-2.2,0.7-2.4,1.8l0,0.1c0.4,0.1,0.7,0.2,1.1,0.2c0.3,0.1,0.7,0.1,1,0.2c0.6,0.1,1.3,0.1,1.9,0.2
			c0.6,0.1,1.3,0.3,1.9,0.6c0.6,0.2,1.2,0.6,1.7,0.9L68.1,49.5z"/>
	</g>
</g>
<g>
	<g>
		<circle fill="#E0B391" cx="30.3" cy="56" r="0.5"/>
		<circle fill="#E0B391" cx="25.4" cy="56" r="0.5"/>
		<circle fill="#E0B391" cx="20.5" cy="56" r="0.5"/>
		<circle fill="#E0B391" cx="28" cy="59" r="0.5"/>
		<circle fill="#E0B391" cx="23.1" cy="59" r="0.5"/>
	</g>
	<g>
		<circle fill="#E0B391" cx="69.3" cy="56" r="0.5"/>
		<circle fill="#E0B391" cx="64.4" cy="56" r="0.5"/>
		<circle fill="#E0B391" cx="59.5" cy="56" r="0.5"/>
		<circle fill="#E0B391" cx="67" cy="59" r="0.5"/>
		<circle fill="#E0B391" cx="62" cy="59" r="0.5"/>
	</g>
</g>
<g>
	<g>
		<path fill="#48BEAC" d="M20.1,76.2c0.3-0.7,4.1-4.4,5.3-4.8l3.7,5.5l0.1,0c-1.4,2.3-2.9,4.5-4.3,6.8
			C23.2,81.1,21.6,78.7,20.1,76.2z"/>
	</g>
	<g>
		<path fill="#48BEAC" d="M69.5,76.2c-0.3-0.7-2.5-3.2-5.2-4.8l-3.7,5.5l-0.1,0c1.4,2.3,2.9,4.5,4.3,6.8
			C66.3,81.1,67.9,78.7,69.5,76.2z"/>
	</g>
	<path fill="#D4ECE9" d="M64.2,71.4l0,19l-38.9,0.2l0-19.2l11.1,0c1.4,3.2,4.5,5.3,7.9,5.5c3.7,0.1,7.1-2,8.6-5.4L64.2,71.4z"/>
	<path fill="#48BEAC" d="M52.7,71.4c-1.6,3-4.8,5-8.2,4.8c-3.2-0.1-6.1-2-7.5-4.8l-1.2,0c1.5,3.5,5,5.8,8.7,6c0.1,0,0.2,0,0.3,0
		c3.9,0,7.5-2.3,9.1-6L52.7,71.4z"/>
</g>
<g>
	<polygon fill="#7ECCC3" points="43.5,80.6 42.3,80 41.2,80.6 42.3,81.2 	"/>
	<polygon fill="#98D3CC" points="42.2,82.6 42.2,81.4 42.1,81.3 42.1,81.3 41.1,80.8 41.1,82 42.2,82.6 	"/>
	<polygon fill="#7ECCC3" points="42.5,81.3 43.7,82 44.8,81.3 43.7,80.7 	"/>
	<polygon fill="#98D3CC" points="43.6,82.1 43.5,82.1 43.5,82.1 43.1,81.9 42.4,81.5 42.4,82.7 42.4,82.7 43.6,83.4 	"/>
	<polygon fill="#7ECCC3" points="43,81.9 43.4,82.1 43.4,82.1 	"/>
	<polygon fill="#98D3CC" points="43.5,83.6 43.5,83.6 42.4,83 42.4,84.2 42.4,84.2 43.5,84.8 	"/>
	<polygon fill="#7ECCC3" points="43.5,83.6 42.4,83 42.4,83 42.4,83 43.5,83.6 	"/>
	<polygon fill="#7ECCC3" points="44.9,81.4 43.8,82.1 44.9,82.7 45.3,82.5 46,82.1 	"/>
	<polygon fill="#98D3CC" points="44.8,82.9 43.7,82.2 43.7,83.5 43.7,83.5 44.8,84.1 	"/>
	<polygon fill="#7ECCC3" points="44.8,82.9 43.7,82.2 43.7,82.2 44.8,82.9 	"/>
	<polygon fill="#B2DED9" points="45,84.1 46.1,83.5 46.1,82.2 45,82.9 	"/>
	<polygon fill="#7ECCC3" points="43.7,80.5 43.7,80.5 43.9,80.4 44.8,79.9 43.7,79.3 42.5,79.9 43.7,80.5 	"/>
	<polygon fill="#7ECCC3" points="42.5,79.9 42.5,79.9 43.7,80.5 43.7,80.5 	"/>
	<ellipse transform="matrix(0.4994 -0.8664 0.8664 0.4994 -47.9184 78.0656)" fill="#7ECCC3" cx="43.6" cy="80.5" rx="0" ry="0"/>
	<ellipse transform="matrix(0.2004 -0.9797 0.9797 0.2004 -44.0084 107.0737)" fill="#7ECCC3" cx="43.6" cy="80.5" rx="0" ry="0"/>
	<polygon fill="#7ECCC3" points="44.9,81.2 46,80.6 44.9,80 44.3,80.3 43.8,80.6 	"/>
	<polygon fill="#7ECCC3" points="44.9,81.2 44.9,81.2 43.8,80.6 43.8,80.6 44.9,81.2 44.9,81.2 	"/>
	<ellipse transform="matrix(0.214 -0.9768 0.9768 0.214 -44.045 107.7216)" fill="#7ECCC3" cx="44.9" cy="81.2" rx="0" ry="0"/>
	<polygon fill="#7ECCC3" points="44.9,80 44.3,80.3 44.9,80 	"/>
	<polygon fill="#7ECCC3" points="45.1,81.3 46.2,82 47.3,81.4 46.9,81.1 46.2,80.7 45.9,80.9 	"/>
	<polygon fill="#7ECCC3" points="46.2,82 46.2,82 45.1,81.3 45.1,81.3 	"/>
	<polygon fill="#7ECCC3" points="46.2,80.7 46.2,80.7 45.9,80.9 	"/>
	<polygon fill="#B2DED9" points="46.3,83.4 46.7,83.2 47.4,82.7 47.4,82.7 47.4,82.7 47.4,81.5 46.3,82.1 	"/>
	<polygon fill="#7ECCC3" points="46.3,82.1 46.3,82.1 47.4,81.5 47.4,81.5 46.4,82.1 46.4,82.1 	"/>
	<polygon fill="#7ECCC3" points="46.3,82.1 46.4,82.1 46.4,82.1 46.3,82.1 	"/>
	<polygon fill="#7ECCC3" points="46,79.2 44.9,78.5 43.8,79.2 44.8,79.7 44.9,79.8 	"/>
	<polygon fill="#7ECCC3" points="44.8,79.7 44.9,79.8 44.9,79.8 	"/>
	<polygon fill="#7ECCC3" points="45.8,80.3 46.2,80.5 47.3,79.9 46.2,79.3 45.8,79.5 45.1,79.9 	"/>
	<polygon fill="#7ECCC3" points="45.1,79.9 45.1,79.9 45.1,79.9 45.8,80.3 45.1,79.9 	"/>
	<ellipse transform="matrix(0.5184 -0.8551 0.8551 0.5184 -46.6081 77.036)" fill="#7ECCC3" cx="45.1" cy="79.9" rx="0" ry="0"/>
	<polygon fill="#7ECCC3" points="46.2,79.3 45.8,79.5 46.2,79.3 	"/>
	<polygon fill="#7ECCC3" points="46.4,80.6 47.4,81.2 47.5,81.2 47.7,81.1 48.6,80.6 47.5,80 46.4,80.6 46.4,80.6 	"/>
	<ellipse transform="matrix(0.4793 -0.8777 0.8777 0.4793 -46.598 82.7184)" fill="#7ECCC3" cx="46.4" cy="80.6" rx="0" ry="0"/>
	<polygon fill="#7ECCC3" points="46.4,80.6 46.4,80.6 47.4,81.2 	"/>
	<ellipse transform="matrix(0.5695 -0.822 0.822 0.5695 -46.296 72.8507)" fill="#7ECCC3" cx="46.4" cy="80.6" rx="0" ry="0"/>
	<polygon fill="#B2DED9" points="47.6,81.4 47.6,82.6 48.7,82 48.7,80.8 47.7,81.4 47.7,81.4 	"/>
	<polygon fill="#7ECCC3" points="47.6,81.4 47.7,81.4 47.7,81.4 47.6,81.4 	"/>
	<polygon fill="#98D3CC" points="42.2,84.1 42.2,82.9 41.1,82.2 41.1,83.5 42.2,84.1 	"/>
	<polygon fill="#7ECCC3" points="42.2,82.9 42.2,82.9 41.1,82.2 41.1,82.2 42.2,82.9 	"/>
	<polygon fill="#98D3CC" points="44.8,84.3 43.7,83.7 43.7,84.9 43.7,84.9 44.8,85.5 44.8,84.4 	"/>
	<polygon fill="#7ECCC3" points="43.7,83.7 43.7,83.7 43.7,83.7 44.8,84.3 44.8,84.3 	"/>
	<polygon fill="#B2DED9" points="46.1,83.7 45,84.3 45,84.4 45,85.5 45.1,85.5 46.1,84.9 	"/>
	<polygon fill="#B2DED9" points="46.1,83.7 45,84.3 45,84.3 46.1,83.7 46.1,83.7 46.1,83.7 	"/>
	<ellipse transform="matrix(0.4472 -0.8944 0.8944 0.4472 -49.3487 87.5273)" fill="#B2DED9" cx="46.1" cy="83.7" rx="0" ry="0"/>
	<polygon fill="#B2DED9" points="46.3,84.1 46.3,84.8 47.4,84.2 47.4,83 46.3,83.6 	"/>
	<polygon fill="#B2DED9" points="46.3,84.1 46.3,84.8 46.3,84.8 	"/>
	<polygon fill="#B2DED9" points="48,83.9 48.7,83.5 48.7,82.2 47.6,82.8 47.6,84.1 	"/>
	<polygon fill="#B2DED9" points="47.6,84.1 47.6,84.1 47.6,82.8 47.6,82.8 	"/>
	<polygon fill="#98D3CC" points="42.4,84.4 42.4,85.6 43.5,86.3 43.5,85 43.5,85 	"/>
	<polygon fill="#7ECCC3" points="43.5,85 42.4,84.4 42.4,84.4 42.4,84.4 43.5,85 	"/>
	<polygon fill="#98D3CC" points="41.1,84.9 42.2,85.5 42.2,84.3 41.1,83.7 	"/>
	<polygon fill="#7ECCC3" points="42.2,84.3 41.1,83.7 41.1,83.7 42.2,84.3 42.2,84.3 	"/>
	<polygon fill="#98D3CC" points="43.7,85.1 43.7,86.4 44.8,87 44.8,85.9 44.8,85.8 	"/>
	<polygon fill="#7ECCC3" points="44.8,85.8 43.7,85.1 43.7,85.1 43.7,85.1 44.8,85.8 	"/>
	<polygon fill="#B2DED9" points="45,85.9 45,87 46.1,86.4 46.1,85.1 45.2,85.7 45,85.8 	"/>
	<polygon fill="#7ECCC3" points="45,85.8 45.2,85.7 45,85.8 	"/>
	<polygon fill="#B2DED9" points="46.3,86.3 47.4,85.7 47.4,84.4 46.3,85 	"/>
	<polygon fill="#B2DED9" points="46.3,85 46.3,85 47.4,84.4 47.4,84.4 	"/>
	<polygon fill="#B2DED9" points="47.6,84.3 47.6,84.3 47.6,85.6 48.7,85 48.7,83.7 47.9,84.2 47.6,84.3 	"/>
	<ellipse transform="matrix(0.5928 -0.8053 0.8053 0.5928 -48.501 72.7014)" fill="#B2DED9" cx="47.6" cy="84.3" rx="0" ry="0"/>
	<polygon fill="#B2DED9" points="47.9,84.2 47.6,84.3 47.6,84.3 	"/>
	<polygon fill="#B2DED9" points="47.6,84.3 47.6,84.3 47.6,84.3 47.6,84.3 	"/>
</g>
<g>
	<g>
		<rect x="25.3" y="90.5" fill="#9599A0" width="19.4" height="8.1"/>
	</g>
	<g>
		<rect x="44.8" y="90.5" fill="#9599A0" width="19.4" height="8.1"/>
	</g>
	<g>
		<polygon fill="#7B8088" points="63.1,94.4 63.3,94.3 61.3,92.3 61.1,92.5 		"/>
		<polygon fill="#7B8088" points="26.5,94.4 26.3,94.3 28.3,92.3 28.5,92.5 		"/>
		<path fill="#7B8088" d="M64.4,90.4h-39v1.2h18.4l0,1.8l1,0.9v4.4H45v-7.1h19.3V90.4z M44.7,94l-0.8-0.7l0-1.7h0.8V94z"/>
	</g>
	<g>
		<rect x="25.2" y="98.6" fill="#B0B3B8" width="19.6" height="0.9"/>
		<rect x="44.9" y="98.6" fill="#B0B3B8" width="19.7" height="0.9"/>
		<rect x="34.7" y="90.8" fill="#B0B3B8" width="0.7" height="1.8"/>
		<rect x="53.3" y="90.8" fill="#B0B3B8" width="0.7" height="1.8"/>
	</g>
	<circle fill="#B0B3B8" cx="44.3" cy="91" r="0.4"/>
</g>
<g>
	<path fill="#454B55" d="M62.7,103.5H46.6c-0.9,0-1.7-0.7-1.7-1.7v-2.2h19.4v2.2C64.3,102.8,63.6,103.5,62.7,103.5z"/>
	<path fill="#6A6F77" d="M58.5,102.2h-7.7v-1.8c0-0.7,0.6-1.3,1.3-1.3h5.1c0.7,0,1.3,0.6,1.3,1.3V102.2z"/>
	<path fill="#DDD2BF" d="M46.6,103.5H63C63,103.5,55.3,99.8,46.6,103.5z"/>
	<g>
		<rect x="50.2" y="101.4" fill="#DDD2BF" width="8.8" height="0.1"/>
		<rect x="50.2" y="100.7" fill="#DDD2BF" width="8.8" height="0.1"/>
		<rect x="50.2" y="100" fill="#DDD2BF" width="8.8" height="0.1"/>
	</g>
</g>
<g>
	<path fill="#454B55" d="M43.2,103.5H27.1c-0.9,0-1.7-0.7-1.7-1.7v-2.2h19.4v2.2C44.9,102.8,44.2,103.5,43.2,103.5z"/>
	<path fill="#6A6F77" d="M39,102.2h-7.7v-1.8c0-0.7,0.6-1.3,1.3-1.3h5.1c0.7,0,1.3,0.6,1.3,1.3V102.2z"/>
	<path fill="#DDD2BF" d="M27.1,103.5h16.4C43.6,103.5,35.9,99.8,27.1,103.5z"/>
	<g>
		<rect x="30.7" y="101.4" fill="#DDD2BF" width="8.8" height="0.1"/>
		<rect x="30.7" y="100.7" fill="#DDD2BF" width="8.8" height="0.1"/>
		<rect x="30.7" y="100" fill="#DDD2BF" width="8.8" height="0.1"/>
	</g>
</g>
</svg>
