<?xml version="1.0" encoding="utf-8"?>
<!-- Generator: Adobe Illustrator 21.0.0, SVG Export Plug-In . SVG Version: 6.00 Build 0)  -->
<svg version="1.2" baseProfile="tiny" id="Capa_1" xmlns="http://www.w3.org/2000/svg" xmlns:xlink="http://www.w3.org/1999/xlink"
	 x="0px" y="0px" viewBox="0 0 90.7 109.4" xml:space="preserve">
<path fill="#E3B98C" d="M71.6,21h-53c-2.9,0-5.3,2.4-5.3,5.3v40.1c0,2.9,2.4,5.3,5.3,5.3h7.1c-1,0.6-8.4,5.6-8.3,18.8l0,0
	c0,3.9,3.2,7,7,7v-7h0c0-3.3,0.5-5.9,1.2-7.8V98h0v3.9c0,1.1,0.9,2.1,2.1,2.1H43c1.1,0,2.1-0.9,2.1-2.1v-3.6h0.1v3.6
	c0,1.1,0.9,2.1,2.1,2.1h15.3c1.1,0,2.1-0.9,2.1-2.1V98h0V82.8c0.7,1.9,1.3,4.5,1.2,7.8h0v7c3.9,0,7-3.1,7-7l0,0
	c0.1-13.1-7.1-18.1-8.2-18.8h7c2.9,0,5.3-2.4,5.3-5.3V26.3C77,23.4,74.6,21,71.6,21z"/>
<path fill="#E3B98C" d="M65.9,90.6"/>
<g>
	<circle fill="#404049" cx="25.6" cy="52.2" r="2.4"/>
	<circle fill="#404049" cx="64.5" cy="52.2" r="2.4"/>
</g>
<path fill="#C89773" d="M45.1,65.3c-2.2,0-4-1.8-4-4c0-0.4,0.3-0.6,0.6-0.6s0.6,0.3,0.6,0.6c0,1.5,1.2,2.7,2.7,2.7
	c1.5,0,2.7-1.2,2.7-2.7c0-0.4,0.3-0.6,0.6-0.6s0.6,0.3,0.6,0.6C49.1,63.6,47.3,65.3,45.1,65.3z"/>
<g>
	<path fill="#D8A980" d="M13.3,59c-1.1-0.9-1.9-2.7-1.9-4.6c0-2,0.8-3.7,1.9-4.6L13.3,59z"/>
	<path fill="#D8A980" d="M77,59c1.1-0.9,1.9-2.7,1.9-4.6c0-2-0.8-3.7-1.9-4.6L77,59z"/>
	<path fill="#D8A980" d="M56.4,71.8c0,0.8-0.6,1.4-1.2,1.4H33c-0.7,0-1.2-0.6-1.2-1.4H56.4z"/>
	<path fill="#D8A980" d="M45.1,59L45.1,59c-0.9,0-1.6-0.7-1.6-1.6v-4c0-0.9,0.7-1.6,1.6-1.6h0c0.9,0,1.6,0.7,1.6,1.6v4
		C46.8,58.3,46,59,45.1,59z"/>
	<path fill="#D8A980" d="M22.3,94.9L22.3,94.9c-0.5,0-0.9-0.4-0.9-0.9v-1.5c0-0.5,0.4-0.9,0.9-0.9h0c0.5,0,0.9,0.4,0.9,0.9v1.5
		C23.2,94.6,22.8,94.9,22.3,94.9z"/>
	<path fill="#D8A980" d="M68,94.9L68,94.9c0.5,0,0.9-0.4,0.9-0.9v-1.5c0-0.5-0.4-0.9-0.9-0.9l0,0c-0.5,0-0.9,0.4-0.9,0.9v1.5
		C67.1,94.6,67.5,94.9,68,94.9z"/>
</g>
<path fill="#683D18" d="M13.2,45.7c0.5-1.7,1-3.6,1.4-5.7c0.5-2.6,0.7-5.1,0.8-7.2c0.3-1,0.7-2,1.4-3.2c1-1.8,2.1-3.2,3-4.2
	c1.7,2.5,3.3,3.4,4.6,3.7c1.5,0.4,4.7,0.6,5.9,1.4c0.1,0.1,0.3,0.2,0.7,0.3c0.8,0.2,1.4-0.2,1.6-0.3c1.3-0.6,2.7-0.5,4.1-0.8
	c4.9-1,7.5,1.3,10.5-0.6c0.8-0.5,1.4-1.2,3.7-2.7c0.6-0.4,1.3-0.8,2.2-1.2c0,0,1.1-0.5,2.2-0.8c2.9-0.7,4,1.1,7.5,0.8
	c2-0.2,3-0.9,4.2-0.1c0.7,0.4,0.7,0.9,1.6,1.5c0.9,0.6,1.6,0.5,2.4,0.7c0.9,0.2,2.1,0.8,3.5,2.2c-0.7,0.8-1.4,1.6-2.2,2.4
	c2.2-1.1,3.5,0.8,3.5,0.8c-1.5-0.5-3.5,1.2-3.5,1.2c3.5,2.6,4.3,4.6,4.4,6c0,0.1,0,0.2,0.1,2.5c0,0.9,0.1,2.6,0.1,3.5
	c2-5.5,2.4-7.4,2.3-7.9c0,0-0.1-0.5-0.2-1.2c-0.1-0.3-0.1-0.5-0.1-0.7c-0.3-2.4,0.1-3.6,0.1-5.2c0.1-2.8-1.1-5-2.1-6.9
	c-0.9-1.7-1.6-3.1-3.2-4.3c-1.5-1.1-2.2-0.9-3.7-2.2c-1.6-1.4-1.3-1.9-2.7-3c-1.2-0.9-1.4-0.5-4.1-1.9c-1.3-0.7-2.3-1.1-3.4-2
	c-1.6-1.2-1.3-1.4-2.5-2.2c-0.6-0.3-2.4-1.4-4.6-1.2c-0.4,0-0.3,0.1-0.7,0.1c-1.2,0.1-1.6-0.1-4-0.4c-1.4-0.2-2.2-0.3-3-0.2
	c-0.3,0-1.3,0.1-2.6,0.5c-1.2,0.4-1.5,0.7-2.8,1c-0.4,0.1-0.9,0.2-1.5,0.3C36,8.6,35.5,8.1,34,8.7c-1.2,0.5-1.4,1-3,1.7
	c-1,0.4-1.2,0.3-2.9,0.8c-2,0.6-3.1,0.9-4,1.6c-1.2,0.9-0.8,1.3-2.4,2.8c-0.8,0.8-0.9,0.7-3.1,2.3c-1.3,1-2,1.5-2.5,2
	c-0.4,0.4-1.4,1.5-2.2,3.2c-1.1,2.4-1.1,4.6-1,5.8c-0.6,1.5-1.1,3.5-1.3,5.8C11.1,39.6,12.3,43.5,13.2,45.7z"/>
<g>
	<path fill="#683D18" d="M21.2,49.7c0.3-0.5,0.8-0.9,1.2-1.2c0.5-0.3,1-0.6,1.6-0.8c0.6-0.2,1.2-0.4,1.8-0.4
		c0.6,0.1,1.2,0.3,1.7,0.7l0,0.1c-0.3,0.1-0.6,0.1-0.9,0.2c-0.3,0.1-0.5,0.1-0.8,0.1c-0.5,0.1-1,0-1.5,0.1c-0.5,0.1-1,0.3-1.5,0.5
		C22.2,49.2,21.7,49.5,21.2,49.7L21.2,49.7z"/>
	<path fill="#683D18" d="M68.5,49.7c-0.3-0.5-0.8-0.9-1.2-1.2c-0.5-0.3-1-0.6-1.6-0.8c-0.6-0.2-1.2-0.4-1.8-0.4
		c-0.6,0.1-1.2,0.3-1.7,0.7l0,0.1c0.3,0.1,0.6,0.1,0.9,0.2c0.3,0.1,0.5,0.1,0.8,0.1c0.5,0.1,1,0,1.5,0.1c0.5,0.1,1,0.3,1.5,0.5
		C67.5,49.2,68,49.5,68.5,49.7L68.5,49.7z"/>
</g>
<g>
	<path fill="#683D18" d="M45.7,60.2c0.1-0.2,0.2-0.5,0.5-0.7c0.4-0.3,0.9-0.3,1.3-0.3c0.4,0,0.7,0.1,1.4,0.3c0.9,0.3,1,0.5,1.8,0.7
		c0.1,0,0.6,0.2,1.2,0.2c0.5,0.1,0.8,0.1,1.2,0c0.5,0,0.7,0,0.8-0.1c0.3-0.1,0.5-0.3,0.6-0.4c0,0.1-0.1,0.2-0.2,0.4
		c-0.1,0.1-0.2,0.3-0.9,0.5c-0.2,0.1-0.5,0.2-0.9,0.3c-0.3,0.1-1,0.1-1.9,0c-0.8-0.2-1.6-0.5-2-0.7c0,0-0.6-0.2-1.1-0.3
		c-0.2,0-0.4,0-0.6,0c-0.2,0-0.3,0-0.4,0.1c-0.2,0.1-0.2,0.1-0.5,0.2c-0.1,0-0.3,0.1-0.3,0C45.7,60.4,45.7,60.3,45.7,60.2z"/>
	<path fill="#683D18" d="M44.9,60.2c-0.1-0.2-0.2-0.5-0.5-0.7c-0.4-0.3-0.9-0.3-1.3-0.3c-0.4,0-0.7,0.1-1.4,0.3
		c-0.9,0.3-1,0.5-1.8,0.7c-0.1,0-0.6,0.2-1.2,0.2c-0.5,0.1-0.8,0.1-1.2,0c-0.5,0-0.7,0-0.8-0.1c-0.3-0.1-0.5-0.3-0.6-0.4
		c0,0.1,0.1,0.2,0.2,0.4c0.1,0.1,0.2,0.3,0.9,0.5c0.2,0.1,0.5,0.2,0.9,0.3c0.3,0.1,1,0.1,1.9,0c0.8-0.2,1.6-0.5,2-0.7
		c0,0,0.6-0.2,1.1-0.3c0.2,0,0.4,0,0.6,0c0.2,0,0.3,0,0.4,0.1c0.2,0.1,0.2,0.1,0.5,0.2c0.1,0,0.3,0.1,0.3,0
		C45,60.3,44.9,60.3,44.9,60.2z"/>
</g>
<g>
	<path fill="#74757C" d="M69.7,76.5c0,0-2.6-3.6-5.1-4.9l0,0H53.4c-1.5,3.4-4.9,5.6-8.6,5.5c-3.4-0.1-6.5-2.3-8-5.5l-11.2,0l0,0l0,0
		c-2.6,1.3-5.1,4.9-5.1,4.9c1.5,2.6,3.1,5.1,4.6,7.7c0.2-0.3,0.4-0.6,0.6-0.9l0,8.2l39-0.2l0-7.9c0.2,0.3,0.3,0.5,0.5,0.8
		C66.7,81.6,68.2,79.1,69.7,76.5z"/>
	<path fill="#9D9FA2" d="M69.7,76.5c0,0-0.3-0.5-0.5-0.6c-1.5,2.5-3,5.1-4.5,7.7c0.1,0.2,0.3,0.4,0.4,0.7
		C66.7,81.6,68.2,79.1,69.7,76.5z"/>
	<path fill="#9D9FA2" d="M53.2,78.5l7.6,0l0,3.1c0,2-1.6,3.5-3.6,3.5l-0.5,0c-2,0-3.5-1.6-3.5-3.6L53.2,78.5z"/>
	<path fill="#9D9FA2" d="M20.5,76.5c0,0,0.3-0.5,0.5-0.6c1.5,2.5,3,5.1,4.5,7.7c-0.1,0.2-0.3,0.4-0.4,0.7
		C23.6,81.6,22.1,79.1,20.5,76.5z"/>
</g>
<g>
	<g>
		<rect x="25.7" y="91.2" fill="#5A606A" width="19.4" height="8.1"/>
	</g>
	<g>
		<rect x="45.2" y="91.2" fill="#5A606A" width="19.4" height="8.1"/>
	</g>
	<g>
		<polygon fill="#444850" points="63.5,95.1 63.7,94.9 61.7,93 61.5,93.1 		"/>
		<polygon fill="#444850" points="26.9,95.1 26.7,94.9 28.8,93 28.9,93.1 		"/>
		<path fill="#444850" d="M64.7,91.1H25.7v1.2h18.4l0,1.8l1,0.9v4.4h0.3v-7.1h19.2V91.1z M45.1,94.7L44.4,94l0-1.7h0.8V94.7z"/>
	</g>
	<g>
		<rect x="25.6" y="99.3" fill="#7B8088" width="19.6" height="0.9"/>
		<rect x="45.3" y="99.3" fill="#7B8088" width="19.6" height="0.9"/>
		<rect x="34.8" y="91.4" fill="#7B8088" width="0.7" height="1.8"/>
		<rect x="53.7" y="91.4" fill="#7B8088" width="0.7" height="1.8"/>
	</g>
	<circle fill="#7B8088" cx="44.7" cy="91.6" r="0.4"/>
</g>
<g>
	<path fill="#454B55" d="M63,104.1H46.9c-0.9,0-1.7-0.7-1.7-1.7v-2.2h19.4v2.2C64.7,103.3,63.9,104.1,63,104.1z"/>
	<path fill="#6A6F77" d="M58.8,102.8h-7.7v-1.8c0-0.7,0.6-1.3,1.3-1.3h5.1c0.7,0,1.3,0.6,1.3,1.3V102.8z"/>
	<path fill="#DDD2BF" d="M46.9,104.1h16.4C63.3,104.1,55.6,100.4,46.9,104.1z"/>
	<g>
		<rect x="50.5" y="102" fill="#DDD2BF" width="8.8" height="0.1"/>
		<rect x="50.5" y="101.3" fill="#DDD2BF" width="8.8" height="0.1"/>
		<rect x="50.5" y="100.5" fill="#DDD2BF" width="8.8" height="0.1"/>
	</g>
</g>
<g>
	<path fill="#454B55" d="M43.6,104.1H27.4c-0.9,0-1.7-0.7-1.7-1.7v-2.2h19.4v2.2C45.2,103.3,44.5,104.1,43.6,104.1z"/>
	<path fill="#6A6F77" d="M39.4,102.8h-7.7v-1.8c0-0.7,0.6-1.3,1.3-1.3h5.1c0.7,0,1.3,0.6,1.3,1.3V102.8z"/>
	<path fill="#DDD2BF" d="M27.5,104.1h16.4C43.9,104.1,36.2,100.4,27.5,104.1z"/>
	<g>
		<rect x="31" y="102" fill="#DDD2BF" width="8.8" height="0.1"/>
		<rect x="31" y="101.3" fill="#DDD2BF" width="8.8" height="0.1"/>
		<rect x="31" y="100.5" fill="#DDD2BF" width="8.8" height="0.1"/>
	</g>
</g>
</svg>
