<?xml version="1.0" encoding="utf-8"?>
<!-- Generator: Adobe Illustrator 21.0.0, SVG Export Plug-In . SVG Version: 6.00 Build 0)  -->
<svg version="1.2" baseProfile="tiny" id="Capa_1" xmlns="http://www.w3.org/2000/svg" xmlns:xlink="http://www.w3.org/1999/xlink"
	 x="0px" y="0px" viewBox="0 0 90.7 109.4" xml:space="preserve">
<path fill="#F6DDC8" d="M75.9,20.6H23c-2.9,0-5.3,2.4-5.3,5.3v40.1c0,2.9,2.4,5.3,5.3,5.3H30c-1,0.6-8.4,5.6-8.3,18.8l0,0
	c0,3.9,3.2,7,7,7v-7h0c0-3.3,0.5-5.9,1.2-7.8v15.2h0v3.9c0,1.1,0.9,2.1,2.1,2.1h15.3c1.1,0,2.1-0.9,2.1-2.1v-3.6h0.1v3.6
	c0,1.1,0.9,2.1,2.1,2.1h15.3c1.1,0,2.1-0.9,2.1-2.1v-3.9h0V82.5c0.7,1.9,1.3,4.5,1.2,7.8h0v7c3.9,0,7-3.1,7-7l0,0
	c0.1-13.1-7.1-18.1-8.2-18.8h7c2.9,0,5.3-2.4,5.3-5.3V25.9C81.3,23,78.9,20.6,75.9,20.6z"/>
<path fill="#E3B98C" d="M70.2,90.2"/>
<g>
	<circle fill="#2C8FA9" cx="29.9" cy="51.8" r="2.4"/>
	<circle fill="#2C8FA9" cx="68.8" cy="51.8" r="2.4"/>
</g>
<path fill="#D7B79F" d="M49.5,65c-2.2,0-4-1.8-4-4c0-0.4,0.3-0.6,0.6-0.6c0.4,0,0.6,0.3,0.6,0.6c0,1.5,1.2,2.7,2.7,2.7
	c1.5,0,2.7-1.2,2.7-2.7c0-0.4,0.3-0.6,0.6-0.6c0.4,0,0.6,0.3,0.6,0.6C53.4,63.2,51.6,65,49.5,65z"/>
<g>
	<path fill="#E7CBB5" d="M17.6,58.6c-1.1-0.9-1.9-2.7-1.9-4.6c0-2,0.8-3.7,1.9-4.6L17.6,58.6z"/>
	<path fill="#E7CBB5" d="M81.3,58.6c1.1-0.9,1.9-2.7,1.9-4.6c0-2-0.8-3.7-1.9-4.6L81.3,58.6z"/>
	<path fill="#E7CBB5" d="M60.7,71.4c0,0.8-0.6,1.4-1.2,1.4H37.3c-0.7,0-1.2-0.6-1.2-1.4H60.7z"/>
	<path fill="#E7CBB5" d="M49.5,58.6L49.5,58.6c-0.9,0-1.6-0.7-1.6-1.6v-4c0-0.9,0.7-1.6,1.6-1.6h0c0.9,0,1.6,0.7,1.6,1.6v4
		C51.1,57.9,50.4,58.6,49.5,58.6z"/>
	<path fill="#E7CBB5" d="M26.6,94.6L26.6,94.6c-0.5,0-0.9-0.4-0.9-0.9v-1.5c0-0.5,0.4-0.9,0.9-0.9h0c0.5,0,0.9,0.4,0.9,0.9v1.5
		C27.5,94.2,27.1,94.6,26.6,94.6z"/>
	<path fill="#E7CBB5" d="M72.3,94.6L72.3,94.6c0.5,0,0.9-0.4,0.9-0.9v-1.5c0-0.5-0.4-0.9-0.9-0.9l0,0c-0.5,0-0.9,0.4-0.9,0.9v1.5
		C71.4,94.2,71.8,94.6,72.3,94.6z"/>
</g>
<path fill="#E2AE43" d="M68,27.3c0,0,5.3,20.6,13.5,18.4c0,0,5.2-26.4-5.5-29.1c0,0-1.1-5.8,1.8-5.9c0,0-3.3-0.3-4.3,0.3
	c0,0-0.2-2.3-3.1-3.6c0,0,1.2,3.1,0,3.8c0,0-27.3-13.6-51.5,10.3c-9.8,9.7-13.3,16.8-17,16.3c0,0,7.3,1.7,12.6,1.7
	c0,0-1.5,4.9-5.9,5.2c0,0,18.1,6.6,34.4-10.6c0,0,0.4,6.1-3.6,8.2C39.4,42.3,58.9,46.3,68,27.3z"/>
<g>
	<path fill="#E2AE43" d="M25.7,49.5c0.3-0.5,0.8-0.9,1.2-1.2c0.5-0.3,1-0.6,1.6-0.8c0.6-0.2,1.2-0.4,1.8-0.4
		c0.6,0.1,1.2,0.3,1.7,0.7l0,0.1c-0.3,0.1-0.6,0.1-0.9,0.2c-0.3,0.1-0.5,0.1-0.8,0.1c-0.5,0.1-1,0-1.5,0.1c-0.5,0.1-1,0.3-1.5,0.5
		C26.7,48.9,26.2,49.2,25.7,49.5L25.7,49.5z"/>
	<path fill="#E2AE43" d="M73.1,49.5c-0.3-0.5-0.8-0.9-1.2-1.2c-0.5-0.3-1-0.6-1.6-0.8c-0.6-0.2-1.2-0.4-1.8-0.4
		c-0.6,0.1-1.2,0.3-1.7,0.7l0,0.1c0.3,0.1,0.6,0.1,0.9,0.2c0.3,0.1,0.5,0.1,0.8,0.1c0.5,0.1,1,0,1.5,0.1c0.5,0.1,1,0.3,1.5,0.5
		C72.1,48.9,72.5,49.2,73.1,49.5L73.1,49.5z"/>
</g>
<g>
	<g>
		<g>
			<path fill="#4FABDA" d="M21.7,90.3c-0.1-14,8.1-18.9,8.4-19.1l3.6,5.7l0.1,0c-0.2,0.1-5.1,3.3-5.1,13.3L21.7,90.3z"/>
		</g>
		<g>
			<path fill="#4FABDA" d="M77.1,90.4c0.2-14-8-18.9-8.3-19.1L65.1,77l-0.1,0c0.2,0.1,5.1,3.4,5,13.4L77.1,90.4z"/>
		</g>
		<path fill="#4FABDA" d="M69,71.5l0,21.9l-39,0.1l0-22.1l11.2,0c0.9,1.7,2.3,3.8,4.3,6c1.4,1.4,3,2,4.2,2.8
			c1.3-0.9,2.8-1.7,4.4-3.5c1.7-1.9,2.8-3.8,3.6-5.2C61.5,71.5,65.2,71.5,69,71.5z"/>
		<path fill="#3E97BA" d="M41.2,71.4c0.6,1.3,1.6,3.2,3.4,5.1c1.9,2,3.8,3.1,5.1,3.8c-1.2,1.6-2.4,3.3-3.6,4.9
			c-2.2-3.1-4.3-6.2-6.5-9.2C40.2,74.4,40.7,72.9,41.2,71.4z"/>
		<path fill="#3E97BA" d="M58,71.1c-0.8,1.4-1.9,3.1-3.5,4.8c-1.7,1.9-3.4,3.3-4.8,4.3c1.3,1.6,2.5,3.2,3.8,4.8
			c2.1-3.2,4.1-6.3,6.2-9.5C59.1,74.1,58.6,72.6,58,71.1z"/>
		<path fill="#3E97BA" d="M58.7,82.7c0,1.6,0.1,3.2,0.1,4.8l2.1,1l2-1.1l0.5-4.8L58.7,82.7z"/>
		<path fill="#3B80A3" d="M60.9,88.4l-0.1-0.1L60.9,88.4L60.9,88.4l0.1-0.1l0,0L60.9,88.4z M60.6,88.2l-0.2-0.1l0,0L60.6,88.2
			L60.6,88.2z M61.2,88.2L61.2,88.2l0.2-0.2l0,0L61.2,88.2z M60.2,88L60,87.9l0,0L60.2,88L60.2,88z M61.6,88L61.6,88l0.2-0.2l0,0
			L61.6,88z M59.8,87.8l-0.2-0.1l0,0L59.8,87.8L59.8,87.8z M62,87.8L62,87.8l0.2-0.2l0,0L62,87.8z M59.4,87.6l-0.2-0.1l0,0
			L59.4,87.6L59.4,87.6z M62.3,87.6L62.3,87.6l0.2-0.2l0,0L62.3,87.6z M59,87.4L59,87.4L59,87.4l-0.1-0.2l0.1,0L59,87.4L59,87.4
			L59,87.4z M62.7,87.4L62.7,87.4L62.7,87.4l0-0.2l0.1,0L62.7,87.4L62.7,87.4z M58.9,87l0-0.2l0.1,0L58.9,87L58.9,87z M62.8,86.9
			L62.8,86.9l0-0.2l0.1,0L62.8,86.9z M58.9,86.6l0-0.2l0.1,0L58.9,86.6L58.9,86.6z M62.9,86.5L62.9,86.5l0-0.2l0.1,0L62.9,86.5z
			 M58.9,86.2l0-0.2l0.1,0L58.9,86.2L58.9,86.2z M62.9,86L62.9,86l0-0.2l0.1,0L62.9,86z M58.9,85.7l0-0.2l0.1,0L58.9,85.7L58.9,85.7
			z M62.9,85.6L62.9,85.6l0-0.2l0.1,0L62.9,85.6z M58.9,85.3l0-0.2l0.1,0L58.9,85.3L58.9,85.3z M63,85.2L63,85.2l0-0.2l0.1,0
			L63,85.2z M58.9,84.8l0-0.2l0.1,0L58.9,84.8L58.9,84.8z M63,84.7L63,84.7l0-0.2l0.1,0L63,84.7z M58.9,84.4l0-0.2l0.1,0L58.9,84.4
			L58.9,84.4z M63.1,84.3L63.1,84.3l0-0.2l0.1,0L63.1,84.3z M58.8,84l0-0.2l0.1,0L58.8,84L58.8,84z M63.1,83.9L63.1,83.9l0-0.2
			l0.1,0L63.1,83.9z M58.8,83.5l0-0.2l0.1,0L58.8,83.5L58.8,83.5z M63.2,83.4L63.2,83.4l0-0.2l0.1,0L63.2,83.4z M58.8,83.1l0-0.2
			l0.1,0L58.8,83.1L58.8,83.1z M63.2,83L63.2,83l0-0.2l0.1,0L63.2,83z"/>
		<path fill="#4FABDA" d="M58.6,82.7c0.1,0.4,0.2,0.9,0.2,1.3c0.8,0.3,1.6,0.7,2.3,1c0.7-0.3,1.5-0.7,2.2-1c0-0.5,0-1,0-1.4
			C61.8,82.6,60.2,82.6,58.6,82.7z"/>
		<g>
			<g>
				<path fill="#3B80A3" d="M29.5,82.7C29.5,82.7,29.5,82.7,29.5,82.7c-0.1,0-0.1-0.1-0.1-0.2c0.1-0.1,0.1-0.2,0.2-0.2
					c0,0,0.1,0,0.1,0c0,0,0,0.1,0,0.1C29.7,82.6,29.7,82.6,29.5,82.7C29.6,82.7,29.6,82.7,29.5,82.7z"/>
				<path fill="#3B80A3" d="M28.3,89.3C28.2,89.3,28.2,89.3,28.3,89.3c-0.1-0.3-0.1-0.5-0.1-0.7c0-0.1,0-0.1,0.1-0.1
					c0,0,0.1,0,0.1,0.1C28.4,88.9,28.4,89,28.3,89.3C28.4,89.3,28.3,89.3,28.3,89.3L28.3,89.3z M28.3,88.2
					C28.2,88.2,28.2,88.1,28.3,88.2c-0.1-0.3-0.1-0.5-0.1-0.6l0,0c0-0.1,0-0.1,0.1-0.1c0.1,0,0.1,0,0.1,0.1l0,0
					C28.4,87.7,28.4,87.9,28.3,88.2C28.4,88.1,28.3,88.2,28.3,88.2L28.3,88.2z M28.3,87C28.3,87,28.3,87,28.3,87
					C28.2,87,28.2,87,28.3,87c-0.1-0.3-0.1-0.5-0.1-0.7c0-0.1,0-0.1,0.1-0.1c0.1,0,0.1,0.1,0.1,0.1C28.4,86.6,28.4,86.8,28.3,87
					C28.4,87,28.3,87,28.3,87z M28.4,85.9L28.4,85.9c-0.1,0-0.1-0.1-0.1-0.1c0-0.2,0-0.4,0.1-0.6c0-0.1,0.1-0.1,0.1-0.1
					c0.1,0,0.1,0.1,0.1,0.1C28.5,85.5,28.5,85.6,28.4,85.9C28.5,85.9,28.4,85.9,28.4,85.9z M28.6,84.8
					C28.6,84.8,28.6,84.8,28.6,84.8c-0.1,0-0.1-0.1-0.1-0.1c0-0.2,0.1-0.4,0.2-0.6c0,0,0.1-0.1,0.1-0.1c0,0,0.1,0.1,0.1,0.1
					C28.8,84.4,28.7,84.5,28.6,84.8C28.6,84.8,28.6,84.8,28.6,84.8z M29,83.7C28.9,83.7,28.9,83.7,29,83.7c-0.1,0-0.1-0.1-0.1-0.1
					c0.1-0.2,0.2-0.3,0.3-0.5c0,0,0.1-0.1,0.1,0c0,0,0.1,0.1,0,0.1C29.2,83.3,29.1,83.5,29,83.7C29,83.7,29,83.7,29,83.7z"/>
				<path fill="#3B80A3" d="M28.3,90.2C28.3,90.2,28.2,90.1,28.3,90.2l-0.1-0.4c0-0.1,0-0.1,0.1-0.1c0.1,0,0.1,0,0.1,0.1L28.3,90.2
					C28.4,90.1,28.4,90.2,28.3,90.2L28.3,90.2z"/>
			</g>
			<path fill="#3B80A3" d="M27.8,89.3L27.8,89.3l-0.5,0c-0.1,0-0.1,0-0.1-0.1c0-0.1,0-0.1,0.1-0.1h0l0.5,0
				C27.8,89.1,27.8,89.2,27.8,89.3C27.8,89.3,27.8,89.3,27.8,89.3z M26.7,89.3L26.7,89.3l-0.5,0c-0.1,0-0.1,0-0.1-0.1
				c0-0.1,0-0.1,0.1-0.1h0l0.5,0C26.7,89.1,26.8,89.2,26.7,89.3C26.8,89.3,26.7,89.3,26.7,89.3z M25.6,89.3L25.6,89.3l-0.5,0
				c-0.1,0-0.1,0-0.1-0.1c0-0.1,0-0.1,0.1-0.1h0l0.5,0C25.6,89.1,25.7,89.2,25.6,89.3C25.7,89.3,25.6,89.3,25.6,89.3z M24.5,89.3
				L24.5,89.3l-0.5,0c-0.1,0-0.1,0-0.1-0.1c0-0.1,0-0.1,0.1-0.1l0,0l0.5,0C24.5,89.1,24.6,89.1,24.5,89.3
				C24.6,89.2,24.5,89.3,24.5,89.3z M23.4,89.3L23.4,89.3l-0.5,0c-0.1,0-0.1,0-0.1-0.1c0-0.1,0-0.1,0.1-0.1l0,0l0.5,0
				C23.5,89.1,23.5,89.1,23.4,89.3C23.5,89.2,23.5,89.3,23.4,89.3z M22.3,89.3L22.3,89.3l-0.5,0c-0.1,0-0.1,0-0.1-0.1
				c0-0.1,0.1-0.1,0.1-0.1l0.5,0C22.4,89.1,22.4,89.1,22.3,89.3C22.4,89.2,22.4,89.3,22.3,89.3z"/>
			<path fill="#3B80A3" d="M33.1,73.4C33.1,73.4,33,73.4,33.1,73.4c-0.1-0.1-0.1-0.2,0-0.2c0.2,0,0.4,0,0.5,0l0,0
				c0.1,0,0.1,0,0.1,0.1c0,0.1,0,0.1-0.1,0.1C33.5,73.4,33.3,73.4,33.1,73.4L33.1,73.4z M32.6,73.4L32.6,73.4c-0.2,0-0.4,0-0.5,0
				c-0.1,0-0.1,0-0.1-0.1c0-0.1,0-0.1,0.1-0.1l0,0c0.2,0,0.4,0,0.5,0C32.6,73.3,32.7,73.3,32.6,73.4C32.7,73.4,32.6,73.4,32.6,73.4z
				 M34.2,73.4C34.2,73.4,34.1,73.4,34.2,73.4c-0.1-0.1-0.1-0.2,0-0.2c0.2,0,0.4,0,0.5,0c0,0,0,0,0,0c0.1,0,0.1,0,0.1,0.1
				c0,0.1,0,0.1-0.1,0.1C34.6,73.4,34.4,73.4,34.2,73.4C34.2,73.4,34.2,73.4,34.2,73.4z M35.3,73.4C35.3,73.4,35.2,73.4,35.3,73.4
				c-0.1-0.1-0.1-0.2,0-0.2c0.2,0,0.4,0,0.5,0l0,0c0.1,0,0.1,0,0.1,0.1c0,0.1,0,0.1-0.1,0.1C35.7,73.4,35.5,73.4,35.3,73.4
				L35.3,73.4z M36.4,73.4C36.3,73.4,36.3,73.3,36.4,73.4c-0.1-0.1-0.1-0.2,0-0.2c0.2,0,0.4,0,0.5,0c0.1,0,0.1,0,0.1,0.1
				c0,0.1,0,0.1-0.1,0.1C36.8,73.4,36.6,73.4,36.4,73.4C36.4,73.4,36.4,73.4,36.4,73.4z M37.5,73.3C37.4,73.3,37.4,73.3,37.5,73.3
				c-0.1-0.1-0.1-0.2,0-0.2c0.2,0,0.4,0,0.5,0c0.1,0,0.1,0,0.1,0.1c0,0.1,0,0.1-0.1,0.1C37.8,73.3,37.7,73.3,37.5,73.3
				C37.5,73.3,37.5,73.3,37.5,73.3z M38.6,73.2C38.5,73.2,38.5,73.2,38.6,73.2c-0.1-0.1-0.1-0.2,0-0.2c0,0,0,0,0,0
				c0.2,0,0.4,0,0.5,0c0.1,0,0.1,0,0.1,0.1c0,0.1,0,0.1-0.1,0.1C38.9,73.2,38.7,73.2,38.6,73.2C38.6,73.2,38.6,73.2,38.6,73.2z
				 M39.6,73.2C39.6,73.2,39.5,73.1,39.6,73.2c-0.1-0.1-0.1-0.2,0-0.2c0.2,0,0.4,0,0.5,0c0.1,0,0.1,0,0.1,0.1c0,0.1,0,0.1-0.1,0.1
				C40,73.1,39.8,73.1,39.6,73.2L39.6,73.2z"/>
			<path fill="#3B80A3" d="M33.1,73.9L33.1,73.9c-0.1,0-0.2,0-0.2-0.1c0-0.1,0-0.1,0.1-0.1l0.5,0h0c0.1,0,0.1,0,0.1,0.1
				c0,0.1,0,0.1-0.1,0.1L33.1,73.9z M32.5,73.9L32.5,73.9c-0.2,0-0.4,0-0.5,0c-0.1,0-0.1,0-0.1-0.1c0-0.1,0.1-0.1,0.1-0.1
				c0.2,0,0.3,0,0.5,0C32.5,73.7,32.6,73.8,32.5,73.9C32.6,73.9,32.5,73.9,32.5,73.9z M34.1,73.9C34.1,73.9,34,73.9,34.1,73.9
				c-0.1-0.1-0.1-0.2,0-0.2l0.5,0l0,0c0.1,0,0.1,0,0.1,0.1c0,0.1,0,0.1-0.1,0.1L34.1,73.9L34.1,73.9z M35.2,73.9
				C35.2,73.9,35.1,73.9,35.2,73.9c-0.1-0.1-0.1-0.2,0-0.2c0.2,0,0.4,0,0.5,0c0,0,0.1,0,0.1,0.1c0,0.1,0,0.1-0.1,0.1
				C35.6,73.9,35.4,73.9,35.2,73.9L35.2,73.9z M36.3,73.9C36.2,73.9,36.2,73.8,36.3,73.9c-0.1-0.1-0.1-0.2,0-0.2c0.2,0,0.4,0,0.5,0
				c0,0,0.1,0,0.1,0.1c0,0.1,0,0.1-0.1,0.1C36.7,73.9,36.5,73.9,36.3,73.9C36.3,73.9,36.3,73.9,36.3,73.9z M37.4,73.8
				C37.3,73.8,37.3,73.8,37.4,73.8c-0.1-0.1-0.1-0.2,0-0.2l0.5,0c0,0,0.1,0,0.1,0.1c0,0.1,0,0.1-0.1,0.1L37.4,73.8L37.4,73.8z
				 M38.5,73.8C38.4,73.8,38.4,73.7,38.5,73.8c-0.1-0.1-0.1-0.2,0-0.2c0.2,0,0.4,0,0.5,0c0.1,0,0.1,0,0.1,0.1c0,0.1,0,0.1-0.1,0.1
				C38.8,73.7,38.7,73.8,38.5,73.8C38.5,73.8,38.5,73.8,38.5,73.8z M39.5,73.7C39.5,73.7,39.5,73.7,39.5,73.7
				c-0.1-0.1-0.1-0.2,0-0.2c0.2,0,0.4,0,0.5,0c0.1,0,0.1,0,0.1,0.1c0,0.1,0,0.1-0.1,0.1C39.9,73.7,39.7,73.7,39.5,73.7
				C39.6,73.7,39.6,73.7,39.5,73.7z"/>
			<path fill="#3B80A3" d="M30,81.2C30,81.2,30,81.2,30,81.2c-0.1,0-0.1-0.1-0.1-0.1l0.1-0.2c0,0,0.1-0.1,0.1-0.1
				c0,0,0.1,0.1,0.1,0.1L30,81.2C30.1,81.2,30.1,81.2,30,81.2z M30.3,80.5C30.3,80.5,30.3,80.5,30.3,80.5c-0.1,0-0.1-0.1-0.1-0.1
				c0.1-0.1,0.1-0.3,0.2-0.4l0-0.1c0,0,0.1-0.1,0.1-0.1c0,0,0.1,0.1,0.1,0.1l0,0.1C30.5,80.2,30.4,80.3,30.3,80.5
				C30.4,80.5,30.3,80.5,30.3,80.5z M30.6,79.5C30.6,79.5,30.6,79.5,30.6,79.5c-0.1,0-0.1-0.1-0.1-0.1c0.1-0.2,0.1-0.4,0.2-0.5
				c0-0.1,0.1-0.1,0.1-0.1c0.1,0,0.1,0.1,0.1,0.1C30.9,79,30.8,79.2,30.6,79.5C30.7,79.5,30.7,79.5,30.6,79.5z M31,78.4
				C31,78.4,31,78.4,31,78.4c-0.1,0-0.1-0.1-0.1-0.1l0,0c0.1-0.2,0.1-0.3,0.1-0.5c0,0,0.1-0.1,0.1-0.1c0.1,0,0.1,0.1,0.1,0.1
				c0,0.1-0.1,0.3-0.1,0.5L31,78.4C31.1,78.4,31,78.4,31,78.4z M31.3,77.4C31.3,77.4,31.3,77.4,31.3,77.4c-0.1,0-0.1-0.1-0.1-0.1
				c0-0.2,0.1-0.4,0.1-0.5c0-0.1,0.1-0.1,0.1-0.1c0.1,0,0.1,0.1,0.1,0.1C31.4,76.9,31.4,77.1,31.3,77.4
				C31.4,77.4,31.3,77.4,31.3,77.4z M31.4,76.3L31.4,76.3C31.4,76.3,31.3,76.3,31.4,76.3c-0.1-0.2-0.1-0.2-0.1-0.3
				c0-0.1,0-0.2,0-0.4c0-0.1,0-0.1,0.1-0.1c0.1,0,0.1,0,0.1,0.1c0,0.1,0,0.3,0,0.4C31.5,76.1,31.5,76.2,31.4,76.3
				C31.5,76.3,31.5,76.3,31.4,76.3z M31.4,75.2C31.3,75.2,31.3,75.2,31.4,75.2c-0.1-0.3-0.1-0.4-0.2-0.6c0-0.1,0-0.1,0.1-0.1
				c0.1,0,0.1,0,0.1,0.1c0,0.2,0.1,0.4,0.1,0.5C31.5,75.2,31.4,75.2,31.4,75.2C31.4,75.2,31.4,75.2,31.4,75.2z M31.1,74.1
				C31.1,74.1,31.1,74.1,31.1,74.1c-0.1-0.2-0.2-0.4-0.3-0.6c0,0,0-0.1,0.1-0.1c0,0,0.1,0,0.1,0.1c0.1,0.2,0.1,0.4,0.2,0.5
				C31.3,74.1,31.2,74.1,31.1,74.1C31.2,74.1,31.2,74.1,31.1,74.1z M30.7,73.1C30.7,73.1,30.7,73.1,30.7,73.1l-0.3-0.5
				c0,0,0-0.1,0-0.1c0,0,0.1,0,0.1,0l0.2,0.5C30.8,73.1,30.8,73.1,30.7,73.1C30.8,73.1,30.7,73.1,30.7,73.1z M30.3,72.2
				C30.2,72.2,30.2,72.1,30.3,72.2c-0.2-0.2-0.2-0.4-0.3-0.5c0,0,0-0.1,0-0.1c0,0,0.1,0,0.1,0c0.1,0.2,0.2,0.3,0.3,0.5
				C30.4,72.1,30.4,72.1,30.3,72.2C30.3,72.2,30.3,72.2,30.3,72.2z"/>
			<path fill="#3B80A3" d="M30.5,81.2C30.5,81.2,30.5,81.1,30.5,81.2c-0.1,0-0.1-0.1-0.1-0.1l0.1-0.2c0,0,0.1-0.1,0.1-0.1
				c0,0,0.1,0.1,0.1,0.1L30.5,81.2C30.6,81.1,30.5,81.2,30.5,81.2z M30.8,80.5C30.7,80.5,30.7,80.5,30.8,80.5
				c-0.1,0-0.1-0.1-0.1-0.1c0.1-0.1,0.1-0.3,0.2-0.4l0-0.1l0.1,0l0.1,0l0,0.1C31,80.1,30.9,80.3,30.8,80.5
				C30.8,80.5,30.8,80.5,30.8,80.5z M31.1,79.5C31.1,79.5,31.1,79.5,31.1,79.5c-0.1,0-0.1-0.1-0.1-0.1c0.1-0.2,0.1-0.4,0.2-0.5
				c0-0.1,0.1-0.1,0.1-0.1c0.1,0,0.1,0.1,0.1,0.1C31.3,79,31.3,79.2,31.1,79.5C31.2,79.4,31.2,79.5,31.1,79.5z M31.5,78.4
				C31.5,78.4,31.4,78.4,31.5,78.4c-0.1,0-0.1-0.1-0.1-0.1l0,0c0.1-0.2,0.1-0.3,0.1-0.5c0,0,0.1-0.1,0.1-0.1c0.1,0,0.1,0.1,0.1,0.1
				c0,0.1-0.1,0.3-0.1,0.5L31.5,78.4C31.5,78.4,31.5,78.4,31.5,78.4z M31.8,77.4C31.7,77.4,31.7,77.4,31.8,77.4
				c-0.1,0-0.1-0.1-0.1-0.1c0-0.2,0.1-0.4,0.1-0.5c0-0.1,0-0.1,0.1-0.1c0.1,0,0.1,0.1,0.1,0.1C31.9,76.9,31.9,77.1,31.8,77.4
				C31.8,77.3,31.8,77.4,31.8,77.4z M31.9,76.3L31.9,76.3C31.8,76.3,31.8,76.2,31.9,76.3c-0.1-0.2-0.1-0.2-0.1-0.3
				c0-0.1,0-0.2,0-0.4c0-0.1,0-0.1,0.1-0.1c0.1,0,0.1,0,0.1,0.1c0,0.1,0,0.3,0,0.4C32,76.1,32,76.1,31.9,76.3
				C32,76.2,31.9,76.3,31.9,76.3z M31.8,75.2C31.8,75.2,31.8,75.2,31.8,75.2c-0.1-0.3-0.1-0.4-0.2-0.6c0-0.1,0-0.1,0.1-0.1
				c0.1,0,0.1,0,0.1,0.1c0,0.2,0.1,0.4,0.1,0.5C31.9,75.1,31.9,75.2,31.8,75.2C31.9,75.2,31.8,75.2,31.8,75.2z M31.6,74.1
				C31.6,74.1,31.5,74.1,31.6,74.1c-0.1-0.2-0.2-0.4-0.3-0.6c0,0,0-0.1,0.1-0.1c0,0,0.1,0,0.1,0.1c0.1,0.2,0.1,0.4,0.2,0.5
				C31.7,74.1,31.7,74.1,31.6,74.1C31.6,74.1,31.6,74.1,31.6,74.1z M31.2,73.1C31.2,73.1,31.1,73.1,31.2,73.1l-0.3-0.5
				c0,0,0-0.1,0-0.1c0,0,0.1,0,0.1,0l0.2,0.5C31.3,73,31.3,73.1,31.2,73.1C31.2,73.1,31.2,73.1,31.2,73.1z M30.7,72.1
				C30.7,72.1,30.7,72.1,30.7,72.1c-0.2-0.2-0.2-0.4-0.3-0.5c0,0,0-0.1,0-0.1c0,0,0.1,0,0.1,0c0.1,0.2,0.2,0.3,0.3,0.5
				C30.9,72,30.8,72.1,30.7,72.1C30.8,72.1,30.8,72.1,30.7,72.1z"/>
			<path fill="#3B80A3" d="M27.7,88.8L27.7,88.8l-0.5,0c-0.1,0-0.1,0-0.1-0.1c0-0.1,0-0.1,0.1-0.1h0l0.5,0
				C27.8,88.7,27.8,88.7,27.7,88.8C27.8,88.8,27.8,88.8,27.7,88.8z M26.6,88.8L26.6,88.8l-0.5,0c-0.1,0-0.1,0-0.1-0.1
				c0-0.1,0-0.1,0.1-0.1h0l0.5,0C26.7,88.6,26.7,88.7,26.6,88.8C26.7,88.8,26.7,88.8,26.6,88.8z M25.6,88.8L25.6,88.8l-0.5,0
				c-0.1,0-0.1,0-0.1-0.1c0-0.1,0-0.1,0.1-0.1l0,0l0.5,0C25.6,88.6,25.6,88.7,25.6,88.8C25.6,88.8,25.6,88.8,25.6,88.8z M24.5,88.8
				L24.5,88.8l-0.5,0c-0.1,0-0.1,0-0.1-0.1c0-0.1,0-0.1,0.1-0.1c0,0,0,0,0,0l0.5,0C24.5,88.6,24.6,88.7,24.5,88.8
				C24.6,88.8,24.5,88.8,24.5,88.8z M23.4,88.8L23.4,88.8c-0.2,0-0.4,0-0.5,0c-0.1,0-0.1,0-0.1-0.1c0-0.1,0-0.1,0.1-0.1l0,0
				c0.2,0,0.4,0,0.5,0C23.4,88.6,23.5,88.7,23.4,88.8C23.5,88.8,23.4,88.8,23.4,88.8z M22.3,88.8L22.3,88.8c-0.2,0-0.4,0-0.5,0
				c-0.1,0-0.1,0-0.1-0.1c0-0.1,0-0.1,0.1-0.1c0.2,0,0.4,0,0.5,0C22.4,88.6,22.4,88.6,22.3,88.8C22.4,88.7,22.3,88.8,22.3,88.8z"/>
			<g>
				<path fill="#3B80A3" d="M69.3,82.9C69.2,82.9,69.2,82.9,69.3,82.9c-0.1-0.1-0.2-0.2-0.2-0.3c0,0,0-0.1,0-0.1c0,0,0.1,0,0.1,0
					c0.1,0.1,0.1,0.1,0.2,0.2C69.4,82.8,69.4,82.8,69.3,82.9C69.3,82.9,69.3,82.9,69.3,82.9z"/>
				<path fill="#3B80A3" d="M70.5,89.5L70.5,89.5C70.4,89.5,70.4,89.4,70.5,89.5c-0.1-0.3-0.1-0.5-0.1-0.7c0-0.1,0-0.1,0.1-0.1l0,0
					c0.1,0,0.1,0,0.1,0.1C70.6,89,70.6,89.2,70.5,89.5C70.6,89.4,70.5,89.5,70.5,89.5z M70.5,88.3L70.5,88.3
					C70.4,88.3,70.4,88.3,70.5,88.3c-0.1-0.3-0.1-0.5-0.1-0.6l0,0c0-0.1,0-0.1,0.1-0.1s0.1,0,0.1,0.1l0,0
					C70.6,87.8,70.6,88,70.5,88.3C70.6,88.3,70.6,88.3,70.5,88.3z M70.5,87.2C70.4,87.2,70.4,87.1,70.5,87.2
					c-0.1-0.3-0.1-0.5-0.1-0.7c0-0.1,0-0.1,0.1-0.1c0.1,0,0.1,0,0.1,0.1C70.6,86.7,70.6,86.9,70.5,87.2
					C70.6,87.1,70.6,87.2,70.5,87.2L70.5,87.2z M70.4,86C70.4,86,70.3,86,70.4,86c-0.1-0.3-0.1-0.5-0.2-0.6c0-0.1,0-0.1,0.1-0.1
					c0.1,0,0.1,0,0.1,0.1c0,0.2,0.1,0.4,0.1,0.6C70.5,86,70.5,86,70.4,86L70.4,86z M70.2,84.9C70.2,84.9,70.1,84.9,70.2,84.9
					c-0.1-0.3-0.2-0.4-0.3-0.6c0,0,0-0.1,0.1-0.1c0,0,0.1,0,0.1,0.1c0.1,0.2,0.1,0.4,0.2,0.6C70.3,84.9,70.3,84.9,70.2,84.9
					C70.2,84.9,70.2,84.9,70.2,84.9z M69.8,83.9C69.8,83.9,69.8,83.8,69.8,83.9c-0.2-0.2-0.3-0.4-0.3-0.6c0,0,0-0.1,0-0.1
					c0,0,0.1,0,0.1,0c0.1,0.2,0.2,0.3,0.3,0.5C69.9,83.8,69.9,83.8,69.8,83.9C69.9,83.9,69.8,83.9,69.8,83.9z"/>
				<path fill="#3B80A3" d="M70.4,90.3L70.4,90.3c-0.1,0-0.1,0-0.1-0.1l0-0.3c0-0.1,0-0.1,0.1-0.1c0.1,0,0.1,0,0.1,0.1L70.4,90.3
					C70.5,90.3,70.5,90.3,70.4,90.3z"/>
			</g>
			<path fill="#3B80A3" d="M71,89.5C70.9,89.5,70.9,89.4,71,89.5c-0.1-0.1-0.1-0.2,0-0.2l0.5,0l0,0.1l0,0.1L71,89.5L71,89.5z
				 M72.1,89.5C72,89.5,72,89.4,72.1,89.5c-0.1-0.1-0.1-0.2,0-0.2l0.5,0l0,0.1l0,0.1L72.1,89.5L72.1,89.5z M73.2,89.4
				C73.1,89.4,73.1,89.4,73.2,89.4c-0.1-0.1-0.1-0.2,0-0.2l0.5,0h0c0.1,0,0.1,0,0.1,0.1c0,0.1,0,0.1-0.1,0.1L73.2,89.4L73.2,89.4z
				 M74.3,89.4C74.2,89.4,74.2,89.4,74.3,89.4c-0.1-0.1-0.1-0.2,0-0.2l0.5,0l0,0c0.1,0,0.1,0,0.1,0.1c0,0.1,0,0.1-0.1,0.1L74.3,89.4
				L74.3,89.4z M75.3,89.4C75.3,89.4,75.3,89.4,75.3,89.4c-0.1-0.1-0.1-0.2,0-0.2l0.5,0l0,0c0.1,0,0.1,0,0.1,0.1
				c0,0.1,0,0.1-0.1,0.1L75.3,89.4C75.3,89.4,75.3,89.4,75.3,89.4z M76.4,89.4C76.4,89.4,76.3,89.4,76.4,89.4
				c-0.1-0.1-0.1-0.2,0-0.2l0.5,0c0.1,0,0.1,0,0.1,0.1c0,0.1,0,0.1-0.1,0.1L76.4,89.4L76.4,89.4z"/>
			<path fill="#3B80A3" d="M65.7,73.5L65.7,73.5c-0.2,0-0.4,0-0.5,0c-0.1,0-0.1,0-0.1-0.1c0-0.1,0-0.1,0.1-0.1l0,0
				c0.2,0,0.4,0,0.5,0C65.8,73.4,65.8,73.4,65.7,73.5C65.8,73.5,65.8,73.5,65.7,73.5z M66.3,73.5C66.2,73.5,66.2,73.5,66.3,73.5
				c-0.1-0.1-0.1-0.2,0-0.2c0.2,0,0.4,0,0.5,0l0,0c0.1,0,0.1,0,0.1,0.1c0,0.1,0,0.1-0.1,0.1C66.6,73.5,66.4,73.6,66.3,73.5
				L66.3,73.5z M64.6,73.5C64.6,73.5,64.6,73.5,64.6,73.5c-0.2,0-0.4,0-0.5,0c-0.1,0-0.1,0-0.1-0.1c0-0.1,0.1-0.1,0.1-0.1
				c0.2,0,0.4,0,0.5,0C64.7,73.3,64.7,73.4,64.6,73.5C64.7,73.5,64.7,73.5,64.6,73.5z M63.6,73.5L63.6,73.5c-0.2,0-0.4,0-0.5,0
				c-0.1,0-0.1,0-0.1-0.1c0-0.1,0-0.1,0.1-0.1c0.2,0,0.4,0,0.5,0C63.6,73.3,63.6,73.4,63.6,73.5C63.6,73.5,63.6,73.5,63.6,73.5z
				 M62.5,73.5C62.5,73.5,62.5,73.5,62.5,73.5c-0.2,0-0.4,0-0.5,0c-0.1,0-0.1,0-0.1-0.1c0-0.1,0-0.1,0.1-0.1c0,0,0,0,0,0
				c0.2,0,0.4,0,0.5,0C62.5,73.3,62.6,73.3,62.5,73.5C62.6,73.4,62.5,73.5,62.5,73.5z M61.4,73.4L61.4,73.4c-0.2,0-0.4,0-0.5,0
				c-0.1,0-0.1,0-0.1-0.1c0-0.1,0.1-0.1,0.1-0.1c0.2,0,0.4,0,0.5,0C61.4,73.2,61.5,73.3,61.4,73.4C61.5,73.4,61.4,73.4,61.4,73.4z
				 M60.3,73.3L60.3,73.3L60.3,73.3c-0.2,0-0.4,0-0.5,0c-0.1,0-0.1-0.1-0.1-0.1c0-0.1,0.1-0.1,0.1-0.1c0.2,0,0.4,0,0.5,0L60.3,73.3z
				 M59.2,73.2C59.2,73.2,59.2,73.2,59.2,73.2c-0.2,0-0.4,0-0.5-0.1c-0.1,0-0.1-0.1-0.1-0.1c0-0.1,0.1-0.1,0.1-0.1
				c0.2,0,0.4,0,0.5,0.1C59.3,73,59.3,73.1,59.2,73.2C59.3,73.2,59.3,73.2,59.2,73.2z"/>
			<path fill="#3B80A3" d="M65.8,74l-0.5,0c-0.1,0-0.1,0-0.1-0.1c0-0.1,0-0.1,0.1-0.1h0l0.5,0C65.9,73.9,65.9,73.9,65.8,74
				C65.9,74,65.9,74,65.8,74z M66.4,74C66.3,74,66.3,74,66.4,74c-0.1-0.1-0.1-0.2,0-0.2c0.2,0,0.4,0,0.5,0c0,0,0.1,0,0.1,0.1
				c0,0.1,0,0.1-0.1,0.1C66.7,74,66.6,74,66.4,74L66.4,74z M64.7,74L64.7,74l-0.5,0c-0.1,0-0.1,0-0.1-0.1c0-0.1,0-0.1,0.1-0.1l0,0
				l0.5,0C64.8,73.8,64.8,73.9,64.7,74C64.8,74,64.8,74,64.7,74z M63.6,74L63.6,74c-0.2,0-0.4,0-0.5,0c-0.1,0-0.1,0-0.1-0.1
				c0-0.1,0-0.1,0.1-0.1l0,0c0.2,0,0.4,0,0.5,0C63.7,73.8,63.7,73.9,63.6,74C63.7,74,63.7,74,63.6,74z M62.6,74L62.6,74
				c-0.2,0-0.4,0-0.5,0c-0.1,0-0.1,0-0.1-0.1c0-0.1,0-0.1,0.1-0.1c0.2,0,0.4,0,0.5,0C62.6,73.8,62.7,73.8,62.6,74
				C62.6,73.9,62.6,74,62.6,74z M61.5,73.9C61.5,73.9,61.5,73.9,61.5,73.9l-0.5,0c-0.1,0-0.1,0-0.1-0.1c0-0.1,0-0.1,0.1-0.1l0.5,0
				C61.5,73.7,61.6,73.8,61.5,73.9C61.6,73.9,61.5,73.9,61.5,73.9z M60.4,73.8L60.4,73.8c-0.2,0-0.4,0-0.5,0c-0.1,0-0.1,0-0.1-0.1
				c0-0.1,0-0.1,0.1-0.1c0.2,0,0.4,0,0.5,0C60.4,73.6,60.5,73.7,60.4,73.8C60.5,73.8,60.4,73.8,60.4,73.8z M59.3,73.8
				C59.3,73.8,59.3,73.8,59.3,73.8c-0.2,0-0.4,0-0.5,0c-0.1,0-0.1-0.1-0.1-0.1c0-0.1,0-0.1,0.1-0.1c0.2,0,0.4,0,0.5,0
				C59.4,73.6,59.4,73.6,59.3,73.8C59.4,73.7,59.4,73.8,59.3,73.8z"/>
			<path fill="#3B80A3" d="M68.8,81.3C68.7,81.3,68.7,81.3,68.8,81.3l-0.1-0.2c0,0,0-0.1,0.1-0.1c0.1,0,0.1,0,0.1,0.1l0.1,0.2
				C68.9,81.2,68.9,81.3,68.8,81.3C68.8,81.3,68.8,81.3,68.8,81.3z M68.5,80.6C68.5,80.6,68.5,80.6,68.5,80.6
				c-0.1-0.2-0.2-0.3-0.2-0.5l0-0.1c0,0,0-0.1,0.1-0.1c0,0,0.1,0,0.1,0.1l0,0.1c0.1,0.2,0.1,0.3,0.2,0.4
				C68.6,80.6,68.6,80.6,68.5,80.6C68.6,80.6,68.5,80.6,68.5,80.6z M68.2,79.6C68.1,79.6,68.1,79.6,68.2,79.6
				C68,79.3,68,79.2,67.9,79c0,0,0-0.1,0.1-0.1c0,0,0.1,0,0.1,0.1c0,0.1,0.1,0.3,0.2,0.5C68.3,79.5,68.3,79.6,68.2,79.6
				C68.2,79.6,68.2,79.6,68.2,79.6z M67.8,78.6C67.8,78.6,67.8,78.5,67.8,78.6l-0.1-0.1c-0.1-0.2-0.1-0.3-0.1-0.5
				c0-0.1,0-0.1,0.1-0.1c0,0,0.1,0,0.1,0.1c0,0.1,0.1,0.3,0.1,0.5l0,0.1C68,78.5,67.9,78.5,67.8,78.6C67.9,78.6,67.9,78.6,67.8,78.6
				z M67.6,77.5C67.5,77.5,67.5,77.5,67.6,77.5c-0.1-0.3-0.2-0.5-0.2-0.6c0-0.1,0-0.1,0.1-0.1c0.1,0,0.1,0,0.1,0.1
				c0,0.2,0.1,0.3,0.1,0.5C67.7,77.4,67.6,77.5,67.6,77.5C67.6,77.5,67.6,77.5,67.6,77.5z M67.4,76.4C67.4,76.4,67.3,76.4,67.4,76.4
				c-0.1-0.2-0.1-0.2-0.1-0.3c0-0.1,0-0.2,0-0.4c0-0.1,0.1-0.1,0.1-0.1c0.1,0,0.1,0,0.1,0.1c0,0.1,0,0.2,0,0.4
				C67.5,76.2,67.5,76.3,67.4,76.4C67.5,76.4,67.5,76.4,67.4,76.4L67.4,76.4z M67.5,75.3C67.5,75.3,67.5,75.3,67.5,75.3
				c-0.1,0-0.1-0.1-0.1-0.1c0-0.2,0.1-0.4,0.1-0.5c0-0.1,0.1-0.1,0.1-0.1c0.1,0,0.1,0.1,0.1,0.1C67.6,74.9,67.6,75.1,67.5,75.3
				C67.6,75.3,67.5,75.3,67.5,75.3z M67.7,74.3C67.7,74.3,67.7,74.3,67.7,74.3c-0.1,0-0.1-0.1-0.1-0.1c0.1-0.2,0.1-0.3,0.2-0.5
				c0,0,0.1-0.1,0.1,0c0,0,0.1,0.1,0,0.1C67.9,73.9,67.8,74,67.7,74.3C67.8,74.2,67.7,74.3,67.7,74.3z M68.1,73.3
				C68.1,73.3,68.1,73.3,68.1,73.3c-0.1,0-0.1-0.1-0.1-0.1l0.2-0.5c0,0,0.1-0.1,0.1,0c0,0,0.1,0.1,0,0.1L68.1,73.3
				C68.2,73.2,68.2,73.3,68.1,73.3z M68.6,72.3C68.6,72.3,68.6,72.3,68.6,72.3c-0.1,0-0.1-0.1-0.1-0.1c0.1-0.2,0.2-0.3,0.3-0.5
				c0,0,0.1-0.1,0.1,0c0,0,0.1,0.1,0,0.1C68.8,71.9,68.8,72.1,68.6,72.3C68.7,72.3,68.6,72.3,68.6,72.3z"/>
			<path fill="#3B80A3" d="M68.3,81.3C68.3,81.3,68.2,81.2,68.3,81.3l-0.1-0.2c0,0,0-0.1,0.1-0.1c0,0,0.1,0,0.1,0.1l0.1,0.2
				C68.4,81.2,68.4,81.2,68.3,81.3C68.3,81.3,68.3,81.3,68.3,81.3z M68,80.6C68,80.6,68,80.6,68,80.6c-0.1-0.2-0.2-0.3-0.2-0.5
				l0-0.1c0,0,0-0.1,0.1-0.1c0,0,0.1,0,0.1,0.1l0,0l0,0.1c0.1,0.2,0.1,0.3,0.2,0.4C68.2,80.5,68.1,80.6,68,80.6
				C68.1,80.6,68.1,80.6,68,80.6z M67.7,79.6C67.7,79.6,67.6,79.5,67.7,79.6c-0.2-0.3-0.2-0.4-0.3-0.6c0,0,0-0.1,0.1-0.1
				c0,0,0.1,0,0.1,0.1c0,0.1,0.1,0.3,0.2,0.5C67.8,79.5,67.8,79.6,67.7,79.6C67.7,79.6,67.7,79.6,67.7,79.6z M67.4,78.5
				C67.3,78.5,67.3,78.5,67.4,78.5l-0.1-0.1c-0.1-0.2-0.1-0.3-0.1-0.5c0-0.1,0-0.1,0.1-0.1c0,0,0.1,0,0.1,0.1c0,0.1,0.1,0.3,0.1,0.5
				l0,0.1C67.5,78.5,67.4,78.5,67.4,78.5C67.4,78.5,67.4,78.5,67.4,78.5z M67.1,77.5C67,77.5,67,77.4,67.1,77.5
				c-0.1-0.3-0.2-0.5-0.2-0.6c0-0.1,0-0.1,0.1-0.1c0.1,0,0.1,0,0.1,0.1c0,0.2,0.1,0.3,0.1,0.5C67.2,77.4,67.1,77.5,67.1,77.5
				C67.1,77.5,67.1,77.5,67.1,77.5z M66.9,76.4C66.9,76.4,66.8,76.4,66.9,76.4c-0.1-0.2-0.1-0.2-0.1-0.3c0-0.1,0-0.2,0-0.4
				c0-0.1,0-0.1,0.1-0.1c0.1,0,0.1,0,0.1,0.1c0,0.1,0,0.2,0,0.4C67,76.2,67,76.2,66.9,76.4C67,76.4,67,76.4,66.9,76.4L66.9,76.4z
				 M67,75.3C67,75.3,67,75.3,67,75.3c-0.1,0-0.1-0.1-0.1-0.1c0-0.2,0.1-0.4,0.1-0.5c0-0.1,0.1-0.1,0.1-0.1c0.1,0,0.1,0.1,0.1,0.1
				C67.1,74.9,67.1,75,67,75.3C67.1,75.3,67,75.3,67,75.3z M67.2,74.2C67.2,74.2,67.2,74.2,67.2,74.2c-0.1,0-0.1-0.1-0.1-0.1
				c0.1-0.2,0.1-0.3,0.2-0.5c0,0,0.1-0.1,0.1,0c0,0,0.1,0.1,0,0.1C67.4,73.9,67.4,74,67.2,74.2C67.3,74.2,67.3,74.2,67.2,74.2z
				 M67.6,73.2C67.6,73.2,67.6,73.2,67.6,73.2c-0.1,0-0.1-0.1-0.1-0.1l0.2-0.5c0,0,0.1-0.1,0.1,0c0,0,0.1,0.1,0,0.1L67.6,73.2
				C67.7,73.2,67.7,73.2,67.6,73.2z M68.1,72.3C68.1,72.3,68.1,72.3,68.1,72.3c-0.1,0-0.1-0.1-0.1-0.1c0.1-0.2,0.2-0.3,0.3-0.5
				c0,0,0.1-0.1,0.1,0c0,0,0.1,0.1,0,0.1C68.4,71.9,68.3,72.1,68.1,72.3C68.2,72.2,68.1,72.3,68.1,72.3z"/>
			<path fill="#3B80A3" d="M71,89C71,89,70.9,88.9,71,89c-0.1-0.1-0.1-0.2,0-0.2l0.5,0h0c0.1,0,0.1,0,0.1,0.1c0,0.1,0,0.1-0.1,0.1
				L71,89L71,89z M72.1,89C72.1,89,72,88.9,72.1,89c-0.1-0.1-0.1-0.2,0-0.2l0.5,0h0c0.1,0,0.1,0,0.1,0.1c0,0.1,0,0.1-0.1,0.1
				L72.1,89L72.1,89z M73.2,89C73.1,89,73.1,88.9,73.2,89c-0.1-0.1-0.1-0.2,0-0.2l0.5,0l0,0c0.1,0,0.1,0,0.1,0.1
				c0,0.1,0,0.1-0.1,0.1L73.2,89L73.2,89z M74.3,89C74.2,89,74.2,88.9,74.3,89c-0.1-0.1-0.1-0.2,0-0.2l0.5,0h0c0.1,0,0.1,0,0.1,0.1
				c0,0.1,0,0.1-0.1,0.1L74.3,89L74.3,89z M75.4,89C75.3,89,75.3,88.9,75.4,89c-0.1-0.1-0.1-0.2,0-0.2c0.2,0,0.4,0,0.5,0
				c0,0,0.1,0,0.1,0.1c0,0.1,0,0.1-0.1,0.1C75.7,89,75.5,89,75.4,89L75.4,89z M76.5,88.9C76.4,88.9,76.4,88.9,76.5,88.9
				c-0.1-0.1-0.1-0.2,0-0.2c0.2,0,0.4,0,0.5,0c0,0,0.1,0,0.1,0.1c0,0.1,0,0.1-0.1,0.1C76.8,88.9,76.6,88.9,76.5,88.9L76.5,88.9z"/>
			<path fill="#3B80A3" d="M31.2,82.4C31.1,82.4,31.1,82.4,31.2,82.4c-0.1-0.1-0.1-0.2,0-0.2l0.5,0l0,0c0.1,0,0.1,0,0.1,0.1
				c0,0.1,0,0.1-0.1,0.1L31.2,82.4L31.2,82.4z M32.2,82.4C32.2,82.4,32.2,82.4,32.2,82.4c-0.1-0.1-0.1-0.2,0-0.2l0.5,0h0
				c0.1,0,0.1,0,0.1,0.1c0,0.1,0,0.1-0.1,0.1L32.2,82.4L32.2,82.4z M33.3,82.4C33.3,82.4,33.2,82.4,33.3,82.4
				c-0.1-0.1-0.1-0.2,0-0.2l0.5,0h0c0.1,0,0.1,0,0.1,0.1c0,0.1,0,0.1-0.1,0.1L33.3,82.4L33.3,82.4z M43.7,82.5L43.7,82.5l-0.5,0
				c-0.1,0-0.1,0-0.1-0.1c0-0.1,0-0.1,0.1-0.1l0,0l0.5,0C43.7,82.3,43.8,82.3,43.7,82.5C43.8,82.4,43.7,82.5,43.7,82.5z M34.4,82.4
				C34.4,82.4,34.3,82.4,34.4,82.4c-0.1-0.1-0.1-0.2,0-0.2l0.5,0h0c0.1,0,0.1,0,0.1,0.1c0,0.1,0,0.1-0.1,0.1L34.4,82.4L34.4,82.4z
				 M42.6,82.4L42.6,82.4l-0.5,0c-0.1,0-0.1,0-0.1-0.1c0-0.1,0-0.1,0.1-0.1l0,0l0.5,0C42.6,82.3,42.7,82.3,42.6,82.4
				C42.7,82.4,42.6,82.4,42.6,82.4z M35.5,82.4C35.5,82.4,35.4,82.4,35.5,82.4c-0.1-0.1-0.1-0.2,0-0.2l0.5,0h0c0.1,0,0.1,0,0.1,0.1
				c0,0.1,0,0.1-0.1,0.1L35.5,82.4L35.5,82.4z M41.5,82.4L41.5,82.4l-0.5,0c-0.1,0-0.1,0-0.1-0.1c0-0.1,0-0.1,0.1-0.1h0l0.5,0
				C41.5,82.2,41.6,82.3,41.5,82.4C41.6,82.4,41.5,82.4,41.5,82.4z M36.6,82.4C36.5,82.4,36.5,82.4,36.6,82.4
				c-0.1-0.1-0.1-0.2,0-0.2l0.5,0h0c0.1,0,0.1,0,0.1,0.1s0,0.1-0.1,0.1L36.6,82.4L36.6,82.4z M40.4,82.4L40.4,82.4l-0.5,0
				c-0.1,0-0.1,0-0.1-0.1c0-0.1,0-0.1,0.1-0.1h0l0.5,0C40.5,82.2,40.5,82.3,40.4,82.4C40.5,82.4,40.5,82.4,40.4,82.4z M37.7,82.4
				C37.6,82.4,37.6,82.4,37.7,82.4c-0.1-0.1-0.1-0.2,0-0.2l0.5,0l0,0c0.1,0,0.1,0,0.1,0.1c0,0.1,0,0.1-0.1,0.1L37.7,82.4L37.7,82.4z
				 M39.3,82.4L39.3,82.4l-0.5,0c-0.1,0-0.1,0-0.1-0.1c0-0.1,0-0.1,0.1-0.1l0.5,0C39.4,82.2,39.4,82.3,39.3,82.4
				C39.4,82.4,39.4,82.4,39.3,82.4z M56.1,82C56.1,82,56,82,56.1,82c-0.1-0.1-0.1-0.2,0-0.2l0.5,0h0c0.1,0,0.1,0,0.1,0.1
				c0,0.1,0,0.1-0.1,0.1L56.1,82L56.1,82z M57.2,82C57.2,82,57.1,82,57.2,82c-0.1-0.1-0.1-0.2,0-0.2l0.5,0l0,0c0.1,0,0.1,0,0.1,0.1
				c0,0.1,0,0.1-0.1,0.1L57.2,82L57.2,82z M58.3,82C58.2,82,58.2,82,58.3,82c-0.1-0.1-0.1-0.2,0-0.2l0.5,0l0,0c0.1,0,0.1,0,0.1,0.1
				c0,0.1,0,0.1-0.1,0.1L58.3,82L58.3,82z M59.4,82C59.3,82,59.3,81.9,59.4,82c-0.1-0.1-0.1-0.2,0-0.2l0.5,0h0c0.1,0,0.1,0,0.1,0.1
				c0,0.1,0,0.1-0.1,0.1L59.4,82L59.4,82z M60.5,82C60.4,82,60.4,81.9,60.5,82c-0.1-0.1-0.1-0.2,0-0.2l0.5,0h0c0.1,0,0.1,0,0.1,0.1
				c0,0.1,0,0.1-0.1,0.1L60.5,82L60.5,82z M61.6,82C61.5,82,61.5,81.9,61.6,82c-0.1-0.1-0.1-0.2,0-0.2l0.5,0c0.1,0,0.1,0,0.1,0.1
				c0,0.1,0,0.1-0.1,0.1L61.6,82L61.6,82z M62.6,81.9C62.6,81.9,62.5,81.9,62.6,81.9c-0.1-0.1-0.1-0.2,0-0.2l0.5,0l0,0
				c0.1,0,0.1,0,0.1,0.1c0,0.1,0,0.1-0.1,0.1L62.6,81.9L62.6,81.9z M63.7,81.9C63.7,81.9,63.6,81.9,63.7,81.9
				c-0.1-0.1-0.1-0.2,0-0.2l0.5,0l0,0c0.1,0,0.1,0,0.1,0.1c0,0.1,0,0.1-0.1,0.1L63.7,81.9L63.7,81.9z M64.8,81.9
				C64.8,81.9,64.7,81.9,64.8,81.9c-0.1-0.1-0.1-0.2,0-0.2l0.5,0l0,0c0.1,0,0.1,0,0.1,0.1c0,0.1,0,0.1-0.1,0.1L64.8,81.9L64.8,81.9z
				 M65.9,81.9C65.9,81.9,65.8,81.8,65.9,81.9c-0.1-0.1-0.1-0.2,0-0.2l0.5,0c0.1,0,0.1,0,0.1,0.1s0,0.1-0.1,0.1L65.9,81.9L65.9,81.9
				z M67,81.9C66.9,81.9,66.9,81.8,67,81.9c-0.1-0.1-0.1-0.2,0-0.2l0.5,0h0c0.1,0,0.1,0,0.1,0.1c0,0.1,0,0.1-0.1,0.1L67,81.9
				L67,81.9z M68.1,81.9C68,81.9,68,81.8,68.1,81.9c-0.1-0.1-0.1-0.2,0-0.2l0.4,0l0,0c0.1,0,0.1,0,0.1,0.1c0,0.1,0,0.1-0.1,0.1
				L68.1,81.9L68.1,81.9z"/>
			<path fill="#3B80A3" d="M36.3,82.9l-0.1,0c-0.1,0-0.1,0-0.1-0.1s0-0.1,0.1-0.1l0.5,0l0,0.1l0,0.1L36.3,82.9z M35.6,82.9
				L35.6,82.9l-0.5,0c-0.1,0-0.1,0-0.1-0.1c0-0.1,0-0.1,0.1-0.1h0l0.5,0C35.7,82.7,35.7,82.8,35.6,82.9
				C35.7,82.9,35.7,82.9,35.6,82.9z M37.3,82.9C37.2,82.9,37.2,82.9,37.3,82.9c-0.1-0.1-0.1-0.2,0-0.2l0.5,0h0c0.1,0,0.1,0,0.1,0.1
				c0,0.1,0,0.1-0.1,0.1L37.3,82.9L37.3,82.9z M38.4,82.9C38.3,82.9,38.3,82.9,38.4,82.9c-0.1-0.1-0.1-0.2,0-0.2l0.5,0h0
				c0.1,0,0.1,0,0.1,0.1c0,0.1,0,0.1-0.1,0.1L38.4,82.9L38.4,82.9z M34.6,82.9L34.6,82.9l-0.5,0c-0.1,0-0.1,0-0.1-0.1
				c0-0.1,0.1-0.1,0.1-0.1l0.5,0C34.6,82.7,34.6,82.8,34.6,82.9C34.6,82.9,34.6,82.9,34.6,82.9z M39.4,82.9
				C39.4,82.9,39.3,82.9,39.4,82.9c-0.1-0.1-0.1-0.2,0-0.2l0.5,0l0,0c0.1,0,0.1,0,0.1,0.1c0,0.1,0,0.1-0.1,0.1L39.4,82.9L39.4,82.9z
				 M40.5,82.9C40.5,82.9,40.4,82.9,40.5,82.9c-0.1-0.1-0.1-0.2,0-0.2l0.5,0h0c0.1,0,0.1,0,0.1,0.1c0,0.1,0,0.1-0.1,0.1L40.5,82.9
				L40.5,82.9z M41.6,82.9C41.6,82.9,41.5,82.9,41.6,82.9c-0.1-0.1-0.1-0.2,0-0.2l0.5,0h0c0.1,0,0.1,0,0.1,0.1c0,0.1,0,0.1-0.1,0.1
				L41.6,82.9L41.6,82.9z M33.5,82.9L33.5,82.9l-0.5,0c-0.1,0-0.1,0-0.1-0.1c0-0.1,0-0.1,0.1-0.1l0,0l0.5,0
				C33.5,82.7,33.6,82.8,33.5,82.9C33.6,82.9,33.5,82.9,33.5,82.9z M42.7,82.9C42.6,82.9,42.6,82.9,42.7,82.9
				c-0.1-0.1-0.1-0.2,0-0.2l0.5,0h0c0.1,0,0.1,0,0.1,0.1c0,0.1,0,0.1-0.1,0.1L42.7,82.9L42.7,82.9z M43.8,82.9
				C43.7,82.9,43.7,82.9,43.8,82.9c-0.1-0.1-0.1-0.2,0-0.2l0.5,0h0c0.1,0,0.1,0,0.1,0.1c0,0.1,0,0.1-0.1,0.1L43.8,82.9
				C43.8,82.9,43.8,82.9,43.8,82.9z M32.4,82.9L32.4,82.9l-0.5,0c-0.1,0-0.1,0-0.1-0.1c0-0.1,0-0.1,0.1-0.1l0,0l0.5,0
				C32.4,82.7,32.5,82.7,32.4,82.9C32.5,82.8,32.4,82.9,32.4,82.9z M31.3,82.8L31.3,82.8c-0.2,0-0.4,0-0.5,0c-0.1,0-0.1,0-0.1-0.1
				c0-0.1,0-0.1,0.1-0.1c0.2,0,0.3,0,0.5,0C31.3,82.6,31.4,82.7,31.3,82.8C31.4,82.8,31.3,82.8,31.3,82.8z M55.7,82.7
				C55.7,82.7,55.6,82.7,55.7,82.7c-0.1-0.1-0.1-0.2,0-0.2l0.5,0l0,0c0.1,0,0.1,0,0.1,0.1c0,0.1,0,0.1-0.1,0.1L55.7,82.7L55.7,82.7z
				 M56.8,82.7C56.8,82.7,56.7,82.7,56.8,82.7c-0.1-0.1-0.1-0.2,0-0.2l0.5,0l0,0c0.1,0,0.1,0,0.1,0.1c0,0.1,0,0.1-0.1,0.1L56.8,82.7
				L56.8,82.7z M57.9,82.7C57.9,82.7,57.8,82.7,57.9,82.7c-0.1-0.1-0.1-0.2,0-0.2l0.5,0l0,0c0.1,0,0.1,0,0.1,0.1
				c0,0.1,0,0.1-0.1,0.1L57.9,82.7L57.9,82.7z M59,82.7C58.9,82.7,58.9,82.6,59,82.7c-0.1-0.1-0.1-0.2,0-0.2l0.5,0
				c0,0,0.1,0,0.1,0.1c0,0.1,0,0.1-0.1,0.1L59,82.7L59,82.7z M60.1,82.6C60,82.6,60,82.6,60.1,82.6c-0.1-0.1-0.1-0.2,0-0.2l0.5,0
				l0,0c0.1,0,0.1,0,0.1,0.1c0,0.1,0,0.1-0.1,0.1L60.1,82.6L60.1,82.6z M61.2,82.6C61.1,82.6,61.1,82.6,61.2,82.6
				c-0.1-0.1-0.1-0.2,0-0.2l0.5,0c0.1,0,0.1,0,0.1,0.1c0,0.1,0,0.1-0.1,0.1L61.2,82.6L61.2,82.6z M62.3,82.6
				C62.2,82.6,62.2,82.5,62.3,82.6c-0.1-0.1-0.1-0.2,0-0.2l0.5,0c0.1,0,0.1,0,0.1,0.1c0,0.1,0,0.1-0.1,0.1L62.3,82.6L62.3,82.6z
				 M63.3,82.6C63.3,82.6,63.2,82.5,63.3,82.6c-0.1-0.1-0.1-0.2,0-0.2l0.5,0c0.1,0,0.1,0,0.1,0.1c0,0.1,0,0.1-0.1,0.1L63.3,82.6
				L63.3,82.6z M64.4,82.5C64.4,82.5,64.3,82.5,64.4,82.5c-0.1-0.1-0.1-0.2,0-0.2l0.5,0c0.1,0,0.1,0,0.1,0.1c0,0.1,0,0.1-0.1,0.1
				L64.4,82.5L64.4,82.5z M65.5,82.5C65.5,82.5,65.4,82.4,65.5,82.5c-0.1-0.1-0.1-0.2,0-0.2l0.5,0c0.1,0,0.1,0,0.1,0.1
				c0,0.1,0,0.1-0.1,0.1L65.5,82.5L65.5,82.5z M66.6,82.4C66.5,82.4,66.5,82.4,66.6,82.4c-0.1-0.1-0.1-0.2,0-0.2l0.5,0l0,0
				c0.1,0,0.1,0,0.1,0.1c0,0.1,0,0.1-0.1,0.1L66.6,82.4L66.6,82.4z M67.7,82.4C67.6,82.4,67.6,82.4,67.7,82.4
				c-0.1-0.1-0.1-0.2,0-0.2l0.5,0c0.1,0,0.1,0,0.1,0.1c0,0.1,0,0.1-0.1,0.1L67.7,82.4L67.7,82.4z"/>
			<path fill="#3B80A3" d="M22,90.3l-0.3,0c-0.1,0-0.1,0-0.1-0.1c0-0.1,0-0.1,0.1-0.1h0l0.3,0l0.3,0h0c0.1,0,0.1,0,0.1,0.1
				c0,0.1,0,0.1-0.1,0.1L22,90.3z M22.8,90.2C22.7,90.2,22.7,90.2,22.8,90.2c-0.1-0.1-0.1-0.2,0-0.2l0.5,0h0c0.1,0,0.1,0,0.1,0.1
				c0,0.1,0,0.1-0.1,0.1L22.8,90.2L22.8,90.2z M23.9,90.2C23.8,90.2,23.8,90.2,23.9,90.2c-0.1-0.1-0.1-0.2,0-0.2l0.5,0h0
				c0.1,0,0.1,0,0.1,0.1c0,0.1,0,0.1-0.1,0.1L23.9,90.2L23.9,90.2z M24.9,90.2C24.9,90.2,24.9,90.2,24.9,90.2
				c-0.1-0.1-0.1-0.2,0-0.2l0.5,0c0.1,0,0.1,0,0.1,0.1c0,0.1,0,0.1-0.1,0.1L24.9,90.2L24.9,90.2z M26,90.2
				C26,90.2,25.9,90.2,26,90.2C25.9,90.1,26,90,26,90l0.5,0l0,0c0.1,0,0.1,0,0.1,0.1c0,0.1,0,0.1-0.1,0.1L26,90.2L26,90.2z
				 M27.1,90.2C27.1,90.2,27,90.2,27.1,90.2c-0.1-0.1-0.1-0.2,0-0.2c0.2,0,0.4,0,0.5,0h0c0.1,0,0.1,0,0.1,0.1c0,0.1,0,0.1-0.1,0.1
				C27.5,90.2,27.3,90.2,27.1,90.2L27.1,90.2z"/>
			<path fill="#3B80A3" d="M32.8,93.3l-0.5,0c-0.1,0-0.1,0-0.1-0.1c0-0.1,0-0.1,0.1-0.1l0.5,0C32.9,93.1,32.9,93.1,32.8,93.3
				C32.9,93.2,32.9,93.3,32.8,93.3z M31.7,93.3l-0.5,0c-0.1,0-0.1,0-0.1-0.1s0-0.1,0.1-0.1l0.5,0C31.8,93.1,31.8,93.1,31.7,93.3
				C31.8,93.2,31.8,93.3,31.7,93.3z M30.6,93.3l-0.5,0c-0.1,0-0.1,0-0.1-0.1c0-0.1,0-0.1,0.1-0.1l0.5,0
				C30.7,93.1,30.7,93.1,30.6,93.3C30.7,93.2,30.7,93.3,30.6,93.3z M33.4,93.3C33.3,93.3,33.3,93.2,33.4,93.3
				c-0.1-0.1-0.1-0.2,0-0.2c0.2,0,0.3,0,0.5,0h0c0.1,0,0.1,0,0.1,0.1c0,0.1,0,0.1-0.1,0.1C33.7,93.3,33.5,93.3,33.4,93.3L33.4,93.3z
				 M34.5,93.3C34.4,93.3,34.4,93.2,34.5,93.3c-0.1-0.1-0.1-0.2,0-0.2l0.5,0c0.1,0,0.1,0,0.1,0.1c0,0.1,0,0.1-0.1,0.1L34.5,93.3
				L34.5,93.3z M35.6,93.3C35.5,93.3,35.5,93.2,35.6,93.3c-0.1-0.1-0.1-0.2,0-0.2l0.5,0h0c0.1,0,0.1,0,0.1,0.1c0,0.1,0,0.1-0.1,0.1
				L35.6,93.3L35.6,93.3z M36.7,93.3C36.6,93.3,36.6,93.2,36.7,93.3c-0.1-0.1-0.1-0.2,0-0.2l0.5,0h0c0.1,0,0.1,0,0.1,0.1
				c0,0.1,0,0.1-0.1,0.1L36.7,93.3L36.7,93.3z M40.5,93.3L40.5,93.3c-0.2,0-0.4,0-0.5,0c-0.1,0-0.1,0-0.1-0.1c0-0.1,0-0.1,0.1-0.1h0
				c0.2,0,0.3,0,0.5,0C40.5,93.1,40.6,93.1,40.5,93.3C40.6,93.2,40.5,93.3,40.5,93.3z M41,93.3C41,93.3,40.9,93.2,41,93.3
				c-0.1-0.1-0.1-0.2,0-0.2c0.1,0,0.3,0,0.5,0l0,0c0.1,0,0.1,0,0.1,0.1c0,0.1,0,0.1-0.1,0.1C41.4,93.3,41.2,93.3,41,93.3L41,93.3z
				 M37.8,93.3C37.7,93.3,37.7,93.2,37.8,93.3c-0.1-0.1-0.1-0.2,0-0.2l0.5,0l0,0c0.1,0,0.1,0,0.1,0.1c0,0.1,0,0.1-0.1,0.1L37.8,93.3
				L37.8,93.3z M39.4,93.3L39.4,93.3c-0.1,0-0.3,0-0.5,0c-0.1,0-0.1,0-0.1-0.1s0-0.1,0.1-0.1l0,0c0.2,0,0.4,0,0.5,0
				C39.5,93.1,39.5,93.1,39.4,93.3C39.5,93.2,39.5,93.3,39.4,93.3z M42.1,93.3C42.1,93.3,42,93.2,42.1,93.3c-0.1-0.1-0.1-0.2,0-0.2
				l0.5,0l0,0c0.1,0,0.1,0,0.1,0.1c0,0.1,0,0.1-0.1,0.1L42.1,93.3L42.1,93.3z M43.2,93.2C43.2,93.2,43.1,93.2,43.2,93.2
				c-0.1-0.1-0.1-0.2,0-0.2l0.5,0c0.1,0,0.1,0,0.1,0.1c0,0.1,0,0.1-0.1,0.1L43.2,93.2L43.2,93.2z M44.3,93.2
				C44.3,93.2,44.2,93.2,44.3,93.2c-0.1-0.1-0.1-0.2,0-0.2l0.5,0c0.1,0,0.1,0,0.1,0.1c0,0.1,0,0.1-0.1,0.1L44.3,93.2L44.3,93.2z
				 M45.4,93.2C45.4,93.2,45.3,93.1,45.4,93.2c-0.1-0.1-0.1-0.2,0-0.2c0.2,0,0.3,0,0.5,0h0c0.1,0,0.1,0,0.1,0.1c0,0.1,0,0.1-0.1,0.1
				C45.8,93.2,45.7,93.2,45.4,93.2L45.4,93.2z M48.2,93.2L48.2,93.2c-0.2,0-0.4,0-0.5,0c-0.1,0-0.1,0-0.1-0.1s0-0.1,0.1-0.1l0,0
				c0.2,0,0.4,0,0.5,0C48.2,93,48.3,93,48.2,93.2C48.3,93.1,48.2,93.2,48.2,93.2z M46.5,93.2C46.5,93.2,46.4,93.1,46.5,93.2
				c-0.1-0.1-0.1-0.2,0-0.2c0.2,0,0.4,0,0.6,0l0,0c0.1,0,0.1,0,0.1,0.1c0,0.1,0,0.1-0.1,0.1C46.9,93.2,46.7,93.2,46.5,93.2
				L46.5,93.2z"/>
			<path fill="#3B80A3" d="M53.9,93.2l-0.5,0c-0.1,0-0.1,0-0.1-0.1s0-0.1,0.1-0.1l0.5,0C54,93,54,93,53.9,93.2
				C54,93.1,54,93.2,53.9,93.2z M52.9,93.2l-0.5,0c-0.1,0-0.1,0-0.1-0.1c0-0.1,0-0.1,0.1-0.1l0.5,0C52.9,93,52.9,93,52.9,93.2
				C52.9,93.1,52.9,93.2,52.9,93.2z M51.8,93.2l-0.5,0c-0.1,0-0.1,0-0.1-0.1c0-0.1,0-0.1,0.1-0.1l0.5,0C51.8,93,51.9,93,51.8,93.2
				C51.9,93.1,51.8,93.2,51.8,93.2z M54.5,93.2C54.4,93.2,54.4,93.1,54.5,93.2c-0.1-0.1-0.1-0.2,0-0.2c0.2,0,0.3,0,0.5,0l0,0
				c0.1,0,0.1,0,0.1,0.1c0,0.1,0,0.1-0.1,0.1C54.8,93.2,54.6,93.2,54.5,93.2L54.5,93.2z M55.5,93.2C55.5,93.2,55.4,93.1,55.5,93.2
				c-0.1-0.1-0.1-0.2,0-0.2l0.5,0h0c0.1,0,0.1,0,0.1,0.1c0,0.1,0,0.1-0.1,0.1L55.5,93.2L55.5,93.2z M56.6,93.2
				C56.5,93.2,56.5,93.1,56.6,93.2c-0.1-0.1-0.1-0.2,0-0.2l0.5,0c0.1,0,0.1,0,0.1,0.1c0,0.1,0,0.1-0.1,0.1L56.6,93.2L56.6,93.2z
				 M57.7,93.2C57.6,93.2,57.6,93.1,57.7,93.2c-0.1-0.1-0.1-0.2,0-0.2l0.5,0h0c0.1,0,0.1,0,0.1,0.1c0,0.1,0,0.1-0.1,0.1L57.7,93.2
				L57.7,93.2z M61.4,93.2L61.4,93.2c-0.2,0-0.4,0-0.5,0c-0.1,0-0.1,0-0.1-0.1c0-0.1,0-0.1,0.1-0.1l0,0c0.2,0,0.3,0,0.5,0
				C61.5,93,61.5,93,61.4,93.2C61.5,93.1,61.5,93.2,61.4,93.2z M61.9,93.2C61.9,93.2,61.9,93.1,61.9,93.2c-0.1-0.1-0.1-0.2,0-0.2
				c0.1,0,0.3,0,0.5,0c0,0,0.1,0,0.1,0.1c0,0.1,0,0.1-0.1,0.1C62.3,93.2,62.1,93.2,61.9,93.2L61.9,93.2z M58.7,93.2
				C58.7,93.2,58.6,93.1,58.7,93.2c-0.1-0.1-0.1-0.2,0-0.2l0.5,0l0,0c0.1,0,0.1,0,0.1,0.1s0,0.1-0.1,0.1L58.7,93.2L58.7,93.2z
				 M60.3,93.2L60.3,93.2c-0.1,0-0.3,0-0.5,0c-0.1,0-0.1,0-0.1-0.1s0-0.1,0.1-0.1l0,0c0.2,0,0.4,0,0.5,0C60.4,93,60.4,93,60.3,93.2
				C60.4,93.1,60.4,93.2,60.3,93.2z M63,93.1C63,93.1,62.9,93.1,63,93.1C62.9,93,63,93,63,93l0.5,0h0c0.1,0,0.1,0,0.1,0.1
				c0,0.1,0,0.1-0.1,0.1L63,93.1L63,93.1z M64.1,93.1C64,93.1,64,93.1,64.1,93.1c-0.1-0.1-0.1-0.2,0-0.2l0.5,0c0,0,0.1,0,0.1,0.1
				c0,0.1,0,0.1-0.1,0.1L64.1,93.1L64.1,93.1z M65.2,93.1C65.1,93.1,65.1,93.1,65.2,93.1c-0.1-0.1-0.1-0.2,0-0.2l0.5,0
				c0,0,0.1,0,0.1,0.1c0,0.1,0,0.1-0.1,0.1L65.2,93.1L65.2,93.1z M66.2,93.1C66.2,93.1,66.1,93,66.2,93.1c-0.1-0.1-0.1-0.2,0-0.2
				c0.2,0,0.3,0,0.5,0h0c0.1,0,0.1,0,0.1,0.1c0,0.1,0,0.1-0.1,0.1C66.6,93.1,66.5,93.1,66.2,93.1L66.2,93.1z M68.9,93.1L68.9,93.1
				c-0.2,0-0.3,0-0.5,0c-0.1,0-0.1,0-0.1-0.1c0-0.1,0-0.1,0.1-0.1l0,0c0.2,0,0.4,0,0.5,0C69,92.9,69,92.9,68.9,93.1
				C69,93,69,93.1,68.9,93.1z M67.3,93.1C67.2,93.1,67.2,93,67.3,93.1c-0.1-0.1-0.1-0.2,0-0.2c0.2,0,0.4,0,0.5,0l0,0
				c0.1,0,0.1,0,0.1,0.1c0,0.1,0,0.1-0.1,0.1C67.7,93.1,67.5,93.1,67.3,93.1L67.3,93.1z"/>
			<path fill="#3B80A3" d="M32.8,91.6l-0.5,0c-0.1,0-0.1,0-0.1-0.1c0-0.1,0-0.1,0.1-0.1l0.5,0C32.9,91.5,32.9,91.5,32.8,91.6
				C32.9,91.6,32.9,91.6,32.8,91.6z M31.7,91.6l-0.5,0c-0.1,0-0.1,0-0.1-0.1s0-0.1,0.1-0.1l0.5,0C31.8,91.4,31.8,91.5,31.7,91.6
				C31.8,91.6,31.8,91.6,31.7,91.6z M30.6,91.6l-0.5,0c-0.1,0-0.1,0-0.1-0.1c0-0.1,0-0.1,0.1-0.1l0.5,0
				C30.7,91.4,30.7,91.5,30.6,91.6C30.7,91.6,30.7,91.6,30.6,91.6z M33.4,91.6C33.3,91.6,33.3,91.6,33.4,91.6
				c-0.1-0.1-0.1-0.2,0-0.2c0.2,0,0.3,0,0.5,0l0,0c0.1,0,0.1,0,0.1,0.1c0,0.1,0,0.1-0.1,0.1C33.7,91.6,33.5,91.6,33.4,91.6
				L33.4,91.6z M34.5,91.6C34.4,91.6,34.4,91.6,34.5,91.6c-0.1-0.1-0.1-0.2,0-0.2l0.5,0h0c0.1,0,0.1,0,0.1,0.1c0,0.1,0,0.1-0.1,0.1
				L34.5,91.6L34.5,91.6z M35.6,91.6C35.5,91.6,35.5,91.6,35.6,91.6c-0.1-0.1-0.1-0.2,0-0.2l0.5,0c0.1,0,0.1,0,0.1,0.1
				c0,0.1,0,0.1-0.1,0.1L35.6,91.6L35.6,91.6z M36.7,91.6C36.6,91.6,36.6,91.6,36.7,91.6c-0.1-0.1-0.1-0.2,0-0.2l0.5,0h0
				c0.1,0,0.1,0,0.1,0.1c0,0.1,0,0.1-0.1,0.1L36.7,91.6L36.7,91.6z M40.5,91.6c-0.2,0-0.4,0-0.5,0c-0.1,0-0.1,0-0.1-0.1
				c0-0.1,0-0.1,0.1-0.1h0c0.2,0,0.3,0,0.5,0C40.6,91.4,40.6,91.5,40.5,91.6C40.6,91.6,40.6,91.6,40.5,91.6z M41,91.6
				C41,91.6,41,91.6,41,91.6c-0.1-0.1-0.1-0.2,0-0.2c0.1,0,0.3,0,0.5,0l0,0c0.1,0,0.1,0,0.1,0.1c0,0.1,0,0.1-0.1,0.1
				C41.4,91.6,41.2,91.6,41,91.6C41,91.6,41,91.6,41,91.6z M37.8,91.6C37.7,91.6,37.7,91.6,37.8,91.6c-0.1-0.1-0.1-0.2,0-0.2l0.5,0
				l0,0c0.1,0,0.1,0,0.1,0.1s0,0.1-0.1,0.1L37.8,91.6L37.8,91.6z M39.4,91.6L39.4,91.6c-0.1,0-0.3,0-0.5,0c-0.1,0-0.1,0-0.1-0.1
				c0-0.1,0-0.1,0.1-0.1l0,0c0.2,0,0.4,0,0.5,0C39.5,91.4,39.5,91.5,39.4,91.6C39.5,91.6,39.5,91.6,39.4,91.6z M42.1,91.6
				C42.1,91.6,42,91.6,42.1,91.6c-0.1-0.1-0.1-0.2,0-0.2l0.5,0l0,0c0.1,0,0.1,0,0.1,0.1c0,0.1,0,0.1-0.1,0.1L42.1,91.6L42.1,91.6z
				 M43.2,91.6C43.2,91.6,43.1,91.5,43.2,91.6c-0.1-0.1-0.1-0.2,0-0.2l0.5,0c0.1,0,0.1,0,0.1,0.1c0,0.1,0,0.1-0.1,0.1L43.2,91.6
				L43.2,91.6z M44.3,91.6C44.3,91.6,44.2,91.5,44.3,91.6c-0.1-0.1-0.1-0.2,0-0.2l0.5,0c0.1,0,0.1,0,0.1,0.1c0,0.1,0,0.1-0.1,0.1
				L44.3,91.6L44.3,91.6z M45.4,91.5C45.4,91.5,45.3,91.5,45.4,91.5c-0.1-0.1-0.1-0.2,0-0.2c0.2,0,0.3,0,0.5,0h0
				c0.1,0,0.1,0,0.1,0.1c0,0.1,0,0.1-0.1,0.1C45.8,91.5,45.7,91.5,45.4,91.5L45.4,91.5z M48.2,91.5L48.2,91.5c-0.2,0-0.4,0-0.5,0
				c-0.1,0-0.1,0-0.1-0.1c0-0.1,0-0.1,0.1-0.1l0,0c0.2,0,0.4,0,0.5,0C48.2,91.3,48.3,91.4,48.2,91.5C48.3,91.5,48.2,91.5,48.2,91.5z
				 M46.5,91.5C46.5,91.5,46.4,91.5,46.5,91.5c-0.1-0.1-0.1-0.2,0-0.2c0.2,0,0.4,0,0.6,0l0,0c0.1,0,0.1,0,0.1,0.1
				c0,0.1,0,0.1-0.1,0.1C46.9,91.5,46.7,91.5,46.5,91.5L46.5,91.5z"/>
			<path fill="#3B80A3" d="M53.9,91.5l-0.5,0c-0.1,0-0.1,0-0.1-0.1c0-0.1,0-0.1,0.1-0.1l0.5,0C53.9,91.3,54,91.3,53.9,91.5
				C54,91.4,53.9,91.5,53.9,91.5z M52.8,91.5l-0.5,0c-0.1,0-0.1,0-0.1-0.1c0-0.1,0-0.1,0.1-0.1l0.5,0C52.9,91.3,52.9,91.3,52.8,91.5
				C52.9,91.4,52.9,91.5,52.8,91.5z M51.8,91.5l-0.5,0c-0.1,0-0.1,0-0.1-0.1c0-0.1,0-0.1,0.1-0.1l0.5,0
				C51.8,91.3,51.8,91.3,51.8,91.5C51.8,91.4,51.8,91.5,51.8,91.5z M54.4,91.5C54.4,91.5,54.3,91.4,54.4,91.5
				c-0.1-0.1-0.1-0.2,0-0.2c0.2,0,0.3,0,0.5,0l0,0c0.1,0,0.1,0,0.1,0.1c0,0.1,0,0.1-0.1,0.1C54.8,91.5,54.6,91.5,54.4,91.5
				L54.4,91.5z M55.5,91.5C55.4,91.5,55.4,91.4,55.5,91.5c-0.1-0.1-0.1-0.2,0-0.2l0.5,0h0c0.1,0,0.1,0,0.1,0.1c0,0.1,0,0.1-0.1,0.1
				L55.5,91.5L55.5,91.5z M56.6,91.5C56.5,91.5,56.5,91.4,56.6,91.5c-0.1-0.1-0.1-0.2,0-0.2l0.5,0c0,0,0,0,0,0c0.1,0,0.1,0,0.1,0.1
				c0,0.1,0,0.1-0.1,0.1L56.6,91.5L56.6,91.5z M57.6,91.5C57.6,91.5,57.6,91.4,57.6,91.5c-0.1-0.1-0.1-0.2,0-0.2l0.5,0h0
				c0.1,0,0.1,0,0.1,0.1c0,0.1,0,0.1-0.1,0.1L57.6,91.5L57.6,91.5z M61.4,91.5L61.4,91.5c-0.2,0-0.4,0-0.5,0c-0.1,0-0.1,0-0.1-0.1
				c0-0.1,0-0.1,0.1-0.1c0.1,0,0.3,0,0.5,0C61.4,91.3,61.5,91.3,61.4,91.5C61.5,91.4,61.4,91.5,61.4,91.5z M61.9,91.5
				C61.9,91.5,61.8,91.4,61.9,91.5c-0.1-0.1-0.1-0.2,0-0.2c0.1,0,0.3,0,0.5,0l0,0c0.1,0,0.1,0,0.1,0.1c0,0.1,0,0.1-0.1,0.1
				C62.2,91.5,62.1,91.5,61.9,91.5L61.9,91.5z M58.7,91.5C58.7,91.5,58.6,91.4,58.7,91.5c-0.1-0.1-0.1-0.2,0-0.2l0.5,0l0,0
				c0.1,0,0.1,0,0.1,0.1c0,0.1,0,0.1-0.1,0.1L58.7,91.5L58.7,91.5z M60.3,91.5L60.3,91.5c-0.1,0-0.3,0-0.5,0c-0.1,0-0.1,0-0.1-0.1
				c0-0.1,0-0.1,0.1-0.1l0,0c0.2,0,0.4,0,0.5,0C60.4,91.3,60.4,91.3,60.3,91.5C60.4,91.4,60.4,91.5,60.3,91.5z M63,91.5
				C62.9,91.5,62.9,91.4,63,91.5c-0.1-0.1-0.1-0.2,0-0.2l0.5,0l0,0c0.1,0,0.1,0,0.1,0.1c0,0.1,0,0.1-0.1,0.1L63,91.5L63,91.5z
				 M64.1,91.4C64,91.4,64,91.4,64.1,91.4c-0.1-0.1-0.1-0.2,0-0.2l0.5,0l0,0c0.1,0,0.1,0,0.1,0.1c0,0.1,0,0.1-0.1,0.1L64.1,91.4
				L64.1,91.4z M65.1,91.4C65.1,91.4,65,91.4,65.1,91.4c-0.1-0.1-0.1-0.2,0-0.2l0.5,0h0c0.1,0,0.1,0,0.1,0.1c0,0.1,0,0.1-0.1,0.1
				L65.1,91.4L65.1,91.4z M66.2,91.4C66.2,91.4,66.1,91.3,66.2,91.4c-0.1-0.1-0.1-0.2,0-0.2c0.2,0,0.3,0,0.5,0h0
				c0.1,0,0.1,0,0.1,0.1c0,0.1,0,0.1-0.1,0.1C66.5,91.4,66.4,91.4,66.2,91.4L66.2,91.4z M68.9,91.4L68.9,91.4c-0.2,0-0.3,0-0.5,0
				c-0.1,0-0.1,0-0.1-0.1c0-0.1,0-0.1,0.1-0.1l0,0c0.2,0,0.4,0,0.5,0C68.9,91.2,69,91.2,68.9,91.4C69,91.3,68.9,91.4,68.9,91.4z
				 M67.3,91.4C67.2,91.4,67.2,91.3,67.3,91.4c-0.1-0.1-0.1-0.2,0-0.2c0.2,0,0.4,0,0.5,0l0,0c0.1,0,0.1,0,0.1,0.1
				c0,0.1,0,0.1-0.1,0.1C67.6,91.4,67.5,91.4,67.3,91.4C67.3,91.4,67.3,91.4,67.3,91.4z"/>
			<path fill="#3B80A3" d="M48.9,93.3C48.9,93.3,48.9,93.3,48.9,93.3c-0.1-0.2-0.1-0.3-0.1-0.5c0-0.1,0-0.1,0.1-0.1
				c0,0,0.1,0,0.1,0.1C49,93,49,93.1,48.9,93.3C49,93.3,49,93.3,48.9,93.3C48.9,93.3,48.9,93.3,48.9,93.3z M48.9,92.4
				C48.9,92.4,48.8,92.3,48.9,92.4c-0.1-0.3-0.1-0.4-0.1-0.6c0-0.1,0-0.1,0.1-0.1c0.1,0,0.1,0,0.1,0.1C49,91.9,49,92.1,48.9,92.4
				C49,92.3,49,92.4,48.9,92.4L48.9,92.4z M48.9,91.3C48.8,91.3,48.8,91.2,48.9,91.3c-0.1-0.2-0.1-0.4-0.1-0.6c0-0.1,0-0.1,0.1-0.1
				c0.1,0,0.1,0,0.1,0.1C49,90.9,49,91.1,48.9,91.3C49,91.2,48.9,91.3,48.9,91.3L48.9,91.3z M48.9,90.2L48.9,90.2
				C48.8,90.2,48.8,90.2,48.9,90.2l-0.1-0.6c0-0.1,0-0.1,0.1-0.1h0c0.1,0,0.1,0,0.1,0.1L48.9,90.2C49,90.2,48.9,90.2,48.9,90.2z
				 M48.9,89.1L48.9,89.1C48.8,89.1,48.8,89.1,48.9,89.1l-0.1-0.6c0-0.1,0-0.1,0.1-0.1h0c0.1,0,0.1,0,0.1,0.1L48.9,89.1
				C49,89.1,48.9,89.1,48.9,89.1z M48.9,88L48.9,88C48.9,88,48.8,88,48.9,88l-0.1-0.6c0-0.1,0-0.1,0.1-0.1h0c0.1,0,0.1,0,0.1,0.1
				L48.9,88C49,88,49,88,48.9,88z M48.9,86.9L48.9,86.9C48.9,86.9,48.8,86.9,48.9,86.9l-0.1-0.6c0-0.1,0-0.1,0.1-0.1
				c0.1,0,0.1,0,0.1,0.1L48.9,86.9C49,86.9,49,86.9,48.9,86.9z M48.9,85.8L48.9,85.8C48.9,85.8,48.9,85.8,48.9,85.8l-0.1-0.6
				c0-0.1,0-0.1,0.1-0.1l0,0c0.1,0,0.1,0,0.1,0.1L48.9,85.8C49,85.8,49,85.8,48.9,85.8z M49,84.7L49,84.7
				C48.9,84.7,48.9,84.7,49,84.7l-0.1-0.6c0-0.1,0-0.1,0.1-0.1l0,0c0.1,0,0.1,0,0.1,0.1l0,0L49,84.7C49.1,84.7,49,84.7,49,84.7z
				 M49,83.7L49,83.7C48.9,83.7,48.9,83.6,49,83.7L48.9,83c0-0.1,0-0.1,0.1-0.1h0c0.1,0,0.1,0,0.1,0.1L49,83.7
				C49.1,83.6,49,83.7,49,83.7z M49,82.6L49,82.6C48.9,82.6,48.9,82.5,49,82.6l-0.1-0.6c0-0.1,0-0.1,0.1-0.1c0.1,0,0.1,0,0.1,0.1
				L49,82.6C49.1,82.5,49.1,82.6,49,82.6z"/>
			<path fill="#3B80A3" d="M51.3,92.6C51.2,92.6,51.2,92.6,51.3,92.6c-0.1-0.3-0.1-0.4-0.1-0.6c0-0.1,0-0.1,0.1-0.1l0,0
				c0.1,0,0.1,0,0.1,0.1C51.3,92.2,51.4,92.4,51.3,92.6C51.4,92.6,51.3,92.6,51.3,92.6C51.3,92.6,51.3,92.6,51.3,92.6z M51.2,91.5
				C51.2,91.5,51.1,91.5,51.2,91.5c-0.1-0.2-0.1-0.4-0.1-0.6c0-0.1,0-0.1,0.1-0.1c0.1,0,0.1,0,0.1,0.1
				C51.3,91.1,51.3,91.3,51.2,91.5C51.3,91.5,51.3,91.5,51.2,91.5L51.2,91.5z M51.2,90.5L51.2,90.5C51.2,90.5,51.2,90.4,51.2,90.5
				l-0.1-0.6c0-0.1,0-0.1,0.1-0.1l0,0c0.1,0,0.1,0,0.1,0.1L51.2,90.5C51.3,90.4,51.3,90.5,51.2,90.5z M51.3,89.4L51.3,89.4
				C51.2,89.4,51.2,89.3,51.3,89.4c-0.1-0.3-0.1-0.4-0.1-0.6c0-0.1,0-0.1,0.1-0.1c0,0,0.1,0,0.1,0.1C51.4,88.9,51.4,89.1,51.3,89.4
				C51.3,89.3,51.3,89.4,51.3,89.4z M51.3,88.3L51.3,88.3C51.2,88.3,51.2,88.2,51.3,88.3l-0.1-0.6c0-0.1,0-0.1,0.1-0.1l0,0
				c0.1,0,0.1,0,0.1,0.1L51.3,88.3C51.4,88.2,51.3,88.3,51.3,88.3z M51.3,87.2L51.3,87.2C51.2,87.2,51.2,87.1,51.3,87.2l-0.1-0.6
				c0-0.1,0-0.1,0.1-0.1c0.1,0,0.1,0,0.1,0.1L51.3,87.2C51.4,87.1,51.3,87.2,51.3,87.2z M51.3,86.1L51.3,86.1
				C51.2,86.1,51.2,86,51.3,86.1l-0.1-0.6c0-0.1,0-0.1,0.1-0.1l0,0c0.1,0,0.1,0,0.1,0.1L51.3,86.1C51.4,86,51.4,86.1,51.3,86.1z
				 M51.3,85L51.3,85C51.3,85,51.2,85,51.3,85l-0.1-0.6c0-0.1,0-0.1,0.1-0.1h0c0.1,0,0.1,0,0.1,0.1l0,0L51.3,85
				C51.4,85,51.4,85,51.3,85z M51.3,83.9L51.3,83.9C51.3,83.9,51.2,83.9,51.3,83.9l-0.1-0.6c0-0.1,0-0.1,0.1-0.1
				c0.1,0,0.1,0,0.1,0.1L51.3,83.9C51.4,83.9,51.4,83.9,51.3,83.9z"/>
			<path fill="#3B80A3" d="M46.3,84.7l-0.3-0.5c0,0,0-0.1,0-0.1c0,0,0.1,0,0.1,0l0.2,0.3c0,0,0.1,0,0.1,0c0,0,0.1,0.1,0,0.1
				L46.3,84.7z M46.7,84.1C46.7,84.1,46.6,84.1,46.7,84.1c-0.1-0.1-0.1-0.1-0.1-0.2l0.3-0.4c0,0,0.1,0,0.1,0c0,0,0.1,0.1,0,0.1
				L46.7,84.1C46.7,84.1,46.7,84.1,46.7,84.1z M45.7,83.8C45.7,83.8,45.6,83.8,45.7,83.8l-0.4-0.5c0,0,0-0.1,0-0.1c0,0,0.1,0,0.1,0
				l0.3,0.4C45.8,83.7,45.8,83.8,45.7,83.8C45.7,83.8,45.7,83.8,45.7,83.8z M47.3,83.3C47.3,83.2,47.3,83.2,47.3,83.3
				c-0.1-0.1-0.1-0.1-0.1-0.2l0.3-0.4c0,0,0.1,0,0.1,0c0,0,0.1,0.1,0,0.1L47.3,83.3C47.4,83.2,47.4,83.3,47.3,83.3z M45.1,83
				C45,83,45,82.9,45.1,83l-0.4-0.5c0,0,0-0.1,0-0.1c0,0,0.1,0,0.1,0l0.3,0.4C45.2,82.9,45.2,82.9,45.1,83C45.1,83,45.1,83,45.1,83z
				 M48,82.4C48,82.4,47.9,82.4,48,82.4c-0.1-0.1-0.1-0.1-0.1-0.2l0.3-0.4c0,0,0.1,0,0.1,0c0,0,0.1,0.1,0,0.1L48,82.4
				C48,82.4,48,82.4,48,82.4z M44.4,82.1C44.4,82.1,44.4,82.1,44.4,82.1c-0.2-0.2-0.3-0.3-0.4-0.5c0,0,0-0.1,0-0.1c0,0,0.1,0,0.1,0
				c0.1,0.1,0.2,0.3,0.3,0.4C44.5,82,44.5,82,44.4,82.1C44.5,82.1,44.5,82.1,44.4,82.1z M48.6,81.5C48.6,81.5,48.6,81.5,48.6,81.5
				c-0.1-0.1-0.1-0.1-0.1-0.2l0.3-0.4c0,0,0.1,0,0.1,0c0,0,0.1,0.1,0,0.1L48.6,81.5C48.7,81.5,48.7,81.5,48.6,81.5z M43.8,81.2
				C43.8,81.2,43.7,81.2,43.8,81.2l-0.4-0.5c0,0,0-0.1,0-0.1c0,0,0.1,0,0.1,0l0.3,0.4C43.9,81.1,43.9,81.1,43.8,81.2
				C43.8,81.2,43.8,81.2,43.8,81.2z M49.3,80.6C49.3,80.6,49.3,80.6,49.3,80.6c-0.1-0.1-0.1-0.1-0.1-0.2l0.1-0.1c0,0,0.1,0,0.1,0
				c0,0,0,0.1,0,0.1L49.3,80.6C49.4,80.6,49.3,80.6,49.3,80.6z M43.2,80.3C43.1,80.3,43.1,80.3,43.2,80.3l-0.4-0.5l0.1-0.1l0.1-0.1
				l-0.1,0.1l0.1,0l0.3,0.4C43.3,80.2,43.3,80.3,43.2,80.3C43.2,80.3,43.2,80.3,43.2,80.3z M42.5,79.4
				C42.5,79.4,42.5,79.4,42.5,79.4l-0.4-0.5c0,0,0-0.1,0-0.1c0,0,0.1,0,0.1,0l0.3,0.4C42.6,79.3,42.6,79.4,42.5,79.4
				C42.6,79.4,42.6,79.4,42.5,79.4z M41.9,78.5C41.9,78.5,41.9,78.5,41.9,78.5L41.5,78c0,0,0-0.1,0-0.1c0,0,0.1,0,0.1,0l0.3,0.4
				C42,78.4,42,78.5,41.9,78.5C42,78.5,41.9,78.5,41.9,78.5z M41.3,77.6C41.3,77.6,41.2,77.6,41.3,77.6l-0.4-0.5c0,0,0-0.1,0-0.1
				c0,0,0.1,0,0.1,0l0.3,0.4C41.4,77.5,41.4,77.6,41.3,77.6C41.3,77.6,41.3,77.6,41.3,77.6z M40.7,76.7
				C40.6,76.7,40.6,76.7,40.7,76.7l-0.4-0.5c0,0,0-0.1,0-0.1c0,0,0.1,0,0.1,0l0.3,0.4C40.8,76.6,40.8,76.7,40.7,76.7
				C40.7,76.7,40.7,76.7,40.7,76.7z M40.2,75.8C40.2,75.8,40.2,75.8,40.2,75.8c-0.1,0-0.1-0.1-0.1-0.1c0.1-0.2,0.1-0.3,0.2-0.5
				c0,0,0.1-0.1,0.1-0.1c0,0,0.1,0.1,0.1,0.1C40.5,75.4,40.4,75.6,40.2,75.8C40.3,75.8,40.3,75.8,40.2,75.8z M40.6,74.8
				C40.6,74.8,40.6,74.8,40.6,74.8c-0.1,0-0.1-0.1-0.1-0.1c0.1-0.2,0.1-0.3,0.2-0.5c0,0,0.1-0.1,0.1-0.1c0,0,0.1,0.1,0.1,0.1
				C40.8,74.4,40.8,74.5,40.6,74.8C40.7,74.8,40.7,74.8,40.6,74.8z M41,73.7C40.9,73.7,40.9,73.7,41,73.7c-0.1,0-0.1-0.1-0.1-0.1
				c0.1-0.2,0.1-0.3,0.2-0.5c0-0.1,0.1-0.1,0.1-0.1c0.1,0,0.1,0.1,0.1,0.1C41.2,73.3,41.1,73.5,41,73.7C41,73.7,41,73.7,41,73.7z
				 M41.3,72.7C41.3,72.7,41.2,72.7,41.3,72.7c-0.1,0-0.1-0.1-0.1-0.1c0-0.2,0.1-0.4,0.1-0.5c0-0.1,0.1-0.1,0.1-0.1
				c0.1,0,0.1,0.1,0.1,0.1C41.4,72.3,41.4,72.4,41.3,72.7C41.3,72.7,41.3,72.7,41.3,72.7z"/>
			<g>
				<path fill="#3B80A3" d="M50.2,80.8C50.2,80.8,50.2,80.8,50.2,80.8L50,80.6c0,0,0-0.1,0-0.1c0,0,0.1,0,0.1,0l0.2,0.2
					C50.3,80.7,50.3,80.7,50.2,80.8C50.2,80.8,50.2,80.8,50.2,80.8z"/>
				<path fill="#3B80A3" d="M52.8,84C52.8,84,52.7,84,52.8,84c-0.2-0.2-0.3-0.3-0.4-0.4c0,0,0-0.1,0-0.1c0,0,0.1,0,0.1,0
					c0.1,0.1,0.2,0.3,0.3,0.4C52.9,83.9,52.9,83.9,52.8,84C52.8,84,52.8,84,52.8,84z M52.2,83.1C52.2,83.1,52.1,83.1,52.2,83.1
					c-0.2-0.2-0.3-0.3-0.4-0.4c0,0,0-0.1,0-0.1c0,0,0.1,0,0.1,0c0.1,0.1,0.2,0.3,0.3,0.4C52.3,83,52.3,83.1,52.2,83.1
					C52.2,83.1,52.2,83.1,52.2,83.1z M51.5,82.3C51.5,82.3,51.5,82.3,51.5,82.3c-0.2-0.2-0.3-0.3-0.4-0.4c0,0,0-0.1,0-0.1
					c0,0,0.1,0,0.1,0c0.1,0.1,0.2,0.3,0.3,0.4C51.7,82.2,51.6,82.3,51.5,82.3C51.6,82.3,51.6,82.3,51.5,82.3z M50.9,81.6
					C50.9,81.6,50.8,81.6,50.9,81.6c-0.2-0.2-0.3-0.3-0.4-0.4c0,0,0-0.1,0-0.1c0,0,0.1,0,0.1,0c0.1,0.1,0.2,0.3,0.3,0.4
					C51,81.4,51,81.5,50.9,81.6C50.9,81.6,50.9,81.6,50.9,81.6z"/>
				<path fill="#3B80A3" d="M53.2,84.7L53,84.3c0,0,0-0.1,0-0.1c0,0,0.1,0,0.1,0l0.1,0.1l0.1-0.1c0,0,0.1-0.1,0.1,0
					c0,0,0.1,0.1,0,0.1L53.2,84.7z"/>
				<path fill="#3B80A3" d="M53.7,84C53.7,84,53.7,84,53.7,84c-0.1,0-0.1-0.1-0.1-0.1c0.1-0.1,0.2-0.3,0.3-0.4c0,0,0.1-0.1,0.1,0
					c0,0,0.1,0.1,0,0.1C54,83.6,53.9,83.8,53.7,84C53.8,83.9,53.7,84,53.7,84z M54.3,83.1C54.3,83.1,54.3,83.1,54.3,83.1
					c-0.1,0-0.1-0.1-0.1-0.1c0.1-0.1,0.2-0.3,0.3-0.4c0,0,0.1-0.1,0.1,0c0,0,0.1,0.1,0,0.1C54.6,82.8,54.5,82.9,54.3,83.1
					C54.4,83.1,54.3,83.1,54.3,83.1z M54.9,82.2C54.9,82.2,54.9,82.2,54.9,82.2c-0.1,0-0.1-0.1-0.1-0.1l0,0c0.1-0.1,0.2-0.3,0.3-0.4
					c0,0,0.1-0.1,0.1,0c0,0,0.1,0.1,0,0.1c-0.1,0.1-0.2,0.3-0.3,0.4L54.9,82.2C55,82.2,54.9,82.2,54.9,82.2z M55.5,81.4
					C55.5,81.4,55.4,81.4,55.5,81.4c-0.1,0-0.1-0.1-0.1-0.1c0.1-0.1,0.2-0.3,0.3-0.4c0,0,0.1-0.1,0.1,0c0,0,0.1,0.1,0,0.1
					C55.8,81,55.7,81.2,55.5,81.4C55.5,81.4,55.5,81.4,55.5,81.4z M56.1,80.5C56,80.5,56,80.5,56.1,80.5c-0.1,0-0.1-0.1-0.1-0.1
					l0.3-0.4c0,0,0.1-0.1,0.1,0c0,0,0.1,0.1,0,0.1L56.1,80.5C56.1,80.5,56.1,80.5,56.1,80.5z M56.6,79.6
					C56.6,79.6,56.6,79.6,56.6,79.6c-0.1,0-0.1-0.1-0.1-0.1l0.3-0.4c0,0,0.1-0.1,0.1,0c0,0,0.1,0.1,0,0.1L56.6,79.6
					C56.7,79.6,56.7,79.6,56.6,79.6z M57.2,78.7C57.2,78.7,57.2,78.7,57.2,78.7c-0.1,0-0.1-0.1-0.1-0.1l0.3-0.4c0,0,0.1-0.1,0.1,0
					c0,0,0.1,0.1,0,0.1L57.2,78.7C57.3,78.7,57.2,78.7,57.2,78.7z M57.8,77.9C57.7,77.9,57.7,77.8,57.8,77.9c-0.1,0-0.1-0.1-0.1-0.1
					l0.3-0.4c0,0,0.1-0.1,0.1,0c0,0,0.1,0.1,0,0.1L57.8,77.9C57.8,77.8,57.8,77.9,57.8,77.9z M58.3,77C58.3,77,58.3,77,58.3,77
					c-0.1,0-0.1-0.1-0.1-0.1l0.3-0.4c0,0,0.1-0.1,0.1,0c0,0,0.1,0.1,0,0.1L58.3,77C58.4,77,58.4,77,58.3,77z"/>
				<path fill="#3B80A3" d="M58.9,76.1C58.9,76.1,58.9,76.1,58.9,76.1c-0.1,0-0.1-0.1-0.1-0.1l0.1-0.2l-0.1-0.2c0,0,0-0.1,0.1-0.1
					c0,0,0.1,0,0.1,0.1l0.1,0.3L58.9,76.1C59,76.1,58.9,76.1,58.9,76.1z"/>
				<path fill="#3B80A3" d="M58.8,75.2C58.8,75.2,58.7,75.1,58.8,75.2l-0.2-0.5c0,0,0-0.1,0.1-0.1c0,0,0.1,0,0.1,0.1l0.2,0.5
					C58.9,75.1,58.9,75.1,58.8,75.2C58.8,75.2,58.8,75.2,58.8,75.2z M58.5,74.2C58.5,74.2,58.4,74.2,58.5,74.2l-0.2-0.5
					c0,0,0-0.1,0.1-0.1c0,0,0.1,0,0.1,0.1l0.2,0.5C58.6,74.2,58.6,74.2,58.5,74.2C58.5,74.2,58.5,74.2,58.5,74.2z M58.2,73.3
					C58.1,73.3,58.1,73.3,58.2,73.3l-0.2-0.5c0,0,0-0.1,0.1-0.1c0,0,0.1,0,0.1,0.1l0.2,0.5C58.3,73.3,58.3,73.3,58.2,73.3
					C58.2,73.3,58.2,73.3,58.2,73.3z"/>
				<path fill="#3B80A3" d="M57.9,72.4C57.8,72.4,57.8,72.4,57.9,72.4l-0.2-0.3c0,0,0-0.1,0.1-0.1c0,0,0.1,0,0.1,0.1l0.1,0.3
					C58,72.4,57.9,72.4,57.9,72.4C57.9,72.4,57.9,72.4,57.9,72.4z"/>
			</g>
			<path fill="#3B80A3" d="M61.2,85L61,84.9l0,0L61.2,85L61.2,85L61.2,85L61.2,85z M61.4,84.9L61.4,84.9l0.2-0.1l0,0L61.4,84.9z
				 M60.8,84.8l-0.2-0.1l0,0L60.8,84.8L60.8,84.8z M61.8,84.7L61.8,84.7l0.2-0.1l0,0L61.8,84.7z M60.4,84.6l-0.2-0.1l0,0L60.4,84.6
				L60.4,84.6z M62.2,84.5L62.2,84.5l0.2-0.1l0,0L62.2,84.5z M60,84.4l-0.2-0.1l0,0L60,84.4L60,84.4z M62.6,84.3L62.6,84.3l0.2-0.1
				l0,0L62.6,84.3z M59.6,84.3l-0.2-0.1l0,0L59.6,84.3L59.6,84.3z M63,84.1L63,84.1l0.2-0.1l0,0L63,84.1z M59.2,84.1L59,84l0,0
				L59.2,84.1L59.2,84.1z M63.3,83.9l0-0.2l0.1,0L63.3,83.9L63.3,83.9z M58.9,83.8l0-0.2l0.1,0L58.9,83.8L58.9,83.8z M63.3,83.5
				l0-0.2l0.1,0L63.3,83.5L63.3,83.5z M58.8,83.4l0-0.2l0.1,0L58.8,83.4L58.8,83.4z M63.3,83l0-0.2l0.1,0L63.3,83L63.3,83z M58.7,83
				l0-0.2l0.1,0L58.7,83L58.7,83z"/>
			<path fill="#3B80A3" d="M34.4,90.9L34.4,90.9l0.1-0.1L34.4,90.9l0.2-0.1l0,0.1L34.4,90.9z M34.8,90.9L34.8,90.9l0.2-0.1l0-0.2
				l0.1,0l0,0.2l0,0l0,0L34.8,90.9z M34.3,90.6l0-0.2l0.1,0L34.3,90.6L34.3,90.6z M34.9,90.4l0-0.2l0.1,0L34.9,90.4L34.9,90.4z
				 M34.3,90.2l0-0.2l0.1,0L34.3,90.2L34.3,90.2z M34.8,89.9l0-0.2l0.1,0L34.8,89.9L34.8,89.9z M34.2,89.8l0-0.2l0.1,0L34.2,89.8
				L34.2,89.8z M34.8,89.5l0-0.2l0.1,0L34.8,89.5L34.8,89.5z M34.1,89.3l0-0.2l0.1,0L34.1,89.3L34.1,89.3z M34.7,89.1l0-0.2l0.1,0
				L34.7,89.1L34.7,89.1z M34.1,88.9l0-0.2l0.1,0L34.1,88.9L34.1,88.9z M34.6,88.6l0-0.2l0.1,0L34.6,88.6L34.6,88.6z M34,88.5l0-0.2
				l0.1,0L34,88.5L34,88.5z M34.6,88.2l0-0.2l0.1,0L34.6,88.2L34.6,88.2z M33.9,88l0-0.2l0.1,0L33.9,88L33.9,88z M34.5,87.8l0-0.2
				l0.1,0L34.5,87.8L34.5,87.8z M33.9,87.6l0-0.2l0.1,0L33.9,87.6L33.9,87.6z M34.5,87.3l0-0.1l0,0l0-0.1l0.1,0L34.5,87.3L34.5,87.3
				z M34,87.3L34,87.3l0.2-0.1l0,0.1L34,87.3z"/>
			<g>
				<polygon fill="#3B80A3" points="64.7,90.8 64.5,90.8 64.6,90.6 64.6,90.6 64.6,90.7 64.7,90.7 				"/>
				<polygon fill="#3B80A3" points="64.9,90.8 64.8,90.8 64.8,90.7 64.9,90.8 				"/>
				<polygon fill="#3B80A3" points="65.2,90.9 65.1,90.9 65.1,90.8 65.1,90.8 65.1,90.7 65.2,90.7 				"/>
				<path fill="#3B80A3" d="M65.3,90.5L65.3,90.5l0-0.2l0.1,0L65.3,90.5z M65.3,90L65.3,90l0-0.2l0.1,0L65.3,90z M65.4,89.6
					L65.4,89.6l0-0.2l0.1,0L65.4,89.6z M65.5,89.1L65.5,89.1l0-0.2l0.1,0L65.5,89.1z M65.5,88.7L65.5,88.7l0-0.2l0.1,0L65.5,88.7z
					 M65.6,88.2L65.6,88.2l0-0.2l0.1,0L65.6,88.2z M65.7,87.8L65.7,87.8l0-0.2l0.1,0L65.7,87.8z"/>
				<polygon fill="#3B80A3" points="65.7,87.3 65.6,87.3 65.7,87.2 65.6,87.2 65.6,87.2 65.8,87.2 				"/>
				<polygon fill="#3B80A3" points="65.5,87.2 65.3,87.2 65.4,87.1 65.5,87.1 				"/>
				<polygon fill="#3B80A3" points="65.1,87.2 65.1,87.2 65.1,87.1 65.2,87.1 65.2,87.2 65.1,87.2 				"/>
				<path fill="#3B80A3" d="M64.7,90.4L64.7,90.4l0-0.2l0.1,0L64.7,90.4z M64.7,90L64.7,90l0-0.2l0.1,0L64.7,90z M64.8,89.5
					L64.8,89.5l0-0.2l0.1,0L64.8,89.5z M64.9,89.1L64.9,89.1l0-0.2l0.1,0L64.9,89.1z M64.9,88.6L64.9,88.6l0-0.2l0.1,0L64.9,88.6z
					 M65,88.1L65,88.1l0-0.2l0.1,0L65,88.1z M65.1,87.7L65.1,87.7l0-0.2l0.1,0L65.1,87.7z"/>
			</g>
			<path fill="#3B80A3" d="M77,90.3l-0.5,0c-0.1,0-0.1,0-0.1-0.1s0-0.1,0.1-0.1l0.5,0C77,90.2,77.1,90.2,77,90.3
				C77.1,90.3,77,90.3,77,90.3z M75.9,90.3l-0.5,0c-0.1,0-0.1,0-0.1-0.1s0-0.1,0.1-0.1l0.5,0C75.9,90.2,76,90.2,75.9,90.3
				C76,90.3,75.9,90.3,75.9,90.3z M74.8,90.3l-0.5,0c-0.1,0-0.1,0-0.1-0.1c0-0.1,0-0.1,0.1-0.1l0.5,0C74.8,90.1,74.9,90.2,74.8,90.3
				C74.9,90.3,74.8,90.3,74.8,90.3z M73.7,90.3L73.7,90.3l-0.5,0c-0.1,0-0.1,0-0.1-0.1c0-0.1,0-0.1,0.1-0.1h0l0.5,0
				C73.7,90.1,73.8,90.2,73.7,90.3C73.8,90.3,73.7,90.3,73.7,90.3z M72.6,90.3L72.6,90.3c-0.2,0-0.4,0-0.5,0c-0.1,0-0.1,0-0.1-0.1
				c0-0.1,0-0.1,0.1-0.1c0.2,0,0.4,0,0.5,0C72.7,90.1,72.7,90.2,72.6,90.3C72.7,90.3,72.7,90.3,72.6,90.3z M71.5,90.3L71.5,90.3
				c-0.2,0-0.4,0-0.5,0c-0.1,0-0.1,0-0.1-0.1c0-0.1,0-0.1,0.1-0.1l0,0c0.2,0,0.3,0,0.5,0C71.6,90.1,71.6,90.2,71.5,90.3
				C71.6,90.3,71.6,90.3,71.5,90.3z M70.4,90.3L70.4,90.3L70.4,90.3c-0.1,0-0.1,0-0.1-0.1s0-0.1,0.1-0.1l0,0
				C70.5,90.1,70.5,90.1,70.4,90.3C70.5,90.2,70.5,90.3,70.4,90.3z"/>
		</g>
		<path fill="#3E97BA" d="M35.9,83.1c0,1.6,0.1,3.2,0.1,4.8l2.1,1l2-1.1l0.5-4.8L35.9,83.1z"/>
		<path fill="#3B80A3" d="M38.1,88.7L38,88.7L38.1,88.7L38.1,88.7l0.1-0.1l0,0L38.1,88.7z M37.8,88.6l-0.2-0.1l0,0L37.8,88.6
			L37.8,88.6z M38.4,88.6L38.4,88.6l0.2-0.2l0,0L38.4,88.6z M37.4,88.4l-0.2-0.1l0,0L37.4,88.4L37.4,88.4z M38.7,88.3L38.7,88.3
			l0.2-0.2l0,0L38.7,88.3z M37,88.2l-0.2-0.1l0,0L37,88.2L37,88.2z M39.1,88.1L39.1,88.1l0.2-0.2l0,0L39.1,88.1z M36.6,88l-0.2-0.1
			l0,0L36.6,88L36.6,88z M39.5,87.9L39.5,87.9l0.2-0.2l0,0L39.5,87.9z M36.2,87.8L36.2,87.8L36.2,87.8l-0.1-0.2l0.1,0L36.2,87.8
			L36.2,87.8L36.2,87.8z M39.9,87.7L39.9,87.7L39.9,87.7l0-0.2l0.1,0L39.9,87.7L39.9,87.7z M36.1,87.4l0-0.2l0.1,0L36.1,87.4
			L36.1,87.4z M40,87.3L40,87.3l0-0.2l0.1,0L40,87.3z M36.1,87l0-0.2l0.1,0L36.1,87L36.1,87z M40,86.8L40,86.8l0-0.2l0.1,0L40,86.8z
			 M36.1,86.5l0-0.2l0.1,0L36.1,86.5L36.1,86.5z M40.1,86.4L40.1,86.4l0-0.2l0.1,0L40.1,86.4z M36.1,86.1l0-0.2l0.1,0L36.1,86.1
			L36.1,86.1z M40.1,86L40.1,86l0-0.2l0.1,0L40.1,86z M36.1,85.6l0-0.2l0.1,0L36.1,85.6L36.1,85.6z M40.1,85.5L40.1,85.5l0-0.2
			l0.1,0L40.1,85.5z M36,85.2l0-0.2l0.1,0L36,85.2L36,85.2z M40.2,85.1L40.2,85.1l0-0.2l0.1,0L40.2,85.1z M36,84.8l0-0.2l0.1,0
			L36,84.8L36,84.8z M40.2,84.7L40.2,84.7l0-0.2l0.1,0L40.2,84.7z M36,84.3l0-0.2l0.1,0L36,84.3L36,84.3z M40.3,84.2L40.3,84.2
			l0-0.2l0.1,0L40.3,84.2z M36,83.9l0-0.2l0.1,0L36,83.9L36,83.9z M40.3,83.8L40.3,83.8l0-0.2l0.1,0L40.3,83.8z M36,83.5l0-0.2
			l0.1,0L36,83.5L36,83.5z M40.4,83.4L40.4,83.4l0-0.2l0.1,0L40.4,83.4z"/>
		<path fill="#4FABDA" d="M35.8,83c0.1,0.4,0.2,0.9,0.2,1.3c0.8,0.3,1.6,0.7,2.3,1c0.7-0.3,1.5-0.7,2.2-1c0-0.5,0-1,0-1.4
			C39,83,37.4,83,35.8,83z"/>
		<g>
			<g>
				
					<ellipse transform="matrix(3.230737e-03 -1 1 3.230737e-03 -33.1764 133.0902)" fill="#F3DFBF" cx="50.2" cy="83.2" rx="0.6" ry="0.6"/>
				
					<ellipse transform="matrix(3.230737e-03 -1 1 3.230737e-03 -36.9387 136.8163)" fill="#F3DFBF" cx="50.2" cy="86.9" rx="0.6" ry="0.6"/>
				
					<ellipse transform="matrix(3.230737e-03 -1 1 3.230737e-03 -40.701 140.5423)" fill="#F3DFBF" cx="50.1" cy="90.7" rx="0.6" ry="0.6"/>
			</g>
			
				<ellipse transform="matrix(3.230737e-03 -1 1 3.230737e-03 -23.1908 144.9616)" fill="#F3DFBF" cx="61.1" cy="84.1" rx="0.5" ry="0.5"/>
			
				<ellipse transform="matrix(3.230737e-03 -1 1 3.230737e-03 -46.3166 122.4844)" fill="#F3DFBF" cx="38.3" cy="84.5" rx="0.5" ry="0.5"/>
		</g>
	</g>
	<path fill="#3B80A3" d="M38.4,85.3l-0.2-0.1l0,0L38.4,85.3L38.4,85.3L38.4,85.3L38.4,85.3z M38.6,85.2L38.6,85.2l0.2-0.1l0,0
		L38.6,85.2z M38,85.1L37.8,85l0,0L38,85.1L38,85.1z M39,85L39,85l0.2-0.1l0,0L39,85z M37.6,84.9l-0.2-0.1l0,0L37.6,84.9L37.6,84.9z
		 M39.4,84.8L39.4,84.8l0.2-0.1l0,0L39.4,84.8z M37.2,84.7L37,84.6l0,0L37.2,84.7L37.2,84.7z M39.8,84.6L39.8,84.6l0.2-0.1l0,0
		L39.8,84.6z M36.8,84.6l-0.2-0.1l0,0L36.8,84.6L36.8,84.6z M40.2,84.4L40.2,84.4l0.2-0.1l0,0L40.2,84.4z M36.4,84.4l-0.2-0.1l0,0
		L36.4,84.4L36.4,84.4z M40.5,84.2l0-0.2l0.1,0L40.5,84.2L40.5,84.2z M36.1,84.1l0-0.2l0.1,0L36.1,84.1L36.1,84.1z M40.5,83.8l0-0.2
		l0.1,0L40.5,83.8L40.5,83.8z M36,83.7l0-0.2l0.1,0L36,83.7L36,83.7z M40.5,83.3l0-0.2l0.1,0L40.5,83.3L40.5,83.3z M35.9,83.3l0-0.2
		l0.1,0L35.9,83.3L35.9,83.3z"/>
</g>
<path fill="#E2AE43" d="M81.6,62.4c-1.6,1.7-4.2,4.3-8.2,5.9c-0.8,0.4-1.6,0.6-2.4,0.8c-0.2-0.2-0.5-0.6-0.9-1.1
	c-1-1.3-0.9-1.6-1.6-2.5c-1.3-1.7-2.9-2.6-3.8-3.1c-0.9-0.5-0.9-0.4-2.7-1.2c-2.2-0.9-2.8-1.4-4-2c-0.3-0.1-0.7-0.3-1.2-0.5
	c-1.3-0.5-2.4-0.9-3.7-0.8c-1,0.1-0.9,0.4-2.3,0.5c-0.6,0.1-1.4,0.2-2.5,0c-1.2-0.2-1.2-0.5-2-0.5c-0.9,0-0.9,0.3-2.2,0.4
	c-0.6,0-0.9,0-1.8,0.1c-0.2,0-0.6,0.1-1.1,0.2c-0.7,0.2-1.2,0.5-2.3,1c-1.4,0.7-2.5,1.4-3.2,1.9c-1.2,0.8-1.2,1-3.2,2.5
	c-1.2,0.9-2.4,1.9-3.7,2.9c-1,0.7-1.4,1-1.5,1.4c-0.7-0.1-1.3-0.1-1.9-0.1c-0.2,0-0.8,0-1.5-0.2c-1.8-0.4-2.9-1.6-3.6-2.2
	c-1.3-1.3-2-2.7-2.3-3.7c-1,3.1-0.4,6.3,1.6,8c1.1,1,2.4,1.3,3.4,1.4c12.7,2.3,8.9,2,12.9,2.4c5,0.5,8.4,0.9,13.2,0.9
	c1.4,0,5.2,0,10.1-0.4c4.5-0.4,10.3-1.2,17-2.8c1.5-0.1,2.5-0.6,3-0.9C81.5,69.2,82.4,65.9,81.6,62.4z M49.8,69.1
	c-1.6,0.1-2.1,0.6-4.2,0.6c-0.8,0-1.6,0-2.4-0.1c-0.4,0-0.8-0.1-1.1-0.1c0.1-0.9-0.2-2.2,0.2-4.6c0.3-1.7,0.7-4.2,2.2-4.7
	c1-0.3,1.6,0.4,3.5,0c0.5-0.1,0.8-0.2,1.4-0.3c0.9-0.1,1.5,0.1,2.1,0.1c1.9,0.3,2.3-0.4,3.3-0.1c1.9,0.5,2.6,3.7,3.3,6.7
	c0.3,1.3,0.5,2.5,0.6,3.5c-2.6-0.1-4.5-0.5-4.9-0.5C51.6,69.3,51.1,69,49.8,69.1z"/>
<g>
	<g>
		<rect x="30" y="90.8" fill="#5A606A" width="19.4" height="8.1"/>
	</g>
	<g>
		<rect x="49.5" y="90.8" fill="#5A606A" width="19.4" height="8.1"/>
	</g>
	<g>
		<polygon fill="#444850" points="67.8,94.6 67.9,94.5 65.9,92.5 65.8,92.7 		"/>
		<polygon fill="#444850" points="31.2,94.6 31,94.5 33,92.5 33.2,92.7 		"/>
		<path fill="#444850" d="M68.9,90.6H30v1.2h18.4l0,1.8l1,0.9v4.4h0.3v-7.1h19.2V90.6z M49.4,94.2l-0.8-0.7l0-1.7h0.8V94.2z"/>
	</g>
	<g>
		<rect x="29.9" y="98.8" fill="#7B8088" width="19.6" height="0.9"/>
		<rect x="49.5" y="98.8" fill="#7B8088" width="19.6" height="0.9"/>
		<rect x="39" y="91" fill="#7B8088" width="0.7" height="1.8"/>
		<rect x="58" y="91" fill="#7B8088" width="0.7" height="1.8"/>
	</g>
	<circle fill="#7B8088" cx="49" cy="91.2" r="0.4"/>
</g>
<g>
	<path fill="#454B55" d="M67.3,103.6H51.2c-0.9,0-1.7-0.7-1.7-1.7v-2.2h19.4v2.2C68.9,102.9,68.2,103.6,67.3,103.6z"/>
	<path fill="#6A6F77" d="M63.1,102.4h-7.7v-1.8c0-0.7,0.6-1.3,1.3-1.3h5.1c0.7,0,1.3,0.6,1.3,1.3V102.4z"/>
	<path fill="#DDD2BF" d="M51.2,103.6h16.4C67.6,103.6,59.9,99.9,51.2,103.6z"/>
	<g>
		<rect x="54.7" y="101.6" fill="#DDD2BF" width="8.8" height="0.1"/>
		<rect x="54.7" y="100.8" fill="#DDD2BF" width="8.8" height="0.1"/>
		<rect x="54.7" y="100.1" fill="#DDD2BF" width="8.8" height="0.1"/>
	</g>
</g>
<g>
	<path fill="#454B55" d="M47.8,103.6H31.7c-0.9,0-1.7-0.7-1.7-1.7v-2.2h19.4v2.2C49.5,102.9,48.7,103.6,47.8,103.6z"/>
	<path fill="#6A6F77" d="M43.6,102.4H36v-1.8c0-0.7,0.6-1.3,1.3-1.3h5.1c0.7,0,1.3,0.6,1.3,1.3V102.4z"/>
	<path fill="#DDD2BF" d="M31.7,103.6h16.4C48.2,103.6,40.5,99.9,31.7,103.6z"/>
	<g>
		<rect x="35.3" y="101.6" fill="#DDD2BF" width="8.8" height="0.1"/>
		<rect x="35.3" y="100.8" fill="#DDD2BF" width="8.8" height="0.1"/>
		<rect x="35.3" y="100.1" fill="#DDD2BF" width="8.8" height="0.1"/>
	</g>
</g>
</svg>
