<?xml version="1.0" encoding="utf-8"?>
<!-- Generator: Adobe Illustrator 21.0.0, SVG Export Plug-In . SVG Version: 6.00 Build 0)  -->
<svg version="1.2" baseProfile="tiny" id="Capa_1" xmlns="http://www.w3.org/2000/svg" xmlns:xlink="http://www.w3.org/1999/xlink"
	 x="0px" y="0px" viewBox="0 0 90.7 109.4" xml:space="preserve">
<path fill="#FBD8B7" d="M71.7,34h-53c-2.9,0-5.3,2.4-5.3,5.3v29.1c0,2.9,2.4,5.3,5.3,5.3h7.1c-1,0.6-8.4,5.6-8.3,18.8l0,0
	c0,3.9,3.2,7,7,7v-7h0c0-3.3,0.5-5.9,1.2-7.8V100h0v3.9c0,1.1,0.9,2.1,2.1,2.1h15.3c1.1,0,2.1-0.9,2.1-2.1v-3.6h0.1v3.6
	c0,1.1,0.9,2.1,2.1,2.1h15.3c1.1,0,2.1-0.9,2.1-2.1V100h0V84.9c0.7,1.9,1.3,4.5,1.2,7.8h0v7c3.9,0,7-3.1,7-7l0,0
	c0.1-13.1-7.1-18.1-8.2-18.8h7c2.9,0,5.3-2.4,5.3-5.3V39.3C77.1,36.4,74.7,34,71.7,34z"/>
<path fill="#E3B98C" d="M66,92.6"/>
<g>
	<circle fill="#404049" cx="25.7" cy="54.2" r="2.4"/>
	<circle fill="#404049" cx="64.6" cy="54.2" r="2.4"/>
</g>
<path fill="#E1B492" d="M45.3,67.4c-2.2,0-4-1.8-4-4c0-0.4,0.3-0.6,0.6-0.6c0.4,0,0.6,0.3,0.6,0.6c0,1.5,1.2,2.7,2.7,2.7
	c1.5,0,2.7-1.2,2.7-2.7c0-0.4,0.3-0.6,0.6-0.6c0.4,0,0.6,0.3,0.6,0.6C49.2,65.6,47.4,67.4,45.3,67.4z"/>
<g>
	<path fill="#EDC39F" d="M13.4,61c-1.1-0.9-1.9-2.7-1.9-4.6c0-2,0.8-3.7,1.9-4.6L13.4,61z"/>
	<path fill="#EDC39F" d="M77.1,61c1.1-0.9,1.9-2.7,1.9-4.6c0-2-0.8-3.7-1.9-4.6L77.1,61z"/>
	<path fill="#EDC39F" d="M56.5,73.8c0,0.8-0.6,1.4-1.2,1.4H33.1c-0.7,0-1.2-0.6-1.2-1.4H56.5z"/>
	<path fill="#EDC39F" d="M45.2,61L45.2,61c-0.9,0-1.6-0.7-1.6-1.6v-4c0-0.9,0.7-1.6,1.6-1.6h0c0.9,0,1.6,0.7,1.6,1.6v4
		C46.9,60.3,46.2,61,45.2,61z"/>
	<path fill="#EDC39F" d="M22.4,97L22.4,97c-0.5,0-0.9-0.4-0.9-0.9v-1.5c0-0.5,0.4-0.9,0.9-0.9h0c0.5,0,0.9,0.4,0.9,0.9v1.5
		C23.3,96.6,22.9,97,22.4,97z"/>
	<path fill="#EDC39F" d="M68.1,97L68.1,97c0.5,0,0.9-0.4,0.9-0.9v-1.5c0-0.5-0.4-0.9-0.9-0.9l0,0c-0.5,0-0.9,0.4-0.9,0.9v1.5
		C67.2,96.6,67.6,97,68.1,97z"/>
</g>
<path fill="#454B55" d="M62.1,36.2c0,0,3.5,16.4,10.2,14.8c0.9-2.7,1.7-6.4,1.5-10.6c-0.2-3.5-1.1-5.9-1.2-6.4
	c-0.2-0.6-0.8-2.2-2-4.1c-0.8-1.2-2.6-4.2-5.8-6.4c-3.2-2.2-6.3-2.7-9.7-3.2c-6.5-1-11.8,0-14.3,0.6c-5.4,1.3-12.8,2.9-17.6,9.5
	c-4,5.5-4.3,11.5-4.2,14.1c-0.4,0.6-0.7,1.3-1.1,1.9c1.6,1.1,4.2,2.6,7.6,3c9.6,0.9,16.1-7.9,16.5-8.4c0,0,0.1,4.8-3.2,6.3
	C38.7,47.3,54.1,50.9,62.1,36.2z"/>
<path fill="#454B55" d="M13.6,38.3l-0.1,6.1V47c0,0,1.4,0,2.5-2.2c0.9,0.9,1.9,0.5,2.9-0.4l2.9-5.4l-4.1-1.1L13.6,38.3z"/>
<path fill="#454B55" d="M77.2,37.6l0.1,6.1v2.6c0,0-1.4,0-2.5-2.2c-0.9,0.9-1.9,0.5-2.9-0.4L69,38.3l4.1-1.1L77.2,37.6z"/>
<g>
	<path fill="#DFDFDE" d="M67.1,22.1c0,0,14.3-4.4,9.8-17.4c7.2,5.3,8.3,18.1-5.2,23.1C70.7,28.1,67.1,22.1,67.1,22.1z"/>
	<path fill="#CDCCCC" d="M78,5.6c4.1,11.9-7,17.4-9.7,18.5c1.1,1.7,2.7,4,3.4,3.7C84.5,23.2,84.3,11.3,78,5.6z"/>
	<path fill="#BFBDBD" d="M81.3,10.4c0.1,11.6-8.3,15-11.6,15.9c0.7,0.9,1.4,1.6,1.7,1.5C81.4,24.4,83.6,16.5,81.3,10.4z"/>
	<path fill="#D44644" d="M74.2,28.9l2.6-1.4c0.9-0.5,1.1-1.5,0.5-2.2l-5.7-6.5c-0.6-0.7-1.8-0.9-2.7-0.4l-2.6,1.4L74.2,28.9z"/>
	<path fill="#E94C50" d="M69,18.5l7.9,9c0.8-0.5,1-1.4,0.4-2.1l-5.7-6.5C71,18.2,69.9,18.1,69,18.5z"/>
	<path fill="#DFDFDE" d="M23.5,22.1c0,0-14.3-4.4-9.8-17.4C6.4,10,5.4,22.7,18.8,27.8C19.9,28.1,23.5,22.1,23.5,22.1z"/>
	<path fill="#CDCCCC" d="M12.6,5.6c-4.1,11.9,7,17.4,9.7,18.5c-1.1,1.7-2.7,4-3.4,3.7C6,23.2,6.3,11.3,12.6,5.6z"/>
	<path fill="#BFBDBD" d="M9.3,10.4c-0.1,11.6,8.3,15,11.6,15.9c-0.7,0.9-1.4,1.6-1.7,1.5C9.2,24.4,6.9,16.5,9.3,10.4z"/>
	<path fill="#D44644" d="M16.4,28.9l-2.6-1.4c-0.9-0.5-1.1-1.5-0.5-2.2l5.7-6.5c0.6-0.7,1.8-0.9,2.7-0.4l2.6,1.4L16.4,28.9z"/>
	<path fill="#E94C50" d="M21.6,18.5l-7.9,9c-0.8-0.5-1-1.4-0.4-2.1l5.7-6.5C19.6,18.2,20.7,18.1,21.6,18.5z"/>
	<path d="M46.1,39.3c-0.3,0-0.6,0-0.9,0C45.6,39.3,45.8,39.3,46.1,39.3L46.1,39.3z"/>
	<path d="M44.4,39.3c0.3,0,0.6,0,0.9,0C45,39.3,44.7,39.3,44.4,39.3L44.4,39.3z"/>
	<path fill="#454545" d="M77.3,36.4c0-0.1,0-0.2,0-0.3c0,0,0,0,0,0C77.3,36.2,77.3,36.3,77.3,36.4z"/>
	<path fill="#454545" d="M77.8,36c-0.3,0-0.4,0-0.5,0.1c0,0,0,0,0,0C77.4,36.1,77.6,36,77.8,36z"/>
	<path fill="#454545" d="M77.3,36.1C77.3,36.1,77.3,36.1,77.3,36.1C77.3,36.1,77.3,36.1,77.3,36.1C77.3,36.1,77.3,36.1,77.3,36.1z"
		/>
	<path fill="#E94C50" d="M45.2,10.6c-17.1,0-31,11.3-31,25.3h62.1C76.2,22,62.3,10.6,45.2,10.6z"/>
	<path fill="#D44644" d="M73.2,38.5c0.2-0.9,0.3-1.7,0.3-2.6c0-10.9-12.6-19.8-28.2-19.8c-15.6,0-28.2,8.9-28.2,19.8
		c0,0.9,0.1,1.8,0.3,2.6H73.2z"/>
	<path fill="#D44644" d="M38.6,11.2v24.7h13.2V11.2c-2.1-0.4-4.3-0.6-6.6-0.6C42.9,10.6,40.7,10.8,38.6,11.2z"/>
	<path fill="#E94C50" d="M40.8,10.9v25h8.8v-25c-1.4-0.2-2.9-0.3-4.4-0.3C43.7,10.6,42.2,10.7,40.8,10.9z"/>
	<path fill="#D44644" d="M78.7,42.9c0,1.3-1.3,2.3-2.9,2.3H14.5c-1.6,0-2.9-1-2.9-2.3v-5.7c0-1.3,1.3-2.3,2.9-2.3h61.3
		c1.6,0,2.9,1,2.9,2.3V42.9z"/>
	<path fill="#F06D70" d="M75.8,34.9H14.5c-1.6,0-2.9,1-2.9,2.3v1.4h67.2v-1.4C78.7,35.9,77.4,34.9,75.8,34.9z"/>
	<path fill="#E94C50" d="M11.6,37.2v5.7c0,0.2,0,0.4,0.1,0.6h67c0.1-0.2,0.1-0.4,0.1-0.6v-5.7c0-0.2,0-0.4-0.1-0.6h-67
		C11.6,36.8,11.6,37,11.6,37.2z"/>
	<ellipse fill="#D44644" cx="16.6" cy="40" rx="2.3" ry="1.8"/>
	<ellipse fill="#D44644" cx="73.7" cy="40" rx="2.3" ry="1.8"/>
	<ellipse fill="#D44644" cx="65.6" cy="40" rx="2.3" ry="1.8"/>
	<ellipse fill="#D44644" cx="57.4" cy="40" rx="2.3" ry="1.8"/>
	<ellipse fill="#D44644" cx="49.2" cy="40" rx="2.3" ry="1.8"/>
	<ellipse fill="#D44644" cx="41.1" cy="40" rx="2.3" ry="1.8"/>
	<ellipse fill="#D44644" cx="32.9" cy="40" rx="2.3" ry="1.8"/>
	<ellipse fill="#D44644" cx="24.8" cy="40" rx="2.3" ry="1.8"/>
	<ellipse fill="#D44644" cx="45.2" cy="13.3" rx="2.3" ry="1.8"/>
	<ellipse fill="#D44644" cx="45.2" cy="19.7" rx="2.3" ry="1.8"/>
	<ellipse fill="#D44644" cx="45.2" cy="26.1" rx="2.3" ry="1.8"/>
	<ellipse fill="#D44644" cx="45.2" cy="32.5" rx="2.3" ry="1.8"/>
	<g>
		<ellipse fill="#F06D70" cx="16.6" cy="40" rx="1.2" ry="0.9"/>
		<ellipse fill="#F06D70" cx="73.7" cy="40" rx="1.2" ry="0.9"/>
		<ellipse fill="#F06D70" cx="65.6" cy="40" rx="1.2" ry="0.9"/>
		<ellipse fill="#F06D70" cx="57.4" cy="40" rx="1.2" ry="0.9"/>
		<ellipse fill="#F06D70" cx="49.2" cy="40" rx="1.2" ry="0.9"/>
		<ellipse fill="#F06D70" cx="41.1" cy="40" rx="1.2" ry="0.9"/>
		<ellipse fill="#F06D70" cx="32.9" cy="40" rx="1.2" ry="0.9"/>
		<ellipse fill="#F06D70" cx="24.8" cy="40" rx="1.2" ry="0.9"/>
		<ellipse fill="#F06D70" cx="45.2" cy="13.3" rx="1.2" ry="0.9"/>
		<ellipse fill="#F06D70" cx="45.2" cy="19.7" rx="1.2" ry="0.9"/>
		<ellipse fill="#F06D70" cx="45.2" cy="26.1" rx="1.2" ry="0.9"/>
		<ellipse fill="#F06D70" cx="45.2" cy="32.5" rx="1.2" ry="0.9"/>
	</g>
</g>
<path fill="#454B55" d="M45.3,62c-0.1-0.1-0.2-0.2-0.3-0.3l-0.8-0.9c0,0,0.1-1.5-1.7-0.5c-1.8,1-2.8,2-2.8,2h-1.2c0,0-1.7,2-1.9,2.2
	c-0.2,0.1-4,3.4-4,3.4s-2,1.4-1,3.4c0,0,0-1,1.3-1.7l1-0.6l-0.3,0.6l3.3-2.1v0.6l3.4-2.2l2-0.8l0.5,0.4l1.8-1.2l0.6-0.4l0.6,0.4
	l1.8,1.2l0.5-0.4l2,0.8l3.4,2.2v-0.6l3.3,2.1L56.7,69l1,0.6c1.3,0.6,1.3,1.7,1.3,1.7c1.1-2-1-3.4-1-3.4s-3.8-3.3-4-3.4
	c-0.2-0.1-1.9-2.2-1.9-2.2h-1.2c0,0-1-1.1-2.8-2c-1.8-1-1.7,0.5-1.7,0.5l-0.8,0.9C45.4,61.8,45.3,61.9,45.3,62z"/>
<g>
	<g>
		<path fill="#FAD6B6" d="M25.9,84.5c-0.8,2-1.4,4.6-1.3,8.1h-7c-0.1-13.9,8-18.6,8.4-18.8L25.9,84.5z"/>
	</g>
	<g>
		<path fill="#FAD6B6" d="M64.6,84.5c0.8,2,1.4,4.6,1.3,8.1h7c0.1-13.9-8-18.6-8.4-18.8L64.6,84.5z"/>
	</g>
	<path fill="#E5E5E4" d="M73,92.6c0.1-13.9-8-18.7-8.4-18.9l0,0l0,0c-3.7,0-7.4,0-11.1,0c-1.2,1.9-2.4,2.4-3.2,2.6
		c-1.9,0.4-2.7-1-5.1-0.8c-2.2,0.2-2.6,1.4-4.2,1.3c-1-0.1-2.4-0.7-3.9-3.1l-11.1,0l0,0c0,0,0,0,0,0l-0.1,0l0,0
		c-0.8,0.5-8.4,5.4-8.3,18.8l7-0.1c0-3.4,0.5-6,1.3-8l0,11l38.8-0.2l0-10.8c0.8,2,1.3,4.6,1.3,8L73,92.6z"/>
	<path fill="#6595CB" d="M46.1,82.9"/>
	<g>
		<line fill="#B2B3B2" x1="45.2" y1="75.5" x2="45.3" y2="95.4"/>
		
			<rect x="45" y="75.5" transform="matrix(1 -5.220314e-03 5.220314e-03 1 -0.4455 0.2372)" fill="#B2B3B2" width="0.5" height="19.8"/>
	</g>
	<g>
		<path fill="#454B55" d="M45.2,75.7c0,0-2,0.7-3,2.6l1.8,2.3c1.1-1.2,2.1-2.5,2.8-4.1C45.9,75.8,45.2,75.7,45.2,75.7z"/>
		<path fill="#454B55" d="M45.9,81.4l2.4-3.1c-0.5-0.8-1.1-1.4-1.6-1.8c-0.6,1.6-1.7,2.8-2.8,4.1l0.6,0.8l-3.4,14.6l1,1.2
			c2.2-3.4,4.2-6.9,4.9-10.8L45.9,81.4z"/>
		<path fill="#454B55" d="M49.3,95.9L47,86.3c-0.7,3.9-2.7,7.4-4.9,10.8l3.1,0.7L49.3,95.9z"/>
	</g>
	<path fill="#B2B3B2" d="M34.8,73.7c0.6,1.1,1.7,2.5,3.3,4c1.6,1.4,3.2,2.2,4.3,2.7c0.9-1.6,1.9-3.2,2.8-4.8c-1-0.1-2.6-0.5-4.2-1.3
		c-0.3-0.2-0.6-0.3-0.9-0.5L34.8,73.7z"/>
	<path fill="#B2B3B2" d="M50.3,73.8c-0.3,0.2-0.5,0.3-0.8,0.4c-1.7,0.8-3.2,1.2-4.2,1.3c0.9,1.6,1.9,3.2,2.8,4.8
		c1.1-0.4,2.7-1.2,4.3-2.7c1.6-1.4,2.5-3,3-4L50.3,73.8z"/>
	<path fill="#454545" d="M64.6,89.6c0.3-1.7-1.6-7-0.8-14.3c0-0.1,0.8-1.5,0.9-1.6l-8.5,0c0,0,0,0.5-0.3,1.1c-0.7,2-3,6.6-9.5,11
		c0,0-0.7,0.9-1.3,2.3c-0.1-1.2-0.9-2.4-0.9-2.4c-6.6-4.5-8.9-9.1-9.6-11.1c-0.2-0.6-0.3-1.1-0.3-1.1l-8.4,0
		c0.1,0.1,0.7,1.4,0.7,1.5c0.5,7.2-0.8,12.5-0.7,14.2l0,0l1.4,5.6c0.4,1.3,0.8,2.4,1.3,3.2l0,0c0,0,0,0,0,0c0.1,0.2,0.2,0.3,0.3,0.5
		H29c3.9,4.1,14.2,1.4,14.2,1.4c0.7-1.1,1.3-2.2,1.7-3.3c0.6,1.1,1.6,2.3,2.3,3.3c0,0,11.1,2.7,14.6-1.9
		C61.9,98.3,64.5,90,64.6,89.6z"/>
	<g>
		<polygon fill="#4F4F4F" points="57.2,85.5 53.7,86.4 53.7,89.9 57.2,91.3 60.7,89.9 60.7,86.4 		"/>
		<rect x="53.1" y="83.7" fill="#575757" width="8.2" height="2.7"/>
	</g>
</g>
<g>
	<g>
		<rect x="25.8" y="92.6" fill="#454545" width="19.4" height="9.6"/>
	</g>
	<g>
		<rect x="45.2" y="92.6" fill="#454545" width="19.4" height="9.6"/>
	</g>
	<g>
		<polygon fill="#343434" points="63.4,97.1 63.6,96.9 61.6,94.6 61.4,94.8 		"/>
		<polygon fill="#343434" points="26.9,97.1 26.8,96.9 28.8,94.6 28.9,94.8 		"/>
		<path fill="#343434" d="M64.7,92.4H25.7v1.4H44l0,2.2l1,1v5.2h0.3v-8.4h19.3V92.4z M45.1,96.6l-0.7-0.8l0-2h0.8V96.6z"/>
	</g>
	<g>
		<rect x="25.7" y="102" fill="#454545" width="19.5" height="1"/>
		<rect x="45.3" y="102" fill="#454545" width="19.5" height="1"/>
		<rect x="34.8" y="92.8" fill="#454545" width="0.7" height="2.1"/>
		<rect x="53.7" y="92.8" fill="#454545" width="0.7" height="2.1"/>
	</g>
	<ellipse fill="#454545" cx="44.7" cy="93" rx="0.4" ry="0.3"/>
</g>
<g>
	<path fill="#343434" d="M43.1,106.1H27.8c-1.1,0-2.1-0.9-2.1-2.1v-1.3h19.4v1.3C45.2,105.2,44.3,106.1,43.1,106.1z"/>
	<path fill="#343434" d="M62.6,106.1H47.3c-1.1,0-2.1-0.9-2.1-2.1v-1.3h19.4v1.3C64.7,105.2,63.7,106.1,62.6,106.1z"/>
</g>
<g>
	<path fill="#21252A" d="M21.4,51.5c0.3-0.5,0.8-0.9,1.2-1.2c0.5-0.3,1-0.6,1.6-0.8c0.6-0.2,1.2-0.4,1.8-0.4
		c0.6,0.1,1.2,0.3,1.7,0.7l0,0.1C27.3,50,27,50,26.8,50.1c-0.3,0.1-0.5,0.1-0.8,0.1c-0.5,0.1-1,0-1.5,0.1c-0.5,0.1-1,0.3-1.5,0.5
		C22.4,51,21.9,51.3,21.4,51.5L21.4,51.5z"/>
	<path fill="#21252A" d="M68.8,51.5c-0.3-0.5-0.8-0.9-1.2-1.2c-0.5-0.3-1-0.6-1.6-0.8c-0.6-0.2-1.2-0.4-1.8-0.4
		c-0.6,0.1-1.2,0.3-1.7,0.7l0,0.1c0.3,0.1,0.6,0.1,0.9,0.2c0.3,0.1,0.5,0.1,0.8,0.1c0.5,0.1,1,0,1.5,0.1c0.5,0.1,1,0.3,1.5,0.5
		C67.8,51,68.2,51.3,68.8,51.5L68.8,51.5z"/>
</g>
</svg>
