<?xml version="1.0" encoding="utf-8"?>
<!-- Generator: Adobe Illustrator 21.0.0, SVG Export Plug-In . SVG Version: 6.00 Build 0)  -->
<svg version="1.2" baseProfile="tiny" id="Capa_1" xmlns="http://www.w3.org/2000/svg" xmlns:xlink="http://www.w3.org/1999/xlink"
	 x="0px" y="0px" viewBox="0 0 90.7 109.4" xml:space="preserve">
<path fill="#21252A" d="M71.8,66.5H17.3c-3.6,0-6.5-3.2-6.5-7.1l1.1-18.3h65.4l1.1,18.3C78.3,63.4,75.4,66.5,71.8,66.5z"/>
<path fill="#FBD8B7" d="M71,19H18c-2.9,0-5.3,2.4-5.3,5.3v40.1c0,2.9,2.4,5.3,5.3,5.3H25c-1,0.6-8.4,5.6-8.3,18.8l0,0
	c0,3.9,3.2,7,7,7v-7h0c0-3.3,0.5-5.9,1.2-7.8v15.2h0v3.9c0,1.1,0.9,2.1,2.1,2.1h15.3c1.1,0,2.1-0.9,2.1-2.1v-3.6h0.1v3.6
	c0,1.1,0.9,2.1,2.1,2.1h15.3c1.1,0,2.1-0.9,2.1-2.1v-3.9h0V80.9c0.7,1.9,1.3,4.5,1.2,7.8h0v7c3.9,0,7-3.1,7-7l0,0
	c0.1-13.1-7.1-18.1-8.2-18.8h7c2.9,0,5.3-2.4,5.3-5.3V24.4C76.3,21.4,73.9,19,71,19z"/>
<path fill="#E3B98C" d="M65.2,88.7"/>
<g>
	<circle fill="#404049" cx="24.9" cy="50.2" r="2.4"/>
	<circle fill="#404049" cx="63.8" cy="50.2" r="2.4"/>
</g>
<path fill="#E1B492" d="M44.5,63.4c-2.2,0-4-1.8-4-4c0-0.4,0.3-0.6,0.6-0.6c0.4,0,0.6,0.3,0.6,0.6c0,1.5,1.2,2.7,2.7,2.7
	c1.5,0,2.7-1.2,2.7-2.7c0-0.4,0.3-0.6,0.6-0.6c0.4,0,0.6,0.3,0.6,0.6C48.4,61.6,46.6,63.4,44.5,63.4z"/>
<g>
	<path fill="#EDC39F" d="M12.6,57.1c-1.1-0.9-1.9-2.7-1.9-4.6c0-2,0.8-3.7,1.9-4.6L12.6,57.1z"/>
	<path fill="#EDC39F" d="M76.3,57.1c1.1-0.9,1.9-2.7,1.9-4.6c0-2-0.8-3.7-1.9-4.6L76.3,57.1z"/>
	<path fill="#EDC39F" d="M55.8,69.9c0,0.8-0.6,1.4-1.2,1.4H32.3c-0.7,0-1.2-0.6-1.2-1.4H55.8z"/>
	<path fill="#EDC39F" d="M44.5,57.1L44.5,57.1c-0.9,0-1.6-0.7-1.6-1.6v-4c0-0.9,0.7-1.6,1.6-1.6h0c0.9,0,1.6,0.7,1.6,1.6v4
		C46.1,56.3,45.4,57.1,44.5,57.1z"/>
	<path fill="#EDC39F" d="M21.6,93L21.6,93c-0.5,0-0.9-0.4-0.9-0.9v-1.5c0-0.5,0.4-0.9,0.9-0.9l0,0c0.5,0,0.9,0.4,0.9,0.9v1.5
		C22.5,92.6,22.1,93,21.6,93z"/>
	<path fill="#EDC39F" d="M67.3,93L67.3,93c0.5,0,0.9-0.4,0.9-0.9l0-1.5c0-0.5-0.4-0.9-0.9-0.9h0c-0.5,0-0.9,0.4-0.9,0.9v1.5
		C66.4,92.6,66.8,93,67.3,93z"/>
</g>
<path fill="#21252A" d="M10.8,38.6c-0.2-3.3-1.2-11.7,3.5-18.8c5.6-8.5,15.7-7.4,22.4-9.2c3.1-0.8,9.7-2.3,17.8-1.3
	c4.2,0.5,8,0.6,12.7,3.1c3.4,1.8,6.2,4.3,7.7,6.1c0.8-2,2.4-4.8,4.5-2.1c1.1,1.4,0.2,2.3-1.2,2.9c1.3,0.1,2.2,0.8,1.6,2.7
	c-0.5,1.5-1.6,1.5-2.6,0.9c0.9,2.5,1.6,5.3,1.9,8.4c0.6,5.4-0.3,10.1-1.2,13.5c-6.9,1.8-11.6-11.4-13-15.6c-0.2-0.5-0.8-0.6-1.1-0.2
	C52.7,45.6,35.7,41.3,35.7,41.3c2.5-1.3,3.3-4.1,3.5-6.1c0.1-0.6-0.7-1-1.1-0.5c-2.6,3.3-9.4,10.3-18.9,9.7
	c-4.4-0.3-7.7-2.1-9.7-3.5C10,40.2,10.4,39.4,10.8,38.6z"/>
<g>
	<path fill="#21252A" d="M20.3,47.8c0.3-0.5,0.8-0.9,1.2-1.2c0.5-0.3,1-0.6,1.6-0.8c0.6-0.2,1.2-0.4,1.8-0.4
		c0.6,0.1,1.2,0.3,1.7,0.7l0,0.1c-0.3,0.1-0.6,0.1-0.9,0.2c-0.3,0.1-0.5,0.1-0.8,0.1c-0.5,0.1-1,0-1.5,0.1c-0.5,0.1-1,0.3-1.5,0.5
		C21.3,47.2,20.8,47.5,20.3,47.8L20.3,47.8z"/>
	<path fill="#21252A" d="M67.6,47.8c-0.3-0.5-0.8-0.9-1.2-1.2c-0.5-0.3-1-0.6-1.6-0.8c-0.6-0.2-1.2-0.4-1.8-0.4
		c-0.6,0.1-1.2,0.3-1.7,0.7l0,0.1c0.3,0.1,0.6,0.1,0.9,0.2c0.3,0.1,0.5,0.1,0.8,0.1c0.5,0.1,1,0,1.5,0.1c0.5,0.1,1,0.3,1.5,0.5
		C66.6,47.2,67.1,47.5,67.6,47.8L67.6,47.8z"/>
</g>
<g>
	<path fill="#9CCA6A" d="M72.1,88.8c0.1-13.9-7.7-18.6-8-18.8L64,69.9L64,69.9c-3.7,0-7.6,0.1-11.3,0.1c-1.2,1.9-2.4,2.4-3.2,2.6
		c-1.9,0.4-2.7-1-5.1-0.8c-2.2,0.2-2.6,1.4-4.2,1.3c-1-0.1-2.4-0.7-3.9-3.1l-11,0l0,0c0,0,0,0,0,0l-0.1,0l0,0
		c-0.8,0.5-8.4,5.4-8.3,18.8l7-0.1c0-3.4,0.5-6,1.3-8L25,91.7l38.9-0.2l-0.1-10.7c0.8,2,1.3,4.5,1.2,7.9L72.1,88.8z"/>
	<path fill="#88BD48" d="M33.9,69.9c0.6,1.1,1.7,2.5,3.3,4c1.6,1.4,3.2,2.2,4.3,2.7c0.9-1.6,1.8-3.2,2.8-4.8c-1-0.1-2.6-0.5-4.2-1.3
		c-0.3-0.2-0.6-0.3-0.9-0.5L33.9,69.9z"/>
	<path fill="#88BD48" d="M49.4,70c-0.3,0.2-0.5,0.3-0.8,0.4c-1.7,0.8-3.2,1.2-4.2,1.3c0.9,1.6,1.8,3.2,2.8,4.8
		c1.1-0.4,2.7-1.2,4.3-2.7c1.6-1.4,2.5-3,3-4L49.4,70z"/>
	<ellipse fill="#FFFFFF" cx="45.7" cy="79.1" rx="0.5" ry="0.5"/>
	<ellipse fill="#FFFFFF" cx="45.7" cy="84.6" rx="0.5" ry="0.5"/>
	<ellipse fill="#FFFFFF" cx="45.7" cy="90" rx="0.5" ry="0.5"/>
	<g>
		<line fill="#88BD48" x1="44.3" y1="71.7" x2="44.4" y2="91.6"/>
		
			<rect x="44.1" y="71.7" transform="matrix(1 -5.211363e-03 5.211363e-03 1 -0.4249 0.2323)" fill="#88BD48" width="0.5" height="19.8"/>
	</g>
</g>
<path fill="#221F1F" d="M44.5,57.4C44.6,57.4,44.6,57.4,44.5,57.4c0.1,0,0.2,0.1,0.4,0.2c0.1,0.1,0.2,0.1,0.4,0.2
	c0.2,0.2,0.4,0.2,1,0.6c1.3,0.7,1.6,1,2.5,1.4c0.5,0.3,1.2,0.6,2.1,1c0.5,0.2,1.1,0.4,1.9,0.4c0.5,0,0.8-0.1,1-0.1
	c0.1-0.1,0.6-0.3,0.9-0.8c0.1-0.2,0.3-0.7,0.2-1.3c0,0-0.2-0.9-1-1.1c-0.1,0-0.7-0.2-1.1,0.1c-0.3,0.2-0.3,0.6-0.3,0.9
	c0,0.3,0,0.5,0.1,0.8c0,0.1,0.2,0.3,0.6,0.4c0.2,0,0.5-0.1,0.6-0.3c0,0,0.1-0.1,0.1-0.3c0-0.2-0.2-0.3-0.4-0.3c-0.1,0-0.1,0-0.2,0.1
	c0,0,0.1,0,0.1,0c0.1,0,0.1,0,0.1,0.1c0.1,0.1,0,0.2,0,0.2c0,0.1-0.1,0.2-0.1,0.2c-0.1,0.1-0.4,0.1-0.5,0c-0.1-0.1-0.2-0.3-0.2-0.5
	c0-0.1,0-0.3,0.1-0.5c0.1-0.2,0.3-0.3,0.4-0.4c0.1,0,0.2-0.1,0.3-0.1c0.3,0,0.5,0.2,0.6,0.3c0.1,0.1,0.4,0.4,0.5,0.9
	c0,0.1,0,0.3,0,0.5c-0.1,0.3-0.3,0.4-0.4,0.5c-0.4,0.2-0.8,0.2-1.1,0.2c-0.2,0-0.6,0-0.9-0.2c-0.4-0.2-0.6-0.5-1-0.9
	c0,0-0.6-0.7-1.3-1.3c-0.4-0.4-1-0.9-1.8-1.3c-0.5-0.2-1-0.5-1.7-0.4c-0.5,0-0.9,0.2-1.2,0.3c-0.3,0.1-0.5,0.2-0.6,0.4
	c0,0-0.1,0.1-0.1,0.1c-0.1-0.1-0.2-0.2-0.4-0.3c-0.1-0.1-0.3-0.2-0.6-0.3c-0.4-0.2-0.8-0.1-1.1-0.1c-0.5,0-0.8,0.2-1.1,0.3
	c-0.6,0.2-0.9,0.5-1.3,0.7c-0.2,0.1-0.7,0.4-1.2,0.9c-0.2,0.2-0.5,0.4-0.8,0.8c-0.2,0.2-0.2,0.3-0.5,0.6c-0.3,0.3-0.4,0.4-0.6,0.6
	c-0.3,0.2-0.6,0.3-0.9,0.3c-0.3,0-0.6,0.1-1-0.1c-0.2-0.1-0.4-0.1-0.6-0.3c-0.1-0.1-0.3-0.3-0.3-0.6c0-0.3,0.1-0.4,0.2-0.6
	c0.1-0.2,0.3-0.5,0.6-0.7c0.1,0,0.3-0.1,0.5,0c0.2,0.1,0.3,0.3,0.4,0.3c0.1,0.1,0.2,0.3,0.1,0.5c0,0.1,0,0.2-0.1,0.4
	c-0.1,0.1-0.3,0.2-0.3,0.2c-0.1,0-0.2,0.1-0.3,0c0,0-0.1-0.1-0.1-0.2c0-0.1,0.1-0.2,0.2-0.2c0,0-0.1,0-0.2,0c-0.1,0-0.2,0.2-0.2,0.3
	c0,0.2,0.1,0.3,0.2,0.3c0.2,0.2,0.4,0.1,0.5,0.1c0.1,0,0.4,0,0.6-0.3c0.1-0.1,0.1-0.3,0.1-0.6c0-0.1,0-0.3,0-0.5
	c0-0.1-0.1-0.2-0.2-0.4c0-0.1-0.1-0.2-0.3-0.3c-0.3-0.2-0.7-0.1-0.8,0c-0.3,0.1-0.5,0.3-0.7,0.5c-0.1,0.1-0.3,0.3-0.3,0.6
	c-0.1,0.4,0,0.7,0,0.8c0.1,0.4,0.4,0.7,0.5,0.8c0.1,0.1,0.3,0.3,0.6,0.4c0.4,0.2,0.8,0.1,1.1,0.1c0.8-0.1,1.4-0.3,2-0.6
	c0.6-0.2,1.2-0.5,1.9-0.9c0.4-0.2,0.9-0.5,2-1.1c0.7-0.4,0.8-0.5,1.1-0.6c0.2-0.1,0.3-0.2,0.6-0.3C44.2,57.5,44.4,57.4,44.5,57.4z"
	/>
<g>
	<g>
		<rect x="25" y="89.6" fill="#5A606A" width="19.4" height="8.1"/>
	</g>
	<g>
		<rect x="44.5" y="89.6" fill="#5A606A" width="19.4" height="8.1"/>
	</g>
	<g>
		<polygon fill="#444850" points="62.8,93.5 62.9,93.3 60.9,91.3 60.8,91.5 		"/>
		<polygon fill="#444850" points="26.2,93.5 26,93.3 28,91.3 28.2,91.5 		"/>
		<path fill="#444850" d="M63.9,89.4H25v1.2h18.4l0,1.8l1,0.9v4.4h0.3v-7.1h19.2V89.4z M44.4,93l-0.8-0.7l0-1.7h0.8V93z"/>
	</g>
	<g>
		<rect x="24.9" y="97.6" fill="#7B8088" width="19.6" height="0.9"/>
		<rect x="44.5" y="97.6" fill="#7B8088" width="19.6" height="0.9"/>
		<rect x="34.1" y="89.8" fill="#7B8088" width="0.7" height="1.8"/>
		<rect x="53" y="89.8" fill="#7B8088" width="0.7" height="1.8"/>
	</g>
	<circle fill="#7B8088" cx="44" cy="90" r="0.4"/>
</g>
<g>
	<path fill="#444850" d="M42.4,102.1H27.1c-1.1,0-2.1-0.9-2.1-2.1v-1.3h19.4v1.3C44.5,101.2,43.5,102.1,42.4,102.1z"/>
	<path fill="#444850" d="M61.9,102.1H46.6c-1.1,0-2.1-0.9-2.1-2.1v-1.3h19.4v1.3C63.9,101.2,63,102.1,61.9,102.1z"/>
</g>
</svg>
