<?xml version="1.0" encoding="utf-8"?>
<!-- Generator: Adobe Illustrator 21.0.0, SVG Export Plug-In . SVG Version: 6.00 Build 0)  -->
<svg version="1.2" baseProfile="tiny" id="Capa_1" xmlns="http://www.w3.org/2000/svg" xmlns:xlink="http://www.w3.org/1999/xlink"
	 x="0px" y="0px" viewBox="0 0 90.7 109.4" xml:space="preserve">
<path fill="#683D18" d="M76.2,66.9H15.7c-1.8,0-3.2-1.4-3.2-3.2V40.2h66.8v23.5C79.3,65.5,77.9,66.9,76.2,66.9z"/>
<path fill="#C48B61" d="M72.2,21h-53c-2.9,0-5.3,2.4-5.3,5.3v40.1c0,2.9,2.4,5.3,5.3,5.3h7.1c-1,0.6-8.4,5.6-8.3,18.8l0,0
	c0,3.9,3.2,7,7,7v-7h0c0-3.3,0.5-5.9,1.2-7.8V98h0v3.9c0,1.1,0.9,2.1,2.1,2.1h15.3c1.1,0,2.1-0.9,2.1-2.1v-3.6h0.1v3.6
	c0,1.1,0.9,2.1,2.1,2.1h15.3c1.1,0,2.1-0.9,2.1-2.1V98h0V82.8c0.7,1.9,1.3,4.5,1.2,7.8h0v7c3.9,0,7-3.1,7-7l0,0
	c0.1-13.1-7.1-18.1-8.2-18.8h7c2.9,0,5.3-2.4,5.3-5.3V26.3C77.6,23.3,75.2,21,72.2,21z"/>
<path fill="#E3B98C" d="M66.5,90.6"/>
<g>
	<circle fill="#404049" cx="26.2" cy="52.2" r="2.4"/>
	<circle fill="#404049" cx="65" cy="52.2" r="2.4"/>
</g>
<path fill="#A5714C" d="M45.7,60.7c2.2,0,4,1.8,4,4c0,0.4-0.3,0.6-0.6,0.6c-0.4,0-0.6-0.3-0.6-0.6c0-1.5-1.2-2.7-2.7-2.7
	c-1.5,0-2.7,1.2-2.7,2.7c0,0.4-0.3,0.6-0.6,0.6c-0.4,0-0.6-0.3-0.6-0.6C41.8,62.5,43.6,60.7,45.7,60.7z"/>
<g>
	<path fill="#B37C55" d="M13.9,59c-1.1-0.9-1.9-2.7-1.9-4.6c0-2,0.8-3.7,1.9-4.6L13.9,59z"/>
	<path fill="#B37C55" d="M77.6,59c1.1-0.9,1.9-2.7,1.9-4.6c0-2-0.8-3.7-1.9-4.6L77.6,59z"/>
	<path fill="#B37C55" d="M57,71.8c0,0.8-0.6,1.4-1.2,1.4H33.6c-0.7,0-1.2-0.6-1.2-1.4H57z"/>
	<path fill="#B37C55" d="M45.7,59L45.7,59c-0.9,0-1.6-0.7-1.6-1.6v-4c0-0.9,0.7-1.6,1.6-1.6l0,0c0.9,0,1.6,0.7,1.6,1.6v4
		C47.4,58.3,46.6,59,45.7,59z"/>
	<path fill="#B37C55" d="M22.9,94.9L22.9,94.9c-0.5,0-0.9-0.4-0.9-0.9v-1.5c0-0.5,0.4-0.9,0.9-0.9h0c0.5,0,0.9,0.4,0.9,0.9v1.5
		C23.8,94.5,23.4,94.9,22.9,94.9z"/>
	<path fill="#B37C55" d="M68.6,94.9L68.6,94.9c0.5,0,0.9-0.4,0.9-0.9v-1.5c0-0.5-0.4-0.9-0.9-0.9l0,0c-0.5,0-0.9,0.4-0.9,0.9v1.5
		C67.7,94.5,68.1,94.9,68.6,94.9z"/>
</g>
<path fill="#683D18" d="M14.4,49.1c0,0-0.2-12,4.9-12c0,0-2-1.7-3.5-1.2c0,0,1.4-1.9,3.5-0.9l-2.2-2.3c0,0,2.8-6.1,8-5.8
	c5.2,0.3,3.8,6.6,15.3,5.4c8.6-0.9,9.4-3.9,15.2-4.8c7.7-1.3,8.3-1.7,13.4-0.3c4.5,1.2,5.8,5.4,5.8,5.4l-2.2,2.4
	c2.2-1.1,3.5,0.8,3.5,0.8c-1.5-0.5-3.5,1.2-3.5,1.2c5.1,0,5,12,5,12s5.1-13.5,0.6-23.2c0,0,1.8-2.9,0.4-4.4c0,0-0.6,2.2-2.4,1.7
	c0,0,1-1,0.3-2.2c0,0-1,1.5-1.9,1.3c0,0-3.4-8.9-16.8-10.7c-12.1-1.6-28.6,3.5-38-6c0,0-1.2,6,2.9,8.7c0,0-5.5-3.9-7.9-7.8
	c0,0-3.9,2.6-0.7,8.1c0,0-1.4,0.9-3.4-2.2c0,0-1.6,4.2,3.7,7.5c0,0-0.6,1.7-3.4-0.6c0,0-0.4,2.6,1.5,3.6
	C12.4,22.8,8.1,42.1,14.4,49.1z"/>
<g>
	<path fill="#683D18" d="M22.2,49.6c0.2-0.5,0.5-1,0.9-1.5c0.4-0.4,0.8-0.9,1.3-1.2c0.5-0.3,1-0.7,1.6-0.8c0.6-0.1,1.2,0,1.8,0.2
		l0,0.1c-0.3,0.2-0.5,0.3-0.8,0.4c-0.3,0.1-0.5,0.2-0.7,0.3c-0.5,0.2-1,0.3-1.5,0.5c-0.5,0.2-0.9,0.5-1.4,0.8
		C23,48.8,22.6,49.2,22.2,49.6L22.2,49.6z"/>
	<path fill="#683D18" d="M69.6,49.3c-0.2-0.5-0.6-1-1-1.4c-0.4-0.4-0.9-0.8-1.4-1.1c-0.5-0.3-1.1-0.6-1.7-0.7
		c-0.6-0.1-1.2,0-1.8,0.3l0,0.1c0.3,0.2,0.6,0.2,0.8,0.3c0.3,0.1,0.5,0.2,0.8,0.3c0.5,0.2,1,0.2,1.5,0.4c0.5,0.2,1,0.4,1.4,0.7
		C68.7,48.5,69.1,48.9,69.6,49.3L69.6,49.3z"/>
</g>
<g>
	<g>
		<path fill="#64C4B7" d="M21,76.6c0.3-0.7,4.1-4.4,5.3-4.8l3.7,5.5l0.1,0c-1.4,2.3-2.9,4.5-4.3,6.8C24.2,81.6,22.5,79.1,21,76.6z"
			/>
	</g>
	<g>
		<path fill="#64C4B7" d="M70.4,76.6c-0.3-0.7-2.5-3.2-5.2-4.8l-3.7,5.5l-0.1,0c1.4,2.3,2.9,4.5,4.3,6.8
			C67.2,81.6,68.9,79.1,70.4,76.6z"/>
	</g>
	<path fill="#64C4B7" d="M65.2,71.8l0,18L26.3,90l0-18.2l11.1,0c1.4,3.2,4.5,5.3,7.9,5.5c3.7,0.1,7.1-2,8.6-5.4L65.2,71.8z"/>
	<path fill="#3A9A89" d="M53.7,71.8c-1.6,3-4.8,5-8.2,4.8c-3.2-0.1-6.1-2-7.5-4.8l-1.2,0c1.5,3.5,5,5.8,8.7,6c0.1,0,0.2,0,0.3,0
		c3.9,0,7.5-2.3,9.1-6L53.7,71.8z"/>
	<path fill="#3A9A89" d="M21,76.6c0.1-0.1,0.1-0.2,0.2-0.3c0.1-0.1,0.2-0.2,0.3-0.3c1.6,2.5,3.1,4.9,4.7,7.4
		c-0.1,0.1-0.1,0.2-0.2,0.3c-0.1,0.1-0.2,0.2-0.2,0.4C24.1,81.6,22.6,79.1,21,76.6z"/>
	<path fill="#3A9A89" d="M70.4,76.6c-0.1-0.1-0.2-0.3-0.3-0.4c-0.1-0.1-0.2-0.2-0.2-0.3c-1.5,2.5-3.1,5.1-4.6,7.6
		c0.1,0.2,0.2,0.4,0.4,0.6C67.3,81.6,68.8,79.1,70.4,76.6z"/>
	<path fill="#3A9A89" d="M54.7,77.6l6.5,0l0,2.6c0,1.7-1.4,3-3,3l-0.5,0c-1.7,0-3-1.4-3-3.1L54.7,77.6z"/>
</g>
<g>
	<g>
		<rect x="26.2" y="91.2" fill="#9599A0" width="19.4" height="8.1"/>
	</g>
	<g>
		<rect x="45.7" y="91.2" fill="#9599A0" width="19.4" height="8.1"/>
	</g>
	<g>
		<polygon fill="#7B8088" points="64,95.1 64.2,94.9 62.2,93 62,93.1 		"/>
		<polygon fill="#7B8088" points="27.4,95.1 27.2,94.9 29.2,93 29.4,93.1 		"/>
		<path fill="#7B8088" d="M65.3,91h-39v1.2h18.4l0,1.8l1,0.9v4.4h0.3v-7.1h19.3V91z M45.6,94.6L44.8,94l0-1.7h0.8V94.6z"/>
	</g>
	<g>
		<rect x="26.1" y="99.2" fill="#B0B3B8" width="19.6" height="0.9"/>
		<rect x="45.8" y="99.2" fill="#B0B3B8" width="19.7" height="0.9"/>
		<rect x="35.6" y="91.4" fill="#B0B3B8" width="0.7" height="1.8"/>
		<rect x="54.2" y="91.4" fill="#B0B3B8" width="0.7" height="1.8"/>
	</g>
	<circle fill="#7B8088" cx="45.2" cy="91.6" r="0.4"/>
</g>
<g>
	<path fill="#454B55" d="M63.5,104H47.4c-0.9,0-1.7-0.7-1.7-1.7v-2.2h19.4v2.2C65.2,103.3,64.4,104,63.5,104z"/>
	<path fill="#6A6F77" d="M59.3,102.8h-7.7V101c0-0.7,0.6-1.3,1.3-1.3H58c0.7,0,1.3,0.6,1.3,1.3V102.8z"/>
	<path fill="#DDD2BF" d="M47.4,104h16.4C63.8,104,56.1,100.3,47.4,104z"/>
	<g>
		<rect x="51" y="102" fill="#DDD2BF" width="8.8" height="0.1"/>
		<rect x="51" y="101.2" fill="#DDD2BF" width="8.8" height="0.1"/>
		<rect x="51" y="100.5" fill="#DDD2BF" width="8.8" height="0.1"/>
	</g>
</g>
<g>
	<path fill="#454B55" d="M44.1,104H27.9c-0.9,0-1.7-0.7-1.7-1.7v-2.2h19.4v2.2C45.7,103.3,45,104,44.1,104z"/>
	<path fill="#6A6F77" d="M39.9,102.8h-7.7V101c0-0.7,0.6-1.3,1.3-1.3h5.1c0.7,0,1.3,0.6,1.3,1.3V102.8z"/>
	<path fill="#DDD2BF" d="M28,104h16.4C44.4,104,36.7,100.3,28,104z"/>
	<g>
		<rect x="31.5" y="102" fill="#DDD2BF" width="8.8" height="0.1"/>
		<rect x="31.5" y="101.2" fill="#DDD2BF" width="8.8" height="0.1"/>
		<rect x="31.5" y="100.5" fill="#DDD2BF" width="8.8" height="0.1"/>
	</g>
</g>
</svg>
