<?xml version="1.0" encoding="utf-8"?>
<!-- Generator: Adobe Illustrator 21.0.0, SVG Export Plug-In . SVG Version: 6.00 Build 0)  -->
<svg version="1.1" id="Capa_1" xmlns="http://www.w3.org/2000/svg" xmlns:xlink="http://www.w3.org/1999/xlink" x="0px" y="0px"
	 viewBox="0 0 90.7 109.4" style="enable-background:new 0 0 90.7 109.4;" xml:space="preserve">
<style type="text/css">
	.st0{fill:#E3B98C;}
	.st1{fill:#404049;}
	.st2{fill:#C89773;}
	.st3{fill:#D8A980;}
	.st4{fill:#E5E6EB;}
	.st5{opacity:0.14;fill:#D8EFF5;}
	.st6{fill:#4E84C4;}
	.st7{fill:#4C5866;}
	.st8{fill:#384654;}
	.st9{fill:#FFFFFF;}
	.st10{fill:#454B55;}
	.st11{fill:#858B93;}
	.st12{fill:#4D535A;}
	.st13{fill:#666E78;}
</style>
<path class="st0" d="M71.7,20h-53c-2.9,0-5.3,2.4-5.3,5.3v40.1c0,2.9,2.4,5.3,5.3,5.3h7.1c-1,0.6-8.4,5.6-8.3,18.8l0,0
	c0,3.9,3.2,7,7,7v-7h0c0-3.3,0.5-5.9,1.2-7.8V97h0v3.9c0,1.1,0.9,2.1,2.1,2.1h15.3c1.1,0,2.1-0.9,2.1-2.1v-3.6h0.1v3.6
	c0,1.1,0.9,2.1,2.1,2.1h15.3c1.1,0,2.1-0.9,2.1-2.1V97h0V81.9c0.7,1.9,1.3,4.5,1.2,7.8h0v7c3.9,0,7-3.1,7-7l0,0
	c0.1-13.1-7.1-18.1-8.2-18.8h7c2.9,0,5.3-2.4,5.3-5.3V25.3C77,22.4,74.6,20,71.7,20z"/>
<path class="st0" d="M65.9,89.6"/>
<g>
	<circle class="st1" cx="25.7" cy="51.2" r="2.4"/>
	<circle class="st1" cx="64.5" cy="51.2" r="2.4"/>
</g>
<path class="st2" d="M45.2,64.3c-2.2,0-4-1.8-4-4c0-0.4,0.3-0.6,0.6-0.6c0.4,0,0.6,0.3,0.6,0.6c0,1.5,1.2,2.7,2.7,2.7
	c1.5,0,2.7-1.2,2.7-2.7c0-0.4,0.3-0.6,0.6-0.6c0.4,0,0.6,0.3,0.6,0.6C49.1,62.6,47.4,64.3,45.2,64.3z"/>
<g>
	<path class="st3" d="M13.3,58c-1.1-0.9-1.9-2.7-1.9-4.6c0-2,0.8-3.7,1.9-4.6L13.3,58z"/>
	<path class="st3" d="M77,58c1.1-0.9,1.9-2.7,1.9-4.6c0-2-0.8-3.7-1.9-4.6L77,58z"/>
	<path class="st3" d="M56.5,70.8c0,0.8-0.6,1.4-1.2,1.4H33.1c-0.7,0-1.2-0.6-1.2-1.4H56.5z"/>
	<path class="st3" d="M45.2,58L45.2,58c-0.9,0-1.6-0.7-1.6-1.6v-4c0-0.9,0.7-1.6,1.6-1.6h0c0.9,0,1.6,0.7,1.6,1.6v4
		C46.8,57.3,46.1,58,45.2,58z"/>
	<path class="st3" d="M22.3,94L22.3,94c-0.5,0-0.9-0.4-0.9-0.9v-1.5c0-0.5,0.4-0.9,0.9-0.9h0c0.5,0,0.9,0.4,0.9,0.9v1.5
		C23.2,93.6,22.8,94,22.3,94z"/>
	<path class="st3" d="M68,94L68,94c0.5,0,0.9-0.4,0.9-0.9v-1.5c0-0.5-0.4-0.9-0.9-0.9h0c-0.5,0-0.9,0.4-0.9,0.9v1.5
		C67.2,93.6,67.6,94,68,94z"/>
</g>
<path class="st4" d="M76.5,39.6c0,0.1,0,0.2,0.1,2.5c0,0.9,0.4,3.4,0.4,4.3c2-5.5,2.1-8.2,2-8.7c0,0-0.1-0.5-0.2-1.2
	c-0.1-0.3-0.1-0.5-0.1-0.7c-0.3-2.4,0.1-3.6,0.1-5.2c0.1-2.8-1.1-5-2.1-6.9c-0.9-1.7-1.6-3.1-3.2-4.3c-1.5-1.1-2.2-0.9-3.7-2.2
	c-1.6-1.4-1.3-1.9-2.7-3c-1.1-0.9-1.4-0.5-4.1-1.9c-1.3-0.7-2.3-1.1-3.4-2c-1.6-1.2-1.3-1.4-2.5-2.2c-0.6-0.3-2.4-1.4-4.6-1.2
	C52.2,7,52.3,7,51.9,7c-1.2,0.1-1.6-0.1-4-0.4c-1.4-0.2-2.2-0.3-3-0.2c-0.2,0-1.3,0.1-2.6,0.5c-1.2,0.4-1.5,0.7-2.8,1
	c-0.4,0.1-0.9,0.2-1.5,0.3C36,8.4,35.5,7.9,34,8.5c-1.2,0.5-1.4,1-2.9,1.7c-1,0.4-1.2,0.3-2.9,0.8c-2,0.6-3.1,0.9-4,1.6
	c-1.2,0.9-0.8,1.3-2.4,2.8c-0.8,0.8-0.9,0.7-3.1,2.3c-1.3,1-2,1.5-2.5,2c-0.4,0.4-1.4,1.5-2.2,3.2c-1.1,2.4-1.1,4.6-1,5.8
	c-0.6,1.5-1.1,3.5-1.3,5.8c-0.4,4.8,0.8,8.7,1.6,10.9c0.5-1.7,1-3.6,1.4-5.7c0.5-2.6,0.7-5.1,0.8-7.2c0.3-1,0.7-2,1.4-3.2
	c0.2-0.3,0.3-0.6,0.5-0.9c1-1.6,3.2-2.1,4.7-0.9c0.9,0.7,1.7,1.1,2.4,1.3c1.5,0.4,4.7,0.6,5.9,1.4c0.1,0.1,2.1,0.1,2.3,0
	c1.3-0.6,2.7-0.5,4.1-0.8c4.9-1,7.4,1.3,10.4-0.6c0.8-0.5,1.4-1.2,3.7-2.7c0.6-0.4,1.3-0.8,2.2-1.2c0,0,1.1-0.5,2.2-0.8
	c2.9-0.7,4,1.1,7.5,0.8c2-0.2,3-0.9,4.1-0.1c0.6,0.4,0.7,0.9,1.6,1.5c0.9,0.6,1.6,0.5,2.4,0.7l0,0c2,0.5,2.7,3,1.3,4.5l0,0
	C72.1,31.5,76,35,76.5,39.6z"/>
<g>
	<path class="st4" d="M21.5,48.9c0.3-0.5,0.8-0.9,1.2-1.2c0.5-0.3,1-0.6,1.6-0.8c0.6-0.2,1.2-0.4,1.8-0.4c0.6,0.1,1.2,0.3,1.7,0.7
		l0,0.1c-0.3,0.1-0.6,0.1-0.9,0.2c-0.3,0.1-0.5,0.1-0.8,0.1c-0.5,0.1-1,0-1.5,0.1c-0.5,0.1-1,0.3-1.5,0.5
		C22.5,48.4,22.1,48.6,21.5,48.9L21.5,48.9z"/>
	<path class="st4" d="M68.9,48.9c-0.3-0.5-0.8-0.9-1.2-1.2c-0.5-0.3-1-0.6-1.6-0.8c-0.6-0.2-1.2-0.4-1.8-0.4
		c-0.6,0.1-1.2,0.3-1.7,0.7l0,0.1c0.3,0.1,0.6,0.1,0.9,0.2c0.3,0.1,0.5,0.1,0.8,0.1c0.5,0.1,1,0,1.5,0.1c0.5,0.1,1,0.3,1.5,0.5
		C67.9,48.4,68.4,48.6,68.9,48.9L68.9,48.9z"/>
</g>
<g>
	<path class="st5" d="M61.3,54.8h7.6c1.1,0,2-0.9,2-2V49c0-1.1-0.9-2-2-2h-9c-1.1,0-2,0.9-2,2v2.5C58,53.3,59.5,54.8,61.3,54.8z"/>
	<path class="st5" d="M29.2,54.8h-7.6c-1.1,0-2-0.9-2-2V49c0-1.1,0.9-2,2-2h9c1.1,0,2,0.9,2,2v2.5C32.6,53.3,31,54.8,29.2,54.8z"/>
	<path class="st6" d="M77.3,48.7h-5.1V48h-0.9c-0.4-0.9-1.3-1.6-2.3-1.6h-9c-1.4,0-2.5,1.1-2.5,2.5v0H33.1v0c0-1.4-1.1-2.5-2.5-2.5
		h-9c-1.1,0-2,0.6-2.3,1.6h-0.9v0.7h-4.7v0.8h4.7v0.4H19v2.9c0,1.4,1.1,2.5,2.5,2.5h7.6c2.2,0,3.9-1.8,3.9-3.9v-1.5h24.4v1.5
		c0,2.2,1.8,3.9,3.9,3.9h7.6c1.4,0,2.5-1.1,2.5-2.5v-2.9h0.8v-0.4h5.1V48.7z M32,51.4c0,1.6-1.3,2.8-2.8,2.8h-7.6
		c-0.8,0-1.4-0.6-1.4-1.4v-3.9c0-0.8,0.6-1.4,1.4-1.4h9c0.8,0,1.4,0.6,1.4,1.4V51.4z M70.4,52.8c0,0.8-0.6,1.4-1.4,1.4h-7.6
		c-1.6,0-2.8-1.3-2.8-2.8v-2.5c0-0.8,0.6-1.4,1.4-1.4h9c0.8,0,1.4,0.6,1.4,1.4V52.8z"/>
</g>
<g>
	<path class="st7" d="M72.9,89.7c0.1-13.9-8-18.7-8.4-18.9l0,0l0,0c-3.7,0-7.4,0-11.1,0c-1.2,1.9-2.4,2.4-3.2,2.6
		c-1.9,0.4-2.7-1-5.1-0.8c-2.2,0.2-2.6,1.4-4.2,1.3c-1-0.1-2.4-0.7-3.9-3.1l-11.1,0l0,0c0,0,0,0,0,0l-0.1,0l0,0
		c-0.8,0.5-8.4,5.4-8.3,18.8l7-0.1c0-3.4,0.5-5.9,1.3-7.9l0,10.9l38.9-0.2l-0.1-10.6c0.8,2,1.2,4.3,1.2,7.8L72.9,89.7z"/>
	<path class="st8" d="M34.7,70.8c0.6,1.1,1.7,2.5,3.3,4c1.6,1.4,3.2,2.2,4.3,2.7c0.9-1.6,1.9-3.2,2.8-4.8c-1-0.1-2.6-0.5-4.2-1.3
		c-0.3-0.2-0.6-0.3-0.9-0.5L34.7,70.8z"/>
	<path class="st8" d="M50.2,70.9c-0.3,0.2-0.5,0.3-0.8,0.4c-1.7,0.8-3.2,1.2-4.2,1.3c0.9,1.6,1.9,3.2,2.8,4.8
		c1.1-0.4,2.7-1.2,4.3-2.7c1.6-1.4,2.5-3,3-4L50.2,70.9z"/>
	<ellipse class="st9" cx="46.5" cy="80" rx="0.5" ry="0.5"/>
	<ellipse class="st9" cx="46.5" cy="85.5" rx="0.5" ry="0.5"/>
	<ellipse class="st9" cx="46.5" cy="90.9" rx="0.5" ry="0.5"/>
	<g>
		<line class="st10" x1="45.1" y1="72.6" x2="45.2" y2="92.5"/>
		
			<rect x="44.9" y="72.6" transform="matrix(1 -5.222242e-03 5.222242e-03 1 -0.4305 0.2368)" class="st8" width="0.5" height="19.8"/>
	</g>
</g>
<g>
	<g>
		<rect x="25.7" y="90.6" class="st11" width="19.4" height="8.1"/>
	</g>
	<g>
		<rect x="45.2" y="90.6" class="st11" width="19.4" height="8.1"/>
	</g>
	<g>
		<polygon class="st12" points="63.5,94.5 63.6,94.3 61.6,92.3 61.5,92.5 		"/>
		<polygon class="st12" points="26.8,94.5 26.7,94.3 28.7,92.3 28.8,92.5 		"/>
		<path class="st12" d="M64.7,90.4h-39v1.2H44l0,1.8l1,0.9v4.4h0.3v-7.1h19.3V90.4z M45.1,94l-0.8-0.7l0-1.7h0.8V94z"/>
	</g>
	<g>
		<rect x="25.6" y="98.6" class="st13" width="19.6" height="0.9"/>
		<rect x="45.2" y="98.6" class="st13" width="19.6" height="0.9"/>
		<rect x="34.7" y="90.8" class="st13" width="0.7" height="1.8"/>
		<rect x="53.6" y="90.8" class="st13" width="0.7" height="1.8"/>
	</g>
	<circle class="st13" cx="44.6" cy="91" r="0.4"/>
</g>
<g>
	<path class="st10" d="M43,103H27.8c-1.1,0-2.1-0.9-2.1-2.1v-1.3h19.4v1.3C45.1,102.1,44.2,103,43,103z"/>
	<path class="st10" d="M62.5,103H47.3c-1.1,0-2.1-0.9-2.1-2.1v-1.3h19.4v1.3C64.6,102.1,63.7,103,62.5,103z"/>
</g>
</svg>
