<?xml version="1.0" encoding="utf-8"?>
<!-- Generator: Adobe Illustrator 21.0.0, SVG Export Plug-In . SVG Version: 6.00 Build 0)  -->
<svg version="1.2" baseProfile="tiny" id="Capa_1" xmlns="http://www.w3.org/2000/svg" xmlns:xlink="http://www.w3.org/1999/xlink"
	 x="0px" y="0px" viewBox="0 0 90.7 109.4" xml:space="preserve">
<path fill="#784A1E" d="M74.4,83.6l-63.8-0.5c-3,0-5.3-2.8-5-6l4-40.6l66.5,0.6l3.3,40.7C79.8,80.9,77.4,83.6,74.4,83.6z"/>
<path fill="#FBD8B7" d="M69.1,21.7h-53c-2.9,0-5.3,2.4-5.3,5.3v40.1c0,2.9,2.4,5.3,5.3,5.3h7.1c-1,0.6-8.4,5.6-8.3,18.8l0,0
	c0,3.9,3.2,7,7,7v-7h0c0-3.3,0.5-5.9,1.2-7.8v15.2h0v3.9c0,1.1,0.9,2.1,2.1,2.1h15.3c1.1,0,2.1-0.9,2.1-2.1V99h0.1v3.6
	c0,1.1,0.9,2.1,2.1,2.1H60c1.1,0,2.1-0.9,2.1-2.1v-3.9h0V83.6c0.7,1.9,1.3,4.5,1.2,7.8h0v7c3.9,0,7-3.1,7-7l0,0
	c0.1-13.1-7.1-18.1-8.2-18.8h7c2.9,0,5.3-2.4,5.3-5.3V27C74.4,24.1,72.1,21.7,69.1,21.7z"/>
<path fill="#E3B98C" d="M63.4,91.3"/>
<g>
	<circle fill="#3C250F" cx="23.1" cy="52.9" r="2.4"/>
	<circle fill="#3C250F" cx="61.9" cy="52.9" r="2.4"/>
</g>
<g>
	<path fill="#EDC39F" d="M10.8,59.7c-1.1-0.9-1.9-2.7-1.9-4.6c0-2,0.8-3.7,1.9-4.6L10.8,59.7z"/>
	<path fill="#EDC39F" d="M74.4,59.7c1.1-0.9,1.9-2.7,1.9-4.6c0-2-0.8-3.7-1.9-4.6L74.4,59.7z"/>
	<path fill="#EDC39F" d="M53.9,72.5c0,0.8-0.6,1.4-1.2,1.4H30.5c-0.7,0-1.2-0.6-1.2-1.4H53.9z"/>
	<path fill="#EDC39F" d="M42.6,59.7L42.6,59.7c-0.9,0-1.6-0.7-1.6-1.6v-4c0-0.9,0.7-1.6,1.6-1.6l0,0c0.9,0,1.6,0.7,1.6,1.6v4
		C44.2,59,43.5,59.7,42.6,59.7z"/>
	<path fill="#EDC39F" d="M19.7,95.7L19.7,95.7c-0.5,0-0.9-0.4-0.9-0.9v-1.5c0-0.5,0.4-0.9,0.9-0.9h0c0.5,0,0.9,0.4,0.9,0.9v1.5
		C20.6,95.3,20.2,95.7,19.7,95.7z"/>
	<path fill="#EDC39F" d="M65.5,95.7L65.5,95.7c0.5,0,0.9-0.4,0.9-0.9v-1.5c0-0.5-0.4-0.9-0.9-0.9h0c-0.5,0-0.9,0.4-0.9,0.9v1.5
		C64.6,95.3,65,95.7,65.5,95.7z"/>
</g>
<path fill="#784A1E" d="M19.8,14.3c0,0,28-16.3,52.2,7.7c9.8,9.7,13.3,16.8,17.1,16.3c0,0-7.3,1.7-12.6,1.7c0,0,1.5,4.9,5.9,5.2
	c-1.7,1.6-20.8,9.3-34.4-10.5c0,0-0.4,6.1,3.6,8.2c-4.5,1-27-13.1-28.6-14.9C21.4,26,17.8,48.4,9.6,46.3
	C9.6,46.3,5.2,22.1,19.8,14.3z"/>
<ellipse fill="#7CB342" cx="23" cy="11.5" rx="1.5" ry="1.3"/>
<path fill="#88C44D" d="M61.5,10c1.8,3.9-12.6,6.5-29.4,13.8c-8.5,3.7-21.3,13.7-25.7,15.3c-1.7,0.6-4.3-0.4-5-2.1
	C0,33,9.8,17.9,26.5,10.4S59.8,6.1,61.5,10z"/>
<g>
	<path id="XMLID_17_" fill="#E94C50" d="M42.8,61.6c-1.1-0.7-2.1-0.6-3,0.1c-1,0.8-2.1,0.5-2.1,0.5s1.7,2.4,5.1,2.4
		c3.4,0,5.1-2.4,5.1-2.4s-1.1,0.3-2.1-0.5C44.9,61,43.9,60.9,42.8,61.6z"/>
	<path id="XMLID_7_" fill="#D24047" d="M37.7,62.2c0,0,1.7,2.4,5.1,2.4c3.4,0,5.1-2.4,5.1-2.4S44,63.9,37.7,62.2z"/>
</g>
<g>
	<path fill="#683D18" d="M18.6,50.1c0.3-0.5,0.8-0.9,1.2-1.2c0.5-0.3,1-0.6,1.6-0.8c0.6-0.2,1.2-0.4,1.8-0.4
		c0.6,0.1,1.2,0.3,1.7,0.7l0,0.1c-0.3,0.1-0.6,0.1-0.9,0.2c-0.3,0.1-0.5,0.1-0.8,0.1c-0.5,0.1-1,0-1.5,0.1c-0.5,0.1-1,0.3-1.5,0.5
		C19.6,49.6,19.1,49.8,18.6,50.1L18.6,50.1z"/>
	<path fill="#683D18" d="M65.9,50.1c-0.3-0.5-0.8-0.9-1.2-1.2c-0.5-0.3-1-0.6-1.6-0.8c-0.6-0.2-1.2-0.4-1.8-0.4
		c-0.6,0.1-1.2,0.3-1.7,0.7l0,0.1c0.3,0.1,0.6,0.1,0.9,0.2c0.3,0.1,0.5,0.1,0.8,0.1c0.5,0.1,1,0,1.5,0.1c0.5,0.1,1,0.3,1.5,0.5
		C64.9,49.6,65.4,49.8,65.9,50.1L65.9,50.1z"/>
</g>
<g>
	<path fill="#E2B88B" d="M63.3,91.1"/>
	<path fill="#CDD0D9" d="M61.4,83.2L62,97.1l-38.7,0.1l2.4-24.6l8.9-0.2l6.1,4.9c0.8,1.1,2,1.1,2.9,0l6.1-4.9l8.5,0.1L61.4,83.2z"/>
	<path fill="#666E78" d="M70.4,91.1h-7.1v-1.7c0,0,7,0.1,7.1,0C70.4,89.4,70.4,91.1,70.4,91.1z"/>
	<path fill="#666E78" d="M14.8,91.1h7.1v-1.7c0,0-7,0.1-7.1,0C14.8,89.4,14.8,91.1,14.8,91.1z"/>
	<path fill="#6595CB" d="M43.4,79.8l2.6-3.1c-0.6-0.8-1.2-1.3-1.7-1.7c-0.7,1.5-1.8,2.8-3,4l0.7,0.8L38.3,94l1.1,1.1
		c2.3-3.3,4.5-6.7,5.3-10.6L43.4,79.8z"/>
	<path fill="#4E84C4" d="M47.1,94l-2.5-9.4c-0.8,3.8-2.9,7.3-5.3,10.6l3.3,3.6L47.1,94z"/>
	<path fill="#404049" d="M63.3,91.1h7c0.1-13.7-7.9-18.4-8.4-18.7c0,0,0,0,0,0l-8.5,0c0,0,0,0.4-0.3,1c-0.7,1.7-3,5.7-9.6,9.6
		c0,0-0.7,0.8-1.3,2c-0.1-1-0.9-2.1-0.9-2.1c-6.6-3.9-8.9-8-9.6-9.7c-0.2-0.5-0.3-0.9-0.3-0.9l-8.4,0c0,0,0,0,0,0
		c-0.4,0.2-8.5,5-8.4,18.7h7c0-3.4,0.5-6,1.3-7.9c0,1.4,0,2.6,0,3l0,0.1v12.3h5.1l-0.6-3.1l0,0c4.6,2.6,12.8,2.8,12.8,2.8
		c0.7-0.9,1.3-1.9,1.7-2.9c0.6,1,1.6,2,2.3,2.9c0,0,8.4-0.2,13-2.9l0,0.1l-0.6,3.1H62V86l0,0c0-0.5,0.1-1.6,0.1-2.8
		C62.8,85.2,63.3,87.7,63.3,91.1z M23.2,75.3v-2.7C23.2,72.8,23.2,73.9,23.2,75.3z"/>
	<g>
		<ellipse fill="#E2AE43" cx="42.4" cy="88.5" rx="0.8" ry="0.8"/>
		<ellipse fill="#E2AE43" cx="42.4" cy="92.6" rx="0.8" ry="0.8"/>
		<ellipse fill="#E2AE43" cx="42.4" cy="96.7" rx="0.8" ry="0.8"/>
	</g>
	<path fill="#666E78" d="M27.5,91.1h7.1v-0.3c0,0-7,0-7.1,0C27.4,90.8,27.5,91.1,27.5,91.1z"/>
	<path fill="#666E78" d="M49.6,91.1h7.1v-0.3c0,0-7,0-7.1,0C49.6,90.8,49.6,91.1,49.6,91.1z"/>
	<path fill="#4E84C4" d="M42.6,74.3c0,0-2.1,0.7-3.3,2.5l1.9,2.3c1.2-1.2,2.3-2.4,3-4C43.3,74.4,42.6,74.3,42.6,74.3z"/>
	<g>
		<path fill="#F5F5F9" d="M32.2,72.5c0.6,1,1.7,2.5,3.3,3.9c1.6,1.4,3.2,2.2,4.3,2.6c0.9-1.6,1.9-3.2,2.8-4.8
			c-1-0.1-2.6-0.5-4.2-1.3c-0.3-0.2-0.6-0.3-0.9-0.5L32.2,72.5z"/>
		<path fill="#F5F5F9" d="M47.7,72.6c-0.3,0.2-0.5,0.3-0.8,0.4c-1.7,0.8-3.2,1.2-4.2,1.3c0.9,1.6,1.9,3.2,2.8,4.8
			c1.1-0.4,2.7-1.2,4.3-2.6c1.6-1.4,2.5-2.9,3-3.9L47.7,72.6z"/>
	</g>
</g>
<g>
	<polygon fill="#66666D" points="63,101.3 22.3,101.3 23.2,94.7 62,94.7 	"/>
	<rect x="23" y="94.6" fill="#303037" width="39.3" height="1.3"/>
	<polygon fill="#404049" points="26.3,98.7 25.7,101.3 26.5,101.3 	"/>
	<polygon fill="#404049" points="31.7,98.7 31.1,101.3 31.9,101.3 	"/>
	<polygon fill="#404049" points="37.1,98.7 36.6,101.3 37.3,101.3 	"/>
	<polygon fill="#404049" points="42.6,98.7 42,101.3 42.8,101.3 	"/>
	<polygon fill="#404049" points="58.5,98.7 59.1,101.3 58.3,101.3 	"/>
	<polygon fill="#404049" points="53.1,98.7 53.6,101.3 52.9,101.3 	"/>
	<polygon fill="#404049" points="47.6,98.7 48.2,101.3 47.4,101.3 	"/>
</g>
<g>
	<rect x="26.1" y="102.4" fill="#303037" width="13.5" height="0.2"/>
	<rect x="45.8" y="102.4" fill="#303037" width="13.5" height="0.2"/>
	<g>
		<path fill="#303037" d="M39.5,102C39.6,102,39.6,102,39.5,102c0,0.6-3,1-6.8,1s-6.8-0.4-6.8-0.9c0,0,0,0,0,0l-2.9,0v0.6
			c0,1.1,0.9,2.1,2.1,2.1h15.3c1.1,0,2.1-0.9,2.1-2.1V102L39.5,102z"/>
		<path fill="#303037" d="M45.7,102C45.7,102,45.7,102,45.7,102c0,0.6,3,1,6.8,1s6.8-0.4,6.8-0.9c0,0,0,0,0,0l2.9,0v0.6
			c0,1.1-0.9,2.1-2.1,2.1H44.7c-1.1,0-2.1-0.9-2.1-2.1V102L45.7,102z"/>
	</g>
</g>
</svg>
