<?xml version="1.0" encoding="utf-8"?>
<!-- Generator: Adobe Illustrator 21.0.0, SVG Export Plug-In . SVG Version: 6.00 Build 0)  -->
<svg version="1.2" baseProfile="tiny" id="Capa_1" xmlns="http://www.w3.org/2000/svg" xmlns:xlink="http://www.w3.org/1999/xlink"
	 x="0px" y="0px" viewBox="0 0 90.7 109.4" xml:space="preserve">
<polygon fill="#603818" points="79.4,73.9 11.6,73.9 16.4,21.9 74.7,21.9 "/>
<path fill="#FBD8B7" d="M71.8,19h-53c-2.9,0-5.3,2.4-5.3,5.3v40.1c0,2.9,2.4,5.3,5.3,5.3h7.1c-1,0.6-8.4,5.6-8.3,18.8l0,0
	c0,3.9,3.2,7,7,7v-7h0c0-3.3,0.5-5.9,1.2-7.8V96h0v3.9c0,1.1,0.9,2.1,2.1,2.1h15.3c1.1,0,2.1-0.9,2.1-2.1v-3.6h0.1v3.6
	c0,1.1,0.9,2.1,2.1,2.1h15.3c1.1,0,2.1-0.9,2.1-2.1V96h0V80.9c0.7,1.9,1.3,4.5,1.2,7.8h0v7c3.9,0,7-3.1,7-7l0,0
	c0.1-13.1-7.1-18.1-8.2-18.8h7c2.9,0,5.3-2.4,5.3-5.3V24.3C77.2,21.4,74.8,19,71.8,19z"/>
<path fill="#E3B98C" d="M66.1,88.6"/>
<g>
	<circle fill="#404049" cx="25.8" cy="50.2" r="2.4"/>
	<circle fill="#404049" cx="64.6" cy="50.2" r="2.4"/>
</g>
<path fill="#E1B492" d="M45.3,63.3c-2.2,0-4-1.8-4-4c0-0.4,0.3-0.6,0.6-0.6s0.6,0.3,0.6,0.6c0,1.5,1.2,2.7,2.7,2.7
	c1.5,0,2.7-1.2,2.7-2.7c0-0.4,0.3-0.6,0.6-0.6s0.6,0.3,0.6,0.6C49.3,61.6,47.5,63.3,45.3,63.3z"/>
<g>
	<path fill="#EDC39F" d="M13.5,57c-1.1-0.9-1.9-2.7-1.9-4.6c0-2,0.8-3.7,1.9-4.6L13.5,57z"/>
	<path fill="#EDC39F" d="M77.2,57c1.1-0.9,1.9-2.7,1.9-4.6c0-2-0.8-3.7-1.9-4.6L77.2,57z"/>
	<path fill="#EDC39F" d="M56.6,69.8c0,0.8-0.6,1.4-1.2,1.4H33.2c-0.7,0-1.2-0.6-1.2-1.4H56.6z"/>
	<path fill="#EDC39F" d="M45.3,57L45.3,57c-0.9,0-1.6-0.7-1.6-1.6v-4c0-0.9,0.7-1.6,1.6-1.6h0c0.9,0,1.6,0.7,1.6,1.6v4
		C47,56.3,46.2,57,45.3,57z"/>
	<path fill="#EDC39F" d="M22.5,93L22.5,93c-0.5,0-0.9-0.4-0.9-0.9v-1.5c0-0.5,0.4-0.9,0.9-0.9h0c0.5,0,0.9,0.4,0.9,0.9v1.5
		C23.4,92.6,23,93,22.5,93z"/>
	<path fill="#EDC39F" d="M68.2,93L68.2,93c0.5,0,0.9-0.4,0.9-0.9v-1.5c0-0.5-0.4-0.9-0.9-0.9l0,0c-0.5,0-0.9,0.4-0.9,0.9v1.5
		C67.3,92.6,67.7,93,68.2,93z"/>
</g>
<path fill="#784A1E" d="M78.5,26.2c-0.4-3.4-3.3-17.1-33.3-18.1c-31.8-1-33,18.5-33,18.5l-1.5,44.9c-0.1,1.8,1.3,3.2,3.1,3.2h0.7
	l5.4-43.2c6.5,8.8,21,7.8,21,7.8c-2.3-1.1-2.9-3.8-3.1-5.5c8.8,8,20.5,5.5,20.5,5.5c-2-1-2.8-3.2-3-4.9c6.1,5.1,13.3,5.4,17.1,5.1
	l4.1,35.2h0.7c1.7,0,3.1-1.5,3.1-3.2C80,71.5,78.6,26.6,78.5,26.2z"/>
<path fill="#F06D70" d="M75.3,29.3l-5.1,5.8c-0.5,0.5-1.3,0.6-1.8,0.1v0c-0.5-0.5-0.6-1.3-0.1-1.8l5.1-5.8c0.5-0.5,1.3-0.6,1.8-0.1
	l0,0C75.7,28,75.7,28.8,75.3,29.3z"/>
<path fill="#FFCD58" d="M77.8,31.9l-5.1,5.8c-0.5,0.5-1.3,0.6-1.8,0.1l0,0c-0.5-0.5-0.6-1.3-0.1-1.8l5.1-5.8
	c0.5-0.5,1.3-0.6,1.8-0.1v0C78.3,30.5,78.3,31.3,77.8,31.9z"/>
<g>
	<path fill="#683D18" d="M21.6,47.3c0.3-0.5,0.8-0.9,1.2-1.2c0.5-0.3,1-0.6,1.6-0.8c0.6-0.2,1.2-0.4,1.8-0.4
		c0.6,0.1,1.2,0.3,1.7,0.7l0,0.1c-0.3,0.1-0.6,0.1-0.9,0.2c-0.3,0.1-0.5,0.1-0.8,0.1c-0.5,0.1-1,0-1.5,0.1c-0.5,0.1-1,0.3-1.5,0.5
		C22.6,46.8,22.2,47.1,21.6,47.3L21.6,47.3z"/>
	<path fill="#683D18" d="M69,47.3c-0.3-0.5-0.8-0.9-1.2-1.2c-0.5-0.3-1-0.6-1.6-0.8c-0.6-0.2-1.2-0.4-1.8-0.4
		c-0.6,0.1-1.2,0.3-1.7,0.7l0,0.1c0.3,0.1,0.6,0.1,0.9,0.2c0.3,0.1,0.5,0.1,0.8,0.1c0.5,0.1,1,0,1.5,0.1c0.5,0.1,1,0.3,1.5,0.5
		C68,46.8,68.5,47.1,69,47.3L69,47.3z"/>
</g>
<g>
	<path fill="#E2B88B" d="M66.2,88.6"/>
	<g>
		<path fill="#E6E7EC" d="M20.3,73.9c1.3-1.5,2.9-2.9,5.1-3.9c0.2-0.1,0.4-0.2,0.6-0.2c1.2,1.9,2.4,3.8,3.6,5.7l0.1,0
			c-1.4,2.3-2.8,4.6-4.3,7C23.7,79.6,22,76.8,20.3,73.9z"/>
	</g>
	<g>
		<path fill="#E6E7EC" d="M70.6,73.9c-1.3-1.5-2.9-2.9-5.1-3.9c-0.2-0.1-0.4-0.2-0.6-0.2c-1.2,1.9-2.4,3.8-3.6,5.7l-0.1,0
			c1.3,2.4,2.7,4.7,4,7.1C67,79.7,68.8,76.8,70.6,73.9z"/>
	</g>
	<g>
		<path fill="#F06D70" d="M52,69.8C52,69.8,52,69.8,52,69.8c0.1,1.6-1.4,3.7-6.8,6.3c-5.4-2.6-6.8-4.6-6.8-6.3c0,0,0,0,0,0H26v22.5
			h38.9V69.8H52z"/>
	</g>
	<rect x="26" y="78.9" fill="#F48A85" width="38.9" height="1.8"/>
	<rect x="26" y="71.9" fill="#F48A85" width="12.8" height="1.8"/>
	<rect x="52.1" y="71.9" fill="#F48A85" width="12.8" height="1.8"/>
	<polygon fill="#F48A85" points="64.9,77.4 26,77.4 26,75.6 44.4,75.6 45.3,76 46.2,75.6 64.9,75.6 	"/>
	<rect x="26" y="82.5" fill="#F48A85" width="38.9" height="1.8"/>
	<rect x="26" y="86.1" fill="#F48A85" width="38.9" height="1.8"/>
	<rect x="26" y="89.8" fill="#F48A85" width="38.9" height="1.8"/>
	<path fill="#E6E7EC" d="M38.5,69.8c-0.4,0.3-2.1,1.5-2.3,3.3c-0.2,2.7,3.1,5.2,5.9,4.8c1.6-0.2,2.7-1.3,3.1-1.8
		c-1.4-0.6-2.5-1.3-3.2-1.8c-1.5-1-2-1.5-2.3-1.8c0,0,0-0.1-0.1-0.1C39,71.5,38.7,70.6,38.5,69.8z"/>
	<path fill="#E6E7EC" d="M52,69.8c0.4,0.3,2.1,1.5,2.3,3.3c0.2,2.7-3.1,5.2-5.9,4.8c-1.6-0.2-2.7-1.3-3.1-1.8
		c1.4-0.6,2.5-1.3,3.2-1.8c1.5-1,2-1.5,2.3-1.8c0,0,0-0.1,0.1-0.1C51.5,71.5,51.9,70.6,52,69.8z"/>
</g>
<g>
	<polygon fill="#F8B9B6" points="65.9,97.3 25.2,97.3 26.1,90.8 65,90.8 	"/>
	<rect x="25.9" y="90.6" fill="#FBD5D3" width="39.4" height="1.3"/>
	<polygon fill="#F6A19D" points="29.2,94.7 28.6,97.3 29.4,97.3 	"/>
	<polygon fill="#F6A19D" points="34.6,94.7 34,97.3 34.8,97.3 	"/>
	<polygon fill="#F6A19D" points="40,94.7 39.5,97.3 40.3,97.3 	"/>
	<polygon fill="#F6A19D" points="45.5,94.7 44.9,97.3 45.7,97.3 	"/>
	<polygon fill="#F6A19D" points="61.5,94.7 62,97.3 61.2,97.3 	"/>
	<polygon fill="#F6A19D" points="56,94.7 56.6,97.3 55.8,97.3 	"/>
	<polygon fill="#F6A19D" points="50.6,94.7 51.1,97.3 50.4,97.3 	"/>
</g>
<g>
	<rect x="28.8" y="99.6" fill="#765042" width="13.5" height="0.2"/>
	<rect x="48.5" y="99.6" fill="#765042" width="13.5" height="0.2"/>
	<g>
		<path fill="#765042" d="M42.3,99.3C42.3,99.3,42.3,99.3,42.3,99.3c0,0.6-3,1-6.8,1s-6.8-0.4-6.8-0.9c0,0,0,0,0,0l-2.9,0v0.6
			c0,1.1,0.9,2.1,2.1,2.1h15.3c1.1,0,2.1-0.9,2.1-2.1v-0.6L42.3,99.3z"/>
		<path fill="#765042" d="M48.4,99.3C48.4,99.3,48.4,99.3,48.4,99.3c0,0.6,3,1,6.8,1s6.8-0.4,6.8-0.9c0,0,0,0,0,0l2.9,0v0.6
			c0,1.1-0.9,2.1-2.1,2.1H47.4c-1.1,0-2.1-0.9-2.1-2.1v-0.6L48.4,99.3z"/>
	</g>
</g>
</svg>
