<?xml version="1.0" encoding="utf-8"?>
<!-- Generator: Adobe Illustrator 21.0.0, SVG Export Plug-In . SVG Version: 6.00 Build 0)  -->
<svg version="1.2" baseProfile="tiny" id="Capa_1" xmlns="http://www.w3.org/2000/svg" xmlns:xlink="http://www.w3.org/1999/xlink"
	 x="0px" y="0px" viewBox="0 0 90.7 109.4" xml:space="preserve">
<path fill="#F6DDC8" d="M71.4,21.9h-53c-2.9,0-5.3,2.4-5.3,5.3v38.1c0,2.9,2.4,5.3,5.3,5.3h7.1c-1,0.6-8.4,5.6-8.3,18.8l0,0
	c0,3.9,3.2,7,7,7v-7h0c0-3.3,0.5-5.9,1.2-7.8V97h0v3.9c0,1.1,0.9,2.1,2.1,2.1h15.3c1.1,0,2.1-0.9,2.1-2.1v-3.6h0.1v3.6
	c0,1.1,0.9,2.1,2.1,2.1h15.3c1.1,0,2.1-0.9,2.1-2.1V97h0V81.8c0.7,1.9,1.3,4.5,1.2,7.8h0v7c3.9,0,7-3.1,7-7l0,0
	c0.1-13.1-7.1-18.1-8.2-18.8h7c2.9,0,5.3-2.4,5.3-5.3V27.3C76.7,24.3,74.3,21.9,71.4,21.9z"/>
<path fill="#E3B98C" d="M65.6,89.6"/>
<g>
	<circle fill="#482B17" cx="25.4" cy="51.1" r="2.4"/>
	<circle fill="#482B17" cx="64.2" cy="51.1" r="2.4"/>
</g>
<path fill="#D7B79F" d="M44.9,64.3c-2.2,0-4-1.8-4-4c0-0.4,0.3-0.6,0.6-0.6c0.4,0,0.6,0.3,0.6,0.6c0,1.5,1.2,2.7,2.7,2.7
	c1.5,0,2.7-1.2,2.7-2.7c0-0.4,0.3-0.6,0.6-0.6c0.4,0,0.6,0.3,0.6,0.6C48.8,62.5,47.1,64.3,44.9,64.3z"/>
<g>
	<path fill="#E7CBB5" d="M13,58c-1.1-0.9-1.9-2.7-1.9-4.6c0-2,0.8-3.7,1.9-4.6L13,58z"/>
	<path fill="#E7CBB5" d="M76.7,58c1.1-0.9,1.9-2.7,1.9-4.6c0-2-0.8-3.7-1.9-4.6L76.7,58z"/>
	<path fill="#E7CBB5" d="M56.2,70.8c0,0.8-0.6,1.4-1.2,1.4H32.8c-0.7,0-1.2-0.6-1.2-1.4H56.2z"/>
	<path fill="#E7CBB5" d="M44.9,58L44.9,58c-0.9,0-1.6-0.7-1.6-1.6v-4c0-0.9,0.7-1.6,1.6-1.6h0c0.9,0,1.6,0.7,1.6,1.6v4
		C46.5,57.2,45.8,58,44.9,58z"/>
	<path fill="#E7CBB5" d="M22,93.9L22,93.9c-0.5,0-0.9-0.4-0.9-0.9v-1.5c0-0.5,0.4-0.9,0.9-0.9h0c0.5,0,0.9,0.4,0.9,0.9V93
		C22.9,93.5,22.5,93.9,22,93.9z"/>
	<path fill="#E7CBB5" d="M67.8,93.9L67.8,93.9c0.5,0,0.9-0.4,0.9-0.9v-1.5c0-0.5-0.4-0.9-0.9-0.9l0,0c-0.5,0-0.9,0.4-0.9,0.9V93
		C66.9,93.5,67.3,93.9,67.8,93.9z"/>
</g>
<path fill="#BE3C3C" d="M13.1,46.6c0.5-1.7,1-3.6,1.4-5.7c0.5-2.6,0.7-5.1,0.8-7.2c0.3-1,0.7-2,1.4-3.2c1-1.8,2.1-3.2,3-4.2
	c1.7,2.5,3.3,3.4,4.6,3.7c1.5,0.4,4.7,0.6,5.9,1.4c0.1,0.1,0.3,0.2,0.7,0.3c0.8,0.2,1.4-0.2,1.6-0.3c1.3-0.6,2.7-0.5,4.1-0.8
	c4.9-1,7.5,1.3,10.5-0.6c0.8-0.5,1.4-1.2,3.7-2.7c0.6-0.4,1.3-0.8,2.2-1.2c0,0,1.1-0.5,2.2-0.8c2.9-0.7,4,1.1,7.5,0.8
	c2-0.2,3-0.9,4.2-0.1c0.7,0.4,0.7,0.9,1.6,1.5c0.9,0.6,1.6,0.5,2.4,0.7c0.9,0.2,2.1,0.8,3.5,2.2c-0.7,0.8-1.4,1.6-2.2,2.4
	c2.2-1.1,3.5,0.8,3.5,0.8c-1.5-0.5-3.5,1.2-3.5,1.2c3.5,2.6,4.3,4.6,4.4,6c0,0.1,0,0.2,0.1,2.5c0,0.9,0.1,2.6,0.1,3.5
	c2-5.5,2.4-7.4,2.3-7.9c0,0-0.1-0.5-0.2-1.2c-0.1-0.3-0.1-0.5-0.1-0.7c-0.3-2.4,0.1-3.6,0.1-5.2c0.1-2.8-1.1-5-2.1-6.9
	c-0.9-1.7-1.6-3.1-3.2-4.3c-1.5-1.1-2.2-0.9-3.7-2.2c-1.6-1.4-1.3-1.9-2.7-3c-1.2-0.9-1.4-0.5-4.1-1.9c-1.3-0.7-2.3-1.1-3.4-2
	c-1.6-1.2-1.3-1.4-2.5-2.2c-0.6-0.3-2.4-1.4-4.6-1.2c-0.4,0-0.3,0.1-0.7,0.1c-1.2,0.1-1.6-0.1-4-0.4c-1.4-0.2-2.2-0.3-3-0.2
	c-0.3,0-1.3,0.1-2.6,0.5c-1.2,0.4-1.5,0.7-2.8,1c-0.4,0.1-0.9,0.2-1.5,0.3c-2.2,0.2-2.7-0.3-4.2,0.3c-1.2,0.5-1.4,1-3,1.7
	c-1,0.4-1.2,0.3-2.9,0.8c-2,0.6-3.1,0.9-4,1.6c-1.2,0.9-0.8,1.3-2.4,2.8c-0.8,0.8-0.9,0.7-3.1,2.3c-1.3,1-2,1.5-2.5,2
	c-0.4,0.4-1.4,1.5-2.2,3.2c-1.1,2.4-1.1,4.6-1,5.8c-0.6,1.5-1.1,3.5-1.3,5.8C11,40.6,12.2,44.4,13.1,46.6z"/>
<g>
	<path fill="#BE3C3C" d="M21,48.2c0.3-0.5,0.8-0.9,1.2-1.2c0.5-0.3,1-0.6,1.6-0.8c0.6-0.2,1.2-0.4,1.8-0.4c0.6,0.1,1.2,0.3,1.7,0.7
		l0,0.1c-0.3,0.1-0.6,0.1-0.9,0.2c-0.3,0.1-0.5,0.1-0.8,0.1c-0.5,0.1-1,0-1.5,0.1c-0.5,0.1-1,0.3-1.5,0.5C22,47.7,21.5,48,21,48.2
		L21,48.2z"/>
	<path fill="#BE3C3C" d="M68.3,48.2c-0.3-0.5-0.8-0.9-1.2-1.2c-0.5-0.3-1-0.6-1.6-0.8c-0.6-0.2-1.2-0.4-1.8-0.4
		c-0.6,0.1-1.2,0.3-1.7,0.7l0,0.1c0.3,0.1,0.6,0.1,0.9,0.2c0.3,0.1,0.5,0.1,0.8,0.1c0.5,0.1,1,0,1.5,0.1c0.5,0.1,1,0.3,1.5,0.5
		C67.3,47.7,67.8,48,68.3,48.2L68.3,48.2z"/>
</g>
<g>
	<g>
		<circle fill="#E0B391" cx="30.5" cy="55.6" r="0.5"/>
		<circle fill="#E0B391" cx="25.6" cy="55.6" r="0.5"/>
		<circle fill="#E0B391" cx="20.7" cy="55.6" r="0.5"/>
		<circle fill="#E0B391" cx="28.2" cy="58.5" r="0.5"/>
		<circle fill="#E0B391" cx="23.3" cy="58.5" r="0.5"/>
	</g>
	<g>
		<circle fill="#E0B391" cx="69.5" cy="55.6" r="0.5"/>
		<circle fill="#E0B391" cx="64.6" cy="55.6" r="0.5"/>
		<circle fill="#E0B391" cx="59.7" cy="55.6" r="0.5"/>
		<circle fill="#E0B391" cx="67.2" cy="58.5" r="0.5"/>
		<circle fill="#E0B391" cx="62.2" cy="58.5" r="0.5"/>
	</g>
</g>
<g>
	<g>
		<path fill="#6595CB" d="M17.2,89.5c-0.1-14,8.1-18.9,8.4-19.1l3.6,5.7l0.1,0c-0.2,0.1-5.1,3.3-5.1,13.3L17.2,89.5z"/>
	</g>
	<g>
		<path fill="#6595CB" d="M72.6,89.6c0.2-14-8-18.9-8.3-19.1l-3.7,5.7l-0.1,0c0.2,0.1,5.1,3.4,5,13.4L72.6,89.6z"/>
	</g>
	<path fill="#6595CB" d="M64.4,70.7l0,21.9l-39,0.1l0-22.1l11.2,0c0.9,1.7,2.3,3.8,4.3,6c1.4,1.4,3,2,4.2,2.8
		c1.3-0.9,2.8-1.7,4.4-3.5c1.7-1.9,2.8-3.8,3.6-5.2C57,70.7,60.7,70.7,64.4,70.7z"/>
	<g>
		
			<ellipse transform="matrix(3.230737e-03 -1 1 3.230737e-03 -36.9007 127.7571)" fill="#F3DFBF" cx="45.6" cy="82.4" rx="0.6" ry="0.6"/>
		
			<ellipse transform="matrix(3.230737e-03 -1 1 3.230737e-03 -40.663 131.4832)" fill="#F3DFBF" cx="45.6" cy="86.1" rx="0.6" ry="0.6"/>
		
			<ellipse transform="matrix(3.230737e-03 -1 1 3.230737e-03 -44.4253 135.2093)" fill="#F3DFBF" cx="45.6" cy="89.9" rx="0.6" ry="0.6"/>
	</g>
	<path fill="#4E84C4" d="M36.7,70.6c0.6,1.3,1.6,3.2,3.4,5.1c1.9,2,3.8,3.1,5.1,3.8c-1.2,1.6-2.4,3.3-3.6,4.9
		c-2.2-3.1-4.3-6.2-6.5-9.2C35.7,73.6,36.2,72.1,36.7,70.6z"/>
	<path fill="#4E84C4" d="M53.5,70.3c-0.8,1.4-1.9,3.1-3.5,4.8c-1.7,1.9-3.4,3.3-4.8,4.3c1.3,1.6,2.5,3.2,3.8,4.8
		c2.1-3.2,4.1-6.3,6.2-9.5C54.6,73.3,54,71.8,53.5,70.3z"/>
	<path fill="#4E84C4" d="M54.2,81.9c0,1.6,0.1,3.2,0.1,4.8l2.1,1l2-1.1l0.5-4.8L54.2,81.9z"/>
	<path fill="#3972A9" d="M56.4,87.6l-0.1-0.1L56.4,87.6L56.4,87.6l0.1-0.1l0,0L56.4,87.6z M56.1,87.4l-0.2-0.1l0,0L56.1,87.4
		L56.1,87.4z M56.7,87.4L56.7,87.4l0.2-0.2l0,0L56.7,87.4z M55.7,87.2l-0.2-0.1l0,0L55.7,87.2L55.7,87.2z M57,87.2L57,87.2l0.2-0.2
		l0,0L57,87.2z M55.3,87l-0.2-0.1l0,0L55.3,87L55.3,87z M57.4,87L57.4,87l0.2-0.2l0,0L57.4,87z M54.9,86.8l-0.2-0.1l0,0L54.9,86.8
		L54.9,86.8z M57.8,86.8L57.8,86.8l0.2-0.2l0,0L57.8,86.8z M54.5,86.6L54.5,86.6L54.5,86.6l-0.1-0.2l0.1,0L54.5,86.6L54.5,86.6
		L54.5,86.6z M58.2,86.6L58.2,86.6L58.2,86.6l0-0.2l0.1,0L58.2,86.6L58.2,86.6z M54.4,86.2l0-0.2l0.1,0L54.4,86.2L54.4,86.2z
		 M58.3,86.1L58.3,86.1l0-0.2l0.1,0L58.3,86.1z M54.4,85.8l0-0.2l0.1,0L54.4,85.8L54.4,85.8z M58.3,85.7L58.3,85.7l0-0.2l0.1,0
		L58.3,85.7z M54.4,85.4l0-0.2l0.1,0L54.4,85.4L54.4,85.4z M58.4,85.3L58.4,85.3l0-0.2l0.1,0L58.4,85.3z M54.4,84.9l0-0.2l0.1,0
		L54.4,84.9L54.4,84.9z M58.4,84.8L58.4,84.8l0-0.2l0.1,0L58.4,84.8z M54.4,84.5l0-0.2l0.1,0L54.4,84.5L54.4,84.5z M58.5,84.4
		L58.5,84.4l0-0.2l0.1,0L58.5,84.4z M54.3,84l0-0.2l0.1,0L54.3,84L54.3,84z M58.5,83.9L58.5,83.9l0-0.2l0.1,0L58.5,83.9z M54.3,83.6
		l0-0.2l0.1,0L54.3,83.6L54.3,83.6z M58.5,83.5L58.5,83.5l0-0.2l0.1,0L58.5,83.5z M54.3,83.2l0-0.2l0.1,0L54.3,83.2L54.3,83.2z
		 M58.6,83.1L58.6,83.1l0-0.2l0.1,0L58.6,83.1z M54.3,82.7l0-0.2l0.1,0L54.3,82.7L54.3,82.7z M58.6,82.6L58.6,82.6l0-0.2l0.1,0
		L58.6,82.6z M54.3,82.3l0-0.2l0.1,0L54.3,82.3L54.3,82.3z M58.7,82.2L58.7,82.2l0-0.2l0.1,0L58.7,82.2z"/>
	<path fill="#3972A9" d="M54.1,81.9c0.1,0.4,0.2,0.9,0.2,1.3c0.8,0.3,1.6,0.7,2.3,1c0.7-0.3,1.5-0.7,2.2-1c0-0.5,0-1,0-1.4
		C57.3,81.8,55.7,81.8,54.1,81.9z"/>
	
		<ellipse transform="matrix(3.230737e-03 -1 1 3.230737e-03 -26.9151 139.6286)" fill="#F3DFBF" cx="56.6" cy="83.3" rx="0.5" ry="0.5"/>
	<g>
		<path fill="#4E84C4" d="M31.6,82.4c0,1.6,0.1,3.2,0.1,4.8l2.1,1l2-1.1l0.5-4.8L31.6,82.4z"/>
		<path fill="#3972A9" d="M33.8,88L33.7,88L33.8,88L33.8,88l0.1-0.1l0,0L33.8,88z M33.5,87.9l-0.2-0.1l0,0L33.5,87.9L33.5,87.9z
			 M34.1,87.8L34.1,87.8l0.2-0.2l0,0L34.1,87.8z M33.1,87.7l-0.2-0.1l0,0L33.1,87.7L33.1,87.7z M34.5,87.6L34.5,87.6l0.2-0.2l0,0
			L34.5,87.6z M32.7,87.5l-0.2-0.1l0,0L32.7,87.5L32.7,87.5z M34.8,87.4L34.8,87.4l0.2-0.2l0,0L34.8,87.4z M32.3,87.3l-0.2-0.1l0,0
			L32.3,87.3L32.3,87.3z M35.2,87.2L35.2,87.2l0.2-0.2l0,0L35.2,87.2z M31.9,87.1L31.9,87.1L31.9,87.1l-0.1-0.2l0.1,0L31.9,87.1
			L31.9,87.1L31.9,87.1z M35.6,87L35.6,87L35.6,87l0-0.2l0.1,0L35.6,87L35.6,87z M31.8,86.7l0-0.2l0.1,0L31.8,86.7L31.8,86.7z
			 M35.7,86.6L35.7,86.6l0-0.2l0.1,0L35.7,86.6z M31.8,86.2l0-0.2l0.1,0L31.8,86.2L31.8,86.2z M35.7,86.1L35.7,86.1l0-0.2l0.1,0
			L35.7,86.1z M31.8,85.8l0-0.2l0.1,0L31.8,85.8L31.8,85.8z M35.8,85.7L35.8,85.7l0-0.2l0.1,0L35.8,85.7z M31.8,85.4l0-0.2l0.1,0
			L31.8,85.4L31.8,85.4z M35.8,85.3L35.8,85.3l0-0.2l0.1,0L35.8,85.3z M31.8,84.9l0-0.2l0.1,0L31.8,84.9L31.8,84.9z M35.9,84.8
			L35.9,84.8l0-0.2l0.1,0L35.9,84.8z M31.8,84.5l0-0.2l0.1,0L31.8,84.5L31.8,84.5z M35.9,84.4L35.9,84.4l0-0.2l0.1,0L35.9,84.4z
			 M31.7,84.1l0-0.2l0.1,0L31.7,84.1L31.7,84.1z M36,84L36,84l0-0.2l0.1,0L36,84z M31.7,83.6l0-0.2l0.1,0L31.7,83.6L31.7,83.6z
			 M36,83.5L36,83.5l0-0.2l0.1,0L36,83.5z M31.7,83.2l0-0.2l0.1,0L31.7,83.2L31.7,83.2z M36,83.1L36,83.1l0-0.2l0.1,0L36,83.1z
			 M31.7,82.8l0-0.2l0.1,0L31.7,82.8L31.7,82.8z M36.1,82.7L36.1,82.7l0-0.2l0.1,0L36.1,82.7z"/>
		<path fill="#3972A9" d="M31.5,82.3c0.1,0.4,0.2,0.9,0.2,1.3c0.8,0.3,1.6,0.7,2.3,1c0.7-0.3,1.5-0.7,2.2-1c0-0.5,0-1,0-1.4
			C34.7,82.3,33.1,82.3,31.5,82.3z"/>
	</g>
	
		<ellipse transform="matrix(3.230737e-03 -1 1 3.230737e-03 -49.879 117.5012)" fill="#F3DFBF" cx="34" cy="83.8" rx="0.5" ry="0.5"/>
	<g>
		<g>
			<path fill="#3972A9" d="M25,81.9C25,81.9,25,81.9,25,81.9c-0.1,0-0.1-0.1-0.1-0.2c0.1-0.1,0.1-0.2,0.2-0.2c0,0,0.1,0,0.1,0
				c0,0,0,0.1,0,0.1C25.2,81.8,25.1,81.8,25,81.9C25.1,81.9,25,81.9,25,81.9z"/>
			<path fill="#3972A9" d="M23.7,88.5C23.7,88.5,23.6,88.5,23.7,88.5c-0.1-0.3-0.1-0.5-0.1-0.7c0-0.1,0-0.1,0.1-0.1
				c0,0,0.1,0,0.1,0.1C23.8,88.1,23.8,88.3,23.7,88.5C23.8,88.5,23.8,88.5,23.7,88.5L23.7,88.5z M23.7,87.4
				C23.7,87.4,23.6,87.3,23.7,87.4c-0.1-0.3-0.1-0.5-0.1-0.6l0,0c0-0.1,0-0.1,0.1-0.1s0.1,0,0.1,0.1l0,0
				C23.8,86.9,23.8,87.1,23.7,87.4C23.8,87.3,23.8,87.4,23.7,87.4L23.7,87.4z M23.7,86.2C23.7,86.2,23.7,86.2,23.7,86.2
				C23.7,86.2,23.6,86.2,23.7,86.2c-0.1-0.3-0.1-0.5-0.1-0.7c0-0.1,0-0.1,0.1-0.1c0.1,0,0.1,0.1,0.1,0.1
				C23.8,85.8,23.8,86,23.7,86.2C23.8,86.2,23.8,86.2,23.7,86.2z M23.8,85.1L23.8,85.1c-0.1,0-0.1-0.1-0.1-0.1c0-0.2,0-0.4,0.1-0.6
				c0-0.1,0.1-0.1,0.1-0.1c0.1,0,0.1,0.1,0.1,0.1C24,84.7,24,84.8,23.8,85.1C23.9,85.1,23.9,85.1,23.8,85.1z M24,84
				C24,84,24,84,24,84c-0.1,0-0.1-0.1-0.1-0.1c0-0.2,0.1-0.4,0.2-0.6c0,0,0.1-0.1,0.1-0.1c0,0,0.1,0.1,0.1,0.1
				C24.2,83.6,24.2,83.7,24,84C24.1,84,24.1,84,24,84z M24.4,82.9C24.4,82.9,24.4,82.9,24.4,82.9c-0.1,0-0.1-0.1-0.1-0.1
				c0.1-0.2,0.2-0.3,0.3-0.5c0,0,0.1-0.1,0.1,0c0,0,0.1,0.1,0,0.1C24.7,82.5,24.6,82.7,24.4,82.9C24.5,82.9,24.5,82.9,24.4,82.9z"/>
			<path fill="#3972A9" d="M23.8,89.4C23.7,89.4,23.7,89.3,23.8,89.4L23.7,89c0-0.1,0-0.1,0.1-0.1c0.1,0,0.1,0,0.1,0.1L23.8,89.4
				C23.9,89.3,23.8,89.4,23.8,89.4L23.8,89.4z"/>
		</g>
		<path fill="#3972A9" d="M23.2,88.5L23.2,88.5l-0.5,0c-0.1,0-0.1,0-0.1-0.1c0-0.1,0-0.1,0.1-0.1h0l0.5,0
			C23.3,88.3,23.3,88.4,23.2,88.5C23.3,88.5,23.3,88.5,23.2,88.5z M22.1,88.5L22.1,88.5l-0.5,0c-0.1,0-0.1,0-0.1-0.1
			c0-0.1,0-0.1,0.1-0.1h0l0.5,0C22.2,88.3,22.2,88.4,22.1,88.5C22.2,88.5,22.2,88.5,22.1,88.5z M21,88.5L21,88.5l-0.5,0
			c-0.1,0-0.1,0-0.1-0.1c0-0.1,0-0.1,0.1-0.1h0l0.5,0C21.1,88.3,21.1,88.4,21,88.5C21.1,88.5,21.1,88.5,21,88.5z M20,88.5L20,88.5
			l-0.5,0c-0.1,0-0.1,0-0.1-0.1c0-0.1,0-0.1,0.1-0.1l0,0l0.5,0C20,88.3,20,88.3,20,88.5C20,88.4,20,88.5,20,88.5z M18.9,88.5
			L18.9,88.5l-0.5,0c-0.1,0-0.1,0-0.1-0.1c0-0.1,0-0.1,0.1-0.1l0,0l0.5,0C18.9,88.3,19,88.3,18.9,88.5C19,88.4,18.9,88.5,18.9,88.5z
			 M17.8,88.5L17.8,88.5l-0.5,0c-0.1,0-0.1,0-0.1-0.1c0-0.1,0.1-0.1,0.1-0.1l0.5,0C17.8,88.3,17.9,88.3,17.8,88.5
			C17.9,88.4,17.8,88.5,17.8,88.5z"/>
		<path fill="#3972A9" d="M28.6,72.6C28.5,72.6,28.5,72.6,28.6,72.6c-0.1-0.1-0.1-0.2,0-0.2c0.2,0,0.4,0,0.5,0l0,0
			c0.1,0,0.1,0,0.1,0.1c0,0.1,0,0.1-0.1,0.1C29,72.6,28.8,72.6,28.6,72.6L28.6,72.6z M28,72.6L28,72.6c-0.2,0-0.4,0-0.5,0
			c-0.1,0-0.1,0-0.1-0.1c0-0.1,0-0.1,0.1-0.1l0,0c0.2,0,0.4,0,0.5,0C28.1,72.5,28.1,72.5,28,72.6C28.1,72.6,28.1,72.6,28,72.6z
			 M29.7,72.6C29.6,72.6,29.6,72.6,29.7,72.6c-0.1-0.1-0.1-0.2,0-0.2c0.2,0,0.4,0,0.5,0c0,0,0,0,0,0c0.1,0,0.1,0,0.1,0.1
			c0,0.1,0,0.1-0.1,0.1C30,72.6,29.9,72.6,29.7,72.6C29.7,72.6,29.7,72.6,29.7,72.6z M30.8,72.6C30.7,72.6,30.7,72.6,30.8,72.6
			c-0.1-0.1-0.1-0.2,0-0.2c0.2,0,0.4,0,0.5,0l0,0c0.1,0,0.1,0,0.1,0.1c0,0.1,0,0.1-0.1,0.1C31.1,72.6,30.9,72.6,30.8,72.6L30.8,72.6
			z M31.8,72.6C31.8,72.6,31.8,72.5,31.8,72.6c-0.1-0.1-0.1-0.2,0-0.2c0.2,0,0.4,0,0.5,0c0.1,0,0.1,0,0.1,0.1c0,0.1,0,0.1-0.1,0.1
			C32.2,72.6,32,72.6,31.8,72.6C31.9,72.6,31.9,72.6,31.8,72.6z M32.9,72.5C32.9,72.5,32.8,72.5,32.9,72.5c-0.1-0.1-0.1-0.2,0-0.2
			c0.2,0,0.4,0,0.5,0c0.1,0,0.1,0,0.1,0.1c0,0.1,0,0.1-0.1,0.1C33.3,72.5,33.1,72.5,32.9,72.5C32.9,72.5,32.9,72.5,32.9,72.5z
			 M34,72.4C34,72.4,33.9,72.4,34,72.4c-0.1-0.1-0.1-0.2,0-0.2c0,0,0,0,0,0c0.2,0,0.4,0,0.5,0c0.1,0,0.1,0,0.1,0.1
			c0,0.1,0,0.1-0.1,0.1C34.4,72.4,34.2,72.4,34,72.4C34,72.4,34,72.4,34,72.4z M35.1,72.4C35.1,72.4,35,72.3,35.1,72.4
			c-0.1-0.1-0.1-0.2,0-0.2c0.2,0,0.4,0,0.5,0c0.1,0,0.1,0,0.1,0.1c0,0.1,0,0.1-0.1,0.1C35.5,72.3,35.3,72.3,35.1,72.4L35.1,72.4z"/>
		<path fill="#3972A9" d="M28.6,73.1L28.6,73.1c-0.1,0-0.2,0-0.2-0.1c0-0.1,0-0.1,0.1-0.1l0.5,0h0c0.1,0,0.1,0,0.1,0.1
			c0,0.1,0,0.1-0.1,0.1L28.6,73.1z M28,73.1L28,73.1c-0.2,0-0.4,0-0.5,0c-0.1,0-0.1,0-0.1-0.1c0-0.1,0.1-0.1,0.1-0.1
			c0.2,0,0.3,0,0.5,0C28,72.9,28.1,73,28,73.1C28.1,73.1,28,73.1,28,73.1z M29.6,73.1C29.5,73.1,29.5,73.1,29.6,73.1
			c-0.1-0.1-0.1-0.2,0-0.2l0.5,0l0,0c0.1,0,0.1,0,0.1,0.1c0,0.1,0,0.1-0.1,0.1L29.6,73.1L29.6,73.1z M30.7,73.1
			C30.6,73.1,30.6,73.1,30.7,73.1c-0.1-0.1-0.1-0.2,0-0.2c0.2,0,0.4,0,0.5,0c0,0,0.1,0,0.1,0.1c0,0.1,0,0.1-0.1,0.1
			C31,73.1,30.9,73.1,30.7,73.1L30.7,73.1z M31.8,73.1C31.7,73.1,31.7,73,31.8,73.1c-0.1-0.1-0.1-0.2,0-0.2c0.2,0,0.4,0,0.5,0
			c0,0,0.1,0,0.1,0.1c0,0.1,0,0.1-0.1,0.1C32.1,73.1,31.9,73.1,31.8,73.1C31.8,73.1,31.8,73.1,31.8,73.1z M32.8,73
			C32.8,73,32.8,73,32.8,73c-0.1-0.1-0.1-0.2,0-0.2l0.5,0c0,0,0.1,0,0.1,0.1c0,0.1,0,0.1-0.1,0.1L32.8,73L32.8,73z M33.9,73
			C33.9,73,33.8,72.9,33.9,73c-0.1-0.1-0.1-0.2,0-0.2c0.2,0,0.4,0,0.5,0c0.1,0,0.1,0,0.1,0.1c0,0.1,0,0.1-0.1,0.1
			C34.3,72.9,34.1,73,33.9,73C33.9,73,33.9,73,33.9,73z M35,72.9C35,72.9,34.9,72.9,35,72.9c-0.1-0.1-0.1-0.2,0-0.2
			c0.2,0,0.4,0,0.5,0c0.1,0,0.1,0,0.1,0.1c0,0.1,0,0.1-0.1,0.1C35.4,72.9,35.2,72.9,35,72.9C35,72.9,35,72.9,35,72.9z"/>
		<path fill="#3972A9" d="M25.5,80.4C25.5,80.4,25.5,80.4,25.5,80.4c-0.1,0-0.1-0.1-0.1-0.1l0.1-0.2c0,0,0.1-0.1,0.1-0.1
			c0,0,0.1,0.1,0.1,0.1L25.5,80.4C25.6,80.4,25.5,80.4,25.5,80.4z M25.7,79.7C25.7,79.7,25.7,79.7,25.7,79.7c-0.1,0-0.1-0.1-0.1-0.1
			c0.1-0.1,0.1-0.3,0.2-0.4l0-0.1c0,0,0.1-0.1,0.1-0.1c0,0,0.1,0.1,0.1,0.1l0,0.1C25.9,79.4,25.9,79.5,25.7,79.7
			C25.8,79.7,25.8,79.7,25.7,79.7z M26.1,78.7C26.1,78.7,26.1,78.7,26.1,78.7c-0.1,0-0.1-0.1-0.1-0.1c0.1-0.2,0.1-0.4,0.2-0.5
			c0-0.1,0.1-0.1,0.1-0.1c0.1,0,0.1,0.1,0.1,0.1C26.3,78.2,26.3,78.4,26.1,78.7C26.2,78.7,26.1,78.7,26.1,78.7z M26.4,77.6
			C26.4,77.6,26.4,77.6,26.4,77.6c-0.1,0-0.1-0.1-0.1-0.1l0,0c0.1-0.2,0.1-0.3,0.1-0.5c0,0,0.1-0.1,0.1-0.1c0.1,0,0.1,0.1,0.1,0.1
			c0,0.1-0.1,0.3-0.1,0.5L26.4,77.6C26.5,77.6,26.5,77.6,26.4,77.6z M26.7,76.6C26.7,76.6,26.7,76.6,26.7,76.6
			c-0.1,0-0.1-0.1-0.1-0.1c0-0.2,0.1-0.4,0.1-0.5c0-0.1,0.1-0.1,0.1-0.1c0.1,0,0.1,0.1,0.1,0.1C26.9,76.1,26.9,76.3,26.7,76.6
			C26.8,76.6,26.8,76.6,26.7,76.6z M26.9,75.5L26.9,75.5C26.8,75.5,26.8,75.5,26.9,75.5c-0.1-0.2-0.1-0.2-0.1-0.3c0-0.1,0-0.2,0-0.4
			c0-0.1,0-0.1,0.1-0.1c0.1,0,0.1,0,0.1,0.1c0,0.1,0,0.3,0,0.4C27,75.3,27,75.4,26.9,75.5C27,75.5,26.9,75.5,26.9,75.5z M26.8,74.4
			C26.8,74.4,26.7,74.4,26.8,74.4c-0.1-0.3-0.1-0.4-0.2-0.6c0-0.1,0-0.1,0.1-0.1c0.1,0,0.1,0,0.1,0.1c0,0.2,0.1,0.4,0.1,0.5
			C26.9,74.4,26.9,74.4,26.8,74.4C26.8,74.4,26.8,74.4,26.8,74.4z M26.6,73.4C26.6,73.4,26.5,73.3,26.6,73.4
			c-0.1-0.2-0.2-0.4-0.3-0.6c0,0,0-0.1,0.1-0.1c0,0,0.1,0,0.1,0.1c0.1,0.2,0.1,0.4,0.2,0.5C26.7,73.3,26.7,73.3,26.6,73.4
			C26.6,73.4,26.6,73.4,26.6,73.4z M26.2,72.3C26.2,72.3,26.1,72.3,26.2,72.3l-0.3-0.5c0,0,0-0.1,0-0.1c0,0,0.1,0,0.1,0l0.2,0.5
			C26.3,72.3,26.3,72.3,26.2,72.3C26.2,72.3,26.2,72.3,26.2,72.3z M25.7,71.4C25.7,71.4,25.7,71.3,25.7,71.4
			c-0.2-0.2-0.2-0.4-0.3-0.5c0,0,0-0.1,0-0.1c0,0,0.1,0,0.1,0c0.1,0.2,0.2,0.3,0.3,0.5C25.8,71.3,25.8,71.3,25.7,71.4
			C25.8,71.4,25.7,71.4,25.7,71.4z"/>
		<path fill="#3972A9" d="M26,80.4C26,80.4,25.9,80.4,26,80.4c-0.1,0-0.1-0.1-0.1-0.1l0.1-0.2c0,0,0.1-0.1,0.1-0.1
			c0,0,0.1,0.1,0.1,0.1L26,80.4C26,80.3,26,80.4,26,80.4z M26.2,79.7C26.2,79.7,26.2,79.7,26.2,79.7c-0.1,0-0.1-0.1-0.1-0.1
			c0.1-0.1,0.1-0.3,0.2-0.4l0-0.1l0.1,0l0.1,0l0,0.1C26.4,79.3,26.4,79.5,26.2,79.7C26.3,79.7,26.3,79.7,26.2,79.7z M26.6,78.7
			C26.6,78.7,26.6,78.7,26.6,78.7c-0.1,0-0.1-0.1-0.1-0.1c0.1-0.2,0.1-0.4,0.2-0.5c0-0.1,0.1-0.1,0.1-0.1c0.1,0,0.1,0.1,0.1,0.1
			C26.8,78.2,26.7,78.4,26.6,78.7C26.7,78.6,26.6,78.7,26.6,78.7z M26.9,77.6C26.9,77.6,26.9,77.6,26.9,77.6c-0.1,0-0.1-0.1-0.1-0.1
			l0,0c0.1-0.2,0.1-0.3,0.1-0.5c0,0,0.1-0.1,0.1-0.1c0.1,0,0.1,0.1,0.1,0.1c0,0.1-0.1,0.3-0.1,0.5L26.9,77.6
			C27,77.6,27,77.6,26.9,77.6z M27.2,76.6C27.2,76.6,27.2,76.6,27.2,76.6c-0.1,0-0.1-0.1-0.1-0.1c0-0.2,0.1-0.4,0.1-0.5
			c0-0.1,0-0.1,0.1-0.1c0.1,0,0.1,0.1,0.1,0.1C27.4,76.1,27.4,76.3,27.2,76.6C27.3,76.5,27.3,76.6,27.2,76.6z M27.4,75.5L27.4,75.5
			C27.3,75.5,27.3,75.4,27.4,75.5c-0.1-0.2-0.1-0.2-0.1-0.3c0-0.1,0-0.2,0-0.4c0-0.1,0-0.1,0.1-0.1c0.1,0,0.1,0,0.1,0.1
			c0,0.1,0,0.3,0,0.4C27.5,75.3,27.5,75.3,27.4,75.5C27.5,75.4,27.4,75.5,27.4,75.5z M27.3,74.4C27.3,74.4,27.2,74.4,27.3,74.4
			c-0.1-0.3-0.1-0.4-0.2-0.6c0-0.1,0-0.1,0.1-0.1c0.1,0,0.1,0,0.1,0.1c0,0.2,0.1,0.4,0.1,0.5C27.4,74.3,27.4,74.4,27.3,74.4
			C27.3,74.4,27.3,74.4,27.3,74.4z M27.1,73.3C27,73.3,27,73.3,27.1,73.3c-0.1-0.2-0.2-0.4-0.3-0.6c0,0,0-0.1,0.1-0.1
			c0,0,0.1,0,0.1,0.1c0.1,0.2,0.1,0.4,0.2,0.5C27.2,73.3,27.2,73.3,27.1,73.3C27.1,73.3,27.1,73.3,27.1,73.3z M26.7,72.3
			C26.6,72.3,26.6,72.3,26.7,72.3l-0.3-0.5c0,0,0-0.1,0-0.1c0,0,0.1,0,0.1,0l0.2,0.5C26.8,72.2,26.8,72.3,26.7,72.3
			C26.7,72.3,26.7,72.3,26.7,72.3z M26.2,71.3C26.2,71.3,26.1,71.3,26.2,71.3c-0.2-0.2-0.2-0.4-0.3-0.5c0,0,0-0.1,0-0.1
			c0,0,0.1,0,0.1,0c0.1,0.2,0.2,0.3,0.3,0.5C26.3,71.2,26.3,71.3,26.2,71.3C26.2,71.3,26.2,71.3,26.2,71.3z"/>
		<path fill="#3972A9" d="M23.2,88.1L23.2,88.1l-0.5,0c-0.1,0-0.1,0-0.1-0.1c0-0.1,0-0.1,0.1-0.1h0l0.5,0
			C23.2,87.9,23.3,87.9,23.2,88.1C23.3,88,23.2,88.1,23.2,88.1z M22.1,88L22.1,88l-0.5,0c-0.1,0-0.1,0-0.1-0.1c0-0.1,0-0.1,0.1-0.1
			h0l0.5,0C22.2,87.8,22.2,87.9,22.1,88C22.2,88,22.2,88,22.1,88z M21,88L21,88l-0.5,0c-0.1,0-0.1,0-0.1-0.1c0-0.1,0-0.1,0.1-0.1
			l0,0l0.5,0C21.1,87.8,21.1,87.9,21,88C21.1,88,21.1,88,21,88z M19.9,88L19.9,88l-0.5,0c-0.1,0-0.1,0-0.1-0.1c0-0.1,0-0.1,0.1-0.1
			l0,0l0.5,0C20,87.8,20,87.9,19.9,88C20,88,20,88,19.9,88z M18.8,88L18.8,88c-0.2,0-0.4,0-0.5,0c-0.1,0-0.1,0-0.1-0.1
			c0-0.1,0-0.1,0.1-0.1l0,0c0.2,0,0.4,0,0.5,0C18.9,87.8,18.9,87.9,18.8,88C18.9,88,18.9,88,18.8,88z M17.8,88L17.8,88
			c-0.2,0-0.4,0-0.5,0c-0.1,0-0.1,0-0.1-0.1c0-0.1,0-0.1,0.1-0.1c0.2,0,0.4,0,0.5,0C17.8,87.8,17.9,87.8,17.8,88
			C17.9,87.9,17.8,88,17.8,88z"/>
		<g>
			<path fill="#3972A9" d="M64.7,82.1C64.7,82.1,64.7,82.1,64.7,82.1c-0.1-0.1-0.2-0.2-0.2-0.3c0,0,0-0.1,0-0.1c0,0,0.1,0,0.1,0
				c0.1,0.1,0.1,0.1,0.2,0.2C64.8,82,64.8,82,64.7,82.1C64.8,82.1,64.7,82.1,64.7,82.1z"/>
			<path fill="#3972A9" d="M65.9,88.7L65.9,88.7C65.9,88.7,65.8,88.6,65.9,88.7c-0.1-0.3-0.1-0.5-0.1-0.7c0-0.1,0-0.1,0.1-0.1l0,0
				c0.1,0,0.1,0,0.1,0.1C66,88.2,66,88.4,65.9,88.7C66,88.6,66,88.7,65.9,88.7z M66,87.5L66,87.5C65.9,87.5,65.9,87.5,66,87.5
				c-0.1-0.3-0.1-0.5-0.1-0.6l0,0c0-0.1,0-0.1,0.1-0.1s0.1,0,0.1,0.1l0,0C66.1,87,66.1,87.2,66,87.5C66.1,87.5,66,87.5,66,87.5z
				 M66,86.4C65.9,86.4,65.9,86.3,66,86.4c-0.1-0.3-0.1-0.5-0.1-0.7c0-0.1,0-0.1,0.1-0.1c0.1,0,0.1,0,0.1,0.1
				C66,85.9,66,86.1,66,86.4C66.1,86.3,66,86.4,66,86.4L66,86.4z M65.9,85.2C65.8,85.2,65.8,85.2,65.9,85.2
				c-0.1-0.3-0.1-0.5-0.2-0.6c0-0.1,0-0.1,0.1-0.1c0.1,0,0.1,0,0.1,0.1c0,0.2,0.1,0.4,0.1,0.6C66,85.2,65.9,85.2,65.9,85.2
				L65.9,85.2z M65.7,84.1C65.6,84.1,65.6,84.1,65.7,84.1c-0.1-0.3-0.2-0.4-0.3-0.6c0,0,0-0.1,0.1-0.1c0,0,0.1,0,0.1,0.1
				c0.1,0.2,0.1,0.4,0.2,0.6C65.8,84.1,65.7,84.1,65.7,84.1C65.7,84.1,65.7,84.1,65.7,84.1z M65.3,83.1C65.3,83.1,65.2,83,65.3,83.1
				c-0.2-0.2-0.3-0.4-0.3-0.6c0,0,0-0.1,0-0.1c0,0,0.1,0,0.1,0c0.1,0.2,0.2,0.3,0.3,0.5C65.4,83,65.4,83,65.3,83.1
				C65.3,83.1,65.3,83.1,65.3,83.1z"/>
			<path fill="#3972A9" d="M65.9,89.5L65.9,89.5c-0.1,0-0.1,0-0.1-0.1l0-0.3c0-0.1,0-0.1,0.1-0.1c0.1,0,0.1,0,0.1,0.1L65.9,89.5
				C66,89.5,65.9,89.5,65.9,89.5z"/>
		</g>
		<path fill="#3972A9" d="M66.5,88.7C66.4,88.7,66.4,88.6,66.5,88.7c-0.1-0.1-0.1-0.2,0-0.2l0.5,0l0,0.1l0,0.1L66.5,88.7L66.5,88.7z
			 M67.5,88.7C67.5,88.7,67.5,88.6,67.5,88.7c-0.1-0.1-0.1-0.2,0-0.2l0.5,0l0,0.1l0,0.1L67.5,88.7L67.5,88.7z M68.6,88.7
			C68.6,88.7,68.5,88.6,68.6,88.7c-0.1-0.1-0.1-0.2,0-0.2l0.5,0h0c0.1,0,0.1,0,0.1,0.1c0,0.1,0,0.1-0.1,0.1L68.6,88.7L68.6,88.7z
			 M69.7,88.6C69.7,88.6,69.6,88.6,69.7,88.6c-0.1-0.1-0.1-0.2,0-0.2l0.5,0l0,0c0.1,0,0.1,0,0.1,0.1c0,0.1,0,0.1-0.1,0.1L69.7,88.6
			L69.7,88.6z M70.8,88.6C70.8,88.6,70.7,88.6,70.8,88.6c-0.1-0.1-0.1-0.2,0-0.2l0.5,0l0,0c0.1,0,0.1,0,0.1,0.1c0,0.1,0,0.1-0.1,0.1
			L70.8,88.6C70.8,88.6,70.8,88.6,70.8,88.6z M71.9,88.6C71.8,88.6,71.8,88.6,71.9,88.6c-0.1-0.1-0.1-0.2,0-0.2l0.5,0
			c0.1,0,0.1,0,0.1,0.1c0,0.1,0,0.1-0.1,0.1L71.9,88.6L71.9,88.6z"/>
		<path fill="#3972A9" d="M61.2,72.8L61.2,72.8c-0.2,0-0.4,0-0.5,0c-0.1,0-0.1,0-0.1-0.1c0-0.1,0-0.1,0.1-0.1h0c0.2,0,0.4,0,0.5,0
			C61.2,72.6,61.3,72.6,61.2,72.8C61.3,72.7,61.2,72.8,61.2,72.8z M61.7,72.8C61.7,72.8,61.6,72.7,61.7,72.8c-0.1-0.1-0.1-0.2,0-0.2
			c0.2,0,0.4,0,0.5,0l0,0c0.1,0,0.1,0,0.1,0.1c0,0.1,0,0.1-0.1,0.1C62.1,72.8,61.9,72.8,61.7,72.8L61.7,72.8z M60.1,72.7L60.1,72.7
			c-0.2,0-0.4,0-0.5,0c-0.1,0-0.1,0-0.1-0.1c0-0.1,0.1-0.1,0.1-0.1c0.2,0,0.4,0,0.5,0C60.2,72.5,60.2,72.6,60.1,72.7
			C60.2,72.7,60.2,72.7,60.1,72.7z M59,72.7L59,72.7c-0.2,0-0.4,0-0.5,0c-0.1,0-0.1,0-0.1-0.1c0-0.1,0-0.1,0.1-0.1
			c0.2,0,0.4,0,0.5,0C59.1,72.5,59.1,72.6,59,72.7C59.1,72.7,59.1,72.7,59,72.7z M57.9,72.7C57.9,72.7,57.9,72.7,57.9,72.7
			c-0.2,0-0.4,0-0.5,0c-0.1,0-0.1,0-0.1-0.1c0-0.1,0-0.1,0.1-0.1c0,0,0,0,0,0c0.2,0,0.4,0,0.5,0C58,72.5,58,72.5,57.9,72.7
			C58,72.6,58,72.7,57.9,72.7z M56.8,72.6L56.8,72.6c-0.2,0-0.4,0-0.5,0c-0.1,0-0.1,0-0.1-0.1c0-0.1,0.1-0.1,0.1-0.1
			c0.2,0,0.4,0,0.5,0C56.9,72.4,56.9,72.5,56.8,72.6C56.9,72.6,56.9,72.6,56.8,72.6z M55.8,72.5L55.8,72.5L55.8,72.5
			c-0.2,0-0.4,0-0.5,0c-0.1,0-0.1-0.1-0.1-0.1c0-0.1,0.1-0.1,0.1-0.1c0.2,0,0.4,0,0.5,0L55.8,72.5z M54.7,72.4
			C54.7,72.4,54.7,72.4,54.7,72.4c-0.2,0-0.4,0-0.5-0.1c-0.1,0-0.1-0.1-0.1-0.1c0-0.1,0.1-0.1,0.1-0.1c0.2,0,0.4,0,0.5,0.1
			C54.7,72.2,54.8,72.3,54.7,72.4C54.8,72.4,54.7,72.4,54.7,72.4z"/>
		<path fill="#3972A9" d="M61.3,73.2l-0.5,0c-0.1,0-0.1,0-0.1-0.1c0-0.1,0-0.1,0.1-0.1h0l0.5,0C61.3,73.1,61.4,73.1,61.3,73.2
			C61.4,73.2,61.3,73.2,61.3,73.2z M61.8,73.2C61.8,73.2,61.7,73.2,61.8,73.2c-0.1-0.1-0.1-0.2,0-0.2c0.2,0,0.4,0,0.5,0
			c0,0,0.1,0,0.1,0.1c0,0.1,0,0.1-0.1,0.1C62.2,73.2,62,73.2,61.8,73.2L61.8,73.2z M60.2,73.2L60.2,73.2l-0.5,0
			c-0.1,0-0.1,0-0.1-0.1c0-0.1,0-0.1,0.1-0.1l0,0l0.5,0C60.2,73,60.3,73.1,60.2,73.2C60.3,73.2,60.2,73.2,60.2,73.2z M59.1,73.2
			L59.1,73.2c-0.2,0-0.4,0-0.5,0c-0.1,0-0.1,0-0.1-0.1c0-0.1,0-0.1,0.1-0.1l0,0c0.2,0,0.4,0,0.5,0C59.2,73,59.2,73.1,59.1,73.2
			C59.2,73.2,59.2,73.2,59.1,73.2z M58,73.2L58,73.2c-0.2,0-0.4,0-0.5,0c-0.1,0-0.1,0-0.1-0.1c0-0.1,0-0.1,0.1-0.1
			c0.2,0,0.4,0,0.5,0C58.1,73,58.1,73,58,73.2C58.1,73.1,58.1,73.2,58,73.2z M56.9,73.1C56.9,73.1,56.9,73.1,56.9,73.1l-0.5,0
			c-0.1,0-0.1,0-0.1-0.1c0-0.1,0-0.1,0.1-0.1l0.5,0C57,72.9,57,73,56.9,73.1C57,73.1,57,73.1,56.9,73.1z M55.8,73L55.8,73
			c-0.2,0-0.4,0-0.5,0c-0.1,0-0.1,0-0.1-0.1c0-0.1,0-0.1,0.1-0.1c0.2,0,0.4,0,0.5,0C55.9,72.8,55.9,72.9,55.8,73
			C55.9,73,55.9,73,55.8,73z M54.8,73C54.8,73,54.8,73,54.8,73c-0.2,0-0.4,0-0.5,0c-0.1,0-0.1-0.1-0.1-0.1c0-0.1,0-0.1,0.1-0.1
			c0.2,0,0.4,0,0.5,0C54.8,72.8,54.9,72.8,54.8,73C54.9,72.9,54.8,73,54.8,73z"/>
		<path fill="#3972A9" d="M64.2,80.5C64.2,80.5,64.2,80.5,64.2,80.5l-0.1-0.2c0,0,0-0.1,0.1-0.1c0.1,0,0.1,0,0.1,0.1l0.1,0.2
			C64.3,80.4,64.3,80.5,64.2,80.5C64.3,80.5,64.3,80.5,64.2,80.5z M64,79.8C64,79.8,63.9,79.8,64,79.8c-0.1-0.2-0.2-0.3-0.2-0.5
			l0-0.1c0,0,0-0.1,0.1-0.1c0,0,0.1,0,0.1,0.1l0,0.1c0.1,0.2,0.1,0.3,0.2,0.4C64.1,79.8,64.1,79.8,64,79.8C64,79.8,64,79.8,64,79.8z
			 M63.6,78.8C63.6,78.8,63.6,78.8,63.6,78.8c-0.2-0.3-0.2-0.4-0.3-0.6c0,0,0-0.1,0.1-0.1c0,0,0.1,0,0.1,0.1c0,0.1,0.1,0.3,0.2,0.5
			C63.7,78.7,63.7,78.8,63.6,78.8C63.7,78.8,63.6,78.8,63.6,78.8z M63.3,77.8C63.3,77.8,63.2,77.7,63.3,77.8l-0.1-0.1
			c-0.1-0.2-0.1-0.3-0.1-0.5c0-0.1,0-0.1,0.1-0.1c0,0,0.1,0,0.1,0.1c0,0.1,0.1,0.3,0.1,0.5l0,0.1C63.4,77.7,63.4,77.7,63.3,77.8
			C63.3,77.8,63.3,77.8,63.3,77.8z M63,76.7C63,76.7,62.9,76.7,63,76.7c-0.1-0.3-0.2-0.5-0.2-0.6c0-0.1,0-0.1,0.1-0.1
			c0.1,0,0.1,0,0.1,0.1c0,0.2,0.1,0.3,0.1,0.5C63.1,76.6,63.1,76.7,63,76.7C63,76.7,63,76.7,63,76.7z M62.9,75.6
			C62.8,75.6,62.8,75.6,62.9,75.6c-0.1-0.2-0.1-0.2-0.1-0.3c0-0.1,0-0.2,0-0.4c0-0.1,0.1-0.1,0.1-0.1c0.1,0,0.1,0,0.1,0.1
			c0,0.1,0,0.2,0,0.4C63,75.4,63,75.5,62.9,75.6C63,75.6,62.9,75.6,62.9,75.6L62.9,75.6z M62.9,74.5C62.9,74.5,62.9,74.5,62.9,74.5
			c-0.1,0-0.1-0.1-0.1-0.1c0-0.2,0.1-0.4,0.1-0.5c0-0.1,0.1-0.1,0.1-0.1c0.1,0,0.1,0.1,0.1,0.1C63.1,74.1,63.1,74.3,62.9,74.5
			C63,74.5,63,74.5,62.9,74.5z M63.2,73.5C63.2,73.5,63.1,73.5,63.2,73.5c-0.1,0-0.1-0.1-0.1-0.1c0.1-0.2,0.1-0.3,0.2-0.5
			c0,0,0.1-0.1,0.1,0c0,0,0.1,0.1,0,0.1C63.4,73.1,63.3,73.2,63.2,73.5C63.2,73.4,63.2,73.5,63.2,73.5z M63.6,72.5
			C63.6,72.5,63.6,72.5,63.6,72.5c-0.1,0-0.1-0.1-0.1-0.1l0.2-0.5c0,0,0.1-0.1,0.1,0c0,0,0.1,0.1,0,0.1L63.6,72.5
			C63.7,72.4,63.6,72.5,63.6,72.5z M64.1,71.5C64,71.5,64,71.5,64.1,71.5c-0.1,0-0.1-0.1-0.1-0.1c0.1-0.2,0.2-0.3,0.3-0.5
			c0,0,0.1-0.1,0.1,0c0,0,0.1,0.1,0,0.1C64.3,71.1,64.2,71.3,64.1,71.5C64.1,71.5,64.1,71.5,64.1,71.5z"/>
		<path fill="#3972A9" d="M63.8,80.5C63.7,80.5,63.7,80.5,63.8,80.5l-0.1-0.2c0,0,0-0.1,0.1-0.1c0,0,0.1,0,0.1,0.1l0.1,0.2
			C63.9,80.4,63.8,80.4,63.8,80.5C63.8,80.5,63.8,80.5,63.8,80.5z M63.5,79.8C63.5,79.8,63.4,79.8,63.5,79.8
			c-0.1-0.2-0.2-0.3-0.2-0.5l0-0.1c0,0,0-0.1,0.1-0.1c0,0,0.1,0,0.1,0.1l0,0l0,0.1c0.1,0.2,0.1,0.3,0.2,0.4
			C63.6,79.7,63.6,79.8,63.5,79.8C63.5,79.8,63.5,79.8,63.5,79.8z M63.2,78.8C63.1,78.8,63.1,78.7,63.2,78.8
			c-0.2-0.3-0.2-0.4-0.3-0.6c0,0,0-0.1,0.1-0.1c0,0,0.1,0,0.1,0.1c0,0.1,0.1,0.3,0.2,0.5C63.3,78.7,63.2,78.8,63.2,78.8
			C63.2,78.8,63.2,78.8,63.2,78.8z M62.8,77.7C62.8,77.7,62.7,77.7,62.8,77.7l-0.1-0.1c-0.1-0.2-0.1-0.3-0.1-0.5
			c0-0.1,0-0.1,0.1-0.1c0,0,0.1,0,0.1,0.1c0,0.1,0.1,0.3,0.1,0.5l0,0.1C62.9,77.7,62.9,77.7,62.8,77.7
			C62.8,77.7,62.8,77.7,62.8,77.7z M62.5,76.7C62.5,76.7,62.5,76.7,62.5,76.7c-0.1-0.3-0.2-0.5-0.2-0.6c0-0.1,0-0.1,0.1-0.1
			c0.1,0,0.1,0,0.1,0.1c0,0.2,0.1,0.3,0.1,0.5C62.6,76.6,62.6,76.7,62.5,76.7C62.6,76.7,62.5,76.7,62.5,76.7z M62.4,75.6
			C62.3,75.6,62.3,75.6,62.4,75.6c-0.1-0.2-0.1-0.2-0.1-0.3c0-0.1,0-0.2,0-0.4c0-0.1,0-0.1,0.1-0.1c0.1,0,0.1,0,0.1,0.1
			c0,0.1,0,0.2,0,0.4C62.5,75.4,62.5,75.4,62.4,75.6C62.5,75.6,62.5,75.6,62.4,75.6L62.4,75.6z M62.5,74.5
			C62.5,74.5,62.5,74.5,62.5,74.5c-0.1,0-0.1-0.1-0.1-0.1c0-0.2,0.1-0.4,0.1-0.5c0-0.1,0.1-0.1,0.1-0.1c0.1,0,0.1,0.1,0.1,0.1
			C62.6,74.1,62.6,74.2,62.5,74.5C62.5,74.5,62.5,74.5,62.5,74.5z M62.7,73.4C62.7,73.4,62.7,73.4,62.7,73.4c-0.1,0-0.1-0.1-0.1-0.1
			c0.1-0.2,0.1-0.3,0.2-0.5c0,0,0.1-0.1,0.1,0c0,0,0.1,0.1,0,0.1C62.9,73.1,62.8,73.2,62.7,73.4C62.8,73.4,62.7,73.4,62.7,73.4z
			 M63.1,72.4C63.1,72.4,63.1,72.4,63.1,72.4c-0.1,0-0.1-0.1-0.1-0.1l0.2-0.5c0,0,0.1-0.1,0.1,0c0,0,0.1,0.1,0,0.1L63.1,72.4
			C63.2,72.4,63.1,72.4,63.1,72.4z M63.6,71.5C63.6,71.5,63.5,71.5,63.6,71.5c-0.1,0-0.1-0.1-0.1-0.1c0.1-0.2,0.2-0.3,0.3-0.5
			c0,0,0.1-0.1,0.1,0c0,0,0.1,0.1,0,0.1C63.8,71.1,63.7,71.3,63.6,71.5C63.6,71.4,63.6,71.5,63.6,71.5z"/>
		<path fill="#3972A9" d="M66.5,88.2C66.4,88.2,66.4,88.1,66.5,88.2c-0.1-0.1-0.1-0.2,0-0.2l0.5,0h0c0.1,0,0.1,0,0.1,0.1
			c0,0.1,0,0.1-0.1,0.1L66.5,88.2L66.5,88.2z M67.6,88.2C67.5,88.2,67.5,88.1,67.6,88.2c-0.1-0.1-0.1-0.2,0-0.2l0.5,0h0
			c0.1,0,0.1,0,0.1,0.1c0,0.1,0,0.1-0.1,0.1L67.6,88.2L67.6,88.2z M68.7,88.2C68.6,88.2,68.6,88.1,68.7,88.2c-0.1-0.1-0.1-0.2,0-0.2
			l0.5,0l0,0c0.1,0,0.1,0,0.1,0.1c0,0.1,0,0.1-0.1,0.1L68.7,88.2L68.7,88.2z M69.7,88.2C69.7,88.2,69.7,88.1,69.7,88.2
			c-0.1-0.1-0.1-0.2,0-0.2l0.5,0h0c0.1,0,0.1,0,0.1,0.1c0,0.1,0,0.1-0.1,0.1L69.7,88.2L69.7,88.2z M70.8,88.2
			C70.8,88.2,70.7,88.1,70.8,88.2c-0.1-0.1-0.1-0.2,0-0.2c0.2,0,0.4,0,0.5,0c0,0,0.1,0,0.1,0.1c0,0.1,0,0.1-0.1,0.1
			C71.2,88.2,71,88.2,70.8,88.2L70.8,88.2z M71.9,88.1C71.9,88.1,71.8,88.1,71.9,88.1c-0.1-0.1-0.1-0.2,0-0.2c0.2,0,0.4,0,0.5,0
			c0,0,0.1,0,0.1,0.1c0,0.1,0,0.1-0.1,0.1C72.3,88.1,72.1,88.1,71.9,88.1L71.9,88.1z"/>
		<path fill="#3972A9" d="M26.6,81.6C26.6,81.6,26.5,81.6,26.6,81.6c-0.1-0.1-0.1-0.2,0-0.2l0.5,0l0,0c0.1,0,0.1,0,0.1,0.1
			c0,0.1,0,0.1-0.1,0.1L26.6,81.6L26.6,81.6z M27.7,81.6C27.7,81.6,27.6,81.6,27.7,81.6c-0.1-0.1-0.1-0.2,0-0.2l0.5,0h0
			c0.1,0,0.1,0,0.1,0.1c0,0.1,0,0.1-0.1,0.1L27.7,81.6L27.7,81.6z M28.8,81.6C28.7,81.6,28.7,81.6,28.8,81.6c-0.1-0.1-0.1-0.2,0-0.2
			l0.5,0h0c0.1,0,0.1,0,0.1,0.1c0,0.1,0,0.1-0.1,0.1L28.8,81.6L28.8,81.6z M39.1,81.7L39.1,81.7l-0.5,0c-0.1,0-0.1,0-0.1-0.1
			c0-0.1,0-0.1,0.1-0.1l0,0l0.5,0C39.2,81.5,39.2,81.5,39.1,81.7C39.2,81.6,39.2,81.7,39.1,81.7z M29.9,81.6
			C29.8,81.6,29.8,81.6,29.9,81.6c-0.1-0.1-0.1-0.2,0-0.2l0.5,0h0c0.1,0,0.1,0,0.1,0.1c0,0.1,0,0.1-0.1,0.1L29.9,81.6L29.9,81.6z
			 M38,81.6L38,81.6l-0.5,0c-0.1,0-0.1,0-0.1-0.1c0-0.1,0-0.1,0.1-0.1l0,0l0.5,0C38.1,81.5,38.1,81.5,38,81.6
			C38.1,81.6,38.1,81.6,38,81.6z M31,81.6C30.9,81.6,30.9,81.6,31,81.6c-0.1-0.1-0.1-0.2,0-0.2l0.5,0h0c0.1,0,0.1,0,0.1,0.1
			c0,0.1,0,0.1-0.1,0.1L31,81.6L31,81.6z M36.9,81.6L36.9,81.6l-0.5,0c-0.1,0-0.1,0-0.1-0.1c0-0.1,0-0.1,0.1-0.1h0l0.5,0
			C37,81.4,37,81.5,36.9,81.6C37,81.6,37,81.6,36.9,81.6z M32.1,81.6C32,81.6,32,81.6,32.1,81.6c-0.1-0.1-0.1-0.2,0-0.2l0.5,0h0
			c0.1,0,0.1,0,0.1,0.1c0,0.1,0,0.1-0.1,0.1L32.1,81.6L32.1,81.6z M35.9,81.6L35.9,81.6l-0.5,0c-0.1,0-0.1,0-0.1-0.1
			c0-0.1,0-0.1,0.1-0.1h0l0.5,0C35.9,81.4,36,81.5,35.9,81.6C36,81.6,35.9,81.6,35.9,81.6z M33.1,81.6
			C33.1,81.6,33.1,81.6,33.1,81.6c-0.1-0.1-0.1-0.2,0-0.2l0.5,0l0,0c0.1,0,0.1,0,0.1,0.1c0,0.1,0,0.1-0.1,0.1L33.1,81.6L33.1,81.6z
			 M34.8,81.6L34.8,81.6l-0.5,0c-0.1,0-0.1,0-0.1-0.1c0-0.1,0-0.1,0.1-0.1l0.5,0C34.8,81.4,34.9,81.5,34.8,81.6
			C34.9,81.6,34.8,81.6,34.8,81.6z M51.6,81.3C51.5,81.3,51.5,81.2,51.6,81.3c-0.1-0.1-0.1-0.2,0-0.2l0.5,0h0c0.1,0,0.1,0,0.1,0.1
			c0,0.1,0,0.1-0.1,0.1L51.6,81.3L51.6,81.3z M52.7,81.2C52.6,81.2,52.6,81.2,52.7,81.2c-0.1-0.1-0.1-0.2,0-0.2l0.5,0l0,0
			c0.1,0,0.1,0,0.1,0.1c0,0.1,0,0.1-0.1,0.1L52.7,81.2L52.7,81.2z M53.8,81.2C53.7,81.2,53.7,81.2,53.8,81.2c-0.1-0.1-0.1-0.2,0-0.2
			l0.5,0l0,0c0.1,0,0.1,0,0.1,0.1c0,0.1,0,0.1-0.1,0.1L53.8,81.2L53.8,81.2z M54.8,81.2C54.8,81.2,54.8,81.1,54.8,81.2
			c-0.1-0.1-0.1-0.2,0-0.2l0.5,0h0c0.1,0,0.1,0,0.1,0.1c0,0.1,0,0.1-0.1,0.1L54.8,81.2L54.8,81.2z M55.9,81.2
			C55.9,81.2,55.8,81.1,55.9,81.2c-0.1-0.1-0.1-0.2,0-0.2l0.5,0h0c0.1,0,0.1,0,0.1,0.1c0,0.1,0,0.1-0.1,0.1L55.9,81.2L55.9,81.2z
			 M57,81.2C57,81.2,56.9,81.1,57,81.2C56.9,81,57,81,57,81l0.5,0c0.1,0,0.1,0,0.1,0.1c0,0.1,0,0.1-0.1,0.1L57,81.2L57,81.2z
			 M58.1,81.1C58.1,81.1,58,81.1,58.1,81.1c-0.1-0.1-0.1-0.2,0-0.2l0.5,0l0,0c0.1,0,0.1,0,0.1,0.1c0,0.1,0,0.1-0.1,0.1L58.1,81.1
			L58.1,81.1z M59.2,81.1C59.1,81.1,59.1,81.1,59.2,81.1c-0.1-0.1-0.1-0.2,0-0.2l0.5,0l0,0c0.1,0,0.1,0,0.1,0.1c0,0.1,0,0.1-0.1,0.1
			L59.2,81.1L59.2,81.1z M60.3,81.1C60.2,81.1,60.2,81.1,60.3,81.1c-0.1-0.1-0.1-0.2,0-0.2l0.5,0l0,0c0.1,0,0.1,0,0.1,0.1
			c0,0.1,0,0.1-0.1,0.1L60.3,81.1L60.3,81.1z M61.4,81.1C61.3,81.1,61.3,81,61.4,81.1c-0.1-0.1-0.1-0.2,0-0.2l0.5,0
			c0.1,0,0.1,0,0.1,0.1c0,0.1,0,0.1-0.1,0.1L61.4,81.1L61.4,81.1z M62.5,81.1C62.4,81.1,62.4,81,62.5,81.1c-0.1-0.1-0.1-0.2,0-0.2
			l0.5,0h0c0.1,0,0.1,0,0.1,0.1c0,0.1,0,0.1-0.1,0.1L62.5,81.1L62.5,81.1z M63.5,81.1C63.5,81.1,63.4,81,63.5,81.1
			c-0.1-0.1-0.1-0.2,0-0.2l0.4,0l0,0c0.1,0,0.1,0,0.1,0.1C64,81,64,81,64,81L63.5,81.1L63.5,81.1z"/>
		<path fill="#3972A9" d="M31.7,82.1l-0.1,0c-0.1,0-0.1,0-0.1-0.1c0-0.1,0-0.1,0.1-0.1l0.5,0l0,0.1l0,0.1L31.7,82.1z M31.1,82.1
			L31.1,82.1l-0.5,0c-0.1,0-0.1,0-0.1-0.1c0-0.1,0-0.1,0.1-0.1h0l0.5,0C31.2,81.9,31.2,82,31.1,82.1C31.2,82.1,31.2,82.1,31.1,82.1z
			 M32.7,82.1C32.7,82.1,32.6,82.1,32.7,82.1c-0.1-0.1-0.1-0.2,0-0.2l0.5,0h0c0.1,0,0.1,0,0.1,0.1c0,0.1,0,0.1-0.1,0.1L32.7,82.1
			L32.7,82.1z M33.8,82.1C33.8,82.1,33.7,82.1,33.8,82.1c-0.1-0.1-0.1-0.2,0-0.2l0.5,0h0c0.1,0,0.1,0,0.1,0.1c0,0.1,0,0.1-0.1,0.1
			L33.8,82.1L33.8,82.1z M30,82.1L30,82.1l-0.5,0c-0.1,0-0.1,0-0.1-0.1c0-0.1,0.1-0.1,0.1-0.1l0.5,0C30.1,81.9,30.1,82,30,82.1
			C30.1,82.1,30.1,82.1,30,82.1z M34.9,82.1C34.9,82.1,34.8,82.1,34.9,82.1c-0.1-0.1-0.1-0.2,0-0.2l0.5,0l0,0c0.1,0,0.1,0,0.1,0.1
			c0,0.1,0,0.1-0.1,0.1L34.9,82.1L34.9,82.1z M36,82.1C35.9,82.1,35.9,82.1,36,82.1c-0.1-0.1-0.1-0.2,0-0.2l0.5,0h0
			c0.1,0,0.1,0,0.1,0.1c0,0.1,0,0.1-0.1,0.1L36,82.1L36,82.1z M37.1,82.1C37,82.1,37,82.1,37.1,82.1c-0.1-0.1-0.1-0.2,0-0.2l0.5,0h0
			c0.1,0,0.1,0,0.1,0.1c0,0.1,0,0.1-0.1,0.1L37.1,82.1L37.1,82.1z M28.9,82.1L28.9,82.1l-0.5,0c-0.1,0-0.1,0-0.1-0.1
			c0-0.1,0-0.1,0.1-0.1l0,0l0.5,0C29,81.9,29,82,28.9,82.1C29,82.1,29,82.1,28.9,82.1z M38.2,82.1C38.1,82.1,38.1,82.1,38.2,82.1
			c-0.1-0.1-0.1-0.2,0-0.2l0.5,0h0c0.1,0,0.1,0,0.1,0.1c0,0.1,0,0.1-0.1,0.1L38.2,82.1L38.2,82.1z M39.2,82.1
			C39.2,82.1,39.2,82.1,39.2,82.1c-0.1-0.1-0.1-0.2,0-0.2l0.5,0h0c0.1,0,0.1,0,0.1,0.1c0,0.1,0,0.1-0.1,0.1L39.2,82.1
			C39.3,82.1,39.2,82.1,39.2,82.1z M27.8,82.1L27.8,82.1l-0.5,0c-0.1,0-0.1,0-0.1-0.1c0-0.1,0-0.1,0.1-0.1l0,0l0.5,0
			C27.9,81.9,27.9,81.9,27.8,82.1C27.9,82,27.9,82.1,27.8,82.1z M26.8,82L26.8,82c-0.2,0-0.4,0-0.5,0c-0.1,0-0.1,0-0.1-0.1
			c0-0.1,0-0.1,0.1-0.1c0.2,0,0.3,0,0.5,0C26.8,81.9,26.9,81.9,26.8,82C26.8,82,26.8,82,26.8,82z M51.2,81.9
			C51.1,81.9,51.1,81.9,51.2,81.9c-0.1-0.1-0.1-0.2,0-0.2l0.5,0l0,0c0.1,0,0.1,0,0.1,0.1c0,0.1,0,0.1-0.1,0.1L51.2,81.9L51.2,81.9z
			 M52.3,81.9C52.2,81.9,52.2,81.9,52.3,81.9c-0.1-0.1-0.1-0.2,0-0.2l0.5,0l0,0c0.1,0,0.1,0,0.1,0.1c0,0.1,0,0.1-0.1,0.1L52.3,81.9
			L52.3,81.9z M53.4,81.9C53.3,81.9,53.3,81.9,53.4,81.9c-0.1-0.1-0.1-0.2,0-0.2l0.5,0l0,0c0.1,0,0.1,0,0.1,0.1c0,0.1,0,0.1-0.1,0.1
			L53.4,81.9L53.4,81.9z M54.5,81.9C54.4,81.9,54.4,81.8,54.5,81.9c-0.1-0.1-0.1-0.2,0-0.2l0.5,0c0,0,0.1,0,0.1,0.1
			c0,0.1,0,0.1-0.1,0.1L54.5,81.9L54.5,81.9z M55.5,81.8C55.5,81.8,55.5,81.8,55.5,81.8c-0.1-0.1-0.1-0.2,0-0.2l0.5,0l0,0
			c0.1,0,0.1,0,0.1,0.1c0,0.1,0,0.1-0.1,0.1L55.5,81.8L55.5,81.8z M56.6,81.8C56.6,81.8,56.5,81.8,56.6,81.8c-0.1-0.1-0.1-0.2,0-0.2
			l0.5,0c0.1,0,0.1,0,0.1,0.1c0,0.1,0,0.1-0.1,0.1L56.6,81.8L56.6,81.8z M57.7,81.8C57.7,81.8,57.6,81.7,57.7,81.8
			c-0.1-0.1-0.1-0.2,0-0.2l0.5,0c0.1,0,0.1,0,0.1,0.1c0,0.1,0,0.1-0.1,0.1L57.7,81.8L57.7,81.8z M58.8,81.8
			C58.8,81.8,58.7,81.7,58.8,81.8c-0.1-0.1-0.1-0.2,0-0.2l0.5,0c0.1,0,0.1,0,0.1,0.1c0,0.1,0,0.1-0.1,0.1L58.8,81.8L58.8,81.8z
			 M59.9,81.7C59.8,81.7,59.8,81.7,59.9,81.7c-0.1-0.1-0.1-0.2,0-0.2l0.5,0c0.1,0,0.1,0,0.1,0.1c0,0.1,0,0.1-0.1,0.1L59.9,81.7
			L59.9,81.7z M61,81.7C60.9,81.7,60.9,81.6,61,81.7c-0.1-0.1-0.1-0.2,0-0.2l0.5,0c0.1,0,0.1,0,0.1,0.1c0,0.1,0,0.1-0.1,0.1L61,81.7
			L61,81.7z M62.1,81.6C62,81.6,62,81.6,62.1,81.6c-0.1-0.1-0.1-0.2,0-0.2l0.5,0l0,0c0.1,0,0.1,0,0.1,0.1c0,0.1,0,0.1-0.1,0.1
			L62.1,81.6L62.1,81.6z M63.1,81.6C63.1,81.6,63.1,81.6,63.1,81.6c-0.1-0.1-0.1-0.2,0-0.2l0.5,0c0.1,0,0.1,0,0.1,0.1
			c0,0.1,0,0.1-0.1,0.1L63.1,81.6L63.1,81.6z"/>
		<path fill="#3972A9" d="M17.4,89.5l-0.3,0c-0.1,0-0.1,0-0.1-0.1c0-0.1,0-0.1,0.1-0.1h0l0.3,0l0.3,0h0c0.1,0,0.1,0,0.1,0.1
			c0,0.1,0,0.1-0.1,0.1L17.4,89.5z M18.2,89.4C18.2,89.4,18.1,89.4,18.2,89.4c-0.1-0.1-0.1-0.2,0-0.2l0.5,0h0c0.1,0,0.1,0,0.1,0.1
			c0,0.1,0,0.1-0.1,0.1L18.2,89.4C18.2,89.4,18.2,89.4,18.2,89.4z M19.3,89.4C19.3,89.4,19.2,89.4,19.3,89.4c-0.1-0.1-0.1-0.2,0-0.2
			l0.5,0h0c0.1,0,0.1,0,0.1,0.1c0,0.1,0,0.1-0.1,0.1L19.3,89.4L19.3,89.4z M20.4,89.4C20.4,89.4,20.3,89.4,20.4,89.4
			c-0.1-0.1-0.1-0.2,0-0.2l0.5,0c0.1,0,0.1,0,0.1,0.1c0,0.1,0,0.1-0.1,0.1L20.4,89.4L20.4,89.4z M21.5,89.4
			C21.4,89.4,21.4,89.4,21.5,89.4c-0.1-0.1-0.1-0.2,0-0.2l0.5,0l0,0c0.1,0,0.1,0,0.1,0.1c0,0.1,0,0.1-0.1,0.1L21.5,89.4L21.5,89.4z
			 M22.6,89.4C22.5,89.4,22.5,89.4,22.6,89.4c-0.1-0.1-0.1-0.2,0-0.2c0.2,0,0.4,0,0.5,0h0c0.1,0,0.1,0,0.1,0.1c0,0.1,0,0.1-0.1,0.1
			C22.9,89.4,22.8,89.4,22.6,89.4L22.6,89.4z"/>
		<path fill="#3972A9" d="M28.3,92.5l-0.5,0c-0.1,0-0.1,0-0.1-0.1c0-0.1,0-0.1,0.1-0.1l0.5,0C28.3,92.3,28.4,92.3,28.3,92.5
			C28.4,92.4,28.3,92.5,28.3,92.5z M27.2,92.5l-0.5,0c-0.1,0-0.1,0-0.1-0.1c0-0.1,0-0.1,0.1-0.1l0.5,0
			C27.2,92.3,27.3,92.3,27.2,92.5C27.3,92.4,27.2,92.5,27.2,92.5z M26.1,92.5l-0.5,0c-0.1,0-0.1,0-0.1-0.1c0-0.1,0-0.1,0.1-0.1
			l0.5,0C26.1,92.3,26.2,92.3,26.1,92.5C26.2,92.4,26.1,92.5,26.1,92.5z M28.8,92.5C28.8,92.5,28.7,92.4,28.8,92.5
			c-0.1-0.1-0.1-0.2,0-0.2c0.2,0,0.3,0,0.5,0h0c0.1,0,0.1,0,0.1,0.1c0,0.1,0,0.1-0.1,0.1C29.2,92.5,29,92.5,28.8,92.5L28.8,92.5z
			 M29.9,92.5C29.9,92.5,29.8,92.4,29.9,92.5c-0.1-0.1-0.1-0.2,0-0.2l0.5,0c0.1,0,0.1,0,0.1,0.1c0,0.1,0,0.1-0.1,0.1L29.9,92.5
			L29.9,92.5z M31,92.5C31,92.5,30.9,92.4,31,92.5c-0.1-0.1-0.1-0.2,0-0.2l0.5,0h0c0.1,0,0.1,0,0.1,0.1c0,0.1,0,0.1-0.1,0.1L31,92.5
			L31,92.5z M32.1,92.5C32.1,92.5,32,92.4,32.1,92.5c-0.1-0.1-0.1-0.2,0-0.2l0.5,0h0c0.1,0,0.1,0,0.1,0.1c0,0.1,0,0.1-0.1,0.1
			L32.1,92.5L32.1,92.5z M36,92.5L36,92.5c-0.2,0-0.4,0-0.5,0c-0.1,0-0.1,0-0.1-0.1c0-0.1,0-0.1,0.1-0.1h0c0.2,0,0.3,0,0.5,0
			C36,92.3,36.1,92.3,36,92.5C36.1,92.4,36,92.5,36,92.5z M36.5,92.5C36.5,92.5,36.4,92.4,36.5,92.5c-0.1-0.1-0.1-0.2,0-0.2
			c0.1,0,0.3,0,0.5,0l0,0c0.1,0,0.1,0,0.1,0.1c0,0.1,0,0.1-0.1,0.1C36.8,92.5,36.6,92.5,36.5,92.5L36.5,92.5z M33.2,92.5
			C33.2,92.5,33.1,92.4,33.2,92.5c-0.1-0.1-0.1-0.2,0-0.2l0.5,0l0,0c0.1,0,0.1,0,0.1,0.1s0,0.1-0.1,0.1L33.2,92.5L33.2,92.5z
			 M34.9,92.5L34.9,92.5c-0.1,0-0.3,0-0.5,0c-0.1,0-0.1,0-0.1-0.1c0-0.1,0-0.1,0.1-0.1l0,0c0.2,0,0.4,0,0.5,0
			C34.9,92.3,35,92.3,34.9,92.5C35,92.4,34.9,92.5,34.9,92.5z M37.6,92.5C37.5,92.5,37.5,92.4,37.6,92.5c-0.1-0.1-0.1-0.2,0-0.2
			l0.5,0l0,0c0.1,0,0.1,0,0.1,0.1c0,0.1,0,0.1-0.1,0.1L37.6,92.5L37.6,92.5z M38.7,92.4C38.6,92.4,38.6,92.4,38.7,92.4
			c-0.1-0.1-0.1-0.2,0-0.2l0.5,0c0.1,0,0.1,0,0.1,0.1c0,0.1,0,0.1-0.1,0.1L38.7,92.4L38.7,92.4z M39.8,92.4
			C39.7,92.4,39.7,92.4,39.8,92.4c-0.1-0.1-0.1-0.2,0-0.2l0.5,0c0.1,0,0.1,0,0.1,0.1c0,0.1,0,0.1-0.1,0.1L39.8,92.4L39.8,92.4z
			 M40.9,92.4C40.8,92.4,40.8,92.4,40.9,92.4c-0.1-0.1-0.1-0.2,0-0.2c0.2,0,0.3,0,0.5,0h0c0.1,0,0.1,0,0.1,0.1c0,0.1,0,0.1-0.1,0.1
			C41.2,92.4,41.1,92.4,40.9,92.4L40.9,92.4z M43.6,92.4L43.6,92.4c-0.2,0-0.4,0-0.5,0c-0.1,0-0.1,0-0.1-0.1c0-0.1,0-0.1,0.1-0.1
			l0,0c0.2,0,0.4,0,0.5,0C43.7,92.2,43.7,92.2,43.6,92.4C43.7,92.3,43.7,92.4,43.6,92.4z M42,92.4C41.9,92.4,41.9,92.3,42,92.4
			c-0.1-0.1-0.1-0.2,0-0.2c0.2,0,0.4,0,0.6,0l0,0c0.1,0,0.1,0,0.1,0.1c0,0.1,0,0.1-0.1,0.1C42.4,92.4,42.2,92.4,42,92.4L42,92.4z"/>
		<path fill="#3972A9" d="M49.4,92.4l-0.5,0c-0.1,0-0.1,0-0.1-0.1c0-0.1,0-0.1,0.1-0.1l0.5,0C49.4,92.2,49.5,92.2,49.4,92.4
			C49.5,92.3,49.4,92.4,49.4,92.4z M48.3,92.4l-0.5,0c-0.1,0-0.1,0-0.1-0.1c0-0.1,0-0.1,0.1-0.1l0.5,0
			C48.4,92.2,48.4,92.2,48.3,92.4C48.4,92.3,48.4,92.4,48.3,92.4z M47.2,92.4l-0.5,0c-0.1,0-0.1,0-0.1-0.1c0-0.1,0-0.1,0.1-0.1
			l0.5,0C47.3,92.2,47.3,92.2,47.2,92.4C47.3,92.3,47.3,92.4,47.2,92.4z M49.9,92.4C49.9,92.4,49.8,92.3,49.9,92.4
			c-0.1-0.1-0.1-0.2,0-0.2c0.2,0,0.3,0,0.5,0l0,0c0.1,0,0.1,0,0.1,0.1c0,0.1,0,0.1-0.1,0.1C50.2,92.4,50.1,92.4,49.9,92.4L49.9,92.4
			z M51,92.4C50.9,92.4,50.9,92.3,51,92.4c-0.1-0.1-0.1-0.2,0-0.2l0.5,0h0c0.1,0,0.1,0,0.1,0.1c0,0.1,0,0.1-0.1,0.1L51,92.4L51,92.4
			z M52.1,92.4C52,92.4,52,92.3,52.1,92.4c-0.1-0.1-0.1-0.2,0-0.2l0.5,0c0.1,0,0.1,0,0.1,0.1c0,0.1,0,0.1-0.1,0.1L52.1,92.4
			L52.1,92.4z M53.1,92.4C53.1,92.4,53,92.3,53.1,92.4c-0.1-0.1-0.1-0.2,0-0.2l0.5,0h0c0.1,0,0.1,0,0.1,0.1c0,0.1,0,0.1-0.1,0.1
			L53.1,92.4L53.1,92.4z M56.9,92.4L56.9,92.4c-0.2,0-0.4,0-0.5,0c-0.1,0-0.1,0-0.1-0.1c0-0.1,0-0.1,0.1-0.1l0,0c0.2,0,0.3,0,0.5,0
			C56.9,92.2,57,92.2,56.9,92.4C57,92.3,56.9,92.4,56.9,92.4z M57.4,92.4C57.4,92.4,57.3,92.3,57.4,92.4c-0.1-0.1-0.1-0.2,0-0.2
			c0.1,0,0.3,0,0.5,0c0,0,0.1,0,0.1,0.1c0,0.1,0,0.1-0.1,0.1C57.7,92.4,57.5,92.4,57.4,92.4L57.4,92.4z M54.2,92.4
			C54.2,92.4,54.1,92.3,54.2,92.4c-0.1-0.1-0.1-0.2,0-0.2l0.5,0l0,0c0.1,0,0.1,0,0.1,0.1c0,0.1,0,0.1-0.1,0.1L54.2,92.4L54.2,92.4z
			 M55.8,92.4L55.8,92.4c-0.1,0-0.3,0-0.5,0c-0.1,0-0.1,0-0.1-0.1c0-0.1,0-0.1,0.1-0.1l0,0c0.2,0,0.4,0,0.5,0
			C55.9,92.2,55.9,92.2,55.8,92.4C55.9,92.3,55.9,92.4,55.8,92.4z M58.5,92.3C58.4,92.3,58.4,92.3,58.5,92.3c-0.1-0.1-0.1-0.2,0-0.2
			l0.5,0h0c0.1,0,0.1,0,0.1,0.1c0,0.1,0,0.1-0.1,0.1L58.5,92.3L58.5,92.3z M59.6,92.3C59.5,92.3,59.5,92.3,59.6,92.3
			c-0.1-0.1-0.1-0.2,0-0.2l0.5,0c0,0,0.1,0,0.1,0.1c0,0.1,0,0.1-0.1,0.1L59.6,92.3L59.6,92.3z M60.6,92.3
			C60.6,92.3,60.5,92.3,60.6,92.3c-0.1-0.1-0.1-0.2,0-0.2l0.5,0c0,0,0.1,0,0.1,0.1c0,0.1,0,0.1-0.1,0.1L60.6,92.3L60.6,92.3z
			 M61.7,92.3C61.6,92.3,61.6,92.2,61.7,92.3c-0.1-0.1-0.1-0.2,0-0.2c0.2,0,0.3,0,0.5,0h0c0.1,0,0.1,0,0.1,0.1c0,0.1,0,0.1-0.1,0.1
			C62,92.3,61.9,92.3,61.7,92.3L61.7,92.3z M64.4,92.3L64.4,92.3c-0.2,0-0.3,0-0.5,0c-0.1,0-0.1,0-0.1-0.1c0-0.1,0-0.1,0.1-0.1l0,0
			c0.2,0,0.4,0,0.5,0C64.4,92.1,64.5,92.1,64.4,92.3C64.5,92.2,64.4,92.3,64.4,92.3z M62.8,92.3C62.7,92.3,62.7,92.2,62.8,92.3
			c-0.1-0.1-0.1-0.2,0-0.2c0.2,0,0.4,0,0.5,0l0,0c0.1,0,0.1,0,0.1,0.1c0,0.1,0,0.1-0.1,0.1C63.1,92.3,62.9,92.3,62.8,92.3L62.8,92.3
			z"/>
		<path fill="#3972A9" d="M28.3,90.8l-0.5,0c-0.1,0-0.1,0-0.1-0.1s0-0.1,0.1-0.1l0.5,0C28.3,90.7,28.4,90.7,28.3,90.8
			C28.4,90.8,28.3,90.8,28.3,90.8z M27.2,90.8l-0.5,0c-0.1,0-0.1,0-0.1-0.1c0-0.1,0-0.1,0.1-0.1l0.5,0
			C27.2,90.7,27.3,90.7,27.2,90.8C27.3,90.8,27.2,90.8,27.2,90.8z M26.1,90.8l-0.5,0c-0.1,0-0.1,0-0.1-0.1c0-0.1,0-0.1,0.1-0.1
			l0.5,0C26.1,90.6,26.2,90.7,26.1,90.8C26.2,90.8,26.1,90.8,26.1,90.8z M28.8,90.8C28.8,90.8,28.7,90.8,28.8,90.8
			c-0.1-0.1-0.1-0.2,0-0.2c0.2,0,0.3,0,0.5,0l0,0c0.1,0,0.1,0,0.1,0.1c0,0.1,0,0.1-0.1,0.1C29.2,90.8,29,90.8,28.8,90.8L28.8,90.8z
			 M29.9,90.8C29.9,90.8,29.8,90.8,29.9,90.8c-0.1-0.1-0.1-0.2,0-0.2l0.5,0h0c0.1,0,0.1,0,0.1,0.1c0,0.1,0,0.1-0.1,0.1L29.9,90.8
			L29.9,90.8z M31,90.8C31,90.8,30.9,90.8,31,90.8c-0.1-0.1-0.1-0.2,0-0.2l0.5,0c0.1,0,0.1,0,0.1,0.1c0,0.1,0,0.1-0.1,0.1L31,90.8
			L31,90.8z M32.1,90.8C32.1,90.8,32,90.8,32.1,90.8c-0.1-0.1-0.1-0.2,0-0.2l0.5,0h0c0.1,0,0.1,0,0.1,0.1c0,0.1,0,0.1-0.1,0.1
			L32.1,90.8L32.1,90.8z M36,90.8c-0.2,0-0.4,0-0.5,0c-0.1,0-0.1,0-0.1-0.1c0-0.1,0-0.1,0.1-0.1h0c0.2,0,0.3,0,0.5,0
			C36,90.6,36.1,90.7,36,90.8C36.1,90.8,36,90.8,36,90.8z M36.5,90.8C36.5,90.8,36.4,90.8,36.5,90.8c-0.1-0.1-0.1-0.2,0-0.2
			c0.1,0,0.3,0,0.5,0l0,0c0.1,0,0.1,0,0.1,0.1c0,0.1,0,0.1-0.1,0.1C36.8,90.8,36.6,90.8,36.5,90.8C36.5,90.8,36.5,90.8,36.5,90.8z
			 M33.2,90.8C33.2,90.8,33.1,90.8,33.2,90.8c-0.1-0.1-0.1-0.2,0-0.2l0.5,0l0,0c0.1,0,0.1,0,0.1,0.1c0,0.1,0,0.1-0.1,0.1L33.2,90.8
			L33.2,90.8z M34.9,90.8L34.9,90.8c-0.1,0-0.3,0-0.5,0c-0.1,0-0.1,0-0.1-0.1s0-0.1,0.1-0.1l0,0c0.2,0,0.4,0,0.5,0
			C34.9,90.6,35,90.7,34.9,90.8C35,90.8,34.9,90.8,34.9,90.8z M37.6,90.8C37.6,90.8,37.5,90.8,37.6,90.8c-0.1-0.1-0.1-0.2,0-0.2
			l0.5,0l0,0c0.1,0,0.1,0,0.1,0.1c0,0.1,0,0.1-0.1,0.1L37.6,90.8L37.6,90.8z M38.7,90.8C38.6,90.8,38.6,90.7,38.7,90.8
			c-0.1-0.1-0.1-0.2,0-0.2l0.5,0c0.1,0,0.1,0,0.1,0.1c0,0.1,0,0.1-0.1,0.1L38.7,90.8L38.7,90.8z M39.8,90.8
			C39.7,90.8,39.7,90.7,39.8,90.8c-0.1-0.1-0.1-0.2,0-0.2l0.5,0c0.1,0,0.1,0,0.1,0.1c0,0.1,0,0.1-0.1,0.1L39.8,90.8L39.8,90.8z
			 M40.9,90.7C40.8,90.7,40.8,90.7,40.9,90.7c-0.1-0.1-0.1-0.2,0-0.2c0.2,0,0.3,0,0.5,0h0c0.1,0,0.1,0,0.1,0.1c0,0.1,0,0.1-0.1,0.1
			C41.2,90.7,41.1,90.7,40.9,90.7L40.9,90.7z M43.6,90.7L43.6,90.7c-0.2,0-0.4,0-0.5,0c-0.1,0-0.1,0-0.1-0.1s0-0.1,0.1-0.1l0,0
			c0.2,0,0.4,0,0.5,0C43.7,90.6,43.7,90.6,43.6,90.7C43.7,90.7,43.7,90.7,43.6,90.7z M42,90.7C41.9,90.7,41.9,90.7,42,90.7
			c-0.1-0.1-0.1-0.2,0-0.2c0.2,0,0.4,0,0.6,0l0,0c0.1,0,0.1,0,0.1,0.1c0,0.1,0,0.1-0.1,0.1C42.4,90.7,42.2,90.7,42,90.7L42,90.7z"/>
		<path fill="#3972A9" d="M49.4,90.7l-0.5,0c-0.1,0-0.1,0-0.1-0.1s0-0.1,0.1-0.1l0.5,0C49.4,90.5,49.5,90.5,49.4,90.7
			C49.5,90.6,49.4,90.7,49.4,90.7z M48.3,90.7l-0.5,0c-0.1,0-0.1,0-0.1-0.1s0-0.1,0.1-0.1l0.5,0C48.3,90.5,48.4,90.5,48.3,90.7
			C48.4,90.6,48.3,90.7,48.3,90.7z M47.2,90.7l-0.5,0c-0.1,0-0.1,0-0.1-0.1c0-0.1,0-0.1,0.1-0.1l0.5,0
			C47.3,90.5,47.3,90.5,47.2,90.7C47.3,90.6,47.3,90.7,47.2,90.7z M49.9,90.7C49.8,90.7,49.8,90.6,49.9,90.7c-0.1-0.1-0.1-0.2,0-0.2
			c0.2,0,0.3,0,0.5,0l0,0c0.1,0,0.1,0,0.1,0.1c0,0.1,0,0.1-0.1,0.1C50.2,90.7,50.1,90.7,49.9,90.7L49.9,90.7z M51,90.7
			C50.9,90.7,50.9,90.6,51,90.7c-0.1-0.1-0.1-0.2,0-0.2l0.5,0h0c0.1,0,0.1,0,0.1,0.1c0,0.1,0,0.1-0.1,0.1L51,90.7L51,90.7z M52,90.7
			C52,90.7,51.9,90.6,52,90.7c-0.1-0.1-0.1-0.2,0-0.2l0.5,0c0,0,0,0,0,0c0.1,0,0.1,0,0.1,0.1c0,0.1,0,0.1-0.1,0.1L52,90.7L52,90.7z
			 M53.1,90.7C53.1,90.7,53,90.6,53.1,90.7c-0.1-0.1-0.1-0.2,0-0.2l0.5,0h0c0.1,0,0.1,0,0.1,0.1c0,0.1,0,0.1-0.1,0.1L53.1,90.7
			L53.1,90.7z M56.9,90.7L56.9,90.7c-0.2,0-0.4,0-0.5,0c-0.1,0-0.1,0-0.1-0.1c0-0.1,0-0.1,0.1-0.1c0.1,0,0.3,0,0.5,0
			C56.9,90.5,56.9,90.5,56.9,90.7C56.9,90.6,56.9,90.7,56.9,90.7z M57.4,90.7C57.3,90.7,57.3,90.6,57.4,90.7c-0.1-0.1-0.1-0.2,0-0.2
			c0.1,0,0.3,0,0.5,0l0,0c0.1,0,0.1,0,0.1,0.1c0,0.1,0,0.1-0.1,0.1C57.7,90.7,57.5,90.7,57.4,90.7L57.4,90.7z M54.2,90.7
			C54.1,90.7,54.1,90.6,54.2,90.7c-0.1-0.1-0.1-0.2,0-0.2l0.5,0l0,0c0.1,0,0.1,0,0.1,0.1c0,0.1,0,0.1-0.1,0.1L54.2,90.7L54.2,90.7z
			 M55.8,90.7L55.8,90.7c-0.1,0-0.3,0-0.5,0c-0.1,0-0.1,0-0.1-0.1c0-0.1,0-0.1,0.1-0.1l0,0c0.2,0,0.4,0,0.5,0
			C55.8,90.5,55.9,90.5,55.8,90.7C55.9,90.6,55.8,90.7,55.8,90.7z M58.5,90.7C58.4,90.7,58.4,90.6,58.5,90.7c-0.1-0.1-0.1-0.2,0-0.2
			l0.5,0l0,0c0.1,0,0.1,0,0.1,0.1c0,0.1,0,0.1-0.1,0.1L58.5,90.7L58.5,90.7z M59.5,90.6C59.5,90.6,59.4,90.6,59.5,90.6
			c-0.1-0.1-0.1-0.2,0-0.2l0.5,0l0,0c0.1,0,0.1,0,0.1,0.1c0,0.1,0,0.1-0.1,0.1L59.5,90.6L59.5,90.6z M60.6,90.6
			C60.5,90.6,60.5,90.6,60.6,90.6c-0.1-0.1-0.1-0.2,0-0.2l0.5,0h0c0.1,0,0.1,0,0.1,0.1c0,0.1,0,0.1-0.1,0.1L60.6,90.6L60.6,90.6z
			 M61.7,90.6C61.6,90.6,61.6,90.5,61.7,90.6c-0.1-0.1-0.1-0.2,0-0.2c0.2,0,0.3,0,0.5,0h0c0.1,0,0.1,0,0.1,0.1c0,0.1,0,0.1-0.1,0.1
			C62,90.6,61.9,90.6,61.7,90.6L61.7,90.6z M64.3,90.6L64.3,90.6c-0.2,0-0.3,0-0.5,0c-0.1,0-0.1,0-0.1-0.1c0-0.1,0-0.1,0.1-0.1l0,0
			c0.2,0,0.4,0,0.5,0C64.4,90.4,64.4,90.4,64.3,90.6C64.4,90.5,64.4,90.6,64.3,90.6z M62.7,90.6C62.7,90.6,62.6,90.5,62.7,90.6
			c-0.1-0.1-0.1-0.2,0-0.2c0.2,0,0.4,0,0.5,0l0,0c0.1,0,0.1,0,0.1,0.1c0,0.1,0,0.1-0.1,0.1C63.1,90.6,62.9,90.6,62.7,90.6L62.7,90.6
			z"/>
		<path fill="#3972A9" d="M44.4,92.5C44.4,92.5,44.3,92.5,44.4,92.5c-0.1-0.2-0.1-0.3-0.1-0.5c0-0.1,0-0.1,0.1-0.1
			c0,0,0.1,0,0.1,0.1C44.5,92.2,44.5,92.3,44.4,92.5C44.5,92.5,44.5,92.5,44.4,92.5C44.4,92.5,44.4,92.5,44.4,92.5z M44.4,91.6
			C44.3,91.6,44.3,91.5,44.4,91.6c-0.1-0.3-0.1-0.4-0.1-0.6c0-0.1,0-0.1,0.1-0.1c0.1,0,0.1,0,0.1,0.1C44.5,91.1,44.5,91.3,44.4,91.6
			C44.5,91.5,44.4,91.6,44.4,91.6L44.4,91.6z M44.3,90.5C44.3,90.5,44.3,90.5,44.3,90.5c-0.1-0.2-0.1-0.4-0.1-0.6
			c0-0.1,0-0.1,0.1-0.1c0.1,0,0.1,0,0.1,0.1C44.4,90.1,44.4,90.3,44.3,90.5C44.4,90.5,44.4,90.5,44.3,90.5L44.3,90.5z M44.4,89.4
			L44.4,89.4C44.3,89.4,44.3,89.4,44.4,89.4l-0.1-0.6c0-0.1,0-0.1,0.1-0.1h0c0.1,0,0.1,0,0.1,0.1L44.4,89.4
			C44.4,89.4,44.4,89.4,44.4,89.4z M44.4,88.3L44.4,88.3C44.3,88.3,44.3,88.3,44.4,88.3l-0.1-0.6c0-0.1,0-0.1,0.1-0.1h0
			c0.1,0,0.1,0,0.1,0.1L44.4,88.3C44.5,88.3,44.4,88.3,44.4,88.3z M44.4,87.2L44.4,87.2C44.3,87.2,44.3,87.2,44.4,87.2l-0.1-0.6
			c0-0.1,0-0.1,0.1-0.1h0c0.1,0,0.1,0,0.1,0.1L44.4,87.2C44.5,87.2,44.4,87.2,44.4,87.2z M44.4,86.1L44.4,86.1
			C44.3,86.1,44.3,86.1,44.4,86.1l-0.1-0.6c0-0.1,0-0.1,0.1-0.1c0.1,0,0.1,0,0.1,0.1L44.4,86.1C44.5,86.1,44.4,86.1,44.4,86.1z
			 M44.4,85L44.4,85C44.4,85,44.3,85,44.4,85l-0.1-0.6c0-0.1,0-0.1,0.1-0.1l0,0c0.1,0,0.1,0,0.1,0.1L44.4,85
			C44.5,85,44.5,85,44.4,85z M44.4,83.9L44.4,83.9C44.4,83.9,44.3,83.9,44.4,83.9l-0.1-0.6c0-0.1,0-0.1,0.1-0.1l0,0
			c0.1,0,0.1,0,0.1,0.1l0,0L44.4,83.9C44.5,83.9,44.5,83.9,44.4,83.9z M44.4,82.9L44.4,82.9C44.4,82.9,44.3,82.8,44.4,82.9l-0.1-0.6
			c0-0.1,0-0.1,0.1-0.1h0c0.1,0,0.1,0,0.1,0.1L44.4,82.9C44.5,82.8,44.5,82.9,44.4,82.9z M44.5,81.8L44.5,81.8
			C44.4,81.8,44.4,81.7,44.5,81.8l-0.1-0.6c0-0.1,0-0.1,0.1-0.1c0.1,0,0.1,0,0.1,0.1L44.5,81.8C44.6,81.7,44.5,81.8,44.5,81.8z"/>
		<path fill="#3972A9" d="M46.7,91.8C46.7,91.8,46.6,91.8,46.7,91.8c-0.1-0.3-0.1-0.4-0.1-0.6c0-0.1,0-0.1,0.1-0.1l0,0
			c0.1,0,0.1,0,0.1,0.1C46.8,91.4,46.8,91.6,46.7,91.8C46.8,91.8,46.8,91.8,46.7,91.8C46.7,91.8,46.7,91.8,46.7,91.8z M46.7,90.7
			C46.7,90.7,46.6,90.7,46.7,90.7c-0.1-0.2-0.1-0.4-0.1-0.6c0-0.1,0-0.1,0.1-0.1s0.1,0,0.1,0.1C46.8,90.4,46.8,90.5,46.7,90.7
			C46.8,90.7,46.8,90.7,46.7,90.7L46.7,90.7z M46.7,89.7L46.7,89.7C46.7,89.7,46.6,89.6,46.7,89.7L46.6,89c0-0.1,0-0.1,0.1-0.1l0,0
			c0.1,0,0.1,0,0.1,0.1L46.7,89.7C46.8,89.6,46.8,89.7,46.7,89.7z M46.7,88.6L46.7,88.6C46.7,88.6,46.6,88.5,46.7,88.6
			c-0.1-0.3-0.1-0.4-0.1-0.6c0-0.1,0-0.1,0.1-0.1c0,0,0.1,0,0.1,0.1C46.8,88.1,46.8,88.3,46.7,88.6C46.8,88.5,46.8,88.6,46.7,88.6z
			 M46.7,87.5L46.7,87.5C46.7,87.5,46.6,87.4,46.7,87.5l-0.1-0.6c0-0.1,0-0.1,0.1-0.1l0,0c0.1,0,0.1,0,0.1,0.1L46.7,87.5
			C46.8,87.4,46.8,87.5,46.7,87.5z M46.7,86.4L46.7,86.4C46.7,86.4,46.7,86.3,46.7,86.4l-0.1-0.6c0-0.1,0-0.1,0.1-0.1
			c0.1,0,0.1,0,0.1,0.1L46.7,86.4C46.8,86.3,46.8,86.4,46.7,86.4z M46.8,85.3L46.8,85.3C46.7,85.3,46.7,85.2,46.8,85.3l-0.1-0.6
			c0-0.1,0-0.1,0.1-0.1l0,0c0.1,0,0.1,0,0.1,0.1L46.8,85.3C46.9,85.2,46.8,85.3,46.8,85.3z M46.8,84.2L46.8,84.2
			C46.7,84.2,46.7,84.2,46.8,84.2l-0.1-0.6c0-0.1,0-0.1,0.1-0.1h0c0.1,0,0.1,0,0.1,0.1l0,0L46.8,84.2C46.9,84.2,46.8,84.2,46.8,84.2
			z M46.8,83.1L46.8,83.1C46.7,83.1,46.7,83.1,46.8,83.1l-0.1-0.6c0-0.1,0-0.1,0.1-0.1c0.1,0,0.1,0,0.1,0.1L46.8,83.1
			C46.9,83.1,46.9,83.1,46.8,83.1z"/>
		<path fill="#3972A9" d="M41.7,83.9l-0.3-0.5c0,0,0-0.1,0-0.1c0,0,0.1,0,0.1,0l0.2,0.3c0,0,0.1,0,0.1,0c0,0,0.1,0.1,0,0.1
			L41.7,83.9z M42.1,83.3C42.1,83.3,42.1,83.3,42.1,83.3c-0.1-0.1-0.1-0.1-0.1-0.2l0.3-0.4c0,0,0.1,0,0.1,0c0,0,0.1,0.1,0,0.1
			L42.1,83.3C42.2,83.3,42.2,83.3,42.1,83.3z M41.2,83C41.1,83,41.1,83,41.2,83l-0.4-0.5c0,0,0-0.1,0-0.1c0,0,0.1,0,0.1,0l0.3,0.4
			C41.3,82.9,41.3,83,41.2,83C41.2,83,41.2,83,41.2,83z M42.8,82.5C42.8,82.5,42.8,82.4,42.8,82.5c-0.1-0.1-0.1-0.1-0.1-0.2l0.3-0.4
			c0,0,0.1,0,0.1,0c0,0,0.1,0.1,0,0.1L42.8,82.5C42.8,82.4,42.8,82.5,42.8,82.5z M40.5,82.2C40.5,82.2,40.5,82.1,40.5,82.2l-0.4-0.5
			c0,0,0-0.1,0-0.1c0,0,0.1,0,0.1,0l0.3,0.4C40.6,82.1,40.6,82.1,40.5,82.2C40.6,82.2,40.5,82.2,40.5,82.2z M43.4,81.6
			C43.4,81.6,43.4,81.6,43.4,81.6c-0.1-0.1-0.1-0.1-0.1-0.2l0.3-0.4c0,0,0.1,0,0.1,0c0,0,0.1,0.1,0,0.1L43.4,81.6
			C43.5,81.6,43.5,81.6,43.4,81.6z M39.9,81.3C39.9,81.3,39.8,81.3,39.9,81.3c-0.2-0.2-0.3-0.3-0.4-0.5c0,0,0-0.1,0-0.1
			c0,0,0.1,0,0.1,0c0.1,0.1,0.2,0.3,0.3,0.4C40,81.2,40,81.2,39.9,81.3C39.9,81.3,39.9,81.3,39.9,81.3z M44.1,80.7
			C44.1,80.7,44.1,80.7,44.1,80.7C44,80.7,44,80.6,44,80.6l0.3-0.4c0,0,0.1,0,0.1,0c0,0,0.1,0.1,0,0.1L44.1,80.7
			C44.2,80.7,44.1,80.7,44.1,80.7z M39.3,80.4C39.2,80.4,39.2,80.4,39.3,80.4l-0.4-0.5c0,0,0-0.1,0-0.1c0,0,0.1,0,0.1,0l0.3,0.4
			C39.4,80.3,39.4,80.3,39.3,80.4C39.3,80.4,39.3,80.4,39.3,80.4z M44.8,79.8C44.7,79.8,44.7,79.8,44.8,79.8
			c-0.1-0.1-0.1-0.1-0.1-0.2l0.1-0.1c0,0,0.1,0,0.1,0c0,0,0,0.1,0,0.1L44.8,79.8C44.8,79.8,44.8,79.8,44.8,79.8z M38.6,79.5
			C38.6,79.5,38.6,79.5,38.6,79.5L38.2,79l0.1-0.1l0.1-0.1L38.3,79l0.1,0l0.3,0.4C38.7,79.4,38.7,79.5,38.6,79.5
			C38.7,79.5,38.6,79.5,38.6,79.5z M38,78.6C38,78.6,37.9,78.6,38,78.6l-0.4-0.5c0,0,0-0.1,0-0.1c0,0,0.1,0,0.1,0l0.3,0.4
			C38.1,78.5,38.1,78.6,38,78.6C38,78.6,38,78.6,38,78.6z M37.4,77.7C37.3,77.7,37.3,77.7,37.4,77.7L37,77.2c0,0,0-0.1,0-0.1
			c0,0,0.1,0,0.1,0l0.3,0.4C37.5,77.6,37.5,77.7,37.4,77.7C37.4,77.7,37.4,77.7,37.4,77.7z M36.8,76.8
			C36.7,76.8,36.7,76.8,36.8,76.8l-0.4-0.5c0,0,0-0.1,0-0.1c0,0,0.1,0,0.1,0l0.3,0.4C36.9,76.7,36.9,76.8,36.8,76.8
			C36.8,76.8,36.8,76.8,36.8,76.8z M36.1,75.9C36.1,75.9,36.1,75.9,36.1,75.9l-0.4-0.5c0,0,0-0.1,0-0.1c0,0,0.1,0,0.1,0l0.3,0.4
			C36.2,75.8,36.2,75.9,36.1,75.9C36.2,75.9,36.2,75.9,36.1,75.9z M35.7,75C35.7,75,35.7,75,35.7,75c-0.1,0-0.1-0.1-0.1-0.1
			c0.1-0.2,0.1-0.3,0.2-0.5c0,0,0.1-0.1,0.1-0.1c0,0,0.1,0.1,0.1,0.1C35.9,74.6,35.9,74.8,35.7,75C35.8,75,35.7,75,35.7,75z
			 M36.1,74C36.1,74,36.1,74,36.1,74C36,74,36,73.9,36,73.9c0.1-0.2,0.1-0.3,0.2-0.5c0,0,0.1-0.1,0.1-0.1c0,0,0.1,0.1,0.1,0.1
			C36.3,73.6,36.2,73.7,36.1,74C36.2,74,36.1,74,36.1,74z M36.4,72.9C36.4,72.9,36.4,72.9,36.4,72.9c-0.1,0-0.1-0.1-0.1-0.1
			c0.1-0.2,0.1-0.3,0.2-0.5c0-0.1,0.1-0.1,0.1-0.1c0.1,0,0.1,0.1,0.1,0.1C36.6,72.5,36.6,72.7,36.4,72.9
			C36.5,72.9,36.5,72.9,36.4,72.9z M36.7,71.9C36.7,71.9,36.7,71.9,36.7,71.9c-0.1,0-0.1-0.1-0.1-0.1c0-0.2,0.1-0.4,0.1-0.5
			c0-0.1,0.1-0.1,0.1-0.1c0.1,0,0.1,0.1,0.1,0.1C36.9,71.5,36.9,71.6,36.7,71.9C36.8,71.9,36.8,71.9,36.7,71.9z"/>
		<g>
			<path fill="#3972A9" d="M45.7,80C45.6,80,45.6,80,45.7,80l-0.2-0.2c0,0,0-0.1,0-0.1c0,0,0.1,0,0.1,0l0.2,0.2
				C45.8,79.9,45.8,79.9,45.7,80C45.7,80,45.7,80,45.7,80z"/>
			<path fill="#3972A9" d="M48.3,83.2C48.2,83.2,48.2,83.2,48.3,83.2c-0.2-0.2-0.3-0.3-0.4-0.4c0,0,0-0.1,0-0.1c0,0,0.1,0,0.1,0
				c0.1,0.1,0.2,0.3,0.3,0.4C48.4,83.1,48.4,83.1,48.3,83.2C48.3,83.2,48.3,83.2,48.3,83.2z M47.6,82.3
				C47.6,82.3,47.6,82.3,47.6,82.3c-0.2-0.2-0.3-0.3-0.4-0.4c0,0,0-0.1,0-0.1c0,0,0.1,0,0.1,0c0.1,0.1,0.2,0.3,0.3,0.4
				C47.7,82.2,47.7,82.3,47.6,82.3C47.7,82.3,47.7,82.3,47.6,82.3z M47,81.5C47,81.5,47,81.5,47,81.5c-0.2-0.2-0.3-0.3-0.4-0.4
				c0,0,0-0.1,0-0.1c0,0,0.1,0,0.1,0c0.1,0.1,0.2,0.3,0.3,0.4C47.1,81.4,47.1,81.5,47,81.5C47.1,81.5,47,81.5,47,81.5z M46.4,80.8
				C46.3,80.8,46.3,80.8,46.4,80.8c-0.2-0.2-0.3-0.3-0.4-0.4c0,0,0-0.1,0-0.1c0,0,0.1,0,0.1,0c0.1,0.1,0.2,0.3,0.3,0.4
				C46.5,80.6,46.5,80.7,46.4,80.8C46.4,80.8,46.4,80.8,46.4,80.8z"/>
			<path fill="#3972A9" d="M48.7,83.9l-0.2-0.3c0,0,0-0.1,0-0.1c0,0,0.1,0,0.1,0l0.1,0.1l0.1-0.1c0,0,0.1-0.1,0.1,0
				c0,0,0.1,0.1,0,0.1L48.7,83.9z"/>
			<path fill="#3972A9" d="M49.2,83.2C49.2,83.2,49.1,83.2,49.2,83.2c-0.1,0-0.1-0.1-0.1-0.1c0.1-0.1,0.2-0.3,0.3-0.4
				c0,0,0.1-0.1,0.1,0c0,0,0.1,0.1,0,0.1C49.4,82.8,49.3,83,49.2,83.2C49.2,83.1,49.2,83.2,49.2,83.2z M49.8,82.3
				C49.8,82.3,49.7,82.3,49.8,82.3c-0.1,0-0.1-0.1-0.1-0.1c0.1-0.1,0.2-0.3,0.3-0.4c0,0,0.1-0.1,0.1,0c0,0,0.1,0.1,0,0.1
				C50,82,49.9,82.1,49.8,82.3C49.8,82.3,49.8,82.3,49.8,82.3z M50.4,81.4C50.3,81.4,50.3,81.4,50.4,81.4c-0.1,0-0.1-0.1-0.1-0.1
				l0,0c0.1-0.1,0.2-0.3,0.3-0.4c0,0,0.1-0.1,0.1,0c0,0,0.1,0.1,0,0.1c-0.1,0.1-0.2,0.3-0.3,0.4L50.4,81.4
				C50.4,81.4,50.4,81.4,50.4,81.4z M50.9,80.6C50.9,80.6,50.9,80.6,50.9,80.6c-0.1,0-0.1-0.1-0.1-0.1c0.1-0.1,0.2-0.3,0.3-0.4
				c0,0,0.1-0.1,0.1,0c0,0,0.1,0.1,0,0.1C51.2,80.2,51.1,80.4,50.9,80.6C51,80.6,51,80.6,50.9,80.6z M51.5,79.7
				C51.5,79.7,51.5,79.7,51.5,79.7c-0.1,0-0.1-0.1-0.1-0.1l0.3-0.4c0,0,0.1-0.1,0.1,0c0,0,0.1,0.1,0,0.1L51.5,79.7
				C51.6,79.7,51.5,79.7,51.5,79.7z M52.1,78.8C52.1,78.8,52,78.8,52.1,78.8c-0.1,0-0.1-0.1-0.1-0.1l0.3-0.4c0,0,0.1-0.1,0.1,0
				c0,0,0.1,0.1,0,0.1L52.1,78.8C52.1,78.8,52.1,78.8,52.1,78.8z M52.7,77.9C52.6,77.9,52.6,77.9,52.7,77.9c-0.1,0-0.1-0.1-0.1-0.1
				l0.3-0.4c0,0,0.1-0.1,0.1,0c0,0,0.1,0.1,0,0.1L52.7,77.9C52.7,77.9,52.7,77.9,52.7,77.9z M53.2,77.1
				C53.2,77.1,53.2,77.1,53.2,77.1c-0.1,0-0.1-0.1-0.1-0.1l0.3-0.4c0,0,0.1-0.1,0.1,0c0,0,0.1,0.1,0,0.1L53.2,77.1
				C53.3,77,53.3,77.1,53.2,77.1z M53.8,76.2C53.8,76.2,53.8,76.2,53.8,76.2c-0.1,0-0.1-0.1-0.1-0.1l0.3-0.4c0,0,0.1-0.1,0.1,0
				c0,0,0.1,0.1,0,0.1L53.8,76.2C53.9,76.2,53.8,76.2,53.8,76.2z"/>
			<path fill="#3972A9" d="M54.4,75.3C54.4,75.3,54.3,75.3,54.4,75.3c-0.1,0-0.1-0.1-0.1-0.1l0.1-0.2l-0.1-0.2c0,0,0-0.1,0.1-0.1
				c0,0,0.1,0,0.1,0.1l0.1,0.3L54.4,75.3C54.4,75.3,54.4,75.3,54.4,75.3z"/>
			<path fill="#3972A9" d="M54.3,74.4C54.2,74.4,54.2,74.3,54.3,74.4L54,73.8c0,0,0-0.1,0.1-0.1c0,0,0.1,0,0.1,0.1l0.2,0.5
				C54.4,74.3,54.4,74.3,54.3,74.4C54.3,74.4,54.3,74.4,54.3,74.4z M54,73.5C53.9,73.5,53.9,73.4,54,73.5l-0.2-0.5
				c0,0,0-0.1,0.1-0.1c0,0,0.1,0,0.1,0.1l0.2,0.5C54.1,73.4,54,73.4,54,73.5C54,73.4,54,73.5,54,73.5z M53.6,72.5
				C53.6,72.5,53.6,72.5,53.6,72.5L53.4,72c0,0,0-0.1,0.1-0.1c0,0,0.1,0,0.1,0.1l0.2,0.5C53.7,72.5,53.7,72.5,53.6,72.5
				C53.7,72.5,53.6,72.5,53.6,72.5z"/>
			<path fill="#3972A9" d="M53.3,71.6C53.3,71.6,53.2,71.6,53.3,71.6l-0.2-0.3c0,0,0-0.1,0.1-0.1c0,0,0.1,0,0.1,0.1l0.1,0.3
				C53.4,71.6,53.4,71.6,53.3,71.6C53.3,71.6,53.3,71.6,53.3,71.6z"/>
		</g>
		<path fill="#3972A9" d="M56.7,84.2l-0.2-0.1l0,0L56.7,84.2L56.7,84.2L56.7,84.2L56.7,84.2z M56.9,84.1L56.9,84.1l0.2-0.1l0,0
			L56.9,84.1z M56.3,84l-0.2-0.1l0,0L56.3,84L56.3,84z M57.3,83.9L57.3,83.9l0.2-0.1l0,0L57.3,83.9z M55.9,83.8l-0.2-0.1l0,0
			L55.9,83.8L55.9,83.8z M57.7,83.7L57.7,83.7l0.2-0.1l0,0L57.7,83.7z M55.5,83.6l-0.2-0.1l0,0L55.5,83.6L55.5,83.6z M58.1,83.5
			L58.1,83.5l0.2-0.1l0,0L58.1,83.5z M55.1,83.5l-0.2-0.1l0,0L55.1,83.5L55.1,83.5z M58.5,83.3L58.5,83.3l0.2-0.1l0,0L58.5,83.3z
			 M54.7,83.3l-0.2-0.1l0,0L54.7,83.3L54.7,83.3z M58.8,83.1l0-0.2l0.1,0L58.8,83.1L58.8,83.1z M54.3,83l0-0.2l0.1,0L54.3,83
			L54.3,83z M58.7,82.7l0-0.2l0.1,0L58.7,82.7L58.7,82.7z M54.3,82.6l0-0.2l0.1,0L54.3,82.6L54.3,82.6z M58.7,82.2l0-0.2l0.1,0
			L58.7,82.2L58.7,82.2z M54.2,82.2l0-0.2l0.1,0L54.2,82.2L54.2,82.2z"/>
		<path fill="#3972A9" d="M29.8,90.1L29.8,90.1l0.1-0.1L29.8,90.1L30,90l0,0.1L29.8,90.1z M30.2,90.1L30.2,90.1l0.2-0.1l0-0.2l0.1,0
			l0,0.2l0,0l0,0L30.2,90.1z M29.8,89.8l0-0.2l0.1,0L29.8,89.8L29.8,89.8z M30.3,89.6l0-0.2l0.1,0L30.3,89.6L30.3,89.6z M29.7,89.4
			l0-0.2l0.1,0L29.7,89.4L29.7,89.4z M30.3,89.1l0-0.2l0.1,0L30.3,89.1L30.3,89.1z M29.7,89l0-0.2l0.1,0L29.7,89L29.7,89z
			 M30.2,88.7l0-0.2l0.1,0L30.2,88.7L30.2,88.7z M29.6,88.5l0-0.2l0.1,0L29.6,88.5L29.6,88.5z M30.2,88.3l0-0.2l0.1,0L30.2,88.3
			L30.2,88.3z M29.5,88.1l0-0.2l0.1,0L29.5,88.1L29.5,88.1z M30.1,87.8l0-0.2l0.1,0L30.1,87.8L30.1,87.8z M29.5,87.7l0-0.2l0.1,0
			L29.5,87.7L29.5,87.7z M30,87.4l0-0.2l0.1,0L30,87.4L30,87.4z M29.4,87.2l0-0.2l0.1,0L29.4,87.2L29.4,87.2z M30,87l0-0.2l0.1,0
			L30,87L30,87z M29.4,86.8l0-0.2l0.1,0L29.4,86.8L29.4,86.8z M29.9,86.5l0-0.1l0,0l0-0.1l0.1,0L29.9,86.5L29.9,86.5z M29.5,86.5
			L29.5,86.5l0.2-0.1l0,0.1L29.5,86.5z"/>
		<g>
			<polygon fill="#3972A9" points="60.1,90 60,90 60,89.8 60.1,89.8 60.1,89.9 60.2,89.9 			"/>
			<polygon fill="#3972A9" points="60.4,90 60.3,90 60.3,89.9 60.4,90 			"/>
			<polygon fill="#3972A9" points="60.7,90.1 60.5,90.1 60.5,90 60.6,90 60.6,89.9 60.7,89.9 			"/>
			<path fill="#3972A9" d="M60.7,89.7L60.7,89.7l0-0.2l0.1,0L60.7,89.7z M60.8,89.2L60.8,89.2l0-0.2l0.1,0L60.8,89.2z M60.9,88.8
				L60.9,88.8l0-0.2l0.1,0L60.9,88.8z M60.9,88.3L60.9,88.3l0-0.2l0.1,0L60.9,88.3z M61,87.9L61,87.9l0-0.2l0.1,0L61,87.9z
				 M61.1,87.4L61.1,87.4l0-0.2l0.1,0L61.1,87.4z M61.1,87L61.1,87l0-0.2l0.1,0L61.1,87z"/>
			<polygon fill="#3972A9" points="61.2,86.5 61.1,86.5 61.1,86.4 61.1,86.4 61.1,86.4 61.2,86.4 			"/>
			<polygon fill="#3972A9" points="60.9,86.4 60.8,86.4 60.8,86.3 60.9,86.3 			"/>
			<polygon fill="#3972A9" points="60.6,86.4 60.5,86.4 60.5,86.3 60.7,86.3 60.7,86.4 60.6,86.4 			"/>
			<path fill="#3972A9" d="M60.1,89.6L60.1,89.6l0-0.2l0.1,0L60.1,89.6z M60.2,89.2L60.2,89.2l0-0.2l0.1,0L60.2,89.2z M60.3,88.7
				L60.3,88.7l0-0.2l0.1,0L60.3,88.7z M60.3,88.3L60.3,88.3l0-0.2l0.1,0L60.3,88.3z M60.4,87.8L60.4,87.8l0-0.2l0.1,0L60.4,87.8z
				 M60.5,87.3L60.5,87.3l0-0.2l0.1,0L60.5,87.3z M60.5,86.9L60.5,86.9l0-0.2l0.1,0L60.5,86.9z"/>
		</g>
		<path fill="#3972A9" d="M72.4,89.5l-0.5,0c-0.1,0-0.1,0-0.1-0.1s0-0.1,0.1-0.1l0.5,0C72.5,89.4,72.5,89.4,72.4,89.5
			C72.5,89.5,72.5,89.5,72.4,89.5z M71.3,89.5l-0.5,0c-0.1,0-0.1,0-0.1-0.1s0-0.1,0.1-0.1l0.5,0C71.4,89.4,71.4,89.4,71.3,89.5
			C71.4,89.5,71.4,89.5,71.3,89.5z M70.2,89.5l-0.5,0c-0.1,0-0.1,0-0.1-0.1c0-0.1,0-0.1,0.1-0.1l0.5,0
			C70.3,89.4,70.3,89.4,70.2,89.5C70.3,89.5,70.3,89.5,70.2,89.5z M69.2,89.5L69.2,89.5l-0.5,0c-0.1,0-0.1,0-0.1-0.1
			c0-0.1,0-0.1,0.1-0.1h0l0.5,0C69.2,89.3,69.2,89.4,69.2,89.5C69.2,89.5,69.2,89.5,69.2,89.5z M68.1,89.5L68.1,89.5
			c-0.2,0-0.4,0-0.5,0c-0.1,0-0.1,0-0.1-0.1c0-0.1,0-0.1,0.1-0.1c0.2,0,0.4,0,0.5,0C68.1,89.3,68.2,89.4,68.1,89.5
			C68.2,89.5,68.1,89.5,68.1,89.5z M67,89.5L67,89.5c-0.2,0-0.4,0-0.5,0c-0.1,0-0.1,0-0.1-0.1c0-0.1,0-0.1,0.1-0.1l0,0
			c0.2,0,0.3,0,0.5,0C67,89.3,67.1,89.4,67,89.5C67.1,89.5,67,89.5,67,89.5z M65.9,89.5L65.9,89.5L65.9,89.5c-0.1,0-0.1,0-0.1-0.1
			c0-0.1,0-0.1,0.1-0.1l0,0C66,89.3,66,89.3,65.9,89.5C66,89.4,65.9,89.5,65.9,89.5z"/>
	</g>
</g>
<path fill="#BE3C3C" d="M13.2,65.7c1.3,2.5,5.8,2.4,5.8,2.4c16.6-0.4,25.9,1.3,25.9,1.3c7.2-2.1,23.4-0.8,26.9-0.8
	c3.5,0,5.1-2.7,5.1-2.7c-0.9,5.1-5.6,4.8-5.6,4.8s-13.5,0-17.3,0c-3.8,0-9.3,1.6-9.3,1.6c-2.1-1.7-24.4-1.7-26.6-1.7
	C18.1,70.7,13.2,70.7,13.2,65.7z"/>
<g>
	<g>
		<g>
			<rect x="25.4" y="89.9" fill="#5A606A" width="19.4" height="8.1"/>
		</g>
		<g>
			<rect x="44.9" y="89.9" fill="#5A606A" width="19.4" height="8.1"/>
		</g>
		<g>
			<polygon fill="#444850" points="63.2,93.8 63.4,93.7 61.4,91.7 61.2,91.8 			"/>
			<polygon fill="#444850" points="26.6,93.8 26.4,93.7 28.4,91.7 28.6,91.8 			"/>
			<path fill="#444850" d="M64.3,89.8H25.4V91h18.4l0,1.8l1,0.9v4.4h0.3V91h19.2V89.8z M44.8,93.4L44,92.7l0-1.7h0.8V93.4z"/>
		</g>
		<g>
			<rect x="25.3" y="98" fill="#7B8088" width="19.6" height="0.9"/>
			<rect x="45" y="98" fill="#7B8088" width="19.6" height="0.9"/>
			<rect x="34.5" y="90.2" fill="#7B8088" width="0.7" height="1.8"/>
			<rect x="53.4" y="90.2" fill="#7B8088" width="0.7" height="1.8"/>
		</g>
		<circle fill="#7B8088" cx="44.4" cy="90.4" r="0.4"/>
	</g>
	<g>
		<path fill="#454B55" d="M62.7,102.8H46.6c-0.9,0-1.7-0.7-1.7-1.7V99h19.4v2.2C64.4,102.1,63.6,102.8,62.7,102.8z"/>
		<path fill="#6A6F77" d="M58.5,101.6h-7.7v-1.8c0-0.7,0.6-1.3,1.3-1.3h5.1c0.7,0,1.3,0.6,1.3,1.3V101.6z"/>
		<path fill="#DDD2BF" d="M46.6,102.8H63C63,102.8,55.3,99.1,46.6,102.8z"/>
		<g>
			<rect x="50.2" y="100.8" fill="#DDD2BF" width="8.8" height="0.1"/>
			<rect x="50.2" y="100" fill="#DDD2BF" width="8.8" height="0.1"/>
			<rect x="50.2" y="99.3" fill="#DDD2BF" width="8.8" height="0.1"/>
		</g>
	</g>
	<g>
		<path fill="#454B55" d="M43.3,102.8H27.1c-0.9,0-1.7-0.7-1.7-1.7V99h19.4v2.2C44.9,102.1,44.2,102.8,43.3,102.8z"/>
		<path fill="#6A6F77" d="M39.1,101.6h-7.7v-1.8c0-0.7,0.6-1.3,1.3-1.3h5.1c0.7,0,1.3,0.6,1.3,1.3V101.6z"/>
		<path fill="#DDD2BF" d="M27.2,102.8h16.4C43.6,102.8,35.9,99.1,27.2,102.8z"/>
		<g>
			<rect x="30.7" y="100.8" fill="#DDD2BF" width="8.8" height="0.1"/>
			<rect x="30.7" y="100" fill="#DDD2BF" width="8.8" height="0.1"/>
			<rect x="30.7" y="99.3" fill="#DDD2BF" width="8.8" height="0.1"/>
		</g>
	</g>
</g>
</svg>
