<?xml version="1.0" encoding="utf-8"?>
<!-- Generator: Adobe Illustrator 21.0.0, SVG Export Plug-In . SVG Version: 6.00 Build 0)  -->
<svg version="1.2" baseProfile="tiny" id="Capa_1" xmlns="http://www.w3.org/2000/svg" xmlns:xlink="http://www.w3.org/1999/xlink"
	 x="0px" y="0px" viewBox="0 0 90.7 109.4" xml:space="preserve">
<path fill="#C48B61" d="M71.3,22h-53c-2.9,0-5.3,2.4-5.3,5.3v40.1c0,2.9,2.4,5.3,5.3,5.3h7.1c-1,0.6-8.4,5.6-8.3,18.8l0,0
	c0,3.9,3.2,7,7,7v-7h0c0-3.3,0.5-5.9,1.2-7.8v15.2h0v3.9c0,1.1,0.9,2.1,2.1,2.1h15.3c1.1,0,2.1-0.9,2.1-2.1v-3.6h0.1v3.6
	c0,1.1,0.9,2.1,2.1,2.1h15.3c1.1,0,2.1-0.9,2.1-2.1v-3.9h0V83.9c0.7,1.9,1.3,4.5,1.2,7.8h0v7c3.9,0,7-3.1,7-7l0,0
	c0.1-13.1-7.1-18.1-8.2-18.8h7c2.9,0,5.3-2.4,5.3-5.3V27.4C76.6,24.4,74.2,22,71.3,22z"/>
<path fill="#E3B98C" d="M65.5,91.7"/>
<g>
	<circle fill="#422918" cx="25.3" cy="53.2" r="2.4"/>
	<circle fill="#422918" cx="64.1" cy="53.2" r="2.4"/>
</g>
<path fill="#A5714C" d="M44.8,66.4c-2.2,0-4-1.8-4-4c0-0.4,0.3-0.6,0.6-0.6c0.4,0,0.6,0.3,0.6,0.6c0,1.5,1.2,2.7,2.7,2.7
	c1.5,0,2.7-1.2,2.7-2.7c0-0.4,0.3-0.6,0.6-0.6c0.4,0,0.6,0.3,0.6,0.6C48.7,64.6,47,66.4,44.8,66.4z"/>
<g>
	<path fill="#B37C55" d="M13,60.1c-1.1-0.9-1.9-2.7-1.9-4.6c0-2,0.8-3.7,1.9-4.6L13,60.1z"/>
	<path fill="#B37C55" d="M76.6,60.1c1.1-0.9,1.9-2.7,1.9-4.6c0-2-0.8-3.7-1.9-4.6L76.6,60.1z"/>
	<path fill="#B37C55" d="M56.1,72.9c0,0.8-0.6,1.4-1.2,1.4H32.7c-0.7,0-1.2-0.6-1.2-1.4H56.1z"/>
	<path fill="#B37C55" d="M44.8,60.1L44.8,60.1c-0.9,0-1.6-0.7-1.6-1.6v-4c0-0.9,0.7-1.6,1.6-1.6h0c0.9,0,1.6,0.7,1.6,1.6v4
		C46.4,59.3,45.7,60.1,44.8,60.1z"/>
	<path fill="#B37C55" d="M21.9,96L21.9,96c-0.5,0-0.9-0.4-0.9-0.9v-1.5c0-0.5,0.4-0.9,0.9-0.9h0c0.5,0,0.9,0.4,0.9,0.9v1.5
		C22.8,95.6,22.4,96,21.9,96z"/>
	<path fill="#B37C55" d="M67.7,96L67.7,96c0.5,0,0.9-0.4,0.9-0.9v-1.5c0-0.5-0.4-0.9-0.9-0.9l0,0c-0.5,0-0.9,0.4-0.9,0.9v1.5
		C66.8,95.6,67.2,96,67.7,96z"/>
</g>
<path fill="#422918" d="M75.4,52.1c-0.4-0.7,1.6-1.4,1.4-2.2c-0.1-0.8-1.9-0.5-2-1.3c-0.1-0.8,1-1,0.8-1.8c-0.1-0.8-1.2-0.6-1.4-1.4
	c-0.1-0.8,1.2-1,1-1.8c-0.1-0.8-0.8-0.7-0.9-1.5c-0.1-0.8,0.3-0.9,0.2-1.7c-0.1-0.8-1.1-0.6-1.2-1.4c-0.1-0.8,1.6-1.1,1.4-1.9
	s-1.4-0.6-1.5-1.4c0,0.1-0.2,1-1.2,1.1c-0.5,0.1-1.2-1.2-1.8-1.1c-0.5,0-1,0.7-1.6,0.8c-0.5,0-1.1-0.6-1.7-0.6
	c-0.5,0-1.1-0.3-1.7-0.3c-0.5,0-1.1,0.1-1.7,0.1c-0.5,0-1.1,1-1.7,1c-0.5,0-1.1,0-1.7,0c-0.5,0-1-1.4-1.6-1.5
	c-0.6,0-1.2,1.3-1.8,1.2c-0.6,0-1.2,0.6-1.7,0.5c-0.6-0.1-1-0.8-1.6-0.8c-0.6-0.1-1.1-0.1-1.7-0.2c-0.6-0.1-0.9-1.2-1.4-1.3
	c-0.5-0.2-1.2,0.6-1.8,0.4c-0.5-0.1-1.1,0.3-1.6,0.2c-0.5-0.1-1,0-1.6-0.1c-0.5-0.1-1-0.3-1.5-0.4c-0.5,0-1-0.1-1.6-0.1
	c-0.5,0-1-0.7-1.6-0.8c-0.5,0-1.1,0.7-1.6,0.7c-0.5,0-1.1,0.2-1.6,0.2c-0.5,0-1.1-1.4-1.6-1.4c-0.5,0-1,1-1.6,1
	c-0.5,0-1.1-0.4-1.6-0.4c-0.5,0-1.1,0.1-1.6,0.1c-0.5,0-1.1-0.2-1.6-0.2c-0.5,0-1.1-0.1-1.6,0c-0.5,0.1-0.9,1.7-1.4,1.7
	c-0.5,0.1-1.1,0-1.6,0c-0.6,0.1-1.2-1.1-1.7-1c-0.6,0.1-1,1-1.5,1.1c-0.6,0.1-1.3-0.7-1.7-0.7c-0.6,0.1-1.1,0.2-1.6,0.3
	c-0.9,0.2-1.5,0.8-1.6,0.9c-0.1,0.8-0.3,0.8-0.4,1.6c-0.1,0.8,0.3,0.9,0.2,1.7c-0.1,0.8,0.1,0.9,0,1.7c-0.1,0.8,0.2,0.9,0.1,1.7
	c-0.1,0.8,0,0.8-0.2,1.6c-0.1,0.8-0.6,0.7-0.8,1.5c-0.1,0.8-0.4,0.8-0.5,1.6c-0.1,0.8-0.5,0.7-0.7,1.6c-0.1,0.8-0.2,0.8-0.3,1.6
	c-0.1,0.8,0.9,1.2,0.5,1.9c-0.4,0.7-1.4-0.6-1.7-1.6c-0.2-0.4,0.9-1.4,0.7-2c-0.2-0.5,0-1.1-0.2-1.6c-0.1-0.5-1.3-0.8-1.4-1.3
	c-0.1-0.5,0.4-1.2,0.3-1.7c-0.1-0.5-1.7-0.8-1.8-1.3c-0.1-0.5-0.1-1.1-0.2-1.7c-0.1-0.5,0.7-1.2,0.7-1.7c0-0.5-0.9-1.1-0.9-1.6
	c0-0.5,0.5-1.1,0.5-1.7c0-0.5,0.8-1.1,0.8-1.6c0-0.5-0.8-1.2-0.7-1.7c0.1-0.5-0.3-1.2-0.2-1.8c0.1-0.5,1.7-0.7,1.9-1.2
	c0.2-0.5,0-1.2,0.3-1.7c0.2-0.9-0.8-1.4-0.2-2.2c0.3-0.4,1.7-0.1,2.4-0.2c0.6-0.5,0.9-0.3,1.4-1.2c0.2-0.4-1.1-1.9-0.7-2.4
	c0.3-0.4,1.9,0.1,2.2-0.3c0.3-0.4,0.2-1.2,0.6-1.6c0.4-0.4,1-0.5,1.4-0.8c0.4-0.3,0.6-1,1-1.3c0.4-0.3,0.7-0.9,1.2-1.2
	c0.5-0.3,0.9-0.7,1.4-0.9c0.5-0.2,1.1-0.2,1.6-0.4c0.5-0.2,1.4,0.8,1.9,0.6c0.5-0.2,0.7-1.3,1.3-1.5c0.5-0.1,1-0.9,1.5-1
	c0.5-0.1,1.2,1.4,1.8,1.4c0.5,0,0.9-1,1.5-1c0.4-0.4,0.8-0.5,1.3-0.8c0.4-0.3,0.6-1.1,1.1-1.4c0.5-0.3,1.6,0.8,2.1,0.6
	c0.5-0.2,0.3-2.2,0.8-2.3c0.5-0.2,1.2,0,1.7-0.1c0.5-0.1,1.3,0.9,1.9,0.8c0.5-0.1,1-0.5,1.5-0.6c0.5-0.1,0.9-1.1,1.5-1.2
	c0.5-0.1,1.1-0.1,1.6-0.1c0.5,0,1.1,0.4,1.6,0.4c0.5,0,1.1,0.7,1.6,0.7c0.5,0,1.1-0.7,1.6-0.6c0.5,0,1.1,0.3,1.6,0.4
	c0.5,0.1,1.1-0.4,1.7-0.3c0.5,0.1,1,0.4,1.6,0.5c0.5,0.1,1.1,0.1,1.6,0.3c0.5,0.1,0.9,1,1.4,1.1c0.5,0.1,1,0.5,1.5,0.6
	c0.5,0.1,1.3-0.7,1.8-0.6c0.5,0.2,0.9,0.8,1.4,1c0.5,0.2,0.9,0.7,1.4,0.9c0.5,0.2,1,0.4,1.5,0.7c0.5,0.2,1.3-0.2,1.8,0
	c0.5,0.2,0.6,1.2,1.1,1.5c0.5,0.3,0.7,0.9,1.2,1.1c0.5,0.3,0.9,0.5,1.3,0.8c0.5,0.3,1.3,0,1.7,0.3c0.4,0.3,0.4,1.1,0.8,1.5
	c0.4,0.4,0.8,0.6,1.1,1c0.4,0.4,1,0.5,1.3,0.9c0.3,0.5,0.9,0.7,1.1,1.2c0.2,0.5-0.2,1.1-0.1,1.6c0.1,0.5,0.3,0.9,0.2,1.4
	c0,0,0.8,0.6,0.9,1.6c0.1,0.5,0.5,1,0.6,1.6c0.1,0.5-0.7,1.2-0.6,1.7c0.1,0.5,1.1,1,1.1,1.5c0.1,0.5,0.1,1.1,0.1,1.7
	c0,0.5-0.8,1.1-0.8,1.7c0,0.5,0.1,1.1,0.1,1.6c0,0.5,1.2,1.1,1.2,1.6c0,0.5-0.9,1.1-0.9,1.6c0,0.6,0.8,1.2,0.7,1.7
	c-0.1,0.6-0.8,1.1-0.9,1.6c-0.1,0.6-1.2,0.9-1.3,1.4c-0.1,0.5,0.6,1.3,0.4,1.8c-0.2,0.5-1.4,0.6-1.6,1.1c-0.2,0.5,0.9,1.7,0.6,2.2
	C77.5,51.1,75.8,51.7,75.4,52.1z"/>
<g>
	<path fill="#234C7A" d="M43.2,5.6C41.4,5.8,38.1,6.2,32,8.8c-6.2,2.7-10.8,5.1-11.9,5.7c-3.5,1.8-6.7,3.6-9.8,5.4
		c-0.7,3.7-1.4,7.5-2.2,11.2c2,2,4.1,4,6.1,6c20.7,0,41.8,0,62.4,0c2-2,4.1-4,6.1-6c-0.7-3.7-1.4-7.5-2.2-11.2
		c-3.1-1.8-6.4-3.6-9.8-5.4c-1.1-0.6-5.7-3-11.9-5.7c-6.1-2.7-9.3-3.1-11.2-3.2H43.2z"/>
	<path fill="#173C5E" d="M14.3,38.7c1.8,1.1,6,3.3,13.8,4.6c5.4,0.9,10.5,1.1,13.4,1.2c5.7,0.2,10.2-0.1,12.4-0.3
		c2.1-0.2,6.2-0.5,10.7-1.4c6.2-1.3,9.7-3.1,11.6-4.1C55.6,38.6,34.9,38.7,14.3,38.7z"/>
	<path fill="#1C1C1A" d="M76.2,38.6c-20.6,0-41.3,0.1-61.9,0.1c0-0.3,0-0.5,0-0.8c0-0.3-0.1-0.6-0.1-0.9c-0.3-0.2-0.6-0.4-0.8-0.6
		c-0.3-0.3-0.7-0.5-1-0.8c22.3-0.2,44.5-0.4,66.8-0.7c-0.6,0.4-1.1,0.8-1.7,1.2c-0.4,0.3-0.9,0.6-1.3,1
		C76.2,37.6,76.2,38.1,76.2,38.6z"/>
	<path fill="#FFCD58" d="M37.7,18c0.2-0.5,0.4-1.1,0.6-1.6c0.9,0.4,1.7,0.6,2.3,0.7c0.7,0.1,2,0.2,3.4-0.4c0.7-0.4,1.3-0.8,1.6-1.1
		c0.2,0.2,0.6,0.6,1.1,0.9c1,0.6,2,0.7,2.7,0.7c1.5,0.1,2.8-0.3,3.6-0.7c0.2,0.5,0.5,1.1,0.7,1.6c-0.2,0.1-0.4,0.4-0.6,0.7
		c-0.3,0.6-0.3,1.1-0.3,2c0,1.1,0,1.6-0.1,2.1c-0.1,1.2-0.5,2.1-0.8,2.5c-0.5,1.1-1.2,1.8-1.5,2.1c-1,0.9-2.2,1.4-2.7,1.6
		c-0.1,0-0.6,0.2-1.1,0.4c-0.3,0.1-0.6,0.3-0.8,0.4c-0.1-0.1-0.3-0.2-0.5-0.3c-0.7-0.3-1.2-0.4-1.3-0.4c-0.8-0.2-2.1-0.9-3.1-2
		c-1-1.1-1.4-2.3-1.6-2.8c-0.3-0.8-0.5-1.6-0.5-2.7c0-0.8,0-1.2,0-2.1c0-0.2,0-0.5-0.2-0.9C38.2,18.4,37.9,18.1,37.7,18z"/>
	<ellipse fill="#FFCD58" cx="15.8" cy="37.1" rx="1" ry="1.1"/>
	<ellipse fill="#FFCD58" cx="74.5" cy="37.1" rx="1" ry="1.1"/>
</g>
<g>
	<path fill="#422918" d="M20.9,50.5c0.3-0.5,0.8-0.9,1.2-1.2c0.5-0.3,1-0.6,1.6-0.8c0.6-0.2,1.2-0.4,1.8-0.4
		c0.6,0.1,1.2,0.3,1.7,0.7l0,0.1c-0.3,0.1-0.6,0.1-0.9,0.2c-0.3,0.1-0.5,0.1-0.8,0.1c-0.5,0.1-1,0-1.5,0.1c-0.5,0.1-1,0.3-1.5,0.5
		C21.9,50,21.4,50.3,20.9,50.5L20.9,50.5z"/>
	<path fill="#422918" d="M68.3,50.5c-0.3-0.5-0.8-0.9-1.2-1.2c-0.5-0.3-1-0.6-1.6-0.8c-0.6-0.2-1.2-0.4-1.8-0.4
		c-0.6,0.1-1.2,0.3-1.7,0.7l0,0.1c0.3,0.1,0.6,0.1,0.9,0.2c0.3,0.1,0.5,0.1,0.8,0.1c0.5,0.1,1,0,1.5,0.1c0.5,0.1,1,0.3,1.5,0.5
		C67.3,50,67.7,50.3,68.3,50.5L68.3,50.5z"/>
</g>
<g>
	<path fill="#234C7A" d="M72.6,91.8c0.1-13.9-8-18.7-8.4-18.9l0,0l0,0c-3.7,0-7.5,0-11.2,0c-1.2,1.9-2.4,2.4-3.2,2.6
		c-1.9,0.4-2.7-1-5.1-0.8c-2.2,0.2-2.6,1.4-4.2,1.3c-1-0.1-2.4-0.7-3.9-3.1l-11.1,0l0,0c0,0,0,0,0,0l-0.1,0l0,0
		c-0.8,0.5-8.5,5.4-8.3,18.9l7.1-0.1c0-3.4,0.5-5.8,1.3-7.8l0,10.8l38.9-0.2l-0.1-10.4c0.8,2,1.2,4.1,1.1,7.6L72.6,91.8z"/>
	<path fill="#173C5E" d="M34.2,72.8c0.6,1.1,1.7,2.5,3.3,4c1.6,1.4,3.2,2.2,4.3,2.7c0.9-1.6,1.9-3.2,2.8-4.8c-1-0.1-2.6-0.5-4.2-1.3
		c-0.3-0.2-0.6-0.3-0.9-0.5L34.2,72.8z"/>
	<path fill="#173C5E" d="M49.8,72.9c-0.3,0.2-0.5,0.3-0.8,0.4c-1.7,0.8-3.2,1.2-4.2,1.3c0.9,1.6,1.9,3.2,2.8,4.8
		c1.1-0.4,2.7-1.2,4.3-2.7c1.6-1.4,2.5-3,3-4L49.8,72.9z"/>
	<circle fill="#FFFFFF" cx="46.1" cy="81.5" r="0.5"/>
	<circle fill="#FFFFFF" cx="46.1" cy="87" r="0.5"/>
	<g>
		<line fill="#173C5E" x1="44.7" y1="74.7" x2="44.8" y2="94.5"/>
		
			<rect x="44.5" y="74.7" transform="matrix(1 -5.232914e-03 5.232914e-03 1 -0.4421 0.2352)" fill="#173C5E" width="0.5" height="19.8"/>
	</g>
	<path fill="#173C5E" d="M53.7,81l6,0l0,2.5c0,1.6-1.3,2.8-2.8,2.8l-0.4,0c-1.6,0-2.8-1.3-2.8-2.9L53.7,81z"/>
</g>
<g>
	<g>
		<rect x="25.4" y="91.5" fill="#173C5E" width="19.4" height="9.6"/>
	</g>
	<g>
		<rect x="44.8" y="91.5" fill="#173C5E" width="19.4" height="9.6"/>
	</g>
	<g>
		<polygon fill="#112D47" points="63,96.1 63.2,95.9 61.2,93.6 61,93.7 		"/>
		<polygon fill="#112D47" points="26.5,96.1 26.4,95.9 28.4,93.6 28.5,93.7 		"/>
		<path fill="#112D47" d="M64.2,91.3H25.3v1.4h18.3l0,2.2l1,1v5.2H45v-8.4h19.3V91.3z M44.7,95.5l-0.7-0.8l0-2h0.8V95.5z"/>
	</g>
	<g>
		<rect x="25.3" y="101" fill="#112D47" width="19.5" height="1"/>
		<rect x="44.8" y="101" fill="#112D47" width="19.5" height="1"/>
		<rect x="34.4" y="91.8" fill="#112D47" width="0.7" height="2.1"/>
		<rect x="53.2" y="91.8" fill="#112D47" width="0.7" height="2.1"/>
	</g>
	<ellipse fill="#112D47" cx="44.3" cy="91.9" rx="0.4" ry="0.3"/>
</g>
<g>
	<path fill="#33363C" d="M42.7,105.1H27.4c-1.1,0-2.1-0.9-2.1-2.1v-1.3h19.4v1.3C44.8,104.1,43.8,105.1,42.7,105.1z"/>
	<path fill="#33363C" d="M62.2,105.1H46.9c-1.1,0-2.1-0.9-2.1-2.1v-1.3h19.4v1.3C64.2,104.1,63.3,105.1,62.2,105.1z"/>
</g>
</svg>
