<?xml version="1.0" encoding="utf-8"?>
<!-- Generator: Adobe Illustrator 21.0.0, SVG Export Plug-In . SVG Version: 6.00 Build 0)  -->
<svg version="1.2" baseProfile="tiny" id="Capa_1" xmlns="http://www.w3.org/2000/svg" xmlns:xlink="http://www.w3.org/1999/xlink"
	 x="0px" y="0px" viewBox="0 0 90.7 109.4" xml:space="preserve">
<path fill="#E2AE43" d="M72.4,66.4H17.8c-3.6,0-6.5-3.2-6.5-7.1L12.4,41h65.4l1.1,18.3C78.9,63.2,76,66.4,72.4,66.4z"/>
<path fill="#F6DDC8" d="M71.4,19h-53c-2.9,0-5.3,2.4-5.3,5.3v40.1c0,2.9,2.4,5.3,5.3,5.3h7.1c-1,0.6-8.4,5.6-8.3,18.8l0,0
	c0,3.9,3.2,7,7,7v-7h0c0-3.3,0.5-5.9,1.2-7.8V96h0v3.9c0,1.1,0.9,2.1,2.1,2.1h15.3c1.1,0,2.1-0.9,2.1-2.1v-3.6H45v3.6
	c0,1.1,0.9,2.1,2.1,2.1h15.3c1.1,0,2.1-0.9,2.1-2.1V96h0V80.9c0.7,1.9,1.3,4.5,1.2,7.8h0v7c3.9,0,7-3.1,7-7l0,0
	c0.1-13.1-7.1-18.1-8.2-18.8h7c2.9,0,5.3-2.4,5.3-5.3V24.3C76.8,21.4,74.4,19,71.4,19z"/>
<path fill="#E3B98C" d="M65.7,88.6"/>
<g>
	<circle fill="#2C8FA9" cx="25.4" cy="50.2" r="2.4"/>
	<circle fill="#2C8FA9" cx="64.2" cy="50.2" r="2.4"/>
</g>
<g>
	<path fill="#E7CBB5" d="M13.1,57c-1.1-0.9-1.9-2.7-1.9-4.6c0-2,0.8-3.7,1.9-4.6L13.1,57z"/>
	<path fill="#E7CBB5" d="M76.8,57c1.1-0.9,1.9-2.7,1.9-4.6c0-2-0.8-3.7-1.9-4.6L76.8,57z"/>
	<path fill="#E7CBB5" d="M56.2,69.8c0,0.8-0.6,1.4-1.2,1.4H32.8c-0.7,0-1.2-0.6-1.2-1.4H56.2z"/>
	<path fill="#E7CBB5" d="M44.9,57L44.9,57c-0.9,0-1.6-0.7-1.6-1.6v-4c0-0.9,0.7-1.6,1.6-1.6h0c0.9,0,1.6,0.7,1.6,1.6v4
		C46.6,56.3,45.8,57,44.9,57z"/>
	<path fill="#E7CBB5" d="M22.1,93L22.1,93c-0.5,0-0.9-0.4-0.9-0.9v-1.5c0-0.5,0.4-0.9,0.9-0.9h0c0.5,0,0.9,0.4,0.9,0.9v1.5
		C23,92.6,22.6,93,22.1,93z"/>
	<path fill="#E7CBB5" d="M67.8,93L67.8,93c0.5,0,0.9-0.4,0.9-0.9v-1.5c0-0.5-0.4-0.9-0.9-0.9l0,0c-0.5,0-0.9,0.4-0.9,0.9v1.5
		C66.9,92.6,67.3,93,67.8,93z"/>
</g>
<g>
	<path fill="#E2AE43" d="M21.1,47.6c0.3-0.5,0.8-0.9,1.2-1.2c0.5-0.3,1-0.6,1.6-0.8c0.6-0.2,1.2-0.4,1.8-0.4
		c0.6,0.1,1.2,0.3,1.7,0.7l0,0.1c-0.3,0.1-0.6,0.1-0.9,0.2c-0.3,0.1-0.5,0.1-0.8,0.1c-0.5,0.1-1,0-1.5,0.1c-0.5,0.1-1,0.3-1.5,0.5
		C22.1,47.1,21.7,47.4,21.1,47.6L21.1,47.6z"/>
	<path fill="#E2AE43" d="M68.5,47.6c-0.3-0.5-0.8-0.9-1.2-1.2c-0.5-0.3-1-0.6-1.6-0.8c-0.6-0.2-1.2-0.4-1.8-0.4
		c-0.6,0.1-1.2,0.3-1.7,0.7l0,0.1c0.3,0.1,0.6,0.1,0.9,0.2c0.3,0.1,0.5,0.1,0.8,0.1c0.5,0.1,1,0,1.5,0.1c0.5,0.1,1,0.3,1.5,0.5
		C67.5,47.1,68,47.4,68.5,47.6L68.5,47.6z"/>
</g>
<path fill="#E0B391" d="M46.9,62.6H42c-0.4,0-0.7-0.3-0.7-0.7c0-0.4,0.3-0.7,0.7-0.7h4.8c0.7,0,1.3-0.2,1.8-0.6l0.8-0.6
	c0.3-0.2,0.7-0.2,0.9,0.1c0.2,0.3,0.2,0.7-0.1,0.9l-0.8,0.6C48.8,62.3,47.8,62.6,46.9,62.6z"/>
<path fill="#E2AE43" d="M79.3,38.4c0.2-3.3,1.2-11.7-3.5-18.8c-5.6-8.5-15.7-7.4-22.4-9.2c-3.1-0.8-9.7-2.3-17.8-1.3
	c-4.2,0.5-8,0.6-12.7,3.1c-3.4,1.8-6.2,4.3-7.7,6.1c-0.8-2-2.4-4.8-4.5-2.1c-1.1,1.4-0.2,2.3,1.2,2.9c-1.3,0.1-2.2,0.8-1.6,2.7
	c0.5,1.5,1.6,1.5,2.6,0.9C12,25.2,11.4,28,11,31.1c-0.6,5.4,0.3,10.1,1.2,13.5c6.9,1.8,11.6-11.4,13-15.6c0.2-0.5,0.8-0.6,1.1-0.2
	c11.1,16.6,28.1,12.3,28.1,12.3c-2.5-1.3-3.3-4.1-3.5-6.1c-0.1-0.6,0.7-1,1.1-0.5c2.6,3.3,9.4,10.3,18.9,9.7
	c4.4-0.3,7.7-2.1,9.7-3.5C80.1,40.1,79.7,39.3,79.3,38.4z"/>
<path fill="#D0962E" d="M69.2,61c-0.9-0.5-2.2-1.1-3.8-1.7C63,58.4,60.9,58,59,57.7c-1.7-0.3-4-0.5-8.6-0.9c-0.7-0.1-1.9-0.2-3.5,0
	c-0.7,0.1-1.2,0.2-1.5,0.2c-0.9-0.1-1.8-0.1-2.8-0.2c-3-0.1-5.4,0.2-6.8,0.3c-0.8,0.1-3.8,0.4-7.4,1.4c-2.6,0.7-4,1.2-4.5,1.4
	c-1,0.4-2.4,1-2.3,1.2c0.1,0.1,0.7-0.1,1.7-0.2c0.8-0.2,1.3-0.3,1.5-0.3c1.2-0.3,2.4-0.2,3.5-0.1c2,0.1,4,0.1,5.9,0.1
	c0.5,0,2.1,0,5.2,0c1.5,0,2.3,0,3.2-0.2c1.3-0.3,2.1-0.9,2.6-1.2c0.3,0.3,0.8,0.6,1.5,0.8c0.6,0.2,1.1,0.3,1.8,0.4
	c1.1,0.1,2,0.1,2.3,0.1c1.5,0,2.6,0,3.6-0.1c2-0.1,3.6-0.1,5-0.1c1.8,0,1.5,0,2.9,0c1.9,0,2.2-0.1,3,0c0.7,0.1,0.9,0.2,2.2,0.4
	C68.3,60.8,68.8,60.9,69.2,61z"/>
<g>
	<g>
		<g>
			<path fill="#4E84C4" d="M20.2,74.9c0.3-0.7,4.1-4.4,5.3-4.8l3.7,5.5l0.1,0c-1.4,2.3-2.9,4.5-4.3,6.8
				C23.4,79.9,21.8,77.4,20.2,74.9z"/>
		</g>
		<g>
			<path fill="#4E84C4" d="M69.6,74.9c-0.3-0.7-2.5-3.2-5.2-4.8l-3.7,5.5l-0.1,0c1.4,2.3,2.9,4.5,4.3,6.8
				C66.4,79.9,68.1,77.4,69.6,74.9z"/>
		</g>
		<path fill="#B2C3E4" d="M64.4,70.1l0,20.3l-38.9,0.2l0-20.5l11.1,0c1.4,3.2,4.5,5.3,7.9,5.5c3.7,0.1,7.1-2,8.6-5.4L64.4,70.1z"/>
		<path fill="#4E84C4" d="M52.9,70.1c-1.6,3-4.8,5-8.2,4.8c-3.2-0.1-6.1-2-7.5-4.8l-1.2,0c1.5,3.5,5,5.8,8.7,6c0.1,0,0.2,0,0.3,0
			c3.9,0,7.5-2.3,9.1-6L52.9,70.1z"/>
	</g>
	<g>
		<path fill="#4E84C4" d="M44.7,77.9c0.2,0,0.4,0,0.7,0c0.1,0,0.2,0,0.3,0c0.3,0,0.6,0.1,0.9,0.2c0.3,0.1,0.5,0.2,0.8,0.3
			c0.1,0.1,0.2,0.1,0.4,0.2c0.2,0.1,0.4,0.3,0.6,0.4c0.2,0.2,0.3,0.3,0.5,0.5c0.1,0.1,0.1,0.2,0.2,0.3c0.6,0.9,0.9,1.9,0.8,3
			c0,0.5-0.1,0.9-0.3,1.4c-0.1,0.3-0.2,0.6-0.4,0.9c-0.1,0.1-0.2,0.3-0.3,0.4c-0.3,0.3-0.7,0.5-1,0.5c-0.1,0-0.2,0-0.3,0
			c0,0.1,0,0.3,0,0.4c0,0.1,0,0.1,0,0.2c0,0.2-0.1,0.4-0.3,0.5c-0.1,0.1-0.3,0.2-0.5,0.2c-0.2,0-0.5,0-0.7-0.1
			c-0.1,0.1-0.3,0.2-0.4,0.3c-0.1,0.1-0.3,0.1-0.4,0.1c-0.1,0-0.1,0-0.2,0c-0.1,0-0.1,0-0.2-0.1c-0.2-0.1-0.3-0.2-0.4-0.3
			c-0.3,0.2-0.7,0.2-1,0c-0.2-0.1-0.4-0.4-0.4-0.7c0-0.2,0-0.4,0-0.6c-0.1,0-0.2,0-0.3,0c-0.5-0.1-0.9-0.4-1.2-0.8
			c0-0.1-0.1-0.1-0.1-0.2c-0.1-0.3-0.2-0.5-0.3-0.8c-0.2-0.4-0.3-0.9-0.4-1.4c0-0.1,0-0.2,0-0.4c0-0.2,0-0.3,0-0.5
			c0-0.2,0.1-0.4,0.1-0.6c0.1-0.2,0.1-0.4,0.2-0.6c0.1-0.2,0.2-0.4,0.2-0.5c0-0.1,0.1-0.2,0.1-0.2c0.1-0.2,0.3-0.4,0.5-0.6
			c0.2-0.2,0.4-0.4,0.6-0.6c0.1-0.1,0.2-0.1,0.3-0.2c0.2-0.1,0.4-0.2,0.7-0.4c0.1-0.1,0.3-0.1,0.4-0.2c0.2-0.1,0.4-0.1,0.6-0.2
			C44.5,77.9,44.6,77.9,44.7,77.9 M44.5,78.4c-0.2,0-0.4,0.1-0.6,0.2c-0.1,0-0.2,0-0.2,0.1c-0.2,0.1-0.4,0.2-0.6,0.3
			c-0.1,0.1-0.2,0.1-0.3,0.2c-0.2,0.2-0.4,0.3-0.6,0.5c-0.1,0.1-0.2,0.2-0.3,0.3c-0.1,0.2-0.3,0.4-0.4,0.5c-0.1,0.3-0.3,0.5-0.3,0.8
			c-0.1,0.3-0.2,0.7-0.2,1c0,0.1,0,0.3,0,0.4c0,0.3,0.1,0.7,0.2,1c0.1,0.2,0.2,0.4,0.3,0.7c0.1,0.2,0.2,0.4,0.2,0.6
			c0.2,0.4,0.6,0.6,1,0.7c0.2,0,0.3,0,0.5,0c0.1,0,0.2,0.1,0.2,0.3c0,0.2,0,0.4,0,0.6c0,0.1,0,0.2,0.1,0.3c0.1,0.1,0.2,0.2,0.4,0.2
			c0.1,0,0.2-0.1,0.3-0.1c0-0.1,0-0.1,0-0.2c0-0.1,0.1-0.2,0.2-0.2c0.1,0,0.2,0.1,0.2,0.1c0,0.2,0.1,0.3,0.3,0.4
			c0.1,0.1,0.3,0.1,0.5,0.1c0.1,0,0.2,0,0.3-0.1c0.1-0.1,0.2-0.2,0.3-0.3c0-0.1,0-0.2,0.1-0.2c0.1-0.1,0.3-0.1,0.3,0
			c0.1,0.1,0,0.2,0,0.2c0.1,0.1,0.2,0.1,0.3,0.1c0.2,0,0.3-0.1,0.4-0.2c0-0.1,0-0.1,0.1-0.2c0-0.2,0-0.4,0-0.6
			c0-0.1,0.1-0.2,0.2-0.3c0.2,0,0.3,0,0.5,0c0.4-0.1,0.8-0.3,1-0.7c0.1-0.2,0.2-0.5,0.3-0.7c0.1-0.2,0.1-0.4,0.2-0.6
			c0.1-0.5,0.2-1,0.1-1.5c-0.1-0.6-0.2-1.1-0.5-1.6c-0.2-0.4-0.5-0.8-0.9-1.1c-0.2-0.1-0.3-0.3-0.5-0.4c-0.2-0.1-0.4-0.2-0.7-0.3
			c-0.1-0.1-0.3-0.1-0.4-0.1c-0.3-0.1-0.5-0.1-0.8-0.1c-0.1,0-0.2,0-0.3,0C45,78.3,44.7,78.3,44.5,78.4z"/>
		<path fill="#4E84C4" d="M43.3,82.5c0.1,0,0.2,0,0.3,0c0.1,0,0.2,0,0.3,0.1c0.1,0.1,0.3,0.2,0.4,0.3c0.1,0.1,0.1,0.2,0.2,0.3
			c0.1,0.2,0.1,0.5,0,0.7c-0.1,0.2-0.2,0.4-0.3,0.5c-0.2,0.2-0.4,0.2-0.7,0.2c-0.1,0-0.2,0-0.4-0.1c-0.1-0.1-0.3-0.1-0.3-0.2
			c-0.1-0.1-0.2-0.2-0.2-0.3c-0.1-0.2-0.1-0.4-0.1-0.6c0-0.2,0.1-0.3,0.1-0.4c0.1-0.1,0.2-0.3,0.3-0.4
			C42.9,82.6,43.1,82.6,43.3,82.5"/>
		<path fill="#4E84C4" d="M46.7,82.5c0.2,0,0.5,0,0.7,0.1c0.2,0.1,0.4,0.3,0.5,0.5c0.1,0.2,0.1,0.4,0.1,0.6c0,0.2-0.1,0.4-0.2,0.5
			c-0.1,0.1-0.1,0.2-0.2,0.2c-0.1,0.1-0.2,0.1-0.2,0.1c-0.1,0.1-0.2,0.1-0.4,0.1c-0.1,0-0.2,0-0.3,0c-0.2,0-0.4-0.2-0.5-0.3
			c-0.2-0.2-0.3-0.4-0.3-0.6c0-0.2,0-0.4,0.1-0.6c0.1-0.1,0.1-0.3,0.3-0.3c0.1-0.1,0.2-0.1,0.3-0.2C46.5,82.6,46.6,82.6,46.7,82.5"
			/>
		<path fill="#4E84C4" d="M45,84.4c0.1-0.1,0.2-0.1,0.3-0.1c0.1,0,0.2,0.1,0.3,0.2c0.1,0.2,0.2,0.4,0.2,0.6c0,0.1-0.1,0.2-0.2,0.2
			c-0.1,0-0.2,0-0.2-0.1c0-0.1,0-0.1,0-0.2c0-0.1-0.1-0.1-0.1-0.2C45.1,84.9,45.1,85,45,85c0,0.1,0,0.1,0,0.2c0,0.1-0.1,0.1-0.2,0.1
			c-0.1,0-0.2-0.1-0.2-0.2C44.6,84.9,44.7,84.6,45,84.4z"/>
	</g>
</g>
<g>
	<g>
		<rect x="25.5" y="89.4" fill="#9599A0" width="19.4" height="8.1"/>
	</g>
	<g>
		<rect x="45" y="89.4" fill="#9599A0" width="19.4" height="8.1"/>
	</g>
	<g>
		<polygon fill="#7B8088" points="63.2,93.3 63.4,93.2 61.4,91.2 61.2,91.3 		"/>
		<polygon fill="#7B8088" points="26.7,93.3 26.5,93.2 28.5,91.2 28.7,91.3 		"/>
		<path fill="#7B8088" d="M64.5,89.3h-39v1.2h18.3l0,1.8l1,0.9v4.4h0.3v-7.1h19.3V89.3z M44.8,92.9l-0.8-0.7l0-1.7h0.8V92.9z"/>
	</g>
	<g>
		<rect x="25.4" y="97.5" fill="#B0B3B8" width="19.6" height="0.9"/>
		<rect x="45" y="97.5" fill="#B0B3B8" width="19.6" height="0.9"/>
		<rect x="34.8" y="89.7" fill="#B0B3B8" width="0.7" height="1.8"/>
		<rect x="53.4" y="89.7" fill="#B0B3B8" width="0.7" height="1.8"/>
	</g>
	<circle fill="#B0B3B8" cx="44.4" cy="89.9" r="0.4"/>
</g>
<g>
	<path fill="#274262" d="M62.8,102H46.6c-0.9,0-1.7-0.7-1.7-1.7v-2.2h19.4v2.2C64.4,101.3,63.7,102,62.8,102z"/>
	<path fill="#3B6393" d="M58.6,100.8h-7.7V99c0-0.7,0.6-1.3,1.3-1.3h5.1c0.7,0,1.3,0.6,1.3,1.3V100.8z"/>
	<path fill="#EBE4D9" d="M46.7,102h16.4C63.1,102,55.4,98.3,46.7,102z"/>
	<g>
		<rect x="50.2" y="99.9" fill="#FFFFFF" width="8.8" height="0.1"/>
		<rect x="50.2" y="99.2" fill="#FFFFFF" width="8.8" height="0.1"/>
		<rect x="50.2" y="98.5" fill="#FFFFFF" width="8.8" height="0.1"/>
	</g>
</g>
<g>
	<path fill="#274262" d="M43.3,102H27.2c-0.9,0-1.7-0.7-1.7-1.7v-2.2H45v2.2C45,101.3,44.2,102,43.3,102z"/>
	<path fill="#3B6393" d="M39.1,100.8h-7.7V99c0-0.7,0.6-1.3,1.3-1.3h5.1c0.7,0,1.3,0.6,1.3,1.3V100.8z"/>
	<path fill="#EBE4D9" d="M27.2,102h16.4C43.6,102,35.9,98.3,27.2,102z"/>
	<g>
		<rect x="30.8" y="99.9" fill="#FFFFFF" width="8.8" height="0.1"/>
		<rect x="30.8" y="99.2" fill="#FFFFFF" width="8.8" height="0.1"/>
		<rect x="30.8" y="98.5" fill="#FFFFFF" width="8.8" height="0.1"/>
	</g>
</g>
</svg>
