<?xml version="1.0" encoding="utf-8"?>
<!-- Generator: Adobe Illustrator 21.0.0, SVG Export Plug-In . SVG Version: 6.00 Build 0)  -->
<svg version="1.1" id="Capa_1" xmlns="http://www.w3.org/2000/svg" xmlns:xlink="http://www.w3.org/1999/xlink" x="0px" y="0px"
	 viewBox="0 0 90.7 109.4" style="enable-background:new 0 0 104.4 109.4;" xml:space="preserve">
<style type="text/css">
	.st0{fill:#21252A;}
	.st1{fill:#C48B61;}
	.st2{fill:#E3B98C;}
	.st3{fill:#404049;}
	.st4{fill:#A5714C;}
	.st5{fill:#B37C55;}
	.st6{fill:#F06D70;}
	.st7{fill:#D44644;}
	.st8{fill:#E94C50;}
	.st9{fill:#695855;}
</style>
<g>
	<path class="st0" d="M25.8,23c-1.4,0.2-1.8,0.2-2.1,0.5c-0.2,0.2-0.3,0.6-0.5,0.8c-0.1,0.3-0.3,0.5-0.6,0.7
		c-0.1,0.1-0.2,0.2-0.4,0.2c-0.1,0-0.2-0.1-0.3-0.2c-0.4-0.3-1-0.7-1.3-0.3c-0.1,0.1-0.2,0.3-0.3,0.4c-0.4,0.8-1.3,1.4-2.1,1.4
		c-0.5,0-1-0.2-1.5-0.2c-0.5,0-1.1,0.2-1.2,0.7c-0.2,0.6,0.2,1.3-0.2,1.8c-0.1,0.1-0.3,0.2-0.4,0.3c0,0-1.5,0.5-1.2,2.5
		c0,0.1-0.1-0.1-0.1-0.1c-0.7-0.4-1.7-0.1-2.2,0.7c-1,1.8,0.4,3.6-1.3,5.1c-1.4,1.2-1.6,0.8-2,2.9c-0.2,0.9-0.5,1.6-0.7,2.4
		c-0.4,1.4,0.1,0.8,0.3,2c0.2,0.8-0.1,1.3,0,2.2c0,0.6,0.6,1.1,0.5,1.8C8,49.6,7,50.2,6.9,51.1C6.6,52.7,8,53.6,8.4,55
		c0.4,1.5-1.2,2.1-1.5,3.3c-0.1,0.4,0,0.8,0.2,1.1c0.1,0.1,0.2,0.1,0.3,0.2c0.2,0.2,0.1,0.5,0,0.8c-0.1,0.2-0.3,0.5-0.3,0.7
		C7,61.8,7.5,62.4,8,62.9c0.6,0.5,1.3,0.6,1.6,1.3c0.3,0.7,1.1,1.2,0.9,2c-0.1,0.6-0.9,0.8-1,1.4c-0.1,0.7,0.7,1.2,1.3,1.3
		c0.7,0.1,1.5,0.2,1.7,0.9c0.2,0.5-0.1,1.1,0.1,1.6c0.4,0.8,1.6,0.2,2.4,0.6c0.8,0.3,1,1.4,1,2.3c0,0.9,0,2,0.7,2.6
		c1.1,1.1,3.2-0.4,4.3,0.7c0.5,0.4,0.7,1.2,1.3,1.4c0.8,0.2,1.4-0.8,2.2-0.8c0.3,0,0.6,0.2,0.9,0.4c0.1,0.9,0.4,1.5,1.2,1.2
		c0,0,0,0,0,0c0.5,0.3,1,0.5,1.4,0.1c0.2-0.2,0.3-0.5,0.4-0.7c0,0,0,0,0-0.1c0.3-0.2,0.6-0.4,1.1-0.7c0.1-0.1,0.3-0.1,0.4-0.2
		c0.5,0.1,1.1,0.4,1.4,0.9c0.6,1.1,0.8,2.8,2.4,2.3c0.7-0.2,1.2-0.6,1.8-0.9c3.4-1.3,7.1,3.1,10.5,1.8l0,0c0.2,0,0.4,0,0.6,0
		c2.6-0.1,4.9-2.6,7.4-1.8c1,0.3,1.8,1.2,2.7,1.6c3.4,1.4,7.1-3.1,10.5-1.8c0.6,0.2,1.2,0.7,1.8,0.9c1.6,0.5,1.8-1.3,2.4-2.3
		c0.7-1.1,2.3-1.4,2.9,0.1c0.1,0.3,0.2,0.5,0.4,0.7c0.5,0.5,1.3,0.1,1.8-0.4c0.5-0.5,1-1.2,1.7-1.2c0.8,0,1.4,1,2.2,0.8
		c0.6-0.2,0.8-0.9,1.3-1.4c1.2-1,3.2,0.4,4.3-0.7c0.6-0.6,0.6-1.7,0.7-2.6c0-0.9,0.2-2,1-2.3c0.8-0.3,2,0.3,2.4-0.6
		c0.2-0.5-0.1-1.1,0.1-1.6c0.2-0.7,1-0.8,1.7-0.9c0.7-0.1,1.5-0.6,1.3-1.3c-0.1-0.6-0.9-0.8-1-1.4c-0.1-0.5,0.8-2.9,1.3-3
		c0.3,0,0.5,0,0.8,0c1,0,1.7-1.3,1.3-2.2c-0.1-0.2-0.2-0.4-0.3-0.6c-0.2-0.6,0.4-1.3,1-1.4c0.2,0,0.4,0,0.6-0.1
		c0.4-0.2,0.4-0.8,0.2-1.1c-0.2-0.4-0.6-0.6-0.9-0.9c-3.6-2.7,1.7-3.7,0-5.5C96,51,95.7,51,95.4,50.7c-0.4-0.5,0-1.2,0.5-1.6
		c0.5-0.4,1.1-0.7,1.2-1.4c0.2-1.2-1.5-1.9-1.5-3.2c0-0.4,0.2-0.8,0.3-1.3c0.3-1.3-1-4.1-2.2-3.8c0.7-2.2,0.3-4.2-0.6-5.3
		c-0.2-0.3-0.5-0.6-0.8-0.7c-0.2-0.1-0.6-0.1-0.7-0.3c-0.1-0.3,0.2-0.8,0.1-1.1c-0.1-0.3-0.6-0.4-0.9-0.3c-0.3,0.1-0.6,0.3-1,0.3
		c-0.1-0.6-0.3-1.3-0.6-1.8c-0.3-0.5-0.9-0.9-1.5-0.9c-0.2,0-0.3,0.1-0.5-0.1c-0.1-0.1-0.1-0.3-0.1-0.5c0-0.3-0.4-0.8-0.5-1.1
		c-0.2-0.5-0.1-1.2-0.9-1.3c-0.1,0-0.3,0-0.4-0.1c-0.2-0.1-0.3-0.4-0.3-0.6c-0.2-0.8-0.6-1.7-1.4-1.9c-0.6-0.1-1.2,0.2-1.6-0.3
		c-0.1-0.1-0.2-0.3-0.2-0.4c-0.2-0.3-0.7-0.5-1-0.3"/>
</g>
<path class="st1" d="M78.4,20h-53c-2.9,0-5.3,2.4-5.3,5.3v40.1c0,2.9,2.4,5.3,5.3,5.3h7.1c-1,0.6-8.4,5.6-8.3,18.8l0,0
	c0,3.9,3.2,7,7,7v-7h0c0-3.3,0.5-5.9,1.2-7.8V97h0v3.9c0,1.1,0.9,2.1,2.1,2.1h15.3c1.1,0,2.1-0.9,2.1-2.1v-3.6h0.1v3.6
	c0,1.1,0.9,2.1,2.1,2.1h15.3c1.1,0,2.1-0.9,2.1-2.1V97h0V81.9c0.7,1.9,1.3,4.5,1.2,7.8h0v7c3.9,0,7-3.1,7-7l0,0
	c0.1-13.1-7.1-18.1-8.2-18.8h7c2.9,0,5.3-2.4,5.3-5.3V25.3C83.7,22.4,81.3,20,78.4,20z"/>
<path class="st2" d="M72.7,89.6"/>
<g>
	<circle class="st3" cx="32.4" cy="51.2" r="2.4"/>
	<circle class="st3" cx="71.2" cy="51.2" r="2.4"/>
</g>
<path class="st4" d="M51.9,64.4c-2.2,0-4-1.8-4-4c0-0.4,0.3-0.6,0.6-0.6s0.6,0.3,0.6,0.6c0,1.5,1.2,2.7,2.7,2.7
	c1.5,0,2.7-1.2,2.7-2.7c0-0.4,0.3-0.6,0.6-0.6s0.6,0.3,0.6,0.6C55.9,62.6,54.1,64.4,51.9,64.4z"/>
<g>
	<path class="st5" d="M20.1,58c-1.1-0.9-1.9-2.7-1.9-4.6c0-2,0.8-3.7,1.9-4.6L20.1,58z"/>
	<path class="st5" d="M83.7,58c1.1-0.9,1.9-2.7,1.9-4.6c0-2-0.8-3.7-1.9-4.6L83.7,58z"/>
	<path class="st5" d="M63.2,70.8c0,0.8-0.6,1.4-1.2,1.4H39.8c-0.7,0-1.2-0.6-1.2-1.4H63.2z"/>
	<path class="st5" d="M51.9,58L51.9,58c-0.9,0-1.6-0.7-1.6-1.6v-4c0-0.9,0.7-1.6,1.6-1.6h0c0.9,0,1.6,0.7,1.6,1.6v4
		C53.5,57.3,52.8,58,51.9,58z"/>
	<path class="st5" d="M29,94L29,94c-0.5,0-0.9-0.4-0.9-0.9v-1.5c0-0.5,0.4-0.9,0.9-0.9h0c0.5,0,0.9,0.4,0.9,0.9v1.5
		C29.9,93.6,29.5,94,29,94z"/>
	<path class="st5" d="M74.8,94L74.8,94c0.5,0,0.9-0.4,0.9-0.9v-1.5c0-0.5-0.4-0.9-0.9-0.9l0,0c-0.5,0-0.9,0.4-0.9,0.9v1.5
		C73.9,93.6,74.3,94,74.8,94z"/>
</g>
<g>
	<path class="st0" d="M85.9,37.4c0,0-0.1-0.5-0.2-1.2c-0.1-0.3-0.1-0.5-0.1-0.7c-0.3-2.4,0.1-3.6,0.1-5.2c0.1-2.8-1.1-5-2.1-6.9
		c-0.9-1.7-1.6-3.1-3.2-4.3c-1.5-1.1-2.2-0.9-3.7-2.2c-1.6-1.4-1.3-1.9-2.7-3c-1.2-0.9-1.4-0.5-4.1-1.9c-1.3-0.7-2.3-1.1-3.4-2
		c-1.6-1.2-1.3-0.9-2.5-1.6C63.5,8,61.7,7,59.4,7.2c-0.4,0-0.3,0.1-0.7,0.1c-1.2,0.1-1.6-0.1-4-0.4c-1.4-0.2-2.2-0.3-3-0.2
		c-0.3,0-1.3,0.1-2.6,0.5c-1.2,0.4-1.5,0.7-2.8,1c-0.4,0.1-0.9,0.2-1.5,0.3c-2.2,0.2-2.7-0.9-4.2-0.2c-1.2,0.5-1.4,1-3,1.7
		c-1,0.4-1.2,0.3-2.9,0.8c-2,0.6-3.1,0.9-4,1.6c-1.2,0.9-0.8,1.3-2.4,2.8c-0.8,0.8-0.9,0.7-3.1,2.3c-1.3,1-2,1.5-2.5,2
		c-0.4,0.4-1.4,1.5-2.2,3.2c-1.1,2.4-1.1,4.6-1,5.8C19,30,18.5,32,18.3,34.3c-0.4,4.8,0.8,8.7,1.6,10.9c0.5-1.7,1-3.6,1.4-5.7
		c0.3-1.5,0.5,0.7,0.6-0.7c0.3-0.2,0.5-0.5,0.6-0.9c0.2-0.7-0.1-1.5,0.2-2.2c0.5-1.3,2.4-1.2,3.6-1.9c1.1-0.6,1.6-1.9,2.8-2.4
		c0.1,0,0.2-0.1,0.3-0.1c0.6,0.4,1.2,0.6,1.7,0.8c1.5,0.4,4.7,0.6,5.9,1.4c0.1,0.1,0.3,0.2,0.7,0.3c0.8,0.2,1.4-0.2,1.6-0.3
		c1.3-0.6,2.7-2.5,4.1-2.8c4.9-1,7.5,1.3,10.5-0.6c0.1-0.1,0.2-0.1,0.3-0.2c1.5,0.5,2.8,1.5,3.3,3c0.1,0.4,0.2,0.8,0.5,1.1
		c0.3,0.4,0.8,0.7,1.3,0.8c3.3,1,7.1-0.8,10.2,0.7c2.1,1,3.6,3.5,6,3.6c1.2,0.1,2.1-0.7,3.2-0.4c1.1,0.3,2.3-0.3,3.4,0.1
		c1.2,0.5,1.3,1.8,1.4,2.9c0,0.9,0.1,2.6,0.1,3.5C85.6,39.8,86,37.9,85.9,37.4z"/>
</g>
<g>
	<path class="st6" d="M20.5,35.3c0,0,7.3-22,34-20.5S84,35.9,84,35.9s-2-26.6-31.3-26.6S20.5,35.3,20.5,35.3z"/>
	<g>
		<path class="st7" d="M22.5,13.5c0,0,3.1,8.6,11,4.8C33.6,18.2,31.4,9.5,22.5,13.5z"/>
		<path class="st8" d="M28.5,7.4c0,0-3.3,8.5,5.3,10.8C33.7,18.2,37.7,10.1,28.5,7.4z"/>
	</g>
</g>
<g>
	<path class="st0" d="M28.1,48.8c0.3-0.5,0.8-0.9,1.2-1.2c0.5-0.3,1-0.6,1.6-0.8c0.6-0.2,1.2-0.4,1.8-0.4c0.6,0.1,1.2,0.3,1.7,0.7
		l0,0.1c-0.3,0.1-0.6,0.1-0.9,0.2c-0.3,0.1-0.5,0.1-0.8,0.1c-0.5,0.1-1,0-1.5,0.1c-0.5,0.1-1,0.3-1.5,0.5
		C29.1,48.3,28.6,48.6,28.1,48.8L28.1,48.8z"/>
	<path class="st0" d="M75.4,48.8c-0.3-0.5-0.8-0.9-1.2-1.2c-0.5-0.3-1-0.6-1.6-0.8c-0.6-0.2-1.2-0.4-1.8-0.4
		c-0.6,0.1-1.2,0.3-1.7,0.7l0,0.1c0.3,0.1,0.6,0.1,0.9,0.2c0.3,0.1,0.5,0.1,0.8,0.1c0.5,0.1,1,0,1.5,0.1c0.5,0.1,1,0.3,1.5,0.5
		C74.4,48.3,74.9,48.6,75.4,48.8L75.4,48.8z"/>
</g>
<g>
	<g>
		<path class="st6" d="M71.3,81.5l0.6,14H31.8l0.7-14.1l3.2-10.7l9-0.2l6.2,4.9c0.8,1.1,2,1.1,2.9,0l6.2-5l8.6,0.1L71.3,81.5z"/>
		<polygon class="st7" points="43.2,70.6 48.8,77.5 50.8,75.5 44.6,70.6 		"/>
		<polygon class="st7" points="61.1,70.6 55.5,77.5 53.6,75.5 59.7,70.6 		"/>
	</g>
	<path class="st7" d="M35.6,70.8l-3.3,0c0,0-1.5,0.5-2.8,2.3l2.9,8.6L35.6,70.8z"/>
	<path class="st7" d="M68.2,70.8l3.3,0c0,0,1.5,0.5,2.8,2.3l-2.9,8.6L68.2,70.8z"/>
</g>
<g>
	<rect x="35.4" y="100.7" class="st9" width="13.5" height="0.2"/>
	<rect x="55.1" y="100.7" class="st9" width="13.5" height="0.2"/>
	<g>
		<path class="st9" d="M48.8,100.3C48.8,100.4,48.9,100.4,48.8,100.3c0,0.6-3,1-6.8,1s-6.8-0.4-6.8-0.9c0,0,0,0,0,0l-2.9,0v0.6
			c0,1.1,0.9,2.1,2.1,2.1h15.3c1.1,0,2.1-0.9,2.1-2.1v-0.6L48.8,100.3z"/>
		<path class="st9" d="M55,100.3C55,100.4,55,100.4,55,100.3c0,0.6,3,1,6.8,1c3.7,0,6.8-0.4,6.8-0.9c0,0,0,0,0,0l2.9,0v0.6
			c0,1.1-0.9,2.1-2.1,2.1H54c-1.1,0-2.1-0.9-2.1-2.1v-0.6L55,100.3z"/>
	</g>
</g>
</svg>
