<?xml version="1.0" encoding="utf-8"?>
<!-- Generator: Adobe Illustrator 21.0.0, SVG Export Plug-In . SVG Version: 6.00 Build 0)  -->
<svg version="1.2" baseProfile="tiny" id="Capa_1" xmlns="http://www.w3.org/2000/svg" xmlns:xlink="http://www.w3.org/1999/xlink"
	 x="0px" y="0px" viewBox="0 0 90.7 109.4" xml:space="preserve">
<path fill="#622C17" d="M74.4,72.3H17c-2.4,0-4.4-2-4.4-4.4V43.7c0-2.4,2-4.4,4.4-4.4h57.4c2.4,0,4.4,2,4.4,4.4v24.2
	C78.8,70.3,76.8,72.3,74.4,72.3z"/>
<path fill="#E3B98C" d="M72.1,28h-53c-2.9,0-5.3,2.4-5.3,5.3v35.1c0,2.9,2.4,5.3,5.3,5.3h7.1c-1,0.6-8.4,5.6-8.3,18.8l0,0
	c0,3.9,3.2,7,7,7v-7h0c0-3.3,0.5-5.9,1.2-7.8V100h0v3.9c0,1.1,0.9,2.1,2.1,2.1h15.3c1.1,0,2.1-0.9,2.1-2.1v-3.6h0.1v3.6
	c0,1.1,0.9,2.1,2.1,2.1h15.3c1.1,0,2.1-0.9,2.1-2.1V100h0V84.8c0.7,1.9,1.3,4.5,1.2,7.8h0v7c3.9,0,7-3.1,7-7l0,0
	c0.1-13.1-7.1-18.1-8.2-18.8h7c2.9,0,5.3-2.4,5.3-5.3V33.3C77.4,30.4,75,28,72.1,28z"/>
<path fill="#E3B98C" d="M66.3,92.6"/>
<g>
	<circle fill="#404049" cx="26" cy="54.2" r="2.4"/>
	<circle fill="#404049" cx="64.9" cy="54.2" r="2.4"/>
</g>
<path fill="#C89773" d="M45.6,67.3c-2.2,0-4-1.8-4-4c0-0.4,0.3-0.6,0.6-0.6c0.4,0,0.6,0.3,0.6,0.6c0,1.5,1.2,2.7,2.7,2.7
	c1.5,0,2.7-1.2,2.7-2.7c0-0.4,0.3-0.6,0.6-0.6c0.4,0,0.6,0.3,0.6,0.6C49.5,65.6,47.8,67.3,45.6,67.3z"/>
<g>
	<path fill="#D8A980" d="M13.7,61c-1.1-0.9-1.9-2.7-1.9-4.6c0-2,0.8-3.7,1.9-4.6L13.7,61z"/>
	<path fill="#D8A980" d="M77.4,61c1.1-0.9,1.9-2.7,1.9-4.6c0-2-0.8-3.7-1.9-4.6L77.4,61z"/>
	<path fill="#D8A980" d="M56.9,73.8c0,0.8-0.6,1.4-1.2,1.4H33.5c-0.7,0-1.2-0.6-1.2-1.4H56.9z"/>
	<path fill="#D8A980" d="M45.6,61L45.6,61c-0.9,0-1.6-0.7-1.6-1.6v-4c0-0.9,0.7-1.6,1.6-1.6h0c0.9,0,1.6,0.7,1.6,1.6v4
		C47.2,60.3,46.5,61,45.6,61z"/>
	<path fill="#D8A980" d="M22.7,96.9L22.7,96.9c-0.5,0-0.9-0.4-0.9-0.9v-1.5c0-0.5,0.4-0.9,0.9-0.9h0c0.5,0,0.9,0.4,0.9,0.9v1.5
		C23.6,96.5,23.2,96.9,22.7,96.9z"/>
	<path fill="#D8A980" d="M68.4,96.9L68.4,96.9c0.5,0,0.9-0.4,0.9-0.9v-1.5c0-0.5-0.4-0.9-0.9-0.9l0,0c-0.5,0-0.9,0.4-0.9,0.9v1.5
		C67.6,96.5,68,96.9,68.4,96.9z"/>
</g>
<circle fill="#622C17" cx="46.7" cy="17.2" r="12.7"/>
<path fill="#E6E7EC" d="M35.1,15c2.2-2.2,6.9-3.7,12.3-3.7c4.2,0,8,0.9,10.5,2.4"/>
<path fill="#622C17" d="M65.6,30.6c0,0,5.3,20.6,13.5,18.4c1-3.4,1.8-5.2,1.2-10.7c-0.5-4.4-2.1-8.1-2.4-8.8
	c-0.3-0.7-1.1-2.2-2.7-4.5c-1-1.5-3.5-5.2-7.7-7.8c-4.1-2.7-8-3.7-12.2-4.2c-8.1-1-14.7,0.5-17.8,1.3c-6.7,1.8-15.3,2.1-20.9,10.5
	c-4.7,7.1-4.7,14.7-4.5,18c-0.4,0.8-0.9,1.6-1.3,2.5c2,1.4,5.3,3.2,9.7,3.5c12,0.8,19.7-10.7,20.1-11.3c0,0,0.4,6.1-3.6,8.2
	C37,45.5,56.5,49.5,65.6,30.6z"/>
<g>
	<path fill="#FCC455" d="M13.7,70.7c-3.1,0-5.7-2.5-5.7-5.7c0-3.1,2.5-5.7,5.7-5.7s5.7,2.5,5.7,5.7C19.4,68.2,16.8,70.7,13.7,70.7z
		 M13.7,60.8c-2.4,0-4.3,1.9-4.3,4.3c0,2.4,1.9,4.3,4.3,4.3s4.3-1.9,4.3-4.3C18,62.7,16.1,60.8,13.7,60.8z"/>
	<circle fill="#FCC455" cx="13.5" cy="59.4" r="1.4"/>
</g>
<g>
	<path fill="#FCC455" d="M77.5,70.7c-3.1,0-5.7-2.5-5.7-5.7c0-3.1,2.5-5.7,5.7-5.7s5.7,2.5,5.7,5.7C83.2,68.2,80.7,70.7,77.5,70.7z
		 M77.5,60.8c-2.4,0-4.3,1.9-4.3,4.3c0,2.4,1.9,4.3,4.3,4.3c2.4,0,4.3-1.9,4.3-4.3C81.8,62.7,79.9,60.8,77.5,60.8z"/>
	<circle fill="#FCC455" cx="77.3" cy="59.4" r="1.4"/>
</g>
<g>
	<path fill="#5C81C0" d="M65,84.7l0.6,14H25.4l0.7-14.1L29.3,74l9.5-0.2l4.2,6.9c0.4,0.5,2.5-1.1,3.3-1.1c0.9,0,3,1.6,3.4,1l3.7-6.8
		l8.6,0.1L65,84.7z"/>
	<path fill="#E6E7EC" d="M39.3,73.4c-0.4,0.3-2.1,1.5-2.3,3.3c-0.2,2.7,3.1,5.2,5.9,4.8c1.6-0.2,2.7-1.3,3.1-1.8
		c-1.4-0.6-2.5-1.3-3.2-1.8c-1.5-1-2-1.5-2.3-1.8c0,0,0-0.1-0.1-0.1C39.8,75.2,39.5,74.3,39.3,73.4z"/>
	<path fill="#E6E7EC" d="M52.8,73.4c0.4,0.3,2.1,1.5,2.3,3.3c0.2,2.7-3.1,5.2-5.9,4.8c-1.6-0.2-2.7-1.3-3.1-1.8
		c1.4-0.6,2.5-1.3,3.2-1.8c1.5-1,2-1.5,2.3-1.8c0,0,0-0.1,0.1-0.1C52.3,75.1,52.6,74.2,52.8,73.4z"/>
</g>
<g>
	<path fill="#622C17" d="M22.1,51.4c0.3-0.5,0.8-0.9,1.2-1.2c0.5-0.3,1-0.6,1.6-0.8c0.6-0.2,1.2-0.4,1.8-0.4
		c0.6,0.1,1.2,0.3,1.7,0.7l0,0.1c-0.3,0.1-0.6,0.1-0.9,0.2c-0.3,0.1-0.5,0.1-0.8,0.1c-0.5,0.1-1,0-1.5,0.1c-0.5,0.1-1,0.3-1.5,0.5
		C23.1,50.9,22.6,51.2,22.1,51.4L22.1,51.4z"/>
	<path fill="#622C17" d="M69.4,51.4c-0.3-0.5-0.8-0.9-1.2-1.2c-0.5-0.3-1-0.6-1.6-0.8c-0.6-0.2-1.2-0.4-1.8-0.4
		c-0.6,0.1-1.2,0.3-1.7,0.7l0,0.1c0.3,0.1,0.6,0.1,0.9,0.2c0.3,0.1,0.5,0.1,0.8,0.1c0.5,0.1,1,0,1.5,0.1c0.5,0.1,1,0.3,1.5,0.5
		C68.4,50.9,68.9,51.2,69.4,51.4L69.4,51.4z"/>
</g>
<g>
	<rect x="29" y="103.6" fill="#21252A" width="13.5" height="0.2"/>
	<rect x="48.7" y="103.6" fill="#21252A" width="13.5" height="0.2"/>
	<g>
		<path fill="#21252A" d="M42.5,103.3C42.5,103.3,42.5,103.3,42.5,103.3c0,0.6-3,1-6.8,1s-6.8-0.4-6.8-0.9c0,0,0,0,0,0l-2.9,0v0.6
			c0,1.1,0.9,2.1,2.1,2.1h15.3c1.1,0,2.1-0.9,2.1-2.1v-0.6L42.5,103.3z"/>
		<path fill="#21252A" d="M48.6,103.3C48.6,103.3,48.6,103.3,48.6,103.3c0,0.6,3,1,6.8,1s6.8-0.4,6.8-0.9c0,0,0,0,0,0l2.9,0v0.6
			c0,1.1-0.9,2.1-2.1,2.1H47.7c-1.1,0-2.1-0.9-2.1-2.1v-0.6L48.6,103.3z"/>
	</g>
</g>
</svg>
