<?xml version="1.0" encoding="utf-8"?>
<!-- Generator: Adobe Illustrator 21.0.0, SVG Export Plug-In . SVG Version: 6.00 Build 0)  -->
<svg version="1.2" baseProfile="tiny" id="Capa_1" xmlns="http://www.w3.org/2000/svg" xmlns:xlink="http://www.w3.org/1999/xlink"
	 x="0px" y="0px" viewBox="0 0 90.7 109.4" xml:space="preserve">
<path fill="#E3B98C" d="M72.1,14.1h-53c-2.9,0-5.3,2.4-5.3,5.3v40.1c0,2.9,2.4,5.3,5.3,5.3h7.1c-1,0.6-8.4,5.6-8.3,18.8l0,0
	c0,3.9,3.2,7,7,7v-7h0c0-3.3,0.5-5.9,1.2-7.8v15.2h0V95c0,1.1,0.9,2.1,2.1,2.1h15.3c1.1,0,2.1-0.9,2.1-2.1v-3.6h0.1V95
	c0,1.1,0.9,2.1,2.1,2.1h15.3c1.1,0,2.1-0.9,2.1-2.1v-3.9h0V75.9c0.7,1.9,1.3,4.5,1.2,7.8h0v7c3.9,0,7-3.1,7-7l0,0
	c0.1-13.1-7.1-18.1-8.2-18.8h7c2.9,0,5.3-2.4,5.3-5.3V19.4C77.4,16.4,75,14.1,72.1,14.1z"/>
<path fill="#E3B98C" d="M66.3,83.7"/>
<g>
	<circle fill="#404049" cx="26" cy="45.3" r="2.4"/>
	<circle fill="#404049" cx="64.9" cy="45.3" r="2.4"/>
</g>
<path fill="#C89773" d="M45.6,58.4c-2.2,0-4-1.8-4-4c0-0.4,0.3-0.6,0.6-0.6c0.4,0,0.6,0.3,0.6,0.6c0,1.5,1.2,2.7,2.7,2.7
	c1.5,0,2.7-1.2,2.7-2.7c0-0.4,0.3-0.6,0.6-0.6c0.4,0,0.6,0.3,0.6,0.6C49.5,56.7,47.7,58.4,45.6,58.4z"/>
<g>
	<path fill="#D8A980" d="M13.7,52.1c-1.1-0.9-1.9-2.7-1.9-4.6c0-2,0.8-3.7,1.9-4.6L13.7,52.1z"/>
	<path fill="#D8A980" d="M77.4,52.1c1.1-0.9,1.9-2.7,1.9-4.6c0-2-0.8-3.7-1.9-4.6L77.4,52.1z"/>
	<path fill="#D8A980" d="M56.8,64.9c0,0.8-0.6,1.4-1.2,1.4H33.4c-0.7,0-1.2-0.6-1.2-1.4H56.8z"/>
	<path fill="#D8A980" d="M45.6,52.1L45.6,52.1c-0.9,0-1.6-0.7-1.6-1.6v-4c0-0.9,0.7-1.6,1.6-1.6h0c0.9,0,1.6,0.7,1.6,1.6v4
		C47.2,51.4,46.5,52.1,45.6,52.1z"/>
	<path fill="#D8A980" d="M22.7,88L22.7,88c-0.5,0-0.9-0.4-0.9-0.9v-1.5c0-0.5,0.4-0.9,0.9-0.9h0c0.5,0,0.9,0.4,0.9,0.9v1.5
		C23.6,87.6,23.2,88,22.7,88z"/>
	<path fill="#D8A980" d="M68.4,88L68.4,88c0.5,0,0.9-0.4,0.9-0.9v-1.5c0-0.5-0.4-0.9-0.9-0.9l0,0c-0.5,0-0.9,0.4-0.9,0.9v1.5
		C67.5,87.6,67.9,88,68.4,88z"/>
</g>
<g>
	<path fill="#21252A" d="M15.7,32.2c-0.5-0.9-1.4-0.9-2-0.5c-0.1,0-0.2,0-0.2,0c-1.1,0.3-2.5,0.4-3.3,1.2c-0.6,0.6-0.6,1.2-0.7,1.9
		c-0.6,0.6-1.3,1-1.3,2.1c0,0.6,0.3,1.1,0.6,1.6c0.5,0.7,0.5,0.7,0.5,1.5c0,1.2,0.7,2,1.3,3c0.6,1,1.2,1.2,2.3,1.3
		c1.1,0.1,2.3,0.2,3.1-0.9c0.4-0.6,0.6-1.4,1-2c0.4-0.6,0.7-1.1,0.8-1.8c0.3-1.3,0.3-3,0-4.4C17.5,33.9,16.3,33.4,15.7,32.2z"/>
	<path fill="#21252A" d="M80.9,34.8c0-0.7-0.1-1.3-0.7-1.9c-0.8-0.8-2.3-0.9-3.3-1.2c-0.1,0-0.2,0-0.2,0c-0.7-0.4-1.6-0.4-2,0.5
		c-0.6,1.2-1.7,1.8-2.1,3.2c-0.3,1.3-0.3,3,0,4.4c0.2,0.7,0.5,1.2,0.8,1.8c0.4,0.6,0.6,1.4,1,2c0.7,1,1.9,1,3.1,0.9
		c1.1-0.1,1.7-0.3,2.3-1.3c0.6-1,1.3-1.8,1.3-3c0-0.8,0-0.8,0.5-1.5c0.3-0.5,0.6-1,0.6-1.6C82.2,35.7,81.5,35.4,80.9,34.8z"/>
</g>
<g>
	<g>
		<path fill="#BF8D6F" d="M19.7,21.1c0.8,0,0.8-1.2,0-1.2C18.9,19.8,18.9,21.1,19.7,21.1L19.7,21.1z"/>
	</g>
	<g>
		<path fill="#BF8D6F" d="M31.5,17.7c0.8,0,0.8-1.2,0-1.2C30.7,16.5,30.7,17.7,31.5,17.7L31.5,17.7z"/>
	</g>
	<g>
		<path fill="#BF8D6F" d="M45.5,19.4c0.8,0,0.8-1.2,0-1.2C44.7,18.2,44.7,19.4,45.5,19.4L45.5,19.4z"/>
	</g>
	<g>
		<path fill="#BF8D6F" d="M35.6,24.5c0.8,0,0.8-1.2,0-1.2C34.8,23.3,34.8,24.5,35.6,24.5L35.6,24.5z"/>
	</g>
	<g>
		<path fill="#BF8D6F" d="M16.7,28c0.8,0,0.8-1.2,0-1.2C15.9,26.8,15.9,28,16.7,28L16.7,28z"/>
	</g>
	<g>
		<path fill="#BF8D6F" d="M56,26.4c0.8,0,0.8-1.2,0-1.2C55.2,25.2,55.2,26.4,56,26.4L56,26.4z"/>
	</g>
	<g>
		<path fill="#BF8D6F" d="M59.5,17.8c0.8,0,0.8-1.2,0-1.2C58.7,16.6,58.7,17.8,59.5,17.8L59.5,17.8z"/>
	</g>
	<g>
		<path fill="#BF8D6F" d="M70.3,22.5c0.8,0,0.8-1.2,0-1.2C69.5,21.3,69.5,22.5,70.3,22.5L70.3,22.5z"/>
	</g>
	<g>
		<path fill="#BF8D6F" d="M74.1,27.6c0.8,0,0.8-1.2,0-1.2C73.3,26.4,73.3,27.6,74.1,27.6L74.1,27.6z"/>
	</g>
</g>
<g>
	<path fill="#21252A" d="M21.7,42.5c0.3-0.5,0.8-0.9,1.2-1.2c0.5-0.3,1-0.6,1.6-0.8c0.6-0.2,1.2-0.4,1.8-0.4
		c0.6,0.1,1.2,0.3,1.7,0.7l0,0.1C27.6,41,27.3,41,27,41.1c-0.3,0.1-0.5,0.1-0.8,0.1c-0.5,0.1-1,0-1.5,0.1c-0.5,0.1-1,0.3-1.5,0.5
		C22.7,42,22.2,42.3,21.7,42.5L21.7,42.5z"/>
	<path fill="#21252A" d="M69,42.5c-0.3-0.5-0.8-0.9-1.2-1.2c-0.5-0.3-1-0.6-1.6-0.8c-0.6-0.2-1.2-0.4-1.8-0.4
		c-0.6,0.1-1.2,0.3-1.7,0.7l0,0.1c0.3,0.1,0.6,0.1,0.9,0.2c0.3,0.1,0.5,0.1,0.8,0.1c0.5,0.1,1,0,1.5,0.1c0.5,0.1,1,0.3,1.5,0.5
		C68,42,68.5,42.3,69,42.5L69,42.5z"/>
</g>
<g>
	<g>
		<path fill="#6595CB" d="M17.9,84.1c-0.1-14.1,8-19,8.4-19.2l3.6,5.8l0.1,0c-0.2,0.1-5.1,3.4-5,13.4L17.9,84.1z"/>
	</g>
	<g>
		<path fill="#6595CB" d="M73.3,84.1c0.1-14.1-8-19-8.4-19.2l-3.6,5.8l-0.1,0c0.2,0.1,5.1,3.4,5,13.4L73.3,84.1z"/>
	</g>
	<path fill="#6595CB" d="M65.1,65.1l0.1,22l-39,0.2l-0.1-22.2l11.2,0c0.9,1.7,2.3,3.8,4.4,6c1.4,1.4,2.8,2.5,4,3.4
		c1.3-0.9,3-2.2,4.6-4.1c1.7-1.9,2.8-3.8,3.6-5.3C57.6,65.1,61.4,65.1,65.1,65.1z"/>
	<ellipse fill="#FFFFFF" cx="46.6" cy="77.9" rx="0.6" ry="0.6"/>
	<ellipse fill="#FFFFFF" cx="46.6" cy="81.6" rx="0.6" ry="0.6"/>
	<ellipse fill="#FFFFFF" cx="46.6" cy="85.4" rx="0.6" ry="0.6"/>
	<g>
		<path fill="#FFFFFF" d="M25.7,76.5C25.6,76.5,25.6,76.5,25.7,76.5c-0.1,0-0.1-0.1-0.1-0.2c0.1-0.1,0.1-0.2,0.2-0.2
			c0,0,0.1,0,0.1,0c0,0,0,0.1,0,0.1C25.9,76.3,25.8,76.4,25.7,76.5C25.7,76.5,25.7,76.5,25.7,76.5z"/>
		<path fill="#FFFFFF" d="M24.4,83.1C24.4,83.1,24.3,83.1,24.4,83.1c-0.1-0.3-0.1-0.5-0.1-0.7c0-0.1,0-0.1,0.1-0.1
			c0,0,0.1,0,0.1,0.1C24.5,82.6,24.5,82.8,24.4,83.1C24.5,83.1,24.5,83.1,24.4,83.1C24.4,83.1,24.4,83.1,24.4,83.1z M24.4,82
			C24.4,82,24.3,81.9,24.4,82c-0.1-0.3-0.1-0.5-0.1-0.6v0c0-0.1,0-0.1,0.1-0.1s0.1,0,0.1,0.1v0C24.5,81.5,24.5,81.7,24.4,82
			C24.5,81.9,24.5,82,24.4,82C24.4,82,24.4,82,24.4,82z M24.4,80.8C24.4,80.8,24.4,80.8,24.4,80.8C24.4,80.8,24.3,80.8,24.4,80.8
			c-0.1-0.3-0.1-0.5-0.1-0.7c0-0.1,0-0.1,0.1-0.1c0.1,0,0.1,0.1,0.1,0.1C24.5,80.4,24.5,80.5,24.4,80.8
			C24.5,80.8,24.5,80.8,24.4,80.8z M24.5,79.7C24.5,79.7,24.5,79.7,24.5,79.7c-0.1,0-0.1-0.1-0.1-0.1c0-0.2,0-0.4,0.1-0.6
			c0-0.1,0.1-0.1,0.1-0.1c0.1,0,0.1,0.1,0.1,0.1C24.7,79.2,24.6,79.4,24.5,79.7C24.6,79.6,24.6,79.7,24.5,79.7z M24.7,78.6
			C24.7,78.6,24.7,78.6,24.7,78.6c-0.1,0-0.1-0.1-0.1-0.1c0-0.2,0.1-0.4,0.2-0.6c0,0,0.1-0.1,0.1-0.1c0,0,0.1,0.1,0.1,0.1
			C24.9,78.1,24.8,78.3,24.7,78.6C24.8,78.5,24.8,78.6,24.7,78.6z M25.1,77.5C25.1,77.5,25.1,77.5,25.1,77.5c-0.1,0-0.1-0.1-0.1-0.1
			c0.1-0.2,0.2-0.3,0.3-0.5c0,0,0.1-0.1,0.1,0c0,0,0.1,0.1,0,0.1C25.3,77.1,25.3,77.3,25.1,77.5C25.2,77.5,25.1,77.5,25.1,77.5z"/>
		<path fill="#FFFFFF" d="M24.5,84C24.4,84,24.4,83.9,24.5,84l-0.1-0.4c0-0.1,0-0.1,0.1-0.1c0.1,0,0.1,0,0.1,0.1l0,0.3
			C24.6,83.9,24.5,84,24.5,84C24.5,84,24.5,84,24.5,84z"/>
	</g>
	<path fill="#FFFFFF" d="M23.9,83.1L23.9,83.1l-0.5,0c-0.1,0-0.1,0-0.1-0.1c0-0.1,0-0.1,0.1-0.1h0l0.5,0C24,82.9,24,83,23.9,83.1
		C24,83.1,24,83.1,23.9,83.1z M22.8,83.1L22.8,83.1l-0.5,0c-0.1,0-0.1,0-0.1-0.1c0-0.1,0-0.1,0.1-0.1h0l0.5,0
		C22.9,82.9,22.9,83,22.8,83.1C22.9,83.1,22.9,83.1,22.8,83.1z M21.7,83.1L21.7,83.1l-0.5,0c-0.1,0-0.1,0-0.1-0.1
		c0-0.1,0-0.1,0.1-0.1c0,0,0,0,0,0l0.5,0C21.8,82.9,21.8,82.9,21.7,83.1C21.8,83,21.8,83.1,21.7,83.1z M20.6,83.1
		C20.6,83.1,20.6,83.1,20.6,83.1l-0.5,0C20,83.1,20,83,20,83c0-0.1,0-0.1,0.1-0.1h0l0.5,0C20.7,82.9,20.7,82.9,20.6,83.1
		C20.7,83,20.7,83.1,20.6,83.1z M19.6,83.1C19.6,83.1,19.6,83.1,19.6,83.1l-0.5,0c-0.1,0-0.1,0-0.1-0.1c0-0.1,0-0.1,0.1-0.1h0l0.5,0
		C19.6,82.9,19.7,82.9,19.6,83.1C19.7,83,19.6,83.1,19.6,83.1z M18.5,83.1L18.5,83.1l-0.5,0c-0.1,0-0.1,0-0.1-0.1
		c0-0.1,0.1-0.1,0.1-0.1l0.5,0C18.5,82.9,18.6,82.9,18.5,83.1C18.6,83,18.5,83.1,18.5,83.1z"/>
	<path fill="#FFFFFF" d="M29.2,67.1C29.2,67.1,29.1,67.1,29.2,67.1c-0.1-0.1-0.1-0.2,0-0.2c0.2,0,0.4,0,0.5,0h0c0.1,0,0.1,0,0.1,0.1
		c0,0.1,0,0.1-0.1,0.1C29.6,67.1,29.4,67.1,29.2,67.1L29.2,67.1z M28.7,67.1L28.7,67.1c-0.2,0-0.4,0-0.5,0c-0.1,0-0.1,0-0.1-0.1
		c0-0.1,0-0.1,0.1-0.1h0c0.2,0,0.4,0,0.5,0C28.7,66.9,28.8,67,28.7,67.1C28.8,67.1,28.7,67.1,28.7,67.1z M30.3,67.1
		C30.3,67.1,30.2,67.1,30.3,67.1c-0.1-0.1-0.1-0.2,0-0.2c0.2,0,0.4,0,0.5,0c0,0,0,0,0,0c0.1,0,0.1,0,0.1,0.1c0,0.1,0,0.1-0.1,0.1
		C30.7,67.1,30.5,67.1,30.3,67.1C30.3,67.1,30.3,67.1,30.3,67.1z M31.4,67.1C31.4,67.1,31.3,67.1,31.4,67.1c-0.1-0.1-0.1-0.2,0-0.2
		c0.2,0,0.4,0,0.5,0c0,0,0,0,0,0c0.1,0,0.1,0,0.1,0.1c0,0.1,0,0.1-0.1,0.1C31.8,67.1,31.6,67.1,31.4,67.1
		C31.4,67.1,31.4,67.1,31.4,67.1z M32.5,67.1C32.4,67.1,32.4,67,32.5,67.1c-0.1-0.1-0.1-0.2,0-0.2c0.2,0,0.4,0,0.5,0
		c0.1,0,0.1,0,0.1,0.1c0,0.1,0,0.1-0.1,0.1C32.9,67,32.7,67,32.5,67.1C32.5,67.1,32.5,67.1,32.5,67.1z M33.6,67
		C33.5,67,33.5,67,33.6,67c-0.1-0.1-0.1-0.2,0-0.2c0.2,0,0.4,0,0.5,0c0.1,0,0.1,0,0.1,0.1c0,0.1,0,0.1-0.1,0.1
		C33.9,67,33.8,67,33.6,67C33.6,67,33.6,67,33.6,67z M34.7,66.9C34.6,66.9,34.6,66.9,34.7,66.9c-0.1-0.1-0.1-0.2,0-0.2c0,0,0,0,0,0
		c0.2,0,0.3,0,0.5,0c0.1,0,0.1,0,0.1,0.1c0,0.1,0,0.1-0.1,0.1C35,66.9,34.9,66.9,34.7,66.9C34.7,66.9,34.7,66.9,34.7,66.9z
		 M35.7,66.8C35.7,66.8,35.7,66.8,35.7,66.8c-0.1-0.1-0.1-0.2,0-0.2c0.2,0,0.4,0,0.5-0.1c0.1,0,0.1,0,0.1,0.1c0,0.1,0,0.1-0.1,0.1
		C36.1,66.8,35.9,66.8,35.7,66.8C35.8,66.8,35.8,66.8,35.7,66.8z M36.8,66.7C36.8,66.7,36.7,66.7,36.8,66.7c-0.1-0.1-0.1-0.2,0-0.2
		c0.2,0,0.4,0,0.5-0.1c0.1,0,0.1,0,0.1,0.1c0,0.1,0,0.1-0.1,0.1C37.2,66.7,37,66.7,36.8,66.7C36.8,66.7,36.8,66.7,36.8,66.7z
		 M37.9,66.6C37.9,66.6,37.8,66.6,37.9,66.6c-0.1-0.1-0.1-0.2,0-0.2l0.2,0c0.1,0,0.1,0,0.1,0.1c0,0.1,0,0.1-0.1,0.1L37.9,66.6
		C37.9,66.6,37.9,66.6,37.9,66.6z"/>
	<path fill="#FFFFFF" d="M29.2,67.6L29.2,67.6c-0.1,0-0.2,0-0.2-0.1c0-0.1,0-0.1,0.1-0.1l0.5,0h0c0.1,0,0.1,0,0.1,0.1
		c0,0.1,0,0.1-0.1,0.1L29.2,67.6z M28.6,67.6L28.6,67.6c-0.2,0-0.4,0-0.5,0c-0.1,0-0.1,0-0.1-0.1c0-0.1,0.1-0.1,0.1-0.1
		c0.2,0,0.3,0,0.5,0C28.7,67.4,28.7,67.5,28.6,67.6C28.7,67.6,28.7,67.6,28.6,67.6z M30.2,67.6C30.2,67.6,30.1,67.6,30.2,67.6
		c-0.1-0.1-0.1-0.2,0-0.2l0.5,0c0,0,0,0,0,0c0.1,0,0.1,0,0.1,0.1c0,0.1,0,0.1-0.1,0.1L30.2,67.6C30.2,67.6,30.2,67.6,30.2,67.6z
		 M31.3,67.6C31.3,67.6,31.2,67.6,31.3,67.6c-0.1-0.1-0.1-0.2,0-0.2c0.2,0,0.4,0,0.5,0c0,0,0.1,0,0.1,0.1c0,0.1,0,0.1-0.1,0.1
		C31.7,67.6,31.5,67.6,31.3,67.6C31.3,67.6,31.3,67.6,31.3,67.6z M32.4,67.6C32.4,67.6,32.3,67.5,32.4,67.6c-0.1-0.1-0.1-0.2,0-0.2
		c0.2,0,0.4,0,0.5,0c0,0,0.1,0,0.1,0.1c0,0.1,0,0.1-0.1,0.1C32.8,67.5,32.6,67.5,32.4,67.6C32.4,67.6,32.4,67.6,32.4,67.6z
		 M33.5,67.5C33.4,67.5,33.4,67.5,33.5,67.5c-0.1-0.1-0.1-0.2,0-0.2l0.5,0c0,0,0.1,0,0.1,0.1c0,0.1,0,0.1-0.1,0.1L33.5,67.5
		C33.5,67.5,33.5,67.5,33.5,67.5z M34.6,67.4C34.5,67.4,34.5,67.4,34.6,67.4c-0.1-0.1-0.1-0.2,0-0.2c0.2,0,0.4,0,0.5,0
		c0.1,0,0.1,0,0.1,0.1c0,0.1,0,0.1-0.1,0.1C34.9,67.4,34.8,67.4,34.6,67.4C34.6,67.4,34.6,67.4,34.6,67.4z M35.7,67.4
		C35.6,67.4,35.6,67.3,35.7,67.4c-0.1-0.1-0.1-0.2,0-0.2c0.2,0,0.4,0,0.5,0c0.1,0,0.1,0,0.1,0.1c0,0.1,0,0.1-0.1,0.1
		C36,67.3,35.8,67.4,35.7,67.4C35.7,67.4,35.7,67.4,35.7,67.4z M36.7,67.3C36.7,67.3,36.7,67.2,36.7,67.3c-0.1-0.1-0.1-0.2,0-0.2
		c0.2,0,0.4,0,0.5-0.1c0.1,0,0.1,0,0.1,0.1c0,0.1,0,0.1-0.1,0.1C37.1,67.2,36.9,67.3,36.7,67.3C36.8,67.3,36.7,67.3,36.7,67.3z
		 M37.8,67.2C37.8,67.2,37.7,67.1,37.8,67.2c-0.1-0.1-0.1-0.2,0-0.2c0.2,0,0.4,0,0.5-0.1c0.1,0,0.1,0,0.1,0.1c0,0.1,0,0.1-0.1,0.1
		C38.2,67.1,38,67.1,37.8,67.2C37.8,67.2,37.8,67.2,37.8,67.2z"/>
	<path fill="#FFFFFF" d="M26.2,74.9C26.1,74.9,26.1,74.9,26.2,74.9c-0.1,0-0.1-0.1-0.1-0.1l0.1-0.2c0,0,0.1-0.1,0.1-0.1
		c0,0,0.1,0.1,0.1,0.1L26.2,74.9C26.2,74.9,26.2,74.9,26.2,74.9z M26.4,74.2C26.4,74.2,26.4,74.2,26.4,74.2c-0.1,0-0.1-0.1-0.1-0.1
		c0-0.1,0.1-0.3,0.2-0.4l0-0.1c0,0,0.1-0.1,0.1-0.1c0,0,0.1,0.1,0.1,0.1l0,0.1C26.6,73.9,26.5,74,26.4,74.2
		C26.5,74.2,26.4,74.2,26.4,74.2z M26.8,73.2C26.8,73.2,26.7,73.2,26.8,73.2c-0.1,0-0.1-0.1-0.1-0.1c0.1-0.2,0.1-0.4,0.2-0.5
		c0-0.1,0.1-0.1,0.1-0.1c0.1,0,0.1,0.1,0.1,0.1C27,72.8,26.9,72.9,26.8,73.2C26.8,73.2,26.8,73.2,26.8,73.2z M27.1,72.2
		C27.1,72.2,27.1,72.2,27.1,72.2C27,72.1,27,72.1,27,72l0,0c0.1-0.2,0.1-0.3,0.1-0.5c0-0.1,0.1-0.1,0.1-0.1c0.1,0,0.1,0.1,0.1,0.1
		c0,0.1-0.1,0.3-0.1,0.5L27.1,72.2C27.2,72.1,27.1,72.2,27.1,72.2z M27.4,71.1C27.4,71.1,27.4,71.1,27.4,71.1
		c-0.1,0-0.1-0.1-0.1-0.1c0-0.2,0.1-0.4,0.1-0.5c0-0.1,0.1-0.1,0.1-0.1c0.1,0,0.1,0.1,0.1,0.1C27.6,70.7,27.5,70.8,27.4,71.1
		C27.5,71.1,27.4,71.1,27.4,71.1z M27.5,70C27.5,70,27.5,70,27.5,70C27.5,70,27.4,70,27.5,70c-0.1-0.2-0.1-0.2-0.1-0.3
		c0-0.1,0-0.2,0-0.4c0-0.1,0-0.1,0.1-0.1c0.1,0,0.1,0,0.1,0.1c0,0.1,0,0.3,0,0.4C27.6,69.8,27.6,69.9,27.5,70
		C27.6,70,27.6,70,27.5,70z M27.5,68.9C27.4,68.9,27.4,68.9,27.5,68.9c-0.1-0.3-0.1-0.4-0.2-0.6c0-0.1,0-0.1,0.1-0.1
		c0.1,0,0.1,0,0.1,0.1c0,0.2,0.1,0.4,0.1,0.5C27.6,68.9,27.5,68.9,27.5,68.9C27.5,68.9,27.5,68.9,27.5,68.9z M27.3,67.9
		C27.2,67.9,27.2,67.8,27.3,67.9c-0.1-0.2-0.2-0.4-0.3-0.6c0,0,0-0.1,0.1-0.1c0,0,0.1,0,0.1,0.1c0.1,0.2,0.1,0.4,0.2,0.5
		C27.4,67.8,27.3,67.8,27.3,67.9C27.3,67.9,27.3,67.9,27.3,67.9z M26.8,66.8C26.8,66.8,26.8,66.8,26.8,66.8l-0.3-0.6
		c0,0,0-0.1,0-0.1c0,0,0.1,0,0.1,0l0.2,0.5C26.9,66.7,26.9,66.8,26.8,66.8C26.9,66.8,26.9,66.8,26.8,66.8z M26.4,65.9
		C26.3,65.9,26.3,65.8,26.4,65.9c-0.2-0.2-0.2-0.4-0.3-0.5c0,0,0-0.1,0-0.1c0,0,0.1,0,0.1,0c0.1,0.2,0.2,0.3,0.3,0.5
		C26.5,65.8,26.5,65.8,26.4,65.9C26.4,65.8,26.4,65.9,26.4,65.9z"/>
	<path fill="#FFFFFF" d="M26.6,74.9C26.6,74.9,26.6,74.9,26.6,74.9c-0.1,0-0.1-0.1-0.1-0.1l0.1-0.2c0,0,0.1-0.1,0.1-0.1
		c0,0,0.1,0.1,0.1,0.1L26.6,74.9C26.7,74.9,26.7,74.9,26.6,74.9z M26.9,74.2C26.9,74.2,26.9,74.2,26.9,74.2c-0.1,0-0.1-0.1-0.1-0.1
		c0.1-0.1,0.1-0.3,0.2-0.4l0-0.1l0.1,0l0.1,0l0,0.1C27.1,73.9,27,74,26.9,74.2C27,74.2,26.9,74.2,26.9,74.2z M27.3,73.2
		C27.2,73.2,27.2,73.2,27.3,73.2c-0.1,0-0.1-0.1-0.1-0.1c0.1-0.2,0.1-0.4,0.2-0.5c0-0.1,0.1-0.1,0.1-0.1c0.1,0,0.1,0.1,0.1,0.1
		C27.5,72.7,27.4,72.9,27.3,73.2C27.3,73.2,27.3,73.2,27.3,73.2z M27.6,72.1C27.6,72.1,27.6,72.1,27.6,72.1c-0.1,0-0.1-0.1-0.1-0.1
		l0,0c0.1-0.2,0.1-0.3,0.1-0.5c0-0.1,0.1-0.1,0.1-0.1c0.1,0,0.1,0.1,0.1,0.1c0,0.1-0.1,0.3-0.1,0.5L27.6,72.1
		C27.7,72.1,27.6,72.1,27.6,72.1z M27.9,71.1C27.9,71.1,27.9,71.1,27.9,71.1c-0.1,0-0.1-0.1-0.1-0.1c0-0.2,0.1-0.4,0.1-0.5
		c0-0.1,0-0.1,0.1-0.1c0.1,0,0.1,0.1,0.1,0.1C28,70.6,28,70.8,27.9,71.1C28,71.1,27.9,71.1,27.9,71.1z M28,70C28,70,28,70,28,70
		C28,70,27.9,69.9,28,70c-0.1-0.2-0.1-0.2-0.1-0.3c0-0.1,0-0.2,0-0.4c0-0.1,0-0.1,0.1-0.1c0.1,0,0.1,0,0.1,0.1c0,0.1,0,0.3,0,0.4
		C28.1,69.8,28.1,69.8,28,70C28.1,70,28.1,70,28,70z M28,68.9C27.9,68.9,27.9,68.9,28,68.9c-0.1-0.3-0.1-0.4-0.2-0.6
		c0-0.1,0-0.1,0.1-0.1c0.1,0,0.1,0,0.1,0.1c0,0.2,0.1,0.4,0.1,0.5C28.1,68.8,28,68.9,28,68.9C28,68.9,28,68.9,28,68.9z M27.7,67.8
		C27.7,67.8,27.7,67.8,27.7,67.8c-0.1-0.2-0.2-0.4-0.3-0.6c0,0,0-0.1,0.1-0.1c0,0,0.1,0,0.1,0.1c0.1,0.2,0.1,0.4,0.2,0.5
		C27.8,67.8,27.8,67.8,27.7,67.8C27.8,67.8,27.7,67.8,27.7,67.8z M27.3,66.8C27.3,66.8,27.3,66.8,27.3,66.8L27,66.3c0,0,0-0.1,0-0.1
		c0,0,0.1,0,0.1,0l0.2,0.5C27.4,66.7,27.4,66.8,27.3,66.8C27.4,66.8,27.3,66.8,27.3,66.8z M26.9,65.8C26.8,65.8,26.8,65.8,26.9,65.8
		c-0.2-0.2-0.2-0.4-0.3-0.5c0,0,0-0.1,0-0.1c0,0,0.1,0,0.1,0c0.1,0.2,0.2,0.3,0.3,0.5C27,65.7,26.9,65.8,26.9,65.8
		C26.9,65.8,26.9,65.8,26.9,65.8z"/>
	<path fill="#FFFFFF" d="M23.9,82.6L23.9,82.6l-0.5,0c-0.1,0-0.1,0-0.1-0.1c0-0.1,0-0.1,0.1-0.1h0l0.5,0
		C23.9,82.4,24,82.5,23.9,82.6C24,82.6,23.9,82.6,23.9,82.6z M22.8,82.6L22.8,82.6l-0.5,0c-0.1,0-0.1,0-0.1-0.1c0-0.1,0-0.1,0.1-0.1
		h0l0.5,0C22.8,82.4,22.9,82.5,22.8,82.6C22.9,82.6,22.8,82.6,22.8,82.6z M21.7,82.6L21.7,82.6l-0.5,0c-0.1,0-0.1,0-0.1-0.1
		c0-0.1,0-0.1,0.1-0.1l0,0l0.5,0C21.8,82.4,21.8,82.5,21.7,82.6C21.8,82.6,21.8,82.6,21.7,82.6z M20.6,82.6L20.6,82.6l-0.5,0
		c-0.1,0-0.1,0-0.1-0.1c0-0.1,0-0.1,0.1-0.1h0l0.5,0C20.7,82.4,20.7,82.5,20.6,82.6C20.7,82.6,20.7,82.6,20.6,82.6z M19.5,82.6
		C19.5,82.6,19.5,82.6,19.5,82.6c-0.2,0-0.4,0-0.5,0c-0.1,0-0.1,0-0.1-0.1c0-0.1,0-0.1,0.1-0.1c0,0,0,0,0,0c0.2,0,0.4,0,0.5,0
		C19.6,82.4,19.6,82.5,19.5,82.6C19.6,82.6,19.6,82.6,19.5,82.6z M18.4,82.6C18.4,82.6,18.4,82.6,18.4,82.6c-0.2,0-0.4,0-0.5,0
		c-0.1,0-0.1,0-0.1-0.1c0-0.1,0-0.1,0.1-0.1c0.2,0,0.4,0,0.5,0C18.5,82.4,18.5,82.4,18.4,82.6C18.5,82.5,18.5,82.6,18.4,82.6z"/>
	<g>
		<path fill="#FFFFFF" d="M65.4,76.5C65.4,76.5,65.4,76.5,65.4,76.5c-0.1-0.1-0.2-0.2-0.2-0.3c0,0,0-0.1,0-0.1c0,0,0.1,0,0.1,0
			c0.1,0.1,0.1,0.1,0.2,0.2C65.5,76.4,65.5,76.4,65.4,76.5C65.5,76.5,65.4,76.5,65.4,76.5z"/>
		<path fill="#FFFFFF" d="M66.7,83.1C66.7,83.1,66.6,83.1,66.7,83.1C66.6,83.1,66.6,83.1,66.7,83.1c-0.1-0.3-0.1-0.5-0.1-0.7
			c0-0.1,0-0.1,0.1-0.1h0c0.1,0,0.1,0,0.1,0.1C66.8,82.6,66.8,82.8,66.7,83.1C66.7,83.1,66.7,83.1,66.7,83.1z M66.7,82
			C66.7,82,66.7,82,66.7,82C66.6,82,66.6,81.9,66.7,82c-0.1-0.3-0.1-0.5-0.1-0.6v0c0-0.1,0-0.1,0.1-0.1c0.1,0,0.1,0,0.1,0.1v0
			C66.8,81.5,66.8,81.7,66.7,82C66.8,81.9,66.7,82,66.7,82z M66.7,80.8C66.6,80.8,66.6,80.8,66.7,80.8c-0.1-0.3-0.1-0.5-0.1-0.7
			c0-0.1,0-0.1,0.1-0.1c0.1,0,0.1,0,0.1,0.1C66.7,80.3,66.8,80.5,66.7,80.8C66.8,80.8,66.7,80.8,66.7,80.8
			C66.7,80.8,66.7,80.8,66.7,80.8z M66.6,79.7C66.5,79.7,66.5,79.6,66.6,79.7c-0.1-0.3-0.1-0.5-0.2-0.6c0-0.1,0-0.1,0.1-0.1
			c0.1,0,0.1,0,0.1,0.1c0,0.2,0.1,0.4,0.1,0.6C66.7,79.6,66.6,79.7,66.6,79.7C66.6,79.7,66.6,79.7,66.6,79.7z M66.4,78.6
			C66.3,78.6,66.3,78.5,66.4,78.6c-0.1-0.3-0.2-0.4-0.3-0.6c0,0,0-0.1,0.1-0.1c0,0,0.1,0,0.1,0.1c0.1,0.2,0.1,0.4,0.2,0.6
			C66.5,78.5,66.4,78.5,66.4,78.6C66.4,78.6,66.4,78.6,66.4,78.6z M66,77.5C66,77.5,65.9,77.5,66,77.5c-0.2-0.2-0.3-0.4-0.3-0.6
			c0,0,0-0.1,0-0.1c0,0,0.1,0,0.1,0c0.1,0.2,0.2,0.3,0.3,0.5C66.1,77.4,66.1,77.4,66,77.5C66,77.5,66,77.5,66,77.5z"/>
		<path fill="#FFFFFF" d="M66.6,84C66.6,84,66.6,84,66.6,84c-0.1,0-0.1,0-0.1-0.1l0-0.3c0-0.1,0-0.1,0.1-0.1c0.1,0,0.1,0,0.1,0.1
			L66.6,84C66.7,83.9,66.7,84,66.6,84z"/>
	</g>
	<path fill="#FFFFFF" d="M67.2,83.1C67.1,83.1,67.1,83.1,67.2,83.1c-0.1-0.1-0.1-0.2,0-0.2l0.5,0l0,0.1l0,0.1L67.2,83.1L67.2,83.1z
		 M68.3,83.1C68.2,83.1,68.2,83.1,68.3,83.1c-0.1-0.1-0.1-0.2,0-0.2l0.5,0l0,0.1l0,0.1L68.3,83.1L68.3,83.1z M69.4,83.1
		C69.3,83.1,69.3,83,69.4,83.1c-0.1-0.1-0.1-0.2,0-0.2l0.5,0h0c0.1,0,0.1,0,0.1,0.1c0,0.1,0,0.1-0.1,0.1L69.4,83.1L69.4,83.1z
		 M70.4,83.1C70.4,83.1,70.3,83,70.4,83.1c-0.1-0.1-0.1-0.2,0-0.2l0.5,0h0c0.1,0,0.1,0,0.1,0.1c0,0.1,0,0.1-0.1,0.1L70.4,83.1
		C70.4,83.1,70.4,83.1,70.4,83.1z M71.5,83.1C71.5,83.1,71.4,83,71.5,83.1c-0.1-0.1-0.1-0.2,0-0.2l0.5,0h0c0.1,0,0.1,0,0.1,0.1
		c0,0.1,0,0.1-0.1,0.1L71.5,83.1L71.5,83.1z M72.6,83.1C72.6,83.1,72.5,83,72.6,83.1c-0.1-0.1-0.1-0.2,0-0.2l0.5,0
		c0.1,0,0.1,0,0.1,0.1c0,0.1,0,0.1-0.1,0.1L72.6,83.1L72.6,83.1z"/>
	<path fill="#FFFFFF" d="M61.8,67.1C61.8,67.1,61.8,67.1,61.8,67.1c-0.2,0-0.4,0-0.5,0c-0.1,0-0.1,0-0.1-0.1c0-0.1,0-0.1,0.1-0.1h0
		c0.2,0,0.4,0,0.5,0C61.9,66.9,61.9,67,61.8,67.1C61.9,67.1,61.9,67.1,61.8,67.1z M62.4,67.1C62.3,67.1,62.3,67.1,62.4,67.1
		c-0.1-0.1-0.1-0.2,0-0.2c0.2,0,0.4,0,0.5,0c0,0,0,0,0,0c0.1,0,0.1,0,0.1,0.1c0,0.1,0,0.1-0.1,0.1C62.8,67.1,62.6,67.1,62.4,67.1
		L62.4,67.1z M60.8,67.1C60.8,67.1,60.8,67.1,60.8,67.1c-0.2,0-0.4,0-0.5,0c-0.1,0-0.1,0-0.1-0.1c0-0.1,0.1-0.1,0.1-0.1
		c0.2,0,0.4,0,0.5,0C60.8,66.9,60.9,67,60.8,67.1C60.9,67.1,60.8,67.1,60.8,67.1z M59.7,67.1C59.7,67.1,59.7,67.1,59.7,67.1
		c-0.2,0-0.4,0-0.5,0c-0.1,0-0.1,0-0.1-0.1c0-0.1,0-0.1,0.1-0.1c0.2,0,0.4,0,0.5,0C59.7,66.9,59.8,67,59.7,67.1
		C59.8,67.1,59.7,67.1,59.7,67.1z M58.6,67.1C58.6,67.1,58.6,67.1,58.6,67.1c-0.2,0-0.4,0-0.5,0C58,67,58,67,58,66.9
		c0-0.1,0-0.1,0.1-0.1c0,0,0,0,0,0c0.2,0,0.4,0,0.5,0C58.6,66.9,58.7,66.9,58.6,67.1C58.7,67,58.6,67.1,58.6,67.1z M57.5,67
		C57.5,67,57.5,67,57.5,67c-0.2,0-0.4,0-0.5,0c-0.1,0-0.1,0-0.1-0.1c0-0.1,0.1-0.1,0.1-0.1c0.2,0,0.4,0,0.5,0
		C57.6,66.8,57.6,66.8,57.5,67C57.6,67,57.6,67,57.5,67z M56.4,66.9L56.4,66.9L56.4,66.9c-0.2,0-0.4,0-0.5,0c-0.1,0-0.1-0.1-0.1-0.1
		c0-0.1,0.1-0.1,0.1-0.1c0.2,0,0.4,0,0.5,0L56.4,66.9z M55.3,66.8C55.3,66.8,55.3,66.8,55.3,66.8c-0.2,0-0.4,0-0.6-0.1
		c-0.1,0-0.1-0.1-0.1-0.1c0-0.1,0.1-0.1,0.1-0.1c0.2,0,0.4,0,0.5,0.1C55.4,66.6,55.4,66.7,55.3,66.8C55.4,66.8,55.4,66.8,55.3,66.8z
		 M54.3,66.7C54.3,66.7,54.2,66.7,54.3,66.7c-0.2,0-0.4,0-0.6-0.1c-0.1,0-0.1-0.1-0.1-0.1c0-0.1,0.1-0.1,0.1-0.1
		c0.2,0,0.4,0,0.5,0.1C54.3,66.5,54.4,66.6,54.3,66.7C54.3,66.7,54.3,66.7,54.3,66.7z M53.2,66.6C53.2,66.6,53.2,66.6,53.2,66.6
		l-0.2,0c-0.1,0-0.1-0.1-0.1-0.1c0-0.1,0-0.1,0.1-0.1l0.2,0C53.2,66.4,53.3,66.5,53.2,66.6C53.3,66.6,53.2,66.6,53.2,66.6z"/>
	<path fill="#FFFFFF" d="M61.9,67.6l-0.5,0c-0.1,0-0.1,0-0.1-0.1c0-0.1,0-0.1,0.1-0.1h0l0.5,0C62,67.4,62,67.5,61.9,67.6
		C62,67.6,62,67.6,61.9,67.6z M62.5,67.6C62.4,67.6,62.4,67.6,62.5,67.6c-0.1-0.1-0.1-0.2,0-0.2c0.2,0,0.4,0,0.5,0
		c0,0,0.1,0,0.1,0.1c0,0.1,0,0.1-0.1,0.1C62.9,67.6,62.7,67.6,62.5,67.6L62.5,67.6z M60.9,67.6L60.9,67.6l-0.5,0
		c-0.1,0-0.1,0-0.1-0.1c0-0.1,0-0.1,0.1-0.1c0,0,0,0,0,0l0.5,0C60.9,67.4,60.9,67.5,60.9,67.6C60.9,67.6,60.9,67.6,60.9,67.6z
		 M59.8,67.6C59.8,67.6,59.8,67.6,59.8,67.6c-0.2,0-0.4,0-0.5,0c-0.1,0-0.1,0-0.1-0.1c0-0.1,0-0.1,0.1-0.1c0,0,0,0,0,0
		c0.2,0,0.4,0,0.5,0C59.8,67.4,59.9,67.5,59.8,67.6C59.9,67.6,59.8,67.6,59.8,67.6z M58.7,67.6C58.7,67.6,58.7,67.6,58.7,67.6
		c-0.2,0-0.4,0-0.5,0c-0.1,0-0.1,0-0.1-0.1c0-0.1,0-0.1,0.1-0.1c0.2,0,0.4,0,0.5,0C58.7,67.4,58.8,67.4,58.7,67.6
		C58.8,67.5,58.7,67.6,58.7,67.6z M57.6,67.5C57.6,67.5,57.6,67.5,57.6,67.5l-0.5,0c-0.1,0-0.1,0-0.1-0.1c0-0.1,0-0.1,0.1-0.1l0.5,0
		C57.7,67.3,57.7,67.4,57.6,67.5C57.7,67.5,57.6,67.5,57.6,67.5z M56.5,67.4C56.5,67.4,56.5,67.4,56.5,67.4c-0.2,0-0.4,0-0.5,0
		c-0.1,0-0.1,0-0.1-0.1c0-0.1,0-0.1,0.1-0.1c0.2,0,0.4,0,0.5,0C56.6,67.3,56.6,67.3,56.5,67.4C56.6,67.4,56.6,67.4,56.5,67.4z
		 M55.4,67.4C55.4,67.4,55.4,67.4,55.4,67.4c-0.2,0-0.4,0-0.5,0c-0.1,0-0.1-0.1-0.1-0.1c0-0.1,0-0.1,0.1-0.1c0.2,0,0.4,0,0.5,0
		C55.5,67.2,55.5,67.2,55.4,67.4C55.5,67.3,55.5,67.4,55.4,67.4z M54.3,67.3C54.3,67.3,54.3,67.3,54.3,67.3c-0.2,0-0.4,0-0.6-0.1
		c-0.1,0-0.1-0.1-0.1-0.1c0-0.1,0.1-0.1,0.1-0.1c0.2,0,0.4,0,0.5,0.1C54.4,67.1,54.4,67.1,54.3,67.3C54.4,67.2,54.4,67.3,54.3,67.3z
		 M53.3,67.2C53.3,67.2,53.3,67.2,53.3,67.2c-0.2,0-0.4,0-0.5-0.1c-0.1,0-0.1-0.1-0.1-0.1c0-0.1,0.1-0.1,0.1-0.1
		c0.2,0,0.3,0,0.5,0.1C53.3,67,53.4,67,53.3,67.2C53.3,67.1,53.3,67.2,53.3,67.2z"/>
	<path fill="#FFFFFF" d="M64.9,74.9C64.9,74.9,64.9,74.9,64.9,74.9l-0.1-0.2c0,0,0-0.1,0.1-0.1c0.1,0,0.1,0,0.1,0.1l0.1,0.2
		C65,74.8,65,74.9,64.9,74.9C65,74.9,64.9,74.9,64.9,74.9z M64.7,74.2C64.6,74.2,64.6,74.2,64.7,74.2c-0.1-0.2-0.2-0.4-0.2-0.5
		l0-0.1c0,0,0-0.1,0.1-0.1c0,0,0.1,0,0.1,0.1l0,0.1c0.1,0.2,0.1,0.3,0.2,0.4C64.8,74.2,64.8,74.2,64.7,74.2
		C64.7,74.2,64.7,74.2,64.7,74.2z M64.3,73.2C64.3,73.2,64.2,73.2,64.3,73.2c-0.2-0.3-0.2-0.4-0.3-0.6c0-0.1,0-0.1,0.1-0.1
		c0,0,0.1,0,0.1,0.1c0,0.2,0.1,0.3,0.2,0.5C64.4,73.1,64.4,73.2,64.3,73.2C64.3,73.2,64.3,73.2,64.3,73.2z M64,72.2
		C63.9,72.2,63.9,72.1,64,72.2L63.9,72c-0.1-0.2-0.1-0.3-0.1-0.5c0-0.1,0-0.1,0.1-0.1c0,0,0.1,0,0.1,0.1c0,0.1,0.1,0.3,0.1,0.5
		l0,0.1C64.1,72.1,64.1,72.1,64,72.2C64,72.2,64,72.2,64,72.2z M63.7,71.1C63.7,71.1,63.6,71.1,63.7,71.1c-0.1-0.3-0.2-0.5-0.2-0.6
		c0-0.1,0-0.1,0.1-0.1c0.1,0,0.1,0,0.1,0.1c0,0.2,0.1,0.3,0.1,0.5C63.8,71,63.8,71.1,63.7,71.1C63.7,71.1,63.7,71.1,63.7,71.1z
		 M63.6,70C63.5,70,63.5,70,63.6,70c-0.1-0.2-0.1-0.2-0.1-0.3c0-0.1,0-0.2,0-0.4c0-0.1,0.1-0.1,0.1-0.1c0.1,0,0.1,0,0.1,0.1
		c0,0.1,0,0.2,0,0.4C63.6,69.8,63.6,69.9,63.6,70C63.7,70,63.6,70,63.6,70C63.6,70,63.6,70,63.6,70z M63.6,68.9
		C63.6,68.9,63.6,68.9,63.6,68.9c-0.1,0-0.1-0.1-0.1-0.1c0-0.2,0.1-0.4,0.1-0.5c0-0.1,0.1-0.1,0.1-0.1c0.1,0,0.1,0.1,0.1,0.1
		C63.8,68.5,63.7,68.7,63.6,68.9C63.7,68.9,63.7,68.9,63.6,68.9z M63.8,67.9C63.8,67.9,63.8,67.9,63.8,67.9c-0.1,0-0.1-0.1-0.1-0.1
		c0.1-0.2,0.1-0.3,0.2-0.5c0,0,0.1-0.1,0.1-0.1c0,0,0.1,0.1,0.1,0.1C64,67.5,64,67.6,63.8,67.9C63.9,67.8,63.9,67.9,63.8,67.9z
		 M64.2,66.8C64.2,66.8,64.2,66.8,64.2,66.8c-0.1,0-0.1-0.1-0.1-0.1l0.2-0.5c0,0,0.1-0.1,0.1,0c0,0,0.1,0.1,0,0.1L64.2,66.8
		C64.3,66.8,64.3,66.8,64.2,66.8z M64.7,65.9C64.7,65.9,64.7,65.8,64.7,65.9c-0.1,0-0.1-0.1-0.1-0.1c0.1-0.2,0.2-0.3,0.3-0.5
		c0,0,0.1-0.1,0.1,0c0,0,0.1,0.1,0,0.1C65,65.5,64.9,65.6,64.7,65.9C64.8,65.8,64.8,65.9,64.7,65.9z"/>
	<path fill="#FFFFFF" d="M64.4,74.9C64.4,74.9,64.4,74.9,64.4,74.9l-0.1-0.2c0,0,0-0.1,0.1-0.1c0,0,0.1,0,0.1,0.1l0.1,0.2
		C64.6,74.8,64.5,74.9,64.4,74.9C64.5,74.9,64.5,74.9,64.4,74.9z M64.2,74.2C64.2,74.2,64.1,74.2,64.2,74.2
		c-0.1-0.2-0.2-0.4-0.2-0.5l0-0.1c0,0,0-0.1,0.1-0.1c0,0,0.1,0,0.1,0.1l0,0l0,0.1c0.1,0.2,0.1,0.3,0.2,0.4
		C64.3,74.1,64.3,74.2,64.2,74.2C64.2,74.2,64.2,74.2,64.2,74.2z M63.8,73.2C63.8,73.2,63.8,73.2,63.8,73.2
		c-0.2-0.3-0.2-0.4-0.3-0.6c0-0.1,0-0.1,0.1-0.1c0,0,0.1,0,0.1,0.1c0,0.2,0.1,0.3,0.2,0.5C63.9,73.1,63.9,73.2,63.8,73.2
		C63.9,73.2,63.8,73.2,63.8,73.2z M63.5,72.1C63.5,72.1,63.4,72.1,63.5,72.1L63.4,72c-0.1-0.2-0.1-0.3-0.1-0.5c0-0.1,0-0.1,0.1-0.1
		c0,0,0.1,0,0.1,0.1c0,0.1,0.1,0.3,0.1,0.5l0,0.1C63.6,72.1,63.6,72.1,63.5,72.1C63.5,72.1,63.5,72.1,63.5,72.1z M63.2,71.1
		C63.2,71.1,63.1,71.1,63.2,71.1c-0.1-0.3-0.2-0.5-0.2-0.6c0-0.1,0-0.1,0.1-0.1c0.1,0,0.1,0,0.1,0.1c0,0.2,0.1,0.3,0.1,0.5
		C63.3,71,63.3,71.1,63.2,71.1C63.2,71.1,63.2,71.1,63.2,71.1z M63.1,70C63,70,63,70,63.1,70C63,69.8,63,69.8,63,69.7
		c0-0.1,0-0.2,0-0.4c0-0.1,0-0.1,0.1-0.1c0.1,0,0.1,0,0.1,0.1c0,0.1,0,0.2,0,0.4C63.2,69.8,63.2,69.8,63.1,70
		C63.2,69.9,63.1,70,63.1,70C63.1,70,63.1,70,63.1,70z M63.1,68.9C63.1,68.9,63.1,68.9,63.1,68.9c-0.1,0-0.1-0.1-0.1-0.1
		c0-0.2,0.1-0.4,0.1-0.5c0-0.1,0.1-0.1,0.1-0.1c0.1,0,0.1,0.1,0.1,0.1C63.3,68.5,63.2,68.6,63.1,68.9C63.2,68.9,63.2,68.9,63.1,68.9
		z M63.4,67.8C63.3,67.8,63.3,67.8,63.4,67.8c-0.1,0-0.1-0.1-0.1-0.1c0.1-0.2,0.1-0.3,0.2-0.5c0,0,0.1-0.1,0.1-0.1
		c0,0,0.1,0.1,0.1,0.1C63.5,67.4,63.5,67.6,63.4,67.8C63.4,67.8,63.4,67.8,63.4,67.8z M63.8,66.8C63.7,66.8,63.7,66.8,63.8,66.8
		c-0.1,0-0.1-0.1-0.1-0.1l0.2-0.5c0,0,0.1-0.1,0.1,0c0,0,0.1,0.1,0,0.1L63.8,66.8C63.8,66.8,63.8,66.8,63.8,66.8z M64.2,65.8
		C64.2,65.8,64.2,65.8,64.2,65.8c-0.1,0-0.1-0.1-0.1-0.1c0.1-0.2,0.2-0.3,0.3-0.5c0,0,0.1-0.1,0.1,0c0,0,0.1,0.1,0,0.1
		C64.5,65.5,64.4,65.6,64.2,65.8C64.3,65.8,64.3,65.8,64.2,65.8z"/>
	<path fill="#FFFFFF" d="M67.2,82.6C67.2,82.6,67.1,82.6,67.2,82.6c-0.1-0.1-0.1-0.2,0-0.2l0.5,0c0,0,0,0,0,0c0.1,0,0.1,0,0.1,0.1
		c0,0.1,0,0.1-0.1,0.1L67.2,82.6C67.2,82.6,67.2,82.6,67.2,82.6z M68.3,82.6C68.2,82.6,68.2,82.6,68.3,82.6c-0.1-0.1-0.1-0.2,0-0.2
		l0.5,0h0c0.1,0,0.1,0,0.1,0.1c0,0.1,0,0.1-0.1,0.1L68.3,82.6L68.3,82.6z M69.4,82.6C69.3,82.6,69.3,82.6,69.4,82.6
		c-0.1-0.1-0.1-0.2,0-0.2l0.5,0l0,0c0.1,0,0.1,0,0.1,0.1c0,0.1,0,0.1-0.1,0.1L69.4,82.6L69.4,82.6z M70.5,82.6
		C70.4,82.6,70.4,82.6,70.5,82.6c-0.1-0.1-0.1-0.2,0-0.2l0.5,0h0c0.1,0,0.1,0,0.1,0.1c0,0.1,0,0.1-0.1,0.1L70.5,82.6L70.5,82.6z
		 M71.6,82.6C71.5,82.6,71.5,82.6,71.6,82.6c-0.1-0.1-0.1-0.2,0-0.2c0.2,0,0.4,0,0.5,0c0,0,0.1,0,0.1,0.1c0,0.1,0,0.1-0.1,0.1
		C71.9,82.6,71.7,82.6,71.6,82.6L71.6,82.6z M72.6,82.6C72.6,82.6,72.5,82.5,72.6,82.6c-0.1-0.1-0.1-0.2,0-0.2c0.2,0,0.4,0,0.5,0
		c0,0,0.1,0,0.1,0.1c0,0.1,0,0.1-0.1,0.1C73,82.5,72.8,82.6,72.6,82.6C72.6,82.6,72.6,82.6,72.6,82.6z"/>
	<path fill="#FFFFFF" d="M27.3,76.2C27.2,76.2,27.2,76.1,27.3,76.2c-0.1-0.1-0.1-0.2,0-0.2l0.5,0h0c0.1,0,0.1,0,0.1,0.1
		c0,0.1,0,0.1-0.1,0.1L27.3,76.2C27.3,76.2,27.3,76.2,27.3,76.2z M28.4,76.2C28.3,76.2,28.3,76.1,28.4,76.2c-0.1-0.1-0.1-0.2,0-0.2
		l0.5,0c0,0,0,0,0,0c0.1,0,0.1,0,0.1,0.1c0,0.1,0,0.1-0.1,0.1L28.4,76.2C28.4,76.2,28.4,76.2,28.4,76.2z M40.9,76.2L40.9,76.2
		l-0.5,0c-0.1,0-0.1,0-0.1-0.1c0-0.1,0-0.1,0.1-0.1h0l0.5,0C40.9,76,41,76,40.9,76.2C41,76.1,40.9,76.2,40.9,76.2z M41.4,76.2
		C41.4,76.2,41.3,76.1,41.4,76.2c-0.1-0.1-0.1-0.2,0-0.2c0.2,0,0.4,0,0.5,0c0,0,0.1,0,0.1,0.1c0,0.1,0,0.1-0.1,0.1
		C41.8,76.2,41.6,76.2,41.4,76.2L41.4,76.2z M29.5,76.2C29.4,76.2,29.4,76.1,29.5,76.2c-0.1-0.1-0.1-0.2,0-0.2l0.5,0h0
		c0.1,0,0.1,0,0.1,0.1c0,0.1,0,0.1-0.1,0.1L29.5,76.2C29.5,76.2,29.5,76.2,29.5,76.2z M39.8,76.2L39.8,76.2l-0.5,0
		c-0.1,0-0.1,0-0.1-0.1c0-0.1,0-0.1,0.1-0.1h0l0.5,0C39.9,76,39.9,76,39.8,76.2C39.9,76.1,39.9,76.2,39.8,76.2z M30.6,76.2
		C30.5,76.2,30.5,76.1,30.6,76.2c-0.1-0.1-0.1-0.2,0-0.2l0.5,0h0c0.1,0,0.1,0,0.1,0.1c0,0.1,0,0.1-0.1,0.1L30.6,76.2L30.6,76.2z
		 M38.7,76.2L38.7,76.2l-0.5,0c-0.1,0-0.1,0-0.1-0.1c0-0.1,0-0.1,0.1-0.1h0l0.5,0C38.8,76,38.8,76,38.7,76.2
		C38.8,76.1,38.8,76.2,38.7,76.2z M42.5,76.2C42.5,76.2,42.4,76.1,42.5,76.2c-0.1-0.1-0.1-0.2,0-0.2l0.5,0c0,0,0.1,0,0.1,0.1
		c0,0.1,0,0.1-0.1,0.1L42.5,76.2L42.5,76.2z M31.6,76.1C31.6,76.1,31.6,76.1,31.6,76.1c-0.1-0.1-0.1-0.2,0-0.2l0.5,0h0
		c0.1,0,0.1,0,0.1,0.1c0,0.1,0,0.1-0.1,0.1L31.6,76.1L31.6,76.1z M37.6,76.1L37.6,76.1l-0.5,0c-0.1,0-0.1,0-0.1-0.1
		c0-0.1,0-0.1,0.1-0.1h0l0.5,0C37.7,76,37.7,76,37.6,76.1C37.7,76.1,37.7,76.1,37.6,76.1z M32.7,76.1C32.7,76.1,32.6,76.1,32.7,76.1
		c-0.1-0.1-0.1-0.2,0-0.2l0.5,0h0c0.1,0,0.1,0,0.1,0.1c0,0.1,0,0.1-0.1,0.1L32.7,76.1L32.7,76.1z M36.5,76.1L36.5,76.1l-0.5,0
		c-0.1,0-0.1,0-0.1-0.1c0-0.1,0-0.1,0.1-0.1h0l0.5,0C36.6,75.9,36.6,76,36.5,76.1C36.6,76.1,36.6,76.1,36.5,76.1z M33.8,76.1
		C33.8,76.1,33.7,76.1,33.8,76.1c-0.1-0.1-0.1-0.2,0-0.2l0.5,0l0,0c0.1,0,0.1,0,0.1,0.1c0,0.1,0,0.1-0.1,0.1L33.8,76.1L33.8,76.1z
		 M35.5,76.1L35.5,76.1l-0.5,0c-0.1,0-0.1,0-0.1-0.1c0-0.1,0-0.1,0.1-0.1l0.5,0C35.5,75.9,35.5,76,35.5,76.1
		C35.5,76.1,35.5,76.1,35.5,76.1z M43.6,76.1C43.6,76.1,43.5,76.1,43.6,76.1c-0.1-0.1-0.1-0.2,0-0.2c0.2,0,0.4,0,0.5,0
		c0,0,0.1,0,0.1,0.1c0,0.1,0,0.1-0.1,0.1C44,76.1,43.8,76.1,43.6,76.1C43.6,76.1,43.6,76.1,43.6,76.1z M44.7,76.1
		C44.6,76.1,44.6,76,44.7,76.1c-0.1-0.1-0.1-0.2,0-0.2c0.2,0,0.4,0,0.5,0c0.1,0,0.1,0,0.1,0.1c0,0.1,0,0.1-0.1,0.1
		C45.1,76.1,44.9,76.1,44.7,76.1C44.7,76.1,44.7,76.1,44.7,76.1z M45.8,76C45.7,76,45.7,76,45.8,76c-0.1-0.1-0.1-0.2,0-0.2
		c0.2,0,0.4,0,0.5,0c0,0,0.1,0,0.1,0.1c0,0.1,0,0.1-0.1,0.1C46.1,76,46,76,45.8,76C45.8,76,45.8,76,45.8,76z M46.9,76
		C46.8,76,46.8,75.9,46.9,76c-0.1-0.1-0.1-0.2,0-0.2l0.5,0c0,0,0.1,0,0.1,0.1c0,0.1,0,0.1-0.1,0.1L46.9,76C46.9,76,46.9,76,46.9,76z
		 M47.9,75.9C47.9,75.9,47.8,75.9,47.9,75.9c-0.1-0.1-0.1-0.2,0-0.2l0.5,0c0,0,0.1,0,0.1,0.1c0,0.1,0,0.1-0.1,0.1L47.9,75.9
		C47.9,75.9,47.9,75.9,47.9,75.9z M49,75.8C49,75.8,48.9,75.8,49,75.8c-0.1-0.1-0.1-0.2,0-0.2l0.5,0c0,0,0.1,0,0.1,0.1
		c0,0.1,0,0.1-0.1,0.1L49,75.8C49,75.8,49,75.8,49,75.8z M50.1,75.8C50.1,75.8,50,75.7,50.1,75.8c-0.1-0.1-0.1-0.2,0-0.2
		c0.2,0,0.4,0,0.5,0c0,0,0,0,0,0c0.1,0,0.1,0,0.1,0.1c0,0.1,0,0.1-0.1,0.1C50.5,75.8,50.3,75.8,50.1,75.8
		C50.1,75.8,50.1,75.8,50.1,75.8z M51.2,75.7C51.1,75.7,51.1,75.7,51.2,75.7c-0.1-0.1-0.1-0.2,0-0.2l0.5,0c0,0,0.1,0,0.1,0.1
		c0,0.1,0,0.1-0.1,0.1L51.2,75.7C51.2,75.7,51.2,75.7,51.2,75.7z M52.3,75.7C52.2,75.7,52.2,75.7,52.3,75.7c-0.1-0.1-0.1-0.2,0-0.2
		l0.5,0h0c0.1,0,0.1,0,0.1,0.1c0,0.1,0,0.1-0.1,0.1L52.3,75.7C52.3,75.7,52.3,75.7,52.3,75.7z M53.4,75.7
		C53.3,75.7,53.3,75.6,53.4,75.7c-0.1-0.1-0.1-0.2,0-0.2l0.5,0c0,0,0,0,0,0c0.1,0,0.1,0,0.1,0.1c0,0.1,0,0.1-0.1,0.1L53.4,75.7
		C53.4,75.7,53.4,75.7,53.4,75.7z M54.4,75.7C54.4,75.7,54.4,75.6,54.4,75.7c-0.1-0.1-0.1-0.2,0-0.2l0.5,0h0c0.1,0,0.1,0,0.1,0.1
		c0,0.1,0,0.1-0.1,0.1L54.4,75.7C54.4,75.7,54.4,75.7,54.4,75.7z M55.5,75.6C55.5,75.6,55.4,75.6,55.5,75.6c-0.1-0.1-0.1-0.2,0-0.2
		l0.5,0c0,0,0,0,0,0c0.1,0,0.1,0,0.1,0.1c0,0.1,0,0.1-0.1,0.1L55.5,75.6C55.5,75.6,55.5,75.6,55.5,75.6z M56.6,75.6
		C56.6,75.6,56.5,75.6,56.6,75.6c-0.1-0.1-0.1-0.2,0-0.2l0.5,0c0,0,0,0,0,0c0.1,0,0.1,0,0.1,0.1c0,0.1,0,0.1-0.1,0.1L56.6,75.6
		L56.6,75.6z M57.7,75.6C57.7,75.6,57.6,75.6,57.7,75.6c-0.1-0.1-0.1-0.2,0-0.2l0.5,0c0.1,0,0.1,0,0.1,0.1c0,0.1,0,0.1-0.1,0.1
		L57.7,75.6L57.7,75.6z M58.8,75.6C58.7,75.6,58.7,75.5,58.8,75.6c-0.1-0.1-0.1-0.2,0-0.2l0.5,0c0,0,0,0,0,0c0.1,0,0.1,0,0.1,0.1
		c0,0.1,0,0.1-0.1,0.1L58.8,75.6C58.8,75.6,58.8,75.6,58.8,75.6z M59.9,75.6C59.8,75.6,59.8,75.5,59.9,75.6c-0.1-0.1-0.1-0.2,0-0.2
		l0.5,0h0c0.1,0,0.1,0,0.1,0.1c0,0.1,0,0.1-0.1,0.1L59.9,75.6L59.9,75.6z M61,75.5C60.9,75.5,60.9,75.5,61,75.5
		c-0.1-0.1-0.1-0.2,0-0.2l0.5,0h0c0.1,0,0.1,0,0.1,0.1c0,0.1,0,0.1-0.1,0.1L61,75.5L61,75.5z M62.1,75.5C62,75.5,62,75.5,62.1,75.5
		c-0.1-0.1-0.1-0.2,0-0.2l0.5,0c0.1,0,0.1,0,0.1,0.1c0,0.1,0,0.1-0.1,0.1L62.1,75.5L62.1,75.5z M63.1,75.5
		C63.1,75.5,63,75.4,63.1,75.5c-0.1-0.1-0.1-0.2,0-0.2l0.5,0h0c0.1,0,0.1,0,0.1,0.1c0,0.1,0,0.1-0.1,0.1L63.1,75.5L63.1,75.5z
		 M64.2,75.5C64.2,75.5,64.1,75.4,64.2,75.5c-0.1-0.1-0.1-0.2,0-0.2l0.4,0h0c0.1,0,0.1,0,0.1,0.1c0,0.1,0,0.1-0.1,0.1L64.2,75.5
		C64.2,75.5,64.2,75.5,64.2,75.5z"/>
	<path fill="#FFFFFF" d="M32.4,76.7h-0.1c-0.1,0-0.1,0-0.1-0.1c0-0.1,0-0.1,0.1-0.1l0.5,0l0,0.1v0.1L32.4,76.7z M31.8,76.7
		C31.8,76.7,31.8,76.7,31.8,76.7l-0.5,0c-0.1,0-0.1,0-0.1-0.1c0-0.1,0-0.1,0.1-0.1h0l0.5,0C31.8,76.5,31.9,76.5,31.8,76.7
		C31.9,76.6,31.8,76.7,31.8,76.7z M33.4,76.7C33.4,76.7,33.3,76.6,33.4,76.7c-0.1-0.1-0.1-0.2,0-0.2l0.5,0h0c0.1,0,0.1,0,0.1,0.1
		c0,0.1,0,0.1-0.1,0.1L33.4,76.7C33.4,76.7,33.4,76.7,33.4,76.7z M34.5,76.7C34.4,76.7,34.4,76.6,34.5,76.7c-0.1-0.1-0.1-0.2,0-0.2
		l0.5,0h0c0.1,0,0.1,0,0.1,0.1c0,0.1,0,0.1-0.1,0.1L34.5,76.7L34.5,76.7z M30.7,76.7C30.7,76.7,30.7,76.7,30.7,76.7l-0.5,0
		c-0.1,0-0.1,0-0.1-0.1c0-0.1,0.1-0.1,0.1-0.1l0.5,0C30.7,76.5,30.8,76.5,30.7,76.7C30.8,76.6,30.7,76.7,30.7,76.7z M35.6,76.6
		C35.5,76.6,35.5,76.6,35.6,76.6c-0.1-0.1-0.1-0.2,0-0.2l0.5,0h0c0.1,0,0.1,0,0.1,0.1c0,0.1,0,0.1-0.1,0.1L35.6,76.6L35.6,76.6z
		 M36.7,76.6C36.6,76.6,36.6,76.6,36.7,76.6c-0.1-0.1-0.1-0.2,0-0.2l0.5,0h0c0.1,0,0.1,0,0.1,0.1c0,0.1,0,0.1-0.1,0.1L36.7,76.6
		L36.7,76.6z M37.8,76.6C37.7,76.6,37.7,76.6,37.8,76.6c-0.1-0.1-0.1-0.2,0-0.2l0.5,0h0c0.1,0,0.1,0,0.1,0.1c0,0.1,0,0.1-0.1,0.1
		L37.8,76.6L37.8,76.6z M29.6,76.6L29.6,76.6l-0.5,0c-0.1,0-0.1,0-0.1-0.1c0-0.1,0-0.1,0.1-0.1c0,0,0,0,0,0l0.5,0
		C29.7,76.4,29.7,76.5,29.6,76.6C29.7,76.6,29.7,76.6,29.6,76.6z M38.8,76.6C38.8,76.6,38.8,76.6,38.8,76.6c-0.1-0.1-0.1-0.2,0-0.2
		l0.5,0c0,0,0,0,0,0c0.1,0,0.1,0,0.1,0.1c0,0.1,0,0.1-0.1,0.1L38.8,76.6L38.8,76.6z M39.9,76.6C39.9,76.6,39.8,76.6,39.9,76.6
		c-0.1-0.1-0.1-0.2,0-0.2l0.5,0h0c0.1,0,0.1,0,0.1,0.1c0,0.1,0,0.1-0.1,0.1L39.9,76.6L39.9,76.6z M28.5,76.6
		C28.5,76.6,28.5,76.6,28.5,76.6l-0.5,0c-0.1,0-0.1,0-0.1-0.1c0-0.1,0-0.1,0.1-0.1c0,0,0,0,0,0l0.5,0C28.6,76.4,28.6,76.5,28.5,76.6
		C28.6,76.6,28.6,76.6,28.5,76.6z M41,76.6C41,76.6,40.9,76.6,41,76.6c-0.1-0.1-0.1-0.2,0-0.2l0.5,0h0c0.1,0,0.1,0,0.1,0.1
		c0,0.1,0,0.1-0.1,0.1L41,76.6C41,76.6,41,76.6,41,76.6z M42.1,76.6C42.1,76.6,42,76.5,42.1,76.6c-0.1-0.1-0.1-0.2,0-0.2l0.5,0h0
		c0.1,0,0.1,0,0.1,0.1c0,0.1,0,0.1-0.1,0.1L42.1,76.6L42.1,76.6z M27.4,76.6C27.4,76.6,27.4,76.6,27.4,76.6c-0.2,0-0.4,0-0.5,0
		c-0.1,0-0.1,0-0.1-0.1c0-0.1,0-0.1,0.1-0.1c0.2,0,0.3,0,0.5,0C27.5,76.4,27.5,76.4,27.4,76.6C27.5,76.5,27.5,76.6,27.4,76.6z
		 M43.2,76.6C43.1,76.6,43.1,76.5,43.2,76.6c-0.1-0.1-0.1-0.2,0-0.2l0.5,0c0.1,0,0.1,0,0.1,0.1c0,0.1,0,0.1-0.1,0.1L43.2,76.6
		C43.2,76.6,43.2,76.6,43.2,76.6z M44.3,76.6C44.2,76.6,44.2,76.5,44.3,76.6c-0.1-0.1-0.1-0.2,0-0.2l0.5,0h0c0.1,0,0.1,0,0.1,0.1
		c0,0.1,0,0.1-0.1,0.1L44.3,76.6C44.3,76.6,44.3,76.6,44.3,76.6z M45.4,76.5C45.3,76.5,45.3,76.5,45.4,76.5c-0.1-0.1-0.1-0.2,0-0.2
		l0.5,0h0c0.1,0,0.1,0,0.1,0.1c0,0.1,0,0.1-0.1,0.1L45.4,76.5L45.4,76.5z M46.5,76.5C46.4,76.5,46.4,76.5,46.5,76.5
		c-0.1-0.1-0.1-0.2,0-0.2l0.5,0h0c0.1,0,0.1,0,0.1,0.1c0,0.1,0,0.1-0.1,0.1L46.5,76.5C46.5,76.5,46.5,76.5,46.5,76.5z M47.5,76.5
		C47.5,76.5,47.4,76.5,47.5,76.5c-0.1-0.1-0.1-0.2,0-0.2l0.5,0h0c0.1,0,0.1,0,0.1,0.1c0,0.1,0,0.1-0.1,0.1L47.5,76.5L47.5,76.5z
		 M48.6,76.5C48.6,76.5,48.5,76.4,48.6,76.5c-0.1-0.1-0.1-0.2,0-0.2l0.5,0c0,0,0,0,0,0c0.1,0,0.1,0,0.1,0.1c0,0.1,0,0.1-0.1,0.1
		L48.6,76.5C48.6,76.5,48.6,76.5,48.6,76.5z M49.7,76.5C49.7,76.5,49.6,76.4,49.7,76.5c-0.1-0.1-0.1-0.2,0-0.2l0.5,0c0,0,0,0,0,0
		c0.1,0,0.1,0,0.1,0.1c0,0.1,0,0.1-0.1,0.1L49.7,76.5C49.7,76.5,49.7,76.5,49.7,76.5z M50.8,76.4C50.7,76.4,50.7,76.4,50.8,76.4
		c-0.1-0.1-0.1-0.2,0-0.2l0.5,0h0c0.1,0,0.1,0,0.1,0.1c0,0.1,0,0.1-0.1,0.1L50.8,76.4C50.8,76.4,50.8,76.4,50.8,76.4z M51.9,76.4
		C51.8,76.4,51.8,76.4,51.9,76.4c-0.1-0.1-0.1-0.2,0-0.2l0.5,0c0,0,0,0,0,0c0.1,0,0.1,0,0.1,0.1c0,0.1,0,0.1-0.1,0.1L51.9,76.4
		C51.9,76.4,51.9,76.4,51.9,76.4z M53,76.4C52.9,76.4,52.9,76.3,53,76.4c-0.1-0.1-0.1-0.2,0-0.2l0.5,0c0,0,0,0,0,0
		c0.1,0,0.1,0,0.1,0.1c0,0.1,0,0.1-0.1,0.1L53,76.4C53,76.4,53,76.4,53,76.4z M54.1,76.4C54,76.4,54,76.3,54.1,76.4
		c-0.1-0.1-0.1-0.2,0-0.2l0.5,0c0,0,0,0,0,0c0.1,0,0.1,0,0.1,0.1c0,0.1,0,0.1-0.1,0.1L54.1,76.4C54.1,76.4,54.1,76.4,54.1,76.4z
		 M55.1,76.3C55.1,76.3,55.1,76.3,55.1,76.3c-0.1-0.1-0.1-0.2,0-0.2l0.5,0c0,0,0.1,0,0.1,0.1c0,0.1,0,0.1-0.1,0.1L55.1,76.3
		C55.1,76.3,55.1,76.3,55.1,76.3z M56.2,76.3C56.2,76.3,56.1,76.3,56.2,76.3c-0.1-0.1-0.1-0.2,0-0.2l0.5,0c0,0,0,0,0,0
		c0.1,0,0.1,0,0.1,0.1c0,0.1,0,0.1-0.1,0.1L56.2,76.3C56.2,76.3,56.2,76.3,56.2,76.3z M57.3,76.3C57.3,76.3,57.2,76.2,57.3,76.3
		c-0.1-0.1-0.1-0.2,0-0.2l0.5,0c0.1,0,0.1,0,0.1,0.1c0,0.1,0,0.1-0.1,0.1L57.3,76.3C57.3,76.3,57.3,76.3,57.3,76.3z M58.4,76.2
		C58.4,76.2,58.3,76.2,58.4,76.2c-0.1-0.1-0.1-0.2,0-0.2l0.5,0c0.1,0,0.1,0,0.1,0.1c0,0.1,0,0.1-0.1,0.1L58.4,76.2
		C58.4,76.2,58.4,76.2,58.4,76.2z M59.5,76.2C59.4,76.2,59.4,76.2,59.5,76.2c-0.1-0.1-0.1-0.2,0-0.2l0.5,0c0.1,0,0.1,0,0.1,0.1
		c0,0.1,0,0.1-0.1,0.1L59.5,76.2C59.5,76.2,59.5,76.2,59.5,76.2z M60.6,76.2C60.5,76.2,60.5,76.1,60.6,76.2c-0.1-0.1-0.1-0.2,0-0.2
		l0.5,0c0.1,0,0.1,0,0.1,0.1c0,0.1,0,0.1-0.1,0.1L60.6,76.2C60.6,76.2,60.6,76.2,60.6,76.2z M61.7,76.1
		C61.6,76.1,61.6,76.1,61.7,76.1c-0.1-0.1-0.1-0.2,0-0.2l0.5,0c0.1,0,0.1,0,0.1,0.1c0,0.1,0,0.1-0.1,0.1L61.7,76.1
		C61.7,76.1,61.7,76.1,61.7,76.1z M62.8,76.1C62.7,76.1,62.7,76,62.8,76.1c-0.1-0.1-0.1-0.2,0-0.2l0.5,0c0,0,0,0,0,0
		c0.1,0,0.1,0,0.1,0.1c0,0.1,0,0.1-0.1,0.1L62.8,76.1C62.8,76.1,62.8,76.1,62.8,76.1z M63.8,76C63.8,76,63.7,76,63.8,76
		c-0.1-0.1-0.1-0.2,0-0.2l0.5,0c0.1,0,0.1,0,0.1,0.1c0,0.1,0,0.1-0.1,0.1L63.8,76C63.8,76,63.8,76,63.8,76z"/>
	<path fill="#FFFFFF" d="M18.1,84.1l-0.3,0c-0.1,0-0.1,0-0.1-0.1c0-0.1,0-0.1,0.1-0.1h0l0.3,0l0.3,0h0c0.1,0,0.1,0,0.1,0.1
		c0,0.1,0,0.1-0.1,0.1L18.1,84.1z M18.9,84.1C18.9,84.1,18.8,84,18.9,84.1c-0.1-0.1-0.1-0.2,0-0.2l0.5,0c0,0,0,0,0,0
		c0.1,0,0.1,0,0.1,0.1c0,0.1,0,0.1-0.1,0.1L18.9,84.1L18.9,84.1z M20,84C20,84,19.9,84,20,84c-0.1-0.1-0.1-0.2,0-0.2l0.5,0h0
		c0.1,0,0.1,0,0.1,0.1c0,0.1,0,0.1-0.1,0.1L20,84L20,84z M21.1,84C21.1,84,21,84,21.1,84c-0.1-0.1-0.1-0.2,0-0.2l0.5,0
		c0.1,0,0.1,0,0.1,0.1c0,0.1,0,0.1-0.1,0.1L21.1,84C21.1,84,21.1,84,21.1,84z M22.2,84C22.1,84,22.1,84,22.2,84
		c-0.1-0.1-0.1-0.2,0-0.2l0.5,0h0c0.1,0,0.1,0,0.1,0.1c0,0.1,0,0.1-0.1,0.1L22.2,84L22.2,84z M23.3,84C23.2,84,23.2,84,23.3,84
		c-0.1-0.1-0.1-0.2,0-0.2c0.2,0,0.4,0,0.5,0h0c0.1,0,0.1,0,0.1,0.1c0,0.1,0,0.1-0.1,0.1C23.6,84,23.5,84,23.3,84
		C23.3,84,23.3,84,23.3,84z"/>
	<path fill="#FFFFFF" d="M29,87.1h-0.5c-0.1,0-0.1,0-0.1-0.1c0-0.1,0-0.1,0.1-0.1H29C29,86.9,29.1,86.9,29,87.1
		C29.1,87,29,87.1,29,87.1z M27.9,87.1h-0.5c-0.1,0-0.1,0-0.1-0.1c0-0.1,0-0.1,0.1-0.1h0.5C27.9,86.9,28,86.9,27.9,87.1
		C28,87,27.9,87.1,27.9,87.1z M26.8,87.1h-0.5c-0.1,0-0.1,0-0.1-0.1c0-0.1,0-0.1,0.1-0.1h0.5C26.9,86.9,26.9,86.9,26.8,87.1
		C26.9,87,26.9,87.1,26.8,87.1z M29.5,87.1C29.5,87.1,29.4,87,29.5,87.1c-0.1-0.1-0.1-0.2,0-0.2c0.2,0,0.3,0,0.5,0h0
		c0.1,0,0.1,0,0.1,0.1c0,0.1,0,0.1-0.1,0.1C29.9,87.1,29.7,87.1,29.5,87.1L29.5,87.1z M30.6,87.1C30.6,87.1,30.5,87,30.6,87.1
		c-0.1-0.1-0.1-0.2,0-0.2l0.5,0c0.1,0,0.1,0,0.1,0.1c0,0.1,0,0.1-0.1,0.1L30.6,87.1L30.6,87.1z M31.7,87.1
		C31.7,87.1,31.6,87,31.7,87.1c-0.1-0.1-0.1-0.2,0-0.2l0.5,0c0,0,0,0,0,0c0.1,0,0.1,0,0.1,0.1c0,0.1,0,0.1-0.1,0.1L31.7,87.1
		L31.7,87.1z M32.8,87C32.8,87,32.7,87,32.8,87c-0.1-0.1-0.1-0.2,0-0.2l0.5,0h0c0.1,0,0.1,0,0.1,0.1c0,0.1,0,0.1-0.1,0.1L32.8,87
		C32.8,87,32.8,87,32.8,87z M36.7,87L36.7,87c-0.2,0-0.4,0-0.5,0c-0.1,0-0.1,0-0.1-0.1c0-0.1,0-0.1,0.1-0.1c0,0,0,0,0,0
		c0.2,0,0.3,0,0.5,0C36.7,86.8,36.8,86.9,36.7,87C36.8,87,36.7,87,36.7,87z M37.2,87C37.2,87,37.1,87,37.2,87
		c-0.1-0.1-0.1-0.2,0-0.2c0.1,0,0.3,0,0.5,0c0,0,0,0,0,0c0.1,0,0.1,0,0.1,0.1c0,0.1,0,0.1-0.1,0.1C37.5,87,37.4,87,37.2,87
		C37.2,87,37.2,87,37.2,87z M33.9,87C33.9,87,33.8,87,33.9,87c-0.1-0.1-0.1-0.2,0-0.2l0.5,0l0,0c0.1,0,0.1,0,0.1,0.1
		c0,0.1,0,0.1-0.1,0.1L33.9,87L33.9,87z M35.6,87L35.6,87c-0.1,0-0.3,0-0.5,0c-0.1,0-0.1,0-0.1-0.1c0-0.1,0-0.1,0.1-0.1l0,0
		c0.2,0,0.4,0,0.5,0C35.6,86.8,35.7,86.9,35.6,87C35.7,87,35.6,87,35.6,87z M38.3,87C38.3,87,38.2,87,38.3,87
		c-0.1-0.1-0.1-0.2,0-0.2l0.5,0c0,0,0,0,0,0c0.1,0,0.1,0,0.1,0.1c0,0.1,0,0.1-0.1,0.1L38.3,87L38.3,87z M39.4,87
		C39.4,87,39.3,86.9,39.4,87c-0.1-0.1-0.1-0.2,0-0.2l0.5,0c0.1,0,0.1,0,0.1,0.1c0,0.1,0,0.1-0.1,0.1L39.4,87
		C39.4,87,39.4,87,39.4,87z M40.5,87C40.5,87,40.4,86.9,40.5,87c-0.1-0.1-0.1-0.2,0-0.2l0.5,0c0.1,0,0.1,0,0.1,0.1
		c0,0.1,0,0.1-0.1,0.1L40.5,87C40.5,87,40.5,87,40.5,87z M41.6,86.9C41.6,86.9,41.5,86.9,41.6,86.9c-0.1-0.1-0.1-0.2,0-0.2
		c0.2,0,0.3,0,0.5,0h0c0.1,0,0.1,0,0.1,0.1c0,0.1,0,0.1-0.1,0.1C41.9,86.9,41.8,86.9,41.6,86.9L41.6,86.9z M44.3,86.9L44.3,86.9
		c-0.2,0-0.4,0-0.5,0c-0.1,0-0.1,0-0.1-0.1c0-0.1,0-0.1,0.1-0.1l0,0c0.2,0,0.4,0,0.5,0C44.4,86.7,44.4,86.8,44.3,86.9
		C44.4,86.9,44.4,86.9,44.3,86.9z M42.7,86.9C42.6,86.9,42.6,86.9,42.7,86.9c-0.1-0.1-0.1-0.2,0-0.2c0.2,0,0.4,0,0.6,0l0,0
		c0.1,0,0.1,0,0.1,0.1c0,0.1,0,0.1-0.1,0.1C43.1,86.9,42.9,86.9,42.7,86.9L42.7,86.9z"/>
	<path fill="#FFFFFF" d="M50.1,86.9h-0.5c-0.1,0-0.1,0-0.1-0.1c0-0.1,0-0.1,0.1-0.1h0.5C50.2,86.7,50.2,86.8,50.1,86.9
		C50.2,86.9,50.2,86.9,50.1,86.9z M49.1,86.9h-0.5c-0.1,0-0.1,0-0.1-0.1c0-0.1,0-0.1,0.1-0.1h0.5C49.1,86.7,49.2,86.8,49.1,86.9
		C49.2,86.9,49.1,86.9,49.1,86.9z M48,86.9h-0.5c-0.1,0-0.1,0-0.1-0.1c0-0.1,0-0.1,0.1-0.1H48C48,86.7,48.1,86.8,48,86.9
		C48.1,86.9,48,86.9,48,86.9z M50.7,86.9C50.6,86.9,50.6,86.9,50.7,86.9c-0.1-0.1-0.1-0.2,0-0.2c0.2,0,0.3,0,0.5,0h0
		c0.1,0,0.1,0,0.1,0.1c0,0.1,0,0.1-0.1,0.1C51,86.9,50.9,86.9,50.7,86.9L50.7,86.9z M51.8,86.9C51.7,86.9,51.7,86.9,51.8,86.9
		c-0.1-0.1-0.1-0.2,0-0.2l0.5,0h0c0.1,0,0.1,0,0.1,0.1c0,0.1,0,0.1-0.1,0.1L51.8,86.9L51.8,86.9z M52.9,86.9
		C52.8,86.9,52.8,86.8,52.9,86.9c-0.1-0.1-0.1-0.2,0-0.2l0.5,0c0.1,0,0.1,0,0.1,0.1c0,0.1,0,0.1-0.1,0.1L52.9,86.9
		C52.9,86.9,52.9,86.9,52.9,86.9z M53.9,86.9C53.9,86.9,53.9,86.8,53.9,86.9c-0.1-0.1-0.1-0.2,0-0.2l0.5,0h0c0.1,0,0.1,0,0.1,0.1
		c0,0.1,0,0.1-0.1,0.1L53.9,86.9L53.9,86.9z M57.7,86.9L57.7,86.9c-0.2,0-0.4,0-0.5,0c-0.1,0-0.1,0-0.1-0.1c0-0.1,0-0.1,0.1-0.1h0
		c0.2,0,0.3,0,0.5,0C57.8,86.7,57.8,86.7,57.7,86.9C57.8,86.8,57.8,86.9,57.7,86.9z M58.3,86.9C58.2,86.9,58.2,86.8,58.3,86.9
		c-0.1-0.1-0.1-0.2,0-0.2c0.1,0,0.3,0,0.5,0c0,0,0.1,0,0.1,0.1c0,0.1,0,0.1-0.1,0.1C58.6,86.9,58.4,86.9,58.3,86.9L58.3,86.9z
		 M55,86.9C55,86.9,54.9,86.8,55,86.9c-0.1-0.1-0.1-0.2,0-0.2l0.5,0l0,0c0.1,0,0.1,0,0.1,0.1c0,0.1,0,0.1-0.1,0.1L55,86.9L55,86.9z
		 M56.7,86.9L56.7,86.9c-0.1,0-0.3,0-0.5,0c-0.1,0-0.1,0-0.1-0.1c0-0.1,0-0.1,0.1-0.1l0,0c0.2,0,0.4,0,0.5,0
		C56.7,86.7,56.8,86.7,56.7,86.9C56.8,86.8,56.7,86.9,56.7,86.9z M59.4,86.8C59.3,86.8,59.3,86.8,59.4,86.8c-0.1-0.1-0.1-0.2,0-0.2
		l0.5,0c0,0,0,0,0,0c0.1,0,0.1,0,0.1,0.1c0,0.1,0,0.1-0.1,0.1L59.4,86.8C59.4,86.8,59.4,86.8,59.4,86.8z M60.5,86.8
		C60.4,86.8,60.4,86.8,60.5,86.8c-0.1-0.1-0.1-0.2,0-0.2l0.5,0c0,0,0.1,0,0.1,0.1c0,0.1,0,0.1-0.1,0.1L60.5,86.8
		C60.5,86.8,60.5,86.8,60.5,86.8z M61.5,86.8C61.5,86.8,61.5,86.8,61.5,86.8c-0.1-0.1-0.1-0.2,0-0.2l0.5,0c0,0,0.1,0,0.1,0.1
		c0,0.1,0,0.1-0.1,0.1L61.5,86.8L61.5,86.8z M62.6,86.8C62.6,86.8,62.5,86.7,62.6,86.8c-0.1-0.1-0.1-0.2,0-0.2c0.2,0,0.3,0,0.5,0h0
		c0.1,0,0.1,0,0.1,0.1c0,0.1,0,0.1-0.1,0.1C63,86.8,62.9,86.8,62.6,86.8C62.6,86.8,62.6,86.8,62.6,86.8z M65.3,86.8L65.3,86.8
		c-0.2,0-0.3,0-0.5,0c-0.1,0-0.1,0-0.1-0.1c0-0.1,0-0.1,0.1-0.1l0,0c0.2,0,0.4,0,0.5,0C65.4,86.6,65.4,86.6,65.3,86.8
		C65.4,86.7,65.4,86.8,65.3,86.8z M63.7,86.8C63.7,86.8,63.6,86.7,63.7,86.8c-0.1-0.1-0.1-0.2,0-0.2c0.2,0,0.4,0,0.5,0l0,0
		c0.1,0,0.1,0,0.1,0.1c0,0.1,0,0.1-0.1,0.1C64.1,86.8,63.9,86.8,63.7,86.8L63.7,86.8z"/>
	<path fill="#FFFFFF" d="M29,85.4h-0.5c-0.1,0-0.1,0-0.1-0.1c0-0.1,0-0.1,0.1-0.1H29C29,85.2,29.1,85.3,29,85.4
		C29.1,85.4,29,85.4,29,85.4z M27.9,85.4h-0.5c-0.1,0-0.1,0-0.1-0.1c0-0.1,0-0.1,0.1-0.1h0.5C27.9,85.2,28,85.3,27.9,85.4
		C28,85.4,27.9,85.4,27.9,85.4z M26.8,85.4h-0.5c-0.1,0-0.1,0-0.1-0.1c0-0.1,0-0.1,0.1-0.1h0.5C26.9,85.2,26.9,85.3,26.8,85.4
		C26.9,85.4,26.9,85.4,26.8,85.4z M29.5,85.4C29.5,85.4,29.4,85.4,29.5,85.4c-0.1-0.1-0.1-0.2,0-0.2c0.2,0,0.3,0,0.5,0h0
		c0.1,0,0.1,0,0.1,0.1c0,0.1,0,0.1-0.1,0.1C29.9,85.4,29.7,85.4,29.5,85.4L29.5,85.4z M30.6,85.4C30.6,85.4,30.5,85.4,30.6,85.4
		c-0.1-0.1-0.1-0.2,0-0.2l0.5,0h0c0.1,0,0.1,0,0.1,0.1c0,0.1,0,0.1-0.1,0.1L30.6,85.4L30.6,85.4z M31.7,85.4
		C31.7,85.4,31.6,85.4,31.7,85.4c-0.1-0.1-0.1-0.2,0-0.2l0.5,0c0.1,0,0.1,0,0.1,0.1c0,0.1,0,0.1-0.1,0.1L31.7,85.4L31.7,85.4z
		 M32.8,85.4C32.8,85.4,32.7,85.3,32.8,85.4c-0.1-0.1-0.1-0.2,0-0.2l0.5,0h0c0.1,0,0.1,0,0.1,0.1c0,0.1,0,0.1-0.1,0.1L32.8,85.4
		C32.8,85.4,32.8,85.4,32.8,85.4z M36.7,85.4c-0.2,0-0.4,0-0.5,0c-0.1,0-0.1,0-0.1-0.1c0-0.1,0-0.1,0.1-0.1c0,0,0,0,0,0
		c0.2,0,0.3,0,0.5,0C36.7,85.2,36.8,85.2,36.7,85.4C36.8,85.3,36.7,85.4,36.7,85.4z M37.2,85.4C37.2,85.4,37.1,85.3,37.2,85.4
		c-0.1-0.1-0.1-0.2,0-0.2c0.1,0,0.3,0,0.5,0c0,0,0,0,0,0c0.1,0,0.1,0,0.1,0.1c0,0.1,0,0.1-0.1,0.1C37.5,85.4,37.4,85.4,37.2,85.4
		C37.2,85.4,37.2,85.4,37.2,85.4z M33.9,85.4C33.9,85.4,33.8,85.3,33.9,85.4c-0.1-0.1-0.1-0.2,0-0.2l0.5,0l0,0c0.1,0,0.1,0,0.1,0.1
		c0,0.1,0,0.1-0.1,0.1L33.9,85.4L33.9,85.4z M35.6,85.4C35.6,85.4,35.6,85.4,35.6,85.4c-0.1,0-0.3,0-0.5,0c-0.1,0-0.1,0-0.1-0.1
		c0-0.1,0-0.1,0.1-0.1l0,0c0.2,0,0.4,0,0.5,0C35.6,85.2,35.7,85.2,35.6,85.4C35.7,85.3,35.6,85.4,35.6,85.4z M38.3,85.4
		C38.3,85.4,38.2,85.3,38.3,85.4c-0.1-0.1-0.1-0.2,0-0.2l0.5,0c0,0,0,0,0,0c0.1,0,0.1,0,0.1,0.1c0,0.1,0,0.1-0.1,0.1L38.3,85.4
		C38.3,85.4,38.3,85.4,38.3,85.4z M39.4,85.3C39.4,85.3,39.3,85.3,39.4,85.3c-0.1-0.1-0.1-0.2,0-0.2l0.5,0c0.1,0,0.1,0,0.1,0.1
		c0,0.1,0,0.1-0.1,0.1L39.4,85.3C39.4,85.3,39.4,85.3,39.4,85.3z M40.5,85.3C40.5,85.3,40.4,85.3,40.5,85.3c-0.1-0.1-0.1-0.2,0-0.2
		l0.5,0c0.1,0,0.1,0,0.1,0.1c0,0.1,0,0.1-0.1,0.1L40.5,85.3C40.5,85.3,40.5,85.3,40.5,85.3z M41.6,85.3
		C41.6,85.3,41.5,85.2,41.6,85.3c-0.1-0.1-0.1-0.2,0-0.2c0.2,0,0.3,0,0.5,0c0,0,0,0,0,0c0.1,0,0.1,0,0.1,0.1c0,0.1,0,0.1-0.1,0.1
		C41.9,85.3,41.8,85.3,41.6,85.3C41.6,85.3,41.6,85.3,41.6,85.3z M44.3,85.3L44.3,85.3c-0.2,0-0.4,0-0.5,0c-0.1,0-0.1,0-0.1-0.1
		s0-0.1,0.1-0.1l0,0c0.2,0,0.4,0,0.5,0C44.4,85.1,44.4,85.1,44.3,85.3C44.4,85.2,44.4,85.3,44.3,85.3z M42.7,85.3
		C42.6,85.3,42.6,85.2,42.7,85.3c-0.1-0.1-0.1-0.2,0-0.2c0.2,0,0.4,0,0.6,0l0,0c0.1,0,0.1,0,0.1,0.1c0,0.1,0,0.1-0.1,0.1
		C43.1,85.3,42.9,85.3,42.7,85.3L42.7,85.3z"/>
	<path fill="#FFFFFF" d="M50.1,85.2h-0.5c-0.1,0-0.1,0-0.1-0.1c0-0.1,0-0.1,0.1-0.1h0.5C50.2,85,50.2,85.1,50.1,85.2
		C50.2,85.2,50.2,85.2,50.1,85.2z M49,85.2h-0.5c-0.1,0-0.1,0-0.1-0.1c0-0.1,0-0.1,0.1-0.1H49C49.1,85,49.1,85.1,49,85.2
		C49.1,85.2,49.1,85.2,49,85.2z M47.9,85.2h-0.5c-0.1,0-0.1,0-0.1-0.1c0-0.1,0-0.1,0.1-0.1h0.5C48,85,48,85.1,47.9,85.2
		C48,85.2,48,85.2,47.9,85.2z M50.7,85.2C50.6,85.2,50.6,85.2,50.7,85.2c-0.1-0.1-0.1-0.2,0-0.2c0.2,0,0.3,0,0.5,0h0
		c0.1,0,0.1,0,0.1,0.1c0,0.1,0,0.1-0.1,0.1C51,85.2,50.8,85.2,50.7,85.2L50.7,85.2z M51.7,85.2C51.7,85.2,51.6,85.1,51.7,85.2
		c-0.1-0.1-0.1-0.2,0-0.2l0.5,0h0c0.1,0,0.1,0,0.1,0.1c0,0.1,0,0.1-0.1,0.1L51.7,85.2C51.7,85.2,51.7,85.2,51.7,85.2z M52.8,85.2
		C52.8,85.2,52.7,85.1,52.8,85.2c-0.1-0.1-0.1-0.2,0-0.2l0.5,0c0,0,0,0,0,0c0.1,0,0.1,0,0.1,0.1c0,0.1,0,0.1-0.1,0.1L52.8,85.2
		L52.8,85.2z M53.9,85.2C53.9,85.2,53.8,85.1,53.9,85.2c-0.1-0.1-0.1-0.2,0-0.2l0.5,0h0c0.1,0,0.1,0,0.1,0.1c0,0.1,0,0.1-0.1,0.1
		L53.9,85.2L53.9,85.2z M57.7,85.2L57.7,85.2c-0.2,0-0.4,0-0.5,0c-0.1,0-0.1,0-0.1-0.1c0-0.1,0-0.1,0.1-0.1c0.2,0,0.3,0,0.5,0
		C57.8,85,57.8,85,57.7,85.2C57.8,85.1,57.8,85.2,57.7,85.2z M58.3,85.2C58.2,85.2,58.2,85.1,58.3,85.2c-0.1-0.1-0.1-0.2,0-0.2
		c0.1,0,0.3,0,0.5,0c0,0,0,0,0,0c0.1,0,0.1,0,0.1,0.1c0,0.1,0,0.1-0.1,0.1C58.6,85.2,58.4,85.2,58.3,85.2L58.3,85.2z M55,85.2
		C54.9,85.2,54.9,85.1,55,85.2C54.9,85,54.9,85,55,85l0.5,0l0,0c0.1,0,0.1,0,0.1,0.1c0,0.1,0,0.1-0.1,0.1L55,85.2L55,85.2z
		 M56.6,85.2L56.6,85.2c-0.1,0-0.3,0-0.5,0c-0.1,0-0.1,0-0.1-0.1c0-0.1,0-0.1,0.1-0.1l0,0c0.2,0,0.4,0,0.5,0
		C56.7,85,56.7,85,56.6,85.2C56.7,85.1,56.7,85.2,56.6,85.2z M59.3,85.1C59.3,85.1,59.2,85.1,59.3,85.1c-0.1-0.1-0.1-0.2,0-0.2
		l0.5,0c0,0,0,0,0,0c0.1,0,0.1,0,0.1,0.1c0,0.1,0,0.1-0.1,0.1L59.3,85.1C59.3,85.1,59.3,85.1,59.3,85.1z M60.4,85.1
		C60.4,85.1,60.3,85.1,60.4,85.1c-0.1-0.1-0.1-0.2,0-0.2l0.5,0c0,0,0,0,0,0c0.1,0,0.1,0,0.1,0.1c0,0.1,0,0.1-0.1,0.1L60.4,85.1
		L60.4,85.1z M61.5,85.1C61.5,85.1,61.4,85,61.5,85.1c-0.1-0.1-0.1-0.2,0-0.2l0.5,0c0,0,0,0,0,0c0.1,0,0.1,0,0.1,0.1
		c0,0.1,0,0.1-0.1,0.1L61.5,85.1C61.5,85.1,61.5,85.1,61.5,85.1z M62.6,85.1C62.5,85.1,62.5,85,62.6,85.1c-0.1-0.1-0.1-0.2,0-0.2
		c0.2,0,0.3,0,0.5,0c0,0,0,0,0,0c0.1,0,0.1,0,0.1,0.1c0,0.1,0,0.1-0.1,0.1C62.9,85.1,62.8,85.1,62.6,85.1
		C62.6,85.1,62.6,85.1,62.6,85.1z M65.3,85L65.3,85c-0.2,0-0.3,0-0.5,0c-0.1,0-0.1,0-0.1-0.1c0-0.1,0-0.1,0.1-0.1l0,0
		c0.2,0,0.4,0,0.5,0C65.4,84.9,65.4,84.9,65.3,85C65.4,85,65.4,85,65.3,85z M63.7,85C63.6,85,63.6,85,63.7,85
		c-0.1-0.1-0.1-0.2,0-0.2c0.2,0,0.4,0,0.5,0l0,0c0.1,0,0.1,0,0.1,0.1c0,0.1,0,0.1-0.1,0.1C64.1,85,63.9,85,63.7,85L63.7,85z"/>
	<path fill="#FFFFFF" d="M45.1,87C45.1,87,45,87,45.1,87C45,86.8,45,86.7,45,86.6c0-0.1,0-0.1,0.1-0.1c0,0,0.1,0,0.1,0.1
		c0,0.1,0,0.3,0,0.4C45.2,87,45.2,87,45.1,87C45.1,87,45.1,87,45.1,87z M45.1,86.1C45,86.1,45,86.1,45.1,86.1
		C45,85.9,45,85.7,45,85.5c0-0.1,0-0.1,0.1-0.1c0.1,0,0.1,0,0.1,0.1C45.2,85.7,45.2,85.8,45.1,86.1C45.2,86.1,45.1,86.1,45.1,86.1
		C45.1,86.1,45.1,86.1,45.1,86.1z M45.1,85C45,85,45,85,45.1,85C45,84.8,45,84.6,45,84.4c0-0.1,0-0.1,0.1-0.1c0.1,0,0.1,0,0.1,0.1
		C45.2,84.6,45.2,84.8,45.1,85C45.2,85,45.1,85,45.1,85L45.1,85z M45.1,83.9C45.1,83.9,45.1,83.9,45.1,83.9
		C45,83.9,45,83.9,45.1,83.9L45,83.3c0-0.1,0-0.1,0.1-0.1h0c0.1,0,0.1,0,0.1,0.1L45.1,83.9C45.2,83.9,45.1,83.9,45.1,83.9z
		 M45.1,82.8L45.1,82.8C45,82.8,45,82.8,45.1,82.8L45,82.2c0-0.1,0-0.1,0.1-0.1h0c0.1,0,0.1,0,0.1,0.1L45.1,82.8
		C45.2,82.8,45.1,82.8,45.1,82.8z M45.1,81.7C45.1,81.7,45.1,81.7,45.1,81.7C45,81.7,45,81.7,45.1,81.7L45,81.1c0-0.1,0-0.1,0.1-0.1
		h0c0.1,0,0.1,0,0.1,0.1L45.1,81.7C45.2,81.7,45.1,81.7,45.1,81.7z M45.1,80.6C45.1,80.6,45.1,80.6,45.1,80.6
		C45,80.6,45,80.6,45.1,80.6L45,80c0-0.1,0-0.1,0.1-0.1c0.1,0,0.1,0,0.1,0.1L45.1,80.6C45.2,80.6,45.1,80.6,45.1,80.6z M45.1,79.5
		L45.1,79.5C45,79.5,45,79.5,45.1,79.5L45,78.9c0-0.1,0-0.1,0.1-0.1h0c0.1,0,0.1,0,0.1,0.1L45.1,79.5C45.2,79.5,45.2,79.5,45.1,79.5
		z M45.1,78.4C45.1,78.4,45.1,78.4,45.1,78.4C45.1,78.4,45,78.4,45.1,78.4L45,77.8c0-0.1,0-0.1,0.1-0.1c0,0,0,0,0,0
		c0.1,0,0.1,0,0.1,0.1v0L45.1,78.4C45.2,78.4,45.2,78.4,45.1,78.4z M45.1,77.3C45.1,77.3,45.1,77.3,45.1,77.3
		C45.1,77.3,45,77.3,45.1,77.3L45,76.7c0-0.1,0-0.1,0.1-0.1h0c0.1,0,0.1,0,0.1,0.1L45.1,77.3C45.2,77.3,45.2,77.3,45.1,77.3z
		 M45.1,76.2L45.1,76.2C45.1,76.2,45.1,76.2,45.1,76.2l-0.1-0.6c0-0.1,0-0.1,0.1-0.1c0.1,0,0.1,0,0.1,0.1L45.1,76.2
		C45.2,76.2,45.2,76.2,45.1,76.2z"/>
	<path fill="#FFFFFF" d="M47.5,87.3C47.4,87.3,47.4,87.3,47.5,87.3c-0.1-0.2-0.1-0.3-0.1-0.5c0-0.1,0-0.1,0.1-0.1c0,0,0,0,0,0
		c0.1,0,0.1,0,0.1,0.1c0,0.1,0,0.3,0,0.4C47.6,87.2,47.5,87.3,47.5,87.3C47.5,87.3,47.5,87.3,47.5,87.3z M47.4,86.4
		C47.4,86.4,47.4,86.3,47.4,86.4c-0.1-0.3-0.1-0.4-0.1-0.6c0-0.1,0-0.1,0.1-0.1h0c0.1,0,0.1,0,0.1,0.1
		C47.5,85.9,47.5,86.1,47.4,86.4C47.5,86.3,47.5,86.4,47.4,86.4C47.4,86.4,47.4,86.4,47.4,86.4z M47.4,85.3
		C47.4,85.3,47.3,85.2,47.4,85.3c-0.1-0.2-0.1-0.4-0.1-0.6c0-0.1,0-0.1,0.1-0.1c0.1,0,0.1,0,0.1,0.1C47.5,84.9,47.5,85,47.4,85.3
		C47.5,85.2,47.5,85.3,47.4,85.3L47.4,85.3z M47.4,84.2C47.4,84.2,47.4,84.2,47.4,84.2C47.4,84.2,47.3,84.1,47.4,84.2l-0.1-0.6
		c0-0.1,0-0.1,0.1-0.1h0c0.1,0,0.1,0,0.1,0.1L47.4,84.2C47.5,84.1,47.5,84.2,47.4,84.2z M47.4,83.1L47.4,83.1
		C47.4,83.1,47.3,83,47.4,83.1c-0.1-0.3-0.1-0.5-0.1-0.6c0-0.1,0-0.1,0.1-0.1c0,0,0.1,0,0.1,0.1C47.5,82.6,47.5,82.8,47.4,83.1
		C47.5,83,47.5,83.1,47.4,83.1z M47.4,82C47.4,82,47.4,82,47.4,82C47.4,82,47.3,81.9,47.4,82l-0.1-0.6c0-0.1,0-0.1,0.1-0.1h0
		c0.1,0,0.1,0,0.1,0.1L47.4,82C47.5,81.9,47.5,82,47.4,82z M47.4,80.9C47.4,80.9,47.4,80.9,47.4,80.9C47.4,80.9,47.4,80.8,47.4,80.9
		l-0.1-0.6c0-0.1,0-0.1,0.1-0.1c0.1,0,0.1,0,0.1,0.1L47.4,80.9C47.5,80.8,47.5,80.9,47.4,80.9z M47.5,79.8L47.5,79.8
		C47.4,79.8,47.4,79.7,47.5,79.8l-0.1-0.6c0-0.1,0-0.1,0.1-0.1h0c0.1,0,0.1,0,0.1,0.1L47.5,79.8C47.6,79.7,47.5,79.8,47.5,79.8z
		 M47.5,78.7L47.5,78.7C47.4,78.7,47.4,78.6,47.5,78.7l-0.1-0.6c0-0.1,0-0.1,0.1-0.1h0c0.1,0,0.1,0,0.1,0.1v0L47.5,78.7
		C47.6,78.6,47.5,78.7,47.5,78.7z M47.5,77.6C47.5,77.6,47.5,77.6,47.5,77.6C47.4,77.6,47.4,77.5,47.5,77.6l-0.1-0.6
		c0-0.1,0-0.1,0.1-0.1c0.1,0,0.1,0,0.1,0.1L47.5,77.6C47.6,77.5,47.5,77.6,47.5,77.6z M47.5,76.5C47.5,76.5,47.5,76.5,47.5,76.5
		C47.5,76.5,47.4,76.4,47.5,76.5l-0.1-0.6c0-0.1,0-0.1,0.1-0.1h0c0.1,0,0.1,0,0.1,0.1L47.5,76.5C47.6,76.5,47.6,76.5,47.5,76.5z"/>
	<path fill="#6595CB" d="M37.5,65.1c0.6,1.3,1.7,3.2,3.5,5.1c1.9,2,3.8,3.1,5.1,3.8c-1.2,1.7-2.4,3.3-3.6,5
		c-2.2-3.1-4.3-6.2-6.5-9.3C36.5,68.2,37,66.7,37.5,65.1z"/>
	<path fill="#6595CB" d="M54,64.9c-0.8,1.4-1.9,3.1-3.5,4.9c-1.7,1.9-3.4,3.3-4.8,4.3c1.3,1.6,2.5,3.2,3.8,4.8
		c2-3.2,4.1-6.4,6.1-9.5C55.1,67.9,54.5,66.4,54,64.9z"/>
	<path fill="#FFFFFF" d="M42.4,78.4L42.1,78c0,0,0-0.1,0-0.1c0,0,0.1,0,0.1,0l0.2,0.3c0,0,0.1,0,0.1,0c0,0,0.1,0.1,0,0.1L42.4,78.4z
		 M42.8,77.8C42.8,77.8,42.8,77.8,42.8,77.8c-0.1-0.1-0.1-0.1-0.1-0.2l0.3-0.4c0,0,0.1-0.1,0.1,0c0,0,0.1,0.1,0,0.1L42.8,77.8
		C42.9,77.8,42.9,77.8,42.8,77.8z M41.9,77.5C41.8,77.5,41.8,77.5,41.9,77.5l-0.4-0.5c0,0,0-0.1,0-0.1c0,0,0.1,0,0.1,0l0.3,0.4
		C42,77.4,42,77.5,41.9,77.5C41.9,77.5,41.9,77.5,41.9,77.5z M43.5,76.9C43.5,76.9,43.4,76.9,43.5,76.9c-0.1-0.1-0.1-0.1-0.1-0.2
		l0.3-0.4c0,0,0.1,0,0.1,0c0,0,0.1,0.1,0,0.1L43.5,76.9C43.5,76.9,43.5,76.9,43.5,76.9z M41.2,76.7C41.2,76.7,41.2,76.6,41.2,76.7
		l-0.4-0.5c0,0,0-0.1,0-0.1c0,0,0.1,0,0.1,0l0.3,0.4C41.3,76.6,41.3,76.6,41.2,76.7C41.3,76.7,41.2,76.7,41.2,76.7z M44.1,76.1
		C44.1,76.1,44.1,76.1,44.1,76.1C44,76,44,76,44.1,75.9l0.3-0.4c0,0,0.1-0.1,0.1,0c0,0,0.1,0.1,0,0.1L44.1,76.1
		C44.2,76.1,44.2,76.1,44.1,76.1z M40.6,75.8C40.5,75.8,40.5,75.8,40.6,75.8c-0.2-0.2-0.3-0.3-0.4-0.5c0,0,0-0.1,0-0.1
		c0,0,0.1,0,0.1,0c0.1,0.1,0.2,0.3,0.3,0.4C40.7,75.7,40.7,75.7,40.6,75.8C40.6,75.8,40.6,75.8,40.6,75.8z M44.8,75.2
		C44.8,75.2,44.7,75.2,44.8,75.2c-0.1-0.1-0.1-0.1-0.1-0.2l0.3-0.4c0,0,0.1-0.1,0.1,0c0,0,0.1,0.1,0,0.1L44.8,75.2
		C44.8,75.2,44.8,75.2,44.8,75.2z M39.9,74.9C39.9,74.9,39.9,74.9,39.9,74.9l-0.4-0.5c0,0,0-0.1,0-0.1c0,0,0.1,0,0.1,0l0.3,0.4
		C40,74.8,40,74.8,39.9,74.9C40,74.9,40,74.9,39.9,74.9z M45.4,74.3C45.4,74.3,45.4,74.3,45.4,74.3c-0.1-0.1-0.1-0.1-0.1-0.2
		l0.1-0.1c0,0,0.1-0.1,0.1,0c0,0,0.1,0.1,0,0.1L45.4,74.3C45.5,74.3,45.5,74.3,45.4,74.3z M39.3,74C39.3,74,39.2,74,39.3,74
		l-0.4-0.5l0.1-0.1l0.1-0.1L39,73.4l0.1,0l0.3,0.4C39.4,73.9,39.4,73.9,39.3,74C39.3,74,39.3,74,39.3,74z M38.7,73.1
		C38.6,73.1,38.6,73.1,38.7,73.1l-0.4-0.5c0,0,0-0.1,0-0.1c0,0,0.1,0,0.1,0l0.3,0.4C38.8,73,38.8,73,38.7,73.1
		C38.7,73.1,38.7,73.1,38.7,73.1z M38,72.2C38,72.2,38,72.2,38,72.2l-0.4-0.5c0,0,0-0.1,0-0.1c0,0,0.1,0,0.1,0l0.3,0.4
		C38.2,72.1,38.1,72.2,38,72.2C38.1,72.2,38.1,72.2,38,72.2z M37.4,71.3C37.4,71.3,37.4,71.3,37.4,71.3L37,70.8c0,0,0-0.1,0-0.1
		c0,0,0.1,0,0.1,0l0.3,0.4C37.5,71.2,37.5,71.3,37.4,71.3C37.5,71.3,37.4,71.3,37.4,71.3z M36.8,70.4C36.8,70.4,36.7,70.4,36.8,70.4
		l-0.4-0.5c0,0,0-0.1,0-0.1c0,0,0.1,0,0.1,0l0.3,0.5C36.9,70.3,36.9,70.4,36.8,70.4C36.8,70.4,36.8,70.4,36.8,70.4z M36.4,69.5
		C36.3,69.5,36.3,69.5,36.4,69.5c-0.1,0-0.1-0.1-0.1-0.1c0.1-0.2,0.1-0.3,0.2-0.5c0,0,0.1-0.1,0.1-0.1c0,0,0.1,0.1,0.1,0.1
		C36.6,69.1,36.5,69.3,36.4,69.5C36.4,69.5,36.4,69.5,36.4,69.5z M36.7,68.5C36.7,68.5,36.7,68.5,36.7,68.5c-0.1,0-0.1-0.1-0.1-0.1
		c0.1-0.2,0.1-0.3,0.2-0.5c0-0.1,0.1-0.1,0.1-0.1c0,0,0.1,0.1,0.1,0.1C36.9,68,36.9,68.2,36.7,68.5C36.8,68.4,36.8,68.5,36.7,68.5z
		 M37.1,67.4C37.1,67.4,37.1,67.4,37.1,67.4c-0.1,0-0.1-0.1-0.1-0.1c0.1-0.2,0.1-0.4,0.2-0.5c0-0.1,0.1-0.1,0.1-0.1
		c0.1,0,0.1,0.1,0.1,0.1C37.3,67,37.2,67.2,37.1,67.4C37.1,67.4,37.1,67.4,37.1,67.4z M37.4,66.4C37.4,66.4,37.4,66.4,37.4,66.4
		c-0.1,0-0.1-0.1-0.1-0.1c0-0.2,0.1-0.4,0.1-0.5c0-0.1,0.1-0.1,0.1-0.1c0.1,0,0.1,0.1,0.1,0.1C37.6,65.9,37.5,66.1,37.4,66.4
		C37.4,66.3,37.4,66.4,37.4,66.4z"/>
	<g>
		<path fill="#FFFFFF" d="M46.3,74.5C46.3,74.5,46.3,74.5,46.3,74.5l-0.2-0.2c0,0,0-0.1,0-0.1c0,0,0.1,0,0.1,0l0.2,0.2
			C46.4,74.3,46.4,74.4,46.3,74.5C46.4,74.5,46.4,74.5,46.3,74.5z"/>
		<path fill="#FFFFFF" d="M48.9,77.6C48.9,77.6,48.9,77.6,48.9,77.6c-0.2-0.2-0.3-0.3-0.4-0.5c0,0,0-0.1,0-0.1c0,0,0.1,0,0.1,0
			c0.1,0.1,0.2,0.3,0.3,0.4C49.1,77.5,49,77.6,48.9,77.6C49,77.6,49,77.6,48.9,77.6z M48.3,76.8C48.3,76.8,48.3,76.8,48.3,76.8
			c-0.2-0.2-0.3-0.3-0.4-0.4c0,0,0-0.1,0-0.1s0.1,0,0.1,0c0.1,0.1,0.2,0.3,0.3,0.4C48.4,76.7,48.4,76.8,48.3,76.8
			C48.4,76.8,48.3,76.8,48.3,76.8z M47.7,76C47.7,76,47.6,76,47.7,76c-0.2-0.2-0.3-0.3-0.4-0.4c0,0,0-0.1,0-0.1c0,0,0.1,0,0.1,0
			c0.1,0.1,0.2,0.3,0.3,0.4C47.8,75.9,47.8,76,47.7,76C47.7,76,47.7,76,47.7,76z M47,75.2C47,75.2,47,75.2,47,75.2
			c-0.2-0.2-0.3-0.3-0.4-0.4c0,0,0-0.1,0-0.1c0,0,0.1,0,0.1,0c0.1,0.1,0.2,0.3,0.3,0.4C47.1,75.1,47.1,75.2,47,75.2
			C47.1,75.2,47.1,75.2,47,75.2z"/>
		<path fill="#FFFFFF" d="M49.4,78.4L49.2,78c0,0,0-0.1,0-0.1c0,0,0.1,0,0.1,0l0.1,0.1l0.1-0.1c0,0,0.1-0.1,0.1,0c0,0,0.1,0.1,0,0.1
			L49.4,78.4z"/>
		<path fill="#FFFFFF" d="M49.9,77.6C49.8,77.6,49.8,77.6,49.9,77.6c-0.1,0-0.1-0.1-0.1-0.2c0.1-0.1,0.2-0.3,0.3-0.4
			c0,0,0.1-0.1,0.1,0c0,0,0.1,0.1,0,0.1C50.1,77.3,50,77.5,49.9,77.6C49.9,77.6,49.9,77.6,49.9,77.6z M50.5,76.8
			C50.4,76.8,50.4,76.8,50.5,76.8c-0.1,0-0.1-0.1-0.1-0.1c0.1-0.1,0.2-0.3,0.3-0.4c0,0,0.1-0.1,0.1,0c0,0,0.1,0.1,0,0.1
			C50.7,76.4,50.6,76.6,50.5,76.8C50.5,76.8,50.5,76.8,50.5,76.8z M51,75.9C51,75.9,51,75.9,51,75.9c-0.1,0-0.1-0.1-0.1-0.1l0,0
			c0.1-0.1,0.2-0.3,0.3-0.4c0,0,0.1-0.1,0.1,0c0,0,0.1,0.1,0,0.1c-0.1,0.1-0.2,0.3-0.3,0.4L51,75.9C51.1,75.9,51.1,75.9,51,75.9z
			 M51.6,75C51.6,75,51.6,75,51.6,75c-0.1,0-0.1-0.1-0.1-0.1c0.1-0.1,0.2-0.3,0.3-0.4c0,0,0.1-0.1,0.1,0c0,0,0.1,0.1,0,0.1
			C51.9,74.7,51.8,74.8,51.6,75C51.7,75,51.7,75,51.6,75z M52.2,74.1C52.2,74.1,52.2,74.1,52.2,74.1c-0.1,0-0.1-0.1-0.1-0.1l0.3-0.4
			c0,0,0.1-0.1,0.1,0c0,0,0.1,0.1,0,0.1L52.2,74.1C52.3,74.1,52.2,74.1,52.2,74.1z M52.8,73.3C52.7,73.3,52.7,73.3,52.8,73.3
			c-0.1,0-0.1-0.1-0.1-0.1l0.3-0.4c0,0,0.1-0.1,0.1,0c0,0,0.1,0.1,0,0.1L52.8,73.3C52.8,73.2,52.8,73.3,52.8,73.3z M53.3,72.4
			C53.3,72.4,53.3,72.4,53.3,72.4c-0.1,0-0.1-0.1-0.1-0.1l0.3-0.4c0,0,0.1-0.1,0.1,0c0,0,0.1,0.1,0,0.1L53.3,72.4
			C53.4,72.4,53.4,72.4,53.3,72.4z M53.9,71.5C53.9,71.5,53.9,71.5,53.9,71.5c-0.1,0-0.1-0.1-0.1-0.1l0.3-0.4c0,0,0.1-0.1,0.1,0
			c0,0,0.1,0.1,0,0.1L53.9,71.5C54,71.5,53.9,71.5,53.9,71.5z M54.5,70.6C54.4,70.6,54.4,70.6,54.5,70.6c-0.1,0-0.1-0.1-0.1-0.1
			l0.3-0.4c0,0,0.1-0.1,0.1,0c0,0,0.1,0.1,0,0.1L54.5,70.6C54.5,70.6,54.5,70.6,54.5,70.6z"/>
		<path fill="#FFFFFF" d="M55,69.7C55,69.7,55,69.7,55,69.7c-0.1,0-0.1-0.1-0.1-0.1l0.1-0.2L55,69.2c0,0,0-0.1,0.1-0.1
			c0,0,0.1,0,0.1,0.1l0.1,0.3L55,69.7C55.1,69.7,55.1,69.7,55,69.7z"/>
		<path fill="#FFFFFF" d="M54.9,68.8C54.9,68.8,54.9,68.8,54.9,68.8l-0.2-0.5c0,0,0-0.1,0.1-0.1c0,0,0.1,0,0.1,0.1l0.2,0.5
			C55,68.7,55,68.8,54.9,68.8C55,68.8,54.9,68.8,54.9,68.8z M54.6,67.9C54.6,67.9,54.5,67.8,54.6,67.9l-0.2-0.5c0,0,0-0.1,0.1-0.1
			c0,0,0.1,0,0.1,0.1l0.2,0.5C54.7,67.8,54.7,67.8,54.6,67.9C54.6,67.9,54.6,67.9,54.6,67.9z M54.3,67C54.3,67,54.2,66.9,54.3,67
			L54,66.4c0,0,0-0.1,0.1-0.1c0,0,0.1,0,0.1,0.1l0.2,0.5C54.4,66.9,54.4,66.9,54.3,67C54.3,66.9,54.3,67,54.3,67z"/>
		<path fill="#FFFFFF" d="M54,66C53.9,66,53.9,66,54,66l-0.2-0.3c0,0,0-0.1,0.1-0.1c0,0,0.1,0,0.1,0.1l0.1,0.3
			C54.1,66,54.1,66,54,66C54,66,54,66,54,66z"/>
	</g>
	<path fill="#4E84C4" d="M54.8,76.3c0,1.6,0.1,3.2,0.1,4.8l2.2,1l2-1.1l0.5-4.8L54.8,76.3z"/>
	<path fill="#FFFFFF" d="M57.1,82L57,82L57.1,82L57.1,82l0.1-0.1l0,0L57.1,82z M56.8,81.9l-0.2-0.1l0,0L56.8,81.9L56.8,81.9z
		 M57.4,81.9L57.4,81.9l0.2-0.2l0,0L57.4,81.9z M56.4,81.7l-0.2-0.1l0,0L56.4,81.7L56.4,81.7z M57.8,81.7L57.8,81.7l0.2-0.2l0,0
		L57.8,81.7z M56,81.5l-0.2-0.1l0,0L56,81.5L56,81.5z M58.1,81.4L58.1,81.4l0.2-0.2l0,0L58.1,81.4z M55.6,81.3l-0.2-0.1l0,0
		L55.6,81.3L55.6,81.3z M58.5,81.2L58.5,81.2l0.2-0.2l0,0L58.5,81.2z M55.2,81.1L55.2,81.1L55.2,81.1l-0.1-0.2l0.1,0L55.2,81.1
		L55.2,81.1L55.2,81.1z M58.9,81L58.9,81L58.9,81l0-0.2l0.1,0L58.9,81L58.9,81z M55.1,80.7l0-0.2l0.1,0L55.1,80.7L55.1,80.7z
		 M59,80.6L59,80.6l0-0.2l0.1,0L59,80.6z M55.1,80.3l0-0.2l0.1,0L55.1,80.3L55.1,80.3z M59,80.1L59,80.1l0-0.2l0.1,0L59,80.1z
		 M55.1,79.8l0-0.2l0.1,0L55.1,79.8L55.1,79.8z M59.1,79.7L59.1,79.7l0-0.2l0.1,0L59.1,79.7z M55.1,79.4l0-0.2l0.1,0L55.1,79.4
		L55.1,79.4z M59.1,79.3L59.1,79.3l0-0.2l0.1,0L59.1,79.3z M55,78.9l0-0.2l0.1,0L55,78.9L55,78.9z M59.1,78.8L59.1,78.8l0-0.2l0.1,0
		L59.1,78.8z M55,78.5l0-0.2l0.1,0L55,78.5L55,78.5z M59.2,78.4L59.2,78.4l0-0.2l0.1,0L59.2,78.4z M55,78.1l0-0.2l0.1,0L55,78.1
		L55,78.1z M59.2,78L59.2,78l0-0.2l0.1,0L59.2,78z M55,77.6l0-0.2l0.1,0L55,77.6L55,77.6z M59.3,77.5L59.3,77.5l0-0.2l0.1,0
		L59.3,77.5z M55,77.2l0-0.2l0.1,0L55,77.2L55,77.2z M59.3,77.1L59.3,77.1l0-0.2l0.1,0L59.3,77.1z M55,76.8l0-0.2l0.1,0L55,76.8
		L55,76.8z M59.4,76.6L59.4,76.6l0-0.2l0.1,0L59.4,76.6z"/>
	<path fill="#3972A9" d="M54.8,76.3c0.1,0.4,0.2,0.9,0.2,1.3c0.8,0.3,1.6,0.7,2.3,1c0.7-0.3,1.5-0.7,2.2-1c0-0.5,0-1,0-1.4
		C58,76.2,56.4,76.3,54.8,76.3z"/>
	<path fill="#FFFFFF" d="M57.4,78.6l-0.2-0.1l0-0.1L57.4,78.6L57.4,78.6L57.4,78.6L57.4,78.6z M57.6,78.5L57.6,78.5l0.2-0.1l0,0
		L57.6,78.5z M57,78.5l-0.2-0.1l0-0.1L57,78.5L57,78.5z M58,78.4L58,78.4l0.2-0.1l0,0L58,78.4z M56.6,78.3l-0.2-0.1l0-0.1L56.6,78.3
		L56.6,78.3z M58.4,78.2L58.4,78.2l0.2-0.1l0,0L58.4,78.2z M56.2,78.1L56,78l0-0.1L56.2,78.1L56.2,78.1z M58.8,78L58.8,78l0.2-0.1
		l0,0L58.8,78z M55.8,77.9l-0.2-0.1l0-0.1L55.8,77.9L55.8,77.9z M59.2,77.8L59.2,77.8l0.2-0.1l0,0L59.2,77.8z M55.4,77.7l-0.2-0.1
		l0-0.1L55.4,77.7L55.4,77.7z M59.4,77.5l0-0.2l0.1,0L59.4,77.5L59.4,77.5z M55,77.5l0-0.2l0.1,0L55,77.5L55,77.5z M59.4,77.1l0-0.2
		l0.1,0L59.4,77.1L59.4,77.1z M55,77l0-0.2l0.1,0L55,77L55,77z M59.4,76.7l0-0.2l0.1,0L59.4,76.7L59.4,76.7z M54.9,76.6l0-0.2l0.1,0
		L54.9,76.6L54.9,76.6z"/>
	<path fill="#FFFFFF" d="M57.4,78.4L57.4,78.4l0.2-0.1l0,0.1L57.4,78.4z M57.2,78.4L57,78.3l0-0.1L57.2,78.4L57.2,78.4z M57.8,78.3
		L57.8,78.3l0.2-0.1l0,0.1L57.8,78.3z M56.8,78.2l-0.2-0.1l0-0.1L56.8,78.2L56.8,78.2z M58.2,78.1L58.2,78.1l0.2-0.1l0,0.1
		L58.2,78.1z M56.4,78L56.2,78l0-0.1L56.4,78L56.4,78z M58.6,77.9L58.6,77.9l0.2-0.1l0,0.1L58.6,77.9z M56,77.9l-0.2-0.1l0-0.1
		L56,77.9L56,77.9z M59,77.7L59,77.7l0.2-0.1l0,0.1L59,77.7z M55.6,77.7l-0.2-0.1l0-0.1L55.6,77.7L55.6,77.7z M59.3,77.5l0-0.2
		l0.1,0L59.3,77.5L59.3,77.5z M55.2,77.5l-0.1-0.2l0.1,0L55.2,77.5L55.2,77.5z M59.3,77.1l0-0.2l0.1,0L59.3,77.1L59.3,77.1z
		 M55.1,77.1l-0.1-0.2l0.1,0L55.1,77.1L55.1,77.1z M55,76.6L55,76.4l0.1,0L55,76.6L55,76.6z M59.3,76.6l0-0.2l0.1,0L59.3,76.6
		L59.3,76.6z"/>
	<ellipse fill="#FFFFFF" cx="57.3" cy="77.8" rx="0.5" ry="0.5"/>
	<g>
		<path fill="#4E84C4" d="M32.3,76.9c0,1.6,0.1,3.2,0.1,4.8l2.2,1l2-1.1l0.5-4.8L32.3,76.9z"/>
		<path fill="#FFFFFF" d="M34.5,82.6l-0.1-0.1L34.5,82.6L34.5,82.6l0.1-0.1l0,0L34.5,82.6z M34.2,82.4L34,82.3l0,0L34.2,82.4
			L34.2,82.4z M34.8,82.4L34.8,82.4l0.2-0.2l0,0L34.8,82.4z M33.8,82.2l-0.2-0.1l0,0L33.8,82.2L33.8,82.2z M35.2,82.2L35.2,82.2
			l0.2-0.2l0,0L35.2,82.2z M33.4,82l-0.2-0.1l0,0L33.4,82L33.4,82z M35.5,82L35.5,82l0.2-0.2l0,0L35.5,82z M33,81.8l-0.2-0.1l0,0
			L33,81.8L33,81.8z M35.9,81.8L35.9,81.8l0.2-0.2l0,0L35.9,81.8z M32.6,81.6L32.6,81.6L32.6,81.6l-0.1-0.2l0.1,0L32.6,81.6
			L32.6,81.6L32.6,81.6z M36.3,81.5L36.3,81.5L36.3,81.5l0-0.2l0.1,0L36.3,81.5L36.3,81.5z M32.5,81.2l0-0.2l0.1,0L32.5,81.2
			L32.5,81.2z M36.4,81.1L36.4,81.1l0-0.2l0.1,0L36.4,81.1z M32.5,80.8l0-0.2l0.1,0L32.5,80.8L32.5,80.8z M36.4,80.7L36.4,80.7
			l0-0.2l0.1,0L36.4,80.7z M32.5,80.4l0-0.2l0.1,0L32.5,80.4L32.5,80.4z M36.5,80.2L36.5,80.2l0-0.2l0.1,0L36.5,80.2z M32.5,79.9
			l0-0.2l0.1,0L32.5,79.9L32.5,79.9z M36.5,79.8L36.5,79.8l0-0.2l0.1,0L36.5,79.8z M32.5,79.5l0-0.2l0.1,0L32.5,79.5L32.5,79.5z
			 M36.6,79.4L36.6,79.4l0-0.2l0.1,0L36.6,79.4z M32.4,79l0-0.2l0.1,0L32.4,79L32.4,79z M36.6,78.9L36.6,78.9l0-0.2l0.1,0L36.6,78.9
			z M32.4,78.6l0-0.2l0.1,0L32.4,78.6L32.4,78.6z M36.6,78.5L36.6,78.5l0-0.2l0.1,0L36.6,78.5z M32.4,78.2l0-0.2l0.1,0L32.4,78.2
			L32.4,78.2z M36.7,78.1L36.7,78.1l0-0.2l0.1,0L36.7,78.1z M32.4,77.7l0-0.2l0.1,0L32.4,77.7L32.4,77.7z M36.7,77.6L36.7,77.6
			l0-0.2l0.1,0L36.7,77.6z M32.4,77.3l0-0.2l0.1,0L32.4,77.3L32.4,77.3z M36.8,77.2L36.8,77.2l0-0.2l0.1,0L36.8,77.2z"/>
		<path fill="#3972A9" d="M32.2,76.9c0.1,0.4,0.2,0.9,0.2,1.3c0.8,0.3,1.6,0.7,2.3,1c0.7-0.3,1.5-0.7,2.2-1c0-0.5,0-1,0-1.4
			C35.4,76.8,33.8,76.8,32.2,76.9z"/>
		<path fill="#FFFFFF" d="M34.8,79.2l-0.2-0.1l0-0.1L34.8,79.2L34.8,79.2L34.8,79.2L34.8,79.2L34.8,79.2L34.8,79.2L34.8,79.2z
			 M35,79.1L35,79.1l0.2-0.1l0,0L35,79.1z M34.4,79l-0.2-0.1l0-0.1L34.4,79L34.4,79z M35.4,78.9L35.4,78.9l0.2-0.1l0,0L35.4,78.9z
			 M34,78.8l-0.2-0.1l0-0.1L34,78.8L34,78.8z M35.8,78.7L35.8,78.7l0.2-0.1l0,0L35.8,78.7z M33.6,78.6l-0.2-0.1l0-0.1L33.6,78.6
			L33.6,78.6z M36.2,78.5L36.2,78.5l0.2-0.1l0,0L36.2,78.5z M33.2,78.4L33,78.4l0-0.1L33.2,78.4L33.2,78.4z M36.6,78.3L36.6,78.3
			l0.2-0.1l0,0L36.6,78.3z M32.8,78.3l-0.2-0.1l0-0.1L32.8,78.3L32.8,78.3z M36.9,78.1l0-0.2l0.1,0L36.9,78.1L36.9,78.1z M32.4,78
			l0-0.2l0.1,0L32.4,78L32.4,78z M36.9,77.6l0-0.2l0.1,0L36.9,77.6L36.9,77.6z M32.4,77.6l0-0.2l0.1,0L32.4,77.6L32.4,77.6z
			 M36.8,77.2l0-0.2l0.1,0L36.8,77.2L36.8,77.2z M32.3,77.1l0-0.2l0.1,0L32.3,77.1L32.3,77.1z"/>
		<path fill="#FFFFFF" d="M34.8,79L34.8,79l0.2-0.1l0,0.1L34.8,79z M34.6,78.9l-0.2-0.1l0-0.1L34.6,78.9L34.6,78.9z M35.2,78.8
			L35.2,78.8l0.2-0.1l0,0.1L35.2,78.8z M34.2,78.8L34,78.7l0-0.1L34.2,78.8L34.2,78.8z M35.6,78.6L35.6,78.6l0.2-0.1l0,0.1
			L35.6,78.6z M33.8,78.6l-0.2-0.1l0-0.1L33.8,78.6L33.8,78.6z M36,78.4L36,78.4l0.2-0.1l0,0.1L36,78.4z M33.4,78.4l-0.2-0.1l0-0.1
			L33.4,78.4L33.4,78.4z M36.4,78.3L36.4,78.3l0.2-0.1l0,0.1L36.4,78.3z M33,78.2l-0.2-0.1l0-0.1L33,78.2L33,78.2z M36.7,78l0-0.2
			l0.1,0L36.7,78L36.7,78z M32.6,78l-0.1-0.2l0.1,0L32.6,78L32.6,78z M36.7,77.6l0-0.2l0.1,0L36.7,77.6L36.7,77.6z M32.5,77.6
			l-0.1-0.2l0.1,0L32.5,77.6L32.5,77.6z M32.4,77.2l-0.1-0.2l0.1,0L32.4,77.2L32.4,77.2z M36.7,77.2l0-0.2l0.1,0L36.7,77.2
			L36.7,77.2z"/>
	</g>
	<ellipse fill="#FFFFFF" cx="34.7" cy="78.3" rx="0.5" ry="0.5"/>
	<path fill="#FFFFFF" d="M30.5,84.7L30.5,84.7l0.1-0.1L30.5,84.7l0.2-0.1l0,0.1L30.5,84.7z M30.9,84.6L30.9,84.6l0.2-0.1l0-0.2
		l0.1,0l0,0.2l0,0l0,0L30.9,84.6z M30.5,84.4l0-0.2l0.1,0L30.5,84.4L30.5,84.4z M31,84.1l0-0.2l0.1,0L31,84.1L31,84.1z M30.4,84
		l0-0.2l0.1,0L30.4,84L30.4,84z M31,83.7l0-0.2l0.1,0L31,83.7L31,83.7z M30.4,83.5l0-0.2l0.1,0L30.4,83.5L30.4,83.5z M30.9,83.3
		l0-0.2l0.1,0L30.9,83.3L30.9,83.3z M30.3,83.1l0-0.2l0.1,0L30.3,83.1L30.3,83.1z M30.9,82.8l0-0.2l0.1,0L30.9,82.8L30.9,82.8z
		 M30.2,82.7l0-0.2l0.1,0L30.2,82.7L30.2,82.7z M30.8,82.4l0-0.2l0.1,0L30.8,82.4L30.8,82.4z M30.2,82.2l0-0.2l0.1,0L30.2,82.2
		L30.2,82.2z M30.7,82l0-0.2l0.1,0L30.7,82L30.7,82z M30.1,81.8l0-0.2l0.1,0L30.1,81.8L30.1,81.8z M30.7,81.5l0-0.2l0.1,0L30.7,81.5
		L30.7,81.5z M30,81.3l0-0.2l0.1,0L30,81.3L30,81.3z M30.6,81.1l0-0.1l0,0l0-0.1l0.1,0L30.6,81.1L30.6,81.1z M30.1,81L30.1,81
		l0.2-0.1l0,0.1L30.1,81z"/>
	<g>
		<polygon fill="#FFFFFF" points="60.9,84.5 60.7,84.5 60.7,84.3 60.8,84.3 60.8,84.4 60.9,84.4 		"/>
		<polygon fill="#FFFFFF" points="61.1,84.5 61,84.5 61,84.4 61.1,84.4 		"/>
		<polygon fill="#FFFFFF" points="61.4,84.6 61.2,84.5 61.3,84.4 61.3,84.5 61.3,84.4 61.4,84.4 		"/>
		<path fill="#FFFFFF" d="M61.4,84.2L61.4,84.2l0-0.2l0.1,0L61.4,84.2z M61.5,83.7L61.5,83.7l0-0.2l0.1,0L61.5,83.7z M61.6,83.3
			L61.6,83.3l0-0.2l0.1,0L61.6,83.3z M61.6,82.8L61.6,82.8l0-0.2l0.1,0L61.6,82.8z M61.7,82.3L61.7,82.3l0-0.2l0.1,0L61.7,82.3z
			 M61.8,81.9L61.8,81.9l0-0.2l0.1,0L61.8,81.9z M61.8,81.4L61.8,81.4l0-0.2l0.1,0L61.8,81.4z"/>
		<polygon fill="#FFFFFF" points="61.9,81 61.8,81 61.8,80.9 61.8,80.9 61.8,80.8 61.9,80.8 		"/>
		<polygon fill="#FFFFFF" points="61.6,80.9 61.5,80.9 61.5,80.8 61.6,80.8 		"/>
		<polygon fill="#FFFFFF" points="61.3,80.9 61.2,80.9 61.2,80.7 61.4,80.8 61.4,80.8 61.3,80.8 		"/>
		<path fill="#FFFFFF" d="M60.9,84.1L60.9,84.1l0-0.2l0.1,0L60.9,84.1z M60.9,83.6L60.9,83.6l0-0.2l0.1,0L60.9,83.6z M61,83.2
			L61,83.2l0-0.2l0.1,0L61,83.2z M61,82.7L61,82.7l0-0.2l0.1,0L61,82.7z M61.1,82.3L61.1,82.3l0-0.2l0.1,0L61.1,82.3z M61.2,81.8
			L61.2,81.8l0-0.2l0.1,0L61.2,81.8z M61.2,81.3L61.2,81.3l0-0.2l0.1,0L61.2,81.3z"/>
	</g>
	<path fill="#FFFFFF" d="M73.1,84h-0.5c-0.1,0-0.1,0-0.1-0.1c0-0.1,0-0.1,0.1-0.1h0.5C73.2,83.8,73.2,83.8,73.1,84
		C73.2,83.9,73.2,84,73.1,84z M72.1,84h-0.5c-0.1,0-0.1,0-0.1-0.1c0-0.1,0-0.1,0.1-0.1h0.5C72.1,83.8,72.1,83.8,72.1,84
		C72.1,83.9,72.1,84,72.1,84z M71,84h-0.5c-0.1,0-0.1,0-0.1-0.1c0-0.1,0-0.1,0.1-0.1H71C71,83.8,71.1,83.8,71,84
		C71.1,83.9,71,84,71,84z M69.9,84L69.9,84l-0.5,0c-0.1,0-0.1,0-0.1-0.1c0-0.1,0-0.1,0.1-0.1h0l0.5,0C69.9,83.8,70,83.8,69.9,84
		C70,83.9,69.9,84,69.9,84z M68.8,84C68.8,84,68.8,84,68.8,84c-0.2,0-0.4,0-0.5,0c-0.1,0-0.1,0-0.1-0.1c0-0.1,0-0.1,0.1-0.1
		c0.2,0,0.4,0,0.5,0C68.8,83.8,68.9,83.8,68.8,84C68.9,83.9,68.8,84,68.8,84z M67.7,84L67.7,84c-0.2,0-0.4,0-0.5,0
		c-0.1,0-0.1,0-0.1-0.1c0-0.1,0-0.1,0.1-0.1c0,0,0,0,0,0c0.2,0,0.3,0,0.5,0C67.8,83.8,67.8,83.8,67.7,84C67.8,83.9,67.8,84,67.7,84z
		 M66.6,83.9C66.6,83.9,66.6,83.9,66.6,83.9L66.6,83.9c-0.1,0-0.1,0-0.1-0.1c0-0.1,0-0.1,0.1-0.1l0,0C66.7,83.7,66.7,83.8,66.6,83.9
		C66.7,83.9,66.7,83.9,66.6,83.9z"/>
</g>
<g>
	<g>
		<rect x="26.1" y="84.2" fill="#5A606A" width="19.4" height="8.1"/>
	</g>
	<g>
		<rect x="45.6" y="84.2" fill="#5A606A" width="19.4" height="8.1"/>
	</g>
	<g>
		<polygon fill="#444850" points="63.9,88 64,87.9 62,85.9 61.9,86.1 		"/>
		<polygon fill="#444850" points="27.2,88 27.1,87.9 29.1,85.9 29.2,86.1 		"/>
		<path fill="#444850" d="M65,84H26.1v1.2h18.4l0,1.8l1,0.9v4.4h0.3v-7.1H65V84z M45.4,87.6l-0.8-0.7l0-1.7h0.8V87.6z"/>
	</g>
	<g>
		<rect x="25.9" y="92.2" fill="#7B8088" width="19.6" height="0.9"/>
		<rect x="45.6" y="92.2" fill="#7B8088" width="19.6" height="0.9"/>
		<rect x="35.1" y="84.4" fill="#7B8088" width="0.7" height="1.8"/>
		<rect x="54" y="84.4" fill="#7B8088" width="0.7" height="1.8"/>
	</g>
	<circle fill="#7B8088" cx="45" cy="84.6" r="0.4"/>
</g>
<g>
	<path fill="#454B55" d="M63.3,97.1H47.2c-0.9,0-1.7-0.7-1.7-1.7v-2.2H65v2.2C65,96.3,64.3,97.1,63.3,97.1z"/>
	<path fill="#6A6F77" d="M59.1,95.8h-7.7V94c0-0.7,0.6-1.3,1.3-1.3h5.1c0.7,0,1.3,0.6,1.3,1.3V95.8z"/>
	<path fill="#DDD2BF" d="M47.2,97h16.4C63.7,97,56,93.4,47.2,97z"/>
	<g>
		<rect x="50.8" y="95" fill="#DDD2BF" width="8.8" height="0.1"/>
		<rect x="50.8" y="94.2" fill="#DDD2BF" width="8.8" height="0.1"/>
		<rect x="50.8" y="93.5" fill="#DDD2BF" width="8.8" height="0.1"/>
	</g>
</g>
<g>
	<path fill="#454B55" d="M43.9,97.1H27.8c-0.9,0-1.7-0.7-1.7-1.7v-2.2h19.4v2.2C45.6,96.3,44.8,97.1,43.9,97.1z"/>
	<path fill="#6A6F77" d="M39.7,95.8H32V94c0-0.7,0.6-1.3,1.3-1.3h5.1c0.7,0,1.3,0.6,1.3,1.3V95.8z"/>
	<path fill="#DDD2BF" d="M27.8,97h16.4C44.2,97,36.5,93.4,27.8,97z"/>
	<g>
		<rect x="31.4" y="95" fill="#DDD2BF" width="8.8" height="0.1"/>
		<rect x="31.4" y="94.2" fill="#DDD2BF" width="8.8" height="0.1"/>
		<rect x="31.4" y="93.5" fill="#DDD2BF" width="8.8" height="0.1"/>
	</g>
</g>
</svg>
