<?xml version="1.0" encoding="utf-8"?>
<!-- Generator: Adobe Illustrator 21.0.0, SVG Export Plug-In . SVG Version: 6.00 Build 0)  -->
<svg version="1.2" baseProfile="tiny" id="Capa_1" xmlns="http://www.w3.org/2000/svg" xmlns:xlink="http://www.w3.org/1999/xlink"
	 x="0px" y="0px" viewBox="0 0 90.7 109.4" xml:space="preserve">
<path fill="#FBD8B7" d="M72.2,15h-53c-2.9,0-5.3,2.4-5.3,5.3v40.1c0,2.9,2.4,5.3,5.3,5.3h7.1c-1,0.6-8.4,5.6-8.3,18.8l0,0
	c0,3.9,3.2,7,7,7v-7h0c0-3.3,0.5-5.9,1.2-7.8v15.2h0V96c0,1.1,0.9,2.1,2.1,2.1h15.3c1.1,0,2.1-0.9,2.1-2.1v-3.6h0.1V96
	c0,1.1,0.9,2.1,2.1,2.1H63c1.1,0,2.1-0.9,2.1-2.1v-3.9h0V76.9c0.7,1.9,1.3,4.5,1.2,7.8h0v7c3.9,0,7-3.1,7-7l0,0
	c0.1-13.1-7.1-18.1-8.2-18.8h7c2.9,0,5.3-2.4,5.3-5.3V20.4C77.5,17.4,75.1,15,72.2,15z"/>
<path fill="#E3B98C" d="M66.4,84.7"/>
<g>
	<circle fill="#404049" cx="26.1" cy="46.2" r="2.4"/>
	<circle fill="#404049" cx="65" cy="46.2" r="2.4"/>
</g>
<path fill="#E1B492" d="M45.7,59.4c-2.2,0-4-1.8-4-4c0-0.4,0.3-0.6,0.6-0.6c0.4,0,0.6,0.3,0.6,0.6c0,1.5,1.2,2.7,2.7,2.7
	c1.5,0,2.7-1.2,2.7-2.7c0-0.4,0.3-0.6,0.6-0.6c0.4,0,0.6,0.3,0.6,0.6C49.6,57.6,47.9,59.4,45.7,59.4z"/>
<g>
	<path fill="#EDC39F" d="M13.8,53.1c-1.1-0.9-1.9-2.7-1.9-4.6c0-2,0.8-3.7,1.9-4.6L13.8,53.1z"/>
	<path fill="#EDC39F" d="M77.5,53.1c1.1-0.9,1.9-2.7,1.9-4.6c0-2-0.8-3.7-1.9-4.6L77.5,53.1z"/>
	<path fill="#EDC39F" d="M57,65.9c0,0.8-0.6,1.4-1.2,1.4H33.6c-0.7,0-1.2-0.6-1.2-1.4H57z"/>
	<path fill="#EDC39F" d="M45.7,53.1L45.7,53.1c-0.9,0-1.6-0.7-1.6-1.6v-4c0-0.9,0.7-1.6,1.6-1.6h0c0.9,0,1.6,0.7,1.6,1.6v4
		C47.3,52.3,46.6,53.1,45.7,53.1z"/>
	<path fill="#EDC39F" d="M22.8,89L22.8,89c-0.5,0-0.9-0.4-0.9-0.9v-1.5c0-0.5,0.4-0.9,0.9-0.9h0c0.5,0,0.9,0.4,0.9,0.9v1.5
		C23.7,88.6,23.3,89,22.8,89z"/>
	<path fill="#EDC39F" d="M68.5,89L68.5,89c0.5,0,0.9-0.4,0.9-0.9v-1.5c0-0.5-0.4-0.9-0.9-0.9h0c-0.5,0-0.9,0.4-0.9,0.9v1.5
		C67.7,88.6,68.1,89,68.5,89z"/>
</g>
<g>
	<path fill="#BE3C3C" d="M16.3,35.1c-0.5-0.9-1.4-0.9-2-0.5c-0.1,0-0.2,0-0.2,0c-1.1,0.3-2.5,0.4-3.3,1.2C10,36.4,10,37,10,37.7
		c-0.6,0.6-1.3,1-1.3,2.1c0,0.6,0.3,1.1,0.6,1.6c0.5,0.7,0.5,0.7,0.5,1.5c0,1.2,0.7,2,1.3,3c0.6,1,1.2,1.2,2.3,1.3
		c1.1,0.1,2.3,0.2,3.1-0.9c0.4-0.6,0.6-1.4,1-2c0.4-0.6,0.7-1.1,0.8-1.8c0.3-1.3,0.3-3,0-4.4C18,36.8,16.9,36.3,16.3,35.1z"/>
	<path fill="#BE3C3C" d="M81.4,37.7c0-0.7-0.1-1.3-0.7-1.9c-0.8-0.8-2.3-0.9-3.3-1.2c-0.1,0-0.2,0-0.2,0c-0.7-0.4-1.6-0.4-2,0.5
		c-0.6,1.2-1.7,1.8-2.1,3.2c-0.3,1.3-0.3,3,0,4.4c0.2,0.7,0.5,1.2,0.8,1.8c0.4,0.6,0.6,1.4,1,2c0.7,1,1.9,1,3.1,0.9
		c1.1-0.1,1.7-0.3,2.3-1.3c0.6-1,1.3-1.8,1.3-3c0-0.8,0-0.8,0.5-1.5c0.3-0.5,0.6-1,0.6-1.6C82.7,38.7,82.1,38.3,81.4,37.7z"/>
</g>
<g>
	<g>
		<path fill="#D4A48E" d="M20.4,21.9c0.8,0,0.8-1.2,0-1.2C19.6,20.7,19.6,21.9,20.4,21.9L20.4,21.9z"/>
	</g>
	<g>
		<path fill="#D4A48E" d="M32.1,18.6c0.8,0,0.8-1.2,0-1.2C31.3,17.3,31.3,18.6,32.1,18.6L32.1,18.6z"/>
	</g>
	<g>
		<path fill="#D4A48E" d="M46.1,20.3c0.8,0,0.8-1.2,0-1.2C45.3,19.1,45.3,20.3,46.1,20.3L46.1,20.3z"/>
	</g>
	<g>
		<path fill="#D4A48E" d="M36.3,25.4c0.8,0,0.8-1.2,0-1.2C35.5,24.2,35.5,25.4,36.3,25.4L36.3,25.4z"/>
	</g>
	<g>
		<path fill="#D4A48E" d="M17.3,28.9c0.8,0,0.8-1.2,0-1.2C16.5,27.7,16.5,28.9,17.3,28.9L17.3,28.9z"/>
	</g>
	<g>
		<path fill="#D4A48E" d="M56.6,27.3c0.8,0,0.8-1.2,0-1.2C55.8,26.1,55.8,27.3,56.6,27.3L56.6,27.3z"/>
	</g>
	<g>
		<path fill="#D4A48E" d="M60.1,18.7c0.8,0,0.8-1.2,0-1.2C59.3,17.5,59.3,18.7,60.1,18.7L60.1,18.7z"/>
	</g>
	<g>
		<path fill="#D4A48E" d="M71,23.4c0.8,0,0.8-1.2,0-1.2C70.2,22.2,70.2,23.4,71,23.4L71,23.4z"/>
	</g>
	<g>
		<path fill="#D4A48E" d="M74.8,28.5c0.8,0,0.8-1.2,0-1.2C74,27.3,74,28.5,74.8,28.5L74.8,28.5z"/>
	</g>
</g>
<g>
	<path fill="#BE3C3C" d="M22.1,43.7c0.3-0.5,0.8-0.9,1.2-1.2c0.5-0.3,1-0.6,1.6-0.8c0.6-0.2,1.2-0.4,1.8-0.4
		c0.6,0.1,1.2,0.3,1.7,0.7l0,0.1c-0.3,0.1-0.6,0.1-0.9,0.2c-0.3,0.1-0.5,0.1-0.8,0.1c-0.5,0.1-1,0-1.5,0.1c-0.5,0.1-1,0.3-1.5,0.5
		C23.1,43.1,22.6,43.4,22.1,43.7L22.1,43.7z"/>
	<path fill="#BE3C3C" d="M69.5,43.7c-0.3-0.5-0.8-0.9-1.2-1.2c-0.5-0.3-1-0.6-1.6-0.8c-0.6-0.2-1.2-0.4-1.8-0.4
		c-0.6,0.1-1.2,0.3-1.7,0.7l0,0.1c0.3,0.1,0.6,0.1,0.9,0.2c0.3,0.1,0.5,0.1,0.8,0.1c0.5,0.1,1,0,1.5,0.1c0.5,0.1,1,0.3,1.5,0.5
		C68.5,43.1,68.9,43.4,69.5,43.7L69.5,43.7z"/>
</g>
<g>
	<g>
		<path fill="#64C4B7" d="M20.9,70.7c0.3-0.7,4.1-4.4,5.3-4.8l3.7,5.5l0.1,0c-1.4,2.3-2.9,4.5-4.3,6.8
			C24.1,75.6,22.5,73.2,20.9,70.7z"/>
	</g>
	<g>
		<path fill="#64C4B7" d="M70.3,70.7c-0.3-0.7-2.5-3.2-5.2-4.8l-3.7,5.5l-0.1,0c1.4,2.3,2.9,4.5,4.3,6.8
			C67.1,75.6,68.8,73.2,70.3,70.7z"/>
	</g>
	<path fill="#64C4B7" d="M65.1,65.9l0,18l-38.9,0.2l0-18.2l11.1,0c1.4,3.2,4.5,5.3,7.9,5.5c3.7,0.1,7.1-2,8.6-5.4L65.1,65.9z"/>
	<path fill="#3A9A89" d="M53.6,65.9c-1.6,3-4.8,5-8.2,4.8c-3.2-0.1-6.1-2-7.5-4.8l-1.2,0c1.5,3.5,5,5.8,8.7,6c0.1,0,0.2,0,0.3,0
		c3.9,0,7.5-2.3,9.1-6L53.6,65.9z"/>
	<path fill="#3A9A89" d="M20.9,70.7c0.1-0.1,0.1-0.2,0.2-0.3c0.1-0.1,0.2-0.2,0.3-0.3c1.6,2.5,3.1,4.9,4.7,7.4
		c-0.1,0.1-0.1,0.2-0.2,0.3c-0.1,0.1-0.2,0.2-0.2,0.4C24.1,75.7,22.5,73.2,20.9,70.7z"/>
	<path fill="#3A9A89" d="M70.3,70.7c-0.1-0.1-0.2-0.3-0.3-0.4c-0.1-0.1-0.2-0.2-0.2-0.3c-1.5,2.5-3.1,5.1-4.6,7.6
		c0.1,0.2,0.2,0.4,0.4,0.6C67.2,75.7,68.8,73.2,70.3,70.7z"/>
	<path fill="#3A9A89" d="M54.6,71.6l6.5,0l0,2.6c0,1.7-1.4,3-3,3l-0.5,0c-1.7,0-3-1.4-3-3.1L54.6,71.6z"/>
</g>
<g>
	<g>
		<rect x="26.3" y="83.2" fill="#9599A0" width="19.4" height="7.4"/>
	</g>
	<g>
		<rect x="45.8" y="83.2" fill="#9599A0" width="19.4" height="7.4"/>
	</g>
	<g>
		<polygon fill="#7B8088" points="64.1,86.7 64.2,86.6 62.2,84.8 62,84.9 		"/>
		<polygon fill="#7B8088" points="27.4,86.7 27.3,86.6 29.3,84.8 29.4,84.9 		"/>
		<path fill="#7B8088" d="M65.3,83.1h-39v1.1h18.4l0,1.7l1,0.8v4h0.3v-6.4h19.3V83.1z M45.6,86.3l-0.8-0.6l0-1.5h0.8V86.3z"/>
	</g>
	<g>
		<rect x="26.1" y="90.5" fill="#B0B3B8" width="19.6" height="0.8"/>
		<rect x="45.8" y="90.5" fill="#B0B3B8" width="19.7" height="0.8"/>
		<rect x="35.6" y="83.4" fill="#B0B3B8" width="0.7" height="1.6"/>
		<rect x="54.2" y="83.4" fill="#B0B3B8" width="0.7" height="1.6"/>
	</g>
	<ellipse fill="#7B8088" cx="45.2" cy="83.6" rx="0.4" ry="0.3"/>
</g>
<g>
	<path fill="#454B55" d="M63.5,98.1H47.4c-0.9,0-1.7-0.7-1.7-1.7v-2.2h19.4v2.2C65.2,97.3,64.4,98.1,63.5,98.1z"/>
	<path fill="#6A6F77" d="M59.3,96.8h-7.7v-1.8c0-0.7,0.6-1.3,1.3-1.3h5.1c0.7,0,1.3,0.6,1.3,1.3V96.8z"/>
	<path fill="#DDD2BF" d="M47.4,98.1h16.4C63.8,98.1,56.2,94.4,47.4,98.1z"/>
	<g>
		<rect x="51" y="96" fill="#DDD2BF" width="8.8" height="0.1"/>
		<rect x="51" y="95.3" fill="#DDD2BF" width="8.8" height="0.1"/>
		<rect x="51" y="94.6" fill="#DDD2BF" width="8.8" height="0.1"/>
	</g>
</g>
<g>
	<path fill="#454B55" d="M44.1,98.1H28c-0.9,0-1.7-0.7-1.7-1.7v-2.2h19.4v2.2C45.7,97.3,45,98.1,44.1,98.1z"/>
	<path fill="#6A6F77" d="M39.9,96.8h-7.7v-1.8c0-0.7,0.6-1.3,1.3-1.3h5.1c0.7,0,1.3,0.6,1.3,1.3V96.8z"/>
	<path fill="#DDD2BF" d="M28,98.1h16.4C44.4,98.1,36.7,94.4,28,98.1z"/>
	<g>
		<rect x="31.5" y="96" fill="#DDD2BF" width="8.8" height="0.1"/>
		<rect x="31.5" y="95.3" fill="#DDD2BF" width="8.8" height="0.1"/>
		<rect x="31.5" y="94.6" fill="#DDD2BF" width="8.8" height="0.1"/>
	</g>
</g>
</svg>
