<?xml version="1.0" encoding="utf-8"?>
<!-- Generator: Adobe Illustrator 19.2.1, SVG Export Plug-In . SVG Version: 6.00 Build 0)  -->
<svg version="1.2" baseProfile="tiny" id="Capa_1" xmlns="http://www.w3.org/2000/svg" xmlns:xlink="http://www.w3.org/1999/xlink"
	 x="0px" y="0px" viewBox="0 0 90.7 109.4" xml:space="preserve">
<path fill="#E2AE44" d="M16.8,43.1c-1.5,0.5-2.9,1-4.4,1.7c-0.4,0.2-0.8,0.4-1.1,0.7c-0.9,1.2,0.7,3.3-0.3,4.4
	c-0.3,0.3-0.7,0.5-0.9,0.8c-0.4,0.6,0,1.4,0.6,1.9s1.2,1,1.4,1.6c0.5,1.6-1.6,3.2-0.9,4.7c0.3,0.6,1,0.9,1.2,1.6
	c0.1,0.4-0.1,0.8-0.1,1.1c-0.1,1.5,1.9,2.3,3.4,2.1s3.1-0.8,4.5-0.1c0.5,0.3,0.9,0.7,1.4,1c1.5,0.8,3.4-0.1,4.3-1.5s1.2-3.1,1.4-4.7
	c0.1-0.6,0.1-1.3-0.3-1.7c-0.2-0.2-0.5-0.3-0.7-0.5c-0.6-0.6-0.5-1.6-0.4-2.5c0.5-3.7-0.3-7.6-2.3-10.7c-0.4-0.6-0.9-1.2-1.6-1.3
	s-1.4,0.3-2,0.6c-1.5,0.7-3.2,0.8-4.8,0.4"/>
<path fill="#E2AE44" d="M75.4,43.1c1.5,0.5,2.9,1,4.4,1.7c0.4,0.2,0.8,0.4,1.1,0.7c0.9,1.2-0.7,3.3,0.3,4.4c0.3,0.3,0.7,0.5,0.9,0.8
	c0.4,0.6,0,1.4-0.6,1.9s-1.2,1-1.4,1.6c-0.5,1.6,1.6,3.2,0.9,4.7c-0.3,0.6-1,0.9-1.2,1.6c-0.1,0.4,0.1,0.8,0.1,1.1
	c0.1,1.5-1.9,2.3-3.4,2.1s-3.1-0.8-4.5-0.1c-0.5,0.3-0.9,0.7-1.4,1c-1.5,0.8-3.4-0.1-4.3-1.5s-1.2-3.1-1.4-4.7
	c-0.1-0.6-0.1-1.3,0.3-1.7c0.2-0.2,0.5-0.3,0.7-0.5c0.6-0.6,0.5-1.6,0.4-2.5c-0.5-3.7,0.3-7.6,2.3-10.7c0.4-0.6,0.9-1.2,1.6-1.3
	s1.4,0.3,2,0.6c1.5,0.7,3.2,0.8,4.8,0.4"/>
<path fill="#F5DCC7" d="M72.3,20.3h-53c-2.9,0-5.3,2.4-5.3,5.3v40.1c0,2.9,2.4,5.3,5.3,5.3h7.1c-1,0.6-8.4,5.6-8.3,18.8l0,0
	c0,3.9,3.2,7,7,7v-7l0,0c0-3.3,0.5-5.9,1.2-7.8v15.2l0,0v3.9c0,1.1,0.9,2.1,2.1,2.1h15.3c1.1,0,2.1-0.9,2.1-2.1v-3.6h0.1v3.6
	c0,1.1,0.9,2.1,2.1,2.1h15.3c1.1,0,2.1-0.9,2.1-2.1v-3.9l0,0v-15c0.7,1.9,1.3,4.5,1.2,7.8l0,0v7c3.9,0,7-3.1,7-7l0,0
	c0.1-13.1-7.1-18.1-8.2-18.8h7c2.9,0,5.3-2.4,5.3-5.3V25.6C77.6,22.7,75.2,20.3,72.3,20.3z"/>
<path fill="#E3B98C" d="M66.5,89.9"/>
<g>
	<circle fill="#8A4E21" cx="26.2" cy="51.5" r="2.4"/>
	<circle fill="#8A4E21" cx="65.1" cy="51.5" r="2.4"/>
</g>
<path fill="#D6B69E" d="M45.8,64.6c-2.2,0-4-1.8-4-4c0-0.4,0.3-0.6,0.6-0.6c0.4,0,0.6,0.3,0.6,0.6c0,1.5,1.2,2.7,2.7,2.7
	s2.7-1.2,2.7-2.7c0-0.4,0.3-0.6,0.6-0.6c0.4,0,0.6,0.3,0.6,0.6C49.7,62.9,48,64.6,45.8,64.6z"/>
<path fill="#E7CAB5" d="M14,58.3c-1.1-0.9-1.9-2.7-1.9-4.6c0-2,0.8-3.7,1.9-4.6V58.3z"/>
<path fill="#E7CAB5" d="M77.7,58.3c1.1-0.9,1.9-2.7,1.9-4.6c0-2-0.8-3.7-1.9-4.6V58.3z"/>
<path fill="#E7CAB5" d="M57.1,71.1c0,0.8-0.6,1.4-1.2,1.4H33.7c-0.7,0-1.2-0.6-1.2-1.4H57.1z"/>
<path fill="#E7CAB5" d="M45.8,58.3L45.8,58.3c-0.9,0-1.6-0.7-1.6-1.6v-4c0-0.9,0.7-1.6,1.6-1.6l0,0c0.9,0,1.6,0.7,1.6,1.6v4
	C47.4,57.6,46.7,58.3,45.8,58.3z"/>
<path fill="#E7CAB5" d="M22.9,94.3L22.9,94.3c-0.5,0-0.9-0.4-0.9-0.9v-1.5c0-0.5,0.4-0.9,0.9-0.9l0,0c0.5,0,0.9,0.4,0.9,0.9v1.5
	C23.8,93.9,23.4,94.3,22.9,94.3z"/>
<path fill="#E7CAB5" d="M68.6,94.3L68.6,94.3c0.5,0,0.9-0.4,0.9-0.9v-1.5c0-0.5-0.4-0.9-0.9-0.9l0,0c-0.5,0-0.9,0.4-0.9,0.9v1.5
	C67.8,93.9,68.2,94.3,68.6,94.3z"/>
<path fill="#E2AE44" d="M71.2,15c0,0-0.6-0.9-1.9-0.5c-0.4,0.2-0.5-0.8-1-0.9c-0.5-0.1-0.9,0-1.4,0.1c-0.2,0-0.5,0.1-0.7,0
	s-0.3-0.3-0.4-0.5c-0.2-0.4-0.5-0.8-0.9-1.1c-1.8-1.5-2.8-0.6-4-0.2c-0.7,0.2-1-1.8-1.6-1.7S58.7,9.6,58,9.3c-1.1-0.4-2.5,1-3,0
	c-0.1-0.3-0.3-0.6-0.6-0.7c-0.4-0.2-0.8,0.2-1.3,0.3C51.7,9.2,50.5,7,49,7.3c-0.5,0.1-1,0.5-1.5,0.6c-1.7,0.6-3.4-1.4-5.2-1.3
	c-0.1,0.3-0.1,0.6-0.2,0.9c-0.6,0.4-1.5-0.5-2.2-0.4c-0.4,0.1-0.7,0.5-1.2,0.6C38,8,37.3,7.2,36.5,7.1c-1.3,0-1.8,1.9-3.1,1.9
	c-0.6,0-1.4-0.4-1.9,0c-0.7,0.6,0.6,1.7,0.4,2.7c-0.2,0.9-1.5,1-2.3,0.6c-0.9-0.4-1.8-0.9-2.7-0.6c-1.1,0.4-1.2,1.9-2.3,2.4
	c-0.7,0.3-1.6-0.1-2.3-0.4c0.6,0.5,0.7,1.4,0.3,2c-0.4,0.6-1.3,0.8-2,0.4c-0.3,0.3,0.1,0.8,0.2,1.2c0.2,0.7-0.7,1.4-1.5,1.4
	s-1.6-0.2-2.4,0c0.6,1.5-1.3,3.3-2.9,2.8c-0.1,0.8,0.2,1.6,0.7,2.1c-1.1,0.6-1.6,1.3-3,1.6c-0.4,0.1-0.8,0.4-0.8,0.8
	c-0.2,1,1.5,1.2,1.4,2.1c0,0.5-0.7,0.8-1.1,1.1c-0.9,0.6-1.2,1.9-0.7,2.8c0.1,0.2,0.3,0.5,0.3,0.7c0,0.3-0.4,0.6-0.6,0.8
	c-0.2,0.3-0.3,0.7-0.3,1.1c-0.1,1-0.1,2.1,0.7,2.6c0.3,0.2,0.6,0.3,0.9,0.4c0.3,0.2,0.5,0.5,0.4,0.8c-0.2,0.5-1,0.5-1.4,0.9
	c-0.3,0.4-0.3,1,0,1.5c0.6,1.1,1.3,2,1,3.4c-0.1,0.5-0.4,0.9-0.4,1.3c-0.1,0.5,0.2,1,0.7,1.1c-0.2,0.5,0.1,1,0.4,1.4
	c0.4,0.4,0.9,0.6,1.4,0.8c0.1,0,0.2,0.1,0.3,0.1c0.4,0,0.4-0.5,0.7-0.6s0.3,0.3,0.6,0.2c0.5-0.2,0.4-1,0.2-1.4c-0.3-0.5,0.2-1.5,0-2
	c-0.4-1-0.7-1.5,0-2.3c0.6-0.1,1.2-0.2,1.8-0.3c0.3-0.5,0-1.1-0.3-1.6s-0.5-1.3,0-1.5c0.2-0.1,0.4-0.1,0.6-0.1c1-0.1,1.8-0.6,2-1.5
	c0.2-1,0.3-1.9-0.6-2.4c-0.4-0.5,0.5-1,0.8-1.6c0.3-0.5,0.2-1.3-0.1-1.8c-0.3-0.6-0.7-1.1-0.7-1.8c0-0.6,0.5-1.3,1.2-1.2
	c0.2,0,0.4,0.2,0.6,0.2c1.1,0.2,1.8-1.6,2.8-1.3c0.4,0.1,0.6,0.4,1,0.5s0.7-0.2,1.1-0.4c0.6-0.4,1.2-0.9,1.8-1.3
	c0.9-0.7,1.7-1.2,2.6-0.4l0,0c0.1,0.1,0.3,0.2,0.5,0.2c0.3,0,0.4-0.4,0.6-0.7c0.6-1.1,2.2-0.8,3.3-0.4c0.4,0.1,0.7,0.2,1.1,0.4
	c1.4,0.5,2.9,1,3.9,2.1c0.4-0.8,1.9-0.8,2.3,0.1c0.1,0.3,0.1,0.6,0.3,0.9c0.6,1.2,2.6,0.4,3.7,1.1c0.3,0.2,0.6,0.6,0.9,0.8
	c1.6,1,3.7-1.1,5.5-0.5c0.5,0.2,1,0.6,1.6,0.7s1.3-0.3,1.1-0.8c1.4,1,3.2,2,4.6,1.1c0.3-0.2,0.5-0.4,0.8-0.4
	c0.4-0.1,0.8,0.2,1.1,0.4c0.7,0.4,1.1,1.1,1.8,0.6c0.7-0.4,0.9-1.5,0.3-2c0.7-0.8,2-0.8,2.7-0.1c0.3,0.3,0.5,0.7,0.8,0.9
	c0.7,0.3,1.4-0.3,1.7-1c0.3-0.6,1.3-3.4,2.1-1.8c0.3,0.6-0.1,1,0.7,1.5c0.7,0.4,1.5,0.2,2.1,0.7c-0.5,0.4-0.9,1-1.2,1.6
	c0.4,0.1,0.9,0.2,1.3,0.5c0.4,0.3,0.6,0.8,0.4,1.2c-0.2,0.5-0.9,0.7-0.9,1.2c0,0.3,0.2,0.5,0.4,0.8c0.6,0.7,1.7,0.9,2.3,1.6
	c0.1,0.1,0.2,0.3,0.2,0.5c0,0.3-0.4,0.4-0.4,0.7c0,0.2,0.2,0.3,0.3,0.5c0.2,0.4-0.1,0.9-0.1,1.4c0,0.6,0.6,3.7,0.5,4.3
	c0,0.5-0.5,0.9-0.5,1.4c0,0.8,1.2,1.2,1.2,2c0,0.5-0.4,0.9-0.5,1.3c-0.2,0.6,0.1,1.3,0.3,2c0.2,0.4,0.4,0.8,0.5,1.2
	c0.1,0.1,0.1,0.3,0.3,0.4c0.2,0,0.3-0.1,0.4-0.2c0.6-0.6,0.7-1.6,0.3-2.3c0.7-0.5,1.7,0.1,2.6-0.1c0.8-0.2,1.2-1.2,0.7-1.9
	c-0.2-0.3-0.6-0.6-0.9-0.8c-0.3-0.3-0.6-0.7-0.4-1.1c0.1-0.4,0.7-0.7,0.6-1.2c-0.1-0.4-0.8-0.5-1-0.9c-0.5-0.7,1-4,1-4.9
	c0-0.8-1.2-1.3-1.2-2.1c0-0.4,0.4-0.7,0.8-1c0.3-0.3,0.6-0.8,0.4-1.1s-0.6-0.3-0.8-0.6c-0.3-0.5-0.9-1.1-0.4-1.3
	c0.6-0.3,1.5-0.5,1.5-1.4c0-0.6-0.5-1.1-1.1-1.3c-1.2-0.4-1-0.9-1-1.8c0-0.6,0.5-1.1,0.2-1.6V26c-0.1-0.4-0.2-0.8-0.4-1.1
	c-0.1-0.2-0.2-0.4-0.2-0.7c0-0.2,0.1-0.4,0.2-0.5c0.4-0.9,0-2.2-0.9-2.7c-0.3-0.2-0.6-0.3-0.8-0.6c-0.1-0.3,0-0.6-0.1-0.8
	c-0.3-1-2-0.6-2.7-1.4c-0.6-0.6-0.3-1.8-1.1-2.1c-0.4-0.1-0.8,0-1.2-0.1C71.8,15.8,71.6,15.2,71.2,15"/>
<g>
	<path fill="#E2AE44" d="M21.8,49.1c0.3-0.5,0.8-0.9,1.2-1.2c0.5-0.3,1-0.6,1.6-0.8s1.2-0.4,1.8-0.4c0.6,0.1,1.2,0.3,1.7,0.7v0.1
		c-0.3,0.1-0.6,0.1-0.9,0.2c-0.3,0.1-0.5,0.1-0.8,0.1c-0.5,0.1-1,0-1.5,0.1s-1,0.3-1.5,0.5C22.8,48.6,22.3,48.9,21.8,49.1L21.8,49.1
		z"/>
	<path fill="#E2AE44" d="M69.2,49.1c-0.3-0.5-0.8-0.9-1.2-1.2c-0.5-0.3-1-0.6-1.6-0.8s-1.2-0.4-1.8-0.4c-0.6,0.1-1.2,0.3-1.7,0.7
		v0.1c0.3,0.1,0.6,0.1,0.9,0.2c0.3,0.1,0.5,0.1,0.8,0.1c0.5,0.1,1,0,1.5,0.1s1,0.3,1.5,0.5C68.2,48.6,68.6,48.9,69.2,49.1L69.2,49.1
		z"/>
</g>
<path fill="#BF3D3C" d="M70.3,76c0,0-2.5-3.6-5.1-4.9H54c-1.5,3.4-4.9,5.6-8.6,5.5c-3.4-0.1-6.5-2.3-7.9-5.5H26.4
	c-2.6,1.3-5.1,4.9-5.1,4.9c1.5,2.6,3,5.1,4.6,7.7c0.1-0.2,0.3-0.4,0.4-0.6c0,2.6,0,5.3,0,7.9c13-0.1,26-0.1,39.1-0.2
	c0-2.6,0-5.2,0-7.7c0,0.1,0.1,0.2,0.1,0.2c0.1,0.1,0.2,0.3,0.2,0.4C67.2,81.1,68.7,78.6,70.3,76z"/>
<path fill="#9E2D2C" d="M70.3,76c0-0.1-0.1-0.1-0.1-0.2c-0.1-0.1-0.2-0.2-0.2-0.3c-0.7,1.3-1.4,2.6-2.2,3.9
	c-0.7,1.3-1.5,2.6-2.2,3.8c0.1,0.1,0.1,0.2,0.2,0.4c0,0.1,0.1,0.1,0.1,0.2c1-1.5,1.8-2.8,2.4-3.7c0.5-0.8,0.9-1.5,1.4-2.4
	C69.9,77,70.1,76.4,70.3,76z"/>
<path fill="#9E2D2C" d="M21.3,76c0.1-0.1,0.1-0.2,0.2-0.3c0.1-0.1,0.2-0.2,0.2-0.3c0.7,1.3,1.5,2.5,2.2,3.8c0.8,1.3,1.5,2.6,2.3,3.9
	c-0.1,0.1-0.1,0.2-0.2,0.3c-0.1,0.1-0.2,0.2-0.2,0.4c-0.3-0.5-2-3.4-2.3-3.9C23.3,79.4,21.6,76.5,21.3,76z"/>
<polygon fill="#E2AE44" points="45.7,79.6 42.9,84.4 45.3,84.4 44,87.8 49.7,82.3 46.8,82.3 49.1,79.6 "/>
<g>
	<g>
		<rect x="26.3" y="90.7" fill="#3C72A5" width="19.5" height="8.1"/>
	</g>
	<g>
		<rect x="45.9" y="90.7" fill="#3C72A5" width="19.5" height="8.1"/>
	</g>
	<g>
		<polygon fill="#173857" points="64.3,94.6 64.4,94.4 62.4,92.5 62.3,92.6 		"/>
		<polygon fill="#173857" points="27.4,94.6 27.3,94.4 29.3,92.5 29.4,92.6 		"/>
		<path fill="#173857" d="M65.4,90.6H26.3v1.2h18.5v1.8l1,0.9v4.4h0.3v-7.1h19.3C65.4,91.8,65.4,90.6,65.4,90.6z M45.8,94.1L45,93.5
			v-1.7h0.8V94.1z"/>
	</g>
	<g>
		<rect x="26.2" y="98.8" fill="#46617A" width="19.7" height="0.9"/>
		<rect x="45.9" y="98.8" fill="#46617A" width="19.7" height="0.9"/>
		<rect x="35.4" y="90.9" fill="#173857" width="0.7" height="1.8"/>
		<rect x="54.4" y="90.9" fill="#173857" width="0.7" height="1.8"/>
	</g>
	<ellipse fill="#F2DFBE" cx="45.3" cy="91.1" rx="0.4" ry="0.4"/>
</g>
<g>
	<g>
		<path fill="#F6EBD6" d="M63.8,103.3H47.5c-0.9,0-1.6-0.7-1.6-1.6v-2h19.5v2C65.4,102.6,64.7,103.3,63.8,103.3z"/>
		<path fill="#BCB7AC" d="M59.6,102.1h-7.7v-1.6c0-0.7,0.6-1.2,1.2-1.2h5.2c0.7,0,1.2,0.6,1.2,1.2L59.6,102.1L59.6,102.1z"/>
		<path fill="#DDD3BF" d="M47.6,103.3h16.5C64.1,103.3,56.4,99.8,47.6,103.3z"/>
		<g>
			<rect x="51.1" y="101.3" fill="#6E675C" width="8.8" height="0.1"/>
			<rect x="51.1" y="100.6" fill="#6E675C" width="8.8" height="0.1"/>
			<rect x="51.1" y="100" fill="#6E675C" width="8.8" height="0.1"/>
		</g>
	</g>
	<g>
		<path fill="#F6EBD6" d="M44.3,103.3H27.9c-0.9,0-1.6-0.7-1.6-1.6v-2h19.5v2C45.9,102.6,45.1,103.3,44.3,103.3z"/>
		<path fill="#BCB7AC" d="M40,102.1h-7.7v-1.6c0-0.7,0.6-1.2,1.2-1.2h5.2c0.7,0,1.2,0.6,1.2,1.2L40,102.1L40,102.1z"/>
		<path fill="#DDD3BF" d="M28,103.3h16.5C44.5,103.3,36.8,99.8,28,103.3z"/>
		<g>
			<rect x="31.6" y="101.3" fill="#6E675C" width="8.8" height="0.1"/>
			<rect x="31.6" y="100.6" fill="#6E675C" width="8.8" height="0.1"/>
			<rect x="31.6" y="100" fill="#6E675C" width="8.8" height="0.1"/>
		</g>
	</g>
</g>
</svg>
