<?xml version="1.0" encoding="utf-8"?>
<!-- Generator: Adobe Illustrator 21.0.0, SVG Export Plug-In . SVG Version: 6.00 Build 0)  -->
<svg version="1.1" id="Capa_1" xmlns="http://www.w3.org/2000/svg" xmlns:xlink="http://www.w3.org/1999/xlink" x="0px" y="0px"
	 viewBox="0 0 240 322" style="enable-background:new 0 0 240 322;" xml:space="preserve">
<style type="text/css">
	.st0{fill:#A97C50;}
	.st1{fill:#8B5E3C;}
	.st2{fill:#2A2A2A;}
	.st3{opacity:0.7;fill:#F6F7FA;}
	.st4{fill:#68472D;}
	.st5{fill:#FFEBBB;}
	.st6{fill:#F6BB43;}
	.st7{fill:#FFF3F1;}
	.st8{opacity:0.19;fill:#FFFFFF;}
	.st9{fill:#FB6E51;}
	#transform{transform:scale(0.4)}
</style>
<g id="transform">
	<g>
		<path class="st0" d="M110.1,32c11.6-13.1,27.7-22.1,45-25c-8.1,7.7-14,17.7-16.8,28.6c5.9-7.3,15.3-11.7,24.6-11.5
			c-5.7,5.4-10.2,12-13.3,19.2"/>
	</g>
	<g>
		<g>
			<circle class="st0" cx="29.6" cy="83.8" r="20.3"/>
			<circle class="st1" cx="31.8" cy="84.8" r="13.5"/>
			<circle class="st0" cx="205.8" cy="83.8" r="20.3"/>
			<circle class="st1" cx="203.6" cy="84.8" r="13.5"/>
			<path class="st0" d="M200.7,312.2H34.4V108.7c0-45.9,37.2-83.1,83.1-83.1h0c45.9,0,83.1,37.2,83.1,83.1V312.2z"/>
			<circle class="st2" cx="56.1" cy="105.5" r="10"/>
			<circle class="st3" cx="60.2" cy="102.8" r="2.7"/>
			<circle class="st2" cx="177.8" cy="105.5" r="10"/>
			<circle class="st3" cx="181.9" cy="102.8" r="2.7"/>
			<g>
				<g>
					<path class="st4" d="M43,94.5c5.8-0.7,11.5-1,17.3-1c2.5,0,2.5-3.9,0-3.9c-5.8,0-11.6,0.3-17.3,1C40.5,90.8,40.5,94.8,43,94.5
						L43,94.5z"/>
				</g>
			</g>
			<g>
				<g>
					<path class="st4" d="M171.8,92.9c5.6,0.4,11.2,1.1,16.7,2.2c2.5,0.5,3.5-3.3,1-3.8c-5.9-1.1-11.8-1.9-17.7-2.3
						C169.3,88.7,169.3,92.7,171.8,92.9L171.8,92.9z"/>
				</g>
			</g>
			<path class="st5" d="M114.8,150.6h-0.4c-1.3,0-2.4-1.1-2.4-2.4v-6.6c0-1.3,1.1-2.4,2.4-2.4h0.4c1.3,0,2.4,1.1,2.4,2.4v6.6
				C117.2,149.5,116.1,150.6,114.8,150.6z"/>
			<path class="st5" d="M121,150.6h-0.4c-1.3,0-2.4-1.1-2.4-2.4v-6.6c0-1.3,1.1-2.4,2.4-2.4h0.4c1.3,0,2.4,1.1,2.4,2.4v6.6
				C123.3,149.5,122.3,150.6,121,150.6z"/>
			<g>
				<g>
					<path class="st4" d="M137.8,132.5c0,5.2-4,9.9-9.4,9.6c-5.4-0.3-10.8-6.2-7.3-11.4c1.7-2.6-2.5-5.1-4.2-2.5
						c-5.1,7.8,1.5,17.1,9.7,18.6c8.8,1.6,16.1-5.8,16.2-14.3C142.7,129.4,137.8,129.4,137.8,132.5L137.8,132.5z"/>
				</g>
			</g>
			<g>
				<g>
					<path class="st4" d="M92.4,132.5c0,8.6,7.4,15.9,16.2,14.3c8.3-1.5,14.8-10.8,9.7-18.6c-1.7-2.6-6-0.2-4.2,2.5
						c3.4,5.2-1.9,11.1-7.3,11.4c-5.5,0.3-9.4-4.4-9.4-9.6C97.3,129.3,92.4,129.3,92.4,132.5L92.4,132.5z"/>
				</g>
			</g>
			<path class="st1" d="M106.7,119h22.5c3.2,0,4.8,3.9,2.5,6.2l-10.9,7.7c-1.3,1.3-3.4,1.4-4.8,0.2l-11.5-7.7
				C101.8,123.2,103.3,119,106.7,119z"/>
			<path class="st6" d="M203.5,260.8H32.1c-6.4,0-11.6-5.2-11.6-11.6v-75c0-6.4,5.2-11.6,11.6-11.6h171.3c6.4,0,11.6,5.2,11.6,11.6
				v75C215,255.6,209.9,260.8,203.5,260.8z"/>
			<path class="st7" d="M194.7,251.4H41.7c-5.4,0-9.8-4.4-9.8-9.8v-60.4c0-5.4,4.4-9.8,9.8-9.8h152.9c5.4,0,9.8,4.4,9.8,9.8v60.4
				C204.5,246.9,200.1,251.4,194.7,251.4z"/>
			<path class="st0" d="M223.6,201.9h-13.7c-5,0-9.1-4.1-9.1-9.1v-4.5c0-5,4.1-9.1,9.1-9.1h13.7c5,0,9.1,4.1,9.1,9.1v4.5
				C232.6,197.8,228.6,201.9,223.6,201.9z"/>
			<path class="st0" d="M27.4,201.9H13.7c-5,0-9.1-4.1-9.1-9.1v-4.5c0-5,4.1-9.1,9.1-9.1h13.7c5,0,9.1,4.1,9.1,9.1v4.5
				C36.5,197.8,32.4,201.9,27.4,201.9z"/>
		</g>
		<g>
			<path class="st8" d="M60.6,137.3c-15.1,0-27.4-12.3-27.4-27.4s12.3-27.4,27.4-27.4c15.1,0,27.4,12.3,27.4,27.4
				S75.8,137.3,60.6,137.3z"/>
			<path class="st8" d="M177,137.3c-15.1,0-27.4-12.3-27.4-27.4s12.3-27.4,27.4-27.4c15.1,0,27.4,12.3,27.4,27.4
				S192.1,137.3,177,137.3z"/>
			<path class="st9" d="M176.6,77.2c-17.1,0-31.1,13.2-32.4,29.9H93.1c-1.3-16.7-15.3-29.9-32.4-29.9c-17.9,0-32.5,14.6-32.5,32.5
				s14.6,32.5,32.5,32.5c17.1,0,31.1-13.2,32.4-29.9h51.1c1.3,16.7,15.3,29.9,32.4,29.9c17.9,0,32.5-14.6,32.5-32.5
				S194.5,77.2,176.6,77.2z M60.7,137.1c-15.1,0-27.4-12.3-27.4-27.4s12.3-27.4,27.4-27.4c15.1,0,27.4,12.3,27.4,27.4
				S75.8,137.1,60.7,137.1z M176.6,137.1c-15.1,0-27.4-12.3-27.4-27.4s12.3-27.4,27.4-27.4c15.1,0,27.4,12.3,27.4,27.4
				S191.7,137.1,176.6,137.1z"/>
		</g>
	</g>
</g>
</svg>
