<?xml version="1.0" encoding="utf-8"?>
<!-- Generator: Adobe Illustrator 21.0.0, SVG Export Plug-In . SVG Version: 6.00 Build 0)  -->
<svg version="1.1" id="Capa_1" xmlns="http://www.w3.org/2000/svg" xmlns:xlink="http://www.w3.org/1999/xlink" x="0px" y="0px"
	 viewBox="0 0 53 67" style="enable-background:new 0 0 53 67;" xml:space="preserve">
<style type="text/css">
	.st0{fill:#006F30;}
	.st1{fill:#F6BB43;}
	.st2{fill:#FFFFFF;}
</style>
<g>
	<path class="st0" d="M29.4,51.6c-8.7-6.9-18.8-20.3-23.7-30.3C5,20,4.6,18.1,5.8,17.3c0.8-0.5,1.9-0.2,2.7,0.2
		c9.8,4.2,14.6,15.2,18.4,25.2c0.9-3.1-0.6-6.3-1.9-9.3c-3.3-7.7-4.7-16.1-4.2-24.4c4.5,10,8.4,20.3,11.7,30.7
		C30.6,28,28.7,16.3,26.8,4.6c7.9,10.9,7.8,25.5,7.3,39c1.2-4.2,3.4-8.2,6.4-11.4c0.6-0.7,1.6-1.3,2.3-0.9c0.6,0.4,0.7,1.2,0.7,2
		c-0.1,6.4-8.4,13.4-9.8,19.6"/>
</g>
<g>
	<path class="st1" d="M26.7,46.2c0,0-13.5-15.1,0-14.8C40.2,31.7,26.7,46.2,26.7,46.2z"/>
	<path class="st1" d="M26.8,46.4c0,0,10.5-17.3,14.2-4.3C44.6,55.1,26.8,46.4,26.8,46.4z"/>
	<path class="st1" d="M26.9,46.2c0,0,19.9,3.7,9.1,11.7C25.1,66,26.9,46.2,26.9,46.2z"/>
	<path class="st1" d="M26.8,46.4c0,0,2.1,20.1-8.7,12C7.4,50.3,26.8,46.4,26.8,46.4z"/>
	<path class="st1" d="M26.9,46.2c0,0-18.6,7.9-14-4.8C17.5,28.8,26.9,46.2,26.9,46.2z"/>
	<circle class="st2" cx="26.9" cy="45.9" r="4.9"/>
</g>
</svg>
