<?xml version="1.0" encoding="utf-8"?>
<!-- Generator: Adobe Illustrator 21.0.0, SVG Export Plug-In . SVG Version: 6.00 Build 0)  -->
<svg version="1.1" id="Capa_1" xmlns="http://www.w3.org/2000/svg" xmlns:xlink="http://www.w3.org/1999/xlink" x="0px" y="0px"
	 viewBox="0 0 172.5 372" style="enable-background:new 0 0 172.5 372;" xml:space="preserve">
<style type="text/css">
	.st0{fill:#E0A63F;}
	.st1{fill:#A87D2F;}
	.st2{fill:#3F2A18;}
	.st3{fill:#5C3F23;}
	.st4{fill:#FFFFFF;}
	.st5{fill:none;}
	.st6{fill:#2E2012;}
	.st7{opacity:0.33;}
</style>
<g>
	<rect x="86.5" y="200.5" class="st0" width="2.3" height="80.3"/>
	<g>
		<path class="st1" d="M86.8,272.1c0.5,0.6,1.1,1.3,1.6,1.9c0.2,0.2,0.4-0.3,0.2-0.5c-0.5-0.6-1.1-1.3-1.6-1.9
			C86.8,271.3,86.6,271.8,86.8,272.1L86.8,272.1z"/>
	</g>
	<g>
		<path class="st1" d="M86.8,267c0.5,0.6,1.1,1.3,1.6,1.9c0.2,0.2,0.4-0.3,0.2-0.5c-0.5-0.6-1.1-1.3-1.6-1.9
			C86.8,266.2,86.6,266.8,86.8,267L86.8,267z"/>
	</g>
	<g>
		<path class="st1" d="M86.8,261.9c0.5,0.6,1.1,1.3,1.6,1.9c0.2,0.2,0.4-0.3,0.2-0.5c-0.5-0.6-1.1-1.3-1.6-1.9
			C86.8,261.2,86.6,261.7,86.8,261.9L86.8,261.9z"/>
	</g>
	<g>
		<path class="st1" d="M86.8,256.9c0.5,0.6,1.1,1.3,1.6,1.9c0.2,0.2,0.4-0.3,0.2-0.5c-0.5-0.6-1.1-1.3-1.6-1.9
			C86.8,256.1,86.6,256.6,86.8,256.9L86.8,256.9z"/>
	</g>
	<g>
		<path class="st1" d="M86.8,251.8c0.5,0.6,1.1,1.3,1.6,1.9c0.2,0.2,0.4-0.3,0.2-0.5c-0.5-0.6-1.1-1.3-1.6-1.9
			C86.8,251,86.6,251.6,86.8,251.8L86.8,251.8z"/>
	</g>
	<g>
		<path class="st1" d="M86.8,246.7c0.5,0.6,1.1,1.3,1.6,1.9c0.2,0.2,0.4-0.3,0.2-0.5c-0.5-0.6-1.1-1.3-1.6-1.9
			C86.8,245.9,86.6,246.5,86.8,246.7L86.8,246.7z"/>
	</g>
	<g>
		<path class="st1" d="M86.8,241.7c0.5,0.6,1.1,1.3,1.6,1.9c0.2,0.2,0.4-0.3,0.2-0.5c-0.5-0.6-1.1-1.3-1.6-1.9
			C86.8,240.9,86.6,241.4,86.8,241.7L86.8,241.7z"/>
	</g>
	<g>
		<path class="st1" d="M86.8,236.6c0.5,0.6,1.1,1.3,1.6,1.9c0.2,0.2,0.4-0.3,0.2-0.5c-0.5-0.6-1.1-1.3-1.6-1.9
			C86.8,235.8,86.6,236.4,86.8,236.6L86.8,236.6z"/>
	</g>
	<g>
		<path class="st1" d="M86.8,231.5c0.5,0.6,1.1,1.3,1.6,1.9c0.2,0.2,0.4-0.3,0.2-0.5c-0.5-0.6-1.1-1.3-1.6-1.9
			C86.8,230.7,86.6,231.3,86.8,231.5L86.8,231.5z"/>
	</g>
	<g>
		<path class="st1" d="M86.8,226.5c0.5,0.6,1.1,1.3,1.6,1.9c0.2,0.2,0.4-0.3,0.2-0.5c-0.5-0.6-1.1-1.3-1.6-1.9
			C86.8,225.7,86.6,226.2,86.8,226.5L86.8,226.5z"/>
	</g>
	<g>
		<path class="st1" d="M86.8,221.4c0.5,0.6,1.1,1.3,1.6,1.9c0.2,0.2,0.4-0.3,0.2-0.5c-0.5-0.6-1.1-1.3-1.6-1.9
			C86.8,220.6,86.6,221.2,86.8,221.4L86.8,221.4z"/>
	</g>
	<g>
		<path class="st1" d="M86.8,216.3c0.5,0.6,1.1,1.3,1.6,1.9c0.2,0.2,0.4-0.3,0.2-0.5c-0.5-0.6-1.1-1.3-1.6-1.9
			C86.8,215.5,86.6,216.1,86.8,216.3L86.8,216.3z"/>
	</g>
	<g>
		<path class="st1" d="M86.8,211.2c0.5,0.6,1.1,1.3,1.6,1.9c0.2,0.2,0.4-0.3,0.2-0.5c-0.5-0.6-1.1-1.3-1.6-1.9
			C86.8,210.5,86.6,211,86.8,211.2L86.8,211.2z"/>
	</g>
	<g>
		<path class="st1" d="M86.8,206.2c0.5,0.6,1.1,1.3,1.6,1.9c0.2,0.2,0.4-0.3,0.2-0.5c-0.5-0.6-1.1-1.3-1.6-1.9
			C86.8,205.4,86.6,205.9,86.8,206.2L86.8,206.2z"/>
	</g>
	<g>
		<path class="st1" d="M86.8,201.1c0.5,0.6,1.1,1.3,1.6,1.9c0.2,0.2,0.4-0.3,0.2-0.5c-0.5-0.6-1.1-1.3-1.6-1.9
			C86.8,200.3,86.6,200.8,86.8,201.1L86.8,201.1z"/>
	</g>
</g>
<polygon class="st2" points="153.9,330.8 153.9,309.2 139.3,308 153.9,305.1 153.9,298.1 124.6,296.6 153.9,292.8 153.9,271.7 
	15.1,271.7 15.1,280.6 30.2,281.8 15.1,284.8 15.1,299.2 42.6,300.5 15.1,303.9 15.1,326.6 24.4,327.3 15.1,329.2 15.1,338.9 
	18.2,338.1 15.1,341.9 15.1,362.3 153.9,362.3 153.9,336.5 121.2,334.9 "/>
<polyline class="st3" points="15.1,281.8 15.1,296.2 24.8,297.6 15.1,301 15.1,323.7 24.4,324.4 15.1,326.3 15.1,336.7 18.6,337.9 
	15.1,341.1 15.1,359.4 153.9,359.4 153.9,333.6 140.9,332 153.9,327.9 153.9,306.2 139.3,305.1 153.9,302.2 153.9,295.2 136,293.7 
	153.9,289.9 153.9,268.8 15.1,268.8 15.1,277.7 "/>
<line class="st4" x1="15.1" y1="281.8" x2="15.1" y2="277.7"/>
<line class="st4" x1="15.1" y1="301" x2="15.1" y2="296.2"/>
<line class="st4" x1="15.1" y1="326.3" x2="15.1" y2="323.7"/>
<line class="st4" x1="15.1" y1="338.9" x2="15.1" y2="334.6"/>
<polyline class="st5" points="15.1,281.8 15.1,296.2 42.6,297.6 15.1,301 15.1,323.7 24.4,324.4 15.1,326.3 15.1,334.6 39.2,335.8 
	15.1,338.9 15.1,359.4 153.9,359.4 153.9,333.6 121.2,332 153.9,327.9 153.9,306.2 139.3,305.1 153.9,302.2 153.9,295.2 
	124.6,293.7 153.9,289.9 153.9,268.8 15.1,268.8 15.1,277.7 "/>
<circle class="st6" cx="87.1" cy="273.9" r="2.5"/>
<g>
	<rect x="36.9" y="5" class="st0" width="3" height="82.3"/>
	<g>
		<path class="st1" d="M37.2,78.4c0.7,0.6,1.4,1.3,2.1,1.9c0.3,0.2,0.5-0.3,0.3-0.6c-0.7-0.6-1.4-1.3-2.1-1.9
			C37.2,77.6,37,78.1,37.2,78.4L37.2,78.4z"/>
	</g>
	<g>
		<path class="st1" d="M37.2,73.2c0.7,0.6,1.4,1.3,2.1,1.9c0.3,0.2,0.5-0.3,0.3-0.6c-0.7-0.6-1.4-1.3-2.1-1.9
			C37.2,72.4,37,72.9,37.2,73.2L37.2,73.2z"/>
	</g>
	<g>
		<path class="st1" d="M37.2,68c0.7,0.6,1.4,1.3,2.1,1.9c0.3,0.2,0.5-0.3,0.3-0.6c-0.7-0.6-1.4-1.3-2.1-1.9
			C37.2,67.2,37,67.8,37.2,68L37.2,68z"/>
	</g>
	<g>
		<path class="st1" d="M37.2,62.8c0.7,0.6,1.4,1.3,2.1,1.9c0.3,0.2,0.5-0.3,0.3-0.6c-0.7-0.6-1.4-1.3-2.1-1.9
			C37.2,62,37,62.6,37.2,62.8L37.2,62.8z"/>
	</g>
	<g>
		<path class="st1" d="M37.2,57.6c0.7,0.6,1.4,1.3,2.1,1.9c0.3,0.2,0.5-0.3,0.3-0.6c-0.7-0.6-1.4-1.3-2.1-1.9
			C37.2,56.8,37,57.4,37.2,57.6L37.2,57.6z"/>
	</g>
	<g>
		<path class="st1" d="M37.2,52.4c0.7,0.6,1.4,1.3,2.1,1.9c0.3,0.2,0.5-0.3,0.3-0.6c-0.7-0.6-1.4-1.3-2.1-1.9
			C37.2,51.6,37,52.2,37.2,52.4L37.2,52.4z"/>
	</g>
	<g>
		<path class="st1" d="M37.2,47.2c0.7,0.6,1.4,1.3,2.1,1.9c0.3,0.2,0.5-0.3,0.3-0.6c-0.7-0.6-1.4-1.3-2.1-1.9
			C37.2,46.4,37,47,37.2,47.2L37.2,47.2z"/>
	</g>
	<g>
		<path class="st1" d="M37.2,42c0.7,0.6,1.4,1.3,2.1,1.9c0.3,0.2,0.5-0.3,0.3-0.6c-0.7-0.6-1.4-1.3-2.1-1.9
			C37.2,41.2,37,41.8,37.2,42L37.2,42z"/>
	</g>
	<g>
		<path class="st1" d="M37.2,36.8c0.7,0.6,1.4,1.3,2.1,1.9c0.3,0.2,0.5-0.3,0.3-0.6c-0.7-0.6-1.4-1.3-2.1-1.9
			C37.2,36,37,36.6,37.2,36.8L37.2,36.8z"/>
	</g>
	<g>
		<path class="st1" d="M37.2,31.6c0.7,0.6,1.4,1.3,2.1,1.9c0.3,0.2,0.5-0.3,0.3-0.6c-0.7-0.6-1.4-1.3-2.1-1.9
			C37.2,30.8,37,31.4,37.2,31.6L37.2,31.6z"/>
	</g>
	<g>
		<path class="st1" d="M37.2,26.4c0.7,0.6,1.4,1.3,2.1,1.9c0.3,0.2,0.5-0.3,0.3-0.6c-0.7-0.6-1.4-1.3-2.1-1.9
			C37.2,25.6,37,26.2,37.2,26.4L37.2,26.4z"/>
	</g>
	<g>
		<path class="st1" d="M37.2,21.2c0.7,0.6,1.4,1.3,2.1,1.9c0.3,0.2,0.5-0.3,0.3-0.6c-0.7-0.6-1.4-1.3-2.1-1.9
			C37.2,20.4,37,21,37.2,21.2L37.2,21.2z"/>
	</g>
	<g>
		<path class="st1" d="M37.2,16c0.7,0.6,1.4,1.3,2.1,1.9c0.3,0.2,0.5-0.3,0.3-0.6c-0.7-0.6-1.4-1.3-2.1-1.9
			C37.2,15.2,37,15.8,37.2,16L37.2,16z"/>
	</g>
	<g>
		<path class="st1" d="M37.2,10.9c0.7,0.6,1.4,1.3,2.1,1.9c0.3,0.2,0.5-0.3,0.3-0.6c-0.7-0.6-1.4-1.3-2.1-1.9
			C37.2,10,37,10.6,37.2,10.9L37.2,10.9z"/>
	</g>
	<g>
		<path class="st1" d="M37.2,5.6c0.7,0.6,1.4,1.3,2.1,1.9c0.3,0.2,0.5-0.3,0.3-0.6c-0.7-0.6-1.4-1.3-2.1-1.9
			C37.2,4.8,37,5.4,37.2,5.6L37.2,5.6z"/>
	</g>
</g>
<g>
	<rect x="122.7" y="5" class="st0" width="3" height="82.3"/>
	<g>
		<path class="st1" d="M123,78.4c0.7,0.6,1.4,1.3,2.1,1.9c0.3,0.2,0.5-0.3,0.3-0.6c-0.7-0.6-1.4-1.3-2.1-1.9
			C123,77.6,122.8,78.1,123,78.4L123,78.4z"/>
	</g>
	<g>
		<path class="st1" d="M123,73.2c0.7,0.6,1.4,1.3,2.1,1.9c0.3,0.2,0.5-0.3,0.3-0.6c-0.7-0.6-1.4-1.3-2.1-1.9
			C123,72.4,122.8,72.9,123,73.2L123,73.2z"/>
	</g>
	<g>
		<path class="st1" d="M123,68c0.7,0.6,1.4,1.3,2.1,1.9c0.3,0.2,0.5-0.3,0.3-0.6c-0.7-0.6-1.4-1.3-2.1-1.9
			C123,67.2,122.8,67.8,123,68L123,68z"/>
	</g>
	<g>
		<path class="st1" d="M123,62.8c0.7,0.6,1.4,1.3,2.1,1.9c0.3,0.2,0.5-0.3,0.3-0.6c-0.7-0.6-1.4-1.3-2.1-1.9
			C123,62,122.8,62.6,123,62.8L123,62.8z"/>
	</g>
	<g>
		<path class="st1" d="M123,57.6c0.7,0.6,1.4,1.3,2.1,1.9c0.3,0.2,0.5-0.3,0.3-0.6c-0.7-0.6-1.4-1.3-2.1-1.9
			C123,56.8,122.8,57.4,123,57.6L123,57.6z"/>
	</g>
	<g>
		<path class="st1" d="M123,52.4c0.7,0.6,1.4,1.3,2.1,1.9c0.3,0.2,0.5-0.3,0.3-0.6c-0.7-0.6-1.4-1.3-2.1-1.9
			C123,51.6,122.8,52.2,123,52.4L123,52.4z"/>
	</g>
	<g>
		<path class="st1" d="M123,47.2c0.7,0.6,1.4,1.3,2.1,1.9c0.3,0.2,0.5-0.3,0.3-0.6c-0.7-0.6-1.4-1.3-2.1-1.9
			C123,46.4,122.8,47,123,47.2L123,47.2z"/>
	</g>
	<g>
		<path class="st1" d="M123,42c0.7,0.6,1.4,1.3,2.1,1.9c0.3,0.2,0.5-0.3,0.3-0.6c-0.7-0.6-1.4-1.3-2.1-1.9
			C123,41.2,122.8,41.8,123,42L123,42z"/>
	</g>
	<g>
		<path class="st1" d="M123,36.8c0.7,0.6,1.4,1.3,2.1,1.9c0.3,0.2,0.5-0.3,0.3-0.6c-0.7-0.6-1.4-1.3-2.1-1.9
			C123,36,122.8,36.6,123,36.8L123,36.8z"/>
	</g>
	<g>
		<path class="st1" d="M123,31.6c0.7,0.6,1.4,1.3,2.1,1.9c0.3,0.2,0.5-0.3,0.3-0.6c-0.7-0.6-1.4-1.3-2.1-1.9
			C123,30.8,122.8,31.4,123,31.6L123,31.6z"/>
	</g>
	<g>
		<path class="st1" d="M123,26.4c0.7,0.6,1.4,1.3,2.1,1.9c0.3,0.2,0.5-0.3,0.3-0.6c-0.7-0.6-1.4-1.3-2.1-1.9
			C123,25.6,122.8,26.2,123,26.4L123,26.4z"/>
	</g>
	<g>
		<path class="st1" d="M123,21.2c0.7,0.6,1.4,1.3,2.1,1.9c0.3,0.2,0.5-0.3,0.3-0.6c-0.7-0.6-1.4-1.3-2.1-1.9
			C123,20.4,122.8,21,123,21.2L123,21.2z"/>
	</g>
	<g>
		<path class="st1" d="M123,16c0.7,0.6,1.4,1.3,2.1,1.9c0.3,0.2,0.5-0.3,0.3-0.6c-0.7-0.6-1.4-1.3-2.1-1.9
			C123,15.2,122.8,15.8,123,16L123,16z"/>
	</g>
	<g>
		<path class="st1" d="M123,10.9c0.7,0.6,1.4,1.3,2.1,1.9c0.3,0.2,0.5-0.3,0.3-0.6c-0.7-0.6-1.4-1.3-2.1-1.9
			C123,10,122.8,10.6,123,10.9L123,10.9z"/>
	</g>
	<g>
		<path class="st1" d="M123,5.6c0.7,0.6,1.4,1.3,2.1,1.9c0.3,0.2,0.5-0.3,0.3-0.6c-0.7-0.6-1.4-1.3-2.1-1.9
			C123,4.8,122.8,5.4,123,5.6L123,5.6z"/>
	</g>
</g>
<g>
	<path class="st2" d="M144.5,146.3l16.8-1.2c-0.5-16.9-6.6-32.4-16.4-44.8l-19.3-1.8l14-4.2c-13.8-14-33-22.7-54.2-22.7
		c-24.7,0-46.6,11.7-60.5,29.9l8.8,3.7l-12.8,2c-4.9,7.9-8.5,16.7-10.3,26.2l-0.6,2l-0.5,5.9c-0.2,2.1-0.3,4.2-0.3,6.3
		c0,8.4,1.4,16.4,3.9,24l16.6,2l-15,2.4c11.2,28,38.6,47.7,70.6,47.7c22.6,0,42.9-9.8,56.8-25.5l-15.6-6.1l21.5-1.5
		c8.1-11.8,13-25.9,13.3-41.2L144.5,146.3z"/>
</g>
<g>
	<path class="st3" d="M142.9,143.3l16.8-1.2c-0.5-16.9-6.6-32.4-16.4-44.8l-19.3-1.8l14-4.2c-13.8-14-33-22.7-54.2-22.7
		c-24.7,0-46.6,11.7-60.5,29.9l8.8,3.7l-12.8,2c-4.9,7.9-8.5,16.7-10.3,26.2l-0.6,2l-0.5,5.9c-0.2,2.1-0.3,4.2-0.3,6.3
		c0,8.4,1.4,16.4,3.9,24l16.6,2L13,173c11.2,28,38.6,47.7,70.6,47.7c22.6,0,42.9-9.8,56.8-25.5l-15.6-6.1l21.5-1.5
		c8.1-11.8,13-25.9,13.3-41.2L142.9,143.3z"/>
</g>
<g>
	<path class="st5" d="M131.2,143.2l28.5-1.1c-0.5-16.9-6.6-32.4-16.4-44.8l-19.2-1.8l13.8-4.3c-13.8-14-33-22.7-54.2-22.7
		c-24.7,0-46.6,11.7-60.5,29.9l15.5,3.1l-19.5,2.7c-4.9,7.9-8.5,16.7-10.3,26.2l51.1,5.9l-52.1,2c-0.2,2.1-0.3,4.2-0.3,6.3
		c0,8.4,1.4,16.4,3.9,24l28.8,3.3L13,173c11.2,28,38.6,47.7,70.6,47.7c22.6,0,42.9-9.8,56.8-25.5L93,189.8l53.3-2.1
		c8.1-11.8,13-25.9,13.3-41.2L131.2,143.2z"/>
</g>
<g class="st7">
	<path class="st3" d="M79.9,269.1c7.9-0.1,15.8-0.1,23.7-0.2c0.6,0,1.1,0,1.7,0H15.1v0.4C36.7,269.3,58.3,269.3,79.9,269.1z"/>
	<path class="st6" d="M126.2,268.6c-6.9-0.2-14,0.1-20.9,0.3h27.3C130.5,268.7,128.3,268.6,126.2,268.6z"/>
	<path class="st6" d="M122.8,270.2c10.3,0,20.8,1,31.1,2.5v-1.7c-7-1-14.2-1.7-21.3-2h-27.3c-0.6,0-1.1,0-1.7,0
		c-7.9,0.1-15.8,0.2-23.7,0.2c-21.6,0.1-43.2,0.1-64.8,0.1v1.7c21.1,0,42.3,0,63.4-0.2C93.3,270.7,108.1,270.1,122.8,270.2z"/>
	<path class="st6" d="M97.9,274.7c18.8,0.6,37.4,1.9,56,3.3v-1.7c-18.1-1.4-36.2-2.5-54.5-3.2c-13.3-0.5-26.7-0.9-40-0.1
		c-14.7,0.8-29.5,1.1-44.3,1.4v1.6c14.5-0.3,29-0.6,43.4-1.3C71.6,274,84.7,274.3,97.9,274.7z"/>
	<path class="st6" d="M88,278c8,0.2,15.8,1.7,23.4,2.9c11.8,1.9,23.5,3.9,35.3,5.7c2.4,0.4,4.8,0.7,7.2,1.1v-1.8
		c-0.2,0-0.3,0-0.5-0.1c-12-1.7-23.9-3.7-35.8-5.7c-8.6-1.4-17.5-3.1-26.5-3.6c-5.5-0.3-11.2-0.2-16.7-0.1
		c-19.8,0.3-39.7,1.3-59.4,2.5v1.6c18.6-1.1,37.3-2,56-2.4C76.7,277.9,82.3,277.8,88,278z"/>
	<path class="st6" d="M39.9,285.7c0-2.1-13.8-1.7-24.8-1.1v1.8c2.6-0.1,5.1-0.2,7.7-0.3c2.7-0.1,5.4-0.2,8.1-0.2c1.2,0,2.3,0,3.5,0
		c0.1,0,0.2,0,0.3,0c-3.6,1-8.4,1.4-12,1.9c-2.5,0.4-5.1,0.7-7.6,1v1.8c3.4-0.5,6.8-0.9,10.2-1.5C27.7,288.8,39.9,287.6,39.9,285.7z
		"/>
	<path class="st6" d="M33.9,328.9c-6.3,0.2-12.5,0.3-18.8,0.4v1.6c5.8-0.1,11.6-0.2,17.5-0.4c16.6-0.4,33-1.3,49.7-1.3
		c21.5,0,43,0.4,64.5,1l5.1-1.6c-22.8-0.6-45.7-1-68.6-1C66.8,327.6,50.4,328.5,33.9,328.9z"/>
	<path class="st6" d="M42.9,325.3c-9.2-0.1-18.6-0.9-27.8-2.2v0.7l9.4,0.7l-4.5,0.9c6.5,0.7,13,1.2,19.5,1.5
		c7.5,0.3,15.1-0.1,22.6-0.1c7.9-0.1,15.8-0.1,23.7-0.1c22.7,0,45.4,0.2,68.1,0.4v-1.7c-22.2-0.2-44.4-0.3-66.7-0.3
		C72.5,325,57.7,325.5,42.9,325.3z"/>
	<path class="st6" d="M68,321c-17.7-0.7-35.3-2-52.9-3.5v1.7c17,1.4,34.1,2.6,51.3,3.3c13.3,0.6,26.7,1.1,40,0.4
		c15.7-0.8,31.7-0.9,47.5-1.1v-1.6c-15.5,0.3-31.1,0.4-46.6,1.1C94.2,321.9,81.2,321.5,68,321z"/>
	<path class="st6" d="M77.9,317.8c-8-0.3-15.8-1.8-23.4-3c-11.7-2-23.4-4.1-35.2-5.9c-1.4-0.2-2.8-0.4-4.2-0.7v1.8
		c11.1,1.7,22.1,3.7,33.1,5.5c8.6,1.5,17.4,3.2,26.4,3.8c5.5,0.4,11.2,0.3,16.7,0.3c20.9-0.2,41.8-1.1,62.5-2.2v-1.6
		c-19.6,1-39.4,1.8-59.1,2.1C89.2,317.9,83.5,318,77.9,317.8z"/>
	<path class="st6" d="M105.3,307.5c-8.7,1-17.4,2-25.9,3.3c-3,0.5-6.2,0.9-9,1.7c-0.7,0.2-1.8,0.6-1.8,1.1c0.2,1.9,7.7,1.7,10.1,1.8
		c15.3,0.5,30.8,0.1,46.1-0.2c9.7-0.2,19.3-0.4,29-0.7v-1.6c-22.5,0.7-45,1.2-67.6,1c-2.8,0-5.6-0.1-8.4-0.2c-1.1,0-2.1-0.1-3.2-0.2
		c-0.5,0-0.8-0.1-1.1-0.1c1.3-0.3,3.1-0.5,3.8-0.7c13.1-2.3,26.8-3.7,40.3-5.3c7.2-0.8,14.4-1.6,21.6-2.3l-0.1,0l14.5-2.9V302
		c-2.6,0.3-5.3,0.7-7.6,1C132.6,304.5,118.9,305.9,105.3,307.5z"/>
	<path class="st6" d="M126.1,310.4c-0.1,2.3,16.6,1.7,27.8,1.1v-1.7c-3.6,0.1-7.1,0.3-10.7,0.4c-2.7,0.1-5.4,0.1-8.1,0.1
		c-1.2,0-2.3,0-3.5,0c-0.1,0-0.2,0-0.2,0c3.6-1,8.4-1.3,12-1.8c3.5-0.5,7-0.9,10.6-1.4v-0.7l-5.2-0.4c-2.7,0.4-5.3,0.7-8,1.1
		C138.3,307.3,126.2,308.5,126.1,310.4z"/>
	<path class="st6" d="M96.5,298c-0.6,0-0.9,0.1-1.1,0.4c-5.3,0.4-10.7,1.2-15.8,1.7c-6.1,0.6-12.3,1.1-18.4,1.5c-4,0.3-8,0.6-12,0.3
		c-10-0.8-20.1-1.4-30.1-2.1l-3.9,1.4v0.1c11.2,0.7,22.4,1.4,33.6,2.2c9,0.7,19.1-0.7,27.9-1.5c8.7-0.7,17.4-1.5,26-2.4
		c9.8,0.1,19.6,0.3,29.4,0.5c-6.2,0.1-12.4,1.2-18.3,1.8c-17.1,1.8-34,4-51.1,5.8c-6.8,0.7-13.6,1.1-20.5,0.2
		c-6.1-0.7-12.1-1.8-18.2-2.6c-2.9-0.4-5.8-0.7-8.8-1.1v1.8c1.1,0.1,2.2,0.2,3.3,0.4c12.1,1.4,24.4,4.3,36.9,3.6
		c7.5-0.4,14.9-1.4,22.2-2.3c8.9-1.1,17.9-2.1,26.9-3c7.7-0.8,15.3-1.6,23-2.4c2.7-0.3,5.9-0.3,8.5-0.9c0.2,0,0.4-0.1,0.6-0.1
		c0.7-0.3,0.4-1-0.5-1.1c6,0.1,12,0.2,18,0.4v-1.7c-6.4-0.1-12.7-0.2-19.1-0.3C122,298.3,109.2,298.2,96.5,298z"/>
	<path class="st6" d="M153.9,289.7c-2.1-0.2-4.1-0.4-6.2-0.7c-12.1-1.3-24.4-4.1-36.9-3.3c-7.5,0.5-14.9,1.5-22.2,2.5
		c-8.9,1.2-17.8,2.2-26.8,3.2c-7.6,0.9-15.3,1.7-23,2.5c-2.7,0.3-5.9,0.4-8.5,0.9c-0.3,0-0.4,0.1-0.6,0.2c-0.2,0.1-0.3,0.2-0.3,0.3
		c-4.8-0.1-9.5-0.3-14.3-0.4v1.4l2.6,0.4c4.6,0.1,9.1,0.2,13.7,0.3c10.5,0.2,21,0.4,31.5,0.6c0,0,0.1,0,0.1,0c0,0,0,0,0,0
		c0.1,0,0.1,0,0.2,0c0,0,0,0,0,0c0,0,0.1,0,0.1,0c0,0,0.1,0,0.1,0c1.6,0.1,3.3,0.1,4.9,0c0.4,0,0.9,0,1.3,0c0.4,0,0.6-0.1,0.8-0.1
		c5.4-0.4,10.9-1.3,16-1.8c6.1-0.6,12.2-1.2,18.4-1.6c3.9-0.3,8-0.6,12-0.4c12.3,0.9,24.6,1.5,36.9,2.2v-0.7l-17.8-1.5l2-0.4
		c-6.9-0.4-13.8-0.8-20.7-1.2c-9-0.6-19.1,0.8-27.9,1.7c-8.1,0.7-16.1,1.6-24.1,2.4c-0.4,0-0.8,0-1.2-0.1
		c-7.6-0.2-15.1-0.4-22.7-0.5c3.7-0.4,7.4-1,11-1.4c17-2,33.9-4.2,51-6.2c6.8-0.8,13.6-1.2,20.5-0.4c6.1,0.7,12.1,1.7,18.2,2.4
		c2.4,0.3,4.9,0.6,7.4,0.9l4.4-0.9V289.7z"/>
	<path class="st6" d="M19.9,293.2c13.6-1.5,27.3-3.1,40.9-4.8c8.7-1.1,17.3-2.2,25.8-3.5c3-0.5,6.2-0.9,8.9-1.8
		c0.7-0.2,1.8-0.6,1.8-1.1c-0.3-1.9-7.7-1.6-10.2-1.7c-15.3-0.4-30.8,0.1-46.1,0.5c-8.6,0.2-17.3,0.5-25.9,0.8v0.3v1.3
		c21.5-0.8,43-1.4,64.5-1.4c2.8,0,5.6,0,8.4,0.1c1.1,0,2.1,0.1,3.2,0.1c0.5,0,0.8,0.1,1.1,0.1c-1.3,0.3-3,0.6-3.8,0.7
		c-13.1,2.4-26.8,3.9-40.2,5.6c-11,1.3-22,2.6-33.1,3.7v1.6C16.8,293.6,18.4,293.4,19.9,293.2z"/>
	<path class="st6" d="M82.7,333.5c-22.5,0.2-45.1-0.1-67.6-0.6v1.7c22.2,0.4,44.4,0.7,66.6,0.5c16.5-0.1,32.8-1.1,49.3-1.7
		c5.8-0.2,11.7-0.4,17.5-0.5l-7.7-0.9l1.7-0.5c-3.4,0.1-6.8,0.2-10.2,0.3C115.8,332.4,99.3,333.4,82.7,333.5z"/>
	<path class="st6" d="M102.9,335.9c-7.9,0.1-15.8,0.2-23.7,0.2c-21.4,0.1-42.7,0.1-64.1,0.1v0.6l3.3,1.2c19.8,0,39.6,0,59.3-0.2
		c14.8-0.1,29.6-0.7,44.3-0.6c10.5,0,21.3,1,31.8,2.6V338c-9.4-1.3-19-2.1-28.4-2.4C118,335.4,110.4,335.8,102.9,335.9z"/>
	<path class="st6" d="M58.7,340c-14.4,0.8-29,1.1-43.6,1.4v1.6c14.2-0.3,28.5-0.6,42.7-1.3c13.1-0.7,26.2-0.4,39.4,0
		c19,0.6,37.9,1.9,56.7,3.4v-1.7c-18.3-1.4-36.7-2.6-55.2-3.2C85.4,339.6,72,339.2,58.7,340z"/>
	<path class="st6" d="M116.9,347.1c-8.6-1.4-17.5-3.1-26.4-3.6c-5.5-0.3-11.2-0.2-16.7-0.1c-19.6,0.3-39.2,1.3-58.7,2.4v1.6
		c18.4-1.1,36.8-1.9,55.3-2.4c5.6-0.1,11.2-0.2,16.9-0.1c8,0.2,15.8,1.7,23.4,2.9c11.8,1.9,23.5,3.9,35.3,5.7
		c2.6,0.4,5.3,0.8,7.9,1.2v-1.8c-0.4-0.1-0.8-0.1-1.2-0.2C140.7,351.1,128.8,349,116.9,347.1z"/>
	<path class="st6" d="M85.9,352c3-0.5,6.2-0.9,8.9-1.8c0.7-0.2,1.8-0.6,1.8-1.1c-0.3-1.9-7.7-1.6-10.2-1.7
		c-15.3-0.4-30.8,0.1-46.1,0.5c-8.4,0.2-16.8,0.5-25.2,0.8v1.6c21.2-0.8,42.5-1.4,63.8-1.3c2.8,0,5.6,0,8.4,0.1
		c1.1,0,2.1,0.1,3.2,0.1c0.5,0,0.8,0.1,1.1,0.1c-1.3,0.3-3,0.6-3.8,0.7c-13.1,2.4-26.8,3.9-40.2,5.6c-10.8,1.3-21.6,2.5-32.4,3.7
		v0.3h10.8c11.4-1.3,22.8-2.6,34.1-4C68.7,354.4,77.4,353.3,85.9,352z"/>
	<path class="st6" d="M39.2,352.6c0-2-13.2-1.7-24.1-1.1v1.8c2.3-0.1,4.7-0.2,7-0.3c2.7-0.1,5.4-0.2,8.1-0.2c1.2,0,2.3,0,3.5,0
		c0.1,0,0.2,0,0.2,0c-3.6,1-8.4,1.4-12,1.9c-2.3,0.3-4.6,0.6-6.9,0.9v1.8c3.2-0.4,6.4-0.9,9.5-1.4C27,355.8,39.1,354.6,39.2,352.6z"
		/>
	<path class="st6" d="M38.1,360.9c-2.7,0.3-5.9,0.4-8.5,0.9c-0.2,0-0.4,0.1-0.6,0.2c-0.7,0.3-0.3,1.1,0.8,1.1c0,0,0,0,0.1,0
		c7.4,0.4,14.8-1.1,22-1.9c4.9-0.6,9.8-1.2,14.7-1.8H51.7C47.2,360,42.6,360.5,38.1,360.9z"/>
	<path class="st6" d="M110,352.7c-7.5,0.5-14.9,1.5-22.2,2.5c-8.9,1.2-17.8,2.2-26.8,3.2c-3.1,0.4-6.2,0.7-9.3,1h14.8
		c12.1-1.5,24.2-3,36.3-4.4c6.8-0.8,13.6-1.2,20.5-0.4c6.1,0.7,12.1,1.7,18.2,2.4c4.1,0.5,8.3,1,12.5,1.5v-1.8
		c-2.3-0.2-4.6-0.5-6.9-0.7C134.8,354.7,122.5,351.9,110,352.7z"/>
	<path class="st6" d="M102.4,359.5h19.4c-1.7-0.1-3.4-0.2-5.1-0.3C112.1,358.8,107.2,359,102.4,359.5z"/>
</g>
<g class="st7">
	<path class="st5" d="M158.2,126.1c-0.2,0-0.4,0-0.6,0c0,0,0,0,0,0C157.8,126.1,158,126.1,158.2,126.1z"/>
	<path class="st5" d="M149.2,143.4c0-0.2,0.1-0.3,0.2-0.5l-6.3,0.5l7.8,1.5C149.7,144.5,149.1,144,149.2,143.4z"/>
	<path class="st3" d="M99.8,219c-4,0.5-8.1,1.1-12.1,1.6C91.9,220.4,95.9,219.9,99.8,219z"/>
	<path class="st6" d="M108.8,72.8c-2.8-1-5.6-1.8-8.5-2.4c-5.7,0.2-11.4,0.3-17.1,0.4c-6,0.1-11.9,0.1-17.9,0.1
		c-3,0.7-5.9,1.7-8.7,2.8c8.4,0,16.7,0,25.1-0.1C90.7,73.4,99.8,73.1,108.8,72.8z"/>
	<path class="st6" d="M118.6,77c-1.6-0.8-3.3-1.6-4.9-2.3c-12,0.2-23.9,0.3-35.9,0.4c-8.4,0.1-16.8,0.1-25.2,0.2
		c-1.9,0.9-3.8,1.8-5.6,2.8c9.5-0.1,19.1-0.1,28.6-0.2C89.9,77.7,104.3,77.3,118.6,77z"/>
	<path class="st6" d="M105.5,84.2c8.7,0.3,17.4,0.7,26,1.1c-1.3-1-2.5-2-3.9-2.9c-6.6-0.3-13.1-0.6-19.7-0.9
		c-20.6-0.7-41.4-1.4-61.9-0.1c-1.7,0.1-3.4,0.2-5,0.3c-1.3,0.9-2.7,1.9-3.9,2.9c2.5-0.1,5-0.2,7.6-0.4
		C64.9,83.2,85.1,83.6,105.5,84.2z"/>
	<path class="st6" d="M90.2,89.7c12.3,0.3,24.5,2.7,36.2,4.7c0.3,0.1,0.6,0.1,0.9,0.2l6.1-1.9c-12.5-2.2-25.3-4.7-38.3-5.5
		c-8.6-0.5-17.3-0.3-25.9-0.2c-12.2,0.2-24.3,0.6-36.5,1.2c-1,0.9-2.1,1.9-3,2.9c11.4-0.5,22.8-0.9,34.3-1.2
		C72.8,89.6,81.5,89.5,90.2,89.7z"/>
	<path class="st6" d="M13.6,174c0.4,0.9,0.8,1.8,1.2,2.7c22.1-0.8,44.2-1.9,66.4-2c24,0,48.1,0.3,72.1,0.8c0.4-0.9,0.8-1.9,1.2-2.8
		c-23.9-0.5-47.8-0.8-71.7-0.7C59.6,172,36.7,173.2,13.6,174z"/>
	<path class="st6" d="M88.9,167.7c-22.8,0-45.7,0.9-68.6,0.6c-3,0-6-0.1-9-0.2c0.1,0.2,0.1,0.4,0.2,0.6l16.6,2l-2.3,0.4
		c8.1,0,16.2-0.4,24.2-0.4c12.2-0.1,24.4-0.2,36.6-0.2c22.9,0,45.7,0.1,68.6,0.2c0.3-0.9,0.7-1.9,1-2.9
		C133.9,167.7,111.4,167.6,88.9,167.7z"/>
	<path class="st6" d="M59.1,161c-16.8-0.7-33.5-1.7-50.2-3c0.2,1,0.4,1.9,0.6,2.8c15.7,1.1,31.4,2.1,47.2,2.8
		c20.6,0.9,41.4,1.7,61.9,0.6c13-0.7,26-1.1,39.1-1.4c0.2-0.9,0.4-1.8,0.6-2.6c-12.8,0.3-25.5,0.6-38.3,1.2
		C99.7,162.4,79.6,161.9,59.1,161z"/>
	<path class="st6" d="M74.5,155.7c-12.3-0.4-24.4-2.9-36.2-5c-10.2-1.8-20.4-3.7-30.6-5.6c0,1,0,1.9,0.1,2.9
		c7,1.3,13.9,2.6,20.8,3.8c13.3,2.4,27,5.3,40.8,6.3c8.5,0.6,17.3,0.5,25.9,0.4c21.2-0.2,42.5-1,63.6-2c0.1-0.9,0.3-1.8,0.4-2.8
		c-19.5,0.9-39.1,1.6-58.7,2C92,155.9,83.2,156,74.5,155.7z"/>
	<path class="st6" d="M76.9,144.1c-4.7,0.8-9.6,1.5-13.9,2.8c-1.1,0.3-2.8,1-2.7,1.9c0.4,3.1,11.9,2.8,15.7,2.9
		c23.7,0.8,47.6,0.1,71.3-0.4c4.1-0.1,8.2-0.2,12.4-0.3c0.1-0.9,0.1-1.7,0.2-2.6c-24.1,0.6-48.2,1-72.2,0.8c-4.3,0-8.6-0.1-12.9-0.3
		c-1.6-0.1-3.3-0.1-4.9-0.3c-0.7,0-1.2-0.1-1.7-0.2c2-0.5,4.7-0.9,5.9-1.1c20.3-3.8,41.5-6.3,62.4-8.8c7.7-0.9,15.3-1.8,23-2.7
		c-0.1-0.8-0.2-1.6-0.3-2.4c-14.1,1.6-28.1,3.3-42.1,5C103.5,140.2,90.1,142,76.9,144.1z"/>
	<path class="st6" d="M155.1,145.6l-4.3-0.8C151.8,145.2,153.3,145.4,155.1,145.6z"/>
	<path class="st6" d="M149.3,142.9l10.5-0.8c0-0.9-0.1-1.8-0.1-2.7C154.9,140.3,150.3,141.4,149.3,142.9z"/>
	<path class="st6" d="M101.6,123.5c-8.3,0.6-16.6,2-24.4,2.8c-9.5,0.9-19,1.8-28.5,2.5c-6.1,0.5-12.4,1-18.6,0.5
		c-6.8-0.5-13.6-1.1-20.4-1.6c-0.2,0.9-0.4,1.8-0.6,2.7l0,0c6.8,0.5,13.5,1,20.3,1.5c14,1.1,29.5-1.2,43.2-2.5
		c13.5-1.2,26.9-2.6,40.3-4.1c14.9,0.2,29.9,0.5,44.8,0.7c-0.2-0.9-0.5-1.8-0.7-2.7c-17.9-0.2-35.8-0.3-53.6-0.6
		C102.4,122.9,101.8,123.1,101.6,123.5z"/>
	<path class="st6" d="M129.9,129.1c-26.4,3.1-52.6,6.7-79.1,9.8c-10.5,1.2-21,1.8-31.7,0.4c-3.7-0.5-7.4-1-11.1-1.6L8,138.3
		c-0.1,0.8-0.1,1.5-0.2,2.3c10.5,1.5,21,2.7,31.6,2c11.7-0.7,23-2.4,34.4-3.9c13.8-1.8,27.7-3.5,41.6-5.1c11.9-1.4,23.7-2.7,35.6-4
		c2.2-0.2,4.7-0.4,7.2-0.6c-0.2-1-0.4-2-0.7-2.9C148.3,126.4,138.9,128.1,129.9,129.1z"/>
	<path class="st6" d="M125.4,102.5c-11.7,0.8-23,2.6-34.3,4.2c-13.8,1.9-27.6,3.7-41.5,5.4c-11.8,1.5-23.7,2.9-35.6,4.2
		c-0.3,0-0.6,0.1-0.9,0.1c-0.7,1.7-1.3,3.4-1.8,5.1c13.3,0.2,26.7,0.5,40,0.7c0.1,0,0.1,0,0.2,0.1c0,0,0,0,0,0
		c0.1,0,0.2,0.1,0.3,0.1c0,0,0,0,0.1,0c0.1,0,0.1,0,0.2,0c0.1,0,0.1,0,0.2,0c2.5,0.1,5,0.1,7.6,0c0.7,0,1.4,0,2,0
		c0.6,0,1-0.1,1.3-0.3c8.4-0.7,16.8-2.2,24.8-3c9.5-1,18.9-2,28.5-2.7c6.1-0.5,12.4-1.1,18.6-0.6c6.6,0.5,13.1,0.9,19.7,1.3
		c-0.4-1-0.8-1.9-1.2-2.9c-6-0.4-11.9-0.8-17.9-1.2c-14-1-29.5,1.4-43.1,2.8c-12.5,1.3-24.9,2.6-37.3,4.1c-0.6,0-1.3-0.1-1.9-0.1
		c-11.7-0.3-23.4-0.5-35.1-0.8c5.7-0.7,11.4-1.6,17-2.3c26.4-3.3,52.5-7.1,78.9-10.4c10.5-1.3,21-2,31.6-0.7
		c1.2,0.1,2.4,0.3,3.6,0.5c-0.6-1-1.2-2-1.9-3C140.2,102.3,132.8,102,125.4,102.5z"/>
	<path class="st6" d="M48.1,107.2c13.4-1.8,26.8-3.6,40-5.9c4.6-0.8,9.6-1.6,13.8-2.9c1.1-0.4,2.8-1,2.7-1.9
		c-0.4-3.1-12-2.7-15.7-2.8c-20.6-0.6-41.4,0-62.1,0.7c-0.8,0.9-1.5,1.8-2.3,2.7c17.6-0.5,35.2-0.8,52.7-0.8c4.3,0,8.6,0.1,12.9,0.2
		c1.7,0.1,3.3,0.1,4.9,0.2c0.7,0,1.2,0.1,1.7,0.1c-2,0.5-4.7,0.9-5.9,1.2c-20.2,4-41.4,6.6-62.3,9.3c-3.9,0.5-7.9,1-11.9,1.5
		c-0.5,0.9-0.9,1.7-1.3,2.6C26.3,110,37.2,108.6,48.1,107.2z"/>
	<path class="st6" d="M17.3,181.6c0.5,1,1.1,1.9,1.7,2.8c20.5,0.2,40.9,0.2,61.4,0c23.4-0.2,46.5-1.6,69.8-2.6
		c0.5-0.9,1-1.8,1.5-2.8c-23.2,1-46.4,2.4-69.7,2.6C60.4,182,38.9,181.9,17.3,181.6z"/>
	<path class="st6" d="M113.1,185.7c-12.2,0.2-24.4,0.3-36.6,0.5c-18.8,0.2-37.5,0.2-56.3,0.3c0.6,1,1.3,1.9,2,2.8
		c17.4-0.1,34.8-0.2,52.1-0.4c22.8-0.2,45.7-1.2,68.5-1.2c1.1,0,2.2,0,3.3,0l0.4,0c0.6-0.9,1.2-1.7,1.7-2.6c-0.1,0-0.1,0-0.2,0
		C136.5,184.7,124.7,185.4,113.1,185.7z"/>
	<path class="st6" d="M44.8,192.5c-6.4,0.4-12.8,0.7-19.2,1c0.7,0.9,1.5,1.7,2.2,2.5c5.2-0.2,10.4-0.5,15.6-0.7
		c20.3-1.1,40.5-0.7,60.9,0c11.7,0.4,23.3,1,34.9,1.6c0.5-0.5,1-1.1,1.5-1.6l-3.1-1.2c-10.3-0.6-20.6-1.1-30.9-1.4
		C86.1,191.9,65.3,191.2,44.8,192.5z"/>
	<path class="st6" d="M68.1,198c-12.4,0.2-24.8,0.7-37.2,1.2c0.9,0.9,1.9,1.8,2.9,2.7c9.7-0.4,19.4-0.8,29.1-1
		c8.7-0.2,17.4-0.4,26.1-0.2c12.3,0.3,24.5,2.7,36.2,4.7c1.2,0.2,2.4,0.4,3.6,0.6c1-0.8,2.1-1.6,3.1-2.4
		c-12.4-2.2-25.1-4.6-37.9-5.4C85.4,197.7,76.7,197.9,68.1,198z"/>
	<path class="st6" d="M100.6,209.4c1.1-0.4,2.8-1.1,2.7-1.9c-0.4-3.1-12-2.7-15.7-2.8c-16.6-0.4-33.4-0.1-50.1,0.3
		c1.2,0.9,2.4,1.8,3.6,2.6c11.6-0.2,23.3-0.4,34.9-0.4c4.3,0,8.6,0.1,12.9,0.2c1.6,0,3.3,0.1,5,0.2c0.7,0,1.2,0.1,1.7,0.1
		c-2,0.5-4.7,0.9-5.9,1.2c-11.6,2.3-23.5,4.1-35.5,5.8c1.6,0.7,3.1,1.3,4.8,1.8c9.3-1.3,18.7-2.7,27.9-4.2
		C91.4,211.5,96.4,210.7,100.6,209.4z"/>
	<path class="st6" d="M73.1,220c3.5,0.5,7.1,0.8,10.7,0.8c1.3,0,2.6,0,3.9-0.1c4-0.5,8.1-1.1,12.1-1.6c5-1.1,9.7-2.6,14.3-4.6
		c-8.2,0.9-16.2,2.1-24.3,3.3C84.3,218.5,78.7,219.3,73.1,220z"/>
</g>
</svg>
