<?xml version="1.0" encoding="utf-8"?>
<!-- Generator: Adobe Illustrator 21.0.0, SVG Export Plug-In . SVG Version: 6.00 Build 0)  -->
<svg version="1.1" id="Capa_1" xmlns="http://www.w3.org/2000/svg" xmlns:xlink="http://www.w3.org/1999/xlink" x="0px" y="0px"
	 viewBox="0 0 54 70" style="enable-background:new 0 0 54 70;" xml:space="preserve">
<style type="text/css">
	.st0{fill:#006F30;}
</style>
<g>
	<path class="st0" d="M12,56.8c-2.3-10.9-1.7-27.6,0.9-38.4c0.3-1.5,1.2-3.2,2.7-3.1c0.9,0.1,1.6,1,2,1.9c4.9,9.5,1.6,21-1.7,31.1
		c2.7-1.8,3.5-5.3,4.4-8.4c2.3-8,6.6-15.4,12.2-21.6C29.6,29,26.1,39.4,22,49.6C27.9,39.3,33.9,29,39.8,18.8
		C39,32.2,29.6,43.4,20.7,53.5c3.6-2.5,7.8-4.1,12.2-4.7c0.9-0.1,2,0,2.4,0.8c0.3,0.7-0.2,1.4-0.7,2c-4.2,4.9-14.9,5-20,9"/>
</g>
</svg>
