<?xml version="1.0" encoding="utf-8"?>
<!-- Generator: Adobe Illustrator 21.0.0, SVG Export Plug-In . SVG Version: 6.00 Build 0)  -->
<svg version="1.1" id="Capa_1" xmlns="http://www.w3.org/2000/svg" xmlns:xlink="http://www.w3.org/1999/xlink" x="0px" y="0px"
	 viewBox="0 0 120.4 221.1" style="enable-background:new 0 0 120.4 221.1;" xml:space="preserve">
<style type="text/css">
	.st0{fill:#A97C50;}
	.st1{fill:#8B5E3C;}
	.st2{fill:#FB6E51;}
	.st3{fill:#C64739;}
	.st4{fill:#EA573F;}
</style>
<g>
	<path class="st0" d="M55.5,207.7L55.1,9.5c0-0.9,0.7-1.6,1.6-1.6l4.8,0c0.9,0,1.6,0.7,1.6,1.6l0.3,198.2c0,0.9-0.7,1.6-1.6,1.6
		l-4.7,0.1C56.2,209.3,55.5,208.5,55.5,207.7z"/>
	<path class="st1" d="M55,14.4l8.1-0.1c0.9,0,1.6-0.7,1.6-1.6v0c0-0.9-0.7-1.6-1.6-1.6L55,11.2c-0.9,0-1.6,0.7-1.6,1.6v0
		C53.4,13.7,54.2,14.4,55,14.4z"/>
	<path class="st1" d="M55.4,64.5l8.1-0.1c0.9,0,1.6-0.7,1.6-1.6v0c0-0.9-0.7-1.6-1.6-1.6l-8.1,0.1c-0.9,0-1.6,0.7-1.6,1.6v0
		C53.8,63.8,54.5,64.5,55.4,64.5z"/>
	<path class="st2" d="M18.4,62.3l78.5-0.5c0.9,0,1.6-0.7,1.6-1.6l-0.3-44.8c0-0.9-0.7-1.6-1.6-1.6l-78.5,0.5c-0.9,0-1.6,0.7-1.6,1.6
		l0.3,44.8C16.8,61.6,17.5,62.3,18.4,62.3z"/>
	<path class="st3" d="M103.6,65.1l4,0c0.9,0,1.6-0.7,1.6-1.6l-0.3-51.5c0-0.9-0.7-1.6-1.6-1.6l-4,0c-0.9,0-1.6,0.7-1.6,1.6l0.3,51.5
		C102,64.4,102.7,65.1,103.6,65.1z"/>
	<path class="st4" d="M99,62.2l0.4,0.3c1,0.9,2.7,0.2,2.7-1.2l-0.3-47.3c0-1.4-1.7-2.1-2.7-1.1l-0.4,0.4c-0.3,0.3-0.5,0.7-0.5,1.2
		l0.3,46.6C98.5,61.5,98.6,61.9,99,62.2z"/>
	<path class="st3" d="M11.4,11l-4,0c-0.9,0-1.6,0.7-1.6,1.6l0.3,51.5c0,0.9,0.7,1.6,1.6,1.6l4,0c0.9,0,1.6-0.7,1.6-1.6L13,12.5
		C13,11.7,12.2,11,11.4,11z"/>
	<path class="st4" d="M16,13.8l-0.4-0.3c-1-0.9-2.7-0.2-2.7,1.2L13.3,62c0,1.4,1.7,2.1,2.7,1.1l0.4-0.4c0.3-0.3,0.5-0.7,0.5-1.2
		l-0.3-46.6C16.5,14.5,16.3,14.1,16,13.8z"/>
</g>
</svg>
