<?xml version="1.0" encoding="utf-8"?>
<!-- Generator: Adobe Illustrator 21.0.0, SVG Export Plug-In . SVG Version: 6.00 Build 0)  -->
<svg version="1.1" id="Capa_1" xmlns="http://www.w3.org/2000/svg" xmlns:xlink="http://www.w3.org/1999/xlink" x="0px" y="0px"
	 viewBox="0 0 1024 768" enable-background="new 0 0 1024 768" xml:space="preserve">
<g>
	<path fill="#006F30" d="M-0.1,79.4c11.7,32,28.8,50.9,28.8,50.9c30.2-19,49.5-39.6,61.4-60.2c18.4,23.4,39.9,33.6,39.9,33.6
		c14.8-18.8,23.6-36.5,28.2-52.8c-3.7,67.5,40.5,110.8,40.5,110.8c43.6-28,64.2-59.2,72.4-88.5c3.1,11,8.8,21.2,16.1,29.5
		c11.4,13,26.5,21.4,42.2,26c-5.3-24.3-2.1-50.6,7.9-72.9c8.8,46.2,37.2,74.6,37.2,74.6c30.2-19,49.5-39.6,61.4-60.2
		c18.4,23.4,39.9,33.6,39.9,33.6c9.5-12.1,16.5-23.6,21.5-34.7c21.6,61.5,76.1,85.2,76.1,85.2c25.5-34.6,35.4-65.8,36.4-92.7
		c7.2,22.2,9.5,48.1,5.6,72.2c11.7-4.5,22.9-13,31.3-26c6.3-9.7,11-22.1,13-35.4c11.1,37.8,33.8,60.5,33.8,60.5
		c30.2-19,49.5-39.6,61.4-60.2c18.4,23.4,39.9,33.6,39.9,33.6C813,82.9,822.2,61.3,825.6,42c9.9,23.9,13.4,53.9,9,81.4
		c11.7-4.5,22.9-13,31.3-26c8.5-13,14-30.8,14-49c0-7.1-0.9-14.2-1.8-21.2h3c4.6,57.8,40.9,94.1,40.9,94.1
		c16.6-10.4,30-21.3,40.8-32.4c17.7,45.9,57.7,64.8,57.7,64.8c1.4-1.8,2.9-2.8,3.6-5.2L1024,0L0,0"/>
</g>
<path fill="#006F30" d="M1024.1,384.1c-13,10.9-50.9,46.7-62.5,101.7c-14.5-21.6-36.8-41.8-70.8-53.9c0,0-9.5,42,11.9,92.7
	c-9.8-10.5-22.2-20.5-37.9-29.6c0,0-15.9,22.9-20.3,58.4c-11.6-8.4-25.9-16.1-43.5-22.6c0,0-13.5,20.7-17.4,51.7l-3,0.6
	c-5.1-8.6-11.5-17.5-19.2-26.6c0,0-13.2,6.8-27.7,21.5c-5.9-15.4-15.5-31.8-30.1-48.9c0,0-15,7.8-30.7,24.6
	c-2.9-22.8-13.6-48.5-37.1-76.2c0,0-53.3,38.8-67.3,105.5c-14.5-21.6-36.8-41.8-70.8-53.9c0,0-3.5,15.4-1.5,38.8
	c-8.1-7.3-17.7-14.4-29.1-20.9c0,0-1.8,2.7-4.5,7.6c-8-26.9-26.6-55.2-65.6-77.6c0,0-11.9,17.1-18,44.8
	c-26.2,10.9-43.3,26.5-54.4,43.1c-5.8-16.4-15.7-33.9-31.4-52.4c0,0-41.1,21.3-58.4,69.7c-1.3-37.4-18.3-63.4-18.3-63.4
	c-27.5,10.1-47.1,23.3-60.9,37.6c2.5-49.5-21.1-83.5-21.1-83.5c-10.7,6.2-19.9,12.8-27.7,19.7c15.6-45.4,7.5-81.3,7.5-81.3
	c-21.8,7.7-38.7,18.7-51.9,31.4C56.1,371.4,0,342.4,0,342.4L0,768l1024.1,0.1L1024.1,384.1z"/>
<g>
	<path fill="#003818" d="M0,664c19.8,24.4,35.4,50,48.4,77.6C44,699.4,8.2,659.3,20.8,618.5c24.4,37.2,40.8,78.3,47.9,120.6
		c3.1-19.6,6.1-39.2,9.2-58.8c2.7-17.5,10-39.2,30.3-41.6c0.7,32.1-4.3,64.3-14.6,95.2c11.5-19.2,28.7-35.7,49.5-47.7
		c-3,22-12.7,43.3-27.8,61.3c15.9-12,35.8-21.9,56.9-20.6c21.1,1.3,41.6,17.7,38.2,35.7c-8.5-24.7-17.1-49.4-25.6-74
		c-1.2-3.4-2.3-7.3-0.2-10.4c5-7.5,18.1-0.6,24.1,6.3c20.4,23.6,40.8,47.1,61.1,70.7c0-28.6,5.3-57.2,15.8-84.4
		c16.5,23.8,26,51.1,27.5,78.7c-3.8-23.1,4.5-47.4,22.2-65c10,15.9,14.2,34.5,11.8,52.6c3.7-18.7,10.5-37,20.3-54
		c3.3-5.8,9.9-12.3,16.7-9.7c4.8,1.8,6,7.1,6.4,11.6c1.3,15.4-0.1,30.9-4.1,45.9c15.1-38.9,33.7-81.5,76.1-100
		c-8.2,32.2-20.4,63.6-36.3,93.5c7.7-16.5,22.4-30.5,40.6-38.8c-1.4,15.1-6.5,29.9-14.8,43.2c13.4-10,30.8-15.9,48.4-16.4
		c2.6-0.1,5.5,0,7.5,1.6c3.2,2.5,2.1,6.9,0.6,10.3c-3.4,7.7-7.6,15-12.7,21.9c6.8-25.4,28.5-47.5,56.4-57.4
		c3.8-1.3,8.2-2.4,11.8-0.8c7.4,3.4,3.5,13.2-1.7,18.9c-13.2,14.6-28.8,27.5-46.3,38.3c9.4-12.8,27.1-20.6,44.5-19.7
		c17.5,0.9,34,10.5,41.5,24.1c0.5-14.7,14.7-28.1,31.7-29.8c16.9-1.7,34.4,8.6,38.7,22.8c-8.3-15.5-8.8-34-1.5-49.9
		c1.8-3.9,5.3-8.2,10.1-7.6c3.5,0.4,5.7,3.4,7.4,6c9.7,15.3,17.5,31.5,23.2,48.3c-2-18.8-4.1-37.9,0.5-56.3
		c4.6-18.4,17-36.4,36.8-44.3c-0.5,31.7-9.3,63.3-25.6,91.7c10.8-35.1,23-72.4,54.8-96.3c5.2-3.9,13.3-7.3,18.3-3.2
		c3.2,2.6,3.2,7,2.8,10.8c-3.2,28.4-13.3,56.3-29.5,81.1c2-21,15.8-40.9,36.2-52.5c6.2-3.5,13.4-6.4,20.8-5.8
		c17.7,1.5,25.3,21.3,21.2,36.3c-4.1,15-15.2,28.1-18.4,43.2c5.9-10.3,12.1-21,22.7-28s26.8-9.1,36.8-1.6c11.2,8.4,9.7,23.5,7,36.1
		c5.5-16.9,24.2-31,44.5-29.8c20.3,1.2,37.2,21.2,29.1,37.3c1.2-23,8.8-45.8,21.9-65.9c3.3-5.1,7.9-10.5,14.6-10.9
		c9.9-0.7,15.5,9.4,18.3,17.7l-0.1,69L0,768L0,664"/>
</g>
<g>
	<path fill="#003818" d="M0,0l1024,0l0.2,92.5c-6.6,9.5-11.6,14.6-11.6,14.6c-30.6-19.2-50.3-40.2-62.3-61.1
		c-18.7,23.8-40.5,34-40.5,34c-15-19.1-23.9-37-28.6-53.5c3.8,68.4-41,112.4-41,112.4c-44.2-28.4-65.1-60.1-73.5-89.8
		c-3.2,11.2-8.9,21.5-16.3,29.9c-11.6,13.2-26.8,21.8-42.8,26.4c5.3-24.7,2.1-51.3-8-74C690.8,78.3,662,107,662,107
		c-30.6-19.2-50.3-40.2-62.3-61.1c-18.7,23.8-40.5,34-40.5,34c-9.6-12.2-16.7-24-21.8-35.2c-21.9,62.3-77.2,86.4-77.2,86.4
		c-25.9-35.1-35.9-66.7-36.9-94c-7.3,22.5-9.6,48.8-5.7,73.3c-11.8-4.6-23.2-13.2-31.8-26.4c-6.4-9.9-11.2-22.4-13.2-35.9
		c-11.3,38.4-34.2,61.4-34.2,61.4c-30.6-19.2-50.3-40.2-62.3-61.1c-18.7,23.8-40.5,34-40.5,34c-18.5-23.6-27.9-45.5-31.3-65.1
		c-10,24.3-13.6,54.7-9.1,82.6c-11.8-4.6-23.2-13.2-31.8-26.4c-8.6-13.2-14.2-31.2-14.2-49.8c0-7.2-2.1-14.4-1.2-21.5l0,0
		c-4.7,58.6-41.5,95.5-41.5,95.5C89.6,87.3,76,76.3,65,65c-17.9,46.6-65.2,66-65.2,66L0,0z"/>
</g>
</svg>
