<?xml version="1.0" encoding="utf-8"?>
<!-- Generator: Adobe Illustrator 21.0.0, SVG Export Plug-In . SVG Version: 6.00 Build 0)  -->
<?xml-stylesheet type="text/css" href="css/style.css" ?>
<svg  version="1.1" id="Capa_1" xmlns="http://www.w3.org/2000/svg" xmlns:xlink="http://www.w3.org/1999/xlink" x="0px" y="0px"
	 viewBox="0 0 149 169" style="enable-background:new 0 0 149 169;" xml:space="preserve">
<style type="text/css">
	.st0{fill:#A97C50;}
	.st1{fill:#8B5E3C;}
	.st2{fill:#FFCE54;}
	.st3{fill:#E0A63F;}
	.st4{fill:#2A2A2A;}
	.st5{opacity:0.7;fill:#F6F7FA;}
	.st6{fill:#68472D;}
	.st7{fill:#FFEBBB;}
	.st8{fill:#F6BB43;}
	.st9{fill:#CC963E;}
	.st10{fill:#F6F7FA;}
	.st11{fill:#FC8B74;}
	.st12{fill:#FFF3F1;}
	.st13{fill:#E7E9EE;}
	#transform{ transform:scale(0.25);}
</style>
<g id="transform">
	<circle class="st0" cx="19.7" cy="53" r="12.5"/>
	<circle class="st1" cx="21.1" cy="53.6" r="8.3"/>
	<circle class="st0" cx="128.4" cy="53" r="12.5"/>
	<circle class="st1" cx="127.1" cy="53.6" r="8.3"/>
	<path class="st0" d="M125.3,158.8H22.7V60.4c0-28.3,23-51.3,51.3-51.3h0c28.3,0,51.3,23,51.3,51.3V158.8z"/>
	<path class="st2" d="M26.6,38.6c7.8-18.4,26-31.4,47.3-31.4h0c21.2,0,39.4,12.9,47.2,31.2"/>
	<path class="st3" d="M81.4,37.8H65.4V11.2c0-3.8,3-6.8,6.8-6.8h2.3c3.8,0,6.8,3,6.8,6.8V37.8z"/>
	<path class="st3" d="M54.3,38.7H41.6V17.4c0-3,2.4-5.4,5.4-5.4h1.9c3,0,5.4,2.4,5.4,5.4V38.7z"/>
	<path class="st3" d="M105,38.7H92.3V17.4c0-3,2.4-5.4,5.4-5.4h1.9c3,0,5.4,2.4,5.4,5.4V38.7z"/>
	<circle class="st4" cx="36.1" cy="66.4" r="6.2"/>
	<circle class="st5" cx="38.6" cy="64.7" r="1.7"/>
	<circle class="st4" cx="111.2" cy="66.4" r="6.2"/>
	<circle class="st5" cx="113.7" cy="64.7" r="1.7"/>
	<g>
		<g>
			<path class="st6" d="M32.3,56.6c3.4,1,6.8,2.2,10.1,3.5c1.4,0.6,2.1-1.7,0.6-2.3c-3.3-1.4-6.7-2.6-10.1-3.5
				C31.5,53.8,30.8,56.1,32.3,56.6L32.3,56.6z"/>
		</g>
	</g>
	<g>
		<g>
			<path class="st6" d="M114.7,54.2c-3.4,1-6.8,2.2-10.1,3.5c-1.4,0.6-0.8,2.9,0.6,2.3c3.3-1.4,6.7-2.6,10.1-3.5
				C116.8,56.1,116.2,53.8,114.7,54.2L114.7,54.2z"/>
		</g>
	</g>
	<path class="st7" d="M72.3,94.2h-0.2c-0.8,0-1.5-0.7-1.5-1.5v-4.1c0-0.8,0.7-1.5,1.5-1.5h0.2c0.8,0,1.5,0.7,1.5,1.5v4.1
		C73.7,93.5,73.1,94.2,72.3,94.2z"/>
	<path class="st7" d="M76.1,94.2h-0.2c-0.8,0-1.5-0.7-1.5-1.5v-4.1c0-0.8,0.7-1.5,1.5-1.5h0.2c0.8,0,1.5,0.7,1.5,1.5v4.1
		C77.6,93.5,76.9,94.2,76.1,94.2z"/>
	<g>
		<g>
			<path class="st6" d="M86.5,83c0,3.2-2.5,6.1-5.8,5.9c-3.3-0.2-6.6-3.8-4.5-7c1.1-1.6-1.5-3.1-2.6-1.5c-3.1,4.8,0.9,10.5,6,11.5
				c5.4,1,10-3.6,10-8.8C89.5,81.1,86.5,81.1,86.5,83L86.5,83z"/>
		</g>
	</g>
	<g>
		<g>
			<path class="st6" d="M58.5,83c0,5.3,4.6,9.8,10,8.8c5.1-0.9,9.1-6.7,6-11.5c-1.1-1.6-3.7-0.1-2.6,1.5c2.1,3.2-1.2,6.9-4.5,7
				c-3.4,0.2-5.8-2.7-5.8-5.9C61.5,81.1,58.4,81.1,58.5,83L58.5,83z"/>
		</g>
	</g>
	<path class="st1" d="M67.3,74.7h13.9c2,0,3,2.4,1.5,3.8L76,83.2c-0.8,0.8-2.1,0.8-2.9,0.1l-7.1-4.7C64.3,77.3,65.2,74.7,67.3,74.7z
		"/>
	<path class="st8" d="M123.6,49.1H24.8c-2.1,0-3.9-1.7-3.9-3.9v-3.5c0-2.1,1.7-3.9,3.9-3.9h98.8c2.1,0,3.9,1.7,3.9,3.9v3.5
		C127.4,47.4,125.7,49.1,123.6,49.1z"/>
	<circle class="st9" cx="73.9" cy="31.5" r="13.8"/>
	<circle class="st10" cx="74" cy="31.5" r="10.5"/>
	<path class="st11" d="M127,162.2H21.3c-3.9,0-7.1-3.2-7.1-7.1v-46.3c0-3.9,3.2-7.1,7.1-7.1H127c3.9,0,7.1,3.2,7.1,7.1V155
		C134.1,159,130.9,162.2,127,162.2z"/>
	<path class="st12" d="M121.6,156.3H27.2c-3.4,0-6.1-2.7-6.1-6.1V113c0-3.4,2.7-6.1,6.1-6.1h94.3c3.4,0,6.1,2.7,6.1,6.1v37.3
		C127.6,153.6,124.9,156.3,121.6,156.3z"/>
	<path class="st0" d="M139.4,125.8h-8.4c-3.1,0-5.6-2.5-5.6-5.6v-2.8c0-3.1,2.5-5.6,5.6-5.6h8.4c3.1,0,5.6,2.5,5.6,5.6v2.8
		C145,123.3,142.5,125.8,139.4,125.8z"/>
	<path class="st0" d="M18.4,125.8H9.9c-3.1,0-5.6-2.5-5.6-5.6v-2.8c0-3.1,2.5-5.6,5.6-5.6h8.4c3.1,0,5.6,2.5,5.6,5.6v2.8
		C24,123.3,21.5,125.8,18.4,125.8z"/>
	<g>
		<g>
			<path class="st13" d="M77.3,26.7c1.7,1.2,3.1,3.1,3,5.3c-0.1,1.9-1.2,4.6-3.3,5.1c-1.7,0.5-1,3.2,0.7,2.7c3-0.8,5.1-4.2,5.4-7.2
				c0.3-3.4-1.9-6.4-4.5-8.3C77.2,23.3,75.8,25.7,77.3,26.7L77.3,26.7z"/>
		</g>
	</g>
	<g>
		<g>
			<path class="st13" d="M65.3,30.5c-0.3,2.1,0.5,4.1,1.8,5.7c1.2,1.4,3.1-0.6,2-2c-0.9-1.1-1.2-2.4-1-3.7c0.1-0.8-0.7-1.4-1.4-1.4
				C65.9,29.1,65.4,29.7,65.3,30.5L65.3,30.5z"/>
		</g>
	</g>
</g>
</svg>
