<?xml version="1.0" encoding="utf-8"?>
<!-- Generator: Adobe Illustrator 21.0.0, SVG Export Plug-In . SVG Version: 6.00 Build 0)  -->
<svg version="1.1" id="Capa_1" xmlns="http://www.w3.org/2000/svg" xmlns:xlink="http://www.w3.org/1999/xlink" x="0px" y="0px"
	 viewBox="0 0 154 178" style="enable-background:new 0 0 154 178;" xml:space="preserve">
<style type="text/css">
	.st0{fill:#A97C50;}
	.st1{fill:#8B5E3C;}
	.st2{fill:#FFCE54;}
	.st3{fill:#E0A63F;}
	.st4{fill:#FFEBBB;}
	.st5{fill:#F6BB43;}
	.st6{fill:#CC963E;}
	.st7{fill:#F6F7FA;}
	.st8{fill:#FC8B74;}
	.st9{fill:#FFF3F1;}
	.st10{fill:#E7E9EE;}
	.st11{fill:#68472D;}
	.st12{fill:#2A2A2A;}
</style>
<g>
	<circle class="st0" cx="22.1" cy="59.3" r="12.5"/>
	<circle class="st1" cx="23.5" cy="59.8" r="8.3"/>
	<circle class="st0" cx="130.9" cy="59.3" r="12.5"/>
	<circle class="st1" cx="129.5" cy="59.8" r="8.3"/>
	<path class="st0" d="M127.7,165H25.1V66.6c0-28.3,23-51.3,51.3-51.3h0c28.3,0,51.3,23,51.3,51.3V165z"/>
	<path class="st2" d="M29,44.8c7.8-18.4,26-31.4,47.3-31.4h0c21.2,0,39.4,12.9,47.2,31.2"/>
	<path class="st3" d="M83.8,44.1H67.9V17.5c0-3.8,3-6.8,6.8-6.8H77c3.8,0,6.8,3,6.8,6.8V44.1z"/>
	<path class="st3" d="M56.7,44.9H44V23.7c0-3,2.4-5.4,5.4-5.4h1.9c3,0,5.4,2.4,5.4,5.4V44.9z"/>
	<path class="st3" d="M107.5,44.9H94.7V23.7c0-3,2.4-5.4,5.4-5.4h1.9c3,0,5.4,2.4,5.4,5.4V44.9z"/>
	<path class="st4" d="M74.7,97.4h-0.2c-0.8,0-1.5-0.7-1.5-1.5v-4.1c0-0.8,0.7-1.5,1.5-1.5h0.2c0.8,0,1.5,0.7,1.5,1.5V96
		C76.2,96.8,75.5,97.4,74.7,97.4z"/>
	<path class="st4" d="M78.5,97.4h-0.2c-0.8,0-1.5-0.7-1.5-1.5v-4.1c0-0.8,0.7-1.5,1.5-1.5h0.2c0.8,0,1.5,0.7,1.5,1.5V96
		C80,96.8,79.3,97.4,78.5,97.4z"/>
	<path class="st1" d="M69.7,81h13.9c2,0,3,2.4,1.5,3.8l-6.7,4.7c-0.8,0.8-2.1,0.8-2.9,0.1l-7.1-4.7C66.7,83.6,67.6,81,69.7,81z"/>
	<path class="st5" d="M126,55.4H27.2c-2.1,0-3.9-1.7-3.9-3.9V48c0-2.1,1.7-3.9,3.9-3.9H126c2.1,0,3.9,1.7,3.9,3.9v3.5
		C129.8,53.7,128.1,55.4,126,55.4z"/>
	<circle class="st6" cx="76.3" cy="37.7" r="13.8"/>
	<circle class="st7" cx="76.5" cy="37.8" r="10.5"/>
	<path class="st8" d="M129.4,168.4H23.7c-3.9,0-7.1-3.2-7.1-7.1V115c0-3.9,3.2-7.1,7.1-7.1h105.7c3.9,0,7.1,3.2,7.1,7.1v46.3
		C136.5,165.2,133.4,168.4,129.4,168.4z"/>
	<path class="st9" d="M124,162.6H29.6c-3.4,0-6.1-2.7-6.1-6.1v-37.3c0-3.4,2.7-6.1,6.1-6.1H124c3.4,0,6.1,2.7,6.1,6.1v37.3
		C130,159.9,127.3,162.6,124,162.6z"/>
	<path class="st0" d="M141.8,132.1h-8.4c-3.1,0-5.6-2.5-5.6-5.6v-2.8c0-3.1,2.5-5.6,5.6-5.6h8.4c3.1,0,5.6,2.5,5.6,5.6v2.8
		C147.4,129.6,144.9,132.1,141.8,132.1z"/>
	<path class="st0" d="M20.8,132.1h-8.4c-3.1,0-5.6-2.5-5.6-5.6v-2.8c0-3.1,2.5-5.6,5.6-5.6h8.4c3.1,0,5.6,2.5,5.6,5.6v2.8
		C26.4,129.6,23.9,132.1,20.8,132.1z"/>
	<g>
		<g>
			<path class="st10" d="M79.7,33c1.7,1.2,3.1,3.1,3,5.3c-0.1,1.9-1.2,4.6-3.3,5.1c-1.7,0.5-1,3.2,0.7,2.7c3-0.8,5.1-4.2,5.4-7.2
				c0.3-3.4-1.9-6.4-4.5-8.3C79.6,29.5,78.3,32,79.7,33L79.7,33z"/>
		</g>
	</g>
	<g>
		<g>
			<path class="st10" d="M67.7,36.7c-0.3,2.1,0.5,4.1,1.8,5.7c1.2,1.4,3.1-0.6,2-2c-0.9-1.1-1.2-2.4-1-3.7c0.1-0.8-0.7-1.4-1.4-1.4
				C68.3,35.3,67.8,36,67.7,36.7L67.7,36.7z"/>
		</g>
	</g>
	<g>
		<g>
			<path class="st11" d="M28.3,69.9c2.7-2.3,5.4-4.4,8.3-6.4c1.3-0.9,0.1-3-1.2-2.1c-3.1,2.1-6,4.4-8.8,6.8
				C25.3,69.2,27.1,71,28.3,69.9L28.3,69.9z"/>
		</g>
	</g>
	<g>
		<g>
			<path class="st11" d="M125.5,67.9c-3-1.9-5.8-4-8.5-6.2c-1.2-1-3,0.7-1.7,1.7c2.9,2.4,5.9,4.6,9,6.6
				C125.6,70.9,126.8,68.8,125.5,67.9L125.5,67.9z"/>
		</g>
	</g>
	<g>
		<g>
			<path class="st12" d="M37.3,70.2c2.4,1.3,4.7,2.7,6.9,4.3c-0.1-0.7-0.2-1.3-0.3-2c-1.6,1.9-3.2,3.8-4.8,5.8c-1,1.2,0.7,3,1.8,1.8
				c1.6-1.9,3.2-3.8,4.8-5.8c0.5-0.7,0.5-1.5-0.3-2c-2.2-1.6-4.5-3-6.9-4.3C37.1,67.3,35.9,69.5,37.3,70.2L37.3,70.2z"/>
		</g>
	</g>
	<g>
		<g>
			<path class="st12" d="M113.6,66.2c-1.6,1-3.1,2-4.7,2.9c-1.3,0.8-2.9,1.6-3.9,2.8c-0.5,0.6-0.5,1.6,0.3,2c2.3,1.3,4.6,2.4,7,3.5
				c1.5,0.6,2.8-1.5,1.3-2.2c-2.4-1-4.8-2.2-7-3.5c0.1,0.7,0.2,1.3,0.3,2c1-1.2,2.7-1.9,4-2.7c1.4-0.9,2.7-1.7,4.1-2.6
				C116.2,67.5,114.9,65.3,113.6,66.2L113.6,66.2z"/>
		</g>
	</g>
	<g>
		<g>
			<path class="st11" d="M67.4,97.6c4.5-6.1,14.5-5.8,20.6-3c1.8,0.8,3.3-1.8,1.5-2.6c-7.8-3.6-19.2-3.5-24.8,4.1
				C63.6,97.7,66.2,99.2,67.4,97.6L67.4,97.6z"/>
		</g>
	</g>
</g>
</svg>
