<?xml version="1.0" encoding="utf-8"?>
<!-- Generator: Adobe Illustrator 21.0.0, SVG Export Plug-In . SVG Version: 6.00 Build 0)  -->
<svg version="1.1" id="Capa_1" xmlns="http://www.w3.org/2000/svg" xmlns:xlink="http://www.w3.org/1999/xlink" x="0px" y="0px"
	 viewBox="0 0 724 589.5" enable-background="new 0 0 724 589.5" xml:space="preserve">
<g>
	<rect x="71.3" y="13.7" fill="#E0A63F" width="9.6" height="226.5"/>
	<g>
		<path fill="#A87D2F" d="M72.4,215.8c2.2,1.8,4.5,3.6,6.7,5.4c0.8,0.7,1.6-0.9,0.8-1.5c-2.2-1.8-4.5-3.6-6.7-5.4
			C72.3,213.6,71.6,215.1,72.4,215.8L72.4,215.8z"/>
	</g>
	<g>
		<path fill="#A87D2F" d="M72.4,201.5c2.2,1.8,4.5,3.6,6.7,5.4c0.8,0.7,1.6-0.9,0.8-1.5c-2.2-1.8-4.5-3.6-6.7-5.4
			C72.3,199.3,71.6,200.8,72.4,201.5L72.4,201.5z"/>
	</g>
	<g>
		<path fill="#A87D2F" d="M72.4,187.2c2.2,1.8,4.5,3.6,6.7,5.4c0.8,0.7,1.6-0.9,0.8-1.5c-2.2-1.8-4.5-3.6-6.7-5.4
			C72.3,185,71.6,186.5,72.4,187.2L72.4,187.2z"/>
	</g>
	<g>
		<path fill="#A87D2F" d="M72.4,172.9c2.2,1.8,4.5,3.6,6.7,5.4c0.8,0.7,1.6-0.9,0.8-1.5c-2.2-1.8-4.5-3.6-6.7-5.4
			C72.3,170.7,71.6,172.2,72.4,172.9L72.4,172.9z"/>
	</g>
	<g>
		<path fill="#A87D2F" d="M72.4,158.6c2.2,1.8,4.5,3.6,6.7,5.4c0.8,0.7,1.6-0.9,0.8-1.5c-2.2-1.8-4.5-3.6-6.7-5.4
			C72.3,156.3,71.6,157.9,72.4,158.6L72.4,158.6z"/>
	</g>
	<g>
		<path fill="#A87D2F" d="M72.4,144.3c2.2,1.8,4.5,3.6,6.7,5.4c0.8,0.7,1.6-0.9,0.8-1.5c-2.2-1.8-4.5-3.6-6.7-5.4
			C72.3,142,71.6,143.6,72.4,144.3L72.4,144.3z"/>
	</g>
	<g>
		<path fill="#A87D2F" d="M72.4,129.9c2.2,1.8,4.5,3.6,6.7,5.4c0.8,0.7,1.6-0.9,0.8-1.5c-2.2-1.8-4.5-3.6-6.7-5.4
			C72.3,127.7,71.6,129.3,72.4,129.9L72.4,129.9z"/>
	</g>
	<g>
		<path fill="#A87D2F" d="M72.4,115.6c2.2,1.8,4.5,3.6,6.7,5.4c0.8,0.7,1.6-0.9,0.8-1.5c-2.2-1.8-4.5-3.6-6.7-5.4
			C72.3,113.4,71.6,115,72.4,115.6L72.4,115.6z"/>
	</g>
	<g>
		<path fill="#A87D2F" d="M72.4,101.3c2.2,1.8,4.5,3.6,6.7,5.4c0.8,0.7,1.6-0.9,0.8-1.5c-2.2-1.8-4.5-3.6-6.7-5.4
			C72.3,99.1,71.6,100.7,72.4,101.3L72.4,101.3z"/>
	</g>
	<g>
		<path fill="#A87D2F" d="M72.4,87c2.2,1.8,4.5,3.6,6.7,5.4c0.8,0.7,1.6-0.9,0.8-1.5c-2.2-1.8-4.5-3.6-6.7-5.4
			C72.3,84.8,71.6,86.4,72.4,87L72.4,87z"/>
	</g>
	<g>
		<path fill="#A87D2F" d="M72.4,72.7c2.2,1.8,4.5,3.6,6.7,5.4c0.8,0.7,1.6-0.9,0.8-1.5c-2.2-1.8-4.5-3.6-6.7-5.4
			C72.3,70.5,71.6,72.1,72.4,72.7L72.4,72.7z"/>
	</g>
	<g>
		<path fill="#A87D2F" d="M72.4,58.4c2.2,1.8,4.5,3.6,6.7,5.4c0.8,0.7,1.6-0.9,0.8-1.5c-2.2-1.8-4.5-3.6-6.7-5.4
			C72.3,56.2,71.6,57.7,72.4,58.4L72.4,58.4z"/>
	</g>
	<g>
		<path fill="#A87D2F" d="M72.4,44.1c2.2,1.8,4.5,3.6,6.7,5.4c0.8,0.7,1.6-0.9,0.8-1.5c-2.2-1.8-4.5-3.6-6.7-5.4
			C72.3,41.9,71.6,43.4,72.4,44.1L72.4,44.1z"/>
	</g>
	<g>
		<path fill="#A87D2F" d="M72.4,29.8c2.2,1.8,4.5,3.6,6.7,5.4c0.8,0.7,1.6-0.9,0.8-1.5c-2.2-1.8-4.5-3.6-6.7-5.4
			C72.3,27.6,71.6,29.1,72.4,29.8L72.4,29.8z"/>
	</g>
	<g>
		<path fill="#A87D2F" d="M72.4,15.4c2.2,1.8,4.5,3.6,6.7,5.4c0.8,0.7,1.6-0.9,0.8-1.5c-2.2-1.8-4.5-3.6-6.7-5.4
			C72.3,13.2,71.6,14.8,72.4,15.4L72.4,15.4z"/>
	</g>
</g>
<g>
	<rect x="642.4" y="13.7" fill="#E0A63F" width="9.6" height="226.5"/>
	<g>
		<path fill="#A87D2F" d="M643.5,215.8c2.2,1.8,4.5,3.6,6.7,5.4c0.8,0.7,1.6-0.9,0.8-1.5c-2.2-1.8-4.5-3.6-6.7-5.4
			C643.4,213.6,642.7,215.1,643.5,215.8L643.5,215.8z"/>
	</g>
	<g>
		<path fill="#A87D2F" d="M643.5,201.5c2.2,1.8,4.5,3.6,6.7,5.4c0.8,0.7,1.6-0.9,0.8-1.5c-2.2-1.8-4.5-3.6-6.7-5.4
			C643.4,199.3,642.7,200.8,643.5,201.5L643.5,201.5z"/>
	</g>
	<g>
		<path fill="#A87D2F" d="M643.5,187.2c2.2,1.8,4.5,3.6,6.7,5.4c0.8,0.7,1.6-0.9,0.8-1.5c-2.2-1.8-4.5-3.6-6.7-5.4
			C643.4,185,642.7,186.5,643.5,187.2L643.5,187.2z"/>
	</g>
	<g>
		<path fill="#A87D2F" d="M643.5,172.9c2.2,1.8,4.5,3.6,6.7,5.4c0.8,0.7,1.6-0.9,0.8-1.5c-2.2-1.8-4.5-3.6-6.7-5.4
			C643.4,170.7,642.7,172.2,643.5,172.9L643.5,172.9z"/>
	</g>
	<g>
		<path fill="#A87D2F" d="M643.5,158.6c2.2,1.8,4.5,3.6,6.7,5.4c0.8,0.7,1.6-0.9,0.8-1.5c-2.2-1.8-4.5-3.6-6.7-5.4
			C643.4,156.3,642.7,157.9,643.5,158.6L643.5,158.6z"/>
	</g>
	<g>
		<path fill="#A87D2F" d="M643.5,144.3c2.2,1.8,4.5,3.6,6.7,5.4c0.8,0.7,1.6-0.9,0.8-1.5c-2.2-1.8-4.5-3.6-6.7-5.4
			C643.4,142,642.7,143.6,643.5,144.3L643.5,144.3z"/>
	</g>
	<g>
		<path fill="#A87D2F" d="M643.5,129.9c2.2,1.8,4.5,3.6,6.7,5.4c0.8,0.7,1.6-0.9,0.8-1.5c-2.2-1.8-4.5-3.6-6.7-5.4
			C643.4,127.7,642.7,129.3,643.5,129.9L643.5,129.9z"/>
	</g>
	<g>
		<path fill="#A87D2F" d="M643.5,115.6c2.2,1.8,4.5,3.6,6.7,5.4c0.8,0.7,1.6-0.9,0.8-1.5c-2.2-1.8-4.5-3.6-6.7-5.4
			C643.4,113.4,642.7,115,643.5,115.6L643.5,115.6z"/>
	</g>
	<g>
		<path fill="#A87D2F" d="M643.5,101.3c2.2,1.8,4.5,3.6,6.7,5.4c0.8,0.7,1.6-0.9,0.8-1.5c-2.2-1.8-4.5-3.6-6.7-5.4
			C643.4,99.1,642.7,100.7,643.5,101.3L643.5,101.3z"/>
	</g>
	<g>
		<path fill="#A87D2F" d="M643.5,87c2.2,1.8,4.5,3.6,6.7,5.4c0.8,0.7,1.6-0.9,0.8-1.5c-2.2-1.8-4.5-3.6-6.7-5.4
			C643.4,84.8,642.7,86.4,643.5,87L643.5,87z"/>
	</g>
	<g>
		<path fill="#A87D2F" d="M643.5,72.7c2.2,1.8,4.5,3.6,6.7,5.4c0.8,0.7,1.6-0.9,0.8-1.5c-2.2-1.8-4.5-3.6-6.7-5.4
			C643.4,70.5,642.7,72.1,643.5,72.7L643.5,72.7z"/>
	</g>
	<g>
		<path fill="#A87D2F" d="M643.5,58.4c2.2,1.8,4.5,3.6,6.7,5.4c0.8,0.7,1.6-0.9,0.8-1.5c-2.2-1.8-4.5-3.6-6.7-5.4
			C643.4,56.2,642.7,57.7,643.5,58.4L643.5,58.4z"/>
	</g>
	<g>
		<path fill="#A87D2F" d="M643.5,44.1c2.2,1.8,4.5,3.6,6.7,5.4c0.8,0.7,1.6-0.9,0.8-1.5c-2.2-1.8-4.5-3.6-6.7-5.4
			C643.4,41.9,642.7,43.4,643.5,44.1L643.5,44.1z"/>
	</g>
	<g>
		<path fill="#A87D2F" d="M643.5,29.8c2.2,1.8,4.5,3.6,6.7,5.4c0.8,0.7,1.6-0.9,0.8-1.5c-2.2-1.8-4.5-3.6-6.7-5.4
			C643.4,27.6,642.7,29.1,643.5,29.8L643.5,29.8z"/>
	</g>
	<g>
		<path fill="#A87D2F" d="M643.5,15.4c2.2,1.8,4.5,3.6,6.7,5.4c0.8,0.7,1.6-0.9,0.8-1.5c-2.2-1.8-4.5-3.6-6.7-5.4
			C643.4,13.2,642.7,14.8,643.5,15.4L643.5,15.4z"/>
	</g>
</g>
<polygon fill="#3F2A18" points="697.6,445.3 697.6,355.9 626.5,351.2 697.6,339.3 697.6,310.3 554.4,304.2 697.6,288.6 697.6,201.3 
	18.6,201.3 18.6,238 92.5,242.8 18.6,255.2 18.6,314.6 153.2,320.1 18.6,334.2 18.6,427.9 64.4,430.9 18.6,438.5 18.6,478.7 
	33.8,475.4 18.6,490.8 18.6,575 697.6,575 697.6,468.5 537.7,462 "/>
<g>
	<polyline fill="#5C3F23" points="26.6,246.1 26.6,305.5 74.4,311 26.6,325.1 26.6,418.8 72.4,421.8 26.6,429.5 26.6,472.6 
		43.8,477.6 26.6,490.5 26.6,565.9 705.6,565.9 705.6,459.5 642,452.9 705.6,436.2 705.6,346.8 634.5,342.2 705.6,330.3 
		705.6,301.3 618.4,295.2 705.6,279.5 705.6,192.2 26.6,192.2 26.6,228.9 	"/>
	<line fill="none" x1="26.6" y1="246.1" x2="26.6" y2="228.9"/>
	<line fill="none" x1="26.6" y1="325.1" x2="26.6" y2="305.5"/>
	<line fill="none" x1="26.6" y1="429.5" x2="26.6" y2="418.8"/>
	<line fill="none" x1="26.6" y1="481.7" x2="26.6" y2="463.8"/>
</g>
<circle fill="#2E2012" cx="75.9" cy="211.6" r="10.4"/>
<circle fill="#2E2012" cx="647.4" cy="211.6" r="10.4"/>
<g opacity="0.24">
	<path fill="none" d="M26.6,300v-4.2c-10.8,1.3-21.9,2.6-32.9,3.4C4.6,299.5,15.6,299.7,26.6,300z"/>
	<path fill="#FFFFFF" stroke="#231F20" stroke-miterlimit="10" d="M343.9,193.7c38.6-0.2,77.2-0.5,115.8-1c9-0.1,18.1-0.3,27.2-0.5
		H26.6v2C132.4,194.3,238.1,194.3,343.9,193.7z"/>
	<path fill="#2E2012" d="M570.3,191.5c-27.7-0.7-55.6,0.1-83.4,0.7h105.8C585.1,191.9,577.7,191.7,570.3,191.5z"/>
	<path fill="#2E2012" d="M337,200.6c72.2-0.4,144.6-2.8,216.7-2.6c50.1,0.2,101.8,3.9,151.8,10.1V201c-37.2-4.3-75.2-7.2-113-8.7
		H486.8c-9.1,0.2-18.1,0.4-27.2,0.5c-38.6,0.5-77.2,0.8-115.8,1c-105.8,0.6-211.5,0.6-317.3,0.5v7.2
		C130,201.5,233.6,201.3,337,200.6z"/>
	<path fill="#2E2012" d="M431.6,216.7c91.8,2.5,183,7.6,273.9,13.6v-7.2c-88.5-5.6-177.2-10.4-266.3-13
		c-65.2-1.9-130.8-3.7-195.7-0.5c-71.9,3.5-144.6,4.4-217,5.8v6.7c70.9-1.4,141.9-2.6,212.4-5.5C303.3,213.8,367,214.9,431.6,216.7z
		"/>
	<path fill="#2E2012" d="M383.2,230.2c39,0.9,77.4,6.8,114.7,11.8c57.6,7.7,114.8,16.1,172.6,23.5c11.6,1.5,23.3,3,35.1,4.4v-7.2
		c-0.7-0.1-1.4-0.2-2.1-0.2c-58.9-6.9-116.8-15.4-174.9-23.4c-42.1-5.8-85.5-12.8-129.4-15c-27-1.4-54.7-0.9-81.8-0.5
		c-97.1,1.3-194.2,5.4-290.8,10.2v6.8c91.1-4.4,182.5-8.1,274.1-9.9C328.1,229.9,355.7,229.6,383.2,230.2z"/>
	<path fill="#2E2012" d="M147.9,261.9c0.1-8.5-67.9-6.9-121.4-4.4v7.4c12.7-0.5,25.3-0.9,38-1.3c13.3-0.4,26.5-0.7,39.8-0.8
		c5.7,0,11.4,0,17.1,0.1c0.4,0,0.8,0,1.2,0c-17.4,4-41.1,5.7-58.8,7.9c-12.4,1.5-24.9,3-37.4,4.4v7.5c16.8-1.9,33.6-3.9,50.3-6.1
		C88.6,275,147.8,270.1,147.9,261.9z"/>
	<path fill="#2E2012" d="M162.8,425.5c-45-0.4-91.2-3.8-136.3-9.1v2.4l45.8,3l-23.2,3.9c32.2,3.1,64.8,5.2,97,6.2
		c36.7,1.1,73.9-0.3,110.6-0.6c38.6-0.3,77.2-0.3,115.8-0.3c111,0.1,221.9,0.8,332.9,1.6v-7.2c-108.6-0.8-217.3-1.2-325.9-1.2
		C307.5,424.2,235,426.2,162.8,425.5z"/>
	<path fill="#2E2012" d="M285.3,407.6c-86.8-2.9-172.9-8.1-258.8-14.3v7.2c83.4,5.7,167,10.6,251,13.6c65.1,2.3,130.8,4.5,195.7,1.7
		c77-3.2,154.8-3.6,232.3-4.6v-6.7c-75.9,1.1-152,1.7-227.6,4.4C413.6,411.2,349.9,409.8,285.3,407.6z"/>
	<path fill="#2E2012" d="M334,394.4c-39-1.1-77.3-7.3-114.4-12.5c-57.4-8.1-114.4-16.8-172.1-24.5c-6.9-0.9-13.9-1.9-20.9-2.8v7.2
		c54.6,6.9,108.4,15.1,162.4,22.9c42,6.1,85.3,13.3,129.1,15.8c27,1.5,54.7,1.2,81.8,1c102.1-0.8,204.2-4.5,305.8-9v-6.8
		c-96,4.2-192.4,7.5-289,8.8C389.1,395,361.5,395.2,334,394.4z"/>
	<path fill="#2E2012" d="M468,351.9c-42.5,4.1-85,8.4-126.7,13.7c-14.7,1.9-30.4,3.7-43.8,7c-3.5,0.9-9,2.5-8.7,4.7
		c1.2,7.7,37.7,7,49.6,7.3c75,2.1,150.7,0.5,225.5-0.7c47.2-0.7,94.4-1.7,141.6-2.7v-6.7c-109.9,2.7-220.2,4.9-330.3,4
		c-13.6-0.1-27.3-0.3-40.9-0.7c-5.2-0.2-10.4-0.4-15.6-0.7c-2.2-0.1-3.9-0.3-5.3-0.4c6.4-1.1,14.9-2.2,18.7-2.8
		c64.2-9.4,131.3-15.4,197.4-21.7c36-3.4,72.1-6.7,108.2-9.8l-3.2-0.2l71-11.9v-0.8c-12.9,1.3-25.6,3-37.2,4
		C601.5,339.4,534.6,345.4,468,351.9z"/>
	<path fill="#2E2012" d="M570,364.1c-0.3,9.3,80.8,7,135.6,4.5v-7.2c-17.4,0.6-34.8,1.1-52.2,1.5c-13.3,0.3-26.5,0.5-39.8,0.5
		c-5.7,0-11.4-0.1-17.1-0.2c-0.4,0-0.8,0-1.2-0.1c17.5-3.9,41.2-5.5,58.9-7.5c17.1-2,34.2-3.8,51.4-5.6v-3.4l-23.5-1.5
		c-13.6,1.5-27.2,3.1-40.7,4.7C629.6,351.4,570.2,355.9,570,364.1z"/>
	<path fill="#2E2012" d="M424.7,312.8c-2.8,0-4.5,0.6-5.2,1.5c-26.1,1.5-52.5,5-77.3,6.8c-29.9,2.3-60,4.4-90.1,6.1
		c-19.4,1.1-39.3,2.4-58.8,1.2c-42.2-2.7-84.6-5.1-127-7.4l-39.7,4.2v0.8c54.9,2.8,109.8,5.7,164.6,9.1c44.2,2.8,93.3-2.9,136.5-6
		c42.5-3,85-6.4,127.3-10c47.9,0.6,95.8,1.3,143.7,2.1c-30.2,0.4-60.6,4.7-89.7,7.4c-83.6,7.5-166.5,16.4-250,24
		c-33.2,3-66.5,4.4-100.1,1c-29.8-3.1-59-7.5-88.8-10.6c-14.3-1.5-28.7-3.1-43.4-4.6v7.3c5.4,0.5,10.8,1,16.2,1.6
		c59.3,5.8,119.3,17.6,180.4,14.7c36.9-1.8,72.8-5.9,108.8-9.6c43.6-4.5,87.5-8.5,131.4-12.4c37.5-3.3,75-6.5,112.6-9.7
		c13-1.1,29-1.4,41.7-3.5c1.2-0.1,2.2-0.3,2.9-0.6c3.4-1.2,1.8-4.1-2.6-4.4c29.2,0.5,58.4,0.9,87.6,1.5v-7.2
		c-31.1-0.5-62.1-0.8-93.2-1.1C549.8,313.9,487.3,313.6,424.7,312.8z"/>
	<path fill="#2E2012" d="M50.1,293.1c66.8-6.3,133.5-12.8,200-19.6c42.4-4.4,84.8-8.9,126.4-14.5c14.7-2,30.3-3.9,43.7-7.3
		c3.5-0.9,9-2.6,8.6-4.7c-1.3-7.7-37.9-6.7-49.8-7c-75-1.7-150.7,0.4-225.4,2.1c-42.3,0.9-84.7,2-127,3.2v0.9v5.8
		c105-3.2,210.5-5.8,315.8-5.6c13.6,0,27.3,0.2,40.9,0.5c5.2,0.1,10.5,0.3,15.7,0.6c2.2,0.1,3.9,0.3,5.3,0.4
		c-6.4,1.2-14.9,2.3-18.7,2.9c-64,9.8-131,16.2-196.9,22.9c-53.9,5.5-107.9,10.5-162,15.4v6.7C34.7,294.8,42.6,293.8,50.1,293.1z"/>
	<path fill="#2E2012" d="M494.7,262.2c-36.8,2-72.7,6.4-108.6,10.3c-43.5,4.8-87.3,9.1-131.2,13.3c-37.4,3.6-74.9,7-112.4,10.4
		c-13,1.2-29,1.6-41.6,3.8c-1.2,0.1-2.2,0.3-2.9,0.6c-0.8,0.3-1.3,0.7-1.6,1.1c-23.3-0.5-46.7-1.1-70-1.7v5.5l71,2.9
		c3,0.1,6,0.1,9,0.2c51.4,0.9,102.7,1.5,154.1,2.4c0.2,0.1,0.4,0.1,0.6,0.2h0.1c0.3,0.1,0.6,0.1,0.9,0.2c0.1,0,0.2,0,0.2,0
		c0.2,0,0.4,0,0.6,0s0.4,0,0.6,0.1c7.9,0.3,15.9,0.2,24,0c2.2,0,4.3,0.1,6.5,0.1c1.8,0,3.1-0.2,4-0.6c26.4-1.6,53.2-5.3,78.3-7.4
		c29.9-2.5,59.9-4.8,90-6.7c19.3-1.2,39.2-2.7,58.8-1.5c60,3.5,120.1,6.4,180.3,9.1v-3.1l-143.2-6.1l28.9-3.2
		c-21.4-1.1-42.7-2.2-64-3.4c-44.3-2.5-93.2,3.5-136.3,6.8c-39.4,3.1-78.7,6.4-117.9,10c-2-0.1-4.1-0.2-6.1-0.3
		c-37-0.7-74-1.5-111.1-2.2c18.2-1.7,36.2-4,53.8-5.7c83.4-8.1,166.1-17.4,249.5-25.5c33.2-3.2,66.4-4.9,100.1-1.6
		c29.8,2.9,59.2,7.1,89,10.1c8.9,0.9,17.9,1.8,26.9,2.7l30.3-3.3v-1.1c-10.1-0.9-20.1-1.8-30.2-2.7
		C616,270.3,555.8,258.8,494.7,262.2z"/>
	<path fill="#2E2012" d="M26.6,456.9v6.9l12,0.5c104.7,1.6,209.5,2.4,314.1,1.8c80.8-0.5,160.7-4.6,241.3-6.8
		c21.9-0.6,43.8-1.2,65.7-1.7l-98.6-4c-67.8,2.3-135.3,5.3-203.5,5.7C247.3,460,136.9,458.7,26.6,456.9z"/>
	<path fill="#2E2012" d="M456.2,469.1c-38.6,0.5-77.2,0.8-115.8,1c-70.8,0.4-141.6,0.5-212.3,0.5l-65.9,7.2
		c90.5,0,180.9-0.3,271.3-0.8c72.2-0.4,144.6-2.8,216.7-2.6c51.3,0.2,104.2,4.1,155.3,10.5v-7.1c-45.7-5.4-92.6-8.7-138.8-9.9
		C530,466.9,492.9,468.6,456.2,469.1z"/>
	<path fill="#2E2012" d="M240,485.9c-70.7,3.4-142.2,4.4-213.5,5.7v6.7c69.7-1.4,139.5-2.6,208.9-5.5c64.3-2.7,128-1.6,192.6,0.2
		c93,2.6,185.3,7.8,277.4,13.9v-7.2c-89.6-5.7-179.5-10.5-269.8-13.2C370.6,484.6,304.9,482.8,240,485.9z"/>
	<path fill="#2E2012" d="M525,515.3c-42.1-5.8-85.5-12.8-129.4-15c-27.1-1.4-54.7-0.9-81.8-0.5c-95.9,1.3-191.8,5.3-287.2,10v6.8
		c89.9-4.4,180.2-7.9,270.6-9.7c27.5-0.5,55-0.9,82.6-0.3c39,0.8,77.4,6.8,114.6,11.8c57.6,7.7,114.8,16.1,172.6,23.4
		c12.8,1.6,25.6,3.3,38.6,4.8v-7.2c-1.9-0.2-3.8-0.4-5.7-0.7C641,531.8,583.1,523.3,525,515.3z"/>
	<path fill="#2E2012" d="M373,535.4c14.7-2,30.3-3.9,43.7-7.3c3.5-0.9,9-2.6,8.6-4.7c-1.3-7.7-37.9-6.8-49.8-7
		c-75-1.7-150.6,0.4-225.4,2.1c-41.2,0.9-82.3,1.9-123.5,3.1v6.7c103.9-3.1,208.1-5.7,312.3-5.5c13.6,0,27.3,0.2,40.9,0.5
		c5.2,0.1,10.4,0.3,15.7,0.6c2.2,0.1,3.9,0.2,5.2,0.4c-6.4,1.2-14.9,2.3-18.7,2.9c-64,9.8-131,16.2-196.9,22.9
		c-52.7,5.3-105.6,10.3-158.6,15.1v0.8h57.4c54.3-5.2,108.6-10.5,162.7-16.1C289,545.5,331.4,540.9,373,535.4z"/>
	<path fill="#2E2012" d="M144.4,538.2c0.1-8.3-65-6.9-117.9-4.6v7.4c11.5-0.4,23-0.8,34.5-1.2c13.2-0.4,26.5-0.7,39.8-0.8
		c5.7-0.1,11.4,0,17.1,0.1c0.4,0,0.8,0,1.2,0c-17.4,4-41.1,5.7-58.8,7.9c-11.2,1.4-22.5,2.7-33.9,4v7.4c15.6-1.8,31.3-3.7,46.8-5.7
		C85.1,551.3,144.3,546.4,144.4,538.2z"/>
	<path fill="#2E2012" d="M491.2,538.5c-36.8,2-72.7,6.4-108.5,10.3c-43.5,4.8-87.3,9.1-131.2,13.2c-13.6,1.3-27.3,2.6-40.9,3.8h71.3
		c57.9-6,115.7-12.3,173.8-17.9c33.2-3.2,66.4-4.8,100.1-1.6c29.8,2.9,59.2,7.1,89.1,10.1c19.9,2,40.2,4.1,60.7,6V555
		c-11.3-1-22.5-2-33.7-3C612.5,546.6,552.3,535.2,491.2,538.5z"/>
	<path fill="#2E2012" d="M459.5,565.9H541c-5.8-0.3-11.5-0.6-17.3-0.9C503,563.8,481.2,564.5,459.5,565.9z"/>
</g>
<path fill="none" d="M464.2,399.5c0,0,23.2-82.2,124.7-84.4"/>
</svg>
