<?xml version="1.0" encoding="utf-8"?>
<!-- Generator: Adobe Illustrator 21.0.0, SVG Export Plug-In . SVG Version: 6.00 Build 0)  -->
<svg version="1.1" id="Capa_1" xmlns="http://www.w3.org/2000/svg" xmlns:xlink="http://www.w3.org/1999/xlink" x="0px" y="0px"
	 viewBox="0 0 1024 768" enable-background="new 0 0 1024 768" xml:space="preserve">
<rect x="0" y="0" fill="#9ED68F" width="1024.1" height="762"/>
<g>
	<path fill="#7EC969" d="M0.1,279.8c0.7-1.3,39.5-51.7,62.6-71.8c9.8-8.5,21-16.8,34.8-19.3c16.6-3,34.1,3,46.5,12.6
		c12.5,9.6,20.7,22.3,28,35c7.6,13.2,18.2,28.8,35.9,28.9c20.8,0.1,31.3-21.2,49.8-29c2.9-1.2,6.4-2.1,9.4-1c2.6,1,4.2,3.2,5.9,5.1
		c10.8,12.4,31.7,16.4,49.7,13.3s33.8-11.8,48.6-21c34.2-21.1,59.8-42,99.1-55.6s58.8-17.7,90.3,6.1c15.3,11.5,39.6,27.4,53.2,40.3
		s56.5,23.3,76.1,17.9c6.2-1.7,12-4.9,18.5-4.5c4.6,0.2,8.8,2.3,12.4,4.5c23.4,14.4,38.5,41.9,67.6,43.4c24.4,1.3,43.1-17,65.4-25.3
		c5.4-2,11.4-3.4,17.2-2.5c5.9,0.9,10.8,4.1,15.9,6.6c19.5,9.2,44.4,7.9,64.7,0.1c20.3-7.8,36.6-21.5,50.3-36.2
		c5.7-6.1,12.8-13.2,22-12.4v544.4c0,0-1023,7.8-1023,0L0.1,279.8z"/>
</g>
<path fill="#5EBB44" d="M1024,768L0,768l0-540.6c0,0,44.3,23.3,57.5,82.6c12.7-11.4,28.6-21.3,48.6-28.4c0,0,10.3,45.7-14.8,99.3
	c10.1-11.7,23.4-22.9,40.8-32.9c0,0,30.2,43.5,18.6,103.8c10.8-33.2,37.7-68,98-90.3c0,0,16.5,25.2,20.2,62.6
	c21.3-15.3,51-26.5,92.3-28.6c0,0,5,17.8,3.5,43.2c12-12.6,22-18.7,22-18.7c8.2,11.1,14.3,22,18.8,32.6
	c13.1-45.4,39.6-69.9,39.6-69.9c18.5,25.6,26,51.2,27.3,74.7c24.2-15.3,44.5-19.9,44.5-19.9c4.2,8.8,7.8,17.3,10.7,25.5
	c15-15.5,28.7-22.6,28.7-22.6c10.6,12.4,18.5,24.5,24.3,36c5.7-15.1,11.8-23.9,11.8-23.9c22.8,13.2,38.7,28.4,49.5,44.1
	c-3.5-27.4,0.7-46,0.7-46c13.9,4.9,25.7,11.2,36,18.4c15.1-55,61.2-79,61.2-79c7.3,8.6,13.3,17,18.3,25.2
	c6.1-23.9,15.9-38.9,15.9-38.9c42.7,15.8,68.4,38,83.4,61.4c-0.6-46.5,21.3-77.9,21.3-77.9c17.3,10,30.6,21.2,40.8,32.9
	c-25.1-53.6-14.8-99.3-14.8-99.3c20,7.1,35.9,17,48.6,28.4c13.2-59.3,62.7-85,62.7-85c3.4,4,5.3,6.5,8.2,10.4L1024,768z
	 M943.4,431.3l-1.2,0.5c-0.5-1.3-1-2.6-1.5-4C941.5,429,942.4,430.2,943.4,431.3z M9.6,406L2,402.9l8.6-3.4
	C10.2,401.8,9.9,403.9,9.6,406z"/>
</svg>
