<?xml version="1.0" encoding="utf-8"?>
<!-- Generator: Adobe Illustrator 21.0.0, SVG Export Plug-In . SVG Version: 6.00 Build 0)  -->
<svg version="1.1" id="Capa_1" xmlns="http://www.w3.org/2000/svg" xmlns:xlink="http://www.w3.org/1999/xlink" x="0px" y="0px"
	 viewBox="0 0 133 194.4" enable-background="new 0 0 133 194.4" xml:space="preserve">
<g>
	
		<ellipse transform="matrix(0.9987 -5.008468e-02 5.008468e-02 0.9987 -2.7932 0.8965)" fill="#A97C50" cx="16.5" cy="56.2" rx="11.1" ry="11.1"/>
	
		<ellipse transform="matrix(0.9987 -5.008468e-02 5.008468e-02 0.9987 -2.8145 0.9587)" fill="#8B5E3C" cx="17.7" cy="56.6" rx="7.4" ry="7.4"/>
	
		<ellipse transform="matrix(0.9987 -5.008468e-02 5.008468e-02 0.9987 -2.429 5.7326)" fill="#A97C50" cx="113.2" cy="51.3" rx="11.1" ry="11.1"/>
	
		<ellipse transform="matrix(0.9987 -5.008468e-02 5.008468e-02 0.9987 -2.4594 5.6743)" fill="#8B5E3C" cx="112" cy="51.9" rx="7.4" ry="7.4"/>
	<path fill="#A97C50" d="M112.4,183.7l-93.6,0.5l0.6-121.6C18.2,37.4,37.6,16,62.8,14.7l0,0C88,13.5,109.4,32.8,110.7,58
		L112.4,183.7z"/>
	<path fill="#FFCE54" d="M22,43C28.1,26.3,43.7,14,62.6,13l0,0c18.9-0.9,35.6,9.7,43.4,25.7"/>
	<path fill="#E0A63F" d="M70.6,39.9l-14.2,0.7L55.3,17c-0.2-3.3,2.4-6.2,5.7-6.3l2.1-0.1c3.3-0.2,6.2,2.4,6.3,5.7L70.6,39.9z"/>
	<path fill="#E0A63F" d="M46.6,41.9l-11.3,0.6l-0.9-18.9c-0.1-2.7,1.9-4.9,4.6-5.1l1.7-0.1c2.7-0.1,4.9,1.9,5.1,4.6L46.6,41.9z"/>
	<path fill="#E0A63F" d="M91.7,39.6l-11.3,0.6l-0.9-18.9c-0.1-2.7,1.9-4.9,4.6-5.1l1.7-0.1c2.7-0.1,4.9,1.9,5.1,4.6L91.7,39.6z"/>
	
		<ellipse transform="matrix(0.9987 -5.008468e-02 5.008468e-02 0.9987 -3.3333 1.6697)" fill="#2A2A2A" cx="31.7" cy="67.3" rx="5.5" ry="5.5"/>
	
		<ellipse transform="matrix(0.9987 -5.008468e-02 5.008468e-02 0.9987 -3.249 1.777)" opacity="0.7" fill="#F6F7FA" cx="33.8" cy="65.7" rx="1.5" ry="1.5"/>
	
		<ellipse transform="matrix(0.9987 -5.008468e-02 5.008468e-02 0.9987 -3.0819 5.0089)" fill="#2A2A2A" cx="98.4" cy="64" rx="5.5" ry="5.5"/>
	
		<ellipse transform="matrix(0.9987 -5.008468e-02 5.008468e-02 0.9987 -2.9976 5.1159)" opacity="0.7" fill="#F6F7FA" cx="100.6" cy="62.4" rx="1.5" ry="1.5"/>
	<g>
		<g>
			<path fill="#68472D" d="M27.8,58.8c3.1,0.7,6.1,1.6,9.1,2.7c1.3,0.5,1.9-1.6,0.6-2.1c-3-1.1-6-2-9.1-2.7
				C27,56.4,26.4,58.5,27.8,58.8L27.8,58.8z"/>
		</g>
	</g>
	<g>
		<g>
			<path fill="#68472D" d="M101,53c-3.1,1.1-6.1,2.3-9.1,3.7c-1.3,0.6-0.2,2.5,1.1,1.9c2.8-1.3,5.6-2.5,8.6-3.5
				C102.9,54.7,102.3,52.6,101,53L101,53z"/>
		</g>
	</g>
	<path fill="#FFEBBB" d="M65.1,90.4l-0.2,0c-0.7,0-1.3-0.5-1.4-1.2l-0.2-3.6c0-0.7,0.5-1.3,1.2-1.4l0.2,0c0.7,0,1.3,0.5,1.4,1.2
		l0.2,3.6C66.3,89.8,65.8,90.4,65.1,90.4z"/>
	<path fill="#FFEBBB" d="M68.5,90.3l-0.2,0c-0.7,0-1.3-0.5-1.4-1.2l-0.2-3.6c0-0.7,0.5-1.3,1.2-1.4l0.2,0c0.7,0,1.3,0.5,1.4,1.2
		l0.2,3.6C69.7,89.6,69.2,90.2,68.5,90.3z"/>
	<g>
		<g>
			<path fill="#68472D" d="M77.2,79.8c0.1,2.8-1.8,5.6-4.8,5.6c-2.9,0-6.2-3-4.4-6c0.9-1.5-1.5-2.9-2.3-1.4c-2.6,4.4,1.1,9.3,5.8,10
				c4.8,0.7,8.8-3.5,8.5-8.2C79.8,78.1,77.1,78.1,77.2,79.8L77.2,79.8z"/>
		</g>
	</g>
	<g>
		<g>
			<path fill="#68472D" d="M52.3,81.1c0.3,4.7,4.4,8.6,9.2,7.5c4.5-1,7.9-6.3,4.9-10.4c-1-1.4-3.3,0-2.3,1.4
				c1.9,2.7-0.4,5.9-3.3,6.5c-3.1,0.6-5.6-2-5.8-4.9C54.9,79.3,52.2,79.3,52.3,81.1L52.3,81.1z"/>
		</g>
	</g>
	<path fill="#8B5E3C" d="M59.8,73.3l12.3-0.6c1.8-0.1,2.7,2,1.5,3.3l-5.8,4.5c-0.7,0.7-1.8,0.8-2.6,0.2l-6.5-3.9
		C57.2,75.8,57.9,73.4,59.8,73.3z"/>
	<path fill="#F6BB43" d="M108.7,48.1l-87.8,4.4c-1.9,0.1-3.5-1.4-3.6-3.3l-0.2-3.1c-0.1-1.9,1.4-3.5,3.3-3.6l87.8-4.4
		c1.9-0.1,3.5,1.4,3.6,3.3l0.2,3.1C112,46.4,110.6,48,108.7,48.1z"/>
	
		<ellipse transform="matrix(0.9987 -5.008468e-02 5.008468e-02 0.9987 -1.6538 3.2346)" fill="#CC963E" cx="63.7" cy="34.6" rx="12.3" ry="12.3"/>
	
		<ellipse transform="matrix(0.9987 -5.008468e-02 5.008468e-02 0.9987 -1.6552 3.2414)" fill="#F6F7FA" cx="63.9" cy="34.6" rx="9.4" ry="9.4"/>
	<g>
		<g>
			<path fill="#E7E9EE" d="M66.5,30.2c1.6,1,2.9,2.6,3,4.5c0.1,1.7-0.8,4.2-2.6,4.8c-1.5,0.5-0.9,2.9,0.7,2.4
				c2.7-0.9,4.4-3.9,4.5-6.6c0.2-3-1.9-5.6-4.3-7.2C66.4,27.2,65.1,29.4,66.5,30.2L66.5,30.2z"/>
		</g>
	</g>
	<g>
		<g>
			<path fill="#E7E9EE" d="M56,34.1c-0.1,1.9,0.6,3.7,1.8,5c1.1,1.2,2.9-0.6,1.8-1.8c-0.9-0.9-1.2-2-1.1-3.2
				C58.6,32.5,56.1,32.5,56,34.1L56,34.1z"/>
		</g>
	</g>
</g>
</svg>
