<?xml version="1.0" encoding="utf-8"?>
<!-- Generator: Adobe Illustrator 21.0.0, SVG Export Plug-In . SVG Version: 6.00 Build 0)  -->
<svg version="1.1" id="Capa_1" xmlns="http://www.w3.org/2000/svg" xmlns:xlink="http://www.w3.org/1999/xlink" x="0px" y="0px"
	 viewBox="0 0 213 106.5" enable-background="new 0 0 213 106.5" xml:space="preserve">
<path fill="#3F2A18" d="M200.2,60c0,19.5-16,35.5-35.5,35.5H43.3c-19.5,0-35.5-16-35.5-35.5v-4.6c0-19.5,16-35.5,35.5-35.5h121.4
	c19.5,0,35.5,16,35.5,35.5V60z"/>
<g>
	<path fill="#FFCE54" d="M203.3,52.9c0,19.5-16,35.5-35.5,35.5H46.4c-19.5,0-35.5-16-35.5-35.5v-4.6c0-19.5,16-35.5,35.5-35.5h121.4
		c19.5,0,35.5,16,35.5,35.5V52.9z"/>
</g>
<g opacity="0.62">
	<path fill="#E0A63F" d="M86,12.8h29C105.3,12.6,95.6,12.5,86,12.8z"/>
	<path fill="#E0A63F" d="M128.8,14.8c18.8,0.5,37.5,1.4,56.2,2.5c-1.3-0.7-2.6-1.3-3.9-1.9c-16.7-0.9-33.5-1.7-50.3-2.2
		c-5.3-0.2-10.5-0.3-15.8-0.4H86c-1.8,0-3.5,0.1-5.3,0.2c-14.4,0.6-29,0.9-43.5,1.1c-1.6,0.4-3.2,1-4.7,1.6
		c15.7-0.3,31.4-0.5,47-1.1C96,14,112.3,14.3,128.8,14.8z"/>
	<path fill="#E0A63F" d="M116.4,17.9c10,0.2,19.8,1.6,29.3,2.8c14.7,1.8,29.4,3.8,44.1,5.6c2.1,0.2,4.2,0.5,6.3,0.7
		c-0.5-0.6-1-1.3-1.5-1.9c-13.8-1.6-27.5-3.4-41.1-5.2c-10.8-1.4-21.9-3.1-33.1-3.6c-6.9-0.3-14-0.2-20.9-0.2
		c-24.1,0.3-48.2,1.1-72.2,2.1c-0.8,0.5-1.6,1.1-2.4,1.7c23.4-1,46.9-1.8,70.4-2.2C102.3,17.8,109.4,17.7,116.4,17.9z"/>
	<path fill="#E0A63F" d="M56.3,25.2c0-2.3-22-1.5-36-0.9c-0.5,0.6-1,1.1-1.5,1.7c5.4-0.2,10.8-0.4,16.1-0.5
		c3.4-0.1,6.8-0.1,10.2-0.2c1.5,0,2.9,0,4.4,0c0.1,0,0.2,0,0.3,0c-4.5,0.9-10.5,1.3-15,1.8c-6,0.7-12.1,1.3-18.2,1.8
		c-0.4,0.6-0.8,1.2-1.1,1.9c7.6-0.7,15.1-1.5,22.6-2.3C41.1,28.3,56.3,27.1,56.3,25.2z"/>
	<path fill="#E0A63F" d="M60.2,63.6c-16.1-0.2-32.9-1.7-48.6-4c0.1,0.6,0.2,1.2,0.4,1.8c14.3,2,29.2,3.2,43.9,3.7
		c9.4,0.3,18.9,0,28.3-0.1c9.9,0,19.7,0,29.6,0c29,0.1,58.1,0.3,87.2,0.6c0.2-0.6,0.4-1.1,0.6-1.7c-28.7-0.2-57.3-0.4-86-0.5
		C97.2,63.4,78.6,63.8,60.2,63.6z"/>
	<path fill="#E0A63F" d="M91.5,59.5c-27-0.9-53.8-2.6-80.5-4.5c0,0.6,0.1,1.2,0.1,1.7c26,1.8,52.1,3.4,78.4,4.3
		c16.7,0.6,33.4,1.1,50.1,0.5c20.9-0.8,42-0.8,62.9-1c0.1-0.5,0.2-1,0.3-1.6c-20.7,0.3-41.5,0.3-62.1,1C124.3,60.4,108,60,91.5,59.5
		z"/>
	<path fill="#E0A63F" d="M104,56.4c-10-0.3-19.8-1.8-29.3-3c-14.7-1.9-29.3-4-44-5.8c-6.4-0.8-13-1.6-19.6-2.2
		c0,0.6-0.1,1.1-0.1,1.7c3.8,0.4,7.5,0.8,11.2,1.2c15,1.7,29.8,3.8,44.6,5.8c10.7,1.4,21.8,3.2,33,3.8c6.9,0.4,14,0.3,20.9,0.3
		c27.5-0.1,55.1-1.1,82.4-2.1c0-0.5,0.1-1.1,0.1-1.6c-26,1-52.1,1.8-78.3,2.1C118,56.6,111,56.6,104,56.4z"/>
	<path fill="#E0A63F" d="M138.2,46.5c-10.9,0.9-21.7,1.9-32.4,3.1c-3.8,0.4-7.8,0.9-11.2,1.6c-0.9,0.2-2.3,0.6-2.2,1.1
		c0.3,1.8,9.7,1.7,12.7,1.7c19.2,0.5,38.5,0.2,57.7,0c13.5-0.2,27.1-0.4,40.6-0.7c0-0.2,0-0.3,0-0.5v-1.1
		c-29.6,0.6-59.2,1.1-88.9,0.9c-3.5,0-7-0.1-10.5-0.2c-1.3,0-2.7-0.1-4-0.2c-0.6,0-1-0.1-1.3-0.1c1.6-0.3,3.8-0.5,4.8-0.6
		c16.4-2.2,33.6-3.6,50.5-5c16.3-1.4,32.6-2.6,49-3.9c-0.1-0.6-0.2-1.1-0.3-1.7c-4.5,0.3-9.1,0.9-13.2,1.2
		C172.3,43.7,155.2,45,138.2,46.5z"/>
	<path fill="#E0A63F" d="M164.3,49.4c-0.1,2.4,25.6,1.5,39.1,1v-1.7c-5.9,0.2-11.8,0.4-17.8,0.5c-3.4,0.1-6.8,0.1-10.2,0.1
		c-1.5,0-2.9,0-4.4-0.1c-0.1,0-0.2,0-0.3,0c4.5-0.9,10.5-1.3,15.1-1.7c5.8-0.6,11.6-1.1,17.5-1.7c0-0.6-0.1-1.2-0.2-1.7
		c-6.9,0.6-13.8,1.3-20.6,2C179.5,46.5,164.3,47.5,164.3,49.4z"/>
	<path fill="#E0A63F" d="M127.1,37.3c-0.7,0-1.1,0.1-1.3,0.3c-6.7,0.3-13.4,1.1-19.8,1.6c-7.7,0.5-15.3,1-23,1.4
		c-4.9,0.2-10,0.5-15,0.2c-18.4-1.1-36.9-2-55.4-2.9c-0.2,0.5-0.3,1.1-0.5,1.7c18.5,0.9,36.9,1.8,55.3,2.9
		c11.3,0.7,23.9-0.6,34.9-1.3c10.9-0.7,21.7-1.5,32.5-2.3c12.3,0.2,24.5,0.4,36.8,0.6c-7.7,0.1-15.5,1.1-22.9,1.7
		c-21.4,1.7-42.6,3.8-63.9,5.5c-8.5,0.7-17,1-25.6,0.2C51.5,46,44,44.9,36.4,44.2c-8.1-0.8-16.5-1.7-24.8-2.3
		c-0.1,0.6-0.2,1.2-0.3,1.8c6.1,0.5,12.1,1,18.2,1.5c15.2,1.4,30.5,4.2,46.1,3.5c9.4-0.4,18.6-1.4,27.8-2.2c11.2-1,22.4-2,33.6-2.9
		c9.6-0.8,19.2-1.5,28.8-2.2c3.3-0.3,7.4-0.3,10.6-0.8c0.3,0,0.6-0.1,0.7-0.1c0.9-0.3,0.5-1-0.7-1c8.6,0.1,17.2,0.3,25.8,0.5
		c-0.1-0.6-0.3-1.1-0.5-1.7c-8.9-0.1-17.9-0.3-26.8-0.4C159.1,37.6,143.1,37.5,127.1,37.3z"/>
	<path fill="#E0A63F" d="M145,25.5c-9.4,0.5-18.6,1.5-27.8,2.4c-11.1,1.1-22.3,2.1-33.5,3c-9.6,0.8-19.2,1.6-28.7,2.4
		c-3.3,0.3-7.4,0.4-10.6,0.9c-0.3,0-0.6,0.1-0.7,0.1c-0.2,0.1-0.3,0.2-0.4,0.3c-8.8-0.2-17.6-0.4-26.3-0.6c4.9-0.3,10-1,14.4-1.4
		c17.1-1.5,34.1-2.9,51.1-4.5c10.8-1,21.7-2.1,32.3-3.3c3.7-0.5,7.7-0.9,11.2-1.7c0.9-0.2,2.3-0.6,2.2-1.1
		c-0.3-1.8-9.7-1.6-12.7-1.7c-19.2-0.4-38.5,0-57.6,0.4c-11.4,0.2-22.8,0.5-34.2,0.7c-0.6,0.5-1.2,1.1-1.8,1.6
		c28-0.7,56.2-1.3,84.3-1.2c3.5,0,7,0.1,10.5,0.1c1.3,0,2.7,0.1,4,0.1c0.6,0,1,0.1,1.3,0.1c-1.6,0.3-3.8,0.5-4.8,0.7
		C100.7,25,83.6,26.5,66.7,28c-17.2,1.6-34.6,3-51.9,4.4c-0.5,1-1,2.1-1.4,3.1c0,0,0.1,0,0.2,0C24.2,35.8,35,36,45.7,36.2
		c13.1,0.2,26.3,0.4,39.4,0.6c0.1,0,0.1,0,0.2,0c0,0,0,0,0,0c0.1,0,0.2,0,0.2,0c0,0,0,0,0.1,0c0.1,0,0.1,0,0.2,0c0.1,0,0.1,0,0.1,0
		c2,0.1,4.1,0.1,6.1,0c0.6,0,1.1,0,1.7,0c0.5,0,0.8,0,1-0.1c6.8-0.4,13.6-1.2,20-1.7c7.6-0.6,15.3-1.1,23-1.5c4.9-0.3,10-0.6,15-0.3
		c16,0.9,32.1,1.6,48.2,2.3c-0.2-0.6-0.5-1.1-0.7-1.7c-15.7-0.7-31.3-1.3-46.9-2.2c-11.3-0.6-23.8,0.8-34.9,1.5
		c-10.1,0.7-20.1,1.5-30.1,2.3c-0.5,0-1,0-1.6-0.1c-9.5-0.2-18.9-0.4-28.4-0.6c4.6-0.4,9.3-0.9,13.8-1.3c21.3-1.9,42.5-4,63.8-5.9
		c8.5-0.7,17-1.1,25.6-0.3c7.6,0.7,15.1,1.7,22.8,2.4c4.8,0.4,9.7,0.9,14.6,1.4c-0.3-0.6-0.7-1.2-1.1-1.8c-2.2-0.2-4.4-0.4-6.6-0.6
		C176,27.4,160.6,24.7,145,25.5z"/>
	<path fill="#E0A63F" d="M110,71.7c-31.4,0.1-62.8-0.3-94.2-0.9c0.3,0.6,0.7,1.2,1.1,1.7c30.6,0.6,61.3,0.9,91.9,0.8
		c20.7-0.1,41.1-1,61.7-1.5c9.3-0.2,18.5-0.4,27.8-0.6c0.3-0.5,0.6-1.1,0.9-1.6c-9,0.2-18,0.3-27.1,0.5
		C151.4,70.6,130.8,71.6,110,71.7z"/>
	<path fill="#E0A63F" d="M135.2,74c-9.9,0.1-19.7,0.1-29.6,0.2c-29.2,0.1-58.4,0-87.6-0.1c0.4,0.6,0.9,1.1,1.4,1.7
		c28.2,0.1,56.3,0.1,84.5,0c18.5-0.1,37-0.6,55.4-0.5c11.3,0.1,23,0.8,34.3,2c0.5-0.5,0.9-1,1.3-1.5c-10.4-1-21-1.7-31.5-2
		C154.1,73.5,144.6,73.9,135.2,74z"/>
	<path fill="#E0A63F" d="M80,77.9c-19,0.8-38.2,1-57.4,1.3c0.6,0.5,1.2,1,1.8,1.5c18.2-0.3,36.3-0.5,54.4-1.2
		c16.4-0.6,32.7-0.3,49.3,0.1c20,0.5,39.8,1.5,59.6,2.7c0.7-0.5,1.4-1,2.1-1.5c-19.9-1.2-39.8-2.1-59.8-2.7
		C113.4,77.6,96.6,77.2,80,77.9z"/>
	<path fill="#E0A63F" d="M119.8,81.3c-6.9-0.3-14-0.2-20.9-0.2c-23.6,0.3-47.3,1.1-70.8,2.1c0.9,0.5,1.8,1,2.7,1.5
		c21.2-0.9,42.5-1.6,63.9-1.9c7-0.1,14.1-0.2,21.1,0c10,0.2,19.8,1.6,29.3,2.8c7.3,0.9,14.7,1.9,22,2.8h0.9c2.4,0,4.7-0.2,6.9-0.7
		c-7.3-0.9-14.6-1.9-21.9-2.8C142.1,83.5,131,81.8,119.8,81.3z"/>
	<path fill="#E0A63F" d="M127.4,86.7c-0.3-1.8-9.7-1.6-12.7-1.7c-19.2-0.4-38.5,0-57.6,0.4c-7.9,0.1-15.7,0.3-23.6,0.5
		c1.5,0.6,2.9,1.1,4.5,1.4c22.4-0.5,44.9-0.9,67.4-0.8c3.5,0,7,0.1,10.5,0.1c1.3,0,2.7,0.1,4,0.1c0.6,0,1,0.1,1.3,0.1
		c-1.6,0.3-3.8,0.5-4.8,0.7c-2.1,0.3-4.2,0.6-6.4,0.8h12.3c1-0.2,2-0.4,2.9-0.6C126.1,87.6,127.5,87.2,127.4,86.7z"/>
</g>
</svg>
