<?xml version="1.0" encoding="utf-8"?>
<!-- Generator: Adobe Illustrator 21.0.0, SVG Export Plug-In . SVG Version: 6.00 Build 0)  -->
<svg version="1.1" id="Capa_1" xmlns="http://www.w3.org/2000/svg" xmlns:xlink="http://www.w3.org/1999/xlink" x="0px" y="0px"
	 viewBox="0 0 724 589.5" enable-background="new 0 0 724 589.5" xml:space="preserve">
<g>
	<rect x="71.3" y="13.7" fill="#E0A63F" width="9.6" height="226.5"/>
	<g>
		<path fill="#A87D2F" d="M72.4,215.8c2.2,1.8,4.5,3.6,6.7,5.4c0.8,0.7,1.6-0.9,0.8-1.5c-2.2-1.8-4.5-3.6-6.7-5.4
			C72.3,213.6,71.6,215.1,72.4,215.8L72.4,215.8z"/>
	</g>
	<g>
		<path fill="#A87D2F" d="M72.4,201.5c2.2,1.8,4.5,3.6,6.7,5.4c0.8,0.7,1.6-0.9,0.8-1.5c-2.2-1.8-4.5-3.6-6.7-5.4
			C72.3,199.3,71.6,200.8,72.4,201.5L72.4,201.5z"/>
	</g>
	<g>
		<path fill="#A87D2F" d="M72.4,187.2c2.2,1.8,4.5,3.6,6.7,5.4c0.8,0.7,1.6-0.9,0.8-1.5c-2.2-1.8-4.5-3.6-6.7-5.4
			C72.3,185,71.6,186.5,72.4,187.2L72.4,187.2z"/>
	</g>
	<g>
		<path fill="#A87D2F" d="M72.4,172.9c2.2,1.8,4.5,3.6,6.7,5.4c0.8,0.7,1.6-0.9,0.8-1.5c-2.2-1.8-4.5-3.6-6.7-5.4
			C72.3,170.7,71.6,172.2,72.4,172.9L72.4,172.9z"/>
	</g>
	<g>
		<path fill="#A87D2F" d="M72.4,158.6c2.2,1.8,4.5,3.6,6.7,5.4c0.8,0.7,1.6-0.9,0.8-1.5c-2.2-1.8-4.5-3.6-6.7-5.4
			C72.3,156.3,71.6,157.9,72.4,158.6L72.4,158.6z"/>
	</g>
	<g>
		<path fill="#A87D2F" d="M72.4,144.3c2.2,1.8,4.5,3.6,6.7,5.4c0.8,0.7,1.6-0.9,0.8-1.5c-2.2-1.8-4.5-3.6-6.7-5.4
			C72.3,142,71.6,143.6,72.4,144.3L72.4,144.3z"/>
	</g>
	<g>
		<path fill="#A87D2F" d="M72.4,129.9c2.2,1.8,4.5,3.6,6.7,5.4c0.8,0.7,1.6-0.9,0.8-1.5c-2.2-1.8-4.5-3.6-6.7-5.4
			C72.3,127.7,71.6,129.3,72.4,129.9L72.4,129.9z"/>
	</g>
	<g>
		<path fill="#A87D2F" d="M72.4,115.6c2.2,1.8,4.5,3.6,6.7,5.4c0.8,0.7,1.6-0.9,0.8-1.5c-2.2-1.8-4.5-3.6-6.7-5.4
			C72.3,113.4,71.6,115,72.4,115.6L72.4,115.6z"/>
	</g>
	<g>
		<path fill="#A87D2F" d="M72.4,101.3c2.2,1.8,4.5,3.6,6.7,5.4c0.8,0.7,1.6-0.9,0.8-1.5c-2.2-1.8-4.5-3.6-6.7-5.4
			C72.3,99.1,71.6,100.7,72.4,101.3L72.4,101.3z"/>
	</g>
	<g>
		<path fill="#A87D2F" d="M72.4,87c2.2,1.8,4.5,3.6,6.7,5.4c0.8,0.7,1.6-0.9,0.8-1.5c-2.2-1.8-4.5-3.6-6.7-5.4
			C72.3,84.8,71.6,86.4,72.4,87L72.4,87z"/>
	</g>
	<g>
		<path fill="#A87D2F" d="M72.4,72.7c2.2,1.8,4.5,3.6,6.7,5.4c0.8,0.7,1.6-0.9,0.8-1.5c-2.2-1.8-4.5-3.6-6.7-5.4
			C72.3,70.5,71.6,72.1,72.4,72.7L72.4,72.7z"/>
	</g>
	<g>
		<path fill="#A87D2F" d="M72.4,58.4c2.2,1.8,4.5,3.6,6.7,5.4c0.8,0.7,1.6-0.9,0.8-1.5c-2.2-1.8-4.5-3.6-6.7-5.4
			C72.3,56.2,71.6,57.7,72.4,58.4L72.4,58.4z"/>
	</g>
	<g>
		<path fill="#A87D2F" d="M72.4,44.1c2.2,1.8,4.5,3.6,6.7,5.4c0.8,0.7,1.6-0.9,0.8-1.5c-2.2-1.8-4.5-3.6-6.7-5.4
			C72.3,41.9,71.6,43.4,72.4,44.1L72.4,44.1z"/>
	</g>
	<g>
		<path fill="#A87D2F" d="M72.4,29.8c2.2,1.8,4.5,3.6,6.7,5.4c0.8,0.7,1.6-0.9,0.8-1.5c-2.2-1.8-4.5-3.6-6.7-5.4
			C72.3,27.6,71.6,29.1,72.4,29.8L72.4,29.8z"/>
	</g>
	<g>
		<path fill="#A87D2F" d="M72.4,15.4c2.2,1.8,4.5,3.6,6.7,5.4c0.8,0.7,1.6-0.9,0.8-1.5c-2.2-1.8-4.5-3.6-6.7-5.4
			C72.3,13.2,71.6,14.8,72.4,15.4L72.4,15.4z"/>
	</g>
</g>
<g>
	<rect x="642.4" y="13.7" fill="#E0A63F" width="9.6" height="226.5"/>
	<g>
		<path fill="#A87D2F" d="M643.5,215.8c2.2,1.8,4.5,3.6,6.7,5.4c0.8,0.7,1.6-0.9,0.8-1.5c-2.2-1.8-4.5-3.6-6.7-5.4
			C643.4,213.6,642.7,215.1,643.5,215.8L643.5,215.8z"/>
	</g>
	<g>
		<path fill="#A87D2F" d="M643.5,201.5c2.2,1.8,4.5,3.6,6.7,5.4c0.8,0.7,1.6-0.9,0.8-1.5c-2.2-1.8-4.5-3.6-6.7-5.4
			C643.4,199.3,642.7,200.8,643.5,201.5L643.5,201.5z"/>
	</g>
	<g>
		<path fill="#A87D2F" d="M643.5,187.2c2.2,1.8,4.5,3.6,6.7,5.4c0.8,0.7,1.6-0.9,0.8-1.5c-2.2-1.8-4.5-3.6-6.7-5.4
			C643.4,185,642.7,186.5,643.5,187.2L643.5,187.2z"/>
	</g>
	<g>
		<path fill="#A87D2F" d="M643.5,172.9c2.2,1.8,4.5,3.6,6.7,5.4c0.8,0.7,1.6-0.9,0.8-1.5c-2.2-1.8-4.5-3.6-6.7-5.4
			C643.4,170.7,642.7,172.2,643.5,172.9L643.5,172.9z"/>
	</g>
	<g>
		<path fill="#A87D2F" d="M643.5,158.6c2.2,1.8,4.5,3.6,6.7,5.4c0.8,0.7,1.6-0.9,0.8-1.5c-2.2-1.8-4.5-3.6-6.7-5.4
			C643.4,156.3,642.7,157.9,643.5,158.6L643.5,158.6z"/>
	</g>
	<g>
		<path fill="#A87D2F" d="M643.5,144.3c2.2,1.8,4.5,3.6,6.7,5.4c0.8,0.7,1.6-0.9,0.8-1.5c-2.2-1.8-4.5-3.6-6.7-5.4
			C643.4,142,642.7,143.6,643.5,144.3L643.5,144.3z"/>
	</g>
	<g>
		<path fill="#A87D2F" d="M643.5,129.9c2.2,1.8,4.5,3.6,6.7,5.4c0.8,0.7,1.6-0.9,0.8-1.5c-2.2-1.8-4.5-3.6-6.7-5.4
			C643.4,127.7,642.7,129.3,643.5,129.9L643.5,129.9z"/>
	</g>
	<g>
		<path fill="#A87D2F" d="M643.5,115.6c2.2,1.8,4.5,3.6,6.7,5.4c0.8,0.7,1.6-0.9,0.8-1.5c-2.2-1.8-4.5-3.6-6.7-5.4
			C643.4,113.4,642.7,115,643.5,115.6L643.5,115.6z"/>
	</g>
	<g>
		<path fill="#A87D2F" d="M643.5,101.3c2.2,1.8,4.5,3.6,6.7,5.4c0.8,0.7,1.6-0.9,0.8-1.5c-2.2-1.8-4.5-3.6-6.7-5.4
			C643.4,99.1,642.7,100.7,643.5,101.3L643.5,101.3z"/>
	</g>
	<g>
		<path fill="#A87D2F" d="M643.5,87c2.2,1.8,4.5,3.6,6.7,5.4c0.8,0.7,1.6-0.9,0.8-1.5c-2.2-1.8-4.5-3.6-6.7-5.4
			C643.4,84.8,642.7,86.4,643.5,87L643.5,87z"/>
	</g>
	<g>
		<path fill="#A87D2F" d="M643.5,72.7c2.2,1.8,4.5,3.6,6.7,5.4c0.8,0.7,1.6-0.9,0.8-1.5c-2.2-1.8-4.5-3.6-6.7-5.4
			C643.4,70.5,642.7,72.1,643.5,72.7L643.5,72.7z"/>
	</g>
	<g>
		<path fill="#A87D2F" d="M643.5,58.4c2.2,1.8,4.5,3.6,6.7,5.4c0.8,0.7,1.6-0.9,0.8-1.5c-2.2-1.8-4.5-3.6-6.7-5.4
			C643.4,56.2,642.7,57.7,643.5,58.4L643.5,58.4z"/>
	</g>
	<g>
		<path fill="#A87D2F" d="M643.5,44.1c2.2,1.8,4.5,3.6,6.7,5.4c0.8,0.7,1.6-0.9,0.8-1.5c-2.2-1.8-4.5-3.6-6.7-5.4
			C643.4,41.9,642.7,43.4,643.5,44.1L643.5,44.1z"/>
	</g>
	<g>
		<path fill="#A87D2F" d="M643.5,29.8c2.2,1.8,4.5,3.6,6.7,5.4c0.8,0.7,1.6-0.9,0.8-1.5c-2.2-1.8-4.5-3.6-6.7-5.4
			C643.4,27.6,642.7,29.1,643.5,29.8L643.5,29.8z"/>
	</g>
	<g>
		<path fill="#A87D2F" d="M643.5,15.4c2.2,1.8,4.5,3.6,6.7,5.4c0.8,0.7,1.6-0.9,0.8-1.5c-2.2-1.8-4.5-3.6-6.7-5.4
			C643.4,13.2,642.7,14.8,643.5,15.4L643.5,15.4z"/>
	</g>
</g>
<polygon fill="#3F2A18" points="697.6,445.3 697.6,355.9 626.5,351.2 697.6,339.3 697.6,310.3 554.4,304.2 697.6,288.6 697.6,201.3 
	18.6,201.3 18.6,238 92.5,242.8 18.6,255.2 18.6,314.6 153.2,320.1 18.6,334.2 18.6,427.9 64.4,430.9 18.6,438.5 18.6,478.7 
	33.8,475.4 18.6,490.8 18.6,575 697.6,575 697.6,468.5 537.7,462 "/>
<g>
	<polyline fill="#5C3F23" points="26.6,246.1 26.6,305.5 74.4,311 26.6,325.1 26.6,418.8 72.4,421.8 26.6,429.5 26.6,472.6 
		43.8,477.6 26.6,490.5 26.6,565.9 705.6,565.9 705.6,459.5 642,452.9 705.6,436.2 705.6,346.8 634.5,342.2 705.6,330.3 
		705.6,301.3 618.4,295.2 705.6,279.5 705.6,192.2 26.6,192.2 26.6,228.9 	"/>
	<line fill="#FFFFFF" x1="26.6" y1="246.1" x2="26.6" y2="228.9"/>
	<line fill="#FFFFFF" x1="26.6" y1="325.1" x2="26.6" y2="305.5"/>
	<line fill="#FFFFFF" x1="26.6" y1="429.5" x2="26.6" y2="418.8"/>
	<line fill="#FFFFFF" x1="26.6" y1="481.7" x2="26.6" y2="463.8"/>
</g>
<circle fill="#2E2012" cx="75.9" cy="211.6" r="10.4"/>
<circle fill="#2E2012" cx="647.4" cy="211.6" r="10.4"/>
<g opacity="0.24">
	<path fill="none" d="M26.6,300v-4.2c-10.8,1.3-21.9,2.6-32.9,3.4C4.6,299.5,15.6,299.7,26.6,300z"/>
	<path fill="#FFFFFF" stroke="#231F20" stroke-miterlimit="10" d="M343.9,193.7c38.6-0.2,77.2-0.5,115.8-1c9-0.1,18.1-0.3,27.2-0.5
		H26.6v2C132.4,194.3,238.1,194.3,343.9,193.7z"/>
	<path fill="#2E2012" d="M570.3,191.5c-27.7-0.7-55.6,0.1-83.4,0.7h105.8C585.1,191.9,577.7,191.7,570.3,191.5z"/>
	<path fill="#2E2012" d="M337,200.6c72.2-0.4,144.6-2.8,216.7-2.6c50.1,0.2,101.8,3.9,151.8,10.1V201c-37.2-4.3-75.2-7.2-113-8.7
		H486.8c-9.1,0.2-18.1,0.4-27.2,0.5c-38.6,0.5-77.2,0.8-115.8,1c-105.8,0.6-211.5,0.6-317.3,0.5v7.2
		C130,201.5,233.6,201.3,337,200.6z"/>
	<path fill="#2E2012" d="M431.6,216.7c91.8,2.5,183,7.6,273.9,13.6v-7.2c-88.5-5.6-177.2-10.4-266.3-13
		c-65.2-1.9-130.8-3.7-195.7-0.5c-71.9,3.5-144.6,4.4-217,5.8v6.7c70.9-1.4,141.9-2.6,212.4-5.5C303.3,213.8,367,214.9,431.6,216.7z
		"/>
	<path fill="#2E2012" d="M383.2,230.2c39,0.9,77.4,6.8,114.7,11.8c57.6,7.7,114.8,16.1,172.6,23.5c11.6,1.5,23.3,3,35.1,4.4v-7.2
		c-0.7-0.1-1.4-0.2-2.1-0.2c-58.9-6.9-116.8-15.4-174.9-23.4c-42.1-5.8-85.5-12.8-129.4-15c-27-1.4-54.7-0.9-81.8-0.5
		c-97.1,1.3-194.2,5.4-290.8,10.2v6.8c91.1-4.4,182.5-8.1,274.1-9.9C328.1,229.9,355.7,229.6,383.2,230.2z"/>
	<path fill="#2E2012" d="M147.9,261.9c0.1-8.5-67.9-6.9-121.4-4.4v7.4c12.7-0.5,25.3-0.9,38-1.3c13.3-0.4,26.5-0.7,39.8-0.8
		c5.7,0,11.4,0,17.1,0.1c0.4,0,0.8,0,1.2,0c-17.4,4-41.1,5.7-58.8,7.9c-12.4,1.5-24.9,3-37.4,4.4v7.5c16.8-1.9,33.6-3.9,50.3-6.1
		C88.6,275,147.8,270.1,147.9,261.9z"/>
	<path fill="#2E2012" d="M162.8,425.5c-45-0.4-91.2-3.8-136.3-9.1v2.4l45.8,3l-23.2,3.9c32.2,3.1,64.8,5.2,97,6.2
		c36.7,1.1,73.9-0.3,110.6-0.6c38.6-0.3,77.2-0.3,115.8-0.3c111,0.1,221.9,0.8,332.9,1.6v-7.2c-108.6-0.8-217.3-1.2-325.9-1.2
		C307.5,424.2,235,426.2,162.8,425.5z"/>
	<path fill="#2E2012" d="M285.3,407.6c-86.8-2.9-172.9-8.1-258.8-14.3v7.2c83.4,5.7,167,10.6,251,13.6c65.1,2.3,130.8,4.5,195.7,1.7
		c77-3.2,154.8-3.6,232.3-4.6v-6.7c-75.9,1.1-152,1.7-227.6,4.4C413.6,411.2,349.9,409.8,285.3,407.6z"/>
	<path fill="#2E2012" d="M334,394.4c-39-1.1-77.3-7.3-114.4-12.5c-57.4-8.1-114.4-16.8-172.1-24.5c-6.9-0.9-13.9-1.9-20.9-2.8v7.2
		c54.6,6.9,108.4,15.1,162.4,22.9c42,6.1,85.3,13.3,129.1,15.8c27,1.5,54.7,1.2,81.8,1c102.1-0.8,204.2-4.5,305.8-9v-6.8
		c-96,4.2-192.4,7.5-289,8.8C389.1,395,361.5,395.2,334,394.4z"/>
	<path fill="#2E2012" d="M468,351.9c-42.5,4.1-85,8.4-126.7,13.7c-14.7,1.9-30.4,3.7-43.8,7c-3.5,0.9-9,2.5-8.7,4.7
		c1.2,7.7,37.7,7,49.6,7.3c75,2.1,150.7,0.5,225.5-0.7c47.2-0.7,94.4-1.7,141.6-2.7v-6.7c-109.9,2.7-220.2,4.9-330.3,4
		c-13.6-0.1-27.3-0.3-40.9-0.7c-5.2-0.2-10.4-0.4-15.6-0.7c-2.2-0.1-3.9-0.3-5.3-0.4c6.4-1.1,14.9-2.2,18.7-2.8
		c64.2-9.4,131.3-15.4,197.4-21.7c36-3.4,72.1-6.7,108.2-9.8l-3.2-0.2l71-11.9v-0.8c-12.9,1.3-25.6,3-37.2,4
		C601.5,339.4,534.6,345.4,468,351.9z"/>
	<path fill="#2E2012" d="M570,364.1c-0.3,9.3,80.8,7,135.6,4.5v-7.2c-17.4,0.6-34.8,1.1-52.2,1.5c-13.3,0.3-26.5,0.5-39.8,0.5
		c-5.7,0-11.4-0.1-17.1-0.2c-0.4,0-0.8,0-1.2-0.1c17.5-3.9,41.2-5.5,58.9-7.5c17.1-2,34.2-3.8,51.4-5.6v-3.4l-23.5-1.5
		c-13.6,1.5-27.2,3.1-40.7,4.7C629.6,351.4,570.2,355.9,570,364.1z"/>
	<path fill="#2E2012" d="M424.7,312.8c-2.8,0-4.5,0.6-5.2,1.5c-26.1,1.5-52.5,5-77.3,6.8c-29.9,2.3-60,4.4-90.1,6.1
		c-19.4,1.1-39.3,2.4-58.8,1.2c-42.2-2.7-84.6-5.1-127-7.4l-39.7,4.2v0.8c54.9,2.8,109.8,5.7,164.6,9.1c44.2,2.8,93.3-2.9,136.5-6
		c42.5-3,85-6.4,127.3-10c47.9,0.6,95.8,1.3,143.7,2.1c-30.2,0.4-60.6,4.7-89.7,7.4c-83.6,7.5-166.5,16.4-250,24
		c-33.2,3-66.5,4.4-100.1,1c-29.8-3.1-59-7.5-88.8-10.6c-14.3-1.5-28.7-3.1-43.4-4.6v7.3c5.4,0.5,10.8,1,16.2,1.6
		c59.3,5.8,119.3,17.6,180.4,14.7c36.9-1.8,72.8-5.9,108.8-9.6c43.6-4.5,87.5-8.5,131.4-12.4c37.5-3.3,75-6.5,112.6-9.7
		c13-1.1,29-1.4,41.7-3.5c1.2-0.1,2.2-0.3,2.9-0.6c3.4-1.2,1.8-4.1-2.6-4.4c29.2,0.5,58.4,0.9,87.6,1.5v-7.2
		c-31.1-0.5-62.1-0.8-93.2-1.1C549.8,313.9,487.3,313.6,424.7,312.8z"/>
	<path fill="#2E2012" d="M50.1,293.1c66.8-6.3,133.5-12.8,200-19.6c42.4-4.4,84.8-8.9,126.4-14.5c14.7-2,30.3-3.9,43.7-7.3
		c3.5-0.9,9-2.6,8.6-4.7c-1.3-7.7-37.9-6.7-49.8-7c-75-1.7-150.7,0.4-225.4,2.1c-42.3,0.9-84.7,2-127,3.2v0.9v5.8
		c105-3.2,210.5-5.8,315.8-5.6c13.6,0,27.3,0.2,40.9,0.5c5.2,0.1,10.5,0.3,15.7,0.6c2.2,0.1,3.9,0.3,5.3,0.4
		c-6.4,1.2-14.9,2.3-18.7,2.9c-64,9.8-131,16.2-196.9,22.9c-53.9,5.5-107.9,10.5-162,15.4v6.7C34.7,294.8,42.6,293.8,50.1,293.1z"/>
	<path fill="#2E2012" d="M494.7,262.2c-36.8,2-72.7,6.4-108.6,10.3c-43.5,4.8-87.3,9.1-131.2,13.3c-37.4,3.6-74.9,7-112.4,10.4
		c-13,1.2-29,1.6-41.6,3.8c-1.2,0.1-2.2,0.3-2.9,0.6c-0.8,0.3-1.3,0.7-1.6,1.1c-23.3-0.5-46.7-1.1-70-1.7v5.5l71,2.9
		c3,0.1,6,0.1,9,0.2c51.4,0.9,102.7,1.5,154.1,2.4c0.2,0.1,0.4,0.1,0.6,0.2c0,0,0.1,0,0.1,0c0.3,0.1,0.6,0.1,0.9,0.2
		c0.1,0,0.2,0,0.2,0c0.2,0,0.4,0,0.6,0c0.2,0,0.4,0,0.6,0.1c7.9,0.3,15.9,0.2,24,0c2.2,0,4.3,0.1,6.5,0.1c1.8,0,3.1-0.2,4-0.6
		c26.4-1.6,53.2-5.3,78.3-7.4c29.9-2.5,59.9-4.8,90-6.7c19.3-1.2,39.2-2.7,58.8-1.5c60,3.5,120.1,6.4,180.3,9.1v-3.1l-143.2-6.1
		l28.9-3.2c-21.4-1.1-42.7-2.2-64-3.4c-44.3-2.5-93.2,3.5-136.3,6.8c-39.4,3.1-78.7,6.4-117.9,10c-2-0.1-4.1-0.2-6.1-0.3
		c-37-0.7-74-1.5-111.1-2.2c18.2-1.7,36.2-4,53.8-5.7c83.4-8.1,166.1-17.4,249.5-25.5c33.2-3.2,66.4-4.9,100.1-1.6
		c29.8,2.9,59.2,7.1,89,10.1c8.9,0.9,17.9,1.8,26.9,2.7l30.3-3.3v-1.1c-10.1-0.9-20.1-1.8-30.2-2.7
		C616,270.3,555.8,258.8,494.7,262.2z"/>
	<path fill="#2E2012" d="M26.6,456.9v6.9l12,0.5c104.7,1.6,209.5,2.4,314.1,1.8c80.8-0.5,160.7-4.6,241.3-6.8
		c21.9-0.6,43.8-1.2,65.7-1.7l-98.6-4c-67.8,2.3-135.3,5.3-203.5,5.7C247.3,460,136.9,458.7,26.6,456.9z"/>
	<path fill="#2E2012" d="M456.2,469.1c-38.6,0.5-77.2,0.8-115.8,1c-70.8,0.4-141.6,0.5-212.3,0.5l-65.9,7.2
		c90.5,0,180.9-0.3,271.3-0.8c72.2-0.4,144.6-2.8,216.7-2.6c51.3,0.2,104.2,4.1,155.3,10.5v-7.1c-45.7-5.4-92.6-8.7-138.8-9.9
		C530,466.9,492.9,468.6,456.2,469.1z"/>
	<path fill="#2E2012" d="M240,485.9c-70.7,3.4-142.2,4.4-213.5,5.7v6.7c69.7-1.4,139.5-2.6,208.9-5.5c64.3-2.7,128-1.6,192.6,0.2
		c93,2.6,185.3,7.8,277.4,13.9v-7.2c-89.6-5.7-179.5-10.5-269.8-13.2C370.6,484.6,304.9,482.8,240,485.9z"/>
	<path fill="#2E2012" d="M525,515.3c-42.1-5.8-85.5-12.8-129.4-15c-27.1-1.4-54.7-0.9-81.8-0.5c-95.9,1.3-191.8,5.3-287.2,10v6.8
		c89.9-4.4,180.2-7.9,270.6-9.7c27.5-0.5,55-0.9,82.6-0.3c39,0.8,77.4,6.8,114.6,11.8c57.6,7.7,114.8,16.1,172.6,23.4
		c12.8,1.6,25.6,3.3,38.6,4.8v-7.2c-1.9-0.2-3.8-0.4-5.7-0.7C641,531.8,583.1,523.3,525,515.3z"/>
	<path fill="#2E2012" d="M373,535.4c14.7-2,30.3-3.9,43.7-7.3c3.5-0.9,9-2.6,8.6-4.7c-1.3-7.7-37.9-6.8-49.8-7
		c-75-1.7-150.6,0.4-225.4,2.1c-41.2,0.9-82.3,1.9-123.5,3.1v6.7c103.9-3.1,208.1-5.7,312.3-5.5c13.6,0,27.3,0.2,40.9,0.5
		c5.2,0.1,10.4,0.3,15.7,0.6c2.2,0.1,3.9,0.2,5.2,0.4c-6.4,1.2-14.9,2.3-18.7,2.9c-64,9.8-131,16.2-196.9,22.9
		c-52.7,5.3-105.6,10.3-158.6,15.1v0.8h57.4c54.3-5.2,108.6-10.5,162.7-16.1C289,545.5,331.4,540.9,373,535.4z"/>
	<path fill="#2E2012" d="M144.4,538.2c0.1-8.3-65-6.9-117.9-4.6v7.4c11.5-0.4,23-0.8,34.5-1.2c13.2-0.4,26.5-0.7,39.8-0.8
		c5.7-0.1,11.4,0,17.1,0.1c0.4,0,0.8,0,1.2,0c-17.4,4-41.1,5.7-58.8,7.9c-11.2,1.4-22.5,2.7-33.9,4v7.4c15.6-1.8,31.3-3.7,46.8-5.7
		C85.1,551.3,144.3,546.4,144.4,538.2z"/>
	<path fill="#2E2012" d="M491.2,538.5c-36.8,2-72.7,6.4-108.5,10.3c-43.5,4.8-87.3,9.1-131.2,13.2c-13.6,1.3-27.3,2.6-40.9,3.8h71.3
		c57.9-6,115.7-12.3,173.8-17.9c33.2-3.2,66.4-4.8,100.1-1.6c29.8,2.9,59.2,7.1,89.1,10.1c19.9,2,40.2,4.1,60.7,6v-7.4
		c-11.3-1-22.5-2-33.7-3C612.5,546.6,552.3,535.2,491.2,538.5z"/>
	<path fill="#2E2012" d="M459.5,565.9H541c-5.8-0.3-11.5-0.6-17.3-0.9C503,563.8,481.2,564.5,459.5,565.9z"/>
</g>
<g>
	<ellipse fill="#3F2A18" cx="546.6" cy="541.5" rx="77.1" ry="17"/>
	<g>
		<circle fill="#A97C50" cx="486.6" cy="446.8" r="14"/>
		<circle fill="#8B5E3C" cx="488.1" cy="447.5" r="9.4"/>
		<circle fill="#A97C50" cx="608.5" cy="446.8" r="14"/>
		<circle fill="#8B5E3C" cx="607" cy="447.5" r="9.4"/>
		<path fill="#A97C50" d="M604.9,550.7H490v-95.6c0-31.8,25.7-57.5,57.5-57.5h0c31.8,0,57.5,25.7,57.5,57.5V550.7z"/>
		<path fill="#FFCE54" d="M494.3,430.6c8.7-20.7,29.2-35.2,53-35.2h0c23.8,0,44.2,14.4,52.9,35"/>
		<path fill="#E0A63F" d="M555.7,429.8h-17.9V400c0-4.2,3.4-7.6,7.6-7.6h2.6c4.2,0,7.6,3.4,7.6,7.6V429.8z"/>
		<path fill="#E0A63F" d="M525.4,430.8h-14.3v-23.8c0-3.4,2.7-6.1,6.1-6.1h2.1c3.4,0,6.1,2.7,6.1,6.1V430.8z"/>
		<path fill="#E0A63F" d="M582.3,430.8H568v-23.8c0-3.4,2.7-6.1,6.1-6.1h2.1c3.4,0,6.1,2.7,6.1,6.1V430.8z"/>
		<g>
			<g>
				<path fill="#68472D" d="M494,459.3c2.9-2.5,6-4.9,9.2-7.1c1.4-1,0.1-3.3-1.4-2.3c-3.4,2.3-6.7,4.8-9.8,7.5
					C490.7,458.5,492.6,460.4,494,459.3L494,459.3z"/>
			</g>
		</g>
		<g>
			<g>
				<path fill="#68472D" d="M601.7,457c-3.3-2.1-6.4-4.4-9.4-6.9c-1.3-1.1-3.3,0.8-1.9,1.9c3.2,2.6,6.5,5.1,10,7.3
					C601.8,460.3,603.2,458,601.7,457L601.7,457z"/>
			</g>
		</g>
		<path fill="#FFEBBB" d="M545.6,490.4h-0.3c-0.9,0-1.6-0.7-1.6-1.6v-4.6c0-0.9,0.7-1.6,1.6-1.6h0.3c0.9,0,1.6,0.7,1.6,1.6v4.6
			C547.2,489.7,546.5,490.4,545.6,490.4z"/>
		<path fill="#FFEBBB" d="M549.8,490.4h-0.3c-0.9,0-1.6-0.7-1.6-1.6v-4.6c0-0.9,0.7-1.6,1.6-1.6h0.3c0.9,0,1.6,0.7,1.6,1.6v4.6
			C551.5,489.7,550.7,490.4,549.8,490.4z"/>
		<path fill="#8B5E3C" d="M540,471.1h15.5c2.2,0,3.3,2.7,1.7,4.3l-7.5,5.3c-0.9,0.9-2.3,0.9-3.3,0.1l-8-5.3
			C536.6,474.1,537.6,471.1,540,471.1z"/>
		<path fill="#F6BB43" d="M603.1,442.5H492.3c-2.4,0-4.3-1.9-4.3-4.3v-4c0-2.4,1.9-4.3,4.3-4.3h110.7c2.4,0,4.3,1.9,4.3,4.3v4
			C607.4,440.6,605.4,442.5,603.1,442.5z"/>
		<circle fill="#CC963E" cx="547.4" cy="422.7" r="15.4"/>
		<circle fill="#F6F7FA" cx="547.5" cy="422.7" r="11.8"/>
		<path fill="#EA573F" d="M590.2,552.2h-85c-3.2,0-5.7-2.6-5.7-5.7v-37.2c0-3.2,2.6-5.7,5.7-5.7h85c3.2,0,5.7,2.6,5.7,5.7v37.2
			C595.9,549.6,593.3,552.2,590.2,552.2z"/>
		<path fill="#FFF3F1" d="M585.8,547.5h-75.9c-2.7,0-4.9-2.2-4.9-4.9v-30c0-2.7,2.2-4.9,4.9-4.9h75.9c2.7,0,4.9,2.2,4.9,4.9v30
			C590.7,545.3,588.5,547.5,585.8,547.5z"/>
		<path fill="#A97C50" d="M505.2,528.5h-13.6c-3.9,0-7.1-3.2-7.1-7.1v-1.6c0-3.9,3.2-7.1,7.1-7.1h13.6c3.9,0,7.1,3.2,7.1,7.1v1.6
			C512.2,525.3,509,528.5,505.2,528.5z"/>
		<path fill="#A97C50" d="M603.9,528.5h-13.6c-3.9,0-7.1-3.2-7.1-7.1v-1.6c0-3.9,3.2-7.1,7.1-7.1h13.6c3.9,0,7.1,3.2,7.1,7.1v1.6
			C610.9,525.3,607.8,528.5,603.9,528.5z"/>
		<g>
			<g>
				<path fill="#E7E9EE" d="M551.2,417.4c1.9,1.4,3.5,3.5,3.4,5.9c-0.1,2.2-1.4,5.1-3.7,5.8c-1.9,0.5-1.1,3.5,0.8,3
					c3.4-0.9,5.7-4.7,6.1-8.1c0.4-3.8-2.1-7.2-5-9.3C551.1,413.5,549.5,416.2,551.2,417.4L551.2,417.4z"/>
			</g>
		</g>
		<g>
			<g>
				<path fill="#E7E9EE" d="M537.7,421.6c-0.3,2.3,0.5,4.6,2.1,6.4c1.3,1.5,3.5-0.7,2.2-2.2c-1-1.2-1.3-2.6-1.1-4.2
					c0.1-0.8-0.8-1.6-1.6-1.6C538.3,420,537.8,420.8,537.7,421.6L537.7,421.6z"/>
			</g>
		</g>
		<g>
			<g>
				<path fill="#2A2A2A" d="M504,459.6c2.6,1.4,5.2,3,7.6,4.7c-0.1-0.7-0.2-1.5-0.3-2.2c-1.8,2.1-3.5,4.3-5.3,6.4
					c-1.1,1.4,0.8,3.4,2,2c1.8-2.1,3.5-4.3,5.3-6.4c0.6-0.7,0.5-1.6-0.3-2.2c-2.4-1.7-5-3.3-7.6-4.7
					C503.8,456.3,502.4,458.7,504,459.6L504,459.6z"/>
			</g>
		</g>
		<g>
			<g>
				<path fill="#2A2A2A" d="M588.5,455.1c-1.7,1.1-3.5,2.2-5.2,3.2c-1.5,0.9-3.2,1.7-4.4,3.1c-0.6,0.7-0.5,1.7,0.3,2.2
					c2.5,1.4,5.1,2.7,7.8,3.9c1.6,0.7,3.1-1.7,1.4-2.4c-2.7-1.2-5.3-2.4-7.8-3.9c0.1,0.7,0.2,1.5,0.3,2.2c1.1-1.3,3-2.1,4.4-3
					c1.5-0.9,3-1.9,4.5-2.8C591.4,456.6,590,454.2,588.5,455.1L588.5,455.1z"/>
			</g>
		</g>
		<g>
			<g>
				<path fill="#68472D" d="M537.3,489.9c5-6.8,16-6.4,22.8-3.3c2,0.9,3.7-2,1.7-2.9c-8.6-4-21.3-3.9-27.4,4.5
					C533.1,490,536,491.7,537.3,489.9L537.3,489.9z"/>
			</g>
		</g>
	</g>
	<g>
		<polygon fill="#A97C50" points="701.4,437.7 705.6,437.1 705.5,430.4 585,342.8 580.4,349.3 		"/>
		
			<rect x="581" y="347.3" transform="matrix(-0.585 0.811 -0.811 -0.585 1212.8751 77.2113)" fill="#8B5E3C" width="11.3" height="3.2"/>
		
			<rect x="621.7" y="376.7" transform="matrix(-0.585 0.811 -0.811 -0.585 1301.0819 90.7125)" fill="#8B5E3C" width="11.3" height="3.2"/>
		
			<rect x="565.3" y="341.1" transform="matrix(-0.585 0.811 -0.811 -0.585 1256.8335 87.0961)" fill="#FB6E51" width="81.6" height="48"/>
		
			<rect x="630.6" y="298.9" transform="matrix(-0.585 0.811 -0.811 -0.585 1269.7545 2.6799)" fill="#C64739" width="7.2" height="54.7"/>
		<polygon fill="#EA573F" points="649.5,346.1 654.3,345.1 609.9,313.1 610.5,318 		"/>
		
			<rect x="574.5" y="376.7" transform="matrix(0.585 -0.811 0.811 0.585 -87.7643 636.5206)" fill="#C64739" width="7.2" height="54.7"/>
		<polygon fill="#EA573F" points="562.8,384.2 558,385.1 602.3,417.1 601.7,412.3 		"/>
	</g>
	<path fill="#89603A" d="M632.6,566.3c0-0.1-0.1-2-0.2-2.1l-7.6-21.6l-80,12.9l-74.9-12.9l-7.7,21.8l0,1.7c0,0.1-0.1-1.5-0.1-1.4"/>
	<g>
		<path fill="#6D492B" d="M471.1,543.8c-4.6-0.6-6.3-7.6-3.1-11.1c3.2-3.5,9-3.4,12.9-0.9s6.4,6.9,8.2,11.2c-0.9-3.3,1.6-7,4.9-7.7
			s6.9,1.1,8.7,4c1.8,2.9,1.9,6.6,0.9,9.9c2.7-4.4,8.3-6.9,13.4-5.7c5.1,1.1,9.2,5.7,9.8,10.8c2.1-3.3,6-5.3,9.9-5.1
			c3.9,0.2,7.6,2.6,9.4,6.1c-1.6,0.1-3-1.5-3.2-3.1s0.4-3.2,1.3-4.6c2.5-4.1,7-6.9,11.7-7.4s9.7,1.4,12.9,5c1.3,1.4,2.3,3.3,1.8,5.1
			c-1.9-2.8-1.5-6.7,0.4-9.5c1.9-2.8,5-4.5,8.2-5.4c8.4-2.3,18.1,1.1,23.2,8.2c0.7,0.9,1.3,2,1.3,3.1c0,1.1-0.8,2.4-1.9,2.4
			c-0.9-3.1,1.3-6.3,4-8.1c2.1-1.5,4.7-2.5,7.3-2.1s4.9,2.8,4.7,5.4c-4.2-3.4-6.9-8.7-7-14.2c0-0.6,0-1.2,0.4-1.7
			c0.5-0.6,1.3-0.8,2.1-0.7c3.5,0.2,5.9,3.6,7.1,6.9c0.3,0.7,0.6,1.5,1.3,1.7c0.6,0.2,1.2-0.1,1.9-0.3c2.1-0.4,4.2,1.7,3.7,3.8
			c0,0-18.2,22.4-94.1,17C457.1,551.2,471.1,543.8,471.1,543.8z"/>
	</g>
	<g opacity="0.53">
		<g>
			<g>
				<path fill="#FFFFFF" d="M519.4,357.2c5.6,9.5,12.1,18.4,19.4,26.7c1.2,1.3,3.2-0.6,2-2c-7.2-8.1-13.5-16.8-19-26.1
					C520.9,354.2,518.5,355.6,519.4,357.2L519.4,357.2z"/>
			</g>
		</g>
		<g>
			<g>
				<path fill="#FFFFFF" d="M547.4,346.6c0.9,10.2,1.6,20.4,2.2,30.6c0.1,1.8,2.9,1.8,2.8,0c-0.6-10.2-1.3-20.4-2.2-30.6
					C550.1,344.9,547.3,344.8,547.4,346.6L547.4,346.6z"/>
			</g>
		</g>
		<g>
			<g>
				<path fill="#FFFFFF" d="M511.4,383.3c-0.2,0-0.3,0.1-0.5,0.1c-0.5,0.1-0.9,0.5-1,1c0,0,0,0.1,0,0.1c-0.2,0.7,0.2,1.5,1,1.7
					c2.4,0.7,5,0.9,7.5,1.6c4.1,1.1,8.2,2.3,12.4,2.9c1.8,0.3,2.5-2.4,0.7-2.7c-4.2-0.6-8.3-1.8-12.4-2.9c-2.5-0.7-5-0.9-7.5-1.6
					c0.3,0.6,0.7,1.1,1,1.7c-0.2,0.3-0.3,0.5-0.5,0.8C513.9,385.6,513.1,382.9,511.4,383.3L511.4,383.3z"/>
			</g>
		</g>
		<g>
			<g>
				<path fill="#FFFFFF" d="M602,434.2c1.7,8.5,3.5,17,5.2,25.5c0.4,1.8,3.1,1,2.7-0.7c-1.7-8.5-3.5-17-5.2-25.5
					C604.4,431.7,601.7,432.4,602,434.2L602,434.2z"/>
			</g>
		</g>
		<g>
			<g>
				<path fill="#FFFFFF" d="M614.3,432.4c3,2.8,5.8,5.8,8.4,9c1.1,1.4,3.1-0.6,2-2c-2.6-3.2-5.4-6.2-8.4-9
					C614.9,429.2,612.9,431.1,614.3,432.4L614.3,432.4z"/>
			</g>
		</g>
		<g>
			<g>
				<path fill="#FFFFFF" d="M618.1,421.3c6.3,1.1,12.6,2.2,18.9,3.4c1.8,0.3,2.5-2.4,0.7-2.7c-6.3-1.1-12.6-2.2-18.9-3.4
					C617.1,418.3,616.4,421,618.1,421.3L618.1,421.3z"/>
			</g>
		</g>
	</g>
</g>
<text transform="matrix(0.9856 0 0 1 524.1012 534.1327)" font-family="'Risque-Regular'" font-size="29.0046px">saw</text>
<path fill="none" d="M464.2,399.5c0,0,23.2-82.2,124.7-84.4"/>
<g opacity="0.42">
	
		<text transform="matrix(0.406 -0.8981 0.9112 0.412 465.7623 394.6102)" fill="#FFFFFF" font-family="'Risque-Regular'" font-size="21.9731px">p</text>
	
		<text transform="matrix(0.4853 -0.8578 0.8704 0.4924 470.2809 384.6112)" fill="#FFFFFF" font-family="'Risque-Regular'" font-size="21.9731px">a</text>
	
		<text transform="matrix(0.553 -0.8158 0.8277 0.5611 475.5895 375.2479)" fill="#FFFFFF" font-family="'Risque-Regular'" font-size="21.9731px">s</text>
	
		<text transform="matrix(0.6096 -0.7744 0.7858 0.6185 481.0924 367.1571)" fill="#FFFFFF" font-family="'Risque-Regular'" font-size="21.9731px">t</text>
	
		<text transform="matrix(0.6513 -0.7397 0.7505 0.6608 486.318 360.576)" fill="#FFFFFF" font-family="'Risque-Regular'" font-size="21.9731px"> </text>
	
		<text transform="matrix(0.6953 -0.6985 0.7088 0.7055 489.8209 356.4833)" fill="#FFFFFF" font-family="'Risque-Regular'" font-size="21.9731px">s</text>
	
		<text transform="matrix(0.7366 -0.6548 0.6644 0.7474 496.8014 349.5604)" fill="#FFFFFF" font-family="'Risque-Regular'" font-size="21.9731px">i</text>
	
		<text transform="matrix(0.7858 -0.5949 0.6036 0.7973 500.5231 346.0018)" fill="#FFFFFF" font-family="'Risque-Regular'" font-size="21.9731px">m</text>
	
		<text transform="matrix(0.8422 -0.5119 0.5194 0.8545 511.6862 337.6239)" fill="#FFFFFF" font-family="'Risque-Regular'" font-size="21.9731px">p</text>
	
		<text transform="matrix(0.8734 -0.4566 0.4633 0.8862 521.1754 331.9637)" fill="#FFFFFF" font-family="'Risque-Regular'" font-size="21.9731px">l</text>
	
		<text transform="matrix(0.8991 -0.4036 0.4095 0.9123 525.5006 329.6073)" fill="#FFFFFF" font-family="'Risque-Regular'" font-size="21.9731px">e</text>
	
		<text transform="matrix(0.9218 -0.3488 0.3539 0.9353 534.8297 325.493)" fill="#FFFFFF" font-family="'Risque-Regular'" font-size="21.9731px"> </text>
	
		<text transform="matrix(0.9371 -0.3054 0.3099 0.9508 539.9166 323.5448)" fill="#FFFFFF" font-family="'Risque-Regular'" font-size="21.9731px">“</text>
	
		<text transform="matrix(0.9538 -0.2484 0.252 0.9677 546.5494 321.3329)" fill="#FFCE54" font-family="'Risque-Regular'" font-size="21.9731px">s</text>
	
		<text transform="matrix(0.9684 -0.1833 0.186 0.9826 556.0475 318.8485)" fill="#FFCE54" font-family="'Risque-Regular'" font-size="21.9731px">e</text>
	
		<text transform="matrix(0.9782 -0.1207 0.1224 0.9925 566.0446 316.953)" fill="#FFCE54" font-family="'Risque-Regular'" font-size="21.9731px">e</text>
	
		<text transform="matrix(0.983 -7.146890e-02 7.251383e-02 0.9974 576.1559 315.745)" fill="#FFFFFF" font-family="'Risque-Regular'" font-size="21.9731px">”</text>
</g>
<g>
	<polygon fill="#FFF3F1" points="467.4,554.8 459.2,556.8 456.4,539.8 462.1,538.4 	"/>
	<path fill="#FB6E51" d="M450.2,543.8c-1.5-6.2,1.5-12.3,6.8-13.6c5.3-1.3,10.8,2.7,12.3,8.9L450.2,543.8z"/>
	<g opacity="0.41">
		<defs>
			<path id="SVGID_1_" opacity="0.41" d="M450.2,543.8c-1.5-6.2,1.5-12.3,6.8-13.6c5.3-1.3,10.8,2.7,12.3,8.9L450.2,543.8z"/>
		</defs>
		<clipPath id="SVGID_2_">
			<use xlink:href="#SVGID_1_"  overflow="visible"/>
		</clipPath>
		
			<ellipse transform="matrix(0.9712 -0.2381 0.2381 0.9712 -115.6807 123.3734)" clip-path="url(#SVGID_2_)" fill="#FFF3F1" cx="452.9" cy="540.6" rx="2.5" ry="2.9"/>
		
			<ellipse transform="matrix(0.9712 -0.2381 0.2381 0.9712 -113.9014 123.3741)" clip-path="url(#SVGID_2_)" fill="#FFF3F1" cx="453.8" cy="533.3" rx="2.3" ry="2.8"/>
		
			<ellipse transform="matrix(0.9712 -0.2381 0.2381 0.9712 -114.9796 124.5977)" clip-path="url(#SVGID_2_)" fill="#FFF3F1" cx="458.4" cy="538.3" rx="1.6" ry="1.9"/>
		
			<ellipse transform="matrix(0.9712 -0.2381 0.2381 0.9712 -113.5426 124.6168)" clip-path="url(#SVGID_2_)" fill="#FFF3F1" cx="459.2" cy="532.4" rx="1.6" ry="1.9"/>
		
			<ellipse transform="matrix(0.9712 -0.2381 0.2381 0.9712 -113.5842 125.9963)" clip-path="url(#SVGID_2_)" fill="#FFF3F1" cx="464.8" cy="533.3" rx="2.1" ry="2.4"/>
		
			<ellipse transform="matrix(0.9712 -0.2381 0.2381 0.9712 -115.2252 126.0873)" clip-path="url(#SVGID_2_)" fill="#FFF3F1" cx="464.4" cy="540.1" rx="2.5" ry="3"/>
	</g>
</g>
<g>
	<path fill="#006F30" d="M466.6,564.8c-8.8,0.4-21.7-2.4-29.8-5.8c-1.1-0.5-2.4-1.4-2-2.5c0.2-0.7,1-1.1,1.7-1.3
		c8.1-2.5,16.6,1.6,24,5.5c-1-2.3-3.6-3.5-5.9-4.6c-5.9-2.9-11.1-7.2-15.1-12.4c7.9,3.6,15.5,7.7,22.9,12.3
		c-7.2-6-14.4-11.9-21.6-17.9c10.4,2.4,17.8,11.2,24.5,19.5c-1.5-3.1-2.2-6.6-2-10.1c0-0.7,0.2-1.6,0.9-1.7c0.6-0.1,1.1,0.4,1.4,0.8
		c3.2,3.9,1.9,12.3,4.3,16.8"/>
</g>
</svg>
