<?xml version="1.0" encoding="utf-8"?>
<!-- Generator: Adobe Illustrator 21.0.0, SVG Export Plug-In . SVG Version: 6.00 Build 0)  -->
<svg version="1.1" id="Capa_1" xmlns="http://www.w3.org/2000/svg" xmlns:xlink="http://www.w3.org/1999/xlink" x="0px" y="0px"
	 viewBox="0 0 1024 768" style="enable-background:new 0 0 1024 768;" xml:space="preserve">
<style type="text/css">
	.st0{fill:#352113;}
	.st1{fill:#472E1C;}
	.st2{fill:none;}
	.st3{opacity:0.57;}
	.st4{fill:#3F2A18;}
</style>
<rect x="-0.1" y="-0.1" class="st0" width="1024.1" height="768.1"/>
<path class="st1" d="M715.4,768.3l-643.7-0.4c-24.8,0-44.9-18.4-44.9-43.2V2.7h733.4v721.9C760.2,749.4,740.1,768.3,715.4,768.3z"/>
<path class="st2" d="M715.2,764.6l-643.7-0.4c-24.8,0-44.9-18.4-44.9-43.2V-0.9H760V721C760,745.7,740,764.6,715.2,764.6z"/>
<g class="st3">
	<rect x="26.5" y="19.3" class="st4" width="733.4" height="7.3"/>
	<rect x="26.5" y="50.3" class="st4" width="733.4" height="7.3"/>
	<rect x="26.5" y="81.2" class="st4" width="733.4" height="7.3"/>
	<rect x="26.5" y="112.2" class="st4" width="733.4" height="7.3"/>
	<rect x="26.5" y="143.1" class="st4" width="733.4" height="7.3"/>
	<rect x="26.5" y="174.1" class="st4" width="733.4" height="7.3"/>
	<rect x="26.5" y="205.1" class="st4" width="733.4" height="7.3"/>
	<rect x="26.5" y="236" class="st4" width="733.4" height="7.3"/>
	<rect x="26.5" y="267" class="st4" width="733.4" height="7.3"/>
	<rect x="26.5" y="297.9" class="st4" width="733.4" height="7.3"/>
	<rect x="26.5" y="328.9" class="st4" width="733.4" height="7.3"/>
	<rect x="26.5" y="359.9" class="st4" width="733.4" height="7.3"/>
	<rect x="26.5" y="390.8" class="st4" width="733.4" height="7.3"/>
	<rect x="26.5" y="421.8" class="st4" width="733.4" height="7.3"/>
	<rect x="26.5" y="452.7" class="st4" width="733.4" height="7.3"/>
	<rect x="26.5" y="483.7" class="st4" width="733.4" height="7.3"/>
	<rect x="26.5" y="514.7" class="st4" width="733.4" height="7.3"/>
	<rect x="26.5" y="545.6" class="st4" width="733.4" height="7.3"/>
	<rect x="26.5" y="576.6" class="st4" width="733.4" height="7.3"/>
	<rect x="26.5" y="607.5" class="st4" width="733.4" height="7.3"/>
	<rect x="26.5" y="638.5" class="st4" width="733.4" height="7.3"/>
	<rect x="26.5" y="669.5" class="st4" width="733.4" height="7.3"/>
	<rect x="26.5" y="700.4" class="st4" width="733.4" height="7.3"/>
	<path class="st4" d="M28.9,738.7h728.7c0.8-2.3,1.4-4.8,1.8-7.3H27.1C27.4,733.9,28.1,736.3,28.9,738.7z"/>
	<path class="st4" d="M71.4,767.8l643.7,0.4c8.3,0,16.1-2.1,22.8-5.9H49.2C55.7,765.8,63.3,767.8,71.4,767.8z"/>
</g>
</svg>
