<?xml version="1.0" encoding="utf-8"?>
<?xml-stylesheet type="text/css" href="css/style.css"?>
<!-- Generator: Adobe Illustrator 21.0.0, SVG Export Plug-In . SVG Version: 6.00 Build 0)  -->
<svg version="1.1" id="Capa_1" xmlns="http://www.w3.org/2000/svg" xmlns:xlink="http://www.w3.org/1999/xlink" x="0px" y="0px"
	 viewBox="0 0 1024 768" style="enable-background:new 0 0 1024 768;" xml:space="preserve">
<style type="text/css">
	.st0{fill:#5EBB44;}
	.st1{fill:#006F30;}
	.st2{fill:#FFFFFF;}
	.st3{fill:#003818; animation: rotacion 5s ease-in-out 0 infinite;}
	.st4{fill:#FFF3F1;}
	.st5{fill:#FB6E51;}
	.st6{opacity:0.41;}
	.st7{clip-path:url(#SVGID_2_);fill:#FFF3F1;}
	.st8{fill:#F6BB43;}

	@keyframes rotacion{
		0%{transform: rotate3d(1,0,0,5deg);}
		100%{transform: rotate3d(1,1,0,220deg);}
	}

</style>
<path class="st0" d="M882.2,643.5c-5.1-24.5-16.3-40.2-16.3-40.2c-12,6.3-21.6,13.4-29.3,21c-5.8-28.2-18.9-45.4-18.9-45.4
	c-10.5,8.3-14.7,17.2-20.8,26.2c11.4-42-2.5-74.9-2.5-74.9c-23.3,11.9-52.7,61.9-47.9,101.3l15.3,92.4l261.2-29l0.1-104.4
	c-14.8-28-43.5-41-43.5-41c-14.7,23.7-20.3,45-20.7,63.5c-12.4-12.4-23.7-17.6-23.7-17.6c-9.1,14.7-14.7,28.4-17.8,41.2
	c-11.5-10.8-21.4-15.4-21.4-15.4c-4.8,7.8-8.7,15.3-11.7,22.6L882.2,643.5"/>
<path class="st0" d="M2.5,581.3c0.1-3.1,75.8,40.3,65.2,158.3C67.7,739.5-4.2,743.7,2.5,581.3z"/>
<g>
	<path class="st0" d="M112.3,767.9c-16.9-15.7-36.2-47.4-38.8-65.6c24,11.1,53,40.2,65.6,56.6c-10.8-25.8-15.1-52.4-12.8-78.6
		c23.7,3.3,31.3,21.5,33.7,36c2.7,16.2,5.4,32.4,8.1,48.6c10.3-34,31.5-66.5,62-95.1c13,34.2-31.1,64.4-38.2,98.5
		c16.6-21.6,36.1-41.5,60.6-60c0,0,9.5,35.5-14.1,59.8L112.3,767.9z"/>
</g>
<g>
	<path class="st0" d="M536.1,766c-16.9-15.7-36.8-48.1-39.3-66.2c24,11.1,53,40.2,65.6,56.6c-10.8-25.8-15.1-52.4-12.8-78.6
		c23.7,3.3,31.3,21.5,33.7,36c2.7,16.2,5.4,32.4,8.1,48.6c10.3-34,31.5-66.5,62-95.1c13,34.2-31.1,64.4-38.2,98.5
		c16.6-21.6,36.1-41.5,60.6-60c0,0,9.5,35.5-14.1,59.8L536.1,766z"/>
</g>
<g>
	<path class="st1" d="M163.7,766.7c-16.9-15.7-36.8-48.1-39.3-66.2c24,11.1,53,40.2,65.6,56.6c-10.8-25.8-15.1-52.4-12.8-78.6
		c23.7,3.3,31.3,21.5,33.7,36c2.7,16.2,5.4,32.4,8.1,48.6c10.3-34,31.5-66.5,62-95.1c13,34.2-31.1,64.4-38.2,98.5
		c16.6-21.6,36.1-41.5,60.6-60c0,0,9.5,35.5-14.1,59.8L163.7,766.7z"/>
</g>
<path class="st1" d="M565.3,739.9c14.6-24.1,33.1-36.3,33.1-36.3c11.6,11.6,20.2,23.1,26.3,34.3c16.7-27.8,37.9-40.9,37.9-40.9
	c9.2,13.1,15.4,25.9,19.3,38.1c1.8-49.4,24.9-80.7,24.9-80.7c22.7,22.2,33,46.8,36.5,69.9l-9.2,33.6l-209.7,1.3
	c3.5-30.3,32.8-48.8,32.8-48.8c2.8,10.3,4.6,19.9,5.5,28.9L565.3,739.9"/>
<g>
	<path class="st2" d="M200,0.3h-11c1.7,3.2,3.3,6.6,4.9,10.2C195.6,7.2,197.6,3.8,200,0.3z"/>
	<path class="st2" d="M1021.2,0.3h-27.8c10,13.6,19.6,31.8,27.8,56V0.3z"/>
	<path class="st0" d="M9.1,12.8C6,18,3.2,23.2,0.6,28.2L0,77l-1.1,86.7l-0.6,45.5c0.2-0.3,0.4-0.6,0.6-0.8
		C104.3,51.3,9.1,12.8,9.1,12.8z"/>
	<path class="st0" d="M736.7,0.3c-14.9,34.7-6.9,61.9-5.7,61c15.3-11.6,36.1-31,44.7-41"/>
	<path class="st0" d="M928.7,29.2c29.5,54,70.6,76.4,92.5,83.9c0.8,0.3,1.6,0.5,2.4,0.8l0.2-49.6c-0.9-2.7-1.7-5.4-2.6-8
		c-8.2-24.2-17.8-42.4-27.8-56"/>
	<path class="st0" d="M881.9,0.3c-17.4,42.5-9.4,75.5-7.8,74.4c23.9-16.1,41.6-31.4,54.7-45.5c9.4-10.2,16.4-19.8,21.4-28.8"/>
	<path class="st0" d="M757,0.4c5,45.1,42.2,84.2,42.8,82.6c12.5-33.9,18.1-61,19.2-82.7"/>
	<path class="st0" d="M200,0.3c-2.3,3.5-4.3,6.9-6.1,10.2c3.6,8.1,7.1,17.1,10.3,27.1c9.2-4,33-32.4,39.8-36.6"/>
	<path class="st0" d="M227,1c-0.2,39.1,15.9,87.5,17,86.1c27.6-35.2,41.9-63.8,48-86.8"/>
	<path class="st0" d="M117.6,0.3c39.3,64.5,96.3,72.5,95.7,70c-2.8-12-5.8-22.9-9.1-32.7c-3.3-10-6.7-19-10.3-27.1
		c-1.6-3.6-3.2-7-4.9-10.2"/>
</g>
<g>
	<path class="st1" d="M10.8,0.7c-16.2,91.5,43,138,44.1,135.4C85.6,64.3,80.3,25.1,65.7,0.7C47.3,0.9,29.2,0.6,10.8,0.7z"/>
	<g>
		<g>
			<path class="st1" d="M867.5,34.8c7.7-9.3,13-21.8,13.9-34.9h-50.2c6.7,17.1,8.7,37,5,55.4C847.9,51.7,859.1,45,867.5,34.8z"/>
		</g>
		<g>
			<path class="st1" d="M648,42.9c6.3-7.7,11.1-17.5,13-27.9c11.1,29.9,33.8,47.8,33.8,47.8c30.2-15,49.6-31.3,61.5-47.6
				c18.5,18.5,39.9,26.5,39.9,26.5c14.8-14.9,23.7-28.9,28.3-41.8H172.3c-2.7,51.8,30,74.6,30,74.6C246,52.4,263.8,38.7,272,15.6
				c3.2,8.7,8.8,16.8,16.1,23.3c11.4,10.3,26.5,16.9,42.2,20.5c-5.3-19.2-2.1-40,7.9-57.6c8.8,36.5,37.2,58.9,37.2,58.9
				c30.2-15,49.6-31.3,61.5-47.6c18.5,18.5,39.9,26.5,39.9,26.5c9.5-9.5,16.5-18.7,21.6-27.4c21.6,48.6,76.2,67.3,76.2,67.3
				c25.5-27.4,35.5-52,36.5-73.2c7.2,17.5,9.5,38,5.6,57.1C628.3,59.8,639.5,53.1,648,42.9z"/>
		</g>
		<g>
			<path class="st1" d="M29.2,60.7c30.2-15,49.6-31.3,61.5-47.6c18.5,18.5,39.9,26.5,39.9,26.5c14-14,34.7-27.5,40.8-39.8H0.7v21.4
				C12.5,46.1,29.2,60.7,29.2,60.7z"/>
		</g>
		<g>
			<path class="st1" d="M1024.2-1.7L887.1-0.1c11,33.5,36.6,53.7,36.6,53.7c16.6-8.2,30-16.8,40.9-25.6
				c17.7,36.3,57.8,51.2,57.8,51.2c1.1-1.1,0.6-0.6,1.4-1.8L1024.2-1.7z"/>
		</g>
	</g>
</g>
<path class="st1" d="M0.1,610.6l0.6,113.6C36,772,79.5,757.6,79.5,757.6C71,671.9,32.3,629.4,0.1,610.6z"/>
<g>
	<g>
		<path class="st3" d="M461.4,76.7c0,0,55.4-19,77.4-68.3c5.1,8.9,12.3,18.1,21.9,27.8c0,0,21.8-8.1,40.6-26.9
			c12.1,16.5,31.8,33,62.5,48.3c0,0,27.8-21.9,37.3-57.8H208.9c5,12,13.6,24.9,27.2,38.5c0,0,21.8-8.1,40.6-26.9
			c12.1,16.5,31.8,33,62.5,48.3c0,0,23.1-18.2,34.3-48.5c2,10.6,6.8,20.6,13.2,28.3c8.6,10.4,20,17.2,31.9,20.8
			c-3.9-19.3-1.6-40.1,5.7-57.9C425.4,24,435.4,48.9,461.4,76.7z"/>
	</g>
	<g>
		<path class="st3" d="M709.6,56.3c16-3.6,31.3-10.4,42.9-20.8c7.4-6.6,13.1-14.8,16.3-23.6c8.3,23.5,29.3,48.6,73.7,71
			c0,0,41.7-32.3,41.4-83H702.7C712,17.2,714.8,37.5,709.6,56.3z"/>
	</g>
	<g>
		<path class="st3" d="M1024-0.2H886.1c5.1,11.4,13.5,23.6,26.4,36.5c0,0,21.8-8.1,40.6-26.9c12.1,16.5,31.8,33,62.5,48.3
			c0,0,3.5-2.8,8.5-8.1L1024-0.2L1024-0.2z"/>
	</g>
	<g>
		<path class="st3" d="M65,24.4c11,8.9,24.7,17.6,41.5,26c0,0,24-19,35.8-50.6L0.2-0.3h-0.4l0.4,76.7C7.7,73.8,48.8,57.7,65,24.4z"
			/>
	</g>
	<g>
		<path class="st3" d="M150-0.2c1.6,11.8,6.6,22.9,13.7,31.5c8.6,10.4,20,17.2,31.9,20.8c-3.5-17.3-2-35.8,3.6-52.3
			C199.2-0.2,150-0.2,150-0.2z"/>
	</g>
</g>
<g>
	<polygon class="st4" points="777.3,642.3 756.8,651.6 745.9,603.5 760.9,599.1 	"/>
	<path class="st5" d="M730,615c-4.8-16.5,2.6-33.2,16.5-37.3s29.2,5.9,34.1,22.4L730,615z"/>
	<g class="st6">
		<defs>
			<path id="SVGID_1_" class="st6" d="M730,615c-4.8-16.5,2.6-33.2,16.5-37.3s29.2,5.9,34.1,22.4L730,615z"/>
		</defs>
		<clipPath id="SVGID_2_">
			<use xlink:href="#SVGID_1_"  style="overflow:visible;"/>
		</clipPath>

			<ellipse transform="matrix(0.9593 -0.2824 0.2824 0.9593 -141.1833 232.772)" class="st7" cx="736.8" cy="606.1" rx="6.6" ry="7.8"/>

			<ellipse transform="matrix(0.9593 -0.2824 0.2824 0.9593 -135.5297 232.3842)" class="st7" cx="738.3" cy="586.3" rx="6.3" ry="7.4"/>
		<ellipse transform="matrix(0.9593 -0.2824 0.2824 0.9593 -138.6868 236.5084)" class="st7" cx="751" cy="599.3" rx="4.3" ry="5"/>

			<ellipse transform="matrix(0.9593 -0.2824 0.2824 0.9593 -134.1171 236.2538)" class="st7" cx="752.4" cy="583.3" rx="4.2" ry="5"/>

			<ellipse transform="matrix(0.9593 -0.2824 0.2824 0.9593 -133.9466 240.6461)" class="st7" cx="767.8" cy="584.9" rx="5.6" ry="6.6"/>

			<ellipse transform="matrix(0.9593 -0.2824 0.2824 0.9593 -139.1408 241.2953)" class="st7" cx="767.4" cy="603.3" rx="6.7" ry="7.9"/>
	</g>
</g>
<path class="st1" d="M897.1,709.7c3.4-28,15.2-46.7,15.2-46.7c15.4,5.8,27.9,12.8,38.1,20.4c3.8-32.2,17.8-52.8,17.8-52.8
	c13.8,8.2,24.7,17.3,33.2,26.8c-18.7-45.8-10.4-83.8-10.4-83.8c12.4,4.5,23.1,10.3,32.2,17l-0.1,176.5H709.2l-0.6-56.9
	c12.3-60.3,59-95.4,59-95.4c20.6,25,29.9,48.3,32.5,68.9c13.7-15.2,26.9-22.2,26.9-22.2c12.8,15.5,21.2,30.3,26.4,44.2
	c12.8-13.3,24.3-19.5,24.3-19.5c6.8,8.2,12.3,16.3,16.8,24.1L897.1,709.7"/>
<g>
	<path class="st3" d="M0.2,683.2c19.9,19.8,35.5,40.7,48.6,63.1C44.3,712.1,8.3,679.5,21,646.2c24.5,30.2,40.9,63.7,48,98.1
		c3.1-15.9,6.1-31.9,9.2-47.8c2.7-14.2,10-31.9,30.4-33.8c0.7,26.1-4.3,52.3-14.7,77.4c11.5-15.6,28.8-29.1,49.7-38.8
		c-3.1,17.9-12.8,35.3-27.9,49.9c16-9.8,36-17.8,57.1-16.8s41.8,14.4,38.4,29c-8.6-20.1-17.1-40.2-25.7-60.2c-1.2-2.8-2.3-6-0.2-8.5
		c5.1-6.1,18.2-0.5,24.2,5.2c20.5,19.2,40.9,38.3,61.4,57.5c0-23.3,5.3-46.6,15.9-68.6c16.5,19.3,26.1,41.5,27.6,64
		c-3.8-18.8,4.5-38.6,22.3-52.9c10.1,12.9,14.3,28.1,11.8,42.7c3.7-15.2,10.5-30.1,20.3-43.9c3.3-4.7,9.9-10,16.7-7.9
		c4.8,1.5,6.1,5.8,6.4,9.5c1.3,12.5-0.1,25.1-4.1,37.3c15.1-31.6,27.5-50.5,70-65.6c-8.2,26.2-19.8,47-35.8,71.3
		c7.7-13.4,28.2-35.9,46.5-42.6c-1.4,12.3-6.5,24.3-14.8,35.2c13.4-8.1,30.9-12.9,48.6-13.3c2.6-0.1,5.6,0,7.5,1.3
		c3.2,2,2.1,5.6,0.6,8.4c-3.4,6.2-7.7,12.2-12.8,17.9c6.8-20.7,28.6-38.6,56.6-46.7c3.8-1.1,8.2-2,11.8-0.6
		c7.4,2.8,3.5,10.7-1.7,15.4c-13.2,11.9-28.9,22.4-46.4,31.1c9.4-10.4,27.2-16.7,44.7-16s34.1,8.5,41.6,19.6
		c0.5-12,14.8-22.9,31.8-24.3c17-1.4,34.5,7,38.9,18.5c-8.3-12.6-8.9-27.7-1.5-40.6c1.8-3.1,5.3-6.7,10.1-6.2
		c3.5,0.4,5.7,2.7,7.4,4.9c9.8,12.4,17.6,25.6,23.2,39.3c-2.1-15.3-4.1-30.8,0.5-45.8s17.1-29.6,36.9-36.1
		c-0.5,25.8-9.3,51.5-25.7,74.6c10.8-28.6,23.1-58.9,55-78.3c5.2-3.2,13.4-5.9,18.4-2.6c3.3,2.1,3.2,5.7,2.8,8.8
		c-3.2,23.1-13.3,45.8-29.6,66c2.1-17.1,15.8-33.3,36.3-42.7c6.2-2.9,13.5-5.2,20.9-4.7c17.8,1.2,25.4,17.4,21.2,29.5
		c-4.1,12.2-15.3,22.8-18.4,35.1c5.9-8.4,12.1-17.1,22.7-22.8c10.6-5.7,26.9-7.4,36.9-1.3c11.2,6.8,9.8,19.2,7,29.4
		c5.5-13.7,24.3-25.2,44.7-24.2s37.3,17.3,29.2,30.3c1.2-18.7,8.8-37.3,22-53.6c3.3-4.1,7.9-8.5,14.7-8.9c10-0.5,12.2,7.7,14.9,14.4
		l-0.1,56.1L0.2,767.9V683.2"/>
</g>
<g>
	<path class="st8" d="M994,658.6c0,0-18.3-29.2,4.3-24.9C1020.8,638.1,994,658.6,994,658.6z"/>
	<path class="st8" d="M994,658.9c0,0,22.7-26,25-3.1C1021.4,678.7,994,658.9,994,658.9z"/>
	<path class="st8" d="M994.2,658.7c0,0,32.3,11.9,11.8,22.3C985.5,691.4,994.2,658.7,994.2,658.7z"/>
	<path class="st8" d="M994,659c0,0-2.3,34.4-18,17.7C960.3,659.9,994,659,994,659z"/>
	<path class="st8" d="M994.2,658.7c0,0-33.6,7.8-22.1-12.1C983.5,626.7,994.2,658.7,994.2,658.7z"/>

		<ellipse transform="matrix(0.1697 -0.9855 0.9855 0.1697 176.8936 1526.3282)" class="st2" cx="994.3" cy="658.2" rx="8.4" ry="8.4"/>
</g>
</svg>
