<?xml version="1.0" encoding="utf-8"?>
<!-- Generator: Adobe Illustrator 21.0.0, SVG Export Plug-In . SVG Version: 6.00 Build 0)  -->
<svg version="1.1" id="Capa_1" xmlns="http://www.w3.org/2000/svg" xmlns:xlink="http://www.w3.org/1999/xlink" x="0px" y="0px"
	 viewBox="0 0 207 103" style="enable-background:new 0 0 207 103;" xml:space="preserve">
<style type="text/css">
	.st0{fill:#301E10;transform:scale(0.2)}
	.st1{fill:#3F2715;transform:scale(0.2)}
	.st2{fill:#382414;transform:scale(0.2)}
</style>
<ellipse class="st0" cx="102.9" cy="36.1" rx="80.8" ry="24.5"/>
<g>
	<path class="st1" d="M194.9,72.4L194.9,72.4l-9.7-28.7c-0.2,5.9-37.1,10.7-82.6,10.7c-44.3,0-80.5-4.6-82.5-10.3l-9.6,28.3h0
		c-0.4,0.6-0.5,1.3-0.5,1.9c0,9.7,41.5,17.5,92.8,17.5s92.8-7.8,92.8-17.5C195.4,73.7,195.2,73.1,194.9,72.4z"/>
</g>
<path class="st2" d="M186.4,32.1c0-5.2-4.2-9.4-9.5-9.4c-0.3,0-0.6,0-0.8,0c-1.4-3.4-4.8-5.7-8.7-5.7c-5.2,0-9.5,4.2-9.5,9.4
	c0,4.6,3.4,8.5,7.9,9.2c-2,2-3.3,4.8-3.3,7.9c0,0.1,0,0.2,0,0.3c-1.7-1.1-3.7-1.7-5.9-1.7c-5.3,0-9.7,3.7-10.7,8.6
	c-1.6-1.7-3.9-2.8-6.5-2.8c-3.2,0-5.9,1.7-7.5,4.1c-1.7-2.2-4.3-3.6-7.3-3.6c-1.3,0-2.5,0.3-3.7,0.8c-0.6-0.9-1.4-1.7-2.4-2.3
	c-4.2-2.8-9.9-1.6-12.7,2.5c-1.2,1.7-1.6,3.7-1.5,5.6c-1.1-3.6-4.4-6.3-8.4-6.3c-3.4,0-6.3,1.9-7.8,4.7c-2.2-2.4-5.3-3.9-8.8-3.9
	c-3.6,0-6.8,1.6-8.9,4.1c-0.6-0.7-1.4-1.4-2.3-1.9c0.5-1.1,0.7-2.2,0.7-3.4c0-4.8-3.9-8.7-8.8-8.7c-3.8,0-7,2.3-8.2,5.6
	c-1.6-0.8-3.3-1.2-5.2-1.2c-1.6,0-3,0.3-4.4,0.8c0.2-0.8,0.3-1.7,0.3-2.5c0-2.6-0.9-5-2.3-6.9c2.5-1.7,4.1-4.5,4.1-7.7
	c0-5.2-4.2-9.4-9.5-9.4c-5.2,0-9.5,4.2-9.5,9.4c0,1.4,0.3,2.7,0.9,3.9c-4.2,1.8-7.2,5.9-7.2,10.7c0,6.4,5.3,11.6,11.7,11.6
	c1.6,0,3-0.3,4.4-0.8c-0.2,0.8-0.3,1.7-0.3,2.5c0,6.4,5.3,11.6,11.7,11.6c3.7,0,7-1.7,9.1-4.3c1.4,3,4.4,5,8,5
	c1.9,0,3.7-0.6,5.1-1.6c1.9,3.8,5.9,6.4,10.5,6.4c5.3,0,9.8-3.5,11.3-8.4c1.5,1.1,3.3,1.8,5.3,1.8c1.5,0,2.9-0.4,4.2-1
	c0.2,5.9,5,10.6,11,10.6c5.6,0,10.2-4.1,10.9-9.4c0.9,0.3,1.8,0.4,2.8,0.4c3.4,0,6.4-1.8,7.9-4.5c1.6,2,4.1,3.3,6.9,3.3
	c3.9,0,7.2-2.5,8.4-6c2,2.7,5.2,4.5,8.9,4.5c6.1,0,11-4.9,11-10.8c0,0,0,0,0,0c1.8,1.2,4,1.9,6.3,1.9c6.3,0,11.4-5.1,11.4-11.3
	c0-1.9-0.5-3.7-1.3-5.3C185.5,36.6,186.4,34.5,186.4,32.1z"/>
</svg>
