<?xml version="1.0" encoding="utf-8"?>
<!-- Generator: Adobe Illustrator 24.1.1, SVG Export Plug-In . SVG Version: 6.00 Build 0)  -->
<svg version="1.1" baseProfile="tiny" id="Capa_1" xmlns="http://www.w3.org/2000/svg" xmlns:xlink="http://www.w3.org/1999/xlink"
	 x="0px" y="0px" viewBox="0 0 62 70" xml:space="preserve">
<circle fill="#F9B74B" cx="31.5" cy="35.5" r="27.5"/>
<path fill="#E0860E" d="M47.17,46.37L35.71,34.92l11-11c0.89-0.89,0.89-2.33,0-3.22l-0.91-0.91c-0.89-0.89-2.33-0.89-3.22,0l-11,11
	L21.05,20.25c-0.89-0.89-2.33-0.89-3.22,0l-0.91,0.91c-0.89,0.89-0.89,2.33,0,3.22l10.54,10.54l-11,11c-0.89,0.89-0.89,2.33,0,3.22
	l0.91,0.91c0.89,0.89,2.33,0.89,3.22,0l11-11L43.04,50.5c0.89,0.89,2.33,0.89,3.22,0l0.91-0.91C48.06,48.71,48.06,47.26,47.17,46.37
	z"/>
</svg>
