<?xml version="1.0" encoding="utf-8"?>
<!-- Generator: Adobe Illustrator 24.1.1, SVG Export Plug-In . SVG Version: 6.00 Build 0)  -->
<svg version="1.1" baseProfile="tiny" id="Capa_1" xmlns="http://www.w3.org/2000/svg" xmlns:xlink="http://www.w3.org/1999/xlink"
	 x="0px" y="0px" viewBox="0 0 314 314" xml:space="preserve">
<circle fill="#FFC352" cx="157.22" cy="159.21" r="147"/>
<path fill="#EA911B" d="M153.55,295.33c0-2.21,1.79-4,3.99-4l0,0c2.21,0,4,1.79,4.01,4l0,0c0,2.21-1.79,4-4,4l0,0
	C155.34,299.33,153.55,297.54,153.55,295.33z M174.24,294.36c-0.33-2.18,1.16-4.22,3.35-4.56l0,0c2.18-0.33,4.22,1.17,4.56,3.35l0,0
	c0.33,2.19-1.17,4.23-3.35,4.56l0,0c-0.21,0.03-0.41,0.05-0.61,0.05l0,0C176.25,297.76,174.54,296.34,174.24,294.36z M124.34,295.38
	c-2.15-0.53-3.47-2.69-2.94-4.83l0,0c0.52-2.15,2.68-3.47,4.83-2.95l0,0c2.14,0.53,3.46,2.69,2.94,4.84l0,0
	c-0.44,1.83-2.08,3.05-3.88,3.05l0,0C124.98,295.49,124.66,295.45,124.34,295.38z M104.06,288.76c-1.55-0.64-2.48-2.14-2.47-3.72
	l0,0c0-0.5,0.1-1.01,0.3-1.51l0,0c0.84-2.04,3.18-3.01,5.23-2.16l0,0c1.54,0.64,2.47,2.14,2.47,3.71l0,0c0,0.51-0.1,1.02-0.31,1.51
	l0,0c-0.64,1.54-2.13,2.47-3.7,2.47l0,0C105.08,289.06,104.56,288.97,104.06,288.76z M205.79,286.54c-0.21-0.49-0.31-1-0.31-1.51
	l0,0c-0.01-1.58,0.92-3.08,2.47-3.72l0,0c2.04-0.84,4.38,0.12,5.23,2.16l0,0c0.2,0.5,0.3,1.01,0.3,1.51l0,0
	c0.01,1.58-0.92,3.08-2.47,3.72l0,0c-0.5,0.21-1.02,0.31-1.53,0.31l0,0C207.92,289.01,206.43,288.08,205.79,286.54z M224.51,277.71
	c-1.14-1.88-0.55-4.35,1.34-5.49l0,0c1.89-1.15,4.35-0.55,5.5,1.34l0,0c1.14,1.88,0.55,4.34-1.34,5.49l0,0
	c-0.65,0.39-1.37,0.58-2.07,0.58l0,0C226.58,279.63,225.27,278.95,224.51,277.71z M74.9,272.34c-1.78-1.3-2.16-3.81-0.86-5.59l0,0
	c1.31-1.78,3.81-2.17,5.59-0.86l0,0c1.79,1.31,2.17,3.81,0.86,5.59l0,0c-0.78,1.07-1.99,1.64-3.22,1.64l0,0
	C76.45,273.12,75.62,272.87,74.9,272.34z M58.72,258.47L58.72,258.47L58.72,258.47c-0.78-0.78-1.17-1.81-1.17-2.83l0,0
	c0-1.03,0.39-2.05,1.17-2.83l0,0c1.56-1.56,4.09-1.56,5.66,0h-0.01c0.79,0.78,1.18,1.8,1.18,2.82l0,0c0,1.03-0.39,2.05-1.17,2.83
	l0,0c-0.78,0.79-1.81,1.18-2.83,1.18l0,0C60.53,259.64,59.5,259.25,58.72,258.47z M250.64,258.39c-0.78-0.79-1.17-1.81-1.17-2.83
	l0,0c0-1.03,0.39-2.05,1.17-2.83l0,0c1.57-1.57,4.1-1.57,5.66,0l0,0c0.78,0.78,1.17,1.8,1.17,2.83l0,0c0,1.02-0.39,2.04-1.17,2.82
	l0,0c-0.78,0.78-1.8,1.18-2.83,1.18l0,0C252.45,259.56,251.42,259.16,250.64,258.39z M264.59,243.07c-1.78-1.31-2.16-3.82-0.85-5.6
	l0,0c1.3-1.78,3.81-2.16,5.59-0.85l0,0c1.78,1.3,2.16,3.81,0.86,5.59l0,0c-0.79,1.07-2,1.63-3.23,1.63l0,0
	C266.14,243.84,265.31,243.59,264.59,243.07z M38.04,232.19c-1.15-1.89-0.55-4.35,1.33-5.5l0,0c1.89-1.15,4.35-0.55,5.5,1.33l0,0
	c1.15,1.89,0.55,4.35-1.34,5.5l0,0c-0.64,0.4-1.36,0.59-2.07,0.59l0,0C40.11,234.11,38.79,233.42,38.04,232.19z M28.38,213.2
	c-0.21-0.5-0.31-1.01-0.31-1.51l0,0c-0.01-1.58,0.92-3.08,2.46-3.72l0,0c2.04-0.85,4.38,0.12,5.23,2.16v-0.01
	c0.22,0.52,0.31,1.04,0.31,1.56l0,0c-0.01,1.56-0.93,3.04-2.46,3.68l0,0c-0.51,0.2-1.03,0.3-1.54,0.3l0,0
	C30.51,215.66,29.02,214.73,28.38,213.2z M281.39,215.23c-1.55-0.64-2.48-2.14-2.47-3.72l0,0c0-0.5,0.1-1.01,0.31-1.51l0,0
	c0.84-2.04,3.18-3.01,5.23-2.16l0,0c1.54,0.64,2.47,2.14,2.46,3.71l0,0c0,0.51-0.1,1.02-0.3,1.51l0,0c-0.64,1.54-2.13,2.47-3.7,2.47
	l0,0C282.41,215.53,281.89,215.43,281.39,215.23z M288.42,195.73c-2.15-0.53-3.47-2.69-2.94-4.84l0,0c0.52-2.14,2.68-3.46,4.83-2.94
	l0,0c2.15,0.52,3.46,2.69,2.94,4.84l0,0c-0.45,1.82-2.08,3.05-3.88,3.05l0,0C289.05,195.84,288.74,195.8,288.42,195.73z
	 M19.35,180.98c-0.34-2.18,1.16-4.22,3.35-4.55l0,0c2.18-0.34,4.22,1.16,4.55,3.34h0.01c0.33,2.18-1.17,4.23-3.35,4.56l0,0
	c-0.21,0.03-0.41,0.05-0.61,0.05l0,0C21.36,184.38,19.65,182.96,19.35,180.98z M17.72,159.74c0-2.21,1.79-4.01,3.99-4.01l0,0
	c2.21,0,4.01,1.79,4.01,4l0,0c0,2.21-1.79,4-4,4l0,0C19.51,163.74,17.72,161.95,17.72,159.74z M289.22,159.58c0-0.05,0-0.1,0-0.15
	l0,0c0-0.05,0-0.1,0-0.15l0,0c-0.01-2.21,1.78-4,3.99-4.01l0,0c2.21,0,4,1.79,4.01,4l0,0c0,0.05,0,0.1,0,0.16l0,0
	c0,0.05,0,0.1,0,0.15l0,0c0,2.21-1.79,4-4,4l0,0C291.01,163.58,289.22,161.79,289.22,159.58z M287.66,139.24
	c-0.34-2.18,1.16-4.22,3.34-4.56l0,0c2.18-0.34,4.23,1.15,4.56,3.34l0,0c0.34,2.18-1.15,4.22-3.33,4.56l0,0
	c-0.21,0.04-0.42,0.05-0.62,0.05l0,0C289.67,142.63,287.97,141.22,287.66,139.24z M24.6,131.36c-2.15-0.52-3.47-2.69-2.95-4.83l0,0
	c0.52-2.15,2.68-3.47,4.83-2.95l0,0c2.15,0.52,3.47,2.69,2.95,4.83l0,0c-0.45,1.83-2.09,3.06-3.89,3.06l0,0
	C25.23,131.47,24.91,131.43,24.6,131.36z M30.43,111.46c-1.55-0.64-2.48-2.13-2.47-3.71l0,0c0-0.5,0.1-1.02,0.3-1.51l0,0
	c0.84-2.04,3.18-3.01,5.23-2.17l0,0c1.54,0.64,2.47,2.14,2.47,3.72l0,0c0,0.5-0.1,1.01-0.31,1.5l0,0c-0.63,1.55-2.12,2.48-3.69,2.48
	l0,0C31.45,111.77,30.93,111.67,30.43,111.46z M279.12,108.89L279.12,108.89c-0.21-0.5-0.31-1.03-0.31-1.55l0,0
	c0.01-1.56,0.93-3.04,2.46-3.67l0,0c2.04-0.86,4.38,0.11,5.23,2.15l0,0c0.21,0.51,0.31,1.03,0.31,1.55l0,0
	c-0.01,1.56-0.93,3.04-2.46,3.68l0,0c-0.5,0.21-1.03,0.31-1.54,0.31l0,0C281.24,111.36,279.76,110.43,279.12,108.89z M269.99,91.01
	L269.99,91.01c-1.15-1.89-0.56-4.35,1.33-5.5l0,0c1.88-1.15,4.34-0.56,5.5,1.33l0,0c1.15,1.88,0.55,4.35-1.33,5.5l0,0
	c-0.65,0.39-1.37,0.58-2.08,0.58l0,0C272.06,92.92,270.74,92.24,269.99,91.01z M45.52,82.67c-1.78-1.31-2.17-3.81-0.86-5.59l0,0
	c1.31-1.79,3.81-2.17,5.59-0.87l0,0c1.78,1.31,2.17,3.81,0.86,5.59l0,0c-0.78,1.07-1.99,1.64-3.23,1.64l0,0
	C47.06,83.44,46.24,83.19,45.52,82.67z M58.53,66.54c-0.78-0.78-1.17-1.8-1.17-2.82l0,0c0-1.03,0.39-2.05,1.17-2.83l0,0
	c1.56-1.57,4.09-1.57,5.65-0.01l0,0c0.78,0.78,1.18,1.8,1.18,2.83l0,0c0,1.02-0.39,2.05-1.17,2.83l0,0
	c-0.78,0.78-1.81,1.17-2.83,1.17l0,0C60.34,67.71,59.31,67.32,58.53,66.54z M250.46,66.25L250.46,66.25
	c-0.78-0.78-1.17-1.8-1.18-2.83l0,0c0-1.02,0.39-2.04,1.17-2.83l0,0c1.56-1.56,4.09-1.57,5.66-0.01l0,0
	c0.78,0.78,1.17,1.8,1.17,2.83l0,0c0,1.02-0.38,2.05-1.16,2.83l0,0c-0.79,0.78-1.81,1.17-2.84,1.17l0,0
	C252.26,67.41,251.24,67.03,250.46,66.25z M235.18,53.18c-1.78-1.3-2.16-3.81-0.86-5.59l0,0c1.3-1.78,3.81-2.17,5.59-0.87l0,0
	c1.78,1.31,2.17,3.81,0.86,5.59l0,0c-0.78,1.08-1.99,1.64-3.23,1.64l0,0C236.72,53.95,235.9,53.7,235.18,53.18z M83.46,45.69
	c-1.15-1.89-0.55-4.35,1.33-5.5l0,0l0,0l0,0c1.89-1.15,4.35-0.56,5.5,1.33l0,0c1.15,1.89,0.56,4.35-1.33,5.5l0,0
	c-0.65,0.4-1.37,0.59-2.08,0.59l0,0C85.53,47.61,84.22,46.92,83.46,45.69z M101.62,35.75c-0.21-0.51-0.31-1.04-0.3-1.56l0,0
	c0-1.56,0.93-3.04,2.46-3.67l0,0c2.04-0.85,4.38,0.11,5.23,2.15l0,0c0.21,0.51,0.31,1.04,0.31,1.56l0,0
	c-0.01,1.56-0.94,3.04-2.47,3.67h0.01c-0.51,0.21-1.03,0.31-1.54,0.31l0,0C103.75,38.21,102.26,37.28,101.62,35.75z M207.69,37.74
	c-1.55-0.64-2.49-2.14-2.48-3.72l0,0c0-0.5,0.1-1.01,0.3-1.51l0,0c0.85-2.04,3.18-3.01,5.23-2.17l0,0c1.54,0.64,2.48,2.14,2.47,3.71
	l0,0c0,0.51-0.1,1.02-0.3,1.51l0,0c-0.64,1.55-2.13,2.48-3.7,2.48l0,0C208.7,38.04,208.18,37.94,207.69,37.74z M188.57,31.52
	c-2.15-0.52-3.47-2.68-2.95-4.83l0,0c0.52-2.15,2.68-3.47,4.83-2.95l0,0c2.14,0.52,3.46,2.69,2.94,4.83l0,0
	c-0.44,1.83-2.08,3.06-3.88,3.06l0,0C189.2,31.63,188.88,31.6,188.57,31.52z M132.64,26.04c-0.33-2.19,1.16-4.23,3.35-4.57l0,0
	c2.18-0.34,4.22,1.16,4.56,3.35l0,0c0.34,2.18-1.16,4.22-3.35,4.56l0,0c-0.2,0.03-0.41,0.05-0.61,0.05l0,0
	C134.65,29.43,132.95,28.01,132.64,26.04z M153.24,23.84c0-2.21,1.78-4.01,3.99-4.01l0,0c2.21,0,4.01,1.78,4.01,3.99l0,0
	c0,2.21-1.78,4.01-3.99,4.01l0,0C155.04,27.83,153.24,26.05,153.24,23.84z"/>
<circle fill="#FFDB97" cx="157.22" cy="159.21" r="122.21"/>
</svg>
