<?xml version="1.0" encoding="utf-8"?>
<!-- Generator: Adobe Illustrator 24.1.1, SVG Export Plug-In . SVG Version: 6.00 Build 0)  -->
<svg version="1.1" baseProfile="tiny" id="Capa_1" xmlns="http://www.w3.org/2000/svg" xmlns:xlink="http://www.w3.org/1999/xlink"
	 x="0px" y="0px" viewBox="0 0 25 24" xml:space="preserve">
<path fill="#EA911B" d="M13.34,2.23l2.46,4.99c0.18,0.37,0.53,0.63,0.94,0.68l5.51,0.8c1.03,0.15,1.44,1.41,0.69,2.13l-3.99,3.88
	c-0.29,0.29-0.43,0.7-0.36,1.11l0.94,5.49c0.18,1.02-0.9,1.8-1.82,1.32l-4.93-2.59c-0.36-0.19-0.8-0.19-1.16,0l-4.93,2.59
	c-0.92,0.48-1.99-0.3-1.82-1.32l0.94-5.49c0.07-0.41-0.06-0.82-0.36-1.11l-3.99-3.88C0.75,10.11,1.16,8.85,2.19,8.7l5.51-0.8
	C8.1,7.84,8.45,7.59,8.64,7.22l2.46-4.99C11.56,1.3,12.88,1.3,13.34,2.23z"/>
</svg>
