<?xml version="1.0" encoding="utf-8"?>
<!-- Generator: Adobe Illustrator 24.1.1, SVG Export Plug-In . SVG Version: 6.00 Build 0)  -->
<svg version="1.1" baseProfile="tiny" id="Capa_1" xmlns="http://www.w3.org/2000/svg" xmlns:xlink="http://www.w3.org/1999/xlink"
	 x="0px" y="0px" viewBox="0 0 208 84" xml:space="preserve">
<g>
	<path fill="#FFC352" d="M184.12,76.15H24.31c-10.11,0-18.29-8.2-18.29-18.29V26.55c0-10.11,8.2-18.29,18.29-18.29h159.81
		c10.11,0,18.29,8.2,18.29,18.29v31.31C202.42,67.96,194.23,76.15,184.12,76.15z"/>
	<path fill="#E93634" d="M165.36,54.66c-0.04,0-0.09,0-0.13,0c-0.77-0.04-1.49-0.43-1.93-1.07l-7.2-10.21
		c-0.8-1.14-0.53-2.72,0.61-3.52c1.14-0.8,2.72-0.53,3.52,0.61l5.36,7.59l16.95-19.31c0.92-1.05,2.52-1.15,3.57-0.23
		c1.05,0.92,1.15,2.52,0.23,3.57L167.26,53.8C166.78,54.35,166.09,54.66,165.36,54.66z"/>
</g>
</svg>
