<?xml version="1.0" encoding="utf-8"?>
<!-- Generator: Adobe Illustrator 23.0.5, SVG Export Plug-In . SVG Version: 6.00 Build 0)  -->
<svg version="1.1" id="Capa_1" xmlns="http://www.w3.org/2000/svg" xmlns:xlink="http://www.w3.org/1999/xlink" x="0px" y="0px"
	 viewBox="0 0 648 449" style="enable-background:new 0 0 648 449;" xml:space="preserve">
<style type="text/css">
	.st0{fill:#FFC352;}
	.st1{fill:#FFDB97;}
	.st2{fill:#EA911B;}
	.st3{fill:none;}
	.st4{fill:#4F1C10;}
	.st5{fill:#71351B;}
	.st6{fill:#D72525;}
	.st7{fill:#A86B1A;}
	.st8{fill:#F4A82F;}
	.st9{fill:#E93634;}
	.st10{fill:#F6A421;}
</style>
<g>
	<path class="st0" d="M578.9,223.3c0,98.9-112,179.2-250.2,179.2S78.5,322.2,78.5,223.3c0-36.8,15.5-71,42-99.4
		c-17.1-3.2-32.1-7.8-44-12.1C49.1,145,33.3,184,33.3,225.8c0,120.9,132.3,218.9,295.5,218.9s295.5-98,295.5-218.9
		c0-41.9-15.9-81.1-43.5-114.4c-12.5,3.8-28,7.5-46,10.1C562.6,150.5,578.9,185.5,578.9,223.3z"/>
	<path class="st1" d="M360.7,86.6c-20.8-16.4-30.1-32-30.1-32c-70.7,76.1-152.5,80.1-210.1,69.3c-26.5,28.4-42,62.6-42,99.4
		c0,98.9,112,179.2,250.2,179.2c138.2,0,250.2-80.2,250.2-179.2c0-37.8-16.3-72.8-44.2-101.7c-24.9,3.6-54.3,4.9-86.7,0.8
		C408.2,117.2,379.7,101.6,360.7,86.6"/>
</g>
<g>
	<g>
		<circle class="st2" cx="69.4" cy="267.4" r="11.5"/>
		<circle class="st2" cx="68.5" cy="179.7" r="11.5"/>
		<circle class="st2" cx="602.6" cy="179.7" r="11.5"/>
		<circle class="st2" cx="122.6" cy="345.4" r="11.5"/>
		<circle class="st2" cx="204.1" cy="395" r="11.5"/>
	</g>
	<g>
		<circle class="st2" cx="604.7" cy="267.4" r="11.5"/>
		<circle class="st2" cx="551.5" cy="345.4" r="11.5"/>
		<circle class="st2" cx="470" cy="395" r="11.5"/>
		<circle class="st2" cx="388.3" cy="417.8" r="11.5"/>
		<circle class="st2" cx="292.9" cy="418.3" r="11.5"/>
	</g>
</g>
<g>
	<g>
		<path class="st3" d="M397.7,262.9c-0.3,0-0.7-0.1-1-0.1l-0.7,5.4c-1-0.3-2-0.5-3-0.6c-1-0.1-2-0.2-3-0.2c-2.6,0-5,0.3-7.3,1
			c-1.8,0.5-3.4,1.3-4.9,2.2c-0.3,0.4-0.5,0.9-0.8,1.3c-1.1,2.1-1.6,4.5-1.6,7.3c0,1.8,0.3,3.4,0.9,4.7s1.4,2.4,2.4,3.3
			c1,0.9,2.3,1.5,3.7,1.9c1.4,0.4,3,0.6,4.7,0.6c1.3,0,2.6-0.1,4-0.4c1.4-0.3,2.8-0.6,4.1-1.1c1.4-0.4,2.7-1,3.9-1.6
			c1.2-0.6,2.4-1.2,3.4-1.8l0.9-41.5l-2.7,20C399.7,263.2,398.7,263,397.7,262.9z"/>
		<path class="st3" d="M394.5,183.1c-0.5,2.2-1.2,4.2-2.2,6.1c-1,1.8-2.3,3.5-3.9,5.1c-0.8,0.7-1.6,1.4-2.5,2.2
			c-0.7,0.9-1.4,1.8-2.3,2.6c-0.2,0.2-0.4,0.3-0.5,0.5l10.8,19.2l0.8-36.4C394.6,182.6,394.6,182.9,394.5,183.1z"/>
		<path class="st3" d="M302.9,195.3c0-1.5-0.2-2.9-0.6-4.3c-0.4-1.4-1.1-2.7-1.9-3.7c-0.8-1.1-1.9-2-3.1-2.7c-1.2-0.7-2.6-1-4.2-1
			c-1.6,0-3.1,0.3-4.4,0.9c0,0-0.1,0-0.1,0.1c-0.2,0.4-0.3,0.8-0.5,1.2c-0.5,1.4-0.7,2.8-0.7,4.3c0,1.4,0.2,2.9,0.6,4.4
			c0.4,1.4,1,2.8,1.9,3.9c0.8,1.2,1.9,2.1,3.1,2.9c1.2,0.7,2.7,1.1,4.3,1.1c1.6,0,3-0.3,4.3-0.9c0.3-0.5,0.5-1.1,0.7-1.6
			C302.6,198.3,302.9,196.8,302.9,195.3z"/>
		<path class="st3" d="M431.6,193.4v-0.7c0-1.9-0.2-3.7-0.6-5.4c-0.4-1.7-1.1-3.3-2.1-4.6c-1-1.3-2.2-2.4-3.8-3.2
			c-0.3-0.2-0.7-0.3-1-0.5l-1.7,26.6c2.1-0.3,4-1,5.7-2.1c0.2-0.1,0.3-0.2,0.5-0.4c0.8-1.2,1.5-2.5,2-3.9
			C431.2,197.4,431.6,195.5,431.6,193.4z"/>
		<path class="st3" d="M366.6,178.2c-0.4-1.2-1-2.3-1.8-3.1c-0.8-0.9-1.8-1.6-2.9-2.1c-1-0.4-2.2-0.7-3.4-0.7l-0.6,15.1h1.2
			c1.5,0,3-0.2,4.5-0.6c1-0.3,2-0.6,2.9-1.1c0.4-1,0.6-2.2,0.6-3.5C367.2,180.8,367,179.4,366.6,178.2z"/>
		<path class="st3" d="M257.2,282.1v-0.7c0-1.9-0.2-3.7-0.6-5.4c-0.4-1.7-1.1-3.3-2.1-4.6c-1-1.3-2.2-2.4-3.8-3.2
			c-0.3-0.2-0.7-0.3-1-0.5l-1.7,26.6c2.1-0.3,4-1,5.7-2.1c0.2-0.1,0.3-0.2,0.5-0.4c0.8-1.2,1.5-2.5,2-3.9
			C256.8,286.1,257.2,284.2,257.2,282.1z"/>
		<polygon class="st4" points="206.6,156.3 202.6,156.3 198.7,180.4 200.4,194.6 		"/>
		<polygon class="st4" points="248.7,230.5 249.4,225.9 223.9,226.4 217.6,189.1 214.7,204.9 219.1,231.2 		"/>
		<polygon class="st4" points="170.2,158 164.7,158.5 176.9,229.5 206.5,228.5 207.3,223.8 181.7,224.7 		"/>
		<polygon class="st4" points="239.4,156.6 235.1,156.3 232.9,179.8 235.8,195.1 		"/>
		<path class="st4" d="M305.1,182.5c-0.8-1.1-1.9-2-3.1-2.7c-1.2-0.7-2.6-1-4.2-1c-1.6,0-3.1,0.3-4.4,0.9c-1.3,0.6-2.4,1.4-3.3,2.4
			c-0.6,0.7-1.2,1.5-1.6,2.4c0,0,0.1-0.1,0.1-0.1c1.3-0.6,2.7-0.9,4.4-0.9c1.6,0,3,0.3,4.2,1s2.3,1.6,3.1,2.7
			c0.8,1.1,1.5,2.3,1.9,3.7c0.4,1.4,0.6,2.9,0.6,4.3c0,1.5-0.2,3-0.7,4.4c-0.2,0.6-0.4,1.1-0.7,1.6c0,0,0.1,0,0.1,0
			c1.3-0.6,2.4-1.5,3.3-2.6c0.9-1.1,1.6-2.3,2.1-3.8c0.5-1.4,0.7-2.9,0.7-4.4c0-1.5-0.2-2.9-0.6-4.3
			C306.6,184.8,305.9,183.6,305.1,182.5z"/>
		<path class="st4" d="M261.1,186.5c-0.7,2.9-1.1,5.8-1.1,8.9c0,3.1,0.4,6,1.2,8.9c0.8,2.8,1.9,5.5,3.3,8c1.4,2.5,3.1,4.7,5.1,6.8
			c2,2,4.2,3.8,6.7,5.2c2.5,1.4,5.1,2.6,7.9,3.3c2.8,0.8,5.8,1.2,8.9,1.2c3.2,0,6.3-0.4,9.1-1.3c2.9-0.8,5.5-2,8-3.6
			c2.4-1.5,4.6-3.3,6.6-5.5c0.5-0.5,0.9-1,1.4-1.6c-1,0.8-2.1,1.6-3.2,2.3c-2.4,1.5-5.1,2.7-8,3.6s-5.9,1.3-9.1,1.3
			c-3.1,0-6.1-0.4-8.9-1.2c-2.8-0.8-5.5-1.9-7.9-3.3c-2.5-1.4-4.7-3.2-6.7-5.2c-2-2-3.7-4.3-5.1-6.8c-1.4-2.5-2.5-5.1-3.3-8
			c-0.8-2.8-1.2-5.8-1.2-8.9c0-3,0.4-6,1.1-8.9c0.7-2.9,1.8-5.6,3.1-8.2c1.1-2.1,2.4-4,3.8-5.8c-1.3,1.1-2.5,2.2-3.7,3.5
			c-1.9,2.1-3.6,4.5-5,7.1C262.8,180.8,261.8,183.6,261.1,186.5z"/>
		<path class="st4" d="M369.6,170.3c-0.8-0.9-1.8-1.6-2.9-2.1c-1.2-0.5-2.5-0.8-4.1-0.8c-0.7,0-1.4,0-2,0.1
			c-0.7,0.1-1.3,0.2-1.9,0.4l-0.2,4.3c1.3,0.1,2.4,0.3,3.4,0.7c1.2,0.5,2.1,1.2,2.9,2.1c0.8,0.9,1.4,1.9,1.8,3.1
			c0.4,1.2,0.6,2.5,0.6,4c0,1.3-0.2,2.4-0.6,3.5c0.4-0.2,0.8-0.4,1.2-0.7c1.2-0.8,2.2-1.8,3-3.1c0.8-1.2,1.2-2.7,1.2-4.5
			c0-1.5-0.2-2.8-0.6-4C371,172.2,370.4,171.2,369.6,170.3z"/>
		<polygon class="st4" points="363.7,203.2 357.2,203.4 357,208.1 358.9,208 366.9,230.1 390.3,225.6 388.3,222.1 371.7,225.4 		"/>
		<path class="st4" d="M329.9,197.2c-0.1,3-0.2,6.1-0.2,9.1c-0.2,7.8-0.3,15.7-0.5,23.6h22.3l0.2-4.8h-17.8
			c0.2-7.9,0.3-15.8,0.5-23.6c0.2-7.8,0.3-15.7,0.5-23.6c0.1-4,0.1-7.9,0.2-11.8c0-2.9,0.2-5.7,0.3-8.6c-1.5,0.4-3.1,1-4.6,1.5
			c-0.2,4-0.3,7.9-0.4,11.8c-0.1,3.9-0.1,7.8-0.2,11.8c0.3,2.1,0.5,4.3,0.5,6.6C330.7,191.9,330.4,194.6,329.9,197.2z"/>
		<path class="st4" d="M386,196.4c-1,0.8-2.1,1.6-3.3,2.3l0.4,0.8c0.2-0.2,0.4-0.3,0.5-0.5C384.5,198.2,385.3,197.4,386,196.4z"/>
		<path class="st4" d="M433.7,177.9c-1-1.3-2.2-2.4-3.8-3.2c-1.5-0.8-3.3-1.3-5.5-1.3l-0.4,5.6c0.4,0.1,0.7,0.3,1,0.5
			c1.5,0.8,2.8,1.9,3.8,3.2c1,1.3,1.7,2.9,2.1,4.6c0.4,1.7,0.6,3.5,0.6,5.4v0.7c-0.1,2-0.4,4-1.1,5.8c-0.5,1.4-1.2,2.7-2,3.9
			c1.5-1,2.8-2.2,3.9-3.5c1.2-1.5,2.2-3.3,2.9-5.1c0.7-1.9,1-3.8,1.1-5.8V188c0-1.9-0.2-3.7-0.6-5.4
			C435.4,180.8,434.7,179.3,433.7,177.9z"/>
		<path class="st4" d="M394.7,182.4l-0.8,36.4l1.1,2l-1.2,0.2l-0.2,8.7c1.6,0.2,3.2,0.3,4.8,0.4c1.6,0.1,3.1,0.1,4.8,0.1
			c4.4,0,8.6-0.3,12.8-1c4.1-0.7,8-1.7,11.7-3.1c3.7-1.4,7-3.2,10.1-5.4c2.5-1.8,4.8-3.9,6.8-6.3c-0.6,0.5-1.3,1-2,1.5
			c-3.1,2.2-6.5,4-10.1,5.4s-7.6,2.4-11.7,3.1s-8.4,1-12.8,1c-1.6,0-3.2,0-4.8-0.1c-1.6-0.1-3.1-0.2-4.8-0.4l1.4-66.2
			c-1.6,0.4-3.1,0.8-4.7,1.3l-0.2,11.4c0.2,1.4,0.3,2.9,0.3,4.4C395.3,178.2,395.1,180.4,394.7,182.4z"/>
		<path class="st4" d="M482.4,226.6c-1.7,0-3.6-0.2-5.6-0.7c-2-0.4-4.1-1-6.2-1.7c-2.1-0.7-4.1-1.4-6-2.2c-1.9-0.8-3.6-1.5-5.1-2.2
			l1.6-14.6c-1.4-0.6-2.8-1.3-4-2.1l-2.3,21.4c1.5,0.7,3.2,1.4,5.1,2.2c1.9,0.8,3.9,1.5,6,2.2s4.1,1.2,6.2,1.7
			c2,0.4,3.9,0.7,5.6,0.7c4.4,0,8.5-0.6,12.3-1.8c3.8-1.2,7.2-2.9,10-5.3c1.5-1.2,2.8-2.6,3.9-4.1c-2.7,2-5.7,3.6-9.2,4.6
			C490.9,226,486.8,226.6,482.4,226.6z"/>
		<path class="st4" d="M457.3,190.6c0.8,1.6,1.8,3,3,4.2c1.7,1.9,3.8,3.3,6.3,4.3s5.2,1.6,8.1,1.6c0.4,0,1,0,1.7,0
			c0.7,0,1.4,0,2.2,0.1c0.8,0.1,1.6,0.2,2.4,0.3c0.8,0.2,1.6,0.4,2.2,0.7c0.7,0.3,1.2,0.7,1.6,1.1c0.2,0.2,0.3,0.4,0.4,0.7
			c0.7-0.1,1.3-0.2,1.9-0.4c0.8-0.3,1.6-0.6,2.2-1.2c0.6-0.5,0.9-1.3,0.9-2.2c0-0.7-0.2-1.2-0.6-1.7c-0.4-0.5-1-0.8-1.6-1.1
			c-0.7-0.3-1.4-0.5-2.2-0.7c-0.8-0.2-1.7-0.3-2.4-0.3c-0.8-0.1-1.5-0.1-2.2-0.1c-0.7,0-1.2,0-1.7,0c-3,0-5.7-0.5-8.1-1.6
			c-2.4-1-4.5-2.5-6.3-4.3c-1.7-1.9-3.1-4.1-4.1-6.6c-1-2.5-1.5-5.3-1.5-8.3c0-4.1,0.8-7.8,2.5-11c0.7-1.4,1.6-2.8,2.6-4
			c-0.2,0.2-0.5,0.4-0.7,0.5c-2.8,2.3-5,5-6.6,8.3c-0.6,1.2-1.1,2.4-1.4,3.6c1.2,3.6,1.9,7.6,1.9,12
			C457.7,186.7,457.6,188.7,457.3,190.6z"/>
		<path class="st4" d="M492.9,171c-0.4,0-1,0-1.7,0c-0.7,0-1.5,0.1-2.2,0.2c-0.8,0.1-1.6,0.2-2.4,0.4c-0.8,0.2-1.5,0.4-2.1,0.7
			c-0.6,0.3-1.1,0.7-1.5,1.2s-0.6,1.1-0.5,1.7c0,0.4,0.1,0.7,0.2,1c0.5-0.1,1-0.2,1.5-0.2c0.8-0.1,1.5-0.1,2.2-0.2
			c0.7,0,1.3,0,1.7,0c2.5,0,5,0.3,7.6,0.8c2.6,0.5,5,1.2,7.4,2l0.6-6c-1-0.3-2.1-0.5-3.2-0.8C497.9,171.3,495.4,171,492.9,171z"/>
		<path class="st4" d="M258.1,310c-3.7,1.4-7.6,2.4-11.7,3.1c-4.1,0.7-8.4,1-12.8,1c-1.6,0-3.2,0-4.8-0.1c-1.6-0.1-3.1-0.2-4.8-0.4
			l1.4-66.2c-1.6,0.4-3.1,0.8-4.7,1.3l-1.4,69.7c1.6,0.2,3.2,0.3,4.8,0.4c1.6,0.1,3.1,0.1,4.8,0.1c4.4,0,8.6-0.3,12.8-1
			c4.1-0.7,8-1.7,11.7-3.1c3.7-1.4,7-3.2,10.1-5.4c2.5-1.8,4.8-3.9,6.8-6.3c-0.6,0.5-1.3,1-2,1.5C265.2,306.8,261.8,308.6,258.1,310
			z"/>
		<path class="st4" d="M259.3,266.6c-1-1.3-2.2-2.4-3.8-3.2c-1.5-0.8-3.3-1.3-5.5-1.3l-0.4,5.6c0.4,0.1,0.7,0.3,1,0.5
			c1.5,0.8,2.8,1.9,3.8,3.2c1,1.3,1.7,2.9,2.1,4.6c0.4,1.7,0.6,3.5,0.6,5.4v0.7c-0.1,2-0.4,4-1.1,5.8c-0.5,1.4-1.2,2.7-2,3.9
			c1.5-1,2.8-2.2,3.9-3.5c1.2-1.5,2.2-3.3,2.9-5.1s1-3.8,1.1-5.8v-0.7c0-1.9-0.2-3.7-0.6-5.4C261,269.5,260.3,268,259.3,266.6z"/>
		<path class="st4" d="M317.8,295.7c0.8-1,1.5-2.2,2.1-3.8c0.6-1.6,1.1-3.4,1.6-5.5c0.4-2.1,0.8-4.2,1.1-6.5
			c0.3-2.3,0.6-4.5,0.8-6.8c0.2-2.3,0.3-4.3,0.5-6.3s0.2-3.7,0.2-5.1c0-1.5,0-2.6,0-3.3c0-2.7,0-5.4-0.1-8.1c0-1.1-0.1-2.2-0.1-3.3
			h-5c0.2,2.7,0.3,5.3,0.4,8c0.1,2.7,0.1,5.4,0.1,8.1c0,0.7,0,1.8,0,3.3c0,1.5-0.1,3.2-0.2,5.1s-0.3,4-0.5,6.3
			c-0.2,2.3-0.4,4.5-0.8,6.8c-0.3,2.3-0.7,4.4-1.1,6.5s-1,3.9-1.6,5.5c-0.1,0.2-0.1,0.3-0.2,0.5c0.1,0,0.1,0,0.2,0
			C316.1,297.1,317,296.6,317.8,295.7z"/>
		<path class="st4" d="M314,317c-4,0-7.5-0.6-10.5-1.9c-3-1.3-5.5-3-7.6-5.2c-2.1-2.2-3.8-4.8-5.2-7.7s-2.4-6-3.2-9.3
			c-0.8-3.3-1.3-6.6-1.6-10c-0.3-3.4-0.4-6.7-0.4-9.8c0-4.8,0.2-9.7,0.7-14.5c0.3-3.2,0.7-6.4,1.2-9.5l-3.9-0.2
			c-0.8,4.4-1.4,8.7-1.9,13.1c1.1,3.5,1.7,7.3,1.7,11.5c0,4.8-0.6,9.2-1.9,13.1c-0.1,0.3-0.2,0.5-0.3,0.8c0,0.1,0,0.2,0,0.3
			c0.3,3.4,0.8,6.8,1.6,10c0.8,3.3,1.8,6.4,3.2,9.3c1.4,2.9,3.1,5.5,5.2,7.7c2.1,2.2,4.7,3.9,7.6,5.2c3,1.3,6.4,1.9,10.5,1.9
			c3.4,0,6.5-0.6,9.4-1.7c2.8-1.2,5.3-2.8,7.6-4.8c1.3-1.2,2.5-2.5,3.6-3.8c-2,1.6-4.1,2.9-6.5,3.8C320.5,316.4,317.4,317,314,317z"
			/>
		<path class="st4" d="M389.9,267.5c1,0,2,0,3,0.2s2,0.3,3,0.6l0.7-5.4c-0.7,0-1.3-0.1-2-0.1c-2.6,0-5,0.3-7.3,1s-4.4,1.7-6.2,3.1
			c-1.4,1.1-2.6,2.4-3.5,3.9c1.5-0.9,3.1-1.7,4.9-2.2C384.9,267.8,387.4,267.5,389.9,267.5z"/>
		<path class="st4" d="M386.3,313.5c-1.7,0.2-3.3,0.3-4.8,0.3c-4.4,0-8.5-0.8-12.3-2.4c-3.8-1.6-7.1-3.9-9.9-6.7
			c-2.8-2.8-5-6.2-6.6-10.1c-1.6-3.9-2.4-8-2.4-12.5c0-5.9,0.8-11.5,2.5-16.8c1.7-5.2,4.1-9.7,7.3-13.6c-1.7,1.4-3.2,2.9-4.6,4.5
			c-3.3,3.9-5.8,8.5-7.5,13.8c-0.2,0.6-0.4,1.2-0.6,1.9c-0.1,0.9-0.3,1.8-0.4,2.8c-0.4,2.1-0.8,4.2-1.3,6.3
			c-0.2,1.9-0.3,3.8-0.3,5.8c0,4.5,0.8,8.6,2.4,12.5c1.6,3.9,3.8,7.2,6.6,10.1c2.8,2.8,6.1,5.1,9.9,6.7c3.8,1.6,7.9,2.4,12.3,2.4
			c1.5,0,3.1-0.1,4.8-0.3c1.7-0.2,3.3-0.5,5-0.9c1.7-0.4,3.3-0.9,4.9-1.4c1.6-0.5,3-1.2,4.4-1.8l0.2-2.9c-1.5,0.5-3.1,1-4.7,1.4
			C389.6,313,387.9,313.3,386.3,313.5z"/>
		<path class="st4" d="M408.1,243.1l-4.6-0.3l-0.1,0.6l-0.9,41.5c0,0,0.1,0,0.1,0l-0.1,1.4l-0.8,36.1l21.6-0.8l0.2-4.6l-17,0.7
			L408.1,243.1z"/>
		<polygon class="st4" points="428.9,293.4 428.6,304.4 440,320.6 464.1,316.3 462,312.8 444.7,315.8 		"/>
		<polygon class="st4" points="443.4,243 441.8,242.9 430.7,260 430.5,262.9 		"/>
		<path class="st4" d="M502.7,259.7c-0.4,0-1,0-1.7,0c-0.7,0-1.5,0.1-2.2,0.2c-0.8,0.1-1.6,0.2-2.4,0.4c-0.8,0.2-1.5,0.4-2.1,0.7
			c-0.6,0.3-1.1,0.7-1.5,1.2s-0.6,1.1-0.5,1.7c0,0.4,0.1,0.7,0.2,1c0.5-0.1,1-0.2,1.5-0.2c0.8-0.1,1.5-0.1,2.2-0.2s1.3,0,1.7,0
			c2.5,0,5,0.3,7.6,0.8s5,1.2,7.4,2l0.6-6c-1-0.3-2.1-0.5-3.2-0.8C507.6,260,505.1,259.7,502.7,259.7z"/>
		<path class="st4" d="M499.2,290.8c0.6-0.5,0.9-1.3,0.9-2.2c0-0.7-0.2-1.2-0.6-1.7c-0.4-0.5-1-0.8-1.6-1.1
			c-0.7-0.3-1.4-0.5-2.2-0.7c-0.8-0.2-1.7-0.3-2.4-0.3c-0.8-0.1-1.5-0.1-2.2-0.1c-0.7,0-1.2,0-1.7,0c-3,0-5.7-0.5-8.1-1.6
			c-2.4-1-4.5-2.5-6.3-4.3c-1.7-1.9-3.1-4.1-4.1-6.6s-1.5-5.3-1.5-8.3c0-4.1,0.8-7.8,2.5-11c0.7-1.4,1.6-2.8,2.6-4
			c-0.2,0.2-0.5,0.4-0.7,0.5c-2.8,2.3-5,5-6.6,8.3c-1.7,3.2-2.5,6.9-2.5,11c0,3,0.5,5.7,1.5,8.3s2.3,4.7,4.1,6.6
			c1.7,1.9,3.8,3.3,6.3,4.3c2.4,1,5.2,1.6,8.1,1.6c0.4,0,1,0,1.7,0c0.7,0,1.4,0,2.2,0.1c0.8,0.1,1.6,0.2,2.4,0.3
			c0.8,0.2,1.6,0.4,2.2,0.7c0.7,0.3,1.2,0.7,1.6,1.1c0.2,0.2,0.3,0.4,0.4,0.7c0.7-0.1,1.3-0.2,1.9-0.4
			C497.9,291.7,498.6,291.4,499.2,290.8z"/>
		<path class="st4" d="M492.2,315.3c-1.7,0-3.6-0.2-5.6-0.7c-2-0.4-4.1-1-6.2-1.7c-2.1-0.7-4.1-1.4-6-2.2c-1.9-0.8-3.6-1.5-5.1-2.2
			l1.6-14.6c-1.4-0.6-2.8-1.3-4-2.1l-1.4,13.6l3.5,6l-4.2,0.7l-0.1,1c1.5,0.7,3.2,1.4,5.1,2.2c1.9,0.8,3.9,1.5,6,2.2
			c2.1,0.7,4.1,1.2,6.2,1.7c2,0.4,3.9,0.7,5.6,0.7c4.4,0,8.5-0.6,12.3-1.8c3.8-1.2,7.2-2.9,10-5.3c1.5-1.2,2.8-2.6,3.9-4.1
			c-2.7,2-5.7,3.6-9.2,4.6C500.7,314.7,496.6,315.3,492.2,315.3z"/>
		<polygon class="st5" points="223.9,226.4 249.4,225.9 253.4,225.8 265.6,153.8 239.9,151.5 239.4,156.6 235.8,195.1 232.9,179.8 
			227.6,151.5 207.4,151.5 206.6,156.3 200.4,194.6 198.7,180.4 195.2,151.5 169.5,153.8 170.2,158 181.7,224.7 207.3,223.8 
			211.2,223.7 214.7,204.9 217.6,189.1 		"/>
		<path class="st5" d="M265.8,181.7c-0.7,2.9-1.1,5.8-1.1,8.9c0,3.1,0.4,6,1.2,8.9c0.8,2.8,1.9,5.5,3.3,8c1.4,2.5,3.1,4.7,5.1,6.8
			c2,2,4.2,3.8,6.7,5.2c2.5,1.4,5.1,2.6,7.9,3.3c2.8,0.8,5.8,1.2,8.9,1.2c3.2,0,6.3-0.4,9.1-1.3c2.9-0.8,5.5-2,8-3.6
			c1.1-0.7,2.2-1.5,3.2-2.3c1.2-1,2.3-2,3.4-3.2c2-2.1,3.6-4.5,5-7c1.4-2.6,2.4-5.3,3.1-8.2c0.1-0.4,0.2-0.8,0.2-1.1
			c0.6-2.6,0.8-5.2,0.8-8c0-2.3-0.2-4.5-0.5-6.6c-0.4-2.5-1-4.9-1.9-7.1c-1.6-4.1-3.9-7.6-6.8-10.5c-2.9-2.9-6.5-5.1-10.6-6.7
			s-8.7-2.3-13.7-2.3c-3.1,0-6.1,0.4-8.9,1.3c-2.8,0.9-5.4,2.1-7.8,3.6c-2.4,1.6-4.6,3.4-6.5,5.6c-0.4,0.4-0.8,0.9-1.1,1.3
			c-1.5,1.8-2.7,3.7-3.8,5.8C267.6,176.1,266.6,178.8,265.8,181.7z M306.9,195c-0.5,1.4-1.2,2.7-2.1,3.8c-0.9,1.1-2,2-3.3,2.6
			c0,0-0.1,0-0.1,0c-1.3,0.6-2.7,0.9-4.3,0.9c-1.6,0-3.1-0.4-4.3-1.1c-1.2-0.7-2.3-1.7-3.1-2.9c-0.8-1.2-1.4-2.5-1.9-3.9
			c-0.4-1.5-0.6-2.9-0.6-4.4c0-1.5,0.2-3,0.7-4.3c0.1-0.4,0.3-0.8,0.5-1.2c0.4-0.9,1-1.7,1.6-2.4c0.9-1,2-1.8,3.3-2.4
			c1.3-0.6,2.7-0.9,4.4-0.9c1.6,0,3,0.3,4.2,1c1.2,0.7,2.3,1.6,3.1,2.7c0.8,1.1,1.5,2.3,1.9,3.7c0.4,1.4,0.6,2.9,0.6,4.3
			C307.7,192.1,307.4,193.5,306.9,195z"/>
		<path class="st5" d="M335,177.9c-0.2,7.9-0.4,15.8-0.5,23.6c-0.2,7.8-0.3,15.7-0.5,23.6h17.8h4.6l0.7-17l0.2-4.6l6.4-0.2l8,22.1
			l16.7-3.3l5.6-1.1l1.2-0.2l-1.1-2l-10.8-19.2l-0.4-0.8c1.2-0.8,2.3-1.5,3.3-2.3c0.9-0.7,1.7-1.4,2.5-2.2c1.6-1.6,2.9-3.3,3.9-5.1
			c1-1.8,1.7-3.9,2.2-6.1c0.1-0.2,0.1-0.5,0.1-0.8c0.4-2,0.6-4.2,0.6-6.6c0-1.5-0.1-3-0.3-4.4c-0.4-2.5-1.1-4.9-2.2-7
			c-1.7-3.3-4-6-6.8-8.2c-2.8-2.2-6.1-3.8-9.8-4.9s-7.5-1.6-11.5-1.6c-2.6,0-5.1,0.1-7.5,0.2c-2.4,0.1-4.8,0.3-7.2,0.7
			c-2.4,0.3-4.7,0.8-7.1,1.4c-2.4,0.6-4.7,1.3-7.2,2.2c-0.1,1.1-0.1,2.2-0.1,3.2c-0.1,2.9-0.2,5.8-0.3,8.6
			C335.1,169.9,335.1,173.9,335,177.9z M370.8,181.9c-0.8,1.2-1.8,2.3-3,3.1c-0.4,0.3-0.8,0.5-1.2,0.7c-0.9,0.4-1.9,0.8-2.9,1.1
			c-1.5,0.4-3.1,0.6-4.5,0.6h-1.2l0.6-15.1l0.2-4.3c0.6-0.2,1.3-0.3,1.9-0.4c0.7-0.1,1.3-0.1,2-0.1c1.6,0,2.9,0.2,4.1,0.8
			c1.2,0.5,2.1,1.2,2.9,2.1c0.8,0.9,1.4,1.9,1.8,3.1c0.4,1.2,0.6,2.5,0.6,4C372,179.2,371.6,180.7,370.8,181.9z"/>
		<path class="st5" d="M403.2,225.3c1.6,0.1,3.1,0.1,4.8,0.1c4.4,0,8.6-0.3,12.8-1c4.1-0.7,8-1.7,11.7-3.1c3.7-1.4,7-3.2,10.1-5.4
			c0.7-0.5,1.3-1,2-1.5c2.3-1.8,4.3-3.9,6-6.3c2.2-3,4-6.5,5.2-10.4c0.7-2.2,1.2-4.6,1.5-7.1c0.2-1.9,0.4-3.9,0.4-6
			c0-4.4-0.6-8.4-1.9-12c-0.2-0.6-0.4-1.2-0.6-1.7c-1.7-4.1-4-7.5-7-10.3c-3-2.8-6.6-5-10.8-6.4s-8.7-2.2-13.7-2.2
			c-4,0-8,0.2-12,0.8c-4,0.5-8,1.4-11.8,2.6l-0.1,3.5l-1.4,66.2C400.1,225.1,401.7,225.2,403.2,225.3z M436.4,188.7
			c-0.1,2-0.4,4-1.1,5.8c-0.7,1.9-1.6,3.6-2.9,5.1c-1.1,1.4-2.4,2.6-3.9,3.5c-0.2,0.1-0.3,0.2-0.5,0.4c-1.7,1.1-3.6,1.7-5.7,2.1
			l1.7-26.6l0.4-5.6c2.1,0.1,3.9,0.5,5.5,1.3c1.5,0.8,2.8,1.9,3.8,3.2c1,1.3,1.7,2.9,2.1,4.6c0.4,1.7,0.6,3.5,0.6,5.4L436.4,188.7
			L436.4,188.7z"/>
		<path class="st5" d="M459.6,175.2c0,3,0.5,5.7,1.5,8.3c1,2.5,2.3,4.7,4.1,6.6c1.7,1.9,3.8,3.3,6.3,4.3c2.4,1,5.2,1.6,8.1,1.6
			c0.4,0,1,0,1.7,0c0.7,0,1.4,0,2.2,0.1c0.8,0.1,1.6,0.2,2.4,0.3c0.8,0.2,1.6,0.4,2.2,0.7c0.7,0.3,1.2,0.7,1.6,1.1
			c0.4,0.5,0.6,1,0.6,1.7c0,1-0.3,1.7-0.9,2.2s-1.3,0.9-2.2,1.2c-0.6,0.2-1.3,0.3-1.9,0.4c-0.2,0-0.5,0.1-0.8,0.1
			c-0.9,0-1.7,0.1-2.4,0.1c-3.5,0-7-0.5-10.6-1.4c-3.6-0.9-6.8-2.3-9.8-4l-0.7,6.8l-1.6,14.6c1.5,0.7,3.2,1.4,5.1,2.2
			c1.9,0.8,3.9,1.5,6,2.2c2.1,0.7,4.1,1.2,6.2,1.7c2,0.4,3.9,0.7,5.6,0.7c4.4,0,8.5-0.6,12.3-1.8c3.5-1.1,6.5-2.6,9.2-4.6
			c0.3-0.2,0.6-0.4,0.8-0.7c2.9-2.4,5.1-5.3,6.8-8.9c1.6-3.5,2.5-7.7,2.5-12.4c0-2.8-0.4-5.3-1.2-7.6c-0.8-2.3-2-4.3-3.5-6
			c-1.5-1.7-3.4-3-5.6-4c-2.2-1-4.7-1.6-7.5-1.8c-0.6-0.1-1.3-0.1-2.1-0.1c-0.9,0-1.8,0-2.8,0c-1,0-2-0.1-3-0.2s-2-0.3-2.8-0.5
			s-1.5-0.6-2.1-1.1c-0.3-0.2-0.5-0.5-0.6-0.8c-0.1-0.3-0.2-0.6-0.2-1c0-0.7,0.1-1.2,0.5-1.7c0.4-0.5,0.9-0.9,1.5-1.2
			c0.6-0.3,1.3-0.5,2.1-0.7c0.8-0.2,1.6-0.3,2.4-0.4c0.8-0.1,1.5-0.1,2.2-0.2c0.7,0,1.3,0,1.7,0c2.5,0,5,0.3,7.6,0.8
			c1.1,0.2,2.1,0.5,3.2,0.8c1.4,0.4,2.8,0.8,4.2,1.2l2-21.1c-1.5-0.7-3.1-1.3-4.8-1.8c-1.7-0.5-3.4-0.9-5.2-1.2
			c-1.8-0.3-3.6-0.5-5.4-0.6s-3.5-0.2-5.2-0.2c-3.8,0-7.5,0.6-11.1,1.8c-3.6,1.2-6.7,3-9.5,5.2c-1.5,1.3-2.9,2.7-4,4.2
			c-1,1.2-1.8,2.6-2.6,4C460.4,167.4,459.6,171.1,459.6,175.2z"/>
		<path class="st5" d="M283.3,273.3c0-4.2-0.6-8-1.7-11.5c-0.2-0.8-0.5-1.5-0.8-2.2c-1.7-4.1-4-7.5-7-10.3c-3-2.8-6.6-5-10.8-6.4
			s-8.7-2.2-13.7-2.2c-4,0-8,0.2-12,0.8c-4,0.5-8,1.4-11.8,2.6l-0.1,3.5l-1.4,66.2c1.6,0.2,3.2,0.3,4.8,0.4c1.6,0.1,3.1,0.1,4.8,0.1
			c4.4,0,8.6-0.3,12.8-1c4.1-0.7,8-1.7,11.7-3.1c3.7-1.4,7-3.2,10.1-5.4c0.7-0.5,1.3-1,2-1.5c2.3-1.8,4.3-3.9,6-6.3
			c2.1-2.8,3.7-6,4.9-9.6c0.1-0.3,0.2-0.5,0.3-0.8C282.7,282.5,283.3,278.2,283.3,273.3z M262,277.4c-0.1,2-0.4,4-1.1,5.8
			c-0.7,1.9-1.6,3.6-2.9,5.1c-1.1,1.4-2.4,2.6-3.9,3.5c-0.2,0.1-0.3,0.2-0.5,0.4c-1.7,1.1-3.6,1.7-5.7,2.1l1.7-26.6l0.4-5.6
			c2.1,0.1,3.9,0.5,5.5,1.3c1.5,0.8,2.8,1.9,3.8,3.2c1,1.3,1.7,2.9,2.1,4.6c0.4,1.7,0.6,3.5,0.6,5.4L262,277.4L262,277.4z"/>
		<path class="st5" d="M347.4,272.1c0.3-2.3,0.6-4.6,0.8-6.8c0.2-3.1,0.4-5.9,0.4-8.5c0-4.9-0.2-9.8-0.6-14.5h-24.3
			c0.1,1.6,0.2,3.2,0.3,4.8c0,1.1,0.1,2.2,0.1,3.3c0.1,2.7,0.1,5.4,0.1,8.1c0,0.7,0,1.8,0,3.3c0,1.5-0.1,3.2-0.2,5.1s-0.3,4-0.5,6.3
			c-0.2,2.3-0.4,4.5-0.8,6.8c-0.3,2.3-0.7,4.4-1.1,6.5c-0.4,2.1-1,3.9-1.6,5.5c-0.6,1.6-1.3,2.9-2.1,3.8c-0.8,1-1.7,1.4-2.7,1.4
			c-0.1,0-0.1,0-0.2,0c-0.8,0-1.5-0.4-2.1-1.2c-0.6-0.8-1.2-1.8-1.6-3.1c-0.4-1.2-0.8-2.6-1.1-4.1c-0.3-1.5-0.5-3-0.6-4.4
			s-0.2-2.7-0.3-3.9c0-1.2-0.1-2-0.1-2.6c0-5.5,0.3-11.1,1-16.5c0.7-5.5,1.5-10.9,2.4-16.4l-24.3-0.9c-0.3,1.6-0.6,3.3-0.8,4.9
			c-0.5,3.2-0.9,6.4-1.2,9.5c-0.5,4.8-0.7,9.7-0.7,14.5c0,3.1,0.1,6.4,0.4,9.8c0.3,3.4,0.8,6.8,1.6,10s1.8,6.4,3.2,9.3
			c1.4,2.9,3.1,5.5,5.2,7.7c2.1,2.2,4.7,3.9,7.6,5.2c3,1.3,6.4,1.9,10.5,1.9c3.4,0,6.5-0.6,9.4-1.7c2.3-1,4.5-2.3,6.5-3.8
			c0.4-0.3,0.8-0.6,1.1-0.9c2.3-2,4.3-4.4,6-7.1c1.7-2.7,3.3-5.6,4.6-8.8c1.3-3.1,2.4-6.4,3.3-9.7c0.3-1.2,0.6-2.5,0.9-3.7
			c0.5-2.1,0.9-4.2,1.3-6.3C347.2,273.9,347.3,273,347.4,272.1z"/>
		<path class="st5" d="M402.5,285c-1,0.6-2.2,1.2-3.4,1.8c-1.3,0.6-2.6,1.1-3.9,1.6s-2.7,0.8-4.1,1.1c-1.4,0.3-2.7,0.4-4,0.4
			c-1.7,0-3.3-0.2-4.7-0.6c-1.4-0.4-2.7-1.1-3.7-1.9c-1-0.9-1.8-2-2.4-3.3c-0.6-1.3-0.9-2.9-0.9-4.7c0-2.8,0.5-5.2,1.6-7.3
			c0.2-0.5,0.5-0.9,0.8-1.3c0.9-1.5,2.1-2.8,3.5-3.9c1.8-1.4,3.8-2.4,6.2-3.1c2.3-0.7,4.8-1,7.3-1c0.7,0,1.3,0,2,0.1
			c0.3,0,0.7,0,1,0.1c1,0.1,2,0.3,3,0.6l2.7-20l0.1-0.6l0.2-1.3c-2.1-1-4.5-1.7-7-2.1c-2.5-0.4-5-0.6-7.4-0.6
			c-6.3,0-11.9,1.1-16.8,3.4c-4.9,2.3-8.9,5.4-12.2,9.4c-0.1,0.1-0.1,0.2-0.2,0.2c-3.2,3.9-5.6,8.4-7.3,13.6
			c-1.7,5.2-2.5,10.8-2.5,16.8c0,4.5,0.8,8.6,2.4,12.5c1.6,3.9,3.8,7.2,6.6,10.1c2.8,2.8,6.1,5.1,9.9,6.7c3.8,1.6,7.9,2.4,12.3,2.4
			c1.5,0,3.1-0.1,4.8-0.3c1.7-0.2,3.3-0.5,5-0.9c1.6-0.4,3.2-0.8,4.7-1.4c0,0,0.1,0,0.1,0c1.6-0.5,3-1.2,4.4-1.8l2-23L402.5,285
			C402.6,285,402.5,285,402.5,285z"/>
		<polygon class="st5" points="465.4,305.5 447.8,274.8 472.8,240.2 446.6,238.1 443.4,243 430.5,262.9 430.7,260 432.4,239.5 
			408.2,238.1 408.1,243.1 406.5,317.7 423.5,317 428.1,316.9 428.6,304.4 428.9,293.4 444.7,315.8 462,312.8 464.7,312.3 
			468.8,311.6 		"/>
		<path class="st5" d="M522.5,279.3c-0.8-2.3-2-4.3-3.5-6c-1.5-1.7-3.4-3-5.6-4c-2.2-1-4.7-1.6-7.5-1.8c-0.6-0.1-1.3-0.1-2.1-0.1
			c-0.9,0-1.8,0-2.8,0c-1,0-2-0.1-3-0.2c-1-0.1-2-0.3-2.8-0.5c-0.8-0.3-1.5-0.6-2.1-1.1c-0.3-0.2-0.5-0.5-0.6-0.8
			c-0.1-0.3-0.2-0.6-0.2-1c0-0.7,0.1-1.2,0.5-1.7c0.4-0.5,0.9-0.9,1.5-1.2c0.6-0.3,1.3-0.5,2.1-0.7c0.8-0.2,1.6-0.3,2.4-0.4
			c0.8-0.1,1.5-0.1,2.2-0.2c0.7,0,1.3,0,1.7,0c2.5,0,5,0.3,7.6,0.8c1.1,0.2,2.1,0.5,3.2,0.8c1.4,0.4,2.8,0.8,4.2,1.2l2-21.1
			c-1.5-0.7-3.1-1.3-4.8-1.8c-1.7-0.5-3.4-0.9-5.2-1.2c-1.8-0.3-3.6-0.5-5.4-0.6c-1.8-0.1-3.5-0.2-5.2-0.2c-3.8,0-7.5,0.6-11.1,1.8
			c-3.6,1.2-6.7,3-9.5,5.2c-1.5,1.3-2.9,2.7-4,4.2c-1,1.2-1.8,2.6-2.6,4c-1.7,3.2-2.5,6.9-2.5,11c0,3,0.5,5.7,1.5,8.3
			s2.3,4.7,4.1,6.6c1.7,1.9,3.8,3.3,6.3,4.3c2.4,1,5.2,1.6,8.1,1.6c0.4,0,1,0,1.7,0c0.7,0,1.4,0,2.2,0.1c0.8,0.1,1.6,0.2,2.4,0.3
			c0.8,0.2,1.6,0.4,2.2,0.7c0.7,0.3,1.2,0.7,1.6,1.1c0.4,0.5,0.6,1,0.6,1.7c0,1-0.3,1.7-0.9,2.2s-1.3,0.9-2.2,1.2
			c-0.6,0.2-1.3,0.3-1.9,0.4c-0.2,0-0.5,0.1-0.8,0.1c-0.9,0-1.7,0.1-2.4,0.1c-3.5,0-7-0.5-10.6-1.4c-3.6-0.9-6.8-2.3-9.8-4l-0.7,6.8
			l-1.6,14.6c1.5,0.7,3.2,1.4,5.1,2.2c1.9,0.8,3.9,1.5,6,2.2c2.1,0.7,4.1,1.2,6.2,1.7c2,0.4,3.9,0.7,5.6,0.7c4.4,0,8.5-0.6,12.3-1.8
			c3.5-1.1,6.5-2.6,9.2-4.6c0.3-0.2,0.6-0.4,0.8-0.7c2.9-2.4,5.1-5.3,6.8-8.9c1.6-3.5,2.5-7.7,2.5-12.4
			C523.8,284.2,523.4,281.6,522.5,279.3z"/>
	</g>
	<g>
		<path class="st6" d="M203,338.7l-0.4,0.1c-1.3,0.4-2.8-0.3-3.2-1.7l-38.3-124.6c-0.4-1.3,0.3-2.8,1.7-3.2l0.4-0.1
			c1.3-0.4,2.8,0.3,3.2,1.7l38.3,124.6C205.1,336.8,204.3,338.2,203,338.7z"/>
		<path class="st6" d="M118.3,294.1l-0.1-0.4c-0.4-1.3,0.3-2.8,1.7-3.2l124.6-38.3c1.3-0.4,2.8,0.3,3.2,1.7l0.1,0.4
			c0.4,1.3-0.3,2.8-1.7,3.2l-124.6,38.3C120.1,296.2,118.7,295.4,118.3,294.1z"/>
		<path class="st6" d="M183.1,318.1c-18.7,0-36.1-12.1-41.9-30.9c-3.4-11.2-2.3-23,3.2-33.4c5.5-10.3,14.6-17.9,25.8-21.4
			c23.1-7.1,47.6,5.9,54.7,29s-5.9,47.6-29,54.7C191.6,317.5,187.3,318.1,183.1,318.1z M183.1,242.5c-3.1,0-6.3,0.5-9.4,1.4
			c-8.1,2.5-14.8,8-18.7,15.5c-4,7.5-4.8,16.1-2.3,24.2c5.2,16.7,22.9,26.2,39.7,21c8.1-2.5,14.8-8,18.7-15.5s4.8-16.1,2.3-24.2
			c-2.5-8.1-8-14.8-15.5-18.7C193.2,243.8,188.2,242.5,183.1,242.5z"/>
	</g>
	<g>
		<g>
			<path class="st7" d="M202.2,297.4c-0.9-0.7-1.8-1.4-2.7-2s-1.8-1.3-2.7-2c-1.3,1-2.7,2-4.3,2.9c-1.6,0.9-3.3,1.8-5.2,2.4
				c-1.8,0.7-3.7,1.2-5.7,1.5c-2,0.3-3.9,0.4-5.9,0.2c-2.3-0.2-4.4-0.6-6.4-1.4c-2-0.7-3.7-1.7-5.1-2.9c-1.4-1.2-2.5-2.5-3.2-4
				s-1-3.1-0.7-4.8c0.2-1.4,0.7-2.8,1.4-4.2s1.7-2.6,2.7-3.9c1.1-1.2,2.3-2.4,3.6-3.5c1.3-1.1,2.7-2.1,4.1-3.1c-1-1-1.9-2-2.8-3.1
				c-0.9-1.1-1.6-2.2-2.3-3.4c-0.6-1.2-1.1-2.4-1.4-3.6c-0.3-1.2-0.3-2.5-0.1-3.7c0.3-1.7,1-3.3,2.1-4.7c1.1-1.5,2.5-2.8,4.3-3.8
				c1.7-1.1,3.7-1.9,5.8-2.5c2.2-0.6,4.4-0.8,6.7-0.6c2.1,0.2,4.1,0.7,6,1.5c1.8,0.9,3.4,1.9,4.7,3.2c1.3,1.3,2.3,2.7,2.9,4.3
				c0.6,1.6,0.9,3.1,0.6,4.6c-0.2,1.3-0.6,2.4-1.2,3.5c-0.6,1.1-1.4,2.1-2.3,3.1c-0.9,1-1.9,1.9-3,2.8c-1.1,0.9-2.2,1.8-3.4,2.7
				c1.1,0.8,2.1,1.6,3.2,2.4c1,0.8,2,1.5,3.1,2.3c0.5-0.7,0.9-1.4,1.4-2.1s0.8-1.5,1.2-2.3l11.7,2.8c-0.5,1.5-1.2,2.9-2.1,4.4
				s-1.8,2.9-2.8,4.3c1.2,0.8,2.3,1.6,3.4,2.4c1.1,0.8,2.2,1.6,3.4,2.4L202.2,297.4z M185.3,285.9c-0.8-0.9-1.6-1.9-2.4-2.9
				s-1.7-2-2.4-2.9c-0.3,0.4-0.7,0.8-1.1,1.3c-0.4,0.5-0.8,1.1-1.2,1.7c-0.4,0.6-0.7,1.2-1,1.8c-0.3,0.6-0.5,1.2-0.5,1.8
				c-0.1,0.8,0.2,1.4,0.6,2.1s1.1,1,1.9,1.1c0.6,0.1,1.1,0,1.7-0.3s1.2-0.6,1.7-1c0.6-0.4,1.1-0.9,1.5-1.4
				C184.5,286.8,185,286.3,185.3,285.9z M184,260.2c0.1-0.9-0.1-1.7-0.5-2.2c-0.4-0.6-1-0.9-1.9-1c-0.9-0.1-1.6,0-2.2,0.5
				c-0.6,0.5-1,1.2-1.1,2.1c-0.1,0.6,0,1.2,0.1,1.8c0.1,0.6,0.3,1.2,0.6,1.8c0.2,0.6,0.5,1.2,0.8,1.7c0.3,0.5,0.6,1,0.9,1.4
				c0.3-0.4,0.7-0.8,1-1.3c0.4-0.5,0.7-1,1-1.6c0.3-0.6,0.6-1.1,0.8-1.7C183.9,261.3,184,260.7,184,260.2z"/>
		</g>
		<g>
			<path class="st8" d="M200.3,295.5c-0.9-0.7-1.8-1.4-2.7-2s-1.8-1.3-2.7-2c-1.3,1-2.7,2-4.3,2.9c-1.6,0.9-3.3,1.8-5.2,2.4
				c-1.8,0.7-3.7,1.2-5.7,1.5c-2,0.3-3.9,0.4-5.9,0.2c-2.3-0.2-4.4-0.6-6.4-1.4c-2-0.7-3.7-1.7-5.1-2.9c-1.4-1.2-2.5-2.5-3.2-4
				c-0.7-1.5-1-3.1-0.7-4.8c0.2-1.4,0.7-2.8,1.4-4.2c0.7-1.3,1.7-2.6,2.7-3.9c1.1-1.2,2.3-2.4,3.6-3.5c1.3-1.1,2.7-2.1,4.1-3.1
				c-1-1-1.9-2-2.8-3.1c-0.9-1.1-1.6-2.2-2.3-3.4c-0.6-1.2-1.1-2.4-1.4-3.6c-0.3-1.2-0.3-2.5-0.1-3.7c0.3-1.7,1-3.3,2.1-4.7
				c1.1-1.5,2.5-2.8,4.3-3.8c1.7-1.1,3.7-1.9,5.8-2.5c2.2-0.6,4.4-0.8,6.7-0.6c2.1,0.2,4.1,0.7,6,1.5c1.8,0.9,3.4,1.9,4.7,3.2
				c1.3,1.3,2.3,2.7,2.9,4.3c0.6,1.6,0.9,3.1,0.6,4.6c-0.2,1.3-0.6,2.4-1.2,3.5c-0.6,1.1-1.4,2.1-2.3,3.1s-1.9,1.9-3,2.8
				c-1.1,0.9-2.2,1.8-3.4,2.7c1.1,0.8,2.1,1.6,3.2,2.4c1,0.8,2,1.5,3.1,2.3c0.5-0.7,0.9-1.4,1.4-2.1s0.8-1.5,1.2-2.3l11.7,2.8
				c-0.5,1.5-1.2,2.9-2.1,4.4c-0.8,1.5-1.8,2.9-2.8,4.3c1.2,0.8,2.3,1.6,3.4,2.4c1.1,0.8,2.2,1.6,3.4,2.4L200.3,295.5z M183.4,284
				c-0.8-0.9-1.6-1.9-2.4-2.9c-0.8-1-1.7-2-2.4-2.9c-0.3,0.4-0.7,0.8-1.1,1.3c-0.4,0.5-0.8,1.1-1.2,1.7c-0.4,0.6-0.7,1.2-1,1.8
				c-0.3,0.6-0.5,1.2-0.5,1.8c-0.1,0.8,0.2,1.4,0.6,2.1c0.5,0.6,1.1,1,1.9,1.1c0.6,0.1,1.1,0,1.7-0.3c0.6-0.2,1.2-0.6,1.7-1
				c0.6-0.4,1.1-0.9,1.5-1.4C182.6,284.9,183.1,284.4,183.4,284z M182.1,258.3c0.1-0.9-0.1-1.7-0.5-2.2c-0.4-0.6-1-0.9-1.9-1
				c-0.9-0.1-1.6,0-2.2,0.5c-0.6,0.5-1,1.2-1.1,2.1c-0.1,0.6,0,1.2,0.1,1.8c0.1,0.6,0.3,1.2,0.6,1.8c0.2,0.6,0.5,1.2,0.8,1.7
				c0.3,0.5,0.6,1,0.9,1.4c0.3-0.4,0.7-0.8,1-1.3c0.4-0.5,0.7-1,1-1.6c0.3-0.6,0.6-1.1,0.8-1.7C182,259.4,182.1,258.8,182.1,258.3z"
				/>
		</g>
		<path class="st9" d="M169.7,258.5l-12.3,2.9c-0.8,0.7-0.4,2.3,0.6,2.6l9,2.3c2.4,0.6,4.3-1.8,3.6-4.4L169.7,258.5z"/>
		<circle cx="172.1" cy="254.9" r="1.9"/>
	</g>
</g>
<g>
	<path class="st10" d="M333.2,19.2l10.5,21.2c0.6,1.2,1.7,1.9,2.9,2.1l23.4,3.4c3.2,0.5,4.5,4.4,2.2,6.7l-16.9,16.5
		c-0.9,0.9-1.3,2.2-1.1,3.5l4,23.3c0.5,3.2-2.8,5.6-5.7,4.1l-20.9-11c-1.1-0.6-2.5-0.6-3.6,0L307,100c-2.9,1.5-6.2-0.9-5.7-4.1
		l4-23.3c0.2-1.3-0.2-2.6-1.1-3.5l-16.9-16.5c-2.3-2.3-1-6.2,2.2-6.7l23.4-3.4c1.3-0.2,2.4-1,2.9-2.1l10.5-21.2
		C327.7,16.3,331.8,16.3,333.2,19.2z"/>
	<path class="st0" d="M333.2,27.8l7.7,15.6c0.6,1.2,1.7,1.9,2.9,2.1L361,48c3.2,0.5,4.5,4.4,2.2,6.7l-12.4,12.1
		c-0.9,0.9-1.3,2.2-1.1,3.5l2.9,17.1c0.5,3.2-2.8,5.6-5.7,4.1l-15.4-8.1c-1.1-0.6-2.5-0.6-3.6,0l-15.4,8.1c-2.9,1.5-6.2-0.9-5.7-4.1
		l2.9-17.1c0.2-1.3-0.2-2.6-1.1-3.5l-12.4-12.1c-2.3-2.3-1-6.2,2.2-6.7l17.2-2.5c1.3-0.2,2.4-1,2.9-2.1l7.7-15.6
		C327.7,24.9,331.8,24.9,333.2,27.8z"/>
</g>
</svg>
