<?xml version="1.0" encoding="utf-8"?>
<!-- Generator: Adobe Illustrator 23.0.5, SVG Export Plug-In . SVG Version: 6.00 Build 0)  -->
<svg version="1.1" id="Capa_1" xmlns="http://www.w3.org/2000/svg" xmlns:xlink="http://www.w3.org/1999/xlink" x="0px" y="0px"
	 viewBox="0 0 354 232" style="enable-background:new 0 0 354 232;" xml:space="preserve">
<style type="text/css">
	.st0{fill:#FFC352;}
	.st1{fill:#FFDB97;}
	.st2{fill:#F6A421;}
</style>
<path class="st0" d="M307.6,104.2c0,0.7,0,1.4,0,2.1c0,53.9-59,97.6-131.8,97.6c-72.4,0-131.2-43.3-131.8-96.9
	c-6.9,0.7-13.7,1.1-20.3,1.2c-0.2,2.2-0.3,4.4-0.3,6.6c0,62.3,68.2,112.9,152.4,112.9s152.4-50.5,152.4-112.9c0-3.3-0.2-6.6-0.6-9.9
	C321.1,104.9,314.5,104.6,307.6,104.2z"/>
<path class="st1" d="M176.6,203.9c72.8,0,131.8-43.7,131.8-97.6c0-0.7,0-1.4,0-2.1c-5.7-0.4-11.6-1-17.5-1.7
	c-79.8-10.3-112.4-64.9-112.4-64.9C135.3,84,87.8,102.4,44.8,107C45.4,160.6,104.1,203.9,176.6,203.9z"/>
<g>
	<path class="st2" d="M180,3.7L190,24c0.5,1.1,1.6,1.9,2.8,2l22.4,3.3c3.1,0.4,4.3,4.2,2.1,6.4l-16.2,15.8c-0.9,0.9-1.3,2.1-1.1,3.3
		l3.8,22.3c0.5,3.1-2.7,5.4-5.4,3.9l-20.1-10.5c-1.1-0.6-2.4-0.6-3.5,0l-20.1,10.5c-2.7,1.4-5.9-0.9-5.4-3.9l3.8-22.3
		c0.2-1.2-0.2-2.4-1.1-3.3l-16.2-15.8c-2.2-2.2-1-5.9,2.1-6.4l22.4-3.3c1.2-0.2,2.3-0.9,2.8-2l10-20.3C174.6,0.9,178.6,0.9,180,3.7z
		"/>
	<path class="st0" d="M180,11.9l7.4,14.9c0.5,1.1,1.6,1.9,2.8,2l16.5,2.4c3.1,0.4,4.3,4.2,2.1,6.4l-11.9,11.6
		c-0.9,0.9-1.3,2.1-1.1,3.3l2.8,16.4c0.5,3.1-2.7,5.4-5.4,3.9l-14.7-7.7c-1.1-0.6-2.4-0.6-3.5,0l-14.7,7.7c-2.7,1.4-5.9-0.9-5.4-3.9
		l2.8-16.4c0.2-1.2-0.2-2.4-1.1-3.3l-11.9-11.6c-2.2-2.2-1-5.9,2.1-6.4l16.5-2.4c1.2-0.2,2.3-0.9,2.8-2l7.4-14.9
		C174.6,9.1,178.6,9.1,180,11.9z"/>
</g>
</svg>
