<?xml version="1.0" encoding="utf-8"?>
<!-- Generator: Adobe Illustrator 24.1.1, SVG Export Plug-In . SVG Version: 6.00 Build 0)  -->
<svg version="1.1" baseProfile="tiny" id="Capa_1" xmlns="http://www.w3.org/2000/svg" xmlns:xlink="http://www.w3.org/1999/xlink"
	 x="0px" y="0px" viewBox="0 0 354 232" xml:space="preserve">
<path fill="#FFC352" d="M320.39,86.11c0.02,0.75,0.04,1.51,0.04,2.27c0,59-64.56,106.84-144.21,106.84
	c-79.27,0-143.6-47.39-144.19-106.02c-7.54,0.8-14.96,1.21-22.21,1.3c-0.19,2.39-0.29,4.8-0.29,7.22
	c0,68.21,74.63,123.5,166.7,123.5s166.7-55.29,166.7-123.5c0-3.64-0.23-7.24-0.64-10.79C335.17,86.89,327.87,86.63,320.39,86.11z"/>
<path fill="#FFDB97" d="M176.22,195.21c79.64,0,144.21-47.83,144.21-106.84c0-0.76-0.02-1.51-0.04-2.27
	c-6.27-0.44-12.66-1.06-19.17-1.9c-87.28-11.23-123-71-123-71C131,64.04,79.1,84.19,32.03,89.19
	C32.62,147.82,96.95,195.21,176.22,195.21z"/>
</svg>
