<?xml version="1.0" encoding="utf-8"?>
<!-- Generator: Adobe Illustrator 24.1.1, SVG Export Plug-In . SVG Version: 6.00 Build 0)  -->
<svg version="1.1" baseProfile="tiny" id="Capa_1" xmlns="http://www.w3.org/2000/svg" xmlns:xlink="http://www.w3.org/1999/xlink"
	 x="0px" y="0px" viewBox="0 0 648 449" xml:space="preserve">
<g>
	<path fill="#FFC352" d="M584.54,195.55c0,103.74-117.44,187.84-262.32,187.84S59.9,299.29,59.9,195.55
		c0-38.56,16.24-74.4,44.07-104.23c-17.95-3.38-33.67-8.14-46.18-12.7c-28.76,34.83-45.34,75.77-45.34,119.59
		c0,126.75,138.69,229.5,309.78,229.5S632,324.96,632,198.21c0-43.96-16.7-85.03-45.63-119.93c-13.1,3.94-29.39,7.9-48.2,10.62
		C567.4,119.2,584.54,155.94,584.54,195.55z"/>
	<path fill="#FFDB97" d="M322.22,383.39c144.88,0,262.32-84.1,262.32-187.84c0-39.61-17.14-76.35-46.37-106.65
		c-26.07,3.78-56.98,5.18-90.95,0.81c-87.28-11.23-123-71-123-71c-74.16,79.82-159.85,84.01-220.25,72.62
		C76.14,121.15,59.9,156.99,59.9,195.55C59.9,299.29,177.35,383.39,322.22,383.39z"/>
</g>
<g>
	<g>
		<circle fill="#EA911B" cx="43.55" cy="241.81" r="12.08"/>
		<circle fill="#EA911B" cx="42.55" cy="149.81" r="12.08"/>
		<circle fill="#EA911B" cx="602.55" cy="149.81" r="12.08"/>
		<circle fill="#EA911B" cx="99.3" cy="323.57" r="12.08"/>
		<circle fill="#EA911B" cx="184.78" cy="375.6" r="12.08"/>
	</g>
	<g>
		<circle fill="#EA911B" cx="604.75" cy="241.81" r="12.08"/>
		<circle fill="#EA911B" cx="549" cy="323.57" r="12.08"/>
		<circle fill="#EA911B" cx="463.52" cy="375.6" r="12.08"/>
		<circle fill="#EA911B" cx="377.9" cy="399.54" r="12.08"/>
		<circle fill="#EA911B" cx="277.83" cy="399.98" r="12.08"/>
	</g>
</g>
<g>
	<g>
		<path fill="none" d="M387.74,237.07c-0.36-0.04-0.72-0.06-1.09-0.08l-0.75,5.68c-1.05-0.29-2.11-0.49-3.16-0.6
			c-1.05-0.11-2.11-0.16-3.16-0.16c-2.69,0-5.25,0.35-7.68,1.06c-1.88,0.55-3.59,1.32-5.13,2.31c-0.28,0.44-0.55,0.9-0.79,1.38
			c-1.11,2.18-1.66,4.74-1.66,7.68c0,1.89,0.3,3.52,0.9,4.9c0.6,1.38,1.44,2.52,2.53,3.43c1.09,0.91,2.38,1.58,3.87,2.02
			c1.49,0.44,3.12,0.65,4.9,0.65c1.34,0,2.74-0.14,4.19-0.44c1.45-0.29,2.89-0.67,4.3-1.14c1.42-0.47,2.8-1.02,4.14-1.63
			c1.31-0.6,2.51-1.22,3.61-1.86l0.91-43.52l-2.78,20.92C389.85,237.38,388.8,237.18,387.74,237.07z"/>
		<path fill="none" d="M384.42,153.47c-0.49,2.31-1.26,4.42-2.32,6.35c-1.05,1.93-2.41,3.7-4.08,5.34c-0.79,0.77-1.66,1.52-2.6,2.26
			c-0.71,0.95-1.51,1.87-2.4,2.74c-0.18,0.18-0.38,0.35-0.57,0.53l11.32,20.17l0.8-38.2C384.52,152.93,384.48,153.21,384.42,153.47z
			"/>
		<path fill="none" d="M288.32,166.23c0-1.56-0.23-3.08-0.68-4.55c-0.45-1.47-1.12-2.78-1.99-3.92c-0.87-1.14-1.95-2.07-3.24-2.78
			c-1.29-0.71-2.77-1.06-4.44-1.06c-1.71,0-3.23,0.31-4.58,0.93c-0.05,0.02-0.1,0.05-0.15,0.08c-0.19,0.39-0.36,0.79-0.51,1.21
			c-0.51,1.44-0.76,2.95-0.76,4.55c0,1.52,0.22,3.05,0.65,4.58c0.44,1.52,1.09,2.91,1.96,4.14c0.87,1.23,1.95,2.23,3.24,3
			c1.29,0.76,2.79,1.14,4.49,1.14c1.67,0,3.17-0.33,4.51-0.97c0.28-0.55,0.53-1.11,0.73-1.71
			C288.06,169.37,288.32,167.83,288.32,166.23z"/>
		<path fill="none" d="M423.3,164.27v-0.76c0.04-1.96-0.17-3.85-0.63-5.67c-0.45-1.82-1.2-3.42-2.23-4.82
			c-1.04-1.4-2.35-2.52-3.95-3.38c-0.35-0.19-0.72-0.35-1.1-0.5l-1.8,27.88c2.18-0.33,4.16-1.04,5.94-2.15
			c0.19-0.12,0.36-0.24,0.54-0.37c0.85-1.27,1.54-2.64,2.06-4.11C422.84,168.42,423.23,166.38,423.3,164.27z"/>
		<path fill="none" d="M355.13,148.31c-0.42-1.27-1.04-2.37-1.85-3.3c-0.82-0.93-1.84-1.65-3.05-2.18c-1.05-0.45-2.26-0.7-3.61-0.76
			l-0.68,15.78h1.31c1.56,0,3.15-0.2,4.77-0.6c1.1-0.27,2.12-0.65,3.06-1.13c0.45-1.07,0.68-2.28,0.68-3.63
			C355.75,150.98,355.54,149.58,355.13,148.31z"/>
		<path fill="none" d="M240.46,257.27v-0.76c0.04-1.96-0.17-3.85-0.63-5.67c-0.45-1.82-1.2-3.42-2.23-4.82
			c-1.04-1.4-2.35-2.52-3.95-3.38c-0.35-0.19-0.72-0.35-1.1-0.5l-1.8,27.88c2.18-0.33,4.16-1.04,5.94-2.15
			c0.18-0.12,0.36-0.24,0.54-0.37c0.85-1.27,1.54-2.64,2.06-4.11C240,261.42,240.39,259.38,240.46,257.27z"/>
		<polygon fill="#4F1C10" points="187.38,125.27 183.18,125.27 179.09,150.61 180.88,165.48 		"/>
		<polygon fill="#4F1C10" points="231.45,203.16 232.28,198.25 205.51,198.82 198.86,159.71 195.83,176.27 200.51,203.82 		"/>
		<polygon fill="#4F1C10" points="149.19,127.15 143.42,127.67 156.27,202.07 187.21,200.98 188.1,196.13 161.27,197.07 		"/>
		<polygon fill="#4F1C10" points="221.77,125.67 217.28,125.27 214.94,149.92 217.93,166.02 		"/>
		<path fill="#4F1C10" d="M290.65,152.76c-0.87-1.14-1.95-2.07-3.24-2.78c-1.29-0.71-2.77-1.06-4.44-1.06
			c-1.71,0-3.23,0.31-4.58,0.93c-1.34,0.62-2.5,1.46-3.46,2.53c-0.68,0.76-1.24,1.61-1.69,2.55c0.05-0.02,0.1-0.06,0.15-0.08
			c1.34-0.62,2.87-0.93,4.58-0.93c1.67,0,3.15,0.35,4.44,1.06c1.29,0.71,2.37,1.63,3.24,2.78c0.87,1.14,1.53,2.45,1.99,3.92
			c0.45,1.47,0.68,2.99,0.68,4.55c0,1.6-0.25,3.14-0.76,4.63c-0.21,0.6-0.46,1.17-0.73,1.71c0.03-0.01,0.06-0.02,0.1-0.04
			c1.36-0.67,2.51-1.58,3.46-2.72c0.94-1.14,1.67-2.46,2.18-3.95c0.51-1.49,0.76-3.03,0.76-4.63c0-1.56-0.23-3.08-0.68-4.55
			C292.18,155.21,291.52,153.9,290.65,152.76z"/>
		<path fill="#4F1C10" d="M244.46,156.94c-0.76,3.03-1.14,6.13-1.14,9.29c0,3.23,0.41,6.34,1.23,9.31c0.82,2.98,1.96,5.77,3.43,8.36
			c1.47,2.6,3.25,4.96,5.34,7.08c2.09,2.12,4.42,3.94,7,5.45c2.58,1.51,5.35,2.68,8.31,3.51c2.96,0.84,6.07,1.25,9.34,1.25
			c3.38,0,6.57-0.44,9.59-1.33c3.01-0.89,5.8-2.13,8.36-3.73c2.56-1.6,4.87-3.51,6.92-5.75c0.49-0.54,0.96-1.08,1.42-1.65
			c-1.06,0.86-2.17,1.66-3.34,2.39c-2.56,1.6-5.35,2.84-8.36,3.73c-3.01,0.89-6.21,1.33-9.59,1.33c-3.27,0-6.38-0.42-9.34-1.25
			c-2.96-0.83-5.73-2.01-8.31-3.51c-2.58-1.51-4.91-3.32-7-5.45c-2.09-2.12-3.87-4.48-5.34-7.08c-1.47-2.6-2.61-5.38-3.43-8.36
			c-0.82-2.98-1.23-6.08-1.23-9.31c0-3.16,0.38-6.25,1.14-9.29c0.76-3.03,1.86-5.89,3.3-8.58c1.15-2.15,2.5-4.15,4.03-6.03
			c-1.36,1.11-2.64,2.3-3.83,3.62c-2.03,2.25-3.77,4.72-5.2,7.41C246.33,151.05,245.23,153.91,244.46,156.94z"/>
		<path fill="#4F1C10" d="M358.28,140.01c-0.82-0.93-1.84-1.65-3.05-2.18c-1.22-0.53-2.64-0.79-4.28-0.79
			c-0.73,0-1.43,0.05-2.12,0.14c-0.69,0.09-1.36,0.23-2.02,0.41l-0.19,4.48c1.35,0.06,2.56,0.31,3.61,0.76
			c1.21,0.53,2.23,1.25,3.05,2.18c0.82,0.93,1.43,2.02,1.85,3.3c0.42,1.27,0.63,2.67,0.63,4.19c0,1.35-0.23,2.56-0.68,3.63
			c0.45-0.22,0.88-0.46,1.29-0.73c1.29-0.83,2.34-1.91,3.16-3.21c0.82-1.31,1.23-2.87,1.23-4.68c0-1.53-0.21-2.92-0.63-4.19
			C359.71,142.04,359.09,140.94,358.28,140.01z"/>
		<polygon fill="#4F1C10" points="352.04,174.52 345.28,174.74 345.07,179.59 347.04,179.52 355.43,202.73 379.94,197.93 
			377.9,194.31 360.43,197.73 		"/>
		<path fill="#4F1C10" d="M316.62,168.17c-0.07,3.16-0.16,6.35-0.22,9.5c-0.16,8.21-0.34,16.45-0.52,24.73h23.42l0.22-5h-18.64
			c0.18-8.28,0.35-16.52,0.52-24.73c0.16-8.21,0.35-16.45,0.57-24.73c0.07-4.18,0.15-8.32,0.22-12.42c0.05-2.99,0.16-6,0.29-9.03
			c-1.6,0.47-3.22,1-4.85,1.61c-0.22,4.18-0.36,8.32-0.44,12.42c-0.07,4.09-0.15,8.22-0.22,12.38c0.35,2.2,0.53,4.51,0.53,6.92
			C317.5,162.69,317.19,165.48,316.62,168.17z"/>
		<path fill="#4F1C10" d="M375.42,167.41c-1.06,0.83-2.2,1.64-3.45,2.42l0.47,0.84c0.19-0.18,0.39-0.35,0.57-0.53
			C373.91,169.28,374.71,168.37,375.42,167.41z"/>
		<path fill="#4F1C10" d="M425.44,148.02c-1.04-1.4-2.35-2.52-3.95-3.38c-1.6-0.85-3.5-1.32-5.72-1.39l-0.38,5.89
			c0.38,0.15,0.75,0.31,1.1,0.5c1.6,0.85,2.91,1.98,3.95,3.38c1.04,1.4,1.78,3.01,2.23,4.82c0.45,1.82,0.66,3.7,0.63,5.67v0.76
			c-0.07,2.11-0.46,4.15-1.17,6.13c-0.53,1.47-1.22,2.84-2.06,4.11c1.55-1.04,2.91-2.27,4.07-3.72c1.29-1.62,2.29-3.41,3-5.39
			c0.71-1.98,1.1-4.02,1.17-6.13v-0.76c0.04-1.96-0.17-3.85-0.63-5.67C427.22,151.03,426.47,149.42,425.44,148.02z"/>
		<path fill="#4F1C10" d="M384.57,152.66l-0.8,38.2l1.17,2.08l-1.22,0.24l-0.19,9.12c1.71,0.18,3.38,0.32,5.01,0.41
			c1.63,0.09,3.3,0.14,5.01,0.14c4.58,0,9.03-0.35,13.37-1.06c4.34-0.71,8.43-1.8,12.28-3.27c3.85-1.47,7.39-3.35,10.62-5.64
			c2.67-1.89,5.02-4.1,7.09-6.6c-0.68,0.55-1.37,1.09-2.09,1.6c-3.23,2.29-6.77,4.17-10.62,5.64c-3.85,1.47-7.94,2.56-12.28,3.27
			c-4.34,0.71-8.8,1.06-13.37,1.06c-1.71,0-3.38-0.05-5.01-0.14c-1.63-0.09-3.3-0.23-5.01-0.41l1.45-69.45
			c-1.66,0.39-3.3,0.83-4.92,1.35l-0.25,11.94c0.23,1.47,0.35,3.01,0.35,4.63C385.16,148.27,384.95,150.56,384.57,152.66z"/>
		<path fill="#4F1C10" d="M476.56,199.04c-1.78,0-3.73-0.24-5.86-0.71c-2.12-0.47-4.28-1.06-6.46-1.77s-4.28-1.47-6.29-2.29
			c-2.01-0.82-3.8-1.59-5.37-2.31l1.63-15.29c-1.47-0.64-2.89-1.34-4.24-2.15l-2.4,22.44c1.56,0.73,3.35,1.5,5.37,2.31
			c2.02,0.82,4.11,1.58,6.29,2.29s4.33,1.3,6.46,1.77c2.12,0.47,4.08,0.71,5.86,0.71c4.61,0,8.92-0.62,12.94-1.85
			c4.01-1.23,7.52-3.09,10.51-5.56c1.54-1.27,2.91-2.71,4.11-4.3c-2.79,2.12-6,3.75-9.62,4.86
			C485.49,198.42,481.17,199.04,476.56,199.04z"/>
		<path fill="#4F1C10" d="M450.26,161.28c0.86,1.64,1.9,3.12,3.13,4.43c1.83,1.94,4.03,3.46,6.59,4.55c2.56,1.09,5.4,1.63,8.53,1.63
			c0.44,0,1.02,0,1.74,0c0.73,0,1.51,0.04,2.34,0.11c0.83,0.07,1.69,0.19,2.56,0.35c0.87,0.16,1.65,0.4,2.34,0.71
			c0.69,0.31,1.25,0.71,1.69,1.2c0.2,0.22,0.35,0.47,0.46,0.74c0.69-0.08,1.37-0.2,2.01-0.4c0.89-0.27,1.64-0.68,2.26-1.23
			c0.62-0.54,0.93-1.33,0.93-2.34c0-0.69-0.22-1.28-0.65-1.77c-0.44-0.49-1-0.89-1.69-1.2c-0.69-0.31-1.47-0.54-2.34-0.71
			c-0.87-0.16-1.73-0.28-2.56-0.35c-0.84-0.07-1.62-0.11-2.34-0.11c-0.73,0-1.31,0-1.74,0c-3.12,0-5.96-0.54-8.53-1.63
			c-2.56-1.09-4.76-2.61-6.59-4.55c-1.83-1.94-3.26-4.25-4.28-6.92c-1.02-2.67-1.53-5.56-1.53-8.69c0-4.28,0.86-8.13,2.59-11.52
			c0.77-1.52,1.67-2.91,2.68-4.23c-0.25,0.19-0.51,0.37-0.76,0.57c-2.89,2.38-5.19,5.27-6.92,8.66c-0.62,1.21-1.12,2.48-1.51,3.81
			c1.31,3.79,1.96,8,1.96,12.63C450.63,157.2,450.5,159.29,450.26,161.28z"/>
		<path fill="#4F1C10" d="M487.57,140.75c-0.47,0-1.08,0.01-1.83,0.03c-0.74,0.02-1.53,0.07-2.34,0.16
			c-0.82,0.09-1.64,0.23-2.48,0.41c-0.84,0.18-1.58,0.43-2.23,0.74c-0.65,0.31-1.18,0.72-1.58,1.23c-0.4,0.51-0.58,1.11-0.54,1.8
			c0.02,0.4,0.1,0.75,0.25,1.07c0.53-0.1,1.06-0.18,1.59-0.24c0.82-0.09,1.6-0.14,2.34-0.16c0.74-0.02,1.35-0.03,1.83-0.03
			c2.58,0,5.22,0.28,7.93,0.84c2.71,0.56,5.29,1.26,7.76,2.1l0.59-6.3c-1.1-0.29-2.21-0.56-3.35-0.8
			C492.79,141.03,490.14,140.75,487.57,140.75z"/>
		<path fill="#4F1C10" d="M241.38,286.51c-3.85,1.47-7.94,2.56-12.28,3.27c-4.34,0.71-8.8,1.06-13.37,1.06
			c-1.71,0-3.38-0.04-5.01-0.14s-3.3-0.23-5.01-0.41l1.45-69.45c-1.66,0.39-3.3,0.83-4.92,1.35l-1.52,73.1
			c1.71,0.18,3.38,0.32,5.01,0.41s3.3,0.14,5.01,0.14c4.58,0,9.03-0.35,13.37-1.06c4.34-0.71,8.43-1.8,12.28-3.27
			c3.85-1.47,7.39-3.35,10.62-5.64c2.67-1.89,5.02-4.1,7.08-6.6c-0.68,0.55-1.36,1.09-2.08,1.6
			C248.77,283.16,245.22,285.04,241.38,286.51z"/>
		<path fill="#4F1C10" d="M242.6,241.02c-1.04-1.4-2.35-2.52-3.95-3.38c-1.6-0.85-3.5-1.32-5.72-1.39l-0.38,5.89
			c0.38,0.15,0.75,0.31,1.1,0.5c1.6,0.85,2.91,1.98,3.95,3.38c1.03,1.4,1.78,3.01,2.23,4.82c0.45,1.82,0.66,3.7,0.63,5.67v0.76
			c-0.07,2.11-0.46,4.15-1.17,6.13c-0.53,1.47-1.22,2.84-2.06,4.11c1.55-1.04,2.91-2.27,4.07-3.72c1.29-1.62,2.29-3.41,3-5.39
			c0.71-1.98,1.1-4.02,1.17-6.13v-0.76c0.04-1.96-0.17-3.85-0.63-5.67C244.38,244.03,243.64,242.42,242.6,241.02z"/>
		<path fill="#4F1C10" d="M303.96,271.47c0.83-1,1.57-2.33,2.21-4c0.63-1.67,1.19-3.59,1.66-5.77c0.47-2.18,0.87-4.45,1.2-6.81
			c0.33-2.36,0.59-4.72,0.79-7.08c0.2-2.36,0.36-4.56,0.49-6.59c0.13-2.03,0.21-3.83,0.25-5.39c0.04-1.56,0.05-2.72,0.05-3.49
			c0-2.83-0.05-5.66-0.14-8.47c-0.04-1.14-0.09-2.28-0.14-3.42h-5.27c0.18,2.8,0.32,5.6,0.41,8.42c0.09,2.82,0.14,5.64,0.14,8.47
			c0,0.76-0.02,1.93-0.05,3.49c-0.04,1.56-0.12,3.36-0.25,5.39c-0.13,2.03-0.29,4.23-0.49,6.59c-0.2,2.36-0.46,4.72-0.79,7.08
			c-0.33,2.36-0.73,4.63-1.2,6.81c-0.47,2.18-1.03,4.1-1.66,5.77c-0.06,0.17-0.13,0.32-0.2,0.48c0.06,0,0.11,0.02,0.16,0.02
			C302.19,272.97,303.13,272.47,303.96,271.47z"/>
		<path fill="#4F1C10" d="M299.93,293.78c-4.21,0-7.87-0.68-10.98-2.04c-3.1-1.36-5.77-3.19-7.98-5.5
			c-2.22-2.31-4.03-4.99-5.45-8.06c-1.42-3.07-2.52-6.32-3.32-9.75c-0.8-3.43-1.35-6.94-1.66-10.51c-0.31-3.58-0.46-7.02-0.46-10.32
			c0-5.08,0.25-10.16,0.76-15.23c0.34-3.34,0.77-6.68,1.3-10.01l-4.12-0.16c-0.86,4.57-1.52,9.15-2.02,13.74
			c1.19,3.65,1.79,7.68,1.79,12.09c0,5.08-0.65,9.67-1.96,13.75c-0.09,0.29-0.21,0.57-0.31,0.86c0.01,0.09,0.01,0.18,0.02,0.28
			c0.31,3.58,0.86,7.08,1.66,10.51c0.8,3.43,1.91,6.68,3.32,9.75c1.42,3.07,3.23,5.76,5.45,8.06c2.21,2.31,4.88,4.14,7.98,5.5
			c3.1,1.36,6.76,2.04,10.98,2.04c3.6,0,6.86-0.61,9.81-1.82c2.94-1.22,5.6-2.89,7.98-5.01c1.36-1.22,2.62-2.57,3.81-4.02
			c-2.07,1.66-4.32,3.01-6.79,4.03C306.8,293.17,303.53,293.78,299.93,293.78z"/>
		<path fill="#4F1C10" d="M379.58,241.91c1.05,0,2.11,0.05,3.16,0.16c1.05,0.11,2.11,0.31,3.16,0.6l0.75-5.68
			c-0.69-0.05-1.38-0.08-2.07-0.08c-2.69,0-5.25,0.35-7.68,1.06c-2.43,0.71-4.58,1.79-6.46,3.24c-1.46,1.13-2.68,2.5-3.67,4.07
			c1.54-0.99,3.25-1.77,5.13-2.31C374.34,242.26,376.9,241.91,379.58,241.91z"/>
		<path fill="#4F1C10" d="M375.76,290.18c-1.74,0.22-3.41,0.33-5.01,0.33c-4.61,0-8.92-0.85-12.91-2.56c-4-1.71-7.46-4.05-10.4-7.03
			c-2.94-2.98-5.26-6.49-6.95-10.54c-1.69-4.05-2.53-8.42-2.53-13.1c0-6.21,0.89-12.07,2.67-17.57c1.75-5.4,4.3-10.13,7.65-14.22
			c-1.75,1.43-3.35,3.01-4.81,4.76c-3.45,4.14-6.06,8.96-7.84,14.46c-0.21,0.65-0.41,1.31-0.6,1.98c-0.14,0.96-0.29,1.93-0.45,2.91
			c-0.37,2.18-0.81,4.38-1.32,6.6c-0.2,1.99-0.3,4.01-0.3,6.08c0,4.68,0.84,9.05,2.53,13.1c1.69,4.05,4,7.56,6.95,10.54
			c2.94,2.98,6.41,5.32,10.4,7.03c3.99,1.71,8.3,2.56,12.91,2.56c1.6,0,3.27-0.11,5.01-0.33s3.49-0.54,5.23-0.95
			c1.74-0.42,3.44-0.91,5.09-1.47c1.65-0.56,3.19-1.21,4.6-1.93l0.26-3.02c-1.61,0.54-3.26,1.02-4.95,1.43
			C379.25,289.65,377.5,289.97,375.76,290.18z"/>
		<path fill="#4F1C10" d="M398.58,216.36l-4.82-0.27l-0.09,0.66l-0.91,43.52c0.03-0.02,0.06-0.03,0.09-0.05l-0.12,1.45l-0.79,37.87
			l22.66-0.87l0.17-4.81l-17.83,0.69L398.58,216.36z"/>
		<polygon fill="#4F1C10" points="420.48,269.05 420.07,280.57 432.04,297.58 457.32,293.11 455.17,289.38 437.04,292.58 		"/>
		<polygon fill="#4F1C10" points="435.67,216.22 434,216.09 422.36,234.04 422.12,237.13 		"/>
		<path fill="#4F1C10" d="M497.78,233.75c-0.47,0-1.08,0.01-1.83,0.03c-0.74,0.02-1.53,0.07-2.34,0.16
			c-0.82,0.09-1.64,0.23-2.48,0.41c-0.84,0.18-1.58,0.43-2.23,0.74c-0.65,0.31-1.18,0.72-1.58,1.23c-0.4,0.51-0.58,1.11-0.54,1.8
			c0.02,0.39,0.1,0.75,0.25,1.07c0.53-0.1,1.06-0.18,1.59-0.24c0.82-0.09,1.6-0.14,2.34-0.16c0.74-0.02,1.35-0.03,1.83-0.03
			c2.58,0,5.22,0.28,7.93,0.84c2.71,0.56,5.29,1.26,7.76,2.1l0.59-6.3c-1.1-0.29-2.21-0.56-3.35-0.8
			C503,234.03,500.36,233.75,497.78,233.75z"/>
		<path fill="#4F1C10" d="M494.13,266.38c0.62-0.54,0.93-1.33,0.93-2.34c0-0.69-0.22-1.28-0.65-1.77c-0.44-0.49-1-0.89-1.69-1.2
			c-0.69-0.31-1.47-0.54-2.34-0.71c-0.87-0.16-1.73-0.28-2.56-0.35c-0.84-0.07-1.62-0.11-2.34-0.11c-0.73,0-1.31,0-1.74,0
			c-3.12,0-5.96-0.54-8.53-1.63c-2.56-1.09-4.76-2.61-6.59-4.55c-1.83-1.94-3.26-4.25-4.28-6.92c-1.02-2.67-1.53-5.56-1.53-8.69
			c0-4.29,0.86-8.13,2.59-11.52c0.77-1.52,1.67-2.91,2.68-4.23c-0.25,0.19-0.51,0.37-0.76,0.57c-2.89,2.38-5.19,5.27-6.92,8.66
			c-1.73,3.4-2.59,7.24-2.59,11.52c0,3.12,0.51,6.02,1.53,8.69c1.02,2.67,2.44,4.98,4.28,6.92c1.83,1.94,4.03,3.46,6.59,4.55
			c2.56,1.09,5.4,1.63,8.53,1.63c0.44,0,1.02,0,1.74,0c0.73,0,1.51,0.04,2.34,0.11c0.83,0.07,1.69,0.19,2.56,0.35
			c0.87,0.16,1.65,0.4,2.34,0.71c0.69,0.31,1.25,0.71,1.69,1.2c0.2,0.22,0.35,0.47,0.46,0.74c0.69-0.08,1.37-0.2,2.01-0.4
			C492.76,267.33,493.51,266.92,494.13,266.38z"/>
		<path fill="#4F1C10" d="M486.78,292.04c-1.78,0-3.73-0.24-5.86-0.71s-4.28-1.06-6.46-1.77s-4.28-1.47-6.29-2.29
			c-2.01-0.82-3.8-1.59-5.37-2.31l1.63-15.29c-1.47-0.64-2.89-1.34-4.24-2.15l-1.52,14.26l3.64,6.34l-4.4,0.78l-0.11,1.06
			c1.56,0.73,3.35,1.5,5.37,2.31c2.02,0.82,4.11,1.58,6.29,2.29s4.33,1.3,6.46,1.77s4.08,0.71,5.86,0.71
			c4.61,0,8.92-0.62,12.94-1.85c4.01-1.23,7.52-3.09,10.51-5.56c1.54-1.27,2.91-2.71,4.11-4.31c-2.79,2.12-6,3.75-9.62,4.86
			C495.7,291.42,491.39,292.04,486.78,292.04z"/>
		<polygon fill="#71351B" points="205.51,198.82 232.28,198.25 236.45,198.16 249.19,122.67 222.28,120.27 221.77,125.67 
			217.93,166.02 214.94,149.92 209.43,120.27 188.18,120.27 187.38,125.27 180.88,165.48 179.09,150.61 175.44,120.27 
			148.42,122.67 149.19,127.15 161.27,197.07 188.1,196.13 192.21,195.98 195.83,176.27 198.86,159.71 		"/>
		<path fill="#71351B" d="M249.46,151.94c-0.76,3.03-1.14,6.13-1.14,9.29c0,3.23,0.41,6.34,1.23,9.31c0.82,2.98,1.96,5.77,3.43,8.36
			c1.47,2.6,3.25,4.96,5.34,7.08c2.09,2.12,4.42,3.94,7,5.45c2.58,1.51,5.35,2.68,8.31,3.51c2.96,0.84,6.07,1.25,9.34,1.25
			c3.38,0,6.57-0.44,9.59-1.33c3.01-0.89,5.8-2.13,8.36-3.73c1.17-0.73,2.28-1.53,3.34-2.39c1.27-1.03,2.46-2.14,3.58-3.35
			c2.05-2.23,3.79-4.69,5.23-7.38c1.43-2.69,2.53-5.56,3.3-8.63c0.1-0.4,0.17-0.8,0.26-1.2c0.58-2.7,0.89-5.48,0.89-8.36
			c0-2.41-0.18-4.71-0.53-6.92c-0.42-2.64-1.08-5.15-2-7.49c-1.69-4.3-4.07-7.97-7.14-11c-3.07-3.03-6.77-5.37-11.11-7
			c-4.34-1.63-9.14-2.45-14.41-2.45c-3.27,0-6.37,0.45-9.31,1.36c-2.94,0.91-5.67,2.18-8.2,3.81c-2.52,1.63-4.8,3.58-6.84,5.83
			c-0.41,0.45-0.79,0.91-1.17,1.38c-1.53,1.87-2.88,3.88-4.03,6.03C251.33,146.05,250.23,148.91,249.46,151.94z M292.55,165.86
			c-0.51,1.49-1.23,2.81-2.18,3.95c-0.94,1.14-2.1,2.05-3.46,2.72c-0.03,0.02-0.06,0.02-0.1,0.04c-1.34,0.64-2.84,0.97-4.51,0.97
			c-1.71,0-3.21-0.38-4.49-1.14c-1.29-0.76-2.37-1.76-3.24-3c-0.87-1.23-1.52-2.61-1.96-4.14c-0.44-1.53-0.65-3.05-0.65-4.58
			c0-1.6,0.25-3.11,0.76-4.55c0.15-0.42,0.32-0.82,0.51-1.21c0.45-0.94,1.01-1.79,1.69-2.55c0.96-1.07,2.11-1.92,3.46-2.53
			c1.34-0.62,2.87-0.93,4.58-0.93c1.67,0,3.15,0.35,4.44,1.06c1.29,0.71,2.37,1.63,3.24,2.78c0.87,1.14,1.53,2.45,1.99,3.92
			c0.45,1.47,0.68,2.99,0.68,4.55C293.32,162.83,293.06,164.37,292.55,165.86z"/>
		<path fill="#71351B" d="M321.97,147.94c-0.22,8.28-0.41,16.52-0.57,24.73c-0.16,8.21-0.34,16.45-0.52,24.73h18.64h4.78l0.77-17.82
			l0.21-4.85l6.75-0.22l8.39,23.21l17.48-3.42l5.82-1.14l1.22-0.24l-1.17-2.08l-11.32-20.17l-0.47-0.84
			c1.25-0.79,2.39-1.6,3.45-2.42c0.94-0.74,1.81-1.49,2.6-2.26c1.67-1.63,3.03-3.41,4.08-5.34c1.05-1.92,1.83-4.04,2.32-6.35
			c0.06-0.26,0.1-0.54,0.15-0.81c0.38-2.1,0.59-4.39,0.59-6.89c0-1.62-0.12-3.16-0.35-4.63c-0.41-2.67-1.19-5.1-2.35-7.3
			c-1.8-3.41-4.19-6.26-7.16-8.55c-2.98-2.29-6.4-4-10.27-5.15s-7.87-1.72-12.01-1.72c-2.69,0-5.31,0.06-7.87,0.19
			c-2.56,0.13-5.08,0.36-7.57,0.71c-2.49,0.35-4.96,0.83-7.43,1.44c-2.47,0.62-4.98,1.4-7.52,2.34c-0.06,1.14-0.1,2.26-0.15,3.39
			c-0.13,3.03-0.23,6.04-0.29,9.03C322.11,139.62,322.04,143.76,321.97,147.94z M359.53,152.19c-0.82,1.31-1.87,2.38-3.16,3.21
			c-0.41,0.27-0.85,0.5-1.29,0.73c-0.95,0.47-1.97,0.85-3.06,1.13c-1.62,0.4-3.21,0.6-4.77,0.6h-1.31l0.68-15.78l0.19-4.48
			c0.65-0.18,1.32-0.32,2.02-0.41c0.69-0.09,1.4-0.14,2.12-0.14c1.63,0,3.06,0.26,4.28,0.79c1.21,0.53,2.23,1.25,3.05,2.18
			c0.82,0.93,1.43,2.02,1.85,3.3c0.42,1.27,0.63,2.67,0.63,4.19C360.75,149.32,360.34,150.88,359.53,152.19z"/>
		<path fill="#71351B" d="M393.54,197.7c1.63,0.09,3.3,0.14,5.01,0.14c4.58,0,9.03-0.35,13.37-1.06c4.34-0.71,8.43-1.8,12.28-3.27
			c3.85-1.47,7.39-3.35,10.62-5.64c0.72-0.51,1.41-1.05,2.09-1.6c2.36-1.93,4.46-4.12,6.28-6.59c2.34-3.18,4.17-6.81,5.47-10.89
			c0.75-2.33,1.27-4.83,1.59-7.49c0.24-2,0.37-4.08,0.37-6.26c0-4.63-0.66-8.83-1.96-12.63c-0.21-0.61-0.43-1.22-0.68-1.81
			c-1.76-4.25-4.22-7.84-7.38-10.79s-6.92-5.19-11.28-6.75c-4.36-1.56-9.13-2.34-14.33-2.34c-4.18,0-8.38,0.26-12.61,0.79
			c-4.23,0.53-8.34,1.43-12.34,2.7l-0.08,3.65l-1.45,69.45C390.24,197.47,391.91,197.61,393.54,197.7z M428.3,159.27
			c-0.07,2.11-0.46,4.15-1.17,6.13c-0.71,1.98-1.71,3.78-3,5.39c-1.16,1.45-2.52,2.68-4.07,3.72c-0.18,0.12-0.35,0.25-0.54,0.37
			c-1.78,1.11-3.76,1.82-5.94,2.15l1.8-27.88l0.38-5.89c2.21,0.07,4.12,0.54,5.72,1.39c1.6,0.85,2.91,1.98,3.95,3.38
			c1.04,1.4,1.78,3.01,2.23,4.82c0.45,1.82,0.66,3.7,0.63,5.67V159.27z"/>
		<path fill="#71351B" d="M452.59,145.11c0,3.12,0.51,6.02,1.53,8.69c1.02,2.67,2.44,4.98,4.28,6.92c1.83,1.94,4.03,3.46,6.59,4.55
			c2.56,1.09,5.4,1.63,8.53,1.63c0.44,0,1.02,0,1.74,0c0.73,0,1.51,0.04,2.34,0.11c0.83,0.07,1.69,0.19,2.56,0.35
			c0.87,0.16,1.65,0.4,2.34,0.71c0.69,0.31,1.25,0.71,1.69,1.2c0.44,0.49,0.65,1.08,0.65,1.77c0,1.02-0.31,1.8-0.93,2.34
			c-0.62,0.54-1.37,0.95-2.26,1.23c-0.64,0.2-1.32,0.32-2.01,0.4c-0.26,0.03-0.52,0.08-0.79,0.09c-0.98,0.05-1.82,0.08-2.51,0.08
			c-3.63,0-7.33-0.48-11.08-1.44c-3.76-0.96-7.18-2.37-10.27-4.22l-0.76,7.15l-1.63,15.29c1.56,0.73,3.35,1.5,5.37,2.31
			c2.02,0.82,4.11,1.58,6.29,2.29s4.33,1.3,6.46,1.77c2.12,0.47,4.08,0.71,5.86,0.71c4.61,0,8.92-0.62,12.94-1.85
			c3.62-1.11,6.83-2.74,9.62-4.86c0.3-0.23,0.6-0.46,0.89-0.7c3-2.47,5.36-5.56,7.08-9.29c1.72-3.72,2.59-8.07,2.59-13.05
			c0-2.9-0.43-5.56-1.28-7.98c-0.85-2.41-2.09-4.49-3.7-6.24c-1.62-1.74-3.59-3.14-5.91-4.19c-2.33-1.05-4.94-1.67-7.84-1.85
			c-0.58-0.07-1.33-0.1-2.23-0.08c-0.91,0.02-1.89,0.02-2.94,0c-1.05-0.02-2.12-0.08-3.19-0.19c-1.07-0.11-2.05-0.3-2.94-0.57
			c-0.89-0.27-1.62-0.65-2.18-1.14c-0.28-0.25-0.5-0.54-0.65-0.86c-0.15-0.32-0.23-0.68-0.25-1.07c-0.04-0.69,0.14-1.29,0.54-1.8
			c0.4-0.51,0.93-0.92,1.58-1.23c0.65-0.31,1.4-0.55,2.23-0.74c0.83-0.18,1.66-0.32,2.48-0.41c0.82-0.09,1.6-0.14,2.34-0.16
			c0.74-0.02,1.35-0.03,1.83-0.03c2.58,0,5.22,0.28,7.93,0.84c1.14,0.24,2.25,0.51,3.35,0.8c1.51,0.39,2.98,0.82,4.41,1.3
			l2.07-22.12c-1.6-0.76-3.29-1.4-5.07-1.91c-1.78-0.51-3.6-0.93-5.47-1.25c-1.87-0.33-3.75-0.55-5.64-0.68
			c-1.89-0.13-3.72-0.19-5.5-0.19c-4,0-7.86,0.64-11.6,1.91c-3.74,1.27-7.05,3.1-9.94,5.47c-1.6,1.32-3,2.8-4.24,4.43
			c-1,1.31-1.91,2.71-2.68,4.23C453.46,136.98,452.59,140.82,452.59,145.11z"/>
		<path fill="#71351B" d="M267.79,248.02c0-4.41-0.6-8.44-1.79-12.09c-0.26-0.8-0.54-1.58-0.85-2.34
			c-1.76-4.25-4.22-7.84-7.38-10.79c-3.16-2.94-6.92-5.19-11.28-6.75c-4.36-1.56-9.13-2.34-14.33-2.34c-4.18,0-8.38,0.26-12.61,0.79
			c-4.23,0.53-8.34,1.43-12.34,2.7l-0.08,3.65l-1.45,69.45c1.71,0.18,3.38,0.32,5.01,0.41s3.3,0.14,5.01,0.14
			c4.58,0,9.03-0.35,13.37-1.06c4.34-0.71,8.43-1.8,12.28-3.27c3.85-1.47,7.39-3.35,10.62-5.64c0.72-0.51,1.41-1.05,2.08-1.6
			c2.36-1.93,4.46-4.13,6.28-6.6c2.17-2.95,3.88-6.31,5.17-10.04c0.1-0.29,0.22-0.56,0.31-0.86
			C267.14,257.69,267.79,253.11,267.79,248.02z M245.46,252.27c-0.07,2.11-0.46,4.15-1.17,6.13c-0.71,1.98-1.71,3.78-3,5.39
			c-1.16,1.45-2.52,2.68-4.07,3.72c-0.18,0.12-0.35,0.25-0.54,0.37c-1.78,1.11-3.76,1.82-5.94,2.15l1.8-27.88l0.38-5.89
			c2.21,0.07,4.12,0.54,5.72,1.39c1.6,0.85,2.91,1.98,3.95,3.38c1.03,1.4,1.78,3.01,2.23,4.82c0.45,1.82,0.66,3.7,0.63,5.67V252.27z
			"/>
		<path fill="#71351B" d="M335.03,246.69c0.35-2.43,0.62-4.8,0.8-7.11c0.25-3.23,0.38-6.19,0.38-8.88c0-5.16-0.22-10.24-0.65-15.25
			h-25.49c0.11,1.66,0.19,3.33,0.27,5c0.05,1.14,0.1,2.28,0.14,3.42c0.09,2.81,0.14,5.64,0.14,8.47c0,0.76-0.02,1.93-0.05,3.49
			c-0.04,1.56-0.12,3.36-0.25,5.39c-0.13,2.03-0.29,4.23-0.49,6.59c-0.2,2.36-0.46,4.72-0.79,7.08c-0.33,2.36-0.73,4.63-1.2,6.81
			c-0.47,2.18-1.03,4.1-1.66,5.77c-0.64,1.67-1.37,3.01-2.21,4c-0.84,1-1.78,1.5-2.83,1.5c-0.06,0-0.11-0.02-0.16-0.02
			c-0.84-0.05-1.58-0.45-2.21-1.23c-0.67-0.83-1.24-1.91-1.72-3.21c-0.47-1.31-0.84-2.75-1.12-4.33c-0.27-1.58-0.48-3.12-0.63-4.63
			c-0.15-1.51-0.25-2.87-0.3-4.08c-0.05-1.22-0.08-2.13-0.08-2.75c0-5.81,0.35-11.59,1.06-17.35c0.71-5.75,1.55-11.48,2.53-17.19
			l-25.49-0.98c-0.32,1.72-0.61,3.44-0.88,5.16c-0.53,3.33-0.96,6.67-1.3,10.01c-0.51,5.07-0.76,10.14-0.76,15.23
			c0,3.3,0.15,6.75,0.46,10.32c0.31,3.58,0.86,7.08,1.66,10.51c0.8,3.43,1.91,6.68,3.32,9.75c1.42,3.07,3.23,5.76,5.45,8.06
			c2.21,2.31,4.88,4.14,7.98,5.5c3.1,1.36,6.76,2.04,10.98,2.04c3.6,0,6.86-0.61,9.81-1.82c2.46-1.02,4.72-2.38,6.79-4.03
			c0.4-0.32,0.81-0.63,1.19-0.98c2.38-2.13,4.48-4.61,6.32-7.46c1.83-2.85,3.44-5.91,4.82-9.18c1.38-3.27,2.53-6.67,3.46-10.21
			c0.34-1.3,0.65-2.6,0.94-3.88c0.51-2.22,0.95-4.42,1.32-6.6C334.74,248.62,334.89,247.65,335.03,246.69z"/>
		<path fill="#71351B" d="M392.77,260.27c-1.1,0.64-2.3,1.25-3.61,1.86c-1.34,0.62-2.72,1.16-4.14,1.63
			c-1.42,0.47-2.85,0.85-4.3,1.14c-1.45,0.29-2.85,0.44-4.19,0.44c-1.78,0-3.41-0.22-4.9-0.65c-1.49-0.44-2.78-1.11-3.87-2.02
			c-1.09-0.91-1.93-2.05-2.53-3.43c-0.6-1.38-0.9-3.01-0.9-4.9c0-2.94,0.55-5.5,1.66-7.68c0.24-0.48,0.51-0.93,0.79-1.38
			c0.99-1.58,2.21-2.94,3.67-4.07c1.87-1.45,4.02-2.53,6.46-3.24c2.43-0.71,4.99-1.06,7.68-1.06c0.69,0,1.38,0.03,2.07,0.08
			c0.36,0.02,0.72,0.05,1.09,0.08c1.05,0.11,2.11,0.31,3.16,0.6l2.78-20.92l0.09-0.66l0.19-1.41c-2.25-1.09-4.69-1.83-7.33-2.23
			c-2.63-0.4-5.2-0.6-7.71-0.6c-6.65,0-12.52,1.2-17.62,3.6c-5.1,2.4-9.38,5.67-12.83,9.81c-0.07,0.08-0.13,0.16-0.19,0.24
			c-3.35,4.09-5.91,8.82-7.65,14.22c-1.78,5.5-2.67,11.36-2.67,17.57c0,4.68,0.84,9.05,2.53,13.1c1.69,4.05,4,7.56,6.95,10.54
			c2.94,2.98,6.41,5.32,10.4,7.03c3.99,1.71,8.3,2.56,12.91,2.56c1.6,0,3.27-0.11,5.01-0.33s3.49-0.54,5.23-0.95
			c1.69-0.41,3.34-0.88,4.95-1.43c0.05-0.02,0.09-0.03,0.14-0.04c1.65-0.56,3.19-1.21,4.6-1.93l2.06-24.16l0.12-1.45
			C392.83,260.24,392.8,260.26,392.77,260.27z"/>
		<polygon fill="#71351B" points="458.68,281.77 440.2,249.55 466.46,213.27 439,211.09 435.67,216.22 422.12,237.13 422.36,234.04 
			424.08,212.51 398.69,211.09 398.58,216.36 396.95,294.54 414.78,293.86 419.61,293.67 420.07,280.57 420.48,269.05 
			437.04,292.58 455.17,289.38 457.92,288.89 462.32,288.11 		"/>
		<path fill="#71351B" d="M518.62,254.31c-0.85-2.41-2.09-4.49-3.7-6.24c-1.62-1.74-3.59-3.14-5.91-4.19
			c-2.33-1.05-4.94-1.67-7.84-1.85c-0.58-0.07-1.33-0.1-2.23-0.08c-0.91,0.02-1.89,0.02-2.94,0c-1.05-0.02-2.12-0.08-3.19-0.19
			c-1.07-0.11-2.05-0.3-2.94-0.57c-0.89-0.27-1.62-0.65-2.18-1.14c-0.28-0.25-0.5-0.54-0.65-0.86c-0.15-0.32-0.23-0.68-0.25-1.07
			c-0.04-0.69,0.14-1.29,0.54-1.8c0.4-0.51,0.93-0.92,1.58-1.23c0.65-0.31,1.4-0.55,2.23-0.74c0.83-0.18,1.66-0.32,2.48-0.41
			c0.82-0.09,1.6-0.14,2.34-0.16c0.74-0.02,1.35-0.03,1.83-0.03c2.58,0,5.22,0.28,7.93,0.84c1.14,0.24,2.25,0.51,3.35,0.8
			c1.51,0.39,2.98,0.82,4.41,1.3l2.07-22.12c-1.6-0.76-3.29-1.4-5.07-1.91c-1.78-0.51-3.6-0.93-5.47-1.25
			c-1.87-0.33-3.75-0.55-5.64-0.68c-1.89-0.13-3.72-0.19-5.5-0.19c-4,0-7.86,0.64-11.6,1.91c-3.74,1.27-7.05,3.1-9.94,5.47
			c-1.6,1.32-3,2.8-4.24,4.43c-1,1.31-1.91,2.71-2.68,4.23c-1.73,3.4-2.59,7.24-2.59,11.52c0,3.12,0.51,6.02,1.53,8.69
			c1.02,2.67,2.44,4.98,4.28,6.92c1.83,1.94,4.03,3.46,6.59,4.55c2.56,1.09,5.4,1.63,8.53,1.63c0.44,0,1.02,0,1.74,0
			c0.73,0,1.51,0.04,2.34,0.11c0.83,0.07,1.69,0.19,2.56,0.35c0.87,0.16,1.65,0.4,2.34,0.71c0.69,0.31,1.25,0.71,1.69,1.2
			c0.44,0.49,0.65,1.08,0.65,1.77c0,1.02-0.31,1.8-0.93,2.34c-0.62,0.54-1.37,0.95-2.26,1.23c-0.64,0.2-1.32,0.32-2.01,0.4
			c-0.26,0.03-0.52,0.08-0.79,0.09c-0.98,0.05-1.82,0.08-2.51,0.08c-3.63,0-7.33-0.48-11.08-1.44c-3.76-0.96-7.18-2.37-10.27-4.22
			l-0.76,7.15l-1.63,15.29c1.56,0.73,3.35,1.5,5.37,2.31c2.02,0.82,4.11,1.58,6.29,2.29s4.33,1.3,6.46,1.77s4.08,0.71,5.86,0.71
			c4.61,0,8.92-0.62,12.94-1.85c3.62-1.11,6.83-2.74,9.62-4.86c0.3-0.23,0.6-0.46,0.89-0.69c3-2.47,5.36-5.56,7.08-9.29
			c1.72-3.72,2.59-8.07,2.59-13.05C519.9,259.39,519.47,256.73,518.62,254.31z"/>
	</g>
	<g>
		<path fill="#D72525" d="M183.6,316.52l-0.38,0.12c-1.4,0.43-2.89-0.36-3.32-1.76l-40.18-130.65c-0.43-1.4,0.36-2.89,1.76-3.32
			l0.38-0.12c1.4-0.43,2.89,0.36,3.32,1.76l40.18,130.65C185.79,314.6,185,316.09,183.6,316.52z"/>
		<path fill="#D72525" d="M94.74,269.78l-0.12-0.38c-0.43-1.4,0.36-2.89,1.76-3.32l130.65-40.18c1.4-0.43,2.89,0.36,3.32,1.76
			l0.12,0.38c0.43,1.4-0.36,2.89-1.76,3.32L98.06,271.53C96.65,271.96,95.17,271.18,94.74,269.78z"/>
		<path fill="#D72525" d="M162.67,294.97c-19.63,0-37.85-12.7-43.91-32.42c-3.6-11.72-2.43-24.15,3.31-34.98s15.36-18.79,27.08-22.4
			c24.2-7.44,49.94,6.19,57.38,30.39s-6.19,49.94-30.39,57.38C171.66,294.32,167.13,294.97,162.67,294.97z M162.69,215.75
			c-3.29,0-6.59,0.49-9.83,1.49c-8.5,2.61-15.47,8.38-19.64,16.24c-4.16,7.86-5.02,16.87-2.4,25.37
			c5.4,17.55,24.06,27.43,41.61,22.04c8.5-2.61,15.47-8.38,19.64-16.24s5.02-16.87,2.4-25.37c-2.61-8.5-8.38-15.47-16.24-19.64
			C173.36,217.06,168.05,215.75,162.69,215.75z"/>
	</g>
	<g>
		<g>
			<path fill="#A86B1A" d="M182.79,273.26c-0.96-0.74-1.92-1.45-2.88-2.14c-0.96-0.69-1.92-1.4-2.88-2.14
				c-1.34,1.07-2.86,2.1-4.54,3.08s-3.49,1.84-5.41,2.55c-1.92,0.71-3.91,1.25-5.96,1.6c-2.06,0.36-4.13,0.44-6.21,0.25
				c-2.38-0.16-4.61-0.64-6.68-1.42s-3.84-1.79-5.32-3.02c-1.48-1.23-2.6-2.65-3.35-4.24s-1.01-3.28-0.76-5.06
				c0.22-1.51,0.72-2.97,1.5-4.38c0.78-1.41,1.73-2.76,2.86-4.05c1.12-1.29,2.38-2.51,3.78-3.68c1.4-1.17,2.82-2.25,4.28-3.27
				c-1.04-1.01-2.02-2.09-2.94-3.23c-0.92-1.14-1.71-2.32-2.36-3.54c-0.66-1.22-1.15-2.47-1.46-3.74c-0.32-1.27-0.36-2.57-0.14-3.89
				c0.27-1.75,1-3.41,2.18-4.98c1.18-1.56,2.67-2.91,4.48-4.03c1.81-1.12,3.84-1.98,6.11-2.57c2.26-0.59,4.61-0.79,7.05-0.6
				c2.25,0.16,4.34,0.7,6.27,1.6c1.93,0.9,3.58,2.03,4.96,3.37c1.37,1.34,2.4,2.83,3.08,4.46c0.68,1.63,0.9,3.26,0.66,4.87
				c-0.19,1.32-0.62,2.55-1.27,3.7c-0.66,1.15-1.46,2.24-2.41,3.27c-0.95,1.03-2,2.01-3.17,2.96c-1.17,0.95-2.34,1.89-3.52,2.82
				c1.15,0.88,2.25,1.72,3.31,2.53c1.05,0.81,2.14,1.61,3.27,2.41c0.49-0.71,0.97-1.45,1.44-2.22c0.47-0.77,0.89-1.56,1.27-2.39
				l12.25,2.96c-0.55,1.54-1.27,3.08-2.16,4.63c-0.89,1.55-1.87,3.05-2.94,4.5c1.21,0.88,2.38,1.71,3.54,2.51
				c1.15,0.8,2.33,1.63,3.54,2.51L182.79,273.26z M165.03,261.25c-0.82-0.99-1.67-2-2.55-3.04c-0.88-1.04-1.73-2.06-2.55-3.04
				c-0.36,0.38-0.75,0.85-1.19,1.4c-0.44,0.55-0.86,1.13-1.25,1.75c-0.4,0.62-0.75,1.25-1.05,1.89c-0.3,0.64-0.48,1.27-0.53,1.87
				c-0.06,0.8,0.17,1.52,0.68,2.18c0.51,0.66,1.16,1.03,1.95,1.11c0.58,0.08,1.17-0.01,1.79-0.27c0.62-0.26,1.21-0.61,1.79-1.05
				c0.58-0.44,1.12-0.91,1.62-1.42C164.24,262.12,164.67,261.66,165.03,261.25z M163.71,234.27c0.08-0.96-0.09-1.74-0.51-2.34
				c-0.43-0.6-1.08-0.95-1.95-1.03c-0.9-0.14-1.69,0.05-2.34,0.56c-0.66,0.51-1.03,1.25-1.11,2.24c-0.06,0.63-0.01,1.27,0.12,1.91
				c0.14,0.64,0.34,1.27,0.6,1.89c0.26,0.62,0.55,1.21,0.88,1.77c0.33,0.56,0.64,1.06,0.95,1.5c0.36-0.41,0.72-0.88,1.09-1.4
				c0.37-0.52,0.71-1.07,1.03-1.65c0.31-0.58,0.59-1.16,0.82-1.75C163.52,235.39,163.66,234.82,163.71,234.27z"/>
		</g>
		<g>
			<path fill="#F4A82F" d="M180.79,271.26c-0.96-0.74-1.92-1.45-2.88-2.14c-0.96-0.69-1.92-1.4-2.88-2.14
				c-1.34,1.07-2.86,2.1-4.54,3.08s-3.49,1.84-5.41,2.55c-1.92,0.71-3.91,1.25-5.96,1.6c-2.06,0.36-4.13,0.44-6.21,0.25
				c-2.38-0.16-4.61-0.64-6.68-1.42s-3.84-1.79-5.32-3.02c-1.48-1.23-2.6-2.65-3.35-4.24s-1.01-3.28-0.76-5.06
				c0.22-1.51,0.72-2.97,1.5-4.38c0.78-1.41,1.73-2.76,2.86-4.05c1.12-1.29,2.38-2.51,3.78-3.68c1.4-1.17,2.82-2.25,4.28-3.27
				c-1.04-1.01-2.02-2.09-2.94-3.23c-0.92-1.14-1.71-2.32-2.36-3.54c-0.66-1.22-1.15-2.47-1.46-3.74c-0.32-1.27-0.36-2.57-0.14-3.89
				c0.27-1.75,1-3.41,2.18-4.98c1.18-1.56,2.67-2.91,4.48-4.03c1.81-1.12,3.84-1.98,6.11-2.57c2.26-0.59,4.61-0.79,7.05-0.6
				c2.25,0.16,4.34,0.7,6.27,1.6c1.93,0.9,3.58,2.03,4.96,3.37c1.37,1.34,2.4,2.83,3.08,4.46c0.68,1.63,0.9,3.26,0.66,4.87
				c-0.19,1.32-0.62,2.55-1.27,3.7c-0.66,1.15-1.46,2.24-2.41,3.27c-0.95,1.03-2,2.01-3.17,2.96c-1.17,0.95-2.34,1.89-3.52,2.82
				c1.15,0.88,2.25,1.72,3.31,2.53c1.05,0.81,2.14,1.61,3.27,2.41c0.49-0.71,0.97-1.45,1.44-2.22c0.47-0.77,0.89-1.56,1.27-2.39
				l12.25,2.96c-0.55,1.54-1.27,3.08-2.16,4.63c-0.89,1.55-1.87,3.05-2.94,4.5c1.21,0.88,2.38,1.71,3.54,2.51
				c1.15,0.8,2.33,1.63,3.54,2.51L180.79,271.26z M163.03,259.25c-0.82-0.99-1.67-2-2.55-3.04c-0.88-1.04-1.73-2.06-2.55-3.04
				c-0.36,0.38-0.75,0.85-1.19,1.4c-0.44,0.55-0.86,1.13-1.25,1.75c-0.4,0.62-0.75,1.25-1.05,1.89c-0.3,0.64-0.48,1.27-0.53,1.87
				c-0.06,0.8,0.17,1.52,0.68,2.18c0.51,0.66,1.16,1.03,1.95,1.11c0.58,0.08,1.17-0.01,1.79-0.27c0.62-0.26,1.21-0.61,1.79-1.05
				c0.58-0.44,1.12-0.91,1.62-1.42C162.24,260.12,162.67,259.66,163.03,259.25z M161.71,232.27c0.08-0.96-0.09-1.74-0.51-2.34
				c-0.43-0.6-1.08-0.95-1.95-1.03c-0.9-0.14-1.69,0.05-2.34,0.56c-0.66,0.51-1.03,1.25-1.11,2.24c-0.06,0.63-0.01,1.27,0.12,1.91
				c0.14,0.64,0.34,1.27,0.6,1.89c0.26,0.62,0.55,1.21,0.88,1.77c0.33,0.56,0.64,1.06,0.95,1.5c0.36-0.41,0.72-0.88,1.09-1.4
				c0.37-0.52,0.71-1.07,1.03-1.65c0.31-0.58,0.59-1.16,0.82-1.75C161.52,233.39,161.66,232.82,161.71,232.27z"/>
		</g>
		<path fill="#E93634" d="M148.64,232.48l-12.88,3.06c-0.87,0.78-0.47,2.41,0.67,2.69l9.45,2.38c2.47,0.62,4.51-1.84,3.79-4.58
			L148.64,232.48z"/>
		<circle cx="151.22" cy="228.71" r="2"/>
	</g>
</g>
</svg>
