<?xml version="1.0" encoding="utf-8"?>
<!-- Generator: Adobe Illustrator 24.1.1, SVG Export Plug-In . SVG Version: 6.00 Build 0)  -->
<svg version="1.1" baseProfile="tiny" id="Capa_1" xmlns="http://www.w3.org/2000/svg" xmlns:xlink="http://www.w3.org/1999/xlink"
	 x="0px" y="0px" viewBox="0 0 357 94" xml:space="preserve">
<path fill="#FFC352" d="M336.82,83.21H19.63c-6.02,0-10.91-4.88-10.91-10.91V20.11c0-6.02,4.88-10.91,10.91-10.91h317.19
	c6.02,0,10.91,4.88,10.91,10.91V72.3C347.72,78.33,342.84,83.21,336.82,83.21z"/>
<path fill="#FFDB97" d="M176.53,69.9H115.2c-6.02,0-10.91-4.88-10.91-10.91V32.58c0-6.02,4.88-10.91,10.91-10.91h61.34
	c6.02,0,10.91,4.88,10.91,10.91V59C187.44,65.02,182.56,69.9,176.53,69.9z"/>
<path fill="#FFDB97" d="M323.82,69.9h-48.98c-6.02,0-10.91-4.88-10.91-10.91V32.58c0-6.02,4.88-10.91,10.91-10.91h48.98
	c6.02,0,10.91,4.88,10.91,10.91V59C334.72,65.02,329.84,69.9,323.82,69.9z"/>
</svg>
