<?xml version="1.0" encoding="utf-8"?>
<!-- Generator: Adobe Illustrator 24.1.1, SVG Export Plug-In . SVG Version: 6.00 Build 0)  -->
<svg version="1.1" baseProfile="tiny" id="Capa_1" xmlns="http://www.w3.org/2000/svg" xmlns:xlink="http://www.w3.org/1999/xlink"
	 x="0px" y="0px" viewBox="0 0 30 30" xml:space="preserve">
<path fill="#CBCBCB" d="M26.24,12.3c0.09,0.13-0.9,0.97-1.02,1.07c-0.12,0.1-0.23,0.19-0.36,0.27c-1.93,1.26-4.54,0.02-6.6-0.28
	c-1.09-0.16-2.63-0.25-4.2-0.26c1.09-1.14,1.76-2.71,1.76-4.44c0-3.17-2.25-5.8-5.2-6.25c-0.29-0.05-0.6-0.07-0.9-0.07
	c-3.37,0-6.1,2.83-6.1,6.32c0,0.16,0.01,0.32,0.02,0.48L1.35,9.13c-0.31,0.17-0.31,0.67,0,0.84l2.6,1.38
	c0.1,0.05,0.2,0.08,0.31,0.09c0.6,1.27,1.59,2.29,2.81,2.91c-1.31,0.7-2.45,1.71-3.18,3c-1.24,2.2-0.87,5.31,0.85,7.16
	c1.8,1.93,4.36,3.05,6.95,3.35c0.3,0.03,0.61,0.06,0.92,0.08c2.95,0.16,8.12-0.54,10.58-2.12C27.52,23.01,29.4,16.69,26.24,12.3z"/>
</svg>
