<?xml version="1.0" encoding="utf-8"?>
<!-- Generator: Adobe Illustrator 24.1.1, SVG Export Plug-In . SVG Version: 6.00 Build 0)  -->
<svg version="1.1" baseProfile="tiny" id="Capa_1" xmlns="http://www.w3.org/2000/svg" xmlns:xlink="http://www.w3.org/1999/xlink"
	 x="0px" y="0px" viewBox="0 0 253 245" xml:space="preserve">
<g>
	<g>
		<path fill="#FFC352" d="M137.66,65.17c0,15.58-6.12,29.67-16.02,39.82c-9.77,10.04-23.21,16.24-38.05,16.24
			c-29.87,0-54.07-25.1-54.07-56.06c0-30.96,24.2-56.05,54.07-56.05c2.72,0,5.39,0.21,8,0.61
			C117.66,13.74,137.66,37.03,137.66,65.17z"/>
		<path fill="#FFC352" d="M202.96,217.09c-21.78,14.04-67.56,20.21-93.75,18.84c-2.74-0.13-5.46-0.36-8.14-0.67
			c-22.98-2.63-45.69-12.54-61.65-29.66c-15.3-16.42-18.57-43.93-7.57-63.46c9.72-17.24,27.87-29.09,46.74-33.8
			c20.48-5.12,59.91-4.53,80.68-1.55c18.23,2.62,41.36,13.59,58.48,2.44c1.08-0.7,2.13-1.49,3.16-2.38c1.01-0.86,9.79-8.37,9-9.49
			C257.96,136.35,241.3,192.36,202.96,217.09z"/>
		<g>
			<path fill="#F6A421" d="M202.96,217.09c-21.78,14.04-67.56,20.21-93.75,18.84c109.5-28.42,114.84-103.9,108.53-126.68
				c1.08-0.7,2.13-1.49,3.16-2.38c1.01-0.86,9.79-8.37,9-9.49C257.96,136.35,241.3,192.36,202.96,217.09z"/>
		</g>
		<path fill="#F6A421" d="M192.22,186.74c-3.48,4.25-7.6,7.98-12.24,10.97c-14.79,9.55-51.89,13.17-69.26,11.18
			c-14.14-1.62-28.11-7.71-37.92-18.24c-9.42-10.09-11.43-27.02-4.65-39.03c5.97-10.6,17.13-17.89,28.75-20.79
			c12.6-3.15,26.32-2.79,39.09-0.95c11.92,1.71,44.36,9.24,55.04,0.05c0.6-0.52,5.65-4.84,5.57-5.76c0.62,1.61,9.25,26-27.59,41.82
			c0,0,25.91-1.55,34.24-23.77C203.24,142.2,208.96,162.74,192.22,186.74z"/>
		<path fill="#F6A421" d="M137.66,65.17c0,15.58-6.12,29.67-16.02,39.82l-6.32,0.58c14.32-10.36,15.88-39.22,15.88-39.22
			c0.73-36.12-25.86-51.38-39.62-56.62C117.66,13.74,137.66,37.03,137.66,65.17z"/>
	</g>
	<ellipse cx="59.22" cy="57.65" rx="7.43" ry="7.7"/>
	<path fill="#E93634" d="M44.71,69.55L9.25,69.32c-2.77,1.46-2.75,5.97,0.02,7.43l23.08,12.2c6.04,3.19,12.9-1.91,12.77-9.51
		L44.71,69.55z"/>
</g>
</svg>
