<?xml version="1.0" encoding="utf-8"?>
<!-- Generator: Adobe Illustrator 24.1.1, SVG Export Plug-In . SVG Version: 6.00 Build 0)  -->
<svg version="1.1" baseProfile="tiny" id="Capa_1" xmlns="http://www.w3.org/2000/svg" xmlns:xlink="http://www.w3.org/1999/xlink"
	 x="0px" y="0px" viewBox="0 0 141 133" xml:space="preserve">
<g>
	<g>
		<path fill="#FFC352" d="M77.07,36.78c0,8.17-3.21,15.56-8.4,20.88c-5.12,5.26-12.17,8.51-19.95,8.51
			c-15.66,0-28.35-13.16-28.35-29.39c0-16.23,12.69-29.38,28.35-29.38c1.43,0,2.82,0.11,4.19,0.32
			C66.59,9.82,77.07,22.03,77.07,36.78z"/>
		<path fill="#FFC352" d="M111.31,116.43c-11.42,7.36-35.42,10.59-49.14,9.87c-1.44-0.07-2.86-0.19-4.27-0.35
			c-12.05-1.38-23.95-6.57-32.32-15.55c-8.02-8.61-9.73-23.03-3.97-33.27c5.09-9.04,14.61-15.25,24.5-17.72
			c10.74-2.68,31.41-2.38,42.29-0.81c9.56,1.37,21.68,7.13,30.65,1.28c0.57-0.37,1.12-0.78,1.66-1.25c0.53-0.45,5.13-4.39,4.72-4.98
			C140.14,74.09,131.4,103.46,111.31,116.43z"/>
		<g>
			<path fill="#F6A421" d="M111.31,116.43c-11.42,7.36-35.42,10.59-49.14,9.87c57.4-14.9,60.2-54.47,56.89-66.41
				c0.57-0.37,1.12-0.78,1.66-1.25c0.53-0.45,5.13-4.39,4.72-4.98C140.14,74.09,131.4,103.46,111.31,116.43z"/>
		</g>
		<path fill="#F6A421" d="M105.68,100.51c-1.83,2.23-3.99,4.18-6.42,5.75c-7.75,5.01-27.2,6.9-36.31,5.86
			c-7.41-0.85-14.74-4.04-19.88-9.56c-4.94-5.29-5.99-14.17-2.44-20.46c3.13-5.56,8.98-9.38,15.07-10.9
			c6.6-1.65,13.8-1.46,20.49-0.5c6.25,0.9,23.26,4.84,28.85,0.02c0.31-0.27,2.96-2.54,2.92-3.02c0.32,0.84,4.85,13.63-14.47,21.92
			c0,0,13.58-0.81,17.95-12.46C111.45,77.17,114.45,87.93,105.68,100.51z"/>
		<path fill="#F6A421" d="M77.07,36.78c0,8.17-3.21,15.56-8.4,20.88l-3.31,0.3c7.5-5.43,8.33-20.56,8.33-20.56
			c0.38-18.93-13.56-26.94-20.77-29.68C66.59,9.82,77.07,22.03,77.07,36.78z"/>
	</g>
	<ellipse cx="35.95" cy="32.84" rx="3.89" ry="4.04"/>
	<path fill="#E93634" d="M28.35,39.08L9.75,38.96c-1.45,0.77-1.44,3.13,0.01,3.9l12.1,6.4c3.16,1.67,6.76-1,6.7-4.98L28.35,39.08z"
		/>
</g>
<g>
	<path fill="#915403" d="M50.29,81.77l-2.86,16.92l-6.93,0.15l-1.49-8.76l-1.49,8.13l-6.93,0.24l-2.88-16.67l6.05-0.54l1.22,10.13
		l1.64-10.13h4.76l1.9,10.25l0.98-10.25L50.29,81.77z"/>
	<path fill="#915403" d="M65.13,86.94c0,0.63-0.06,1.21-0.17,1.73c-0.11,0.52-0.28,0.99-0.52,1.42c-0.24,0.43-0.54,0.83-0.92,1.2
		s-0.83,0.72-1.36,1.05l2.91,5.18l-5.49,1.07l-1.88-5.2l-1.51,0.05l-0.22,5.08h-5.25c0.04-1.86,0.08-3.7,0.12-5.54
		c0.04-1.84,0.08-3.69,0.13-5.54c0.02-0.94,0.03-1.86,0.05-2.78c0.02-0.92,0.05-1.85,0.1-2.78c0.57-0.21,1.13-0.39,1.68-0.53
		c0.55-0.14,1.11-0.25,1.67-0.32c0.56-0.08,1.12-0.13,1.7-0.16c0.57-0.03,1.16-0.04,1.76-0.04c0.93,0,1.83,0.13,2.69,0.38
		c0.87,0.26,1.63,0.64,2.3,1.15s1.2,1.15,1.61,1.92C64.93,85.04,65.13,85.93,65.13,86.94z M59.67,87.33c0-0.34-0.05-0.66-0.14-0.94
		c-0.09-0.29-0.23-0.53-0.42-0.74c-0.18-0.21-0.41-0.37-0.68-0.49c-0.27-0.12-0.59-0.18-0.96-0.18c-0.16,0-0.32,0.01-0.48,0.03
		c-0.15,0.02-0.3,0.05-0.45,0.09l-0.2,4.54h0.29c0.35,0,0.71-0.04,1.07-0.13c0.36-0.09,0.69-0.23,0.98-0.42
		c0.29-0.19,0.53-0.43,0.71-0.72C59.57,88.09,59.67,87.74,59.67,87.33z"/>
	<path fill="#915403" d="M80.91,90.09c0,0.74-0.09,1.46-0.26,2.14s-0.42,1.33-0.74,1.93c-0.32,0.6-0.71,1.15-1.17,1.65
		c-0.46,0.5-0.98,0.93-1.55,1.29c-0.57,0.36-1.2,0.64-1.87,0.84c-0.67,0.2-1.39,0.3-2.15,0.3c-0.73,0-1.43-0.09-2.09-0.28
		c-0.66-0.19-1.28-0.45-1.86-0.79c-0.58-0.34-1.1-0.74-1.57-1.22c-0.47-0.48-0.87-1-1.2-1.59c-0.33-0.58-0.59-1.21-0.77-1.87
		c-0.18-0.67-0.28-1.36-0.28-2.09c0-0.71,0.09-1.4,0.26-2.08s0.42-1.32,0.74-1.92s0.71-1.16,1.17-1.66s0.97-0.94,1.53-1.31
		c0.57-0.37,1.18-0.65,1.84-0.85c0.66-0.2,1.35-0.31,2.09-0.31c1.18,0,2.26,0.18,3.23,0.55c0.97,0.37,1.8,0.89,2.49,1.57
		c0.69,0.68,1.22,1.5,1.6,2.47C80.72,87.83,80.91,88.91,80.91,90.09z M75.49,90.41c0-0.35-0.05-0.69-0.15-1.02
		c-0.1-0.33-0.25-0.62-0.45-0.88c-0.2-0.26-0.44-0.46-0.73-0.62c-0.29-0.16-0.62-0.24-1-0.24c-0.38,0-0.72,0.07-1.03,0.21
		c-0.3,0.14-0.56,0.33-0.77,0.57c-0.22,0.24-0.38,0.52-0.5,0.84c-0.11,0.32-0.17,0.66-0.17,1.02c0,0.34,0.05,0.68,0.15,1.03
		s0.24,0.65,0.44,0.93s0.44,0.5,0.73,0.67c0.29,0.17,0.63,0.26,1.01,0.26c0.38,0,0.73-0.08,1.03-0.23c0.3-0.15,0.56-0.35,0.77-0.61
		c0.21-0.26,0.38-0.55,0.49-0.89C75.43,91.12,75.49,90.77,75.49,90.41z"/>
	<path fill="#915403" d="M98.36,81.21l-0.88,16.55l-6.4,0.59l-3.42-8.86l-0.54,9.03h-5.49l0.44-17.31l6.1-0.29l4.22,8.79l0.2-8.3
		L98.36,81.21z"/>
	<path fill="#915403" d="M114.08,96.22c-0.38,0.48-0.85,0.9-1.42,1.26c-0.56,0.36-1.16,0.65-1.81,0.89s-1.3,0.41-1.98,0.53
		c-0.68,0.12-1.32,0.18-1.93,0.18c-1.18,0-2.27-0.21-3.26-0.63c-0.99-0.42-1.85-1.01-2.57-1.75c-0.72-0.74-1.28-1.62-1.69-2.63
		c-0.41-1.01-0.61-2.1-0.61-3.26c0-0.89,0.1-1.76,0.3-2.61c0.2-0.85,0.5-1.65,0.87-2.4c0.38-0.75,0.84-1.44,1.39-2.08
		s1.16-1.17,1.86-1.63s1.45-0.81,2.27-1.06c0.82-0.25,1.7-0.38,2.64-0.38c0.35,0,0.72,0.01,1.12,0.04s0.79,0.08,1.19,0.15
		c0.39,0.07,0.78,0.16,1.15,0.29c0.37,0.12,0.72,0.27,1.03,0.45l-0.34,4.66c-0.46-0.17-0.93-0.29-1.41-0.35
		c-0.48-0.06-0.96-0.09-1.42-0.09c-0.65,0-1.26,0.1-1.83,0.3c-0.57,0.2-1.06,0.49-1.48,0.86c-0.42,0.38-0.75,0.83-1,1.37
		s-0.37,1.14-0.37,1.82c0,0.42,0.06,0.83,0.17,1.23c0.11,0.4,0.29,0.75,0.52,1.05c0.23,0.31,0.52,0.55,0.87,0.74
		c0.35,0.19,0.75,0.28,1.2,0.28c0.31,0,0.63-0.04,0.96-0.12c0.33-0.08,0.61-0.22,0.85-0.42l0.05-0.95l-2.93-0.05l0.15-3.66
		c1.21-0.04,2.42-0.08,3.64-0.1s2.43-0.07,3.66-0.12L114.08,96.22z"/>
</g>
<g>
	<path fill="#990808" d="M83.01,86.71c-16.38,5.38-34.08-3.58-39.46-19.96c-5.38-16.38,3.58-34.08,19.96-39.46
		c16.38-5.38,34.08,3.58,39.46,19.96C108.34,63.63,99.39,81.33,83.01,86.71z M66.25,35.66C54.49,39.52,48.06,52.24,51.92,64
		s16.58,18.2,28.34,14.33c11.77-3.86,18.2-16.58,14.33-28.34C90.73,38.23,78.02,31.8,66.25,35.66z"/>
	<path fill="#990808" d="M77.87,71.06c-7.75,2.54-16.13-1.69-18.67-9.44c-2.54-7.75,1.69-16.13,9.44-18.67
		c7.75-2.54,16.13,1.69,18.67,9.44C89.86,60.14,85.62,68.51,77.87,71.06z M70.47,48.52c-4.67,1.53-7.23,6.58-5.69,11.26
		c1.53,4.67,6.58,7.23,11.26,5.69c4.67-1.53,7.23-6.58,5.69-11.26C80.2,49.54,75.15,46.99,70.47,48.52z"/>
	<path fill="#990808" d="M88.61,102.39l-0.82,0.27c-0.79,0.26-1.64-0.17-1.9-0.96l-29.1-88.66c-0.26-0.79,0.17-1.64,0.96-1.9
		l0.82-0.27c0.79-0.26,1.64,0.17,1.9,0.96l29.1,88.66C89.83,101.28,89.4,102.13,88.61,102.39z"/>
	<path fill="#990808" d="M27.56,72.2l-0.27-0.82c-0.26-0.79,0.17-1.64,0.96-1.9l88.66-29.1c0.79-0.26,1.64,0.17,1.9,0.96l0.27,0.82
		c0.26,0.79-0.17,1.64-0.96,1.9l-88.66,29.1C28.67,73.42,27.82,72.99,27.56,72.2z"/>
</g>
</svg>
