<?xml version="1.0" encoding="utf-8"?>
<!-- Generator: Adobe Illustrator 24.1.1, SVG Export Plug-In . SVG Version: 6.00 Build 0)  -->
<svg version="1.1" baseProfile="tiny" id="Capa_1" xmlns="http://www.w3.org/2000/svg" xmlns:xlink="http://www.w3.org/1999/xlink"
	 x="0px" y="0px" viewBox="0 0 218 154" xml:space="preserve">
<g>
	<g>
		<path fill="#FFC352" d="M115.4,32.51c-0.32,7.28-5.52,14.27-13.93,19.56C92.83,57.5,81.09,61,68.6,61.04
			c-25.1,0.09-40.38-13.28-34.83-28.15C38.72,19.61,58.89,9.76,79.32,9.64c1.86-0.01,3.67,0.06,5.43,0.2
			C102.49,11.25,115.93,20.36,115.4,32.51z"/>
		<path fill="#FFC352" d="M180.03,128.13c-21.84,12.76-72.11,18.66-100.89,17.33c-3-0.13-5.96-0.35-8.86-0.64
			c-24.64-2.5-46.64-11.61-58.47-26.28C1.39,105.6,6.03,86.02,20.65,73.49c11.95-10.24,29.16-16.9,45.33-19.51
			c17.23-2.78,49.29-2.59,66.27-1.08c15.09,1.34,35.13,7.32,48.39,1.12c0.82-0.38,1.6-0.81,2.35-1.29c0.73-0.46,7.01-4.42,6.23-5
			C219.06,69.35,214.97,107.7,180.03,128.13z"/>
		<g>
			<path fill="#F6A421" d="M180.03,128.13c-21.84,12.76-72.11,18.66-100.89,17.33C195,119.92,188.72,66.87,180.63,54.03
				c0.82-0.38,1.6-0.81,2.35-1.29c0.73-0.46,7.01-4.42,6.23-5C219.06,69.35,214.97,107.7,180.03,128.13z"/>
		</g>
		<path fill="#F6A421" d="M165.63,103.47c-3.04,3.24-6.83,6.15-11.25,8.51c-14.53,7.78-52.8,10.86-70.52,9.2
			c-14.28-1.34-27.49-6.3-35.34-14.55c-7.18-7.52-5.82-19.39,2.43-27.31c6.92-6.65,17.6-11.07,27.92-12.82
			c11.06-1.87,22.76-1.7,33.64-0.67c10.23,0.97,38.67,5.39,47.4-0.13c0.48-0.31,4.49-2.82,4.34-3.35
			c0.65,0.92,10.5,15.69-22.14,26.24c0,0,24.02-1.11,29.5-15.53C171.62,73.07,179.03,86.31,165.63,103.47z"/>
		<path fill="#F6A421" d="M115.4,32.51c-0.32,7.28-5.52,14.27-13.93,19.56l-5.19,0.33c12.07-5.42,14.2-19.32,14.2-19.32
			c1.49-15.44-16.56-21.3-25.72-23.23C102.49,11.25,115.93,20.36,115.4,32.51z"/>
	</g>
	<path d="M62.6,29.39c-0.49,1.89-3.4,3.46-6.5,3.47c-3.09,0.01-5.12-1.53-4.55-3.42c0.57-1.86,3.46-3.36,6.47-3.38
		C61.03,26.05,63.09,27.53,62.6,29.39z"/>
	<path fill="#E93634" d="M44.54,34.83L17.7,34.85c-2.39,0.69-3.31,2.78-1.49,3.47l15.57,5.83c4.2,1.57,10.46-0.99,11.56-4.67
		L44.54,34.83z"/>
</g>
</svg>
