<?xml version="1.0" encoding="utf-8"?>
<!-- Generator: Adobe Illustrator 24.1.1, SVG Export Plug-In . SVG Version: 6.00 Build 0)  -->
<svg version="1.1" baseProfile="tiny" id="Capa_1" xmlns="http://www.w3.org/2000/svg" xmlns:xlink="http://www.w3.org/1999/xlink"
	 x="0px" y="0px" viewBox="0 0 212 90" xml:space="preserve">
<path fill="#FFC352" d="M185.12,79.15H25.32c-10.11,0-18.29-8.2-18.29-18.29V29.55c0-10.11,8.2-18.29,18.29-18.29h159.81
	c10.11,0,18.29,8.2,18.29,18.29v31.31C203.42,70.96,195.23,79.15,185.12,79.15z"/>
<path fill="#E93634" d="M24.42,53.42c0.64,1.02,1.96,1.37,3.02,0.77l0,0c1.06-0.64,1.37-2,0.73-3.08c-1.5-2.43-2.22-5.33-1.92-8.45
	c0.64-6.57,6.06-11.77,12.63-12.24c7.97-0.56,14.63,5.84,14.54,13.69c-0.08,7.3-6.05,13.36-13.34,13.49c-0.04,0-0.08,0-0.08,0v-3.24
	c0-0.94-1.02-1.54-1.83-1.02l-8.74,5.51c-0.77,0.46-0.77,1.58,0,2.04l8.7,5.47c0.81,0.52,1.83-0.08,1.83-1.02v-3.29
	c10.36-0.08,18.64-8.87,17.87-19.41c-0.68-8.78-7.8-15.91-16.63-16.59c-10.53-0.77-19.41,7.59-19.41,18
	C21.78,47.44,22.76,50.69,24.42,53.42z"/>
</svg>
