<?xml version="1.0" encoding="utf-8"?>
<!-- Generator: Adobe Illustrator 21.0.0, SVG Export Plug-In . SVG Version: 6.00 Build 0)  -->
<svg version="1.2" baseProfile="tiny" id="Capa_1" xmlns="http://www.w3.org/2000/svg" xmlns:xlink="http://www.w3.org/1999/xlink"
	 x="0px" y="0px" viewBox="0 0 379 296" xml:space="preserve">
<path fill="#FFFFFF" d="M355.5,291.7H23.8c-9.9,0-17.9-8-17.9-17.9V25c0-9.9,8-17.9,17.9-17.9h331.7c9.9,0,17.9,8,17.9,17.9v248.7
	C373.4,283.7,365.3,291.7,355.5,291.7z"/>
<path fill="#434A53" stroke="#434A53" stroke-width="7.5709" stroke-linecap="round" stroke-linejoin="round" stroke-miterlimit="10" d="
	M222.3,261.8h-65.6c-14,0-20.8-17.2-10.4-26.6c8.8-8,22.1-14.9,41.8-15.6c20.8-0.7,35.1,6.8,44.7,15.6
	C243,244.7,236.2,261.8,222.3,261.8z"/>
<path fill="#ED5463" d="M212.2,260.4h-43.3c-9.2,0-13.7-9.8-6.9-15.2c5.8-4.6,14.6-8.5,27.6-8.9c13.7-0.4,23.2,3.9,29.5,8.9
	C225.9,250.6,221.5,260.4,212.2,260.4z"/>
<ellipse fill="#434A53" cx="80.4" cy="139.5" rx="25.6" ry="32.5"/>
<circle fill="#FFFFFF" cx="98.3" cy="128.8" r="11.4"/>
<ellipse fill="#434A53" cx="298.7" cy="139.5" rx="25.6" ry="32.5"/>
<circle fill="#FFFFFF" cx="316.5" cy="128.8" r="11.4"/>
<path fill="none" stroke="#434A53" stroke-width="13" stroke-linecap="round" stroke-miterlimit="10" d="M93.6,29.3
	c0,0-13.8,25.6-54.2,21"/>
<path fill="none" stroke="#434A53" stroke-width="13" stroke-linecap="round" stroke-miterlimit="10" d="M288.7,29.3
	c0,0,13.8,25.6,54.2,21"/>
<path fill="#4FC2E9" d="M35.9,87.3c0,0-29.9,43.1,0,44.8C65.3,133.7,35.9,87.3,35.9,87.3z"/>
<g>
	<path fill="#FFFFFF" d="M70.1,275.9c4.2-10,17.1-32.1,21.9-41.9c2.7-5.5,6-11.2,11.4-13.9c1-0.5,2.1-0.9,3.1-0.7
		c3.3,0.5,3.8,5.1,3.3,8.6c-1.1,7.7-3,15.2-5.7,22.5c2.9-6.4,7.1-12.2,12.2-17c2.7-2.5,7.3-4.5,9.4-1.6c0.9,1.3,0.9,3.1,0.7,4.7
		c-0.7,7.3-2.7,14.5-5.7,21.2c2-5.4,5.4-10.2,9.7-13.8c2.6-2.2,6.6-4,9.1-1.8c2.1,1.8,1.9,5.1,1.4,7.9c-1.1,6.2-3.1,12.2-5.9,17.8
		c2-4.9,5.3-9.2,9.4-12.2c1.2-0.8,2.5-1.6,3.9-1.5c3.4,0.3,4,5.1,3.4,8.7c-1.8,10.8,0,4.3-5.8,13.7"/>
	<g>
		<path fill="#434A53" d="M72.2,277.1c5.2-12.3,12.3-23.8,18.6-35.6c2.9-5.4,6.3-16.3,12.5-18.6c7.2-2.6,3.2,10.4,2.5,13.2
			c-1.1,4.7-2.5,9.2-4.1,13.7c-0.9,2.6,3.3,4.4,4.5,1.9c1.5-3.2,3.2-6.3,5.3-9.1c1.7-2.3,5.1-7.4,8.1-8.5c6-2.2,4.1,5.6,3.3,9.2
			c-1,4.6-2.4,9.1-4.3,13.4c1.5,0.6,3,1.3,4.5,1.9c1.3-3.2,3-6.3,5.3-8.9c1.6-1.9,8.8-9.9,10.5-2.4c0.6,2.4-1.1,6.6-1.8,8.9
			c-1.1,3.6-2.5,7.1-4.1,10.6c1.4,0.8,2.8,1.6,4.2,2.5c1.8-4.1,4.3-7.9,7.8-10.8c5.5-4.4,4.3,4.9,3.8,7.8c-0.6,3.8-2.8,5.8-4.9,9.1
			c-1.7,2.7,2.5,5.1,4.2,2.5c1.5-2.5,4-4.9,4.9-7.7c1.2-3.8,2-9.5,0.8-13.4c-4.2-13.8-18.5,4.5-20.9,10.1c-1.2,2.8,2.8,5.3,4.2,2.5
			c3-6.3,12.3-25.1,2.5-29.7c-9.5-4.4-18.6,11-21.3,17.8c-1,2.5,3.4,4.4,4.5,1.9c2.8-6.5,4.8-13.3,5.7-20.3c0.5-3.9,0.7-9-3.9-10.5
			c-9.9-3.1-19.5,14.2-22.6,20.9c1.5,0.6,3,1.3,4.5,1.9c2.2-6.2,4-12.5,5.1-19c0.7-3.8,1.6-8.2-0.3-11.9c-4.8-9.2-15.4,2.1-18.4,7
			c-4.6,7.4-8.3,15.5-12.5,23.2c-4.3,7.9-8.9,15.8-12.4,24.1C66.8,277.5,71,280,72.2,277.1L72.2,277.1z"/>
	</g>
</g>
<g>
	<path fill="#FFFFFF" d="M306.6,275.9c-4.2-10-17.1-32.1-21.9-41.9c-2.7-5.5-6-11.2-11.4-13.9c-1-0.5-2.1-0.9-3.1-0.7
		c-3.3,0.5-3.8,5.1-3.3,8.6c1.1,7.7,3,15.2,5.7,22.5c-2.9-6.4-7.1-12.2-12.2-17c-2.7-2.5-7.3-4.5-9.4-1.6c-0.9,1.3-0.9,3.1-0.7,4.7
		c0.7,7.3,2.7,14.5,5.7,21.2c-2-5.4-5.4-10.2-9.7-13.8c-2.6-2.2-7.5-5-10.1-2.9c-2.1,1.8-1,6.1-0.4,8.9c1.1,6.2,3.1,12.2,5.9,17.8
		c-2-4.9-5.3-9.2-9.4-12.2c-1.2-0.8-2.5-1.6-3.9-1.5c-3.4,0.3-4,5.1-3.4,8.7c1.8,10.8,0,4.3,5.8,13.7"/>
	<g>
		<path fill="#434A53" d="M308.7,274.6c-3.4-8.1-7.8-15.8-12-23.5c-4.3-7.9-8.1-16.2-12.8-23.8c-3-4.8-12.9-15.8-18.2-7.5
			c-2.3,3.6-1.2,8.5-0.5,12.3c1.1,6.5,2.9,12.8,5.1,19c1.5-0.6,3-1.3,4.5-1.9c-2.7-5.8-6.3-11.2-10.9-15.8
			c-2.9-2.9-7.3-6.5-11.8-5.2c-4.5,1.4-4.4,6.3-4,10.2c0.9,7.2,2.9,14,5.8,20.7c1.1,2.5,5.5,0.7,4.5-1.9
			c-2.3-5.7-5.6-10.9-10.3-14.9c-3.1-2.5-8-5.7-12.1-3.8c-4.3,2-3.4,7.3-2.7,11.1c1.2,6.8,3.4,13.3,6.4,19.5
			c1.4,2.9,5.4,0.4,4.2-2.5c-2.4-5.6-16.7-23.8-20.9-10.1c-1.2,3.9-0.3,9.3,0.8,13.2c0.9,2.9,3.4,5.4,5,7.9c1.7,2.7,5.9,0.2,4.2-2.5
			c-2.1-3.3-4.3-5.3-4.9-9.1c-0.4-2.6-2.1-12.5,3.8-7.8c3.6,2.8,6,6.6,7.8,10.8c1.4-0.8,2.8-1.6,4.2-2.5c-1.9-3.9-3.5-8-4.6-12.2
			c-0.6-2.4-2.7-7.7-1.7-10c1.6-3.8,7.5,1.6,9.3,3.5c3,3.1,5.2,6.7,6.8,10.7c1.5-0.6,3-1.3,4.5-1.9c-1.7-4.1-3.1-8.2-4.1-12.5
			c-0.6-2.9-3.6-13.2,3.1-10c3,1.4,5.7,5.3,7.6,7.9c2.3,3,4.1,6.3,5.8,9.8c1.2,2.5,5.4,0.7,4.5-1.9c-1.6-4.5-3-9.1-4.1-13.7
			c-0.6-2.8-4.7-15.8,2.5-13.2c6.2,2.2,9.6,13.1,12.5,18.6c6.3,11.7,13.4,23.3,18.6,35.6C305.7,280,309.9,277.5,308.7,274.6
			L308.7,274.6z"/>
	</g>
</g>
</svg>
