<?xml version="1.0" encoding="utf-8"?>
<!-- Generator: Adobe Illustrator 21.0.0, SVG Export Plug-In . SVG Version: 6.00 Build 0)  -->
<svg version="1.2" baseProfile="tiny" id="Capa_1" xmlns="http://www.w3.org/2000/svg" xmlns:xlink="http://www.w3.org/1999/xlink"
	 x="0px" y="0px" viewBox="0 0 379 296" xml:space="preserve">
<path fill="#F4F4F4" d="M355.5,289.7H23.8c-9.9,0-17.9-8-17.9-17.9V23c0-9.9,8-17.9,17.9-17.9h331.7c9.9,0,17.9,8,17.9,17.9v248.7
	C373.4,281.7,365.4,289.7,355.5,289.7z"/>
<g>
	<path fill="none" stroke="#434A53" stroke-width="4.5826" stroke-linecap="round" stroke-miterlimit="10" d="M314.7,44.1
		c0,0,24.4,1.5,10.8,22.1"/>
	<path fill="none" stroke="#434A53" stroke-width="4.5826" stroke-linecap="round" stroke-miterlimit="10" d="M339.3,25.9
		c0,0-1.1,24.7-21.6,10.6"/>
	<path fill="none" stroke="#434A53" stroke-width="4.5826" stroke-linecap="round" stroke-miterlimit="10" d="M357.6,50.4
		c0,0-24.4-1.5-10.8-22.1"/>
	<path fill="none" stroke="#434A53" stroke-width="4.5826" stroke-linecap="round" stroke-miterlimit="10" d="M333,68.6
		c0,0,1.1-24.7,21.6-10.6"/>
</g>
<line fill="none" stroke="#434A53" stroke-width="12.0256" stroke-linecap="round" stroke-miterlimit="10" x1="56.7" y1="63.7" x2="95.8" y2="88.6"/>
<line fill="none" stroke="#434A53" stroke-width="12.0256" stroke-linecap="round" stroke-miterlimit="10" x1="309.7" y1="63.7" x2="270.6" y2="88.6"/>
<circle fill="#434A53" cx="78.6" cy="156.6" r="32.5"/>
<circle fill="#434A53" cx="292.4" cy="156.6" r="32.5"/>
<circle fill="#FFFFFF" cx="98" cy="167.4" r="10.4"/>
<circle fill="#FFFFFF" cx="311.7" cy="167.4" r="10.4"/>
<g>
	<path fill="#434A53" d="M245.5,251.4H117c0,0,9.9-43.2,62.1-45C231.4,204.7,245.5,251.4,245.5,251.4z"/>
	<g>
		<path fill="#FFFFFF" d="M139.2,226.6v-6.9c-3.7,2.8-6.8,5.8-9.5,8.8h7.5C138.3,228.5,139.2,227.6,139.2,226.6z"/>
		<path fill="#FFFFFF" d="M141.8,219.6v-1.8c6.5-4.3,14.5-7.8,24.5-9.7c0.1,0.2,0.1,0.3,0.1,0.5v12c0,1-11,7.9-11.1,7.9H153
			c-0.1,0-11.1-4.8-11.1-5.9L141.8,219.6z"/>
		<path fill="#FFFFFF" d="M221.1,222.6c0,1.1-11,5.9-11.1,5.9h-2.2c-0.1,0-11.1-6.9-11.1-7.9v-12c0-0.2,0-0.3,0.1-0.5
			c10,1.9,18,5.4,24.5,9.7v1.8L221.1,222.6z"/>
		<path fill="#FFFFFF" d="M169.2,208.5v18c0,1.1,0.9,1.9,1.9,1.9h20.7c1.1,0,1.9-0.9,1.9-1.9v-18c0-0.4-0.1-0.8-0.3-1.1
			c-4.4-0.7-9.1-1-14.2-0.8c-3.4,0.1-6.7,0.4-9.8,0.9C169.3,207.8,169.2,208.2,169.2,208.5z"/>
		<path fill="#FFFFFF" d="M223.8,226.6c0,1.1,0.9,1.9,1.9,1.9h6.3c-2.4-2.7-5.1-5.4-8.2-7.9V226.6z"/>
		<path fill="#FFFFFF" d="M139.2,254v-18c0-1.1-0.9-1.9-1.9-1.9h-8.8c-8.9,10.9-11.3,21.6-11.3,21.6h21
			C138.8,255.3,139.2,254.7,139.2,254z"/>
		<path fill="#FFFFFF" d="M166.5,254v-18c0-1.1-0.9-1.9-1.9-1.9h-20.7c-1.1,0-1.9,0.9-1.9,1.9v18c0,0.7,0.4,1.3,0.9,1.6h22.7
			C166.1,255.3,166.5,254.7,166.5,254z"/>
		<path fill="#FFFFFF" d="M193.8,254v-18c0-1.1-0.9-1.9-1.9-1.9h-20.7c-1.1,0-1.9,0.9-1.9,1.9v18c0,0.7,0.4,1.3,0.9,1.6h22.7
			C193.4,255.3,193.8,254.7,193.8,254z"/>
		<path fill="#FFFFFF" d="M221.1,254v-18c0-1.1-0.9-1.9-1.9-1.9h-20.7c-1.1,0-1.9,0.9-1.9,1.9v18c0,0.7,0.4,1.3,0.9,1.6h22.7
			C220.7,255.3,221.1,254.7,221.1,254z"/>
		<path fill="#FFFFFF" d="M223.8,235.9v18c0,0.7,0.4,1.3,0.9,1.6h20.8c0,0-3.2-10.7-12.3-21.6h-7.6
			C224.7,234,223.8,234.9,223.8,235.9z"/>
	</g>
	<path fill="none" stroke="#434A53" stroke-width="5.2638" stroke-linejoin="round" stroke-miterlimit="10" d="M246.7,251.7H118.3
		c0,0,9.9-43.2,62.1-45C232.7,205,246.7,251.7,246.7,251.7z"/>
</g>
</svg>
