<?xml version="1.0" encoding="utf-8"?>
<!-- Generator: Adobe Illustrator 24.0.1, SVG Export Plug-In . SVG Version: 6.00 Build 0)  -->
<svg version="1.2" baseProfile="tiny" id="Capa_1" xmlns="http://www.w3.org/2000/svg" xmlns:xlink="http://www.w3.org/1999/xlink"
	 x="0px" y="0px" viewBox="0 0 379 296" xml:space="preserve">
<path fill="#72CEED" d="M354.81,290.11H23.11c-9.9,0-17.9-8-17.9-17.9V23.41c0-9.9,8-17.9,17.9-17.9h331.7c9.9,0,17.9,8,17.9,17.9
	v248.7C372.71,282.11,364.61,290.11,354.81,290.11z"/>
<g>
	<path fill="#434A53" d="M260.06,257.58H116.52c0,0,11.06-48.25,69.37-50.26C244.31,205.42,260.06,257.58,260.06,257.58z"/>
	<g>
		<path fill="#FFFFFF" d="M141.32,229.88v-7.71c-4.13,3.13-7.6,6.48-10.61,9.83h8.38C140.32,232,141.32,231,141.32,229.88z"/>
		<path fill="#FFFFFF" d="M144.34,229.88c0,1.23,1.01,2.12,2.12,2.12h23.12c1.23,0,2.12-1.01,2.12-2.12v-20.11
			c0-0.22,0-0.34-0.11-0.56c-11.17,2.12-20.11,6.03-27.37,10.83v9.83H144.34z"/>
		<path fill="#FFFFFF" d="M174.83,209.66v20.11c0,1.23,1.01,2.12,2.12,2.12h23.12c1.23,0,2.12-1.01,2.12-2.12v-20.11
			c0-0.45-0.11-0.89-0.34-1.23c-4.91-0.78-10.16-1.12-15.86-0.89c-3.8,0.11-7.48,0.45-10.95,1.01
			C174.94,208.88,174.83,209.33,174.83,209.66z"/>
		<path fill="#FFFFFF" d="M207.45,232h23.23c1.23,0,2.12-1.01,2.12-2.12v-8.94c-7.26-5.25-16.31-9.61-27.37-11.73
			c-0.11,0.22-0.11,0.34-0.11,0.56v20.11C205.33,231,206.33,232,207.45,232z"/>
		<path fill="#FFFFFF" d="M235.82,229.88c0,1.23,1.01,2.12,2.12,2.12h7.04c-2.68-3.02-5.7-6.03-9.16-8.82V229.88z"/>
		<path fill="#FFFFFF" d="M141.32,256.02v-20.11c0-1.23-1.01-2.12-2.12-2.12h-9.83c-9.94,12.18-12.62,24.13-12.62,24.13h23.46
			C140.87,257.47,141.32,256.8,141.32,256.02z"/>
		<path fill="#FFFFFF" d="M171.82,256.02v-20.11c0-1.23-1.01-2.12-2.12-2.12h-23.12c-1.23,0-2.12,1.01-2.12,2.12v20.11
			c0,0.78,0.45,1.45,1.01,1.79h25.36C171.37,257.47,171.82,256.8,171.82,256.02z"/>
		<path fill="#FFFFFF" d="M202.31,256.02v-20.11c0-1.23-1.01-2.12-2.12-2.12h-23.12c-1.23,0-2.12,1.01-2.12,2.12v20.11
			c0,0.78,0.45,1.45,1.01,1.79h25.36C201.86,257.47,202.31,256.8,202.31,256.02z"/>
		<path fill="#FFFFFF" d="M232.8,256.02v-20.11c0-1.23-1.01-2.12-2.12-2.12h-23.12c-1.23,0-2.12,1.01-2.12,2.12v20.11
			c0,0.78,0.45,1.45,1.01,1.79h25.36C232.36,257.47,232.8,256.8,232.8,256.02z"/>
		<path fill="#FFFFFF" d="M235.82,235.8v20.11c0,0.78,0.45,1.45,1.01,1.79h23.23c0,0-3.57-11.95-13.74-24.13h-8.49
			C236.82,233.68,235.82,234.69,235.82,235.8z"/>
	</g>
	<path fill="none" stroke="#434A53" stroke-width="5.8796" stroke-linejoin="round" stroke-miterlimit="10" d="M261.4,257.92H117.98
		c0,0,11.06-48.25,69.37-50.26C245.76,205.75,261.4,257.92,261.4,257.92z"/>
</g>
<ellipse fill="#434A53" cx="79.63" cy="158.56" rx="25.58" ry="32.55"/>
<circle fill="#FFFFFF" cx="97.47" cy="147.84" r="11.43"/>
<ellipse fill="#434A53" cx="297.9" cy="158.56" rx="25.58" ry="32.55"/>
<circle fill="#FFFFFF" cx="315.73" cy="147.84" r="11.43"/>
<path fill="none" stroke="#434A53" stroke-width="13" stroke-linecap="round" stroke-miterlimit="10" d="M92.76,58.38
	c0,0-13.81,25.56-54.2,20.96"/>
<path fill="none" stroke="#434A53" stroke-width="13" stroke-linecap="round" stroke-miterlimit="10" d="M287.88,58.38
	c0,0,13.81,25.56,54.2,20.96"/>
<g>
	<path fill="none" d="M333.73,12.06c-2.08-0.71-3.97-1.64-5.59-3.03c-0.8,1.92-1.82,3.65-3.18,5.15l6.38,6.47L333.73,12.06z"/>
	<path fill="none" d="M137.61,66c-0.92,0.82-2.04,1.51-3.25,1.95c0.73,0.98,1.3,1.98,1.68,3.09l5.23-1.32L137.61,66z"/>
	<path fill="none" d="M144.15,70.52l3.79,3.84c0.9-0.75,1.93-1.39,3.04-1.78c-0.8-1-1.4-2.17-1.77-3.35L144.15,70.52z"/>
	<path fill="none" d="M148.83,64.26c-1.21,0.2-2.51,0.15-3.68-0.1l-1.38,4.94l5.09-1.36C148.64,66.6,148.65,65.45,148.83,64.26z"/>
	<path fill="none" d="M141.62,76.84c1.18,0.48,2.26,1.02,3.2,1.82c0.5-1.25,1.18-2.3,2.07-3.28l-3.79-3.84L141.62,76.84z"/>
	<path fill="none" d="M31.92,244.64c-0.56-2.54-0.62-4.94-0.27-7.48l-10.21-1.99l3.41,10.05C27.25,244.71,29.56,244.38,31.92,244.64
		z"/>
	<path fill="none" d="M320.37,24.83l9.09-2.29l-6.38-6.47c-1.61,1.43-3.55,2.63-5.64,3.39C318.72,21.15,319.71,22.9,320.37,24.83z"
		/>
	<path fill="none" d="M136.41,72.54c0.27,1.23,0.29,2.55,0.1,3.81c1.21-0.2,2.44-0.17,3.66,0.17l1.48-5.3L136.41,72.54z"/>
	<path fill="none" d="M45.5,16.6c-1.22-1.51-2.13-3.28-2.68-5.07l-7.68,1.95l5.75,5.81C42.26,18.15,43.82,17.18,45.5,16.6z"/>
	<path fill="none" d="M341.03,30.59c1.57-1.31,3.36-2.42,5.29-3.09c-1.4-1.73-2.44-3.76-3.07-5.82l-8.81,2.24L341.03,30.59z"/>
	<path fill="none" d="M320.99,27.42c0.48,2.14,0.51,4.43,0.17,6.62c2.11-0.35,4.24-0.29,6.36,0.3l2.57-9.21L320.99,27.42z"/>
	<path fill="none" d="M330.04,34.91c2.05,0.84,3.93,1.77,5.56,3.16c0.87-2.17,2.05-3.99,3.6-5.7l-6.59-6.67L330.04,34.91z"/>
	<path fill="none" d="M36.15,25.8c0.76-1.89,1.79-3.48,3.14-4.97l-5.75-5.81l-2.24,8.03C33.09,23.78,34.74,24.59,36.15,25.8z"/>
	<path fill="none" d="M342.57,13.05c-2.11,0.35-4.36,0.26-6.39-0.17l-2.39,8.59l8.84-2.36C342.24,17.12,342.26,15.11,342.57,13.05z"
		/>
	<path fill="none" d="M30.81,12.27l-5.56-5.64c-1.4,1.25-3.1,2.29-4.92,2.96c1.11,1.48,1.97,3,2.55,4.69L30.81,12.27z"/>
	<path fill="none" d="M23.57,22.29c1.84-0.31,3.7-0.26,5.54,0.26l2.24-8.03l-7.92,2C23.84,18.39,23.86,20.39,23.57,22.29z"/>
	<path fill="none" d="M329.28,259.45c-1.57,2.44-3.66,4.7-6.1,6.44c2.26,1.74,4.18,3.66,5.75,5.92l10.97-6.27L329.28,259.45z"/>
	<path fill="none" d="M331.02,256.32l10.62,6.1v-12.02c-2.96-0.17-5.75-0.7-8.36-1.92C332.94,251.27,332.24,253.88,331.02,256.32z"
		/>
	<path fill="none" d="M143.74,63.69c-1.2-0.41-2.28-0.95-3.22-1.75c-0.46,1.11-1.05,2.1-1.83,2.96l3.67,3.72L143.74,63.69z"/>
	<path fill="none" d="M32.23,234.39c0.62-2.18,1.56-4.32,2.92-6.14c-2.36-0.71-4.59-1.93-6.46-3.41l-6.67,7.56L32.23,234.39z"/>
	<path fill="none" d="M345.13,281.4c2.96,0.35,5.75,0.87,8.36,2.09c0.35-3.13,1.22-5.92,2.61-8.71l-10.97-6.27V281.4z"/>
	<path fill="none" d="M353.49,248.48c-2.61,1.22-5.57,1.92-8.36,2.09v12.02l10.62-6.27C354.53,253.88,353.84,251.27,353.49,248.48z"
		/>
	<path fill="none" d="M357.49,259.45l-10.62,6.1l10.97,6.27c1.57-2.26,3.48-4.35,5.75-5.92
		C361.15,264.15,359.06,261.89,357.49,259.45z"/>
	<path fill="none" d="M26.5,222.86c-1.6-1.58-2.83-3.43-3.84-5.51c-1.71,1.64-3.84,2.97-5.97,3.84l3.18,9.37L26.5,222.86z"/>
	<path fill="none" d="M333.29,283.49c2.61-1.22,5.4-1.92,8.36-1.92v-12.89l-10.97,6.27C332.07,277.56,332.94,280.53,333.29,283.49z"
		/>
	<path fill="none" d="M13.93,221.97c-2.35,0.65-4.67,0.98-7.02,0.72c0.47,2.26,0.61,4.49,0.31,6.71l9.9,1.94L13.93,221.97z"/>
	<path fill="none" d="M11.87,244.02c1.78,1.67,3.24,3.75,4.29,5.96c1.71-1.64,3.7-2.92,6.01-3.7l-3.41-10.05L11.87,244.02z"/>
	<path fill="#C7EBF8" d="M307.51,6.5l6.27,0.14l2.84,2.8l-8.43-0.07c-0.66-0.05-1.36,0.56-1.29,1.25c-0.05,0.66,0.59,1.24,1.25,1.29
		l10.97,0.11l2.07,2.19c-1.8,1.64-3.99,2.78-6.46,3.43c-0.44,0.14-0.8,0.45-0.93,0.95c-0.14,0.5,0.01,0.94,0.31,1.29
		c1.68,1.68,2.76,3.58,3.64,5.71l-2.59,0.62l-9.44-5.58c-0.59-0.3-1.44-0.13-1.74,0.45c-0.3,0.59-0.13,1.44,0.45,1.74l7.25,4.3
		l-3.88,0.93l-5.52-3.28c-0.59-0.3-1.44-0.13-1.74,0.45c-0.3,0.59-0.13,1.44,0.45,1.74l3.21,1.97l-2.75,0.71
		c-0.73,0.2-1.06,0.91-0.98,1.6c0.2,0.73,0.91,1.06,1.6,0.98l2.75-0.71l-1.97,3.21c-0.3,0.59-0.13,1.44,0.45,1.74
		c0.59,0.3,1.44,0.13,1.74-0.45l3.28-5.52l3.88-0.93l-4.18,7.29c-0.3,0.59-0.13,1.44,0.45,1.74s1.44,0.13,1.74-0.45l5.58-9.44
		l2.62-0.74c0.41,2.39,0.4,4.81-0.29,7.3c-0.14,0.5,0.01,0.94,0.31,1.29c0.3,0.35,0.8,0.49,1.24,0.35c2.3-0.57,4.72-0.56,7.03-0.19
		l-0.69,2.49l-9.55,5.39c-0.64,0.36-0.84,1.11-0.49,1.74c0.36,0.64,1.11,0.84,1.74,0.49l7.32-4.13l-1.08,3.86l-5.57,3.14
		c-0.64,0.36-0.84,1.11-0.49,1.74c0.36,0.64,1.11,0.84,1.74,0.49l3.34-1.88l-0.76,2.74c-0.21,0.75,0.15,1.38,0.9,1.59
		c0.75,0.21,1.38-0.15,1.59-0.9l0.76-2.74l1.88,3.34c0.36,0.64,1.11,0.84,1.74,0.49c0.64-0.36,0.84-1.11,0.49-1.74l-3.02-5.54
		l1.08-3.86l4.13,7.32c0.36,0.64,1.11,0.84,1.74,0.49c0.64-0.36,0.84-1.11,0.49-1.74l-5.39-9.55l0.69-2.49
		c2.21,0.75,4.27,2,5.92,3.8c0.3,0.35,0.8,0.49,1.24,0.35s0.8-0.45,0.93-0.95c0.66-2.36,1.94-4.56,3.53-6.39l1.86,1.99l-0.11,10.97
		c-0.01,0.53,0.38,1.04,1,1.22c0.87,0.24,1.58-0.37,1.7-1.27l0.07-8.43l2.84,2.8l-0.05,6.42c-0.01,0.53,0.38,1.04,1,1.22
		c0.87,0.24,1.58-0.37,1.7-1.27l-0.02-3.76l1.98,2.03c0.52,0.55,1.33,0.51,1.88-0.01s0.51-1.33-0.01-1.88l-1.98-2.03l3.76-0.02
		c0.66,0.05,1.36-0.56,1.29-1.25c-0.14-0.44-0.79-1.02-1.48-0.95l-6.27-0.14l-2.84-2.8l8.43,0.07c0.66,0.05,1.36-0.56,1.29-1.25
		c0.05-0.66-0.56-1.36-1.25-1.29l-10.97-0.11l-1.89-1.87c1.73-1.4,3.76-2.44,6.07-3c0.44-0.14,0.8-0.45,0.93-0.95
		c0.14-0.5-0.01-0.94-0.31-1.29c-1.77-1.83-3.06-3.94-3.75-6.28l2.91-0.8l9.44,5.58c0.59,0.3,1.44,0.13,1.74-0.45
		s0.13-1.44-0.45-1.74l-7.25-4.3l3.88-0.93l5.52,3.28c0.59,0.3,1.44,0.13,1.74-0.45s0.13-1.44-0.45-1.74l-3.21-1.97l2.75-0.71
		c0.73-0.2,1.06-0.91,0.98-1.6c-0.2-0.73-0.91-1.06-1.6-0.98l-2.75,0.71l1.97-3.21c0.3-0.59,0.13-1.44-0.45-1.74
		c-0.59-0.3-1.44-0.13-1.74,0.45l-3.37,5.36l-3.88,0.93l4.3-7.25c0.3-0.59,0.13-1.44-0.45-1.74c-0.59-0.3-1.44-0.13-1.74,0.45
		l-5.58,9.44l-2.91,0.8c-0.32-2.23-0.22-4.49,0.4-6.73c0.14-0.5-0.01-0.94-0.31-1.29c-0.3-0.35-0.8-0.49-1.24-0.35
		c-2.3,0.57-4.72,0.56-7.03,0.19l0.83-2.99l3.2-1.8h-6.42l0.61,1.07l-0.83,2.99c-2.21-0.75-4.27-2-5.92-3.8
		c-0.1-0.12-0.22-0.2-0.36-0.27h-1.07c-0.35,0.16-0.63,0.44-0.75,0.87c-0.62,2.24-1.71,4.22-3.14,5.97l-2.07-2.19l0.05-4.64h-2.53
		l-0.02,2.07l-2.16-2.07h-10.16C306.42,6.03,306.96,6.45,307.51,6.5z M327.52,34.34c-2.12-0.59-4.25-0.65-6.36-0.3
		c0.34-2.19,0.31-4.47-0.17-6.62l9.09-2.29L327.52,34.34z M335.6,38.06c-1.62-1.39-3.51-2.32-5.56-3.16l2.57-9.21l6.59,6.67
		C337.65,34.08,336.47,35.89,335.6,38.06z M346.32,27.51c-1.93,0.67-3.72,1.78-5.29,3.09l-6.59-6.67l8.81-2.24
		C343.88,23.74,344.92,25.78,346.32,27.51z M336.18,12.88c2.03,0.43,4.28,0.52,6.39,0.17c-0.31,2.06-0.33,4.07,0.06,6.05l-8.84,2.36
		L336.18,12.88z M328.13,9.03c1.62,1.39,3.51,2.32,5.59,3.03l-2.39,8.59l-6.38-6.47C326.31,12.67,327.33,10.95,328.13,9.03z
		 M329.46,22.54l-9.09,2.29c-0.67-1.93-1.66-3.68-2.93-5.38c2.09-0.76,4.03-1.96,5.64-3.39L329.46,22.54z"/>
	<path fill="#C7EBF8" d="M159.79,69.25c0.34,0.17,0.83,0.08,1-0.26c0.17-0.34,0.08-0.83-0.26-1l-1.85-1.13l1.58-0.41
		c0.42-0.12,0.61-0.52,0.57-0.92c-0.11-0.42-0.52-0.61-0.92-0.57l-1.58,0.41l1.13-1.85c0.17-0.34,0.08-0.83-0.26-1
		s-0.83-0.08-1,0.26l-1.94,3.09l-2.23,0.54l2.48-4.17c0.17-0.34,0.08-0.83-0.26-1c-0.34-0.17-0.83-0.08-1,0.26l-3.21,5.43
		l-1.67,0.46c-0.18-1.29-0.13-2.58,0.23-3.87c0.08-0.29,0-0.54-0.18-0.74c-0.17-0.2-0.46-0.28-0.72-0.2
		c-1.33,0.33-2.71,0.32-4.04,0.11l0.48-1.72l5.5-3.1c0.37-0.21,0.49-0.64,0.28-1c-0.21-0.37-0.64-0.49-1-0.28l-4.28,2.36l0.62-2.22
		l3.21-1.81c0.37-0.21,0.49-0.64,0.28-1c-0.21-0.37-0.64-0.49-1-0.28l-1.92,1.08l0.44-1.58c0.12-0.43-0.09-0.8-0.52-0.92
		c-0.43-0.12-0.8,0.09-0.92,0.52l-0.44,1.58l-1.08-1.92c-0.21-0.37-0.64-0.49-1-0.28c-0.37,0.21-0.49,0.64-0.28,1l1.81,3.21
		l-0.62,2.22l-2.38-4.21c-0.21-0.37-0.64-0.49-1-0.28c-0.37,0.21-0.49,0.64-0.28,1l3.1,5.5l-0.48,1.72
		c-1.27-0.43-2.46-1.15-3.4-2.18c-0.17-0.2-0.46-0.28-0.72-0.2c-0.25,0.08-0.46,0.26-0.54,0.54c-0.36,1.29-0.99,2.43-1.81,3.43
		l-1.19-1.26l0.06-6.31c0.03-0.38-0.32-0.78-0.72-0.74c-0.38-0.03-0.78,0.32-0.74,0.72l-0.04,4.85l-1.71-1.63l0.03-3.7
		c0.03-0.38-0.32-0.78-0.72-0.74c-0.38-0.03-0.78,0.32-0.74,0.72l0.01,2.17l-1.14-1.17c-0.3-0.31-0.77-0.29-1.08,0.01
		c-0.31,0.3-0.29,0.77,0.01,1.08l1.14,1.17l-2.17,0.01c-0.38-0.03-0.78,0.32-0.74,0.72c-0.03,0.38,0.34,0.71,0.72,0.74l3.61,0.08
		l1.63,1.61l-4.85-0.04c-0.38-0.03-0.78,0.32-0.74,0.72c-0.03,0.38,0.34,0.71,0.72,0.74l6.31,0.06l1.19,1.26
		c-1.04,0.95-2.3,1.6-3.72,1.97c-0.25,0.08-0.46,0.26-0.54,0.54c-0.08,0.29,0,0.54,0.18,0.74c0.97,0.96,1.59,2.06,2.09,3.29
		l-1.49,0.36l-5.43-3.21c-0.34-0.17-0.83-0.08-1,0.26s-0.08,0.83,0.26,1l4.17,2.48l-2.23,0.54L125.65,71
		c-0.34-0.17-0.83-0.08-1,0.26s-0.08,0.83,0.26,1l1.85,1.13l-1.58,0.41c-0.42,0.12-0.61,0.52-0.57,0.92
		c0.12,0.42,0.52,0.61,0.92,0.57l1.58-0.41l-1.13,1.85c-0.17,0.34-0.08,0.83,0.26,1s0.83,0.08,1-0.26l1.89-3.18l2.23-0.54l-2.4,4.19
		c-0.17,0.34-0.08,0.83,0.26,1c0.34,0.17,0.83,0.08,1-0.26l3.21-5.43l1.51-0.43c0.23,1.38,0.23,2.77-0.17,4.2
		c-0.08,0.29,0,0.54,0.18,0.74c0.17,0.2,0.46,0.28,0.72,0.2c1.33-0.33,2.71-0.32,4.04-0.11l-0.4,1.43l-5.5,3.1
		c-0.37,0.21-0.49,0.64-0.28,1c0.21,0.37,0.64,0.49,1,0.28l4.21-2.38l-0.62,2.22l-3.21,1.81c-0.37,0.21-0.49,0.64-0.28,1
		c0.21,0.37,0.64,0.49,1,0.28l1.92-1.08l-0.44,1.58c-0.12,0.43,0.09,0.8,0.52,0.92c0.43,0.12,0.8-0.09,0.92-0.52l0.44-1.58
		l1.08,1.92c0.21,0.37,0.64,0.49,1,0.28c0.37-0.21,0.49-0.64,0.28-1l-1.74-3.19l0.62-2.22l2.38,4.21c0.21,0.37,0.64,0.49,1,0.28
		c0.37-0.21,0.49-0.64,0.28-1l-3.1-5.5l0.4-1.43c1.27,0.43,2.46,1.15,3.4,2.18c0.17,0.2,0.46,0.28,0.72,0.2
		c0.25-0.08,0.46-0.26,0.54-0.54c0.38-1.36,1.12-2.62,2.03-3.68l1.07,1.15l-0.06,6.31c-0.01,0.31,0.22,0.6,0.58,0.7
		c0.5,0.14,0.91-0.21,0.98-0.73l0.04-4.85l1.63,1.61l-0.03,3.7c-0.01,0.31,0.22,0.6,0.58,0.7c0.5,0.14,0.91-0.21,0.98-0.73
		l-0.01-2.17l1.14,1.17c0.3,0.31,0.77,0.29,1.08-0.01s0.29-0.77-0.01-1.08l-1.14-1.17l2.17-0.01c0.38,0.03,0.78-0.32,0.74-0.72
		c-0.08-0.25-0.45-0.59-0.85-0.55l-3.61-0.08l-1.63-1.61l4.85,0.04c0.38,0.03,0.78-0.32,0.74-0.72c0.03-0.38-0.32-0.78-0.72-0.74
		l-6.31-0.06l-1.09-1.08c1-0.8,2.17-1.4,3.49-1.73c0.25-0.08,0.46-0.26,0.54-0.54c0.08-0.29,0-0.54-0.18-0.74
		c-1.02-1.06-1.76-2.27-2.16-3.61l1.67-0.46l5.43,3.21c0.34,0.17,0.83,0.08,1-0.26c0.17-0.34,0.08-0.83-0.26-1l-4.17-2.48l2.23-0.54
		L159.79,69.25z M145.15,64.17c1.17,0.25,2.46,0.3,3.68,0.1c-0.18,1.19-0.19,2.34,0.03,3.48l-5.09,1.36L145.15,64.17z M140.52,61.95
		c0.93,0.8,2.02,1.34,3.22,1.75l-1.38,4.94l-3.67-3.72C139.47,64.05,140.06,63.05,140.52,61.95z M134.37,67.95
		c1.2-0.44,2.32-1.13,3.25-1.95l3.67,3.72l-5.23,1.32C135.67,69.94,135.1,68.93,134.37,67.95z M140.16,76.51
		c-1.22-0.34-2.44-0.37-3.66-0.17c0.2-1.26,0.18-2.57-0.1-3.81l5.23-1.32L140.16,76.51z M144.81,78.66c-0.93-0.8-2.02-1.34-3.2-1.82
		l1.48-5.3l3.79,3.84C146,76.36,145.32,77.41,144.81,78.66z M150.99,72.58c-1.11,0.39-2.14,1.02-3.04,1.78l-3.79-3.84l5.07-1.29
		C149.58,70.42,150.18,71.59,150.99,72.58z"/>
	<path fill="#C7EBF8" d="M6.94,20.7l2.39-0.62l-1.71,2.8c-0.26,0.51-0.12,1.25,0.4,1.51c0.51,0.26,1.25,0.12,1.51-0.4l2.86-4.82
		l3.38-0.81l-3.64,6.35c-0.26,0.51-0.12,1.25,0.4,1.51c0.51,0.26,1.25,0.12,1.51-0.4l4.87-8.23l2.29-0.65
		c0.35,2.09,0.35,4.19-0.25,6.36c-0.12,0.43,0.01,0.82,0.27,1.13c0.27,0.31,0.7,0.43,1.09,0.3c2.01-0.49,4.11-0.49,6.13-0.16
		l-0.6,2.17l-8.32,4.7c-0.55,0.31-0.74,0.96-0.42,1.52s0.96,0.74,1.52,0.42l6.38-3.6l-0.94,3.36l-4.86,2.74
		c-0.55,0.31-0.74,0.96-0.42,1.52s0.96,0.74,1.52,0.42l2.91-1.64l-0.67,2.39c-0.18,0.65,0.13,1.21,0.78,1.39
		c0.65,0.18,1.21-0.13,1.39-0.78l0.67-2.39L29,39.71c0.31,0.55,0.96,0.74,1.52,0.42c0.55-0.31,0.74-0.96,0.42-1.52l-2.63-4.83
		l0.94-3.36l3.6,6.38c0.31,0.55,0.96,0.74,1.52,0.42c0.56-0.31,0.74-0.96,0.42-1.52l-4.7-8.33l0.6-2.17
		c1.92,0.65,3.72,1.74,5.16,3.31c0.27,0.31,0.7,0.43,1.09,0.3s0.69-0.39,0.81-0.83c0.57-2.06,1.69-3.97,3.07-5.57l1.62,1.74
		l-0.09,9.56c-0.01,0.46,0.33,0.91,0.87,1.06c0.76,0.21,1.38-0.32,1.48-1.11l0.06-7.35l2.48,2.44l-0.04,5.6
		c-0.01,0.46,0.33,0.91,0.87,1.06c0.76,0.21,1.38-0.32,1.48-1.11l-0.02-3.28l1.73,1.77c0.45,0.48,1.16,0.44,1.64-0.01
		s0.44-1.16-0.01-1.64l-1.73-1.77l3.28-0.02c0.57,0.04,1.19-0.49,1.12-1.09c-0.13-0.39-0.69-0.89-1.29-0.83l-5.46-0.12l-2.48-2.44
		l7.35,0.06c0.57,0.04,1.19-0.49,1.12-1.09c0.04-0.57-0.49-1.19-1.09-1.12l-9.56-0.09l-1.65-1.63c1.51-1.22,3.28-2.13,5.29-2.62
		c0.39-0.13,0.69-0.39,0.81-0.83c0.12-0.43-0.01-0.82-0.27-1.13c-1.54-1.6-2.67-3.43-3.27-5.47l2.53-0.7l8.23,4.87
		c0.51,0.26,1.25,0.12,1.51-0.4c0.26-0.51,0.12-1.25-0.4-1.51l-6.32-3.75l3.38-0.81l4.82,2.86c0.51,0.26,1.25,0.12,1.51-0.4
		c0.26-0.51,0.12-1.25-0.4-1.51l-2.8-1.71l2.39-0.62c0.63-0.17,0.92-0.8,0.86-1.4c-0.04-0.15-0.11-0.28-0.2-0.39h-3l-0.59,0.15
		l0.09-0.15h-2.65l-0.58,0.92L50.1,7.24l1.02-1.73h-2.56l-1.49,2.52l-2.53,0.7c-0.15-1.07-0.18-2.14-0.1-3.22h-2.36
		c-0.08,1.27-0.03,2.52,0.21,3.76l-7.71,2.06l1.62-5.82h-2.34l-1.42,5.11L27.4,5.51h-4.29c-0.06,0-0.11,0.01-0.17,0.01
		c-1.44,1.14-3.11,1.97-4.97,2.47c-0.39,0.13-0.69,0.39-0.81,0.83s0.01,0.82,0.27,1.13c1.46,1.46,2.4,3.13,3.17,4.98l-2.26,0.54
		l-7.92-4.68c-0.53,0.53-1.01,1.1-1.47,1.69c0.01,0.01,0.02,0.02,0.03,0.03l6.32,3.75l-3.38,0.81L7.6,14.49
		c-0.37,0.64-0.71,1.3-1,1.99l2.19,1.35L6.4,18.44c-0.26,0.07-0.44,0.23-0.58,0.41c-0.09,0.34-0.19,0.68-0.25,1.03
		C5.75,20.48,6.35,20.76,6.94,20.7z M42.82,11.52c0.55,1.79,1.46,3.56,2.68,5.07c-1.68,0.58-3.24,1.55-4.61,2.69l-5.75-5.81
		L42.82,11.52z M33.55,15.02l5.75,5.81c-1.35,1.49-2.38,3.08-3.14,4.97c-1.42-1.21-3.06-2.02-4.85-2.75L33.55,15.02z M29.11,22.55
		c-1.84-0.51-3.7-0.56-5.54-0.26c0.3-1.91,0.27-3.9-0.15-5.77l7.92-2L29.11,22.55z M20.33,9.58c1.82-0.66,3.52-1.71,4.92-2.96
		l5.56,5.64l-7.92,2C22.3,12.58,21.44,11.06,20.33,9.58z"/>
	<path fill="#C7EBF8" d="M24.06,267.9c0.73,0.36,1.54,0.08,1.9-0.64l1.88-3.82l1.01,2.99c0.28,0.81,1,1.17,1.82,0.9
		c0.81-0.28,1.17-1,0.9-1.82l-1.01-2.99l3.82,1.88c0.73,0.36,1.54,0.08,1.9-0.64c0.36-0.73,0.08-1.54-0.64-1.9l-6.23-3.19
		l-1.43-4.21l8.37,4.13c0.73,0.36,1.54,0.08,1.9-0.64c0.36-0.73,0.08-1.54-0.64-1.9l-10.91-5.38l-0.92-2.72
		c2.49-0.69,5.16-0.84,7.8-0.22c0.5,0.13,1.04-0.05,1.36-0.46c0.32-0.41,0.45-0.91,0.26-1.45c-0.88-2.58-1.07-5.39-0.77-8.07
		l2.95,0.66l6.76,10.12c0.32,0.5,1,0.72,1.68,0.49c0.95-0.32,1.22-1.32,0.76-2.23l-5.21-7.77l4.36,0.79l3.98,5.92
		c0.32,0.5,1,0.72,1.68,0.49c0.95-0.32,1.22-1.32,0.76-2.23l-2.38-3.43l3.09,0.62c0.82,0.18,1.54-0.37,1.72-1.19
		c0.18-0.82-0.37-1.54-1.19-1.72l-3.09-0.62l3.43-2.38c0.63-0.37,0.9-1.37,0.4-1.95c-0.41-0.32-1.36-0.45-1.95,0.06l-5.83,3.79
		l-4.36-0.79l7.77-5.21c0.63-0.37,0.9-1.37,0.4-1.95c-0.37-0.63-1.37-0.9-1.95-0.4l-10.12,6.76l-2.9-0.53
		c0.71-2.36,1.93-4.59,3.68-6.55c0.32-0.41,0.45-0.91,0.26-1.45c-0.18-0.54-0.59-0.86-1.09-0.99c-2.77-0.58-5.27-1.7-7.36-3.41
		l2.16-2.55l12.15-0.79c0.73-0.09,1.4-0.78,1.31-1.5c-0.09-0.73-0.78-1.4-1.5-1.31l-9.34,0.59l2.98-3.28l7.12-0.45
		c0.73-0.09,1.4-0.78,1.31-1.5c-0.09-0.73-0.78-1.4-1.5-1.31l-4.17,0.2l2.07-2.37c0.54-0.64,0.4-1.5-0.1-2.09
		c-0.64-0.54-1.5-0.4-2.09,0.1l-2.07,2.37l-0.2-4.17c-0.09-0.73-0.78-1.4-1.5-1.31s-1.4,0.78-1.31,1.5l0.26,7.03l-2.98,3.28
		l-0.59-9.34c-0.09-0.73-0.78-1.4-1.5-1.31c-0.73,0.09-1.4,0.78-1.31,1.5l0.79,12.15l-2.16,2.55c-1.69-1.85-3.01-3.97-3.84-6.42
		c-0.18-0.54-0.59-0.86-1.09-0.99c-0.5-0.13-1.04,0.05-1.36,0.46c-1.76,1.96-3.97,3.47-6.32,4.57l-1.11-3.26l5.38-10.91
		c0.36-0.73,0.08-1.54-0.64-1.9c-0.73-0.36-1.54-0.08-1.9,0.64l-4.26,8.41l-1.43-4.21l3.14-6.36c0.36-0.73,0.08-1.54-0.64-1.9
		c-0.73-0.36-1.54-0.08-1.9,0.64l-1.88,3.82l-1.01-2.99c-0.28-0.81-1-1.17-1.82-0.9c-0.81,0.28-1.17,1-0.9,1.82l1.01,2.99
		l-2.69-1.33v3.17l3.98,1.96l1.43,4.21l-5.41-2.67v3.17l6.7,3.3l1.11,3.26c-2.49,0.69-5.16,0.84-7.8,0.22c0,0,0,0,0,0v16.8
		c0.63-1.29,1.14-2.63,1.48-3.97l9.9,1.94l-6.9,7.79c-1.38-1.02-2.87-1.84-4.47-2.5v3.38c0.86,0.43,1.71,0.9,2.54,1.44l-1.98,2.19
		l-0.55,0.04v5.58l0.67,8.57c0.09,0.73,0.78,1.4,1.5,1.31c0.72-0.09,1.4-0.78,1.31-1.5L7.9,248.39l1.94-2.32
		c1.87,1.94,3.38,4.15,4.3,6.87c0.18,0.54,0.59,0.86,1.09,0.99c0.5,0.13,1.04-0.05,1.36-0.46c1.76-1.96,3.97-3.47,6.32-4.57
		l0.92,2.72l-5.38,10.91c-0.36,0.73-0.08,1.54,0.64,1.9c0.73,0.36,1.54,0.08,1.9-0.64l4.13-8.37l1.43,4.21l-3.14,6.36
		C23.05,266.72,23.33,267.54,24.06,267.9z M28.69,224.84c1.87,1.49,4.1,2.7,6.46,3.41c-1.35,1.82-2.29,3.96-2.92,6.14l-10.21-1.99
		L28.69,224.84z M22.66,217.34c1.01,2.08,2.24,3.93,3.84,5.51l-6.63,7.7l-3.18-9.37C18.82,220.31,20.95,218.98,22.66,217.34z
		 M7.22,229.4c0.31-2.22,0.16-4.44-0.31-6.71c2.36,0.26,4.67-0.07,7.02-0.72l3.18,9.37L7.22,229.4z M16.17,249.98
		c-1.05-2.22-2.52-4.29-4.29-5.96l6.9-7.79l3.41,10.05C19.87,247.06,17.88,248.34,16.17,249.98z M24.85,245.22l-3.41-10.05
		l10.21,1.99c-0.35,2.54-0.29,4.94,0.27,7.48C29.56,244.38,27.25,244.71,24.85,245.22z"/>
	<path fill="#C7EBF8" d="M371.13,279.49l-2.83-1.57l3.76-1.01c0.33-1.19,0.53-2.44,0.61-3.72l-8.54,2.29l-3.13-1.74
		c1.74-2.44,4.01-4.53,6.79-6.1c0.52-0.35,0.87-0.87,0.87-1.57s-0.35-1.22-0.87-1.57c-2.96-1.74-5.4-4.01-7.14-6.79l3.48-2.09
		l8.6,2.31v-3.55l-4.42-1.19l4.42-2.45v-8.18l-1.46,4.89l-4.7,2.61l2.96-10.97c0.17-0.87-0.35-1.92-1.22-2.09
		c-0.87-0.17-1.92,0.35-2.09,1.22l-3.83,14.28l-3.48,2.09c-1.22-2.79-1.92-5.75-1.92-8.88c0-0.7-0.35-1.22-0.87-1.57
		c-0.52-0.35-1.22-0.35-1.74,0c-2.79,1.57-5.92,2.44-9.06,2.79v-4.18l10.45-10.45c0.7-0.7,0.7-1.74,0-2.44s-1.74-0.7-2.44,0
		l-8.19,8.01v-5.4l6.1-6.1c0.7-0.7,0.7-1.74,0-2.44s-1.74-0.7-2.44,0l-3.66,3.66v-3.83c0-1.04-0.7-1.74-1.74-1.74
		s-1.74,0.7-1.74,1.74v3.83l-3.66-3.66c-0.7-0.7-1.74-0.7-2.44,0s-0.7,1.74,0,2.44l6.1,6.1v5.4l-8.01-8.01c-0.7-0.7-1.74-0.7-2.44,0
		c-0.7,0.7-0.7,1.74,0,2.44l10.45,10.45v4.18c-3.13-0.17-6.27-1.04-9.06-2.79c-0.52-0.35-1.22-0.35-1.74,0
		c-0.52,0.35-0.87,0.87-0.87,1.57c0,3.13-0.7,6.1-1.92,8.88l-3.48-2.09l-3.83-14.28c-0.17-0.87-1.22-1.57-2.09-1.22
		c-0.87,0.17-1.57,1.22-1.22,2.09l2.96,10.97l-4.88-2.61l-2.26-8.36c-0.17-0.87-1.22-1.57-2.09-1.22c-0.87,0.17-1.57,1.22-1.22,2.09
		l1.39,4.88l-3.31-1.92c-0.87-0.52-1.92-0.17-2.44,0.7c-0.52,0.87-0.17,1.92,0.7,2.44l3.31,1.92l-4.88,1.39
		c-0.87,0.17-1.57,1.22-1.22,2.09c0.17,0.87,1.22,1.39,2.09,1.22l8.19-2.09l4.7,2.61l-10.97,2.96c-0.87,0.17-1.57,1.22-1.22,2.09
		c0.17,0.87,1.22,1.39,2.09,1.22l14.28-3.83l3.48,2.09c-1.74,2.79-4.18,5.05-7.14,6.79c-0.52,0.35-0.87,0.87-0.87,1.57
		c0,0.7,0.35,1.22,0.87,1.57c2.79,1.57,4.88,3.66,6.79,6.1l-3.13,1.74l-14.28-3.83c-0.87-0.17-1.92,0.35-2.09,1.22
		c-0.17,0.87,0.35,1.92,1.22,2.09l10.97,2.96l-4.7,2.61l-8.36-2.26c-0.87-0.17-1.92,0.35-2.09,1.22c-0.17,0.87,0.35,1.92,1.22,2.09
		l4.88,1.39l-3.31,1.92c-0.87,0.52-1.04,1.57-0.7,2.44c0.52,0.87,1.57,1.04,2.44,0.7l3.31-1.92l-1.15,4.01h3.53l1.79-6.62l4.7-2.61
		l-2.35,9.24h3.57l3.13-11.67l3.13-1.92c1.39,2.96,2.26,6.1,2.26,9.58c0,0.7,0.35,1.22,0.87,1.57s1.22,0.35,1.74,0
		c2.79-1.57,5.92-2.44,9.06-2.79v3.48l-1.75,1.75h7.15l-1.75-1.75v-3.48c3.13,0.17,6.27,1.04,9.06,2.79c0.52,0.35,1.22,0.35,1.74,0
		s0.87-0.87,0.87-1.57c0-3.31,0.87-6.62,2.26-9.58l3.13,1.92l2.35,8.76c1.12-0.73,2.15-1.58,3.07-2.54l-1.07-3.96l2.97,1.65
		C370.14,281.45,370.67,280.49,371.13,279.49z M328.93,271.82c-1.57-2.26-3.48-4.18-5.75-5.92c2.44-1.74,4.53-4.01,6.1-6.44
		l10.62,6.1L328.93,271.82z M341.65,281.57c-2.96,0-5.75,0.7-8.36,1.92c-0.35-2.96-1.22-5.92-2.61-8.53l10.97-6.27V281.57z
		 M341.65,262.41l-10.62-6.1c1.22-2.44,1.92-5.05,2.26-7.84c2.61,1.22,5.4,1.74,8.36,1.92V262.41z M345.13,250.57
		c2.79-0.17,5.75-0.87,8.36-2.09c0.35,2.79,1.04,5.4,2.26,7.84l-10.62,6.27V250.57z M353.49,283.49c-2.61-1.22-5.4-1.74-8.36-2.09
		v-12.89l10.97,6.27C354.71,277.56,353.84,280.35,353.49,283.49z M357.84,271.82l-10.97-6.27l10.62-6.1c1.57,2.44,3.66,4.7,6.1,6.44
		C361.33,267.46,359.41,269.55,357.84,271.82z"/>
</g>
</svg>
