<?xml version="1.0" encoding="utf-8"?>
<!-- Generator: Adobe Illustrator 21.0.0, SVG Export Plug-In . SVG Version: 6.00 Build 0)  -->
<svg version="1.2" baseProfile="tiny" id="Capa_1" xmlns="http://www.w3.org/2000/svg" xmlns:xlink="http://www.w3.org/1999/xlink"
	 x="0px" y="0px" viewBox="0 0 379 296" xml:space="preserve">
<path fill="#F4F4F4" d="M355.5,292.7H23.8c-9.9,0-17.9-8-17.9-17.9V26c0-9.9,8-17.9,17.9-17.9h331.7c9.9,0,17.9,8,17.9,17.9v248.7
	C373.4,284.7,365.4,292.7,355.5,292.7z"/>
<g>
	<path fill="#434A53" d="M77.4,136.9l11-23.3c-3.7-5.1-8.6-8.1-13.9-8.1c-12.2,0-21.7,15.7-21.7,35.7c0,20,9.5,35.7,21.7,35.7
		c12.2,0,21.7-15.7,21.7-35.7c0-5.4-0.7-10.4-1.9-15L77.4,136.9z"/>
</g>
<g>
	<path fill="#434A53" d="M315.5,136.9l11-23.3c-3.7-5.1-8.6-8.1-13.9-8.1c-12.2,0-21.7,15.7-21.7,35.7c0,20,9.5,35.7,21.7,35.7
		c12.2,0,21.7-15.7,21.7-35.7c0-5.4-0.7-10.4-1.9-15L315.5,136.9z"/>
</g>
<line fill="none" stroke="#434A53" stroke-width="13" stroke-linecap="round" stroke-miterlimit="10" x1="329.7" y1="67.6" x2="285.6" y2="87.2"/>
<path fill="none" stroke="#434A53" stroke-width="13" stroke-linecap="round" stroke-miterlimit="10" d="M48.1,86.7
	c0,0,27.2-24,51.6,0"/>
<path fill="none" stroke="#434A53" stroke-width="13" stroke-linecap="round" stroke-miterlimit="10" d="M157.3,242
	c0,0,26.7-24.7,75.3-23.3"/>
<g>
	<path fill="#4FC2E9" d="M364.3,28.6c1,9.4-8.7,16.7-11.7,22.7c-1.4,3.1-0.3,5.5,0,7.9c0.2,2-5.9,4.3-6.2,1.7
		c-0.2-1.6-0.8-7.9,0.5-10.9c2.6-6.7,11.9-14.5,11.3-20.5c-0.3-3-1.7-4.1-3.2-5c-2.2-1.3-4.2-1.1-7-0.9c-4.2,0.4-7.1,2.9-7.8,8.1
		c-0.2,0.8,0,2,0.4,3.9c0.3,3.4-5.5,6.2-6,2.7c-1.1-4.3-1.3-10.4,2.5-15c2.9-3.4,6.8-5.2,11.4-5.7C354.5,16.9,363.2,19.2,364.3,28.6
		z M353.6,67.7c0,2.2-1.3,4.2-3.4,3.6c-4.3-0.5-4.4-7.1,0.4-7.5C352.9,63.9,353.5,66.4,353.6,67.7z"/>
</g>
</svg>
