<?xml version="1.0" encoding="utf-8"?>
<!-- Generator: Adobe Illustrator 21.0.0, SVG Export Plug-In . SVG Version: 6.00 Build 0)  -->
<svg version="1.2" baseProfile="tiny" id="Capa_1" xmlns="http://www.w3.org/2000/svg" xmlns:xlink="http://www.w3.org/1999/xlink"
	 x="0px" y="0px" viewBox="0 0 379 296" xml:space="preserve">
<path fill="#F4F4F4" d="M355.5,290.7H23.8c-9.9,0-17.9-8-17.9-17.9V24c0-9.9,8-17.9,17.9-17.9h331.7c9.9,0,17.9,8,17.9,17.9v248.7
	C373.4,282.7,365.3,290.7,355.5,290.7z"/>
<line fill="none" stroke="#434A53" stroke-width="11" stroke-linecap="round" stroke-miterlimit="10" x1="154.2" y1="229.7" x2="227.2" y2="229.7"/>
<path fill="none" stroke="#434A53" stroke-width="10.4805" stroke-linecap="round" stroke-miterlimit="10" d="M87.7,134.3
	c0,19.8-9.9,35.9-22.1,35.9s-22.1-16.1-22.1-35.9"/>
<path fill="none" stroke="#434A53" stroke-width="10.4805" stroke-linecap="round" stroke-miterlimit="10" d="M335.7,134.3
	c0,19.8-9.9,35.9-22.1,35.9c-12.2,0-22.1-16.1-22.1-35.9"/>
<path fill="none" stroke="#434A53" stroke-width="13" stroke-linecap="round" stroke-miterlimit="10" d="M89.9,49.6
	c0,0-13.8,25.6-54.2,21"/>
<path fill="none" stroke="#434A53" stroke-width="13" stroke-linecap="round" stroke-miterlimit="10" d="M285,49.6
	c0,0,13.8,25.6,54.2,21"/>
</svg>
