<?xml version="1.0" encoding="utf-8"?>
<!-- Generator: Adobe Illustrator 21.0.0, SVG Export Plug-In . SVG Version: 6.00 Build 0)  -->
<svg version="1.2" baseProfile="tiny" id="Capa_1" xmlns="http://www.w3.org/2000/svg" xmlns:xlink="http://www.w3.org/1999/xlink"
	 x="0px" y="0px" viewBox="0 0 379 296" xml:space="preserve">
<path fill="#FFFFFF" d="M355.9,291.3H24.2c-9.9,0-17.9-8-17.9-17.9V24.6c0-9.9,8-17.9,17.9-17.9h331.7c9.9,0,17.9,8,17.9,17.9v248.7
	C373.8,283.3,365.8,291.3,355.9,291.3z"/>
<g>
	<path fill="#434A53" d="M53.9,125.7c0,9.6,3.9,18.2,10.1,24.6c13,0.3,38.3,1,48.3,1.3c7-6.4,11.4-15.6,11.4-25.8
		c0-1.3-0.1-2.6-0.2-3.9c-15.1-2.7-46.9-12-62.8-16.7C56.4,110.8,53.9,118,53.9,125.7z"/>
</g>
<path fill="#434A53" stroke="#434A53" stroke-width="5.9958" stroke-linecap="round" stroke-linejoin="round" stroke-miterlimit="10" d="
	M246,233.2h-99.7c0,0,7.7-30.8,48.2-32C235.1,199.9,246,233.2,246,233.2z"/>
<line fill="none" stroke="#434A53" stroke-width="12.8621" stroke-linecap="round" stroke-miterlimit="10" x1="74.3" y1="65" x2="126.4" y2="88.3"/>
<circle fill="#FFFFFF" cx="109.1" cy="125.7" r="10"/>
<line fill="none" stroke="#434A53" stroke-width="12.8621" stroke-linecap="round" stroke-miterlimit="10" x1="314.2" y1="65" x2="262.2" y2="88.3"/>
<path fill="#ED5463" d="M185.8,224.7c-11.4-4.7-23.8-2.8-33.4,5c-2.4,1.9-4.3,5.2-5.5,8s-1.2,6.3,0.4,8.9c2,3.2,6,4.5,9.7,5.1
	c6.5,1,13.2,0.5,19.4-1.4c9.7-3,18-9.4,27.2-13.9c6.1-3,12.2-7.6,18.9-8.7"/>
<polyline fill="none" stroke="#434A53" stroke-width="15.6927" stroke-linecap="round" stroke-linejoin="round" stroke-miterlimit="10" points="
	326.1,105.6 267.7,138.8 314.4,144.3 "/>
</svg>
