<?xml version="1.0" encoding="utf-8"?>
<!-- Generator: Adobe Illustrator 21.0.0, SVG Export Plug-In . SVG Version: 6.00 Build 0)  -->
<svg version="1.2" baseProfile="tiny" id="Capa_1" xmlns="http://www.w3.org/2000/svg" xmlns:xlink="http://www.w3.org/1999/xlink"
	 x="0px" y="0px" viewBox="0 0 379 296" xml:space="preserve">
<path fill="#F4F4F4" d="M355,290.7H23.3c-9.9,0-17.9-8-17.9-17.9V24c0-9.9,8-17.9,17.9-17.9H355c9.9,0,17.9,8,17.9,17.9v248.7
	C372.9,282.7,364.9,290.7,355,290.7z"/>
<path fill="#434A53" stroke="#434A53" stroke-width="6.7565" stroke-linecap="round" stroke-linejoin="round" stroke-miterlimit="10" d="
	M242.6,233H134c0,0,8.4-35.9,52.6-37.3C230.7,194.3,242.6,233,242.6,233z"/>
<circle fill="#434A53" cx="86.7" cy="141.1" r="32.5"/>
<circle fill="#434A53" cx="290.4" cy="141.1" r="32.5"/>
<circle fill="#FFFFFF" cx="107.2" cy="141.8" r="9.3"/>
<circle fill="#FFFFFF" cx="311" cy="145.1" r="9.3"/>
<path fill="#F4F4F4" d="M112,106.8c4.9,1.9-65.6,31.6-65.6,31.6S58.1,85.4,112,106.8z"/>
<path fill="none" stroke="#434A53" stroke-width="12" stroke-linecap="round" stroke-miterlimit="10" d="M36.3,96
	c2.5-1.4,28.7-28,58.4-17.6"/>
<path fill="#F4F4F4" d="M262.7,109.5c-4.7,2.3,67.7,26.6,67.7,26.6S314.9,84.1,262.7,109.5z"/>
<path fill="none" stroke="#434A53" stroke-width="12" stroke-linecap="round" stroke-miterlimit="10" d="M339.2,96
	c-2.5-1.4-28.7-28-58.4-17.6"/>
<path fill="#ED5463" d="M179,223c-12-5-24.2,0.2-34.4,8.5c-2.5,2-4.5,5.5-5.8,8.4c-1.3,3-1.3,6.6,0.4,9.4c2.1,3.4,6.3,4.7,10.2,5.4
	c6.9,1.1,13.9,0.5,20.5-1.5c10.2-3.2,19-9.9,28.7-14.7c6.4-3.2,11.8-10.9,18.8-12"/>
<path fill="#4FC2E9" d="M30.6,17.5c0,0-33.6,48.6,0,50.4C63.7,69.8,30.6,17.5,30.6,17.5z"/>
</svg>
