<?xml version="1.0" encoding="utf-8"?>
<!-- Generator: Adobe Illustrator 24.0.1, SVG Export Plug-In . SVG Version: 6.00 Build 0)  -->
<svg version="1.2" baseProfile="tiny" id="Capa_1" xmlns="http://www.w3.org/2000/svg" xmlns:xlink="http://www.w3.org/1999/xlink"
	 x="0px" y="0px" viewBox="0 0 379 296" xml:space="preserve">
<path fill="#FFFFFF" d="M355.86,290.37H24.16c-9.89,0-17.91-8.02-17.91-17.91V23.72c0-9.89,8.02-17.91,17.91-17.91h331.7
	c9.89,0,17.91,8.02,17.91,17.91v248.75C373.76,282.35,365.75,290.37,355.86,290.37z"/>
<circle fill="#434A53" cx="80.07" cy="126.02" r="31.51"/>
<circle fill="#FFFFFF" cx="103.31" cy="123.38" r="14.79"/>
<circle fill="#434A53" cx="294.77" cy="126.02" r="31.51"/>
<circle fill="#FFFFFF" cx="318" cy="123.38" r="14.79"/>
<path fill="#FFFFFF" d="M39,125.27c0,0,35.48-25.09,72.76-26.52C111.76,98.74,55.84,60.75,39,125.27z"/>
<path fill="#FFFFFF" d="M115.71,142.21c0,0-42.28,10.04-77.4-2.53C38.3,139.68,76.01,195.79,115.71,142.21z"/>
<path fill="#FFFFFF" d="M332.1,142.21c0,0-42.28,10.04-77.4-2.53C254.7,139.68,292.4,195.79,332.1,142.21z"/>
<path fill="#FFFFFF" d="M255.48,125.27c0,0,35.48-25.09,72.76-26.52C328.24,98.74,272.33,60.75,255.48,125.27z"/>
<g>
	<path fill="#434A53" d="M35.84,103.5c19.51-0.49,38.9-6.87,54.82-18.18c4.64-3.3,9.04-6.96,13.05-11c1.85-1.86,1.99-5.24,0-7.07
		c-1.99-1.83-5.1-1.98-7.07,0c-1.62,1.63-3.29,3.2-5.03,4.71c-0.82,0.71-1.65,1.4-2.49,2.08c-0.42,0.34-0.85,0.67-1.27,1.01
		c0.79-0.62,0.22-0.17,0.05-0.04c-0.33,0.24-0.65,0.49-0.97,0.73c-3.7,2.73-7.6,5.18-11.65,7.34c-2.03,1.08-4.1,2.09-6.2,3.02
		c-0.29,0.13-1.72,0.74-0.67,0.3c-0.5,0.21-1,0.41-1.5,0.61c-1.13,0.45-2.27,0.88-3.42,1.29c-4.27,1.52-8.64,2.73-13.08,3.62
		c-1.26,0.25-2.52,0.48-3.79,0.68c-0.27,0.04-0.53,0.08-0.8,0.12c-0.18,0.03-1.56,0.24-0.28,0.05c-0.6,0.09-1.21,0.15-1.81,0.22
		c-2.62,0.29-5.25,0.46-7.89,0.53c-2.61,0.07-5.12,2.25-5,5C30.96,101.16,33.04,103.57,35.84,103.5L35.84,103.5z"/>
</g>
<g>
	<path fill="#434A53" d="M347.47,93.5c-2.3-0.06-4.59-0.19-6.88-0.42c-0.54-0.05-1.08-0.11-1.61-0.17c-0.27-0.03-0.54-0.07-0.8-0.1
		c-0.96-0.12-0.04,0.01,0.12,0.02c-1.18-0.03-2.44-0.37-3.6-0.58c-4.52-0.82-8.98-1.96-13.34-3.43c-2.18-0.73-4.33-1.55-6.45-2.43
		c1.02,0.42-0.38-0.17-0.67-0.3c-0.49-0.22-0.99-0.44-1.48-0.67c-1.1-0.51-2.2-1.05-3.28-1.6c-4.03-2.06-7.92-4.41-11.61-7.02
		c-0.5-0.35-0.99-0.71-1.48-1.07c-0.27-0.2-0.54-0.4-0.81-0.61c-0.39-0.29-0.65-0.5-0.11-0.08c-1.01-0.79-2.01-1.6-2.99-2.43
		c-2.01-1.71-3.94-3.5-5.8-5.37c-1.85-1.86-5.25-1.99-7.07,0c-1.84,2-1.97,5.09,0,7.07c13.73,13.82,31.73,23.48,50.84,27.27
		c5.6,1.11,11.31,1.77,17.03,1.91c2.62,0.07,5.12-2.35,5-5C352.34,95.74,350.27,93.57,347.47,93.5L347.47,93.5z"/>
</g>
<g>
	<path fill="#434A53" d="M51.13,157.96c8.77,1.93,17.62,3.84,26.62,4.28c8.45,0.41,16.95-0.71,24.95-3.49
		c4.38-1.52,8.6-3.5,12.57-5.89c2.06-1.25,0.18-4.49-1.89-3.24c-6.73,4.06-14.14,6.82-21.89,8.14c-8.21,1.39-16.62,0.85-24.8-0.49
		c-4.89-0.8-9.73-1.86-14.56-2.92C49.78,153.83,48.77,157.44,51.13,157.96L51.13,157.96z"/>
</g>
<g>
	<path fill="#434A53" d="M269.47,156.29c13.33,7.55,29.91,8.84,44.33,3.75c4.07-1.43,7.96-3.35,11.54-5.75
		c2-1.33,0.12-4.58-1.89-3.24c-11.89,7.95-27.09,10.27-40.87,6.58c-3.93-1.05-7.68-2.58-11.21-4.59
		C269.26,151.86,267.37,155.1,269.47,156.29L269.47,156.29z"/>
</g>
<path fill="#434A53" stroke="#434A53" stroke-width="7.4456" stroke-linecap="round" stroke-linejoin="round" stroke-miterlimit="10" d="
	M243.72,245.95H132.95c0,0,8.55-42.73,53.59-44.45S243.72,245.95,243.72,245.95z"/>
<path fill="#ED5463" d="M218.15,243.67h-59.52c0,0,4.6-21.58,28.8-22.45C211.63,220.36,218.15,243.67,218.15,243.67z"/>
<g>
	<path fill="#434A53" d="M62.03,170.62c14.39,4.92,31.42,6.28,44.38-3.1c0.83-0.6,1.21-1.62,0.67-2.57
		c-0.46-0.82-1.75-1.26-2.57-0.67c-12.21,8.84-27.96,7.35-41.5,2.72C60.74,166.23,59.76,169.85,62.03,170.62L62.03,170.62z"/>
</g>
<g>
	<path fill="#434A53" d="M277.21,170.62c14.39,4.92,31.42,6.28,44.38-3.1c0.83-0.6,1.21-1.62,0.67-2.57
		c-0.46-0.82-1.75-1.26-2.57-0.67c-12.21,8.84-27.96,7.35-41.5,2.72C275.92,166.23,274.93,169.85,277.21,170.62L277.21,170.62z"/>
</g>
</svg>
