<?xml version="1.0" encoding="utf-8"?>
<!-- Generator: Adobe Illustrator 24.0.1, SVG Export Plug-In . SVG Version: 6.00 Build 0)  -->
<svg version="1.2" baseProfile="tiny" id="Capa_1" xmlns="http://www.w3.org/2000/svg" xmlns:xlink="http://www.w3.org/1999/xlink"
	 x="0px" y="0px" viewBox="0 0 379 296" xml:space="preserve">
<path fill="#FFFFFF" d="M355.45,290.21H23.75c-9.9,0-17.9-8-17.9-17.9V23.51c0-9.9,8-17.9,17.9-17.9h331.7c9.9,0,17.9,8,17.9,17.9
	v248.7C373.35,282.21,365.25,290.21,355.45,290.21z"/>
<line fill="none" stroke="#434A53" stroke-width="12.5234" stroke-linecap="round" stroke-miterlimit="10" x1="58.25" y1="51.21" x2="98.97" y2="77.14"/>
<line fill="none" stroke="#434A53" stroke-width="12.5234" stroke-linecap="round" stroke-miterlimit="10" x1="321.73" y1="51.21" x2="281.01" y2="77.14"/>
<circle fill="#434A53" cx="81.06" cy="147.95" r="33.85"/>
<circle fill="#FFFFFF" cx="100.68" cy="143.32" r="12.66"/>
<circle fill="#434A53" cx="297" cy="147.95" r="33.85"/>
<circle fill="#FFFFFF" cx="316.62" cy="143.32" r="12.66"/>
<g>
	<path fill="#434A53" d="M113.67,247.23c8.46-5.44,17.35-10.18,26.55-14.24c0.54-0.24,1.08-0.48,1.63-0.71
		c0.25-0.11,1.82-0.77,0.8-0.34c1.23-0.51,2.46-1.02,3.7-1.51c2.34-0.93,4.69-1.81,7.06-2.66c4.74-1.7,9.54-3.23,14.39-4.61
		c9.98-2.85,20.15-5.03,30.4-6.65c1.28-0.2,2.56-0.4,3.85-0.58c0.64-0.09,1.28-0.18,1.93-0.27c0.18-0.03,1.03-0.13,0.06-0.01
		c0.4-0.05,0.8-0.11,1.21-0.16c2.73-0.35,5.47-0.66,8.21-0.94c5.49-0.55,10.99-0.96,16.49-1.23c12.4-0.63,24.82-0.59,37.23-0.1
		c2.72,0.11,5.33-2.47,5.21-5.21c-0.13-2.91-2.29-5.09-5.21-5.21c-22.61-0.9-45.24-0.16-67.65,3.04
		c-20.51,2.93-40.72,8.11-59.84,16.13c-10.86,4.55-21.35,9.89-31.26,16.26c-2.29,1.47-3.44,4.69-1.87,7.12
		C108.03,247.65,111.22,248.8,113.67,247.23L113.67,247.23z"/>
</g>
</svg>
