<?xml version="1.0" encoding="utf-8"?>
<!-- Generator: Adobe Illustrator 21.0.0, SVG Export Plug-In . SVG Version: 6.00 Build 0)  -->
<svg version="1.2" baseProfile="tiny" id="Capa_1" xmlns="http://www.w3.org/2000/svg" xmlns:xlink="http://www.w3.org/1999/xlink"
	 x="0px" y="0px" viewBox="0 0 379 296" xml:space="preserve">
<path fill="#FFFFFF" d="M355.5,290.7H23.8c-9.9,0-17.9-8-17.9-17.9V24c0-9.9,8-17.9,17.9-17.9h331.7c9.9,0,17.9,8,17.9,17.9v248.7
	C373.4,282.7,365.3,290.7,355.5,290.7z"/>
<g>
	<path fill="none" stroke="#434A53" stroke-width="4.5826" stroke-linecap="round" stroke-miterlimit="10" d="M321.5,36.9
		c0,0,24.4,1.5,10.8,22.1"/>
	<path fill="none" stroke="#434A53" stroke-width="4.5826" stroke-linecap="round" stroke-miterlimit="10" d="M346.1,18.7
		c0,0-1.1,24.7-21.6,10.6"/>
	<path fill="none" stroke="#434A53" stroke-width="4.5826" stroke-linecap="round" stroke-miterlimit="10" d="M364.4,43.2
		c0,0-24.4-1.5-10.8-22.1"/>
	<path fill="none" stroke="#434A53" stroke-width="4.5826" stroke-linecap="round" stroke-miterlimit="10" d="M339.8,61.4
		c0,0,1.1-24.7,21.6-10.6"/>
</g>
<line fill="none" stroke="#434A53" stroke-width="12.0256" stroke-linecap="round" stroke-miterlimit="10" x1="63.5" y1="55.5" x2="102.6" y2="80.4"/>
<line fill="none" stroke="#434A53" stroke-width="12.0256" stroke-linecap="round" stroke-miterlimit="10" x1="316.5" y1="55.5" x2="277.4" y2="80.4"/>
<circle fill="#434A53" cx="85.4" cy="148.4" r="32.5"/>
<circle fill="#434A53" cx="299.2" cy="148.4" r="32.5"/>
<circle fill="#FFFFFF" cx="100.1" cy="142.7" r="9.3"/>
<circle fill="#FFFFFF" cx="316.1" cy="142.7" r="9.3"/>
<g>
	<path fill="#434A53" d="M252.3,243.2H123.8c0,0,9.9-43.2,62.1-45C238.2,196.5,252.3,243.2,252.3,243.2z"/>
	<g>
		<path fill="#FFFFFF" d="M146,218.4v-6.9c-3.7,2.8-6.8,5.8-9.5,8.8h7.5C145.1,220.3,146,219.4,146,218.4z"/>
		<path fill="#FFFFFF" d="M148.7,218.4c0,1.1,0.9,1.9,1.9,1.9h20.7c1.1,0,1.9-0.9,1.9-1.9v-18c0-0.2,0-0.3-0.1-0.5
			c-10,1.9-18,5.4-24.5,9.7V218.4z"/>
		<path fill="#FFFFFF" d="M176,200.3v18c0,1.1,0.9,1.9,1.9,1.9h20.7c1.1,0,1.9-0.9,1.9-1.9v-18c0-0.4-0.1-0.8-0.3-1.1
			c-4.4-0.7-9.1-1-14.2-0.8c-3.4,0.1-6.7,0.4-9.8,0.9C176.1,199.6,176,200,176,200.3z"/>
		<path fill="#FFFFFF" d="M205.2,220.3H226c1.1,0,1.9-0.9,1.9-1.9v-8c-6.5-4.7-14.6-8.6-24.5-10.5c-0.1,0.2-0.1,0.3-0.1,0.5v18
			C203.3,219.4,204.2,220.3,205.2,220.3z"/>
		<path fill="#FFFFFF" d="M230.6,218.4c0,1.1,0.9,1.9,1.9,1.9h6.3c-2.4-2.7-5.1-5.4-8.2-7.9V218.4z"/>
		<path fill="#FFFFFF" d="M146,241.8v-18c0-1.1-0.9-1.9-1.9-1.9h-8.8c-8.9,10.9-11.3,21.6-11.3,21.6H145
			C145.6,243.1,146,242.5,146,241.8z"/>
		<path fill="#FFFFFF" d="M173.3,241.8v-18c0-1.1-0.9-1.9-1.9-1.9h-20.7c-1.1,0-1.9,0.9-1.9,1.9v18c0,0.7,0.4,1.3,0.9,1.6h22.7
			C172.9,243.1,173.3,242.5,173.3,241.8z"/>
		<path fill="#FFFFFF" d="M200.6,241.8v-18c0-1.1-0.9-1.9-1.9-1.9h-20.7c-1.1,0-1.9,0.9-1.9,1.9v18c0,0.7,0.4,1.3,0.9,1.6h22.7
			C200.2,243.1,200.6,242.5,200.6,241.8z"/>
		<path fill="#FFFFFF" d="M227.9,241.8v-18c0-1.1-0.9-1.9-1.9-1.9h-20.7c-1.1,0-1.9,0.9-1.9,1.9v18c0,0.7,0.4,1.3,0.9,1.6h22.7
			C227.5,243.1,227.9,242.5,227.9,241.8z"/>
		<path fill="#FFFFFF" d="M230.6,223.7v18c0,0.7,0.4,1.3,0.9,1.6h20.8c0,0-3.2-10.7-12.3-21.6h-7.6
			C231.5,221.8,230.6,222.7,230.6,223.7z"/>
	</g>
	<path fill="none" stroke="#434A53" stroke-width="5.2638" stroke-linejoin="round" stroke-miterlimit="10" d="M253.5,243.5H125.1
		c0,0,9.9-43.2,62.1-45C239.5,196.8,253.5,243.5,253.5,243.5z"/>
</g>
</svg>
