<?xml version="1.0" encoding="utf-8"?>
<!-- Generator: Adobe Illustrator 24.0.1, SVG Export Plug-In . SVG Version: 6.00 Build 0)  -->
<svg version="1.2" baseProfile="tiny" id="Capa_1" xmlns="http://www.w3.org/2000/svg" xmlns:xlink="http://www.w3.org/1999/xlink"
	 x="0px" y="0px" viewBox="0 0 379 296" xml:space="preserve">
<path fill="#FFFFFF" d="M355.17,290.55H23.47c-9.89,0-17.91-8.02-17.91-17.91V23.9c0-9.89,8.02-17.91,17.91-17.91h331.7
	c9.89,0,17.91,8.02,17.91,17.91v248.75C373.08,282.53,365.06,290.55,355.17,290.55z"/>
<path fill="#434A53" stroke="#434A53" stroke-width="6.9615" stroke-linecap="round" stroke-linejoin="round" stroke-miterlimit="10" d="
	M132.21,211.16H243.1c0,0-8.56,37.31-53.65,38.81S132.21,211.16,132.21,211.16z"/>
<path fill="#ED5463" d="M211.99,243.34c0,0-5.34-16.66-25.17-16.04s-23.6,16.04-23.6,16.04S184.7,255.19,211.99,243.34z"/>
<path fill="none" stroke="#434A53" stroke-width="11" stroke-linecap="round" stroke-miterlimit="10" d="M34.62,67.4
	c0,0,12.89-19.09,46.77-10.98"/>
<path fill="none" stroke="#434A53" stroke-width="11" stroke-linecap="round" stroke-miterlimit="10" d="M344.76,67.4
	c0,0-12.89-19.09-46.77-10.98"/>
<ellipse fill="#434A53" cx="78.35" cy="128.83" rx="25.58" ry="32.55"/>
<circle fill="#FFFFFF" cx="96.18" cy="118.11" r="11.43"/>
<ellipse fill="#434A53" cx="296.61" cy="128.83" rx="25.58" ry="32.55"/>
<circle fill="#FFFFFF" cx="314.45" cy="118.11" r="11.43"/>
</svg>
