<?xml version="1.0" encoding="utf-8"?>
<!-- Generator: Adobe Illustrator 21.0.0, SVG Export Plug-In . SVG Version: 6.00 Build 0)  -->
<svg version="1.2" baseProfile="tiny" id="Capa_1" xmlns="http://www.w3.org/2000/svg" xmlns:xlink="http://www.w3.org/1999/xlink"
	 x="0px" y="0px" viewBox="0 0 379 296" xml:space="preserve">
<path fill="#FFFFFF" d="M355.5,290.7H23.8c-9.9,0-17.9-8-17.9-17.9V24c0-9.9,8-17.9,17.9-17.9h331.7c9.9,0,17.9,8,17.9,17.9v248.7
	C373.4,282.7,365.3,290.7,355.5,290.7z"/>
<g>
	<path fill="#434A53" d="M52.9,151.4c0,18,14.6,32.5,32.5,32.5c18,0,32.5-14.6,32.5-32.5c0-6.4-1.9-12.4-5.1-17.5
		c-12.5-1.9-32.6-6.2-46.2-9.1C58.3,130.7,52.9,140.4,52.9,151.4z"/>
</g>
<g>
	<path fill="#434A53" d="M270.8,135.4c-2.7,4.7-4.2,10.2-4.2,16c0,18,14.6,32.5,32.5,32.5c18,0,32.5-14.6,32.5-32.5
		c0-8.7-3.4-16.6-9-22.5C308.9,130.9,284.6,134.4,270.8,135.4z"/>
</g>
<g>
	<path fill="none" stroke="#434A53" stroke-width="4.7519" stroke-linecap="round" stroke-miterlimit="10" d="M315.9,38
		c0,0,25.3,1.6,11.2,22.9"/>
	<path fill="none" stroke="#434A53" stroke-width="4.7519" stroke-linecap="round" stroke-miterlimit="10" d="M341.4,19.1
		c0,0-1.1,25.7-22.4,10.9"/>
	<path fill="none" stroke="#434A53" stroke-width="4.7519" stroke-linecap="round" stroke-miterlimit="10" d="M360.3,44.5
		c0,0-25.3-1.6-11.2-22.9"/>
	<path fill="none" stroke="#434A53" stroke-width="4.7519" stroke-linecap="round" stroke-miterlimit="10" d="M334.8,63.4
		c0,0,1.1-25.7,22.4-10.9"/>
</g>
<path fill="#434A53" stroke="#434A53" stroke-width="6.2775" stroke-linecap="round" stroke-linejoin="round" stroke-miterlimit="10" d="
	M237.9,271.7h-100c0,0,7.7-33.6,48.4-35S237.9,271.7,237.9,271.7z"/>
<path fill="#ED5463" d="M214.8,269.9h-53.7c0,0,4.1-17,26-17.7C208.9,251.5,214.8,269.9,214.8,269.9z"/>
<line fill="none" stroke="#434A53" stroke-width="12" stroke-linecap="round" stroke-miterlimit="10" x1="87.6" y1="26.5" x2="118.1" y2="58.4"/>
<line fill="none" stroke="#434A53" stroke-width="12" stroke-linecap="round" stroke-miterlimit="10" x1="287.5" y1="26.5" x2="257.1" y2="58.4"/>
<circle fill="#FFFFFF" cx="100.1" cy="145.7" r="9.3"/>
<circle fill="#FFFFFF" cx="316.1" cy="145.7" r="9.3"/>
</svg>
