<?xml version="1.0" encoding="utf-8"?>
<!-- Generator: Adobe Illustrator 24.0.1, SVG Export Plug-In . SVG Version: 6.00 Build 0)  -->
<svg version="1.2" baseProfile="tiny" id="Capa_1" xmlns="http://www.w3.org/2000/svg" xmlns:xlink="http://www.w3.org/1999/xlink"
	 x="0px" y="0px" viewBox="0 0 379 296" xml:space="preserve">
<path fill="#FFFFFF" d="M355.36,290.47H23.66c-9.9,0-17.9-8-17.9-17.9V23.77c0-9.9,8-17.9,17.9-17.9h331.7c9.9,0,17.9,8,17.9,17.9
	v248.7C373.26,282.47,365.26,290.47,355.36,290.47z"/>
<ellipse fill="#ED5463" cx="63.76" cy="172.36" rx="36.8" ry="17.7"/>
<g>
	<path fill="#CE495C" d="M29.86,165.36c-1.6,1.7-2.6,3.6-2.9,5.6l11.4-11.4c-2.9,1.3-5.4,2.9-7.3,4.6L29.86,165.36z"/>
	<path fill="#CE495C" d="M53.66,155.36c-1.1,0.1-2.1,0.3-3.2,0.5l-21.9,21.9c0.3,0.5,0.7,1,1.2,1.5L53.66,155.36z"/>
	<path fill="#CE495C" d="M65.46,154.76c-0.6,0-1.3,0-1.9,0c-0.2,0-0.5,0-0.7,0l-28.4,28.4c0.5,0.3,1.1,0.7,1.7,1L65.46,154.76z"/>
	<path fill="#CE495C" d="M75.76,155.76c-0.8-0.1-1.5-0.2-2.3-0.3l-31.3,31.3c0.7,0.2,1.3,0.4,2,0.7L75.76,155.76z"/>
	<path fill="#CE495C" d="M84.66,157.96c-0.7-0.2-1.3-0.4-2-0.6l-31.7,31.7c0.8,0.1,1.5,0.2,2.3,0.4L84.66,157.96z"/>
	<path fill="#CE495C" d="M90.66,160.46l-29.5,29.5c0.8,0,1.6,0,2.4,0c0.1,0,0.1,0,0.2,0l28.6-28.6
		C91.86,161.16,91.26,160.86,90.66,160.46z"/>
	<path fill="#CE495C" d="M98.36,166.66c-0.4-0.5-0.8-1-1.2-1.5l-24.3,24.3c1.1-0.1,2.1-0.3,3.1-0.5L98.36,166.66z"/>
	<path fill="#CE495C" d="M98.76,177.46c0.8-1.3,1.3-2.7,1.5-4.1l-12.3,12.3c2.2-0.9,4.1-2,5.8-3.1L98.76,177.46z"/>
</g>
<ellipse fill="#ED5463" cx="316.06" cy="172.36" rx="36.8" ry="17.7"/>
<g>
	<path fill="#CE495C" d="M282.16,165.36c-1.6,1.7-2.6,3.6-2.9,5.6l11.4-11.4c-2.9,1.3-5.4,2.9-7.3,4.6L282.16,165.36z"/>
	<path fill="#CE495C" d="M306.06,155.36c-1.1,0.1-2.1,0.3-3.2,0.5l-21.9,21.9c0.3,0.5,0.7,1,1.2,1.5L306.06,155.36z"/>
	<path fill="#CE495C" d="M317.86,154.76c-0.6,0-1.3,0-1.9,0c-0.2,0-0.5,0-0.7,0l-28.4,28.4c0.5,0.3,1.1,0.7,1.7,1L317.86,154.76z"/>
	<path fill="#CE495C" d="M328.06,155.76c-0.8-0.1-1.5-0.2-2.3-0.3l-31.3,31.3c0.7,0.2,1.3,0.4,2,0.7L328.06,155.76z"/>
	<path fill="#CE495C" d="M337.06,157.96c-0.7-0.2-1.3-0.4-2-0.6l-31.7,31.7c0.8,0.1,1.5,0.2,2.3,0.4L337.06,157.96z"/>
	<path fill="#CE495C" d="M343.06,160.46l-29.5,29.5c0.8,0,1.6,0,2.4,0c0.1,0,0.1,0,0.2,0l28.6-28.6
		C344.16,161.16,343.56,160.86,343.06,160.46z"/>
	<path fill="#CE495C" d="M350.66,166.66c-0.4-0.5-0.8-1-1.2-1.5l-24.3,24.3c1.1-0.1,2.1-0.3,3.1-0.5L350.66,166.66z"/>
	<path fill="#CE495C" d="M351.16,177.46c0.8-1.3,1.3-2.7,1.5-4.1l-12.4,12.3c2.2-0.9,4.1-2,5.8-3.1L351.16,177.46z"/>
</g>
<ellipse fill="#434A53" cx="77.17" cy="135.21" rx="26.27" ry="33.42"/>
<circle fill="#FFFFFF" cx="76.34" cy="159.14" r="11.73"/>
<ellipse fill="#434A53" cx="301.28" cy="135.21" rx="26.27" ry="33.42"/>
<circle fill="#FFFFFF" cx="300.45" cy="159.14" r="11.73"/>
<path fill="none" stroke="#434A53" stroke-width="12.0853" stroke-linecap="round" stroke-miterlimit="10" d="M98.38,39.85
	c0,0-12.83,23.77-50.38,19.49"/>
<path fill="none" stroke="#434A53" stroke-width="12.0853" stroke-linecap="round" stroke-miterlimit="10" d="M279.77,39.85
	c0,0,12.83,23.77,50.38,19.49"/>
<g>
	<path fill="#434A53" d="M118.8,249.93c1.26-2.91,2.89-5.64,4.77-8.18c-0.01,0.01,0.34-0.52,0.4-0.53c-0.03,0-0.78,0.99-0.19,0.24
		c0.24-0.31,0.49-0.61,0.74-0.91c0.54-0.65,1.09-1.3,1.66-1.93c1.2-1.33,2.47-2.61,3.78-3.84c1.3-1.22,2.65-2.39,4.04-3.51
		c0.33-0.26,0.65-0.55,0.99-0.78c-0.12,0.08-0.9,0.68-0.17,0.14c0.15-0.11,0.29-0.22,0.44-0.33c0.78-0.58,1.57-1.15,2.37-1.7
		c3.02-2.08,6.17-3.97,9.44-5.63c1.62-0.83,3.27-1.59,4.94-2.32c0.65-0.29-0.88,0.36-0.22,0.1c0.17-0.07,0.33-0.14,0.5-0.2
		c0.44-0.18,0.89-0.35,1.33-0.52c0.83-0.32,1.66-0.62,2.5-0.91c3.29-1.12,6.66-2.02,10.09-2.58c0.38-0.06,0.76-0.11,1.13-0.17
		c0.57-0.1-0.58,0.07-0.55,0.07c0.18,0.02,0.45-0.06,0.64-0.08c0.84-0.1,1.69-0.17,2.53-0.22c1.59-0.09,3.19-0.11,4.77,0.02
		c0.21,0.02,0.49,0.09,0.68,0.07c0,0-1.08-0.18-0.51-0.07c0.39,0.07,0.79,0.13,1.18,0.22c0.44,0.1,0.88,0.22,1.31,0.35
		c0.16,0.05,0.32,0.12,0.48,0.16c0.6,0.17-0.96-0.51-0.15-0.07c0.33,0.18,0.66,0.36,0.99,0.55c0.19,0.11,0.8,0.37,0.13,0.06
		c-0.53-0.24-0.21-0.19-0.03,0.01c0.14,0.15,0.3,0.31,0.44,0.45c0.55,0.53-0.36-0.14-0.21-0.28c-0.01,0.01,0.24,0.38,0.25,0.41
		c0.37,0.87,0.22-0.03-0.01-0.1c0.07,0.02,0.17,0.65,0.19,0.66c-0.22-0.21,0.08-1.09-0.07-0.41c-0.21,0.93,0.14-0.49,0.11-0.45
		c-0.1,0.12-0.17,0.57-0.19,0.72c-0.07,0.49,0.14-0.52,0.22-0.54c-0.02,0-0.37,0.58-0.4,0.65c-0.24,0.55,0.7-0.67,0.21-0.29
		c-0.21,0.16-0.38,0.4-0.58,0.58c-0.13,0.12-0.44,0.31-0.52,0.44c0.14-0.23,0.77-0.54,0.19-0.17c-0.47,0.3-0.92,0.6-1.41,0.86
		c-0.44,0.25-0.89,0.47-1.35,0.69c-0.23,0.11-0.47,0.21-0.7,0.32c-0.65,0.3,1.18-0.41-0.13,0.03c-2.3,0.79-4.66,1.29-7.04,1.78
		c-2.85,0.59-5.5,1.36-8.18,2.5c-1.05,0.44-2.1,1.98-2.35,3.05c-0.31,1.34-0.19,2.73,0.51,3.94c1.35,2.32,3.33,4.26,5.37,5.96
		c0.38,0.32,0.77,0.63,1.17,0.94c0.48,0.38,0.96,0.75,1.45,1.12c0.69,0.53,0.29-0.11-0.1-0.08c0.19-0.01,0.94,0.81,1,1.01
		c-0.13-0.15-0.25-0.31-0.38-0.46c0.1,0.15,0.19,0.3,0.28,0.45c0.1,0.17,0.52,1.25,0.29,0.52c-0.25-0.81,0.08,0.34,0.11,0.41
		c0.07,0.23,0.13,0.47,0.18,0.7c0.05,0.21,0.05,0.53,0.13,0.72c-0.35-0.83-0.06-0.74-0.07-0.27c-0.01,0.67,0,1.32-0.04,1.98
		c-0.01,0.26-0.21,0.92,0.01-0.02c-0.1,0.44-0.17,0.88-0.27,1.32c-0.31,1.32-0.75,2.61-1.2,3.88c-0.2,0.55-0.4,1.1-0.6,1.65
		c-0.12,0.31-0.23,0.63-0.35,0.94c-0.07,0.19-0.15,0.37-0.22,0.56c0.23-0.54,0.27-0.64,0.11-0.3c-0.29,0.52-0.55,1.05-0.85,1.57
		c-0.46,0.81,0.04,0.06,0.11-0.08c-0.15,0.28-0.48,0.46-0.67,0.72c-0.39,0.53,0.95-0.5-0.02,0.04c-0.21,0.12-0.43,0.25-0.64,0.37
		c-0.9,0.52,0.22-0.08,0.22-0.08c-0.09,0.17-0.83,0.25-1.05,0.3c-0.12,0.03-1.25,0.13-0.42,0.09c0.76-0.03-0.07-0.01-0.26,0
		c-0.58,0.03-1.16,0.03-1.73,0.02c-1.33-0.04-2.64-0.18-3.96-0.31c-5.39-0.52-10.4,0.2-15.34,2.44c-5.2,2.36-9.7,6.66-12.36,11.71
		c-1.24,2.36-0.68,5.66,1.83,6.99c2.36,1.25,5.66,0.69,6.99-1.83c0.29-0.54,0.58-1.08,0.91-1.59c0.13-0.21,0.27-0.41,0.4-0.61
		c0.04-0.05,0.73-1.05,0.25-0.37c-0.47,0.67,0.24-0.28,0.29-0.34c0.16-0.19,0.32-0.37,0.48-0.55c0.49-0.54,1.02-1.06,1.56-1.55
		c0.36-0.32,0.72-0.69,1.12-0.95c-1.19,0.75,0.53-0.33,0.76-0.48c0.46-0.3,0.94-0.58,1.42-0.84c0.49-0.27,1.42-0.5,1.82-0.89
		c-0.46,0.45-0.71,0.27-0.2,0.1c0.35-0.12,0.69-0.25,1.04-0.37c0.47-0.15,0.94-0.29,1.41-0.41c0.59-0.15,1.19-0.26,1.8-0.37
		c0.98-0.18-0.21,0-0.27,0.03c0.22-0.14,0.81-0.08,1.1-0.09c2.6-0.15,5.17,0.29,7.76,0.46c3.06,0.21,6.09-0.09,8.91-1.36
		c2.86-1.29,5.07-3.78,6.39-6.59c2.62-5.6,4.89-12.11,3.53-18.32c-0.34-1.57-1-3.19-1.89-4.52c-0.53-0.79-1.14-1.6-1.82-2.26
		c-0.65-0.62-1.72-1.06-2.23-1.77c0.06,0.09,0.94,0.75,0.2,0.15c-0.29-0.24-0.59-0.47-0.88-0.72c-0.61-0.51-1.21-1.03-1.78-1.58
		c-0.47-0.45-0.93-0.91-1.36-1.4c-0.07-0.08-0.72-1.03-0.29-0.33c0.42,0.69-0.27-0.47-0.34-0.59c-0.61,2.33-1.22,4.66-1.83,6.99
		c-0.97,0.41,0.53-0.16,0.83-0.26c0.56-0.18,1.12-0.34,1.69-0.48c1.21-0.31,2.43-0.56,3.66-0.81c2.37-0.48,4.75-0.97,7.01-1.85
		c4.67-1.81,9.65-4.6,11.24-9.7c1.6-5.15-1.71-10.78-6.35-13.02c-3.88-1.87-8.19-2.31-12.45-2.1c-8.14,0.38-15.96,2.68-23.41,5.87
		c-7.68,3.29-14.79,7.75-21.21,13.09c-6.48,5.4-12.44,12.12-15.82,19.93c-0.57,1.31-0.91,2.5-0.51,3.94
		c0.33,1.18,1.24,2.47,2.35,3.05C114.01,252.93,117.66,252.55,118.8,249.93L118.8,249.93z"/>
</g>
<g>
	<path fill="#434A53" d="M263.78,244.77c-3.01-6.94-8.08-13.02-13.66-18.06c-6.12-5.53-13.1-10.18-20.55-13.7
		c-7.48-3.53-15.3-6.05-23.54-6.92c-3.87-0.41-7.94-0.44-11.72,0.58c-5.23,1.41-9.54,5.27-10.1,10.86
		c-0.58,5.82,4.44,10.03,9.24,12.18c2.68,1.21,5.39,2.01,8.27,2.61c1.3,0.27,2.6,0.52,3.89,0.82c0.71,0.17,1.42,0.35,2.12,0.57
		c0.28,0.08,0.56,0.17,0.83,0.27c0.23,0.08,1.44,0.55,0.42,0.12c-0.61-2.33-1.22-4.66-1.83-6.99c-0.13,0.22-0.34,0.46-0.43,0.69
		c-0.25,0.61,0.8-0.91,0.04-0.05c-0.38,0.43-0.77,0.86-1.18,1.26c-0.97,0.97-2.02,1.84-3.09,2.71c-0.36,0.29-0.29,0.51,0.2-0.15
		c-0.1,0.13-0.38,0.28-0.52,0.39c-0.72,0.55-1.48,1.08-2.09,1.76c-1.27,1.42-2.12,2.91-2.81,4.67c-2.24,5.77-0.25,12.08,1.93,17.54
		c1.31,3.28,2.9,6.13,5.84,8.21c2.51,1.76,5.75,2.34,8.76,2.33c2.57-0.01,5.12-0.48,7.68-0.56c0.55-0.02,1.1-0.01,1.65,0.01
		c0.31,0.02,0.61,0.05,0.92,0.06c0.38,0.02,0.79-0.13-0.27-0.05c1.1-0.08,2.54,0.5,3.57,0.84c0.29,0.09,0.58,0.2,0.87,0.3
		c0.17,0.06,0.34,0.13,0.51,0.2c-0.6-0.26-0.72-0.31-0.37-0.16c0.61,0.29,1.22,0.58,1.81,0.9c0.59,0.33,1.16,0.68,1.72,1.06
		c0.22,0.15,0.59,0.32,0.75,0.53c-0.15-0.12-0.3-0.24-0.45-0.35c0.19,0.15,0.38,0.31,0.57,0.46c1.04,0.87,1.95,1.85,2.84,2.87
		c0.49,0.57-0.18,0.03-0.12-0.17c-0.02,0.06,0.58,0.83,0.63,0.9c0.41,0.61,0.77,1.25,1.11,1.9c1.25,2.37,4.74,3.28,6.99,1.83
		c2.41-1.55,3.16-4.46,1.83-6.99c-4.89-9.31-15.46-15.09-25.92-14.31c-2.42,0.18-4.85,0.58-7.29,0.47c-0.08,0-1.33-0.04-0.45-0.01
		c0.74,0.03-0.03-0.01-0.24-0.06c-0.3-0.06-0.59-0.16-0.89-0.23c-0.68-0.14,0.04-0.27,0.2,0.12c-0.02-0.05-0.55-0.28-0.65-0.34
		c-0.12-0.07-0.9-0.77-0.41-0.25c0.54,0.58-0.3-0.37-0.34-0.4c-0.71-0.68,0.35,0.73-0.14-0.22c-0.24-0.47-0.51-0.93-0.76-1.39
		c-0.62-1.12,0.24,0.68-0.05-0.06c-0.12-0.31-0.25-0.62-0.36-0.93c-0.47-1.24-0.92-2.48-1.32-3.74c-0.23-0.72-0.44-1.44-0.62-2.17
		c-0.09-0.36-0.35-1.93-0.22-0.85c-0.09-0.68-0.12-1.38-0.1-2.07c0-0.15,0.09-0.63,0.04-0.73c-0.11,0.69-0.13,0.84-0.06,0.45
		c0.03-0.18,0.06-0.36,0.1-0.54c0.05-0.24,0.11-0.47,0.18-0.7c0.05-0.17,0.11-0.35,0.17-0.52c0.13-0.36,0.07-0.23-0.18,0.38
		c0.09-0.07,0.25-0.5,0.32-0.64c0.12-0.21,0.24-0.41,0.37-0.61c-0.13,0.15-0.25,0.31-0.38,0.46c0.07-0.22,0.44-0.49,0.6-0.65
		c0.13-0.13,0.26-0.25,0.4-0.36c-0.54,0.42-0.66,0.51-0.36,0.29c0.77-0.58,1.54-1.17,2.29-1.78c2.27-1.83,4.48-3.91,5.96-6.45
		c1.26-2.16,0.72-5.91-1.83-6.99c-2.33-0.99-4.63-1.74-7.1-2.27c-2.15-0.46-4.33-0.84-6.45-1.46c-0.56-0.16-1.11-0.36-1.67-0.55
		c-0.09-0.03-0.78-0.28-0.18-0.06c0.61,0.23-0.15-0.07-0.3-0.14c-0.86-0.39-1.7-0.82-2.5-1.32c-0.2-0.13-0.4-0.27-0.61-0.4
		c-0.55-0.33-0.19,0.11,0.19,0.17c-0.29-0.05-0.65-0.59-0.87-0.79c-0.31-0.27-0.26-0.63-0.13-0.09c0.1,0.42,0.19,0.31,0.03,0.02
		c0.01,0.03-0.28-0.52-0.31-0.52c0.09,0.23,0.18,0.45,0.27,0.68c-0.05-0.14-0.1-0.28-0.14-0.42c-0.04,0-0.08-0.4-0.1-0.43
		c0.23,0.31,0.14,1.14,0.11,0.45c-0.04-0.89-0.13,1.1,0.07-0.09c0.1-0.61-0.49,0.66-0.11,0.22c0.09-0.1,0.18-0.31,0.23-0.43
		c0.37-0.81-0.08,0.27-0.25,0.25c0.07,0.01,0.48-0.52,0.54-0.58c0.03-0.03,0.36-0.3,0.35-0.32c0.07,0.25-0.92,0.6-0.27,0.23
		c0.33-0.19,0.65-0.38,0.98-0.56c1.07-0.59-0.7,0.2,0.15-0.06c0.49-0.15,0.97-0.3,1.46-0.42c0.39-0.09,0.78-0.16,1.18-0.23
		c0.92-0.18-1.02,0.1,0.18-0.01c0.87-0.08,1.74-0.11,2.62-0.1c1.57,0,3.14,0.1,4.69,0.27c0.21,0.02,0.43,0.06,0.64,0.07
		c0.57,0.05-0.58-0.09-0.55-0.08c0.39,0.13,0.89,0.13,1.29,0.2c0.82,0.14,1.64,0.29,2.45,0.46c1.67,0.35,3.33,0.78,4.97,1.27
		c1.75,0.52,3.47,1.11,5.17,1.76c0.39,0.15,0.78,0.3,1.17,0.46c0.17,0.07,0.33,0.14,0.5,0.2c0.85,0.34-0.1-0.05-0.22-0.1
		c0.9,0.32,1.78,0.78,2.65,1.18c3.32,1.56,6.53,3.34,9.61,5.32c1.54,0.99,3.04,2.03,4.51,3.11c0.19,0.14,1.19,0.89,0.64,0.48
		c-0.59-0.45,0.47,0.37,0.62,0.49c0.75,0.6,1.48,1.21,2.21,1.84c2.97,2.57,5.71,5.39,8.16,8.46c0.13,0.16,0.3,0.57,0.01,0.01
		c-0.36-0.69,0.08,0.11,0.2,0.28c0.26,0.35,0.51,0.71,0.76,1.07c0.52,0.75,1.02,1.51,1.5,2.29c0.94,1.55,1.78,3.16,2.5,4.83
		c1.07,2.46,4.86,3.2,6.99,1.83C264.5,250.12,264.92,247.41,263.78,244.77L263.78,244.77z"/>
</g>
<g>
	<path fill="#434A53" d="M150,195.57c-0.92,0.72,0.67-0.48,0.93-0.66c0.55-0.38,1.11-0.75,1.67-1.1c1.13-0.71,2.29-1.36,3.48-1.96
		c0.53-0.27,1.08-0.53,1.62-0.78c0.3-0.14,0.61-0.27,0.91-0.41c-0.96,0.43-0.3,0.12-0.09,0.04c1.25-0.48,2.5-0.95,3.77-1.36
		c2.57-0.82,5.2-1.46,7.86-1.96c1.21-0.23,2.42-0.42,3.63-0.6c1.37-0.21-1.08,0.12,0.3-0.04c0.27-0.03,0.54-0.07,0.81-0.1
		c0.75-0.09,1.5-0.17,2.25-0.24c5.58-0.53,11.23-0.72,16.83-0.57c1.5,0.04,3,0.12,4.5,0.24c0.79,0.07,1.57,0.15,2.35,0.25
		c-0.21-0.03-0.92-0.14,0.08,0.02c0.47,0.07,0.93,0.15,1.4,0.23c2.45,0.44,4.85,1.11,7.28,1.64c2.54,0.56,5.09,1.11,7.58,1.85
		c0.63,0.19,1.25,0.39,1.87,0.61c0.27,0.1,0.55,0.2,0.82,0.3c1.07,0.41-0.31-0.19,0.06,0.01c1.06,0.58,2.1,1.04,3.08,1.77
		c2.1,1.57,5.68,0.41,6.84-1.79c1.38-2.62,0.45-5.16-1.79-6.84c-3.98-2.97-9.31-4.11-14.07-5.17c-5.85-1.3-11.6-2.69-17.62-3.02
		c-5.97-0.33-12.02-0.13-17.97,0.36c-5.85,0.49-11.74,1.33-17.38,2.98c-6.61,1.93-12.65,4.96-18.07,9.2c-2.07,1.62-1.82,5.4,0,7.07
		C145.12,197.59,147.79,197.3,150,195.57L150,195.57z"/>
</g>
</svg>
