<?xml version="1.0" encoding="utf-8"?>
<!-- Generator: Adobe Illustrator 21.0.0, SVG Export Plug-In . SVG Version: 6.00 Build 0)  -->
<svg version="1.2" baseProfile="tiny" id="Capa_1" xmlns="http://www.w3.org/2000/svg" xmlns:xlink="http://www.w3.org/1999/xlink"
	 x="0px" y="0px" viewBox="0 0 379 296" xml:space="preserve">
<path fill="#FFFFFF" d="M355.5,290.7H23.8c-9.9,0-17.9-8-17.9-17.9V24c0-9.9,8-17.9,17.9-17.9h331.7c9.9,0,17.9,8,17.9,17.9v248.7
	C373.4,282.7,365.4,290.7,355.5,290.7z"/>
<g>
	<circle fill="#434A53" cx="64.9" cy="147.7" r="18.6"/>
	<path fill="none" stroke="#434A53" stroke-width="11" stroke-linecap="round" stroke-miterlimit="10" d="M143.2,233.7
		c0,0,49.4,43.3,106,3.6"/>
	<circle fill="#434A53" cx="313.7" cy="147.7" r="18.6"/>
	<circle fill="#FFFFFF" cx="327.7" cy="140.3" r="8.7"/>
	<circle fill="#FFFFFF" cx="78.6" cy="140.3" r="8.7"/>
	
		<line fill="none" stroke="#434A53" stroke-width="11" stroke-linecap="round" stroke-miterlimit="10" x1="28.1" y1="67.2" x2="61.8" y2="58.6"/>
	
		<line fill="none" stroke="#434A53" stroke-width="11" stroke-linecap="round" stroke-miterlimit="10" x1="350" y1="67.2" x2="316.3" y2="58.6"/>
</g>
</svg>
