<?xml version="1.0" encoding="utf-8"?>
<!-- Generator: Adobe Illustrator 24.0.1, SVG Export Plug-In . SVG Version: 6.00 Build 0)  -->
<svg version="1.2" baseProfile="tiny" id="Capa_1" xmlns="http://www.w3.org/2000/svg" xmlns:xlink="http://www.w3.org/1999/xlink"
	 x="0px" y="0px" viewBox="0 0 379 296" xml:space="preserve">
<path fill="#F17682" d="M355.17,289.57H23.47c-9.9,0-17.9-8-17.9-17.9V22.87c0-9.9,8-17.9,17.9-17.9h331.7c9.9,0,17.9,8,17.9,17.9
	v248.7C373.07,281.57,364.97,289.57,355.17,289.57z"/>
<path fill="#434A53" stroke="#434A53" stroke-width="7.5709" stroke-linecap="round" stroke-linejoin="round" stroke-miterlimit="10" d="
	M225.13,265.83h-65.64c-13.96,0-20.76-17.22-10.43-26.61c8.85-8.04,22.12-14.95,41.76-15.6c20.77-0.69,35.11,6.77,44.74,15.61
	C245.85,248.66,239.08,265.83,225.13,265.83z"/>
<path fill="#ED5463" d="M171.39,244.32h43.34c9.22,0,13.71,14.1,6.88,21.79c-5.84,6.59-14.6,12.24-27.58,12.78
	c-13.71,0.57-23.18-5.55-29.54-12.78C157.71,258.38,162.18,244.32,171.39,244.32z"/>
<ellipse fill="#434A53" cx="83.29" cy="143.48" rx="25.58" ry="32.55"/>
<circle fill="#FFFFFF" cx="101.12" cy="132.77" r="11.43"/>
<ellipse fill="#434A53" cx="301.55" cy="143.48" rx="25.58" ry="32.55"/>
<circle fill="#FFFFFF" cx="319.39" cy="132.77" r="11.43"/>
<path fill="none" stroke="#434A53" stroke-width="13" stroke-linecap="round" stroke-miterlimit="10" d="M96.42,33.3
	c0,0-13.81,25.56-54.2,20.96"/>
<path fill="none" stroke="#434A53" stroke-width="13" stroke-linecap="round" stroke-miterlimit="10" d="M291.53,33.3
	c0,0,13.81,25.56,54.2,20.96"/>
<path fill="#4FC2E9" d="M26.88,74.48c0,0-22.56,32.59,0,33.85C49.1,109.57,26.88,74.48,26.88,74.48z"/>
</svg>
