<?xml version="1.0" encoding="utf-8"?>
<!-- Generator: Adobe Illustrator 21.0.0, SVG Export Plug-In . SVG Version: 6.00 Build 0)  -->
<svg version="1.2" baseProfile="tiny" id="Capa_1" xmlns="http://www.w3.org/2000/svg" xmlns:xlink="http://www.w3.org/1999/xlink"
	 x="0px" y="0px" viewBox="0 0 379 296" xml:space="preserve">
<path fill="#F4F4F4" d="M356.2,290.3H24.5c-9.9,0-17.9-8-17.9-17.9V23.7c0-9.9,8-17.9,17.9-17.9h331.7c9.9,0,17.9,8,17.9,17.9v248.7
	C374.1,282.3,366.1,290.3,356.2,290.3z"/>
<path fill="#434A53" stroke="#434A53" stroke-width="7.1829" stroke-linecap="round" stroke-linejoin="round" stroke-miterlimit="10" d="
	M224.1,244.4h-62.3c-13.2,0-19.7-16.3-9.9-25.2c8.4-7.6,21-14.2,39.6-14.8c19.7-0.7,33.3,6.4,42.4,14.8
	C243.7,228.1,237.3,244.4,224.1,244.4z"/>
<path fill="#ED5463" d="M214.6,243h-41.1c-8.7,0-13-9.3-6.5-14.4c5.5-4.4,13.9-8.1,26.2-8.4c13-0.4,22,3.7,28,8.4
	C227.5,233.7,223.3,243,214.6,243z"/>
<g>
	<path fill="#434A53" d="M64.4,282c-0.1-16.1,0.1-32.3,1.5-48.4c0.6-6.5,0.6-19.3,6-23.9c6.5-5.5,6.4,10.1,6.6,13.7
		c0.4,6.3,0.7,12.5,1,18.8c0.2,3.5,5.4,4.5,6.3,0.9c0.4-1.6,1.1-6.8,4.3-5.1c0.8,0.4,1.8,3.7,2.4,4.6c1.5,2,4.1,2.1,5.6,0
		c1.4-2,3.1-5.1,5.8-3.4c2,1.2,1.4,3.1,1.5,5.3c0,2.6,3.6,4.5,5.5,2.3c1.2-1.5,4-5.1,5.3-2.2c0.4,1,0.2,3,0.2,4.1
		c0.1,3.9,0.2,7.8,0.2,11.6c0.1,7.2,0.1,14.3-0.1,21.5c-0.1,4.1,6.4,4.1,6.4,0c0.2-10.7,0.2-21.4-0.1-32.1c-0.1-3.9,0.3-9.4-3-12.2
		c-4.5-3.8-10.7,1.2-13.6,4.7c1.8,0.8,3.7,1.5,5.5,2.3c-0.1-5.1-0.5-10.5-6.2-12.2c-5.9-1.8-10.1,2.7-13.1,7c1.9,0,3.7,0,5.6,0
		c-2.8-3.9-3.7-9.2-9.8-8.5c-5.4,0.7-7.6,5.8-8.7,10.5c2.1,0.3,4.2,0.6,6.3,0.9c-0.4-7.8-0.8-15.6-1.3-23.4
		c-0.3-5.2-0.5-12.7-5.5-15.8c-10.5-6.6-16.7,10-18,17.2c-3.7,20.2-3.2,41.5-3.1,61.9C58,286.1,64.4,286.1,64.4,282L64.4,282z"/>
</g>
<path fill="#F498A1" d="M62.5,216.8c3.2,1.7,12.3,5.6,21.2,0.5c0.7-0.4,1.5,0.1,1.5,0.8l0.4,7.2c0,0.4-0.2,0.8-0.7,1
	c-3.3,1.2-17.4,5.6-24.8-1.5c-0.2-0.2-0.3-0.6-0.3-0.9l1.1-6.3C61.1,216.8,61.9,216.4,62.5,216.8z"/>
<path fill="#F17682" d="M68.3,219.1l-1.3,9.1c0,0,5.5,1.5,10.3-0.1l0.1-8.5C77.3,219.6,72.4,220,68.3,219.1z"/>
<path fill="none" stroke="#434A53" stroke-width="13" stroke-linecap="round" stroke-miterlimit="10" d="M96.9,42.2
	c0,0-13.8,25.6-54.2,21"/>
<g>
	<path fill="#4FC2E9" d="M50.1,204.1c2.2,1.7,4.5,3.5,6.7,5.2c0.8,0.6,2.1,0.1,2.6-0.7c0.6-1,0.1-2-0.7-2.6
		c-2.2-1.7-4.5-3.5-6.7-5.2c-0.8-0.6-2.1-0.1-2.6,0.7C48.8,202.4,49.3,203.4,50.1,204.1L50.1,204.1z"/>
</g>
<g>
	<path fill="#4FC2E9" d="M65.4,189.2c1.1,3.2,2.3,6.3,3.4,9.5c0.8,2.3,4.4,1.3,3.6-1c-1.1-3.2-2.3-6.3-3.4-9.5
		C68.2,185.9,64.5,186.9,65.4,189.2L65.4,189.2z"/>
</g>
<g>
	<path fill="#4FC2E9" d="M89.6,194.6c-1.2,1.7-2.7,3.2-4.4,4.4c-0.8,0.6-1.2,1.6-0.7,2.6c0.5,0.8,1.7,1.3,2.6,0.7
		c2.3-1.6,4.1-3.5,5.7-5.8c0.6-0.8,0.2-2.1-0.7-2.6C91.2,193.3,90.2,193.7,89.6,194.6L89.6,194.6z"/>
</g>
<g>
	<path fill="#4FC2E9" d="M89.1,216.5c2.4-0.6,4.9-1.2,7.3-1.8c2.3-0.6,1.3-4.2-1-3.6c-2.4,0.6-4.9,1.2-7.3,1.8
		C85.8,213.4,86.8,217.1,89.1,216.5L89.1,216.5z"/>
</g>
<g>
	<path fill="#434A53" d="M66.4,100.6c0.5,10.1,0,20.5,4.1,29.9c3.1,7.4,9.7,14.7,18.4,14.5c8.9-0.2,14.3-8.4,17.4-15.8
		c4-9.7,5-20.3,4.7-30.7c-0.1-4.8-7.6-4.8-7.5,0c0.2,7.3-0.2,14.6-2,21.6c-1.6,5.9-5,16.6-12.3,17.2c-7.3,0.7-11.6-8.2-13.2-14
		c-2-7.4-1.6-15.2-2-22.8C73.7,95.8,66.2,95.8,66.4,100.6L66.4,100.6z"/>
</g>
<path fill="none" stroke="#434A53" stroke-width="13" stroke-linecap="round" stroke-miterlimit="10" d="M280.7,42.2
	c0,0,13.8,25.6,54.2,21"/>
<g>
	<path fill="#434A53" d="M303.7,100.6c-0.4,7.3,0,14.9-1.8,22.1c-1.5,6-5.8,15.5-13.4,14.8c-7.1-0.7-10.5-10.7-12.1-16.4
		c-2.1-7.3-2.5-14.9-2.3-22.5c0.1-4.8-7.4-4.8-7.5,0c-0.3,10.2,0.7,20.6,4.5,30.2c3,7.5,8.5,16,17.6,16.2c8.5,0.2,15-6.8,18.2-14
		c4.2-9.6,3.7-20.2,4.3-30.4C311.5,95.8,304,95.8,303.7,100.6L303.7,100.6z"/>
</g>
</svg>
