<?xml version="1.0" encoding="utf-8"?>
<!-- Generator: Adobe Illustrator 24.0.1, SVG Export Plug-In . SVG Version: 6.00 Build 0)  -->
<svg version="1.2" baseProfile="tiny" id="Capa_1" xmlns="http://www.w3.org/2000/svg" xmlns:xlink="http://www.w3.org/1999/xlink"
	 x="0px" y="0px" viewBox="0 0 379 296" xml:space="preserve">
<path fill="#FFFFFF" d="M355.17,290.52H23.47c-9.9,0-17.9-8-17.9-17.9V23.92c0-9.9,8-17.9,17.9-17.9h331.7c9.9,0,17.9,8,17.9,17.9
	v248.7C373.07,282.52,365.07,290.52,355.17,290.52z"/>
<line fill="none" stroke="#434A53" stroke-width="13" stroke-linecap="round" stroke-miterlimit="10" x1="29.87" y1="74.14" x2="61.47" y2="59.54"/>
<line fill="none" stroke="#434A53" stroke-width="13" stroke-linecap="round" stroke-miterlimit="10" x1="348.87" y1="73.54" x2="316.77" y2="60.14"/>
<path fill="#434A53" stroke="#434A53" stroke-width="7.5109" stroke-linecap="round" stroke-linejoin="round" stroke-miterlimit="10" d="
	M223.3,235.04c0,18.31-14.83,21.47-33.04,21.47s-33.04-3.17-33.04-21.47S172.05,202,190.26,202S223.3,216.73,223.3,235.04z"/>
<path fill="#ED5463" d="M210.27,238.82"/>
<path fill="#ED5463" d="M164.9,238.72c0,0,25.87-17.69,51.44,0.51c0,0,3.27,12.27-22.39,13.09
	C163.37,253.24,164.9,238.72,164.9,238.72z"/>
<g>
	<path fill="#FFFFFF" d="M70.39,271.7c4.2-10,17.1-32.1,21.9-41.9c2.7-5.5,6-11.2,11.4-13.9c1-0.5,2.1-0.9,3.1-0.7
		c3.3,0.5,3.8,5.1,3.3,8.6c-1.1,7.7-3,15.2-5.7,22.5c2.9-6.4,7.1-12.2,12.2-17c2.7-2.5,7.3-4.5,9.4-1.6c0.9,1.3,0.9,3.1,0.7,4.7
		c-0.7,7.3-2.7,14.5-5.7,21.2c2-5.4,5.4-10.2,9.7-13.8c2.6-2.2,6.6-4,9.1-1.8c2.1,1.8,1.9,5.1,1.4,7.9c-1.1,6.2-3.1,12.2-5.9,17.8
		c2-4.9,5.3-9.2,9.4-12.2c1.2-0.8,2.5-1.6,3.9-1.5c3.4,0.3,4,5.1,3.4,8.7c-1.8,10.8,0,4.3-5.8,13.7"/>
	<g>
		<path fill="#434A53" d="M72.49,272.9c5.2-12.3,12.3-23.8,18.6-35.6c2.9-5.4,6.3-16.3,12.5-18.6c7.2-2.6,3.2,10.4,2.5,13.2
			c-1.1,4.7-2.5,9.2-4.1,13.7c-0.9,2.6,3.3,4.4,4.5,1.9c1.5-3.2,3.2-6.3,5.3-9.1c1.7-2.3,5.1-7.4,8.1-8.5c6-2.2,4.1,5.6,3.3,9.2
			c-1,4.6-2.4,9.1-4.3,13.4c1.5,0.6,3,1.3,4.5,1.9c1.3-3.2,3-6.3,5.3-8.9c1.6-1.9,8.8-9.9,10.5-2.4c0.6,2.4-1.1,6.6-1.8,8.9
			c-1.1,3.6-2.5,7.1-4.1,10.6c1.4,0.8,2.8,1.6,4.2,2.5c1.8-4.1,4.3-7.9,7.8-10.8c5.5-4.4,4.3,4.9,3.8,7.8c-0.6,3.8-2.8,5.8-4.9,9.1
			c-1.7,2.7,2.5,5.1,4.2,2.5c1.5-2.5,4-4.9,4.9-7.7c1.2-3.8,2-9.5,0.8-13.4c-4.2-13.8-18.5,4.5-20.9,10.1c-1.2,2.8,2.8,5.3,4.2,2.5
			c3-6.3,12.3-25.1,2.5-29.7c-9.5-4.4-18.6,11-21.3,17.8c-1,2.5,3.4,4.4,4.5,1.9c2.8-6.5,4.8-13.3,5.7-20.3c0.5-3.9,0.7-9-3.9-10.5
			c-9.9-3.1-19.5,14.2-22.6,20.9c1.5,0.6,3,1.3,4.5,1.9c2.2-6.2,4-12.5,5.1-19c0.7-3.8,1.6-8.2-0.3-11.9c-4.8-9.2-15.4,2.1-18.4,7
			c-4.6,7.4-8.3,15.5-12.5,23.2c-4.3,7.9-8.9,15.8-12.4,24.1C67.09,273.3,71.29,275.8,72.49,272.9L72.49,272.9z"/>
	</g>
</g>
<circle fill="#434A53" cx="72.33" cy="119.63" r="26.85"/>
<circle fill="#FFFFFF" cx="88.13" cy="112.86" r="12.61"/>
<circle fill="#434A53" cx="303.87" cy="119.63" r="26.85"/>
<circle fill="#FFFFFF" cx="319.67" cy="112.86" r="12.61"/>
</svg>
