<?xml version="1.0" encoding="utf-8"?>
<!-- Generator: Adobe Illustrator 24.0.1, SVG Export Plug-In . SVG Version: 6.00 Build 0)  -->
<svg version="1.2" baseProfile="tiny" id="Capa_1" xmlns="http://www.w3.org/2000/svg" xmlns:xlink="http://www.w3.org/1999/xlink"
	 x="0px" y="0px" viewBox="0 0 379 296" xml:space="preserve">
<path fill="#FFFFFF" d="M356.24,290.93H24.54c-9.9,0-17.9-8-17.9-17.9V24.23c0-9.9,8-17.9,17.9-17.9h331.7c9.9,0,17.9,8,17.9,17.9
	v248.7C374.14,282.93,366.04,290.93,356.24,290.93z"/>
<path fill="none" stroke="#434A53" stroke-width="13" stroke-linecap="round" stroke-miterlimit="10" d="M94.94,82.96
	c0,0-13.8,25.6-54.2,21"/>
<path fill="none" stroke="#434A53" stroke-width="13" stroke-linecap="round" stroke-miterlimit="10" d="M290.04,82.96
	c0,0,13.8,25.6,54.2,21"/>
<g>
	<path fill="#434A53" d="M278.32,159.78c0,15.1,12.3,27.4,27.4,27.4s27.4-12.3,27.4-27.4c0-1.95-0.24-3.9-0.61-5.72
		c-9.86-3.29-23.14-9.86-30.56-21.31C288.55,134.57,278.2,146.02,278.32,159.78z"/>
</g>
<circle fill="#FFFFFF" cx="318.08" cy="166.9" r="12.91"/>
<path fill="none" stroke="#434A53" stroke-width="11.6724" stroke-linecap="round" stroke-miterlimit="10" d="M246.69,246.31
	c0,0-53.59-42.24-113.7-0.26"/>
<g>
	<path fill="#F17682" d="M349.35,57.81l-54.9-34.29c-6.15-3.84-14.28-1.97-18.12,4.19c-3.84,6.15-1.97,14.28,4.19,18.12l54.9,34.29
		c6.15,3.84,14.28,1.97,18.12-4.19c1.94-3,2.43-6.57,1.67-9.85C354.46,62.8,352.45,59.81,349.35,57.81z M287.28,42.29
		c-0.42,0.67-1.36,0.89-2.03,0.47c-0.67-0.42-0.89-1.36-0.47-2.03c0.42-0.67,1.36-0.89,2.03-0.47
		C287.48,40.68,287.7,41.61,287.28,42.29z M333.12,55.55c0.42-0.67,1.36-0.89,2.03-0.47c0.67,0.42,0.89,1.36,0.47,2.03
		c-0.42,0.67-1.36,0.89-2.03,0.47C332.92,57.16,332.62,56.24,333.12,55.55z M301.1,35.55c0.42-0.67,1.36-0.89,2.03-0.47
		c0.67,0.42,0.89,1.36,0.47,2.03c-0.42,0.67-1.36,0.89-2.03,0.47C300.9,37.17,300.68,36.23,301.1,35.55z M291.68,29.67
		c0.42-0.67,1.36-0.89,2.03-0.47s0.89,1.36,0.47,2.03c-0.42,0.67-1.36,0.89-2.03,0.47C291.4,31.3,291.18,30.36,291.68,29.67z
		 M288.67,37.28c-0.67-0.42-0.89-1.36-0.47-2.03c0.42-0.67,1.36-0.89,2.03-0.47c0.67,0.42,0.89,1.36,0.47,2.03
		C290.28,37.48,289.42,37.68,288.67,37.28z M291.7,42.91c-0.67-0.42-0.89-1.36-0.47-2.03c0.42-0.67,1.36-0.89,2.03-0.47
		c0.67,0.42,0.89,1.36,0.47,2.03C293.33,43.19,292.39,43.41,291.7,42.91z M296.7,48.17c-0.42,0.67-1.36,0.89-2.03,0.47
		c-0.67-0.42-0.89-1.36-0.47-2.03c0.42-0.67,1.36-0.89,2.03-0.47C296.98,46.54,297.2,47.48,296.7,48.17z M295.12,37.43
		c-0.67-0.42-0.89-1.36-0.47-2.03c0.42-0.67,1.36-0.89,2.03-0.47c0.67,0.42,0.89,1.36,0.47,2.03
		C296.73,37.63,295.79,37.85,295.12,37.43z M298.09,43.16c-0.67-0.42-0.89-1.36-0.47-2.03c0.42-0.67,1.36-0.89,2.03-0.47
		c0.67,0.42,0.89,1.36,0.47,2.03C299.78,43.35,298.84,43.56,298.09,43.16z M328.71,68.17c-0.42,0.67-1.36,0.89-2.03,0.47
		c-0.67-0.42-0.89-1.36-0.47-2.03c0.42-0.67,1.36-0.89,2.03-0.47C328.92,66.56,329.13,67.5,328.71,68.17z M330.11,63.16
		c-0.67-0.42-0.89-1.36-0.47-2.03c0.42-0.67,1.36-0.89,2.03-0.47c0.67,0.42,0.89,1.36,0.47,2.03
		C331.72,63.36,330.78,63.58,330.11,63.16z M333.14,68.8c-0.67-0.42-0.89-1.36-0.47-2.03c0.42-0.67,1.36-0.89,2.03-0.47
		c0.67,0.42,0.89,1.36,0.47,2.03C334.76,69.08,333.83,69.29,333.14,68.8z M338.14,74.06c-0.42,0.67-1.36,0.89-2.03,0.47
		c-0.67-0.42-0.89-1.36-0.47-2.03c0.42-0.67,1.36-0.89,2.03-0.47C338.42,72.43,338.63,73.37,338.14,74.06z M336.56,63.32
		c-0.67-0.42-0.89-1.36-0.47-2.03c0.42-0.67,1.36-0.89,2.03-0.47c0.67,0.42,0.89,1.36,0.47,2.03
		C338.17,63.52,337.23,63.74,336.56,63.32z M341.64,68.56c-0.42,0.67-1.36,0.89-2.03,0.47c-0.67-0.42-0.89-1.36-0.47-2.03
		c0.42-0.67,1.36-0.89,2.03-0.47C341.84,66.95,342.04,67.81,341.64,68.56z M345.04,63c-0.42,0.67-1.36,0.89-2.03,0.47
		c-0.67-0.42-0.89-1.36-0.47-2.03c0.42-0.67,1.36-0.89,2.03-0.47C345.32,61.37,345.54,62.31,345.04,63z"/>
	<path fill="#F8BBC1" d="M318.1,63.03l-14.81-9.25c-1.15-0.72-1.51-2.28-0.79-3.44l6.61-10.58c0.72-1.15,2.28-1.51,3.44-0.79
		l14.81,9.25c1.15,0.72,1.51,2.28,0.79,3.44l-6.61,10.58C320.81,63.39,319.25,63.76,318.1,63.03z"/>
</g>
<circle fill="#7A7CB3" cx="76.32" cy="160.21" r="33.48"/>
<g>
	<path fill="#434A53" d="M80.4,132.75c-7.43,11.45-20.7,18.02-30.56,21.31c-0.37,1.83-0.61,3.77-0.61,5.72
		c0,15.1,12.3,27.4,27.4,27.4s27.4-12.3,27.4-27.4C104.15,146.02,93.79,134.57,80.4,132.75z"/>
</g>
<circle fill="#FFFFFF" cx="89.28" cy="165.51" r="12.91"/>
</svg>
