<?xml version="1.0" encoding="utf-8"?>
<!-- Generator: Adobe Illustrator 24.0.1, SVG Export Plug-In . SVG Version: 6.00 Build 0)  -->
<svg version="1.2" baseProfile="tiny" id="Capa_1" xmlns="http://www.w3.org/2000/svg" xmlns:xlink="http://www.w3.org/1999/xlink"
	 x="0px" y="0px" viewBox="0 0 379 296" xml:space="preserve">
<path fill="#FFFFFF" d="M355.44,291.76H23.74c-9.89,0-17.91-8.02-17.91-17.91V25.11c0-9.89,8.02-17.91,17.91-17.91h331.7
	c9.89,0,17.91,8.02,17.91,17.91v248.75C373.35,283.74,365.33,291.76,355.44,291.76z"/>
<circle fill="#434A53" cx="69.27" cy="153.34" r="27.2"/>
<circle fill="#FFFFFF" cx="89.33" cy="142.43" r="12.77"/>
<circle fill="#434A53" cx="310.97" cy="153.34" r="27.2"/>
<circle fill="#FFFFFF" cx="331.03" cy="142.43" r="12.77"/>
<line fill="none" stroke="#434A53" stroke-width="12" stroke-linecap="round" stroke-miterlimit="10" x1="342" y1="90.51" x2="294.46" y2="77.03"/>
<line fill="none" stroke="#434A53" stroke-width="12" stroke-linecap="round" stroke-miterlimit="10" x1="39.69" y1="90.51" x2="87.23" y2="77.03"/>
<path fill="none" stroke="#434A53" stroke-width="11" stroke-linecap="round" stroke-miterlimit="10" d="M135.18,215.38
	c0,0,53.05,20.97,106.45,0"/>
</svg>
