<?xml version="1.0" encoding="utf-8"?>
<!-- Generator: Adobe Illustrator 24.0.1, SVG Export Plug-In . SVG Version: 6.00 Build 0)  -->
<svg version="1.2" baseProfile="tiny" id="Capa_1" xmlns="http://www.w3.org/2000/svg" xmlns:xlink="http://www.w3.org/1999/xlink"
	 x="0px" y="0px" viewBox="0 0 379 296" xml:space="preserve">
<path fill="#FFFFFF" d="M355.17,290.57H23.47c-9.9,0-17.9-8-17.9-17.9V23.87c0-9.9,8-17.9,17.9-17.9h331.7c9.9,0,17.9,8,17.9,17.9
	v248.7C373.07,282.57,365.07,290.57,355.17,290.57z"/>
<g>
	<path fill="#434A53" d="M41.18,136.97c0,10.07,4.09,19.1,10.6,25.81c13.64,0.31,40.19,1.05,50.68,1.36
		c7.34-6.72,11.96-16.37,11.96-27.07c0-1.36-0.1-2.73-0.21-4.09c-15.84-2.83-49.21-12.59-65.89-17.52
		C43.81,121.33,41.18,128.89,41.18,136.97z"/>
</g>
<line fill="none" stroke="#434A53" stroke-width="13.4955" stroke-linecap="round" stroke-miterlimit="10" x1="62.59" y1="73.28" x2="117.25" y2="97.73"/>
<circle fill="#FFFFFF" cx="97.6" cy="150.88" r="10.49"/>
<g>
	<path fill="#434A53" d="M331.63,115.46c-16.68,4.93-50.05,14.69-65.89,17.52c-0.1,1.36-0.21,2.73-0.21,4.09
		c0,10.7,4.62,20.36,11.96,27.07c10.49-0.31,37.04-1.05,50.68-1.36c6.51-6.72,10.6-15.74,10.6-25.81
		C338.76,128.89,336.14,121.33,331.63,115.46z"/>
</g>
<line fill="none" stroke="#434A53" stroke-width="13.4955" stroke-linecap="round" stroke-miterlimit="10" x1="262.69" y1="97.73" x2="317.36" y2="73.28"/>
<circle fill="#FFFFFF" cx="323.34" cy="147.87" r="10.49"/>
<path fill="#434A53" stroke="#434A53" stroke-width="7.8724" stroke-linecap="round" stroke-linejoin="round" stroke-miterlimit="10" d="
	M223.83,249.09h-68.21c-14.56,0-21.63-17.89-10.81-27.66c9.15-8.32,22.98-15.49,43.46-16.22c21.63-0.73,36.5,7.07,46.48,16.22
	C245.36,231.31,238.29,249.09,223.83,249.09z"/>
<path fill="#ED5463" d="M213.33,247.64h-45.02c-9.57,0-14.25-10.19-7.17-15.81c6.03-4.78,15.18-8.84,28.7-9.25
	c14.25-0.42,24.12,4.06,30.67,9.25C227.58,237.45,223,247.64,213.33,247.64z"/>
</svg>
