<?xml version="1.0" encoding="utf-8"?>
<!-- Generator: Adobe Illustrator 21.0.0, SVG Export Plug-In . SVG Version: 6.00 Build 0)  -->
<svg version="1.2" baseProfile="tiny" id="Capa_1" xmlns="http://www.w3.org/2000/svg" xmlns:xlink="http://www.w3.org/1999/xlink"
	 x="0px" y="0px" viewBox="0 0 379 296" xml:space="preserve">
<path fill="#FFFFFF" d="M355,290.7H23.3c-9.9,0-17.9-8-17.9-17.9V24c0-9.9,8-17.9,17.9-17.9H355c9.9,0,17.9,8,17.9,17.9v248.7
	C372.9,282.7,364.9,290.7,355,290.7z"/>
<line fill="none" stroke="#434A53" stroke-width="9" stroke-linecap="round" stroke-miterlimit="10" x1="75.2" y1="62.4" x2="116.5" y2="78"/>
<line fill="none" stroke="#434A53" stroke-width="9" stroke-linecap="round" stroke-miterlimit="10" x1="299.2" y1="65.4" x2="257.4" y2="79.5"/>
<circle fill="#434A53" cx="83.4" cy="152.4" r="32.5"/>
<circle fill="#434A53" cx="297.2" cy="152.4" r="32.5"/>
<circle fill="#FFFFFF" cx="104.5" cy="156" r="9.3"/>
<circle fill="#FFFFFF" cx="318.4" cy="155.7" r="9.3"/>
<path fill="#FFFFFF" d="M119.7,132.6c3.7,3.8-72.7,2.4-72.7,2.4S79.1,91.2,119.7,132.6z"/>
<path fill="#FFFFFF" d="M332.2,132.6c3.7,3.8-72.7,2.4-72.7,2.4S291.6,91.2,332.2,132.6z"/>
<path fill="none" stroke="#434A53" stroke-width="8" stroke-linecap="round" stroke-miterlimit="10" d="M157.8,223.4
	c0,0,19.2-32.9,65.7-17.9"/>
<ellipse fill="#4FC2E9" cx="311.1" cy="249.6" rx="55.1" ry="35.6"/>
<g>
	<path fill="#FFFFFF" d="M303.8,235.8v6.8h-2.1V236c0-2.3-1.1-3.5-3.1-3.5c-2.1,0-3.5,1.4-3.5,3.9v6.1h-2.1V236
		c0-2.3-1.1-3.5-3.1-3.5c-2.1,0-3.5,1.4-3.5,3.9v6.1h-2.1v-11.8h2.1v1.8c0.8-1.2,2.3-1.9,4.1-1.9c1.8,0,3.3,0.7,4.1,2.2
		c0.9-1.3,2.5-2.2,4.6-2.2C301.8,230.6,303.8,232.3,303.8,235.8z"/>
	<path fill="#FFFFFF" d="M307.4,227.1c0-0.8,0.6-1.4,1.4-1.4c0.8,0,1.5,0.6,1.5,1.4c0,0.8-0.6,1.4-1.5,1.4
		C308,228.5,307.4,227.9,307.4,227.1z M307.7,230.8h2.1v11.8h-2.1V230.8z"/>
	<path fill="#FFFFFF" d="M325.2,235.8v6.8h-2.1V236c0-2.3-1.2-3.5-3.2-3.5c-2.3,0-3.7,1.4-3.7,3.9v6.1H314v-11.8h2.1v1.8
		c0.9-1.2,2.4-1.9,4.3-1.9C323.2,230.6,325.2,232.3,325.2,235.8z"/>
	<path fill="#FFFFFF" d="M339.9,237.4h-9.6c0.3,2.1,1.9,3.5,4.3,3.5c1.4,0,2.5-0.5,3.4-1.4l1.2,1.4c-1.1,1.2-2.7,1.9-4.7,1.9
		c-3.8,0-6.4-2.5-6.4-6c0-3.5,2.5-6,5.9-6s5.8,2.5,5.8,6.1C339.9,236.9,339.9,237.2,339.9,237.4z M330.3,235.8h7.6
		c-0.2-2-1.7-3.4-3.8-3.4C332,232.5,330.5,233.8,330.3,235.8z"/>
	<path fill="#FFFFFF" d="M266.7,248.1c0-0.8,0.6-1.4,1.4-1.4c0.8,0,1.5,0.6,1.5,1.4c0,0.8-0.6,1.4-1.5,1.4
		C267.3,249.5,266.7,248.9,266.7,248.1z M267.1,251.8h2.1v11.8h-2.1V251.8z"/>
	<path fill="#FFFFFF" d="M271.8,262.3l0.9-1.7c1,0.7,2.6,1.2,4.2,1.2c2,0,2.8-0.6,2.8-1.6c0-2.7-7.5-0.4-7.5-5.1
		c0-2.1,1.9-3.5,4.9-3.5c1.5,0,3.3,0.4,4.3,1.1l-0.9,1.7c-1.1-0.7-2.3-0.9-3.4-0.9c-1.9,0-2.8,0.7-2.8,1.6c0,2.8,7.5,0.5,7.5,5.1
		c0,2.1-2,3.5-5.1,3.5C274.7,263.7,272.8,263.1,271.8,262.3z"/>
	<path fill="#FFFFFF" d="M302.7,257.7c0,3.6-2.5,6-6,6c-1.7,0-3.3-0.7-4.2-2v1.9h-2.1V247h2.1v6.5c1-1.3,2.5-1.9,4.1-1.9
		C300.2,251.7,302.7,254.1,302.7,257.7z M300.6,257.7c0-2.5-1.7-4.2-4-4.2c-2.3,0-4,1.6-4,4.2c0,2.5,1.7,4.2,4,4.2
		C298.9,261.8,300.6,260.2,300.6,257.7z"/>
	<path fill="#FFFFFF" d="M316.4,258.4h-9.6c0.3,2.1,1.9,3.5,4.3,3.5c1.4,0,2.5-0.5,3.4-1.4l1.2,1.4c-1.1,1.2-2.7,1.9-4.7,1.9
		c-3.8,0-6.4-2.5-6.4-6c0-3.5,2.5-6,5.9-6s5.8,2.5,5.8,6.1C316.4,257.9,316.4,258.2,316.4,258.4z M306.8,256.8h7.6
		c-0.2-2-1.7-3.4-3.8-3.4C308.5,253.5,307,254.8,306.8,256.8z"/>
	<path fill="#FFFFFF" d="M326,262.9c-0.6,0.6-1.6,0.8-2.6,0.8c-2.4,0-3.7-1.3-3.7-3.7v-6.5h-2v-1.8h2v-2.6h2.1v2.6h3.4v1.8h-3.4v6.4
		c0,1.3,0.7,2,1.9,2c0.6,0,1.2-0.2,1.7-0.6L326,262.9z"/>
	<path fill="#FFFFFF" d="M335,262.9c-0.6,0.6-1.6,0.8-2.6,0.8c-2.4,0-3.7-1.3-3.7-3.7v-6.5h-2v-1.8h2v-2.6h2.1v2.6h3.4v1.8h-3.4v6.4
		c0,1.3,0.7,2,1.9,2c0.6,0,1.2-0.2,1.7-0.6L335,262.9z"/>
	<path fill="#FFFFFF" d="M347.8,258.4h-9.6c0.3,2.1,1.9,3.5,4.3,3.5c1.4,0,2.5-0.5,3.4-1.4l1.2,1.4c-1.1,1.2-2.7,1.9-4.7,1.9
		c-3.8,0-6.4-2.5-6.4-6c0-3.5,2.5-6,5.9-6s5.8,2.5,5.8,6.1C347.9,257.9,347.8,258.2,347.8,258.4z M338.2,256.8h7.6
		c-0.2-2-1.7-3.4-3.8-3.4C340,253.5,338.4,254.8,338.2,256.8z"/>
	<path fill="#FFFFFF" d="M357.2,251.7v2.1c-0.2,0-0.3,0-0.5,0c-2.3,0-3.7,1.4-3.7,4v5.9h-2.1v-11.8h2.1v2
		C353.6,252.4,355.1,251.7,357.2,251.7z"/>
</g>
<path fill="#4FC2E9" d="M270.4,234.1c0,0-13.8,6.1-30.2-5c0,0,6.2,13.8,18.6,16.6"/>
</svg>
