<?xml version="1.0" encoding="utf-8"?>
<!-- Generator: Adobe Illustrator 21.0.0, SVG Export Plug-In . SVG Version: 6.00 Build 0)  -->
<svg version="1.2" baseProfile="tiny" id="Capa_1" xmlns="http://www.w3.org/2000/svg" xmlns:xlink="http://www.w3.org/1999/xlink"
	 x="0px" y="0px" viewBox="0 0 379 296" xml:space="preserve">
<path fill="#F4F4F4" d="M355.5,290.7H23.8c-9.9,0-17.9-8-17.9-17.9V24c0-9.9,8-17.9,17.9-17.9h331.7c9.9,0,17.9,8,17.9,17.9v248.7
	C373.4,282.7,365.3,290.7,355.5,290.7z"/>
<line fill="none" stroke="#434A53" stroke-width="11" stroke-linecap="round" stroke-miterlimit="10" x1="28.1" y1="67.2" x2="61.8" y2="58.6"/>
<line fill="none" stroke="#434A53" stroke-width="11" stroke-linecap="round" stroke-miterlimit="10" x1="350" y1="67.2" x2="316.3" y2="58.6"/>
<g>
	<path fill="#434A53" d="M74.6,150.9c-6.2,0-11.3-5-11.3-11.3c0-2.1,0.6-4,1.6-5.7H38.7c-1.8,3.4-2.8,7.2-2.8,11.3
		c0,13.3,10.8,24,24,24c13,0,23.6-10.3,24-23.3C81.8,149,78.4,150.9,74.6,150.9z"/>
	<path fill="#FFFFFF" d="M64.9,133.9c-1,1.7-1.6,3.6-1.6,5.7c0,6.2,5,11.3,11.3,11.3c3.9,0,7.3-1.9,9.3-4.9c1.3-1.8,2-4,2-6.4
		c0-2.1-0.6-4-1.6-5.7L64.9,133.9L64.9,133.9z"/>
</g>
<g>
	<path fill="#434A53" d="M329.6,150.9c-6.2,0-11.3-5-11.3-11.3c0-2.1,0.6-4,1.6-5.7h-26.2c-1.8,3.4-2.8,7.2-2.8,11.3
		c0,13.3,10.8,24,24,24c13,0,23.6-10.3,24-23.3C336.8,149,333.4,150.9,329.6,150.9z"/>
	<path fill="#FFFFFF" d="M319.9,133.9c-1,1.7-1.6,3.6-1.6,5.7c0,6.2,5,11.3,11.3,11.3c3.9,0,7.3-1.9,9.3-4.9c1.3-1.8,2-4,2-6.4
		c0-2.1-0.6-4-1.6-5.7L319.9,133.9L319.9,133.9z"/>
</g>
<path fill="none" stroke="#434A53" stroke-width="10" stroke-linecap="round" stroke-miterlimit="10" d="M155,228.5
	c0,0,25.8-26.1,62.7-17.5"/>
</svg>
