<?xml version="1.0" encoding="utf-8"?>
<!-- Generator: Adobe Illustrator 24.0.1, SVG Export Plug-In . SVG Version: 6.00 Build 0)  -->
<svg version="1.2" baseProfile="tiny" id="Capa_1" xmlns="http://www.w3.org/2000/svg" xmlns:xlink="http://www.w3.org/1999/xlink"
	 x="0px" y="0px" viewBox="0 0 379 296" xml:space="preserve">
<path fill="#F4F4F4" d="M356.28,290.12H24.58c-9.89,0-17.91-8.02-17.91-17.91V23.47c0-9.89,8.02-17.91,17.91-17.91h331.7
	c9.89,0,17.91,8.02,17.91,17.91v248.75C374.19,282.1,366.17,290.12,356.28,290.12z"/>
<g>
	<circle fill="#434A53" cx="73.45" cy="133.17" r="29.2"/>
	<circle fill="#FFFFFF" cx="86.98" cy="124.9" r="10.57"/>
	<circle fill="#FFFFFF" cx="94.13" cy="141.61" r="3.95"/>
	<circle fill="#FFFFFF" cx="74.67" cy="111.74" r="4.22"/>
</g>
<g>
	<circle fill="#434A53" cx="305.95" cy="133.17" r="29.2"/>
	<circle fill="#FFFFFF" cx="319.48" cy="124.9" r="10.57"/>
	<circle fill="#FFFFFF" cx="326.63" cy="141.61" r="3.95"/>
	<circle fill="#FFFFFF" cx="307.17" cy="111.74" r="4.22"/>
</g>
<path fill="#434A53" stroke="#434A53" stroke-width="6.9615" stroke-linecap="round" stroke-linejoin="round" stroke-miterlimit="10" d="
	M133.32,205.72h110.89c0,0-8.56,37.31-53.65,38.81C145.47,246.03,133.32,205.72,133.32,205.72z"/>
<path fill="#ED5463" d="M213.1,237.9c0,0-5.34-16.66-25.17-16.04c-19.83,0.62-23.6,16.04-23.6,16.04S185.81,249.75,213.1,237.9z"/>
<path fill="none" stroke="#434A53" stroke-width="11" stroke-linecap="round" stroke-miterlimit="10" d="M35.73,61.96
	c0,0,12.89-19.09,46.77-10.98"/>
<path fill="none" stroke="#434A53" stroke-width="11" stroke-linecap="round" stroke-miterlimit="10" d="M345.87,61.96
	c0,0-12.89-19.09-46.77-10.98"/>
</svg>
