<?xml version="1.0" encoding="utf-8"?>
<!-- Generator: Adobe Illustrator 21.0.0, SVG Export Plug-In . SVG Version: 6.00 Build 0)  -->
<svg version="1.2" baseProfile="tiny" id="Capa_1" xmlns="http://www.w3.org/2000/svg" xmlns:xlink="http://www.w3.org/1999/xlink"
	 x="0px" y="0px" viewBox="0 0 379 296" xml:space="preserve">
<path fill="#FFFFFF" d="M355.5,290.7H23.8c-9.9,0-17.9-8-17.9-17.9V24c0-9.9,8-17.9,17.9-17.9h331.7c9.9,0,17.9,8,17.9,17.9v248.7
	C373.4,282.7,365.3,290.7,355.5,290.7z"/>
<path fill="#434A53" stroke="#434A53" stroke-width="6.2775" stroke-linecap="round" stroke-linejoin="round" stroke-miterlimit="10" d="
	M138.3,231.4h100c0,0-7.7,33.6-48.4,35S138.3,231.4,138.3,231.4z"/>
<path fill="#ED5463" d="M210.2,260.4c0,0-4.8-15-22.7-14.5c-17.9,0.6-21.3,14.5-21.3,14.5S185.6,271.1,210.2,260.4z"/>
<path fill="none" stroke="#434A53" stroke-width="11" stroke-linecap="round" stroke-miterlimit="10" d="M30.9,59.9
	c0,0,12.9-19.1,46.8-11"/>
<path fill="none" stroke="#434A53" stroke-width="11" stroke-linecap="round" stroke-miterlimit="10" d="M351,59.9
	c0,0-12.9-19.1-46.8-11"/>
<g transform="translate(0,-952.36218)">
	<path fill="#ED5463" d="M41.2,1069.9c-6.7,7.1-6.7,18.6,0,25.8l29.6,31.7c9.9-10.6,19.8-21.1,29.7-31.7c6.7-7.1,6.7-18.6,0-25.8
		c-6.7-7.1-17.5-7.1-24.2,0l-5.5,5.8l-5.5-5.9C58.7,1062.7,47.9,1062.7,41.2,1069.9L41.2,1069.9z"/>
</g>
<g transform="translate(0,-952.36218)">
	<path fill="#ED5463" d="M276.2,1069.9c-6.7,7.1-6.7,18.6,0,25.8l29.6,31.7c9.9-10.6,19.8-21.1,29.7-31.7c6.7-7.1,6.7-18.6,0-25.8
		c-6.7-7.1-17.5-7.1-24.2,0l-5.5,5.8l-5.5-5.9C293.7,1062.7,282.9,1062.7,276.2,1069.9L276.2,1069.9z"/>
</g>
<path fill="none" stroke="#FFFFFF" stroke-width="2" stroke-linecap="round" stroke-miterlimit="10" d="M97.9,122.3
	c0,0,6.3,7.7,0.3,16.5"/>
<path fill="none" stroke="#FFFFFF" stroke-width="2" stroke-linecap="round" stroke-miterlimit="10" d="M333.4,122.3
	c0,0,6.3,7.7,0.3,16.5"/>
</svg>
