<?xml version="1.0" encoding="utf-8"?>
<!-- Generator: Adobe Illustrator 24.0.1, SVG Export Plug-In . SVG Version: 6.00 Build 0)  -->
<svg version="1.2" baseProfile="tiny" id="Capa_1" xmlns="http://www.w3.org/2000/svg" xmlns:xlink="http://www.w3.org/1999/xlink"
	 x="0px" y="0px" viewBox="0 0 379 296" xml:space="preserve">
<path fill="#FFFFFF" d="M355.17,290.56H23.47c-9.89,0-17.91-8.02-17.91-17.91V23.9c0-9.89,8.02-17.91,17.91-17.91h331.7
	c9.89,0,17.91,8.02,17.91,17.91v248.75C373.07,282.54,365.06,290.56,355.17,290.56z"/>
<g>
	<path fill="#434A53" d="M93.61,101.69c-15.84,1.89-27.79,7.43-35.29,11.71c-2.17,4.78-3.41,10.32-3.41,16.23
		c0,17.98,11.45,32.55,25.58,32.55s25.58-14.57,25.58-32.55C106.07,117.76,101.07,107.37,93.61,101.69z"/>
</g>
<g>
	<path fill="#434A53" d="M273.17,130.63c0,17.98,11.45,32.55,25.58,32.55s25.58-14.57,25.58-32.55c0-5.13-0.94-9.98-2.6-14.3
		c-6.77-4.19-19.19-10.9-36.46-13.36C278.01,108.71,273.17,118.95,273.17,130.63z"/>
</g>
<circle fill="#FFFFFF" cx="98.32" cy="129.91" r="11.43"/>
<circle fill="#FFFFFF" cx="316.58" cy="129.91" r="11.43"/>
<path fill="none" stroke="#434A53" stroke-width="10.3681" stroke-linecap="round" stroke-miterlimit="10" d="M136.47,220.43
	c0,0,7.72-29.89,48.38-31.09s51.61,31.09,51.61,31.09"/>
<line fill="none" stroke="#434A53" stroke-width="12" stroke-linecap="round" stroke-miterlimit="10" x1="37.01" y1="71.08" x2="68.68" y2="61.95"/>
<line fill="none" stroke="#434A53" stroke-width="12" stroke-linecap="round" stroke-miterlimit="10" x1="339.43" y1="71.08" x2="307.76" y2="61.95"/>
<g>
	<g>
		<path fill="#434A53" d="M69.12,241.94c1.33-10.48,0.76-23.81-0.88-31.61c-8.94-0.97-32.21-1.12-37.33-0.34
			c-0.22,0.03-0.42,0.06-0.71,0.09c-0.92,0.09-1.16,0.13-1.44,0.23c-0.26,0.09-0.38,0.19-0.55,0.52c-0.43,0.82-0.67,2.32-0.57,4.65
			c0.06,1.32-0.56,2.57-1.65,3.32c-2.46,1.71-2.79,3.41-1.76,6.96c0.61,2.09-0.64,4.26-2.72,4.8c-0.05,0.05-0.11,0.12-0.18,0.22
			c-0.32,0.44-0.61,1.12-0.79,1.88c-0.32,1.38-0.15,2.48-0.06,2.56c1.72,1.48,1.79,4.13,0.14,5.7c-0.39,0.37-1.04,2.09-1.04,3.36
			c0,2.38,0.52,3.05,2.79,3.43c1.79,0.3,3.84,0.5,6.1,0.59c3.77,0.16,7.85,0.03,11.84-0.28c0.97-0.08,1.86-0.16,2.65-0.24
			c0.46-0.05,0.79-0.08,0.95-0.1c1.54-0.19,3.05,0.57,3.81,1.93c0.23,0.41,0.39,0.87,0.49,1.39c0.4,2.05-0.02,5.71-1.66,12.01
			c-1.4,5.39,2.35,10.79,6.83,12.8c0.16,0.07,0.28,0.12,0.37,0.14c-0.05-1.33-0.07-2.67-0.05-3.94c0.01-1.17,0.06-2.23,0.15-3.15
			c0.54-5.71,1.62-9.01,4.87-15.27c1.18-2.27,2.96-4.56,5.17-6.86c1.34-1.4,2.77-2.71,4.19-3.93
			C68.48,242.46,68.82,242.18,69.12,241.94z M71.42,250.13c-0.67,0.62-1.33,1.26-1.95,1.91c-1.75,1.82-3.11,3.57-3.91,5.11
			c-2.81,5.41-3.59,7.79-4.02,12.42c-0.06,0.69-0.1,1.55-0.12,2.53c-0.02,1.24,0.01,2.58,0.06,3.9c0.02,0.63,0.05,1.11,0.06,1.36
			c0.05,0.77-0.14,1.54-0.54,2.21c-0.36,0.6-0.93,1.33-1.76,2.04c-2.38,2.04-5.57,2.75-8.99,1.21
			c-7.55-3.39-13.62-12.14-11.13-21.75c0.55-2.13,0.95-3.9,1.2-5.34c-4.08,0.3-8.23,0.41-12.16,0.25c-2.56-0.11-4.93-0.33-7.06-0.69
			c-6.11-1.03-9.21-5.01-9.2-11.02c0-2.07,0.57-4.34,1.51-6.21c-1.63-4.14-0.37-9.97,2.79-13.03c-0.69-4.43,0.33-8.16,3.74-11.22
			c0.17-5.82,2.36-9.39,6.31-10.76c0.62-0.21,1.23-0.36,1.89-0.46c0.41-0.06,0.46-0.07,1.3-0.15c0.17-0.02,0.27-0.03,0.33-0.04
			c5.63-0.85,27.85-0.77,38.36,0.22c0.36-0.36,0.79-0.65,1.29-0.85c8.53-3.41,11.56-3.69,25.14-2.01c1.51,0.19,2.76,1.24,3.21,2.69
			c3.91,12.81,3.42,26.86,0.28,45.68c-0.37,2.24-2.6,3.67-4.8,3.08c-6.85-1.85-11.32-2.01-20.51-0.99
			C72.28,250.26,71.84,250.23,71.42,250.13z M91.11,242.79c2.18-14.5,2.46-25.82-0.03-35.72c-8.29-0.97-11.12-0.93-15.56,0.6
			c1.99,8.57,2.69,22.83,1.33,34.42C82.36,241.69,86.49,241.87,91.11,242.79z M84.38,210.09c2.48,0,4.39,1.37,4.63,4.53
			c0.24,3.17-2.5,4.54-5.05,4.54s-3.74-1.91-4.18-4.54C79.34,211.99,81.9,210.09,84.38,210.09z"/>
	</g>
</g>
</svg>
