<?xml version="1.0" encoding="utf-8"?>
<!-- Generator: Adobe Illustrator 21.0.0, SVG Export Plug-In . SVG Version: 6.00 Build 0)  -->
<svg version="1.2" baseProfile="tiny" id="Capa_1" xmlns="http://www.w3.org/2000/svg" xmlns:xlink="http://www.w3.org/1999/xlink"
	 x="0px" y="0px" viewBox="0 0 379 296" xml:space="preserve">
<path fill="#FFFFFF" d="M356,290.7H24.3c-9.9,0-17.9-8-17.9-17.9V24c0-9.9,8-17.9,17.9-17.9H356c9.9,0,17.9,8,17.9,17.9v248.7
	C373.9,282.7,365.9,290.7,356,290.7z"/>
<ellipse fill="#434A53" cx="78.4" cy="154.4" rx="25.6" ry="32.5"/>
<circle fill="#FFFFFF" cx="96.3" cy="143.7" r="11.4"/>
<ellipse fill="#434A53" cx="305.7" cy="154.4" rx="25.6" ry="32.5"/>
<circle fill="#FFFFFF" cx="323.6" cy="143.7" r="11.4"/>
<path fill="none" stroke="#434A53" stroke-width="13" stroke-linecap="round" stroke-miterlimit="10" d="M91.6,55.2
	c0,0-13.8,25.6-54.2,21"/>
<path fill="none" stroke="#434A53" stroke-width="13" stroke-linecap="round" stroke-miterlimit="10" d="M286.7,55.2
	c0,0,13.8,25.6,54.2,21"/>
<path fill="#4FC2E9" d="M349.9,18.7c0,0-26.8,38.8,0,40.3C376.4,60.4,349.9,18.7,349.9,18.7z"/>
<g>
	<path fill="#434A53" d="M256.3,261.2H127.8c0,0,9.9-43.2,62.1-45C242.2,214.5,256.3,261.2,256.3,261.2z"/>
	<g>
		<path fill="#FFFFFF" d="M150,236.4v-6.9c-3.7,2.8-6.8,5.8-9.5,8.8h7.5C149.1,238.3,150,237.4,150,236.4z"/>
		<path fill="#FFFFFF" d="M152.7,236.4c0,1.1,0.9,1.9,1.9,1.9h20.7c1.1,0,1.9-0.9,1.9-1.9v-18c0-0.2,0-0.3-0.1-0.5
			c-10,1.9-18,5.4-24.5,9.7v8.8H152.7z"/>
		<path fill="#FFFFFF" d="M180,218.3v18c0,1.1,0.9,1.9,1.9,1.9h20.7c1.1,0,1.9-0.9,1.9-1.9v-18c0-0.4-0.1-0.8-0.3-1.1
			c-4.4-0.7-9.1-1-14.2-0.8c-3.4,0.1-6.7,0.4-9.8,0.9C180.1,217.6,180,218,180,218.3z"/>
		<path fill="#FFFFFF" d="M209.2,238.3H230c1.1,0,1.9-0.9,1.9-1.9v-8c-6.5-4.7-14.6-8.6-24.5-10.5c-0.1,0.2-0.1,0.3-0.1,0.5v18
			C207.3,237.4,208.2,238.3,209.2,238.3z"/>
		<path fill="#FFFFFF" d="M234.6,236.4c0,1.1,0.9,1.9,1.9,1.9h6.3c-2.4-2.7-5.1-5.4-8.2-7.9V236.4z"/>
		<path fill="#FFFFFF" d="M150,259.8v-18c0-1.1-0.9-1.9-1.9-1.9h-8.8c-8.9,10.9-11.3,21.6-11.3,21.6h21
			C149.6,261.1,150,260.5,150,259.8z"/>
		<path fill="#FFFFFF" d="M177.3,259.8v-18c0-1.1-0.9-1.9-1.9-1.9h-20.7c-1.1,0-1.9,0.9-1.9,1.9v18c0,0.7,0.4,1.3,0.9,1.6h22.7
			C176.9,261.1,177.3,260.5,177.3,259.8z"/>
		<path fill="#FFFFFF" d="M204.6,259.8v-18c0-1.1-0.9-1.9-1.9-1.9H182c-1.1,0-1.9,0.9-1.9,1.9v18c0,0.7,0.4,1.3,0.9,1.6h22.7
			C204.2,261.1,204.6,260.5,204.6,259.8z"/>
		<path fill="#FFFFFF" d="M231.9,259.8v-18c0-1.1-0.9-1.9-1.9-1.9h-20.7c-1.1,0-1.9,0.9-1.9,1.9v18c0,0.7,0.4,1.3,0.9,1.6H231
			C231.5,261.1,231.9,260.5,231.9,259.8z"/>
		<path fill="#FFFFFF" d="M234.6,241.7v18c0,0.7,0.4,1.3,0.9,1.6h20.8c0,0-3.2-10.7-12.3-21.6h-7.6
			C235.5,239.8,234.6,240.7,234.6,241.7z"/>
	</g>
	<path fill="none" stroke="#434A53" stroke-width="5.2638" stroke-linejoin="round" stroke-miterlimit="10" d="M257.5,261.5H129.1
		c0,0,9.9-43.2,62.1-45C243.5,214.8,257.5,261.5,257.5,261.5z"/>
</g>
</svg>
