<?xml version="1.0" encoding="utf-8"?>
<!-- Generator: Adobe Illustrator 24.0.1, SVG Export Plug-In . SVG Version: 6.00 Build 0)  -->
<svg version="1.2" baseProfile="tiny" id="Capa_1" xmlns="http://www.w3.org/2000/svg" xmlns:xlink="http://www.w3.org/1999/xlink"
	 x="0px" y="0px" viewBox="0 0 379 296" xml:space="preserve">
<path fill="#FFFFFF" d="M356.11,291.28H24.41c-9.89,0-17.91-8.02-17.91-17.91V24.62c0-9.89,8.02-17.91,17.91-17.91h331.7
	c9.89,0,17.91,8.02,17.91,17.91v248.75C374.01,283.26,366,291.28,356.11,291.28z"/>
<ellipse fill="#434A53" cx="81.43" cy="131.35" rx="25.58" ry="32.55"/>
<circle fill="#FFFFFF" cx="99.26" cy="120.63" r="11.43"/>
<ellipse fill="#434A53" cx="299.69" cy="131.35" rx="25.58" ry="32.55"/>
<circle fill="#FFFFFF" cx="317.52" cy="120.63" r="11.43"/>
<path fill="none" stroke="#434A53" stroke-width="10.3681" stroke-linecap="round" stroke-miterlimit="10" d="M237.4,190.03
	c0,0-7.72,29.89-48.38,31.09c-40.66,1.2-51.61-31.09-51.61-31.09"/>
<line fill="none" stroke="#434A53" stroke-width="12" stroke-linecap="round" stroke-miterlimit="10" x1="37.95" y1="71.8" x2="69.62" y2="62.67"/>
<line fill="none" stroke="#434A53" stroke-width="12" stroke-linecap="round" stroke-miterlimit="10" x1="340.37" y1="71.8" x2="308.7" y2="62.67"/>
<g>
	<g>
		<path fill="#434A53" d="M304.13,230.15c-1.33,10.48-0.76,23.81,0.88,31.61c8.94,0.97,32.21,1.12,37.33,0.34
			c0.22-0.03,0.42-0.06,0.71-0.09c0.92-0.09,1.16-0.13,1.44-0.23c0.26-0.09,0.38-0.19,0.55-0.52c0.43-0.82,0.67-2.32,0.57-4.65
			c-0.06-1.32,0.56-2.57,1.65-3.32c2.46-1.71,2.79-3.41,1.76-6.96c-0.61-2.09,0.64-4.26,2.72-4.8c0.05-0.05,0.11-0.12,0.18-0.22
			c0.32-0.44,0.61-1.12,0.79-1.88c0.32-1.38,0.15-2.48,0.06-2.56c-1.72-1.48-1.79-4.13-0.14-5.7c0.39-0.37,1.04-2.09,1.04-3.36
			c0-2.38-0.52-3.05-2.79-3.43c-1.79-0.3-3.84-0.5-6.1-0.59c-3.77-0.16-7.85-0.03-11.84,0.28c-0.97,0.08-1.86,0.16-2.65,0.24
			c-0.46,0.05-0.79,0.08-0.95,0.1c-1.54,0.19-3.05-0.57-3.81-1.93c-0.23-0.41-0.39-0.87-0.49-1.39c-0.4-2.05,0.02-5.71,1.66-12.01
			c1.4-5.39-2.35-10.79-6.83-12.8c-0.16-0.07-0.28-0.12-0.37-0.14c0.05,1.33,0.07,2.67,0.05,3.94c-0.01,1.17-0.06,2.23-0.15,3.15
			c-0.54,5.71-1.62,9.01-4.87,15.27c-1.18,2.27-2.96,4.56-5.17,6.86c-1.34,1.4-2.77,2.71-4.19,3.93
			C304.77,229.63,304.43,229.91,304.13,230.15z M301.83,221.96c0.67-0.62,1.33-1.26,1.95-1.91c1.75-1.82,3.11-3.57,3.91-5.11
			c2.81-5.41,3.59-7.79,4.02-12.42c0.06-0.69,0.1-1.55,0.12-2.53c0.02-1.24-0.01-2.58-0.06-3.9c-0.02-0.63-0.05-1.11-0.06-1.36
			c-0.05-0.77,0.14-1.54,0.54-2.21c0.36-0.6,0.93-1.33,1.76-2.04c2.38-2.04,5.57-2.75,8.99-1.21c7.55,3.39,13.62,12.14,11.13,21.75
			c-0.55,2.13-0.95,3.9-1.2,5.34c4.08-0.3,8.23-0.41,12.16-0.25c2.56,0.11,4.93,0.33,7.06,0.69c6.11,1.03,9.21,5.01,9.2,11.02
			c0,2.07-0.57,4.34-1.51,6.21c1.63,4.14,0.37,9.97-2.79,13.03c0.69,4.43-0.33,8.16-3.74,11.22c-0.17,5.82-2.36,9.39-6.31,10.76
			c-0.62,0.21-1.23,0.36-1.89,0.46c-0.41,0.06-0.46,0.07-1.3,0.15c-0.17,0.02-0.27,0.03-0.33,0.04c-5.63,0.85-27.85,0.77-38.36-0.22
			c-0.36,0.36-0.79,0.65-1.29,0.85c-8.53,3.41-11.56,3.69-25.14,2.01c-1.51-0.19-2.76-1.24-3.21-2.69
			c-3.91-12.81-3.42-26.86-0.28-45.68c0.37-2.24,2.6-3.67,4.8-3.08c6.85,1.85,11.32,2.01,20.51,0.99
			C300.97,221.83,301.41,221.86,301.83,221.96z M282.14,229.3c-2.18,14.5-2.46,25.82,0.03,35.72c8.29,0.97,11.12,0.93,15.56-0.6
			c-1.99-8.57-2.69-22.83-1.33-34.42C290.89,230.4,286.76,230.22,282.14,229.3z M288.87,262c-2.48,0-4.39-1.37-4.63-4.53
			c-0.24-3.17,2.5-4.54,5.05-4.54s3.74,1.91,4.18,4.54C293.91,260.1,291.35,262,288.87,262z"/>
	</g>
</g>
</svg>
