<?xml version="1.0" encoding="utf-8"?>
<!-- Generator: Adobe Illustrator 21.0.0, SVG Export Plug-In . SVG Version: 6.00 Build 0)  -->
<svg version="1.2" baseProfile="tiny" id="Capa_1" xmlns="http://www.w3.org/2000/svg" xmlns:xlink="http://www.w3.org/1999/xlink"
	 x="0px" y="0px" viewBox="0 0 379 296" xml:space="preserve">
<path fill="#FFFFFF" d="M356,290.2H24.3c-9.9,0-17.9-8-17.9-17.9V23.5c0-9.9,8-17.9,17.9-17.9H356c9.9,0,17.9,8,17.9,17.9v248.7
	C373.9,282.2,365.9,290.2,356,290.2z"/>
<path fill="none" stroke="#434A53" stroke-width="10.4805" stroke-linecap="round" stroke-miterlimit="10" d="M88.1,131
	c0,19.8-9.9,35.9-22.1,35.9S43.9,150.8,43.9,131"/>
<path fill="none" stroke="#434A53" stroke-width="11" stroke-linecap="round" stroke-miterlimit="10" d="M34.9,63.8
	c0,0,17.3-23.3,56.6-13"/>
<path fill="none" stroke="#434A53" stroke-width="10.4805" stroke-linecap="round" stroke-miterlimit="10" d="M286.2,131
	c0,19.8,9.9,35.9,22.1,35.9c12.2,0,22.1-16.1,22.1-35.9"/>
<path fill="none" stroke="#434A53" stroke-width="11" stroke-linecap="round" stroke-miterlimit="10" d="M339.5,63.8
	c0,0-17.3-23.3-56.6-13"/>
<path fill="#434A53" stroke="#434A53" stroke-width="6.2324" stroke-linecap="round" stroke-linejoin="round" stroke-miterlimit="10" d="
	M127.7,223.5h119.3c0,0-9.2,27.8-57.7,28.9S127.7,223.5,127.7,223.5z"/>
<path fill="#ED5463" d="M213.4,247.5c0,0-5.7-12.4-27.1-12s-25.4,12-25.4,12S184.1,256.3,213.4,247.5z"/>
</svg>
