<?xml version="1.0" encoding="utf-8"?>
<!-- Generator: Adobe Illustrator 21.0.0, SVG Export Plug-In . SVG Version: 6.00 Build 0)  -->
<svg version="1.2" baseProfile="tiny" id="Capa_1" xmlns="http://www.w3.org/2000/svg" xmlns:xlink="http://www.w3.org/1999/xlink"
	 x="0px" y="0px" viewBox="0 0 379 296" xml:space="preserve">
<path fill="#F4F4F4" d="M354.5,290.7H22.8c-9.9,0-17.9-8-17.9-17.9V24c0-9.9,8-17.9,17.9-17.9h331.7c9.9,0,17.9,8,17.9,17.9v248.7
	C372.4,282.7,364.3,290.7,354.5,290.7z"/>
<path fill="none" stroke="#434A53" stroke-width="11" stroke-linecap="round" stroke-miterlimit="10" d="M244.7,258.6
	c0,0-50.5-39.8-107.1-0.2"/>
<path fill="#4FC2E9" d="M319.6,171.2c0,0-15.8,23,0,23.8C335.2,195.9,319.6,171.2,319.6,171.2z"/>
<path fill="none" stroke="#434A53" stroke-width="13" stroke-linecap="round" stroke-miterlimit="10" d="M90.2,39.2
	c0,0-13.8,25.6-54.2,21"/>
<path fill="none" stroke="#434A53" stroke-width="13" stroke-linecap="round" stroke-miterlimit="10" d="M285.3,39.2
	c0,0,13.8,25.6,54.2,21"/>
<g>
	<circle fill="#434A53" cx="71.6" cy="139.6" r="29.2"/>
	<circle fill="#FFFFFF" cx="85.1" cy="131.4" r="10.6"/>
	<circle fill="#FFFFFF" cx="92.3" cy="148.1" r="3.9"/>
	<circle fill="#FFFFFF" cx="72.8" cy="118.2" r="4.2"/>
</g>
<g>
	<circle fill="#434A53" cx="304.1" cy="139.6" r="29.2"/>
	<circle fill="#FFFFFF" cx="317.6" cy="131.4" r="10.6"/>
	<circle fill="#FFFFFF" cx="324.8" cy="148.1" r="3.9"/>
	<circle fill="#FFFFFF" cx="305.3" cy="118.2" r="4.2"/>
</g>
</svg>
