<?xml version="1.0" encoding="utf-8"?>
<!-- Generator: Adobe Illustrator 24.0.1, SVG Export Plug-In . SVG Version: 6.00 Build 0)  -->
<svg version="1.2" baseProfile="tiny" id="Capa_1" xmlns="http://www.w3.org/2000/svg" xmlns:xlink="http://www.w3.org/1999/xlink"
	 x="0px" y="0px" viewBox="0 0 379 296" xml:space="preserve">
<path fill="#F4F4F4" d="M355.17,290.52H23.47c-9.9,0-17.9-8-17.9-17.9V23.92c0-9.9,8-17.9,17.9-17.9h331.7c9.9,0,17.9,8,17.9,17.9
	v248.7C373.07,282.52,365.07,290.52,355.17,290.52z"/>
<g>
	<path fill="#434A53" d="M67.77,130.42l11-23.3c-3.7-5.1-8.6-8.1-13.9-8.1c-12.2,0-21.7,15.7-21.7,35.7s9.5,35.7,21.7,35.7
		s21.7-15.7,21.7-35.7c0-5.4-0.7-10.4-1.9-15L67.77,130.42z"/>
</g>
<g>
	<path fill="#434A53" d="M315.87,130.42l11-23.3c-3.7-5.1-8.6-8.1-13.9-8.1c-12.2,0-21.7,15.7-21.7,35.7s9.5,35.7,21.7,35.7
		s21.7-15.7,21.7-35.7c0-5.4-0.7-10.4-1.9-15L315.87,130.42z"/>
</g>
<line fill="none" stroke="#434A53" stroke-width="13" stroke-linecap="round" stroke-miterlimit="10" x1="29.87" y1="50.12" x2="61.47" y2="35.52"/>
<line fill="none" stroke="#434A53" stroke-width="13" stroke-linecap="round" stroke-miterlimit="10" x1="348.87" y1="49.52" x2="316.77" y2="36.12"/>
<path fill="#434A53" stroke="#434A53" stroke-width="9.1327" stroke-linecap="round" stroke-linejoin="round" stroke-miterlimit="10" d="
	M230.43,230.4c0,22.26-18.03,26.11-40.17,26.11s-40.17-3.85-40.17-26.11s18.03-40.17,40.17-40.17S230.43,208.14,230.43,230.4z"/>
<path fill="#ED5463" d="M210.27,238.82"/>
<path fill="#ED5463" d="M159.43,234.88c0,0,31.46-21.51,62.55,0.62c0,0,3.98,14.92-27.23,15.92
	C157.56,252.54,159.43,234.88,159.43,234.88z"/>
<g>
	<path fill="#434A53" d="M32.76,151.16c1.59,13.49,10.77,25.23,23.54,29.92c1.27,0.47,2.74-0.52,3.08-1.75
		c0.38-1.39-0.47-2.61-1.75-3.08c-10.48-3.85-18.56-13.99-19.87-25.1c-0.16-1.34-1.04-2.5-2.5-2.5
		C34.03,148.66,32.6,149.81,32.76,151.16L32.76,151.16z"/>
</g>
<g>
	<path fill="#434A53" d="M340.62,151.16c-1.31,11.11-9.39,21.25-19.87,25.1c-1.27,0.46-2.13,1.7-1.75,3.08
		c0.34,1.22,1.8,2.21,3.08,1.75c12.77-4.69,21.96-16.43,23.54-29.92c0.16-1.34-1.26-2.5-2.5-2.5
		C341.64,148.66,340.78,149.82,340.62,151.16L340.62,151.16z"/>
</g>
<g>
	<path fill="#F4F4F4" d="M70.39,271.7c4.2-10,17.1-32.1,21.9-41.9c2.7-5.5,6-11.2,11.4-13.9c1-0.5,2.1-0.9,3.1-0.7
		c3.3,0.5,3.8,5.1,3.3,8.6c-1.1,7.7-3,15.2-5.7,22.5c2.9-6.4,7.1-12.2,12.2-17c2.7-2.5,7.3-4.5,9.4-1.6c0.9,1.3,0.9,3.1,0.7,4.7
		c-0.7,7.3-2.7,14.5-5.7,21.2c2-5.4,5.4-10.2,9.7-13.8c2.6-2.2,6.6-4,9.1-1.8c2.1,1.8,1.9,5.1,1.4,7.9c-1.1,6.2-3.1,12.2-5.9,17.8
		c2-4.9,5.3-9.2,9.4-12.2c1.2-0.8,2.5-1.6,3.9-1.5c3.4,0.3,4,5.1,3.4,8.7c-1.8,10.8,0,4.3-5.8,13.7"/>
	<g>
		<path fill="#434A53" d="M72.49,272.9c5.2-12.3,12.3-23.8,18.6-35.6c2.9-5.4,6.3-16.3,12.5-18.6c7.2-2.6,3.2,10.4,2.5,13.2
			c-1.1,4.7-2.5,9.2-4.1,13.7c-0.9,2.6,3.3,4.4,4.5,1.9c1.5-3.2,3.2-6.3,5.3-9.1c1.7-2.3,5.1-7.4,8.1-8.5c6-2.2,4.1,5.6,3.3,9.2
			c-1,4.6-2.4,9.1-4.3,13.4c1.5,0.6,3,1.3,4.5,1.9c1.3-3.2,3-6.3,5.3-8.9c1.6-1.9,8.8-9.9,10.5-2.4c0.6,2.4-1.1,6.6-1.8,8.9
			c-1.1,3.6-2.5,7.1-4.1,10.6c1.4,0.8,2.8,1.6,4.2,2.5c1.8-4.1,4.3-7.9,7.8-10.8c5.5-4.4,4.3,4.9,3.8,7.8c-0.6,3.8-2.8,5.8-4.9,9.1
			c-1.7,2.7,2.5,5.1,4.2,2.5c1.5-2.5,4-4.9,4.9-7.7c1.2-3.8,2-9.5,0.8-13.4c-4.2-13.8-18.5,4.5-20.9,10.1c-1.2,2.8,2.8,5.3,4.2,2.5
			c3-6.3,12.3-25.1,2.5-29.7c-9.5-4.4-18.6,11-21.3,17.8c-1,2.5,3.4,4.4,4.5,1.9c2.8-6.5,4.8-13.3,5.7-20.3c0.5-3.9,0.7-9-3.9-10.5
			c-9.9-3.1-19.5,14.2-22.6,20.9c1.5,0.6,3,1.3,4.5,1.9c2.2-6.2,4-12.5,5.1-19c0.7-3.8,1.6-8.2-0.3-11.9c-4.8-9.2-15.4,2.1-18.4,7
			c-4.6,7.4-8.3,15.5-12.5,23.2c-4.3,7.9-8.9,15.8-12.4,24.1C67.09,273.3,71.29,275.8,72.49,272.9L72.49,272.9z"/>
	</g>
</g>
<g>
	<path fill="#F4F4F4" d="M310.89,271.7c-4.2-10-17.1-32.1-21.9-41.9c-2.7-5.5-6-11.2-11.4-13.9c-1-0.5-2.1-0.9-3.1-0.7
		c-3.3,0.5-3.8,5.1-3.3,8.6c1.1,7.7,3,15.2,5.7,22.5c-2.9-6.4-7.1-12.2-12.2-17c-2.7-2.5-7.3-4.5-9.4-1.6c-0.9,1.3-0.9,3.1-0.7,4.7
		c0.7,7.3,2.7,14.5,5.7,21.2c-2-5.4-5.4-10.2-9.7-13.8c-2.6-2.2-7.5-5-10.1-2.9c-2.1,1.8-1,6.1-0.4,8.9c1.1,6.2,3.1,12.2,5.9,17.8
		c-2-4.9-5.3-9.2-9.4-12.2c-1.2-0.8-2.5-1.6-3.9-1.5c-3.4,0.3-4,5.1-3.4,8.7c1.8,10.8,0,4.3,5.8,13.7"/>
	<g>
		<path fill="#434A53" d="M312.99,270.4c-3.4-8.1-7.8-15.8-12-23.5c-4.3-7.9-8.1-16.2-12.8-23.8c-3-4.8-12.9-15.8-18.2-7.5
			c-2.3,3.6-1.2,8.5-0.5,12.3c1.1,6.5,2.9,12.8,5.1,19c1.5-0.6,3-1.3,4.5-1.9c-2.7-5.8-6.3-11.2-10.9-15.8
			c-2.9-2.9-7.3-6.5-11.8-5.2c-4.5,1.4-4.4,6.3-4,10.2c0.9,7.2,2.9,14,5.8,20.7c1.1,2.5,5.5,0.7,4.5-1.9
			c-2.3-5.7-5.6-10.9-10.3-14.9c-3.1-2.5-8-5.7-12.1-3.8c-4.3,2-3.4,7.3-2.7,11.1c1.2,6.8,3.4,13.3,6.4,19.5
			c1.4,2.9,5.4,0.4,4.2-2.5c-2.4-5.6-16.7-23.8-20.9-10.1c-1.2,3.9-0.3,9.3,0.8,13.2c0.9,2.9,3.4,5.4,5,7.9c1.7,2.7,5.9,0.2,4.2-2.5
			c-2.1-3.3-4.3-5.3-4.9-9.1c-0.4-2.6-2.1-12.5,3.8-7.8c3.6,2.8,6,6.6,7.8,10.8c1.4-0.8,2.8-1.6,4.2-2.5c-1.9-3.9-3.5-8-4.6-12.2
			c-0.6-2.4-2.7-7.7-1.7-10c1.6-3.8,7.5,1.6,9.3,3.5c3,3.1,5.2,6.7,6.8,10.7c1.5-0.6,3-1.3,4.5-1.9c-1.7-4.1-3.1-8.2-4.1-12.5
			c-0.6-2.9-3.6-13.2,3.1-10c3,1.4,5.7,5.3,7.6,7.9c2.3,3,4.1,6.3,5.8,9.8c1.2,2.5,5.4,0.7,4.5-1.9c-1.6-4.5-3-9.1-4.1-13.7
			c-0.6-2.8-4.7-15.8,2.5-13.2c6.2,2.2,9.6,13.1,12.5,18.6c6.3,11.7,13.4,23.3,18.6,35.6C309.99,275.8,314.19,273.3,312.99,270.4
			L312.99,270.4z"/>
	</g>
</g>
</svg>
