<?xml version="1.0" encoding="utf-8"?>
<!-- Generator: Adobe Illustrator 21.0.0, SVG Export Plug-In . SVG Version: 6.00 Build 0)  -->
<svg version="1.2" baseProfile="tiny" id="Capa_1" xmlns="http://www.w3.org/2000/svg" xmlns:xlink="http://www.w3.org/1999/xlink"
	 x="0px" y="0px" viewBox="0 0 379 296" xml:space="preserve">
<path fill="#FFFFFF" d="M354.5,290.2H22.8c-9.9,0-17.9-8-17.9-17.9V23.5c0-9.9,8-17.9,17.9-17.9h331.7c9.9,0,17.9,8,17.9,17.9v248.7
	C372.4,282.2,364.3,290.2,354.5,290.2z"/>
<g>
	<circle fill="#434A53" cx="73.1" cy="135" r="29.2"/>
	<circle fill="#FFFFFF" cx="87.8" cy="144.4" r="10"/>
</g>
<path fill="none" stroke="#434A53" stroke-width="8" stroke-linecap="round" stroke-miterlimit="10" d="M34.4,87.8
	c0,0,12.9-19.1,46.8-11"/>
<g>
	<circle fill="#434A53" cx="297.6" cy="135" r="29.2"/>
	<circle fill="#FFFFFF" cx="312.3" cy="144.4" r="10"/>
</g>
<path fill="none" stroke="#434A53" stroke-width="8" stroke-linecap="round" stroke-miterlimit="10" d="M333.7,87.8
	c0,0-12.9-19.1-46.8-11"/>
<ellipse fill="#ED5463" cx="74.4" cy="170.9" rx="32.5" ry="14.8"/>
<ellipse fill="#ED5463" cx="301.7" cy="170.9" rx="32.5" ry="14.8"/>
<path fill="#FFFFFF" d="M39.3,125.7c0,0,23-18.3,56.3-16C95.7,109.7,60,79.7,39.3,125.7z"/>
<path fill="#FFFFFF" d="M329.9,125.3c0,0-23.9-17.2-57-13.2C272.9,112,307,80.3,329.9,125.3z"/>
<g>
	<path fill="#FFFFFF" d="M13.6,182.6c5.3-8.4,15.6-22.4,21.5-30.5c3.3-4.5,7.2-9.2,12.5-10.8c1-0.3,2-0.5,3-0.2
		c2.9,0.9,2.6,5.3,1.7,8.3c-2.2,6.8-5.1,13.3-8.6,19.5c3.6-5.4,8.3-10,13.7-13.5c2.8-1.8,7.3-3,8.7,0c0.6,1.3,0.3,2.9-0.1,4.4
		c-1.8,6.5-4.6,12.7-8.4,18.4c2.6-4.6,6.4-8.4,10.9-11.1c2.7-1.6,6.6-2.6,8.5-0.2c1.6,1.9,0.9,4.9,0.1,7.3c-2,5.4-4.7,10.6-8.1,15.2
		c2.5-4.1,6.2-7.5,10.4-9.6c1.2-0.6,2.5-1.1,3.7-0.8c3.1,0.8,2.8,5.3,1.8,8.4c-3.3,9.5-43.8,68-50.4,75.6"/>
	<g>
		<path fill="#434A53" d="M15.4,183.7c6.1-9.7,13-18.8,19.8-28.1c1.8-2.5,3.6-5.1,5.8-7.4c1.9-2,9.4-8.6,9.5-1.5
			c0.1,3.2-2.3,7.4-3.5,10.3c-1.6,3.8-3.4,7.4-5.4,10.9c-1.4,2.4,2.1,4.4,3.7,2.2c2.1-3,4.4-5.7,7-8.1c2-1.9,6.4-6.3,9.4-6
			c5.8,0.5-4.5,18.5-6.2,21.2c1.2,0.7,2.5,1.4,3.7,2.2c1.7-2.8,3.7-5.3,6.2-7.4c1.9-1.6,9.5-7.6,10.3-1.5c0.4,2.6-2.3,7-3.3,9.1
			c-1.6,3.1-3.4,6-5.4,8.9c1.2,0.7,2.5,1.4,3.7,2.2c1.3-2,9.8-12.7,12.6-7.6c0.7,1.3-0.6,3.8-1.1,5.1c-1.1,2.6-2.7,5.1-4.2,7.5
			c-4.9,8.2-10.2,16.2-15.6,24.2c-9.4,14-18.6,29-29.6,41.8c-1.8,2.1,1.2,5.1,3,3c10.1-11.7,18.5-25.2,27.1-38
			c5.4-8,10.8-16,15.9-24.2c3-4.7,6.9-9.9,8.3-15.4c1-3.7,0.6-9.3-4.2-10c-6.4-0.9-13,6.9-16,11.5c-1.5,2.3,2.1,4.4,3.7,2.2
			c3.5-5,14.7-20.7,6.6-26.1c-7.9-5.2-18.3,7.1-21.7,12.7c-1.5,2.4,2.2,4.5,3.7,2.2c3.1-4.8,15-23.4,5.9-27.3
			c-8.7-3.7-19.5,10.1-23.5,15.9c1.2,0.7,2.5,1.4,3.7,2.2c2.4-4.3,4.6-8.8,6.4-13.3c1.5-3.7,3.6-8.1,3.1-12.2
			c-0.8-8-9.2-5.6-13.7-2.2c-6,4.5-10.2,11.8-14.6,17.8c-5.1,7-10.3,14.1-14.9,21.5C10.2,183.9,13.9,186,15.4,183.7L15.4,183.7z"/>
	</g>
</g>
<g>
	<path fill="#FFFFFF" d="M363.1,182.6c-5.3-8.4-15.6-22.4-21.5-30.5c-3.3-4.5-7.2-9.2-12.5-10.8c-1-0.3-2-0.5-3-0.2
		c-2.9,0.9-2.6,5.3-1.7,8.3c2.2,6.8,5.1,13.3,8.6,19.5c-3.6-5.4-8.3-10-13.7-13.5c-2.8-1.8-7.3-3-8.7,0c-0.6,1.3-0.3,2.9,0.1,4.4
		c1.8,6.5,4.6,12.7,8.4,18.4c-2.6-4.6-6.5-8.4-10.9-11.1c-2.7-1.6-6.6-2.6-8.5-0.2c-1.6,1.9-0.9,4.9-0.1,7.3
		c2,5.4,4.7,10.6,8.1,15.2c-2.5-4.1-6.2-7.5-10.4-9.6c-1.2-0.6-2.5-1.1-3.7-0.8c-3.1,0.8-2.8,5.3-1.8,8.4c3.3,9.5,43.8,68,50.4,75.6
		"/>
	<g>
		<path fill="#434A53" d="M365,181.5c-4.5-7.2-9.5-14-14.5-20.9c-4.5-6.2-8.8-13.7-15-18.4c-4.4-3.3-12.6-5.8-13.7,2
			c-0.5,4,1.4,8.1,2.8,11.7c1.9,4.9,4.2,9.6,6.8,14.2c1.2-0.7,2.5-1.4,3.7-2.2c-4.1-5.8-14.8-19.6-23.5-15.9
			c-9.1,3.9,2.8,22.5,5.9,27.3c1.5,2.3,5.2,0.2,3.7-2.2c-3.4-5.6-13.8-17.9-21.7-12.7c-8.1,5.4,3,21.2,6.6,26.1
			c1.6,2.2,5.3,0.2,3.7-2.2c-3.1-4.6-8.3-10.6-14.2-11.5c-4.1-0.6-6.5,2.8-6.4,6.6c0,5.9,4.2,11.5,7.1,16.2
			c10.1,16.5,21.1,32.4,32.3,48.2c4,5.6,7.9,11.4,12.4,16.6c1.8,2.1,4.8-1,3-3c-11.1-12.8-20.2-27.8-29.6-41.8
			c-5.3-8-10.7-16-15.6-24.2c-1.5-2.4-3-4.9-4.2-7.5c-0.6-1.3-1.7-3.7-1.1-5.1c2.3-5.4,11.6,6,12.6,7.6c1.2-0.7,2.5-1.4,3.7-2.2
			c-1.8-2.6-3.5-5.3-5-8.1c-1.2-2.3-4.2-7.1-3.7-9.9c0.5-3,3.3-2.7,5.3-1.8c1.6,0.7,3.1,1.7,4.4,2.8c2.7,2.2,4.9,4.9,6.8,7.9
			c1.2-0.7,2.5-1.4,3.7-2.2c-1.8-2.8-11.9-20.7-6.2-21.2c2.8-0.3,7,3.9,8.8,5.5c2.9,2.6,5.4,5.5,7.6,8.7c1.6,2.2,5.1,0.3,3.7-2.2
			c-1.7-3.1-3.4-6.3-4.8-9.6c-1.3-2.9-3.7-7.4-3.9-10.7c-0.4-7.4,6.2-2.6,8.9,0c2.4,2.4,4.4,5.2,6.3,7.9
			c6.8,9.2,13.6,18.4,19.8,28.1C362.8,186,366.5,183.9,365,181.5L365,181.5z"/>
	</g>
</g>
<path fill="none" stroke="#434A53" stroke-width="9" stroke-linecap="round" stroke-miterlimit="10" d="M162.6,202.1
	c0,0,44.9,12,69.7-11.6"/>
</svg>
