<?xml version="1.0" encoding="utf-8"?>
<!-- Generator: Adobe Illustrator 21.0.0, SVG Export Plug-In . SVG Version: 6.00 Build 0)  -->
<svg version="1.2" baseProfile="tiny" id="Capa_1" xmlns="http://www.w3.org/2000/svg" xmlns:xlink="http://www.w3.org/1999/xlink"
	 x="0px" y="0px" viewBox="0 0 379 296" xml:space="preserve">
<path fill="#FFFFFF" d="M355.5,291.2H23.8c-9.9,0-17.9-8-17.9-17.9V24.5c0-9.9,8-17.9,17.9-17.9h331.7c9.9,0,17.9,8,17.9,17.9v248.7
	C373.4,283.2,365.3,291.2,355.5,291.2z"/>
<ellipse fill="#ED5463" cx="62.8" cy="169.4" rx="36.8" ry="17.7"/>
<ellipse fill="#ED5463" cx="315.1" cy="169.4" rx="36.8" ry="17.7"/>
<g>
	<path fill="#CE495C" d="M28.9,162.4c-1.6,1.7-2.6,3.6-2.9,5.6l11.4-11.4c-2.9,1.3-5.4,2.9-7.3,4.6L28.9,162.4z"/>
	<path fill="#CE495C" d="M52.7,152.4c-1.1,0.1-2.1,0.3-3.2,0.5l-21.9,21.9c0.3,0.5,0.7,1,1.2,1.5L52.7,152.4z"/>
	<path fill="#CE495C" d="M64.5,151.8c-0.6,0-1.3,0-1.9,0c-0.2,0-0.5,0-0.7,0l-28.4,28.4c0.5,0.3,1.1,0.7,1.7,1L64.5,151.8z"/>
	<path fill="#CE495C" d="M74.8,152.8c-0.8-0.1-1.5-0.2-2.3-0.3l-31.3,31.3c0.7,0.2,1.3,0.4,2,0.7L74.8,152.8z"/>
	<path fill="#CE495C" d="M83.7,155c-0.7-0.2-1.3-0.4-2-0.6L50,186.1c0.8,0.1,1.5,0.2,2.3,0.4L83.7,155z"/>
	<path fill="#CE495C" d="M89.7,157.5L60.2,187c0.8,0,1.6,0,2.4,0c0.1,0,0.1,0,0.2,0l28.6-28.6C90.9,158.2,90.3,157.9,89.7,157.5z"/>
	<path fill="#CE495C" d="M97.4,163.7c-0.4-0.5-0.8-1-1.2-1.5l-24.3,24.3c1.1-0.1,2.1-0.3,3.1-0.5L97.4,163.7z"/>
	<path fill="#CE495C" d="M97.8,174.5c0.8-1.3,1.3-2.7,1.5-4.1L87,182.7c2.2-0.9,4.1-2,5.8-3.1L97.8,174.5z"/>
</g>
<g>
	<path fill="#CE495C" d="M281.2,162.4c-1.6,1.7-2.6,3.6-2.9,5.6l11.4-11.4c-2.9,1.3-5.4,2.9-7.3,4.6L281.2,162.4z"/>
	<path fill="#CE495C" d="M305.1,152.4c-1.1,0.1-2.1,0.3-3.2,0.5L280,174.8c0.3,0.5,0.7,1,1.2,1.5L305.1,152.4z"/>
	<path fill="#CE495C" d="M316.9,151.8c-0.6,0-1.3,0-1.9,0c-0.2,0-0.5,0-0.7,0l-28.4,28.4c0.5,0.3,1.1,0.7,1.7,1L316.9,151.8z"/>
	<path fill="#CE495C" d="M327.1,152.8c-0.8-0.1-1.5-0.2-2.3-0.3l-31.3,31.3c0.7,0.2,1.3,0.4,2,0.7L327.1,152.8z"/>
	<path fill="#CE495C" d="M336.1,155c-0.7-0.2-1.3-0.4-2-0.6l-31.7,31.7c0.8,0.1,1.5,0.2,2.3,0.4L336.1,155z"/>
	<path fill="#CE495C" d="M342.1,157.5L312.6,187c0.8,0,1.6,0,2.4,0c0.1,0,0.1,0,0.2,0l28.6-28.6
		C343.2,158.2,342.6,157.9,342.1,157.5z"/>
	<path fill="#CE495C" d="M349.7,163.7c-0.4-0.5-0.8-1-1.2-1.5l-24.3,24.3c1.1-0.1,2.1-0.3,3.1-0.5L349.7,163.7z"/>
	<path fill="#CE495C" d="M350.2,174.5c0.8-1.3,1.3-2.7,1.5-4.1l-12.4,12.3c2.2-0.9,4.1-2,5.8-3.1L350.2,174.5z"/>
</g>
<g>
	<path fill="#434A53" d="M70.2,119.2c-6.1,9.4-17,14.8-25.1,17.5c-0.3,1.5-0.5,3.1-0.5,4.7c0,12.4,10.1,22.5,22.5,22.5
		s22.5-10.1,22.5-22.5C89.7,130.1,81.2,120.7,70.2,119.2z"/>
	<path fill="#434A53" d="M308,119.6c-10,2.3-17.4,11.2-17.4,21.9c0,12.4,10.1,22.5,22.5,22.5s22.5-10.1,22.5-22.5
		c0-1.4-0.1-2.7-0.4-4C327.1,135,314.8,129.7,308,119.6z"/>
</g>
<g>
	<path fill="#D9DBDD" d="M269.9,179.4c0-8.8-7.2-16-16-16c-8.8,0-16,7.2-16,16c0,2.8,0.7,5.4,2,7.7l-23.7,45.7l17.6,6.5l21.9-44
		C263.6,194.4,269.9,187.6,269.9,179.4z"/>
	<path fill="#ED5463" d="M254.3,171.5c-4.4,0-8,3.6-8,8c0,2,0.8,3.8,2,5.3l-23.5,45.6l5.5,2.9l23.6-45.8c0.1,0,0.3,0,0.4,0
		c4.4,0,8-3.6,8-8S258.7,171.5,254.3,171.5z"/>
	<line fill="none" stroke="#434A53" stroke-linecap="round" stroke-miterlimit="10" x1="234.4" y1="197" x2="241.5" y2="200.9"/>
	<line fill="none" stroke="#434A53" stroke-linecap="round" stroke-miterlimit="10" x1="230.7" y1="204.2" x2="237.9" y2="208"/>
	<line fill="none" stroke="#434A53" stroke-linecap="round" stroke-miterlimit="10" x1="227.4" y1="210.5" x2="234.6" y2="214.4"/>
	<line fill="none" stroke="#434A53" stroke-linecap="round" stroke-miterlimit="10" x1="224.1" y1="216.8" x2="231.2" y2="220.6"/>
	<line fill="none" stroke="#434A53" stroke-linecap="round" stroke-miterlimit="10" x1="221.2" y1="222.8" x2="228.4" y2="226.7"/>
</g>
<path fill="none" stroke="#434A53" stroke-width="13" stroke-linecap="round" stroke-miterlimit="10" d="M94.2,43.2
	c0,0-13.8,25.6-54.2,21"/>
<path fill="none" stroke="#434A53" stroke-width="13" stroke-linecap="round" stroke-miterlimit="10" d="M289.3,43.2
	c0,0,13.8,25.6,54.2,21"/>
<circle fill="#FFFFFF" cx="81.7" cy="148.4" r="10.6"/>
<circle fill="#FFFFFF" cx="327.7" cy="149.4" r="10.6"/>
<path fill="none" stroke="#434A53" stroke-width="13.2641" stroke-linecap="round" stroke-miterlimit="10" d="M255.4,249.9
	c0,0-60.9-48-129.2-0.3"/>
</svg>
