<?xml version="1.0" encoding="utf-8"?>
<!-- Generator: Adobe Illustrator 24.0.1, SVG Export Plug-In . SVG Version: 6.00 Build 0)  -->
<svg version="1.2" baseProfile="tiny" id="Capa_1" xmlns="http://www.w3.org/2000/svg" xmlns:xlink="http://www.w3.org/1999/xlink"
	 x="0px" y="0px" viewBox="0 0 379 296" xml:space="preserve">
<path fill="#FFFFFF" d="M355.01,290.16H23.31c-9.89,0-17.91-8.02-17.91-17.91V23.51c0-9.89,8.02-17.91,17.91-17.91h331.7
	c9.89,0,17.91,8.02,17.91,17.91v248.75C372.92,282.14,364.9,290.16,355.01,290.16z"/>
<path fill="#434A53" stroke="#434A53" stroke-width="8.7072" stroke-linecap="round" stroke-linejoin="round" stroke-miterlimit="10" d="
	M227.26,254.29h-75.49c-16.05,0-23.87-19.8-11.99-30.6c10.18-9.25,25.44-17.19,48.03-17.94c23.88-0.79,40.38,7.79,51.46,17.96
	C251.09,234.55,243.3,254.29,227.26,254.29z"/>
<path fill="#ED5463" d="M215.71,252.58h-49.85c-10.6,0-15.76-11.3-7.92-17.46c6.72-5.28,16.8-9.81,31.72-10.24
	c15.77-0.45,26.66,4.45,33.98,10.24C231.45,241.32,226.31,252.58,215.71,252.58z"/>
<ellipse fill="#434A53" cx="82.79" cy="156.06" rx="25.58" ry="32.55"/>
<circle fill="#FFFFFF" cx="82.24" cy="178.08" r="11.43"/>
<ellipse fill="#434A53" cx="301.05" cy="156.06" rx="25.58" ry="32.55"/>
<circle fill="#FFFFFF" cx="300.51" cy="178.08" r="11.43"/>
<path fill="none" stroke="#434A53" stroke-width="13" stroke-linecap="round" stroke-miterlimit="10" d="M95.91,45.88
	c0,0-13.81,25.56-54.2,20.96"/>
<path fill="none" stroke="#434A53" stroke-width="13" stroke-linecap="round" stroke-miterlimit="10" d="M291.03,45.88
	c0,0,13.81,25.56,54.2,20.96"/>
<path fill="#4FC2E9" d="M38.51,84.86c0,0-25.05,36.19,0,37.58C63.19,123.82,38.51,84.86,38.51,84.86z"/>
</svg>
