<?xml version="1.0" encoding="utf-8"?>
<!-- Generator: Adobe Illustrator 21.0.0, SVG Export Plug-In . SVG Version: 6.00 Build 0)  -->
<svg version="1.2" baseProfile="tiny" id="Capa_1" xmlns="http://www.w3.org/2000/svg" xmlns:xlink="http://www.w3.org/1999/xlink"
	 x="0px" y="0px" viewBox="0 0 379 296" xml:space="preserve">
<path fill="#F4F4F4" d="M356,290.7H24.3c-9.9,0-17.9-8-17.9-17.9V24c0-9.9,8-17.9,17.9-17.9H356c9.9,0,17.9,8,17.9,17.9v248.7
	C373.9,282.7,365.9,290.7,356,290.7z"/>
<line fill="none" stroke="#434A53" stroke-width="11" stroke-linecap="round" stroke-miterlimit="10" x1="38.9" y1="87.5" x2="73.5" y2="84"/>
<path fill="none" stroke="#434A53" stroke-width="9.493" stroke-linecap="round" stroke-miterlimit="10" d="M45,157.2
	c0,0,33.6,20.4,63.8,0"/>
<line fill="none" stroke="#434A53" stroke-width="11" stroke-linecap="round" stroke-miterlimit="10" x1="336.1" y1="87.5" x2="301.4" y2="84"/>
<path fill="none" stroke="#434A53" stroke-width="9.493" stroke-linecap="round" stroke-miterlimit="10" d="M329.9,157.2
	c0,0-33.6,20.4-63.8,0"/>
<circle fill="#434A53" stroke="#434A53" stroke-width="6.4754" stroke-linecap="round" stroke-linejoin="round" stroke-miterlimit="10" cx="189.1" cy="237.9" r="28.5"/>
<path fill="#ED5463" d="M168.9,248.2c0,0,16.5-11.1,40.2,0.5C209.1,248.7,192.1,276.8,168.9,248.2z"/>
<g>
	<g>
		<path fill="#95DAF2" d="M284.5,75.2v3.3h-18.3v-2.6l12.9-16h-12.7v-3.3h17.7v2.6l-12.9,16H284.5z"/>
	</g>
	<g>
		<path fill="#72CEED" d="M306.8,61v3.8h-21.2v-3l14.9-18.6h-14.6v-3.8h20.5v3L291.5,61H306.8z"/>
	</g>
	<g>
		<path fill="#4FC2E9" d="M331.2,45.5l0,4.2L307.5,50l0-3.3l16.5-21l-16.4,0.2l0-4.2l23-0.2l0,3.4l-16.5,20.9L331.2,45.5z"/>
	</g>
</g>
</svg>
