<?xml version="1.0" encoding="utf-8"?>
<!-- Generator: Adobe Illustrator 21.0.0, SVG Export Plug-In . SVG Version: 6.00 Build 0)  -->
<svg version="1.2" baseProfile="tiny" id="Capa_1" xmlns="http://www.w3.org/2000/svg" xmlns:xlink="http://www.w3.org/1999/xlink"
	 x="0px" y="0px" viewBox="0 0 379 296" xml:space="preserve">
<path fill="#FFFFFF" d="M355.8,291H24.1c-9.9,0-17.9-8-17.9-17.9V24.4c0-9.9,8-17.9,17.9-17.9h331.7c9.9,0,17.9,8,17.9,17.9v248.7
	C373.7,283,365.7,291,355.8,291z"/>
<g>
	<path fill="#434A53" d="M68.4,140.9l11-23.3c-3.7-5.1-8.6-8.1-13.9-8.1c-12.2,0-21.7,15.7-21.7,35.7c0,20,9.5,35.7,21.7,35.7
		c12.2,0,21.7-15.7,21.7-35.7c0-5.4-0.7-10.4-1.9-15L68.4,140.9z"/>
</g>
<g>
	<path fill="#434A53" d="M316.5,140.9l11-23.3c-3.7-5.1-8.6-8.1-13.9-8.1c-12.2,0-21.7,15.7-21.7,35.7c0,20,9.5,35.7,21.7,35.7
		c12.2,0,21.7-15.7,21.7-35.7c0-5.4-0.7-10.4-1.9-15L316.5,140.9z"/>
</g>
<line fill="none" stroke="#434A53" stroke-width="13" stroke-linecap="round" stroke-miterlimit="10" x1="30.5" y1="50.6" x2="62.1" y2="36"/>
<line fill="none" stroke="#434A53" stroke-width="13" stroke-linecap="round" stroke-miterlimit="10" x1="349.5" y1="50" x2="317.4" y2="36.6"/>
<path fill="#434A53" stroke="#434A53" stroke-width="7.3443" stroke-linecap="round" stroke-linejoin="round" stroke-miterlimit="10" d="
	M223.2,246c0,17.9-14.5,21-32.3,21s-32.3-3.1-32.3-21s14.5-32.3,32.3-32.3S223.2,228.1,223.2,246z"/>
<path fill="#ED5463" d="M210.9,249.3"/>
<path fill="#ED5463" d="M166.1,249.6c0,0,25.3-17.3,50.3,0.5c0,0,3.2,12-21.9,12.8C164.6,263.8,166.1,249.6,166.1,249.6z"/>
</svg>
