<?xml version="1.0" encoding="utf-8"?>
<!-- Generator: Adobe Illustrator 24.0.1, SVG Export Plug-In . SVG Version: 6.00 Build 0)  -->
<svg version="1.2" baseProfile="tiny" id="Capa_1" xmlns="http://www.w3.org/2000/svg" xmlns:xlink="http://www.w3.org/1999/xlink"
	 x="0px" y="0px" viewBox="0 0 379 296" xml:space="preserve">
<path fill="#F4F4F4" d="M354.61,290.4H22.92c-9.89,0-17.91-8.02-17.91-17.91V23.74c0-9.89,8.02-17.91,17.91-17.91h331.7
	c9.89,0,17.91,8.02,17.91,17.91v248.75C372.52,282.38,364.51,290.4,354.61,290.4z"/>
<g>
	<path fill="#434A53" d="M96.8,153.41c3.95-6.03,6.34-13.79,6.34-22.25c0-7.45-1.85-14.35-4.99-20.01
		c-9.99-2.83-27.28-6.13-43.74-1.55c-3.69,5.93-5.9,13.41-5.9,21.56c0,8.42,2.35,16.14,6.27,22.15
		C65.43,155.94,81.6,158.19,96.8,153.41z"/>
</g>
<circle fill="#FFFFFF" cx="94.48" cy="126.98" r="12.2"/>
<g>
	<path fill="#434A53" d="M323.27,153.41c3.95-6.03,6.34-13.79,6.34-22.25c0-7.45-1.85-14.35-4.99-20.01
		c-9.99-2.83-27.28-6.13-43.74-1.55c-3.69,5.93-5.9,13.41-5.9,21.56c0,8.42,2.35,16.14,6.27,22.15
		C291.9,155.94,308.07,158.19,323.27,153.41z"/>
</g>
<circle fill="#FFFFFF" cx="320.95" cy="126.98" r="12.2"/>
<g>
	<path fill="#434A53" d="M41.91,73.17c2.51-0.57,5.03-1.07,7.57-1.47c0.65-0.11,1.31-0.2,1.96-0.3c0.24-0.04,1.05-0.15-0.11,0.01
		c0.29-0.04,0.58-0.08,0.87-0.11c1.31-0.16,2.63-0.31,3.94-0.43c5.05-0.46,10.12-0.6,15.19-0.43c2.57,0.09,5.14,0.26,7.7,0.51
		c1.17,0.11,2.34,0.25,3.5,0.39c1.03,0.13,0.08,0-0.11-0.02c0.29,0.02,0.59,0.08,0.87,0.12c0.73,0.11,1.45,0.22,2.18,0.34
		c5.07,0.83,10.1,1.98,15.02,3.45c2.67,0.8,5.32,1.69,7.93,2.67c1.37,0.52,2.75,1.05,4.1,1.63c-0.18-0.08-0.98-0.43-0.06-0.02
		c0.34,0.15,0.67,0.29,1.01,0.44c0.74,0.33,1.47,0.66,2.21,1.01c2.53,1.18,5.87,0.79,7.3-1.92c1.25-2.36,0.79-6.04-1.92-7.3
		c-19.71-9.2-41.68-13.39-63.39-11.69c-6.26,0.49-12.49,1.42-18.61,2.81c-2.73,0.62-4.59,3.91-3.73,6.57
		C36.27,72.29,38.99,73.83,41.91,73.17L41.91,73.17z"/>
</g>
<g>
	<path fill="#434A53" d="M334.69,56.97c-2.25,1.31-4.53,2.55-6.86,3.71c-1.1,0.55-2.21,1.08-3.32,1.59
		c-0.59,0.27-1.18,0.54-1.78,0.8c-0.26,0.12-0.53,0.23-0.79,0.35c-0.94,0.41,0.48-0.19-0.12,0.06c-4.75,1.96-9.59,3.65-14.54,5.01
		c-4.95,1.36-9.98,2.41-15.06,3.14c-0.18,0.03-1.1,0.15-0.36,0.05c0.87-0.12-0.55,0.07-0.58,0.07c-0.57,0.07-1.15,0.14-1.72,0.2
		c-1.29,0.14-2.59,0.26-3.89,0.36c-2.59,0.2-5.19,0.32-7.79,0.35c-5.78,0.07-11.56-0.29-17.29-1.05c-1.25-0.17-2.93,0.72-3.78,1.56
		c-0.93,0.93-1.62,2.45-1.56,3.78c0.06,1.38,0.52,2.81,1.56,3.78c1.12,1.03,2.29,1.37,3.78,1.56c21.04,2.81,42.99-0.01,62.68-7.94
		c5.8-2.34,11.43-5.02,16.83-8.17c2.41-1.41,3.48-4.88,1.92-7.3C340.42,56.45,337.27,55.46,334.69,56.97L334.69,56.97z"/>
</g>
<g>
	<path fill="#434A53" d="M144.95,191.78c11.71-1.41,23.45-2.83,35.25-3.12c5.57-0.14,11.15-0.02,16.7,0.46
		c1.28,0.11,2.55,0.24,3.82,0.4c0.3,0.04,0.6,0.07,0.9,0.11c1.45,0.18-0.75-0.12,0.15,0.02c0.74,0.11,1.49,0.22,2.23,0.34
		c2.67,0.43,5.33,0.97,7.96,1.61c2.91,0.71,5.8,1.56,8.62,2.56c0.71,0.25,1.41,0.51,2.11,0.78c0.28,0.11,0.56,0.22,0.84,0.33
		c0.14,0.06,1.45,0.59,0.82,0.33c-0.63-0.26,0.25,0.11,0.4,0.17c0.41,0.18,0.82,0.36,1.23,0.55c0.75,0.34,1.5,0.7,2.24,1.07
		c2.5,1.24,5.89,0.75,7.3-1.92c1.27-2.41,0.76-5.98-1.92-7.3c-21.2-10.5-45.22-11.35-68.36-9.3c-6.78,0.6-13.54,1.42-20.29,2.23
		c-2.76,0.33-5.48,2.22-5.34,5.34C139.73,189.05,141.98,192.14,144.95,191.78L144.95,191.78z"/>
</g>
<g>
	<path fill="#434A53" d="M168.35,207.09c11.21-0.36,22.41,0.5,33.42,2.64c1.41,0.27,2.88-0.4,3.28-1.86
		c0.36-1.31-0.44-3.01-1.86-3.28c-11.47-2.23-23.16-3.21-34.84-2.83C164.92,201.86,164.9,207.2,168.35,207.09L168.35,207.09z"/>
</g>
<g>
	<path fill="#434A53" d="M257.28,267.52c-2.31-6.07-4.16-12.32-5.68-18.63c-0.82-3.41-1.54-6.86-2.14-10.32
		c-0.14-0.79-0.27-1.59-0.39-2.38c-0.07-0.46-0.14-0.92-0.21-1.38c-0.03-0.2-0.05-0.39-0.08-0.59c-0.11-0.75,0.12,0.95,0.03,0.2
		c-0.2-1.66-0.39-3.32-0.53-4.99c-0.25-3.07-0.36-6.15-0.21-9.23c0.01-0.29,0.16-0.88,0.07-1.14c0.02,0.06-0.27,1.13-0.08,0.68
		c0.06-0.13,0.07-0.3,0.11-0.44c0.04-0.14,0.12-0.3,0.14-0.45c0.07-0.49-0.19,0.42-0.22,0.47c0.22-0.32,0.35-0.74,0.55-1.08
		c0.12-0.22,0.45-1,0.67-1.04c0.03-0.01-0.67,0.78-0.27,0.35c0.12-0.13,0.22-0.27,0.34-0.39c0.06-0.06,0.72-0.69,0.72-0.7
		c0.04,0.08-0.91,0.53-0.43,0.32c0.09-0.04,0.61-0.33,0.63-0.38c-0.04,0.08-1.01,0.29-0.62,0.27c0.11-0.01,0.25-0.11,0.36-0.1
		c0.83,0.12-1.19,0.03-0.26,0.03c0.31,0,0.63-0.03,0.94-0.02c0.16,0,0.33,0.02,0.49,0.02c0.98,0.02,0.02,0.16-0.22-0.06
		c0.27,0.25,1.49,0.34,1.88,0.45c0.87,0.24-0.9-0.49-0.18-0.06c0.44,0.26,0.21,0.34-0.43-0.39c0.17,0.19,0.41,0.35,0.6,0.52
		c0.57,0.51,1.12,1.05,1.65,1.61c0.3,0.32,0.59,0.64,0.87,0.97c0.12,0.14,0.24,0.28,0.35,0.42c0.45,0.54-0.07,0.07-0.14-0.19
		c0.15,0.56,0.9,1.26,1.22,1.77c0.44,0.69,0.85,1.41,1.23,2.14c0.19,0.36,0.37,0.73,0.54,1.1c0.07,0.16,0.15,0.32,0.22,0.48
		c0.41,0.87-0.27-0.71-0.04-0.11c0.3,0.77,0.59,1.53,0.85,2.31c0.55,1.65,1.01,3.33,1.41,5.02c0.89,3.72,1.53,7.5,2.31,11.25
		c0.52,2.52,3.29,4.03,5.68,3.71c2.45-0.33,4.59-2.5,4.49-5.09c-0.02-0.46,0-0.92,0.01-1.38c0.03-0.74,0.06,0.14-0.06,0.35
		c0.11-0.19,0.12-0.62,0.18-0.85c0.06-0.22,0.12-0.45,0.19-0.67c0.03-0.11,0.07-0.22,0.11-0.33c0.1-0.26,0.07-0.22-0.07,0.13
		c-0.16,0.35-0.18,0.4-0.06,0.14c0.05-0.11,0.1-0.21,0.15-0.31c0.1-0.21,0.21-0.41,0.33-0.61c0.11-0.2,0.24-0.39,0.36-0.58
		c0.53-0.79,0.2,0.01-0.09,0.1c0.26-0.08,0.73-0.76,0.95-0.96c0.55-0.51-0.06,0.18-0.25,0.19c0.14,0,0.44-0.29,0.57-0.36
		c0.16-0.09,0.48-0.18,0.6-0.31c-0.25,0.29-0.99,0.35-0.13,0.1c0.2-0.06,0.42-0.08,0.62-0.15c0.5-0.18-0.96-0.02-0.43,0.07
		c0.23,0.04,1.63,0.09,0.74-0.02c-0.84-0.1-0.09,0,0.09,0.05c0.2,0.06,0.41,0.12,0.61,0.17c1.03,0.29-0.18,0.08-0.2-0.11
		c0.01,0.05,0.5,0.26,0.56,0.3c0.06,0.03,0.49,0.36,0.53,0.34c-0.11,0.05-0.86-0.79-0.31-0.23c0.14,0.14,0.29,0.3,0.45,0.43
		c0.55,0.47-0.22-0.12-0.22-0.34c0,0.08,0.89,1.62,0.47,0.72c-0.44-0.93,0.05,0.08-0.02,0.11c0.03,0.1,0.05,0.2,0.07,0.3
		c0.08,0.4,0.05,0.2-0.09-0.6c0.21,2.59,1.81,4.73,4.49,5.09c2.57,0.35,4.92-1.22,5.68-3.71c0.34-1.11-0.59,0.94-0.01-0.06
		c0.12-0.2,0.23-0.4,0.35-0.61c0.53-0.92-0.74,0.65,0.06-0.05c0.16-0.14,0.7-0.9,0.26-0.3c-0.4,0.55,0.1-0.06,0.34-0.2
		c0.1-0.06,1.09-0.5,0.32-0.21c-0.77,0.3,0.21-0.02,0.37-0.08c0.96-0.36-1.03-0.05,0.01-0.03c0.12,0,0.23,0,0.35-0.01
		c0.46,0.03,0.47,0.02,0.01-0.04c-0.46-0.08-0.45-0.07,0,0.01c0.11,0.03,0.23,0.05,0.34,0.08c0.17,0.04,1.15,0.37,0.37,0.08
		c-0.76-0.28,0.16,0.11,0.32,0.2c0.15,0.09,0.3,0.18,0.44,0.29c0.31,0.22,0.2,0.13-0.35-0.27c0.11-0.03,0.55,0.55,0.63,0.61
		c0.42,0.37-0.56-1-0.06-0.08c0.16,0.3,0.64,1.29,0.11,0.01c0.81,1.97,2.07,3.41,4.31,3.71c2.2,0.3,3.89-0.75,5.16-2.47
		c0.12-0.17,0.24-0.33,0.37-0.49c0.22-0.3,0.16-0.22-0.18,0.24c0.11-0.28,0.6-0.72,0.8-0.94c0.28-0.3,0.58-0.57,0.86-0.87
		c0.64-0.68-0.43,0.2,0.06-0.07c0.18-0.1,1.19-0.9,0.58-0.41c-0.52,0.41,0.12,0,0.35-0.09c0.97-0.38-1.02-0.03-0.05-0.01
		c0.17-0.01,0.33-0.01,0.5,0.01c0.41,0.02,0.22,0-0.56-0.09c0.16,0.03,0.32,0.07,0.47,0.12c0.38,0.12,0.21,0.04-0.49-0.23
		c0.82,0.44-0.63-0.85-0.01-0.07c-0.13-0.18-0.26-0.37-0.39-0.55c0.24,0.43,0.27,0.46,0.08,0.09c-0.16-0.74,0.06,0.58,0.09,0.73
		c0.3,1.53,0.94,2.98,1.41,4.47c2.13,6.65,3.42,13.56,4.35,20.47c0.16,1.19,1.4,2.52,2.38,3.1c1.11,0.65,2.75,0.92,3.99,0.52
		c2.96-0.96,4.01-3.48,3.62-6.37c-0.58-4.31-1.32-8.59-2.29-12.83c-0.43-1.88-0.91-3.75-1.44-5.6c-0.54-1.86-1.29-3.66-1.82-5.52
		c-0.36-1.25-0.5-2.37-1.07-3.58c-0.46-0.98-1.14-1.84-1.95-2.56c-1.87-1.66-4.38-2.54-6.88-2.46c-5.29,0.17-8.79,3.79-11.74,7.77
		c3.16,0.41,6.31,0.82,9.47,1.24c-1.14-2.75-2.7-4.91-5.23-6.56c-1.96-1.28-4.58-2.04-6.93-1.93c-5.45,0.26-10.09,3.94-11.68,9.14
		c3.39,0.46,6.78,0.92,10.17,1.38c-0.32-3.95-2.22-7.12-5.49-9.35c-2.85-1.94-6.55-2.55-9.89-1.85
		c-6.88,1.45-11.27,8.76-11.01,15.48c3.39-0.46,6.78-0.92,10.17-1.38c-1.49-7.23-2.6-14.51-5.72-21.27
		c-1.56-3.38-3.79-6.53-6.43-9.15c-1.61-1.59-3.25-2.85-5.41-3.62c-1.77-0.63-3.81-0.89-5.68-0.82c-4.62,0.17-8.14,2.86-10.4,6.8
		c-1.98,3.46-2.1,7.23-2.04,11.11c0.13,7.71,1.33,15.43,2.92,22.96c1.66,7.87,3.84,15.66,6.71,23.18c0.96,2.52,3.53,4.54,6.37,3.62
		C256.13,273.09,258.32,270.23,257.28,267.52L257.28,267.52z"/>
</g>
</svg>
