<?xml version="1.0" encoding="utf-8"?>
<!-- Generator: Adobe Illustrator 24.0.1, SVG Export Plug-In . SVG Version: 6.00 Build 0)  -->
<svg version="1.2" baseProfile="tiny" id="Capa_1" xmlns="http://www.w3.org/2000/svg" xmlns:xlink="http://www.w3.org/1999/xlink"
	 x="0px" y="0px" viewBox="0 0 379 296" xml:space="preserve">
<path fill="#FFFFFF" d="M355.17,290.57H23.47c-9.9,0-17.9-8-17.9-17.9V23.87c0-9.9,8-17.9,17.9-17.9h331.7c9.9,0,17.9,8,17.9,17.9
	v248.7C373.07,282.57,364.97,290.57,355.17,290.57z"/>
<g>
	<path fill="#434A53" d="M52.57,151.27c0,18,14.6,32.5,32.5,32.5c18,0,32.5-14.6,32.5-32.5c0-6.4-1.9-12.4-5.1-17.5
		c-12.5-1.9-32.6-6.2-46.2-9.1C57.97,130.57,52.57,140.27,52.57,151.27z"/>
</g>
<g>
	<path fill="#434A53" d="M270.47,135.27c-2.7,4.7-4.2,10.2-4.2,16c0,18,14.6,32.5,32.5,32.5c18,0,32.5-14.6,32.5-32.5
		c0-8.7-3.4-16.6-9-22.5C308.57,130.77,284.27,134.27,270.47,135.27z"/>
</g>
<line fill="none" stroke="#434A53" stroke-width="12" stroke-linecap="round" stroke-miterlimit="10" x1="70.45" y1="73.24" x2="110.21" y2="92.41"/>
<line fill="none" stroke="#434A53" stroke-width="12" stroke-linecap="round" stroke-miterlimit="10" x1="269.1" y1="92.41" x2="308.85" y2="73.24"/>
<circle fill="#FFFFFF" cx="99.77" cy="145.57" r="9.3"/>
<circle fill="#FFFFFF" cx="315.77" cy="145.57" r="9.3"/>
<path fill="none" stroke="#434A53" stroke-width="11" stroke-linecap="round" stroke-miterlimit="10" d="M245.74,229.6
	c0,0-50.52-39.84-107.12-0.23"/>
</svg>
