<?xml version="1.0" encoding="utf-8"?>
<!-- Generator: Adobe Illustrator 24.0.1, SVG Export Plug-In . SVG Version: 6.00 Build 0)  -->
<svg version="1.2" baseProfile="tiny" id="Capa_1" xmlns="http://www.w3.org/2000/svg" xmlns:xlink="http://www.w3.org/1999/xlink"
	 x="0px" y="0px" viewBox="0 0 379 296" xml:space="preserve">
<path fill="#FFFFFF" d="M355.16,290.56H23.47c-9.89,0-17.91-8.02-17.91-17.91V23.9c0-9.89,8.02-17.91,17.91-17.91h331.7
	c9.89,0,17.91,8.02,17.91,17.91v248.75C373.07,282.54,365.06,290.56,355.16,290.56z"/>
<g>
	<path fill="#434A53" d="M95.65,151.35c4.03-6.14,6.46-14.05,6.46-22.67c0-7.59-1.89-14.62-5.09-20.39
		c-10.18-2.88-27.8-6.25-44.57-1.58c-3.76,6.04-6.01,13.67-6.01,21.97c0,8.58,2.39,16.45,6.39,22.57
		C63.68,153.93,80.16,156.22,95.65,151.35z"/>
</g>
<circle fill="#FFFFFF" cx="58.61" cy="135.63" r="12.43"/>
<g>
	<path fill="#434A53" d="M326.43,151.35c4.03-6.14,6.46-14.05,6.46-22.67c0-7.59-1.89-14.62-5.09-20.39
		c-10.18-2.88-27.8-6.25-44.57-1.58c-3.76,6.04-6.01,13.67-6.01,21.97c0,8.58,2.39,16.45,6.39,22.57
		C294.47,153.93,310.94,156.22,326.43,151.35z"/>
</g>
<circle fill="#FFFFFF" cx="289.4" cy="135.63" r="12.43"/>
<g>
	<path fill="#434A53" d="M34.17,79.77c2.38-1.11,4.78-2.15,7.22-3.09c0.62-0.25,1.26-0.48,1.89-0.72c0.23-0.09,1.01-0.38-0.11,0.03
		c0.28-0.1,0.56-0.2,0.84-0.3c1.27-0.44,2.55-0.87,3.83-1.28c4.93-1.54,9.95-2.77,15.04-3.69c2.58-0.46,5.18-0.85,7.78-1.15
		c1.19-0.14,2.38-0.25,3.57-0.36c1.05-0.09,0.08-0.02-0.11,0c0.29-0.04,0.6-0.05,0.89-0.07c0.75-0.05,1.49-0.09,2.24-0.13
		c5.23-0.26,10.49-0.2,15.7,0.21c2.83,0.22,5.66,0.54,8.47,0.95c1.48,0.22,2.97,0.45,4.43,0.74c-0.2-0.04-1.07-0.22-0.06-0.01
		c0.37,0.08,0.73,0.14,1.1,0.22c0.81,0.17,1.61,0.34,2.42,0.53c2.77,0.63,6.02-0.48,6.86-3.48c0.74-2.62-0.51-6.19-3.48-6.86
		c-21.61-4.93-44.4-4.38-65.66,1.98c-6.13,1.83-12.14,4.1-17.93,6.8c-2.59,1.2-3.73,4.88-2.3,7.35
		C28.37,80.1,31.41,81.05,34.17,79.77L34.17,79.77z"/>
</g>
<g>
	<path fill="#434A53" d="M339.19,79.77c2.77,1.29,5.81,0.34,7.36-2.31c1.43-2.46,0.28-6.14-2.3-7.35c-5.8-2.7-11.8-4.97-17.93-6.8
		c-21.26-6.36-44.05-6.91-65.66-1.98c-2.97,0.67-4.22,4.24-3.48,6.86c0.84,3.01,4.09,4.11,6.86,3.48c0.81-0.19,1.61-0.36,2.42-0.53
		c0.37-0.08,0.73-0.14,1.1-0.22c1-0.21,0.13-0.03-0.06,0.01c1.47-0.29,2.96-0.52,4.43-0.74c2.81-0.42,5.64-0.73,8.47-0.95
		c5.22-0.41,10.47-0.47,15.7-0.21c0.75,0.04,1.49,0.08,2.24,0.13c0.29,0.02,0.6,0.03,0.89,0.07c-0.19-0.02-1.17-0.1-0.11,0
		c1.19,0.11,2.38,0.22,3.57,0.36c2.6,0.3,5.2,0.68,7.78,1.15c5.09,0.92,10.11,2.15,15.04,3.69c1.28,0.4,2.56,0.83,3.83,1.28
		c0.28,0.09,0.56,0.19,0.84,0.3c-1.12-0.41-0.34-0.13-0.11-0.03c0.63,0.24,1.26,0.47,1.89,0.72
		C334.4,77.62,336.81,78.66,339.19,79.77L339.19,79.77z"/>
</g>
<g>
	<path fill="#434A53" d="M232.24,188.05c-11.93,1.28-23.9,2.56-35.92,2.82c-5.68,0.13-11.36,0.02-17.02-0.42
		c-1.3-0.1-2.6-0.22-3.89-0.36c-0.31-0.04-0.61-0.06-0.92-0.1c-1.48-0.16,0.76,0.11-0.15-0.02c-0.75-0.1-1.52-0.2-2.27-0.31
		c-2.72-0.39-5.43-0.88-8.11-1.46c-2.97-0.64-5.91-1.41-8.78-2.32c-0.72-0.23-1.44-0.46-2.15-0.71c-0.29-0.1-0.57-0.2-0.86-0.3
		c-0.14-0.05-1.48-0.53-0.84-0.3c0.64,0.24-0.25-0.1-0.41-0.15c-0.42-0.16-0.84-0.33-1.25-0.5c-0.76-0.31-1.53-0.63-2.28-0.97
		c-2.55-1.12-6-0.68-7.44,1.74c-1.29,2.18-0.77,5.41,1.96,6.6c21.6,9.5,46.08,10.27,69.66,8.41c6.91-0.54,13.8-1.28,20.68-2.02
		c2.81-0.3,5.58-2.01,5.44-4.83C237.56,190.52,235.27,187.72,232.24,188.05L232.24,188.05z"/>
</g>
<g>
	<path fill="#434A53" d="M203.42,209.29c-11.42,0.37-22.84-0.51-34.06-2.69c-1.44-0.28-2.93,0.41-3.34,1.9
		c-0.37,1.33,0.45,3.07,1.9,3.34c11.69,2.27,23.6,3.27,35.5,2.88C206.91,214.62,206.93,209.18,203.42,209.29L203.42,209.29z"/>
</g>
<g>
	<path fill="#434A53" d="M130.79,268.8c-1.92-6.88-3.32-13.91-4.36-20.97c-0.56-3.82-1-7.67-1.31-11.52
		c-0.07-0.88-0.14-1.77-0.19-2.65c-0.03-0.51-0.06-1.02-0.09-1.53c-0.01-0.22-0.02-0.43-0.03-0.65c-0.05-0.83,0.04,1.05,0.01,0.22
		c-0.05-1.84-0.1-3.68-0.08-5.52c0.03-3.39,0.22-6.77,0.69-10.13c0.04-0.32,0.26-0.95,0.19-1.24c0.02,0.07-0.41,1.21-0.16,0.74
		c0.08-0.14,0.11-0.32,0.16-0.47c0.06-0.15,0.16-0.32,0.2-0.48c0.13-0.53-0.25,0.44-0.29,0.49c0.27-0.33,0.46-0.78,0.71-1.13
		c0.15-0.23,0.59-1.05,0.84-1.07c0.03-0.01-0.81,0.79-0.33,0.36c0.14-0.13,0.27-0.27,0.41-0.39c0.07-0.06,0.86-0.68,0.86-0.69
		c0.04,0.09-1.05,0.49-0.5,0.31c0.1-0.03,0.7-0.3,0.73-0.35c-0.05,0.08-1.14,0.22-0.71,0.23c0.12,0,0.28-0.1,0.4-0.07
		c0.9,0.21-1.31-0.09-0.29,0.01c0.34,0.03,0.69,0.03,1.03,0.07c0.18,0.02,0.36,0.05,0.53,0.07c1.07,0.12,0.01,0.18-0.23-0.09
		c0.27,0.3,1.6,0.52,2.01,0.68c0.93,0.35-0.94-0.63-0.19-0.08c0.46,0.33,0.2,0.39-0.43-0.47c0.17,0.23,0.41,0.42,0.61,0.63
		c0.57,0.62,1.12,1.26,1.65,1.93c0.3,0.38,0.58,0.76,0.86,1.15c0.12,0.17,0.23,0.33,0.34,0.49c0.44,0.64-0.08,0.07-0.13-0.22
		c0.11,0.63,0.86,1.47,1.16,2.06c0.41,0.8,0.79,1.63,1.13,2.47c0.17,0.41,0.33,0.84,0.48,1.26c0.06,0.18,0.13,0.37,0.19,0.55
		c0.36,0.99-0.22-0.8-0.03-0.12c0.25,0.87,0.49,1.73,0.7,2.62c0.44,1.86,0.77,3.75,1.04,5.64c0.6,4.16,0.93,8.37,1.4,12.55
		c0.32,2.81,3.2,4.74,5.85,4.63c2.72-0.12,5.28-2.28,5.43-5.13c0.02-0.51,0.09-1.01,0.15-1.51c0.11-0.81,0.05,0.16-0.1,0.38
		c0.14-0.2,0.19-0.67,0.28-0.91c0.09-0.23,0.18-0.48,0.28-0.71c0.04-0.12,0.1-0.23,0.15-0.35c0.14-0.27,0.1-0.23-0.09,0.14
		c-0.21,0.37-0.24,0.42-0.08,0.15c0.07-0.12,0.13-0.22,0.2-0.32c0.13-0.22,0.27-0.43,0.42-0.64c0.14-0.21,0.3-0.4,0.45-0.6
		c0.66-0.81,0.22,0.03-0.11,0.1c0.29-0.06,0.88-0.76,1.14-0.96c0.65-0.5-0.08,0.19-0.29,0.18c0.15,0.01,0.51-0.27,0.66-0.34
		c0.18-0.08,0.54-0.15,0.69-0.28c-0.3,0.29-1.12,0.28-0.15,0.1c0.23-0.05,0.47-0.05,0.69-0.1c0.57-0.15-1.05-0.12-0.48,0.03
		c0.25,0.07,1.78,0.26,0.81,0.05c-0.91-0.19-0.1-0.01,0.09,0.06c0.21,0.09,0.44,0.17,0.65,0.25c1.1,0.42-0.21,0.07-0.21-0.14
		c0.01,0.06,0.52,0.33,0.58,0.38c0.06,0.04,0.5,0.44,0.55,0.43c-0.13,0.04-0.86-0.95-0.32-0.28c0.14,0.17,0.29,0.36,0.45,0.52
		c0.56,0.57-0.23-0.15-0.21-0.39c-0.01,0.09,0.81,1.86,0.44,0.84c-0.39-1.06,0.05,0.09-0.03,0.12c0.02,0.11,0.03,0.22,0.05,0.34
		c0.05,0.45,0.03,0.22-0.04-0.67c-0.03,2.86,1.51,5.36,4.41,6.02c2.78,0.64,5.51-0.84,6.59-3.5c0.48-1.18-0.74,0.97,0-0.07
		c0.15-0.21,0.29-0.42,0.44-0.63c0.67-0.95-0.88,0.64,0.07-0.05c0.19-0.14,0.86-0.92,0.31-0.3c-0.49,0.56,0.12-0.06,0.39-0.19
		c0.12-0.06,1.24-0.44,0.37-0.2c-0.87,0.25,0.23,0,0.41-0.05c1.09-0.3-1.12-0.16,0.01-0.03c0.13,0.01,0.25,0.02,0.38,0.02
		c0.5,0.08,0.51,0.07,0.01-0.04c-0.5-0.13-0.49-0.12,0,0.01c0.12,0.04,0.25,0.08,0.36,0.12c0.18,0.06,1.22,0.52,0.4,0.12
		c-0.8-0.38,0.16,0.14,0.33,0.25c0.16,0.11,0.31,0.23,0.45,0.36c0.32,0.27,0.21,0.16-0.36-0.33c0.12-0.02,0.55,0.66,0.63,0.73
		c0.42,0.45-0.51-1.15-0.06-0.09c0.15,0.34,0.57,1.48,0.12,0.02c0.69,2.24,1.93,3.94,4.35,4.49c2.38,0.55,4.34-0.43,5.9-2.19
		c0.15-0.17,0.3-0.34,0.45-0.5c0.27-0.31,0.2-0.22-0.22,0.24c0.15-0.3,0.73-0.73,0.97-0.95c0.34-0.3,0.69-0.57,1.03-0.87
		c0.77-0.68-0.49,0.18,0.07-0.07c0.21-0.09,1.39-0.87,0.68-0.39c-0.61,0.4,0.13,0.01,0.39-0.06c1.1-0.32-1.11-0.13-0.05-0.02
		c0.19,0.01,0.36,0.02,0.55,0.06c0.45,0.06,0.24,0.02-0.6-0.15c0.17,0.05,0.34,0.11,0.5,0.18c0.4,0.17,0.23,0.06-0.51-0.3
		c0.85,0.56-0.6-0.99,0-0.08c-0.12-0.21-0.25-0.43-0.37-0.64c0.22,0.49,0.25,0.53,0.08,0.11c-0.1-0.83,0.01,0.64,0.03,0.81
		c0.18,1.71,0.73,3.36,1.1,5.04c1.67,7.5,2.39,15.19,2.72,22.85c0.06,1.32,1.28,2.9,2.3,3.63c1.15,0.82,2.92,1.28,4.32,0.97
		c3.34-0.76,4.74-3.41,4.6-6.61c-0.2-4.78-0.59-9.54-1.22-14.28c-0.28-2.1-0.62-4.2-1.02-6.28c-0.41-2.09-1.05-4.14-1.44-6.23
		c-0.27-1.41-0.31-2.65-0.81-4.03c-0.41-1.12-1.06-2.13-1.88-3c-1.88-2.01-4.54-3.22-7.29-3.38c-5.81-0.34-10.01,3.27-13.64,7.34
		c3.42,0.77,6.83,1.53,10.25,2.31c-0.97-3.13-2.47-5.65-5.07-7.71c-2.02-1.6-4.81-2.69-7.4-2.81c-6-0.26-11.45,3.31-13.71,8.84
		c3.67,0.84,7.33,1.69,11,2.53c0.04-4.36-1.72-8.02-5.08-10.79c-2.93-2.41-6.92-3.45-10.65-3.02c-7.68,0.9-13.22,8.47-13.61,15.85
		c3.76-0.16,7.52-0.33,11.28-0.49c-0.91-8.07-1.4-16.15-4.14-23.87c-1.37-3.86-3.5-7.53-6.13-10.66c-1.6-1.9-3.27-3.45-5.56-4.51
		c-1.88-0.87-4.08-1.36-6.14-1.47c-5.08-0.28-9.2,2.32-12.07,6.41c-2.51,3.59-3.02,7.71-3.35,11.96c-0.63,8.46-0.09,17.03,0.9,25.44
		c1.03,8.79,2.64,17.54,5.03,26.06c0.8,2.86,3.41,5.33,6.61,4.6C128.98,274.79,131.66,271.88,130.79,268.8L130.79,268.8z"/>
</g>
</svg>
