<?xml version="1.0" encoding="utf-8"?>
<!-- Generator: Adobe Illustrator 24.0.1, SVG Export Plug-In . SVG Version: 6.00 Build 0)  -->
<svg version="1.2" baseProfile="tiny" id="Capa_1" xmlns="http://www.w3.org/2000/svg" xmlns:xlink="http://www.w3.org/1999/xlink"
	 x="0px" y="0px" viewBox="0 0 379 296" xml:space="preserve">
<path fill="#F4F4F4" d="M355.17,290.57H23.47c-9.9,0-17.9-8-17.9-17.9V23.87c0-9.9,8-17.9,17.9-17.9h331.7c9.9,0,17.9,8,17.9,17.9
	v248.7C373.07,282.57,365.07,290.57,355.17,290.57z"/>
<ellipse fill="#434A53" cx="72.47" cy="127.51" rx="27.68" ry="35.14"/>
<circle fill="#FFFFFF" cx="88.23" cy="136.87" r="12.33"/>
<ellipse fill="#434A53" cx="308.52" cy="127.51" rx="27.68" ry="35.14"/>
<circle fill="#FFFFFF" cx="323.2" cy="139.04" r="12.33"/>
<path fill="#F4F4F4" d="M41,133.79c0,0,20.22-33.85,61.96-23.79C102.96,110,48.25,45.12,41,133.79z"/>
<path fill="#F4F4F4" d="M341.94,133.79c0,0-20.22-33.85-61.96-23.79C279.98,110,334.8,45.12,341.94,133.79z"/>
<path fill="#434A53" stroke="#434A53" stroke-width="7.7823" stroke-linecap="round" stroke-linejoin="round" stroke-miterlimit="10" d="
	M219.48,248.73h-60.64c-12.9,0-19.18-19.69-9.63-30.43c8.17-9.2,20.43-17.1,38.58-17.84c19.18-0.79,32.43,7.75,41.33,17.86
	C238.62,229.09,232.37,248.73,219.48,248.73z"/>
<path fill="#ED5463" d="M210.21,247.03h-40.04c-8.52,0-12.66-11.24-6.36-17.36c5.4-5.25,13.49-9.75,25.48-10.18
	c12.67-0.45,21.42,4.42,27.29,10.19C222.85,235.83,218.72,247.03,210.21,247.03z"/>
<path fill="none" stroke="#434A53" stroke-width="13.1037" stroke-linecap="round" stroke-miterlimit="10" d="M91.14,64.47
	c0,0-13.92,25.77-54.63,21.13"/>
<path fill="none" stroke="#434A53" stroke-width="13.1037" stroke-linecap="round" stroke-miterlimit="10" d="M287.82,64.47
	c0,0,13.92,25.77,54.63,21.13"/>
<path fill="#F4F4F4" d="M44.67,149.14c-0.57-1.28,14.45,14.45,47.53,6.99C92.21,156.13,62.85,189.68,44.67,149.14z"/>
<path fill="#F4F4F4" d="M282.34,149.14c-0.57-1.28,14.45,14.45,47.53,6.99C329.88,156.13,300.52,189.68,282.34,149.14z"/>
<g>
	<path fill="#434A53" d="M47.64,163.45c3.8,5.36,10.92,7.66,17.08,8.98c8.09,1.73,16.61,1.06,24.26-2.14
		c1.25-0.52,2.14-1.66,1.75-3.08c-0.32-1.18-1.82-2.27-3.08-1.75c-6.72,2.81-14.14,3.68-21.3,2.2c-2.75-0.57-5.51-1.33-8.1-2.43
		c-2.27-0.96-4.9-2.36-6.29-4.31c-0.78-1.1-2.18-1.62-3.42-0.9C47.45,160.67,46.86,162.34,47.64,163.45L47.64,163.45z"/>
</g>
<g>
	<path fill="#434A53" d="M284.38,163.45c3.8,5.36,10.92,7.66,17.08,8.98c8.09,1.73,16.61,1.06,24.26-2.14
		c1.25-0.52,2.14-1.66,1.75-3.08c-0.32-1.18-1.82-2.27-3.08-1.75c-6.72,2.81-14.14,3.68-21.3,2.2c-2.75-0.57-5.51-1.33-8.1-2.43
		c-2.27-0.96-4.9-2.36-6.29-4.31c-0.78-1.1-2.18-1.62-3.42-0.9C284.19,160.67,283.59,162.34,284.38,163.45L284.38,163.45z"/>
</g>
</svg>
