<?xml version="1.0" encoding="utf-8"?>
<!-- Generator: Adobe Illustrator 24.0.1, SVG Export Plug-In . SVG Version: 6.00 Build 0)  -->
<svg version="1.2" baseProfile="tiny" id="Capa_1" xmlns="http://www.w3.org/2000/svg" xmlns:xlink="http://www.w3.org/1999/xlink"
	 x="0px" y="0px" viewBox="0 0 379 296" xml:space="preserve">
<path fill="#FFFFFF" d="M355.17,290.57H23.47c-9.9,0-17.9-8-17.9-17.9V23.87c0-9.9,8-17.9,17.9-17.9h331.7c9.9,0,17.9,8,17.9,17.9
	v248.7C373.07,282.57,365.07,290.57,355.17,290.57z"/>
<g>
	<path fill="#434A53" d="M41.18,136.97c0,10.07,4.09,19.1,10.6,25.81c13.64,0.31,40.19,1.05,50.68,1.36
		c7.34-6.72,11.96-16.37,11.96-27.07c0-1.36-0.1-2.73-0.21-4.09c-15.84-2.83-49.21-12.59-65.89-17.52
		C43.81,121.33,41.18,128.89,41.18,136.97z"/>
</g>
<line fill="none" stroke="#434A53" stroke-width="13.4955" stroke-linecap="round" stroke-miterlimit="10" x1="62.59" y1="73.28" x2="117.25" y2="97.73"/>
<circle fill="#FFFFFF" cx="97.6" cy="150.88" r="10.49"/>
<g>
	<path fill="#434A53" d="M331.63,115.46c-16.68,4.93-50.05,14.69-65.89,17.52c-0.1,1.36-0.21,2.73-0.21,4.09
		c0,10.7,4.62,20.36,11.96,27.07c10.49-0.31,37.04-1.05,50.68-1.36c6.51-6.72,10.6-15.74,10.6-25.81
		C338.76,128.89,336.14,121.33,331.63,115.46z"/>
</g>
<line fill="none" stroke="#434A53" stroke-width="13.4955" stroke-linecap="round" stroke-miterlimit="10" x1="262.69" y1="97.73" x2="317.36" y2="73.28"/>
<circle fill="#FFFFFF" cx="323.34" cy="147.87" r="10.49"/>
<g>
	<path fill="#434A53" d="M136.15,237.36c16.66-6.84,33.98-12,51.66-15.4c4.99-0.96,10-1.77,15.03-2.45
		c-0.7,0.09-1.39,0.19-2.09,0.28c18.46-2.46,37.15-3.05,55.72-1.68c4.11,0.3,8.05-3.84,7.87-7.87c-0.2-4.52-3.46-7.55-7.87-7.87
		c-16.27-1.19-32.63-0.91-48.85,0.85c-16.77,1.82-33.37,5-49.55,9.77c-8.85,2.61-17.57,5.69-26.11,9.19
		c-1.98,0.81-3.58,1.7-4.7,3.62c-0.99,1.69-1.41,4.17-0.79,6.06c0.62,1.9,1.8,3.74,3.62,4.7
		C131.83,237.49,134.24,238.14,136.15,237.36L136.15,237.36z"/>
</g>
</svg>
