<?xml version="1.0" encoding="utf-8"?>
<!-- Generator: Adobe Illustrator 21.0.0, SVG Export Plug-In . SVG Version: 6.00 Build 0)  -->
<svg version="1.2" baseProfile="tiny" id="Capa_1" xmlns="http://www.w3.org/2000/svg" xmlns:xlink="http://www.w3.org/1999/xlink"
	 x="0px" y="0px" viewBox="0 0 379 296" xml:space="preserve">
<path fill="#F4F4F4" d="M355.5,290.7H23.8c-9.9,0-17.9-8-17.9-17.9V24c0-9.9,8-17.9,17.9-17.9h331.7c9.9,0,17.9,8,17.9,17.9v248.7
	C373.4,282.7,365.3,290.7,355.5,290.7z"/>
<path fill="#434A53" stroke="#434A53" stroke-width="7.5709" stroke-linecap="round" stroke-linejoin="round" stroke-miterlimit="10" d="
	M223.6,268.8H158c-14,0-20.8-17.2-10.4-26.6c8.8-8,22.1-14.9,41.8-15.6c20.8-0.7,35.1,6.8,44.7,15.6
	C244.3,251.6,237.6,268.8,223.6,268.8z"/>
<path fill="#ED5463" d="M213.6,267.3h-43.3c-9.2,0-13.7-9.8-6.9-15.2c5.8-4.6,14.6-8.5,27.6-8.9c13.7-0.4,23.2,3.9,29.5,8.9
	C227.3,257.5,222.8,267.3,213.6,267.3z"/>
<ellipse fill="#434A53" cx="81.8" cy="146.4" rx="25.6" ry="32.5"/>
<circle fill="#FFFFFF" cx="99.6" cy="135.7" r="11.4"/>
<ellipse fill="#434A53" cx="300" cy="146.4" rx="25.6" ry="32.5"/>
<circle fill="#FFFFFF" cx="317.9" cy="135.7" r="11.4"/>
<path fill="none" stroke="#434A53" stroke-width="13" stroke-linecap="round" stroke-miterlimit="10" d="M94.9,36.2
	c0,0-13.8,25.6-54.2,21"/>
<path fill="none" stroke="#434A53" stroke-width="13" stroke-linecap="round" stroke-miterlimit="10" d="M290,36.2
	c0,0,13.8,25.6,54.2,21"/>
<path fill="#4FC2E9" d="M34.3,90c0,0-35.3,51,0,53C69.1,144.9,34.3,90,34.3,90z"/>
<g>
	<path fill="#F4F4F4" d="M73.3,287.2c3.5-8.5,14.4-27.1,18.5-35.3c2.3-4.6,5.1-9.5,9.6-11.7c0.8-0.4,1.8-0.7,2.7-0.6
		c2.8,0.4,3.2,4.3,2.8,7.3c-0.9,6.5-2.5,12.8-4.8,19c2.4-5.4,6-10.3,10.3-14.3c2.3-2.1,5.9-4.5,7.7-2c0.8,1.1,0.9,3.2,0.8,4.6
		c-0.6,6.2-2.2,12.2-4.8,17.9c1.7-4.5,4.5-8.6,8.2-11.7c2.2-1.9,5.6-3.3,7.7-1.5c1.7,1.5,1.6,4.3,1.2,6.6c-1,5.2-2.6,10.3-5,15
		c1.7-4.1,4.5-7.7,8-10.3c1-0.7,2.1-1.4,3.3-1.3c2.9,0.2,3.7,4.4,2.9,7.3c-2.3,8.7,0,3.6-4.9,11.5"/>
	<g>
		<path fill="#434A53" d="M75,288.2c4.4-10.3,10.4-20,15.7-29.9c2.5-4.7,5.2-13.4,10.4-15.6c6.3-2.6,3,8,2.4,10.6
			c-0.9,4.1-2.1,8.1-3.5,12c-0.8,2.2,2.8,3.7,3.8,1.6c1.2-2.4,2.4-4.8,4-7c1.5-2.2,4.3-6.5,6.9-7.6c5.5-2.3,3.8,4.6,3.1,7.8
			c-0.8,3.8-2,7.4-3.5,11c1.3,0.5,2.5,1.1,3.8,1.6c0.9-2.3,10.8-18.1,13.3-10.1c0.6,1.9-0.9,5.6-1.4,7.5c-0.9,3.2-2.2,6.3-3.6,9.4
			c1.2,0.7,2.4,1.4,3.6,2.1c1.3-3,3-5.8,5.4-8c0.9-0.8,3.2-3.3,4.6-1.9c1.4,1.4,0.1,4.7-0.3,6.2c-0.9,3.7-2,5.6-4.1,8.9
			c-1.4,2.3,2.2,4.3,3.6,2.1c3.2-5.1,7.6-12.6,4.6-18.8c-4.8-9.8-15.4,4.9-17.4,9.5c-1,2.4,2.4,4.5,3.6,2.1
			c2.5-5.3,10.5-21.5,1.9-25.1c-8.1-3.4-15.4,9.3-17.8,15.1c-0.9,2.1,2.8,3.7,3.8,1.6c2.3-5.5,4.1-11.2,4.8-17.1
			c0.4-3.1,0.6-7.8-2.9-9.2c-3.7-1.5-7.6,2.1-10,4.4c-4,3.9-7.1,8.6-9.5,13.6c1.3,0.5,2.5,1.1,3.8,1.6c1.9-5.3,3.4-10.8,4.4-16.4
			c0.5-3,1.3-6.6-0.2-9.5c-3.7-7.1-11.8,0.3-14.6,4.3c-4.4,6.3-7.6,13.9-11.3,20.6c-3.7,6.8-7.7,13.6-10.7,20.8
			C70.5,288.6,74,290.7,75,288.2L75,288.2z"/>
	</g>
</g>
</svg>
