<?xml version="1.0" encoding="utf-8"?>
<!-- Generator: Adobe Illustrator 24.0.1, SVG Export Plug-In . SVG Version: 6.00 Build 0)  -->
<svg version="1.2" baseProfile="tiny" id="Capa_1" xmlns="http://www.w3.org/2000/svg" xmlns:xlink="http://www.w3.org/1999/xlink"
	 x="0px" y="0px" viewBox="0 0 379 296" xml:space="preserve">
<path fill="#FFFFFF" d="M355.5,291.7H23.8c-9.9,0-17.9-8-17.9-17.9V25c0-9.9,8-17.9,17.9-17.9h331.7c9.9,0,17.9,8,17.9,17.9v248.7
	C373.4,283.7,365.3,291.7,355.5,291.7z"/>
<path fill="#434A53" stroke="#434A53" stroke-width="7.8724" stroke-linecap="round" stroke-linejoin="round" stroke-miterlimit="10" d="
	M224.65,258.11h-68.21c-14.56,0-21.63-17.89-10.81-27.66c9.15-8.32,22.98-15.49,43.46-16.22c21.63-0.73,36.5,7.07,46.48,16.22
	C246.18,240.33,239.11,258.11,224.65,258.11z"/>
<path fill="#ED5463" d="M214.15,256.66h-45.02c-9.57,0-14.25-10.19-7.17-15.81c6.03-4.78,15.18-8.84,28.7-9.25
	c14.25-0.42,24.12,4.06,30.67,9.25C228.4,246.47,223.82,256.66,214.15,256.66z"/>
<path fill="none" stroke="#434A53" stroke-width="13" stroke-linecap="round" stroke-miterlimit="10" d="M40.4,52.85
	c0,0,13.8-25.6,54.2-21"/>
<path fill="none" stroke="#434A53" stroke-width="13" stroke-linecap="round" stroke-miterlimit="10" d="M343.9,52.85
	c0,0-13.8-25.6-54.2-21"/>
<path fill="#4FC2E9" d="M31.65,75.32c0,0-27.36,39.44,0,41C58.55,117.78,31.65,75.32,31.65,75.32z"/>
<g>
	<path fill="#FFFFFF" d="M66.39,272.77c4.37-10.4,17.78-33.38,22.77-43.57c2.81-5.72,6.24-11.65,11.85-14.45
		c1.04-0.52,2.18-0.94,3.22-0.73c3.43,0.52,3.95,5.3,3.43,8.94c-1.14,8.01-3.12,15.81-5.93,23.4c3.02-6.65,7.38-12.69,12.69-17.68
		c2.81-2.6,7.59-4.68,9.77-1.66c0.94,1.35,0.94,3.22,0.73,4.89c-0.73,7.59-2.81,15.08-5.93,22.04c2.08-5.62,5.62-10.61,10.09-14.35
		c2.7-2.29,6.86-4.16,9.46-1.87c2.18,1.87,1.98,5.3,1.46,8.21c-1.14,6.45-3.22,12.69-6.13,18.51c2.08-5.1,5.51-9.57,9.77-12.69
		c1.25-0.83,2.6-1.66,4.06-1.56c3.54,0.31,4.16,5.3,3.54,9.05c-1.87,11.23,0,4.47-6.03,14.25"/>
	<g>
		<path fill="#434A53" d="M68.57,274.02c5.41-12.79,12.79-24.75,19.34-37.02c3.02-5.62,6.55-16.95,13-19.34
			c7.49-2.7,3.33,10.81,2.6,13.73c-1.14,4.89-2.6,9.57-4.26,14.25c-0.94,2.7,3.43,4.58,4.68,1.98c1.56-3.33,3.33-6.55,5.51-9.46
			c1.77-2.39,5.3-7.69,8.42-8.84c6.24-2.29,4.26,5.82,3.43,9.57c-1.04,4.78-2.5,9.46-4.47,13.93c1.56,0.62,3.12,1.35,4.68,1.98
			c1.35-3.33,3.12-6.55,5.51-9.25c1.66-1.98,9.15-10.29,10.92-2.5c0.62,2.5-1.14,6.86-1.87,9.25c-1.14,3.74-2.6,7.38-4.26,11.02
			c1.46,0.83,2.91,1.66,4.37,2.6c1.87-4.26,4.47-8.21,8.11-11.23c5.72-4.58,4.47,5.1,3.95,8.11c-0.62,3.95-2.91,6.03-5.1,9.46
			c-1.77,2.81,2.6,5.3,4.37,2.6c1.56-2.6,4.16-5.1,5.1-8.01c1.25-3.95,2.08-9.88,0.83-13.93c-4.37-14.35-19.24,4.68-21.73,10.5
			c-1.25,2.91,2.91,5.51,4.37,2.6c3.12-6.55,12.79-26.1,2.6-30.88c-9.88-4.58-19.34,11.44-22.15,18.51
			c-1.04,2.6,3.54,4.58,4.68,1.98c2.91-6.76,4.99-13.83,5.93-21.11c0.52-4.06,0.73-9.36-4.06-10.92
			c-10.29-3.22-20.28,14.77-23.5,21.73c1.56,0.62,3.12,1.35,4.68,1.98c2.29-6.45,4.16-13,5.3-19.76c0.73-3.95,1.66-8.53-0.31-12.37
			c-4.99-9.57-16.01,2.18-19.13,7.28c-4.78,7.69-8.63,16.12-13,24.12c-4.47,8.21-9.25,16.43-12.89,25.06
			C62.96,274.44,67.33,277.04,68.57,274.02L68.57,274.02z"/>
	</g>
</g>
<g>
	<path fill="#FFFFFF" d="M312.31,272.77c-4.37-10.4-17.78-33.38-22.77-43.57c-2.81-5.72-6.24-11.65-11.85-14.45
		c-1.04-0.52-2.18-0.94-3.22-0.73c-3.43,0.52-3.95,5.3-3.43,8.94c1.14,8.01,3.12,15.81,5.93,23.4c-3.02-6.65-7.38-12.69-12.69-17.68
		c-2.81-2.6-7.59-4.68-9.77-1.66c-0.94,1.35-0.94,3.22-0.73,4.89c0.73,7.59,2.81,15.08,5.93,22.04
		c-2.08-5.62-5.62-10.61-10.09-14.35c-2.7-2.29-7.8-5.2-10.5-3.02c-2.18,1.87-1.04,6.34-0.42,9.25c1.14,6.45,3.22,12.69,6.13,18.51
		c-2.08-5.1-5.51-9.57-9.77-12.69c-1.25-0.83-2.6-1.66-4.06-1.56c-3.54,0.31-4.16,5.3-3.54,9.05c1.87,11.23,0,4.47,6.03,14.25"/>
	<g>
		<path fill="#434A53" d="M314.49,271.42c-3.54-8.42-8.11-16.43-12.48-24.44c-4.47-8.21-8.42-16.85-13.31-24.75
			c-3.12-4.99-13.41-16.43-18.92-7.8c-2.39,3.74-1.25,8.84-0.52,12.79c1.14,6.76,3.02,13.31,5.3,19.76
			c1.56-0.62,3.12-1.35,4.68-1.98c-2.81-6.03-6.55-11.65-11.33-16.43c-3.02-3.02-7.59-6.76-12.27-5.41
			c-4.68,1.46-4.58,6.55-4.16,10.61c0.94,7.49,3.02,14.56,6.03,21.52c1.14,2.6,5.72,0.73,4.68-1.98
			c-2.39-5.93-5.82-11.33-10.71-15.49c-3.22-2.6-8.32-5.93-12.58-3.95c-4.47,2.08-3.54,7.59-2.81,11.54
			c1.25,7.07,3.54,13.83,6.65,20.28c1.46,3.02,5.62,0.42,4.37-2.6c-2.5-5.82-17.37-24.75-21.73-10.5
			c-1.25,4.06-0.31,9.67,0.83,13.73c0.94,3.02,3.54,5.62,5.2,8.21c1.77,2.81,6.13,0.21,4.37-2.6c-2.18-3.43-4.47-5.51-5.1-9.46
			c-0.42-2.7-2.18-13,3.95-8.11c3.74,2.91,6.24,6.86,8.11,11.23c1.46-0.83,2.91-1.66,4.37-2.6c-1.98-4.06-3.64-8.32-4.78-12.69
			c-0.62-2.5-2.81-8.01-1.77-10.4c1.66-3.95,7.8,1.66,9.67,3.64c3.12,3.22,5.41,6.97,7.07,11.13c1.56-0.62,3.12-1.35,4.68-1.98
			c-1.77-4.26-3.22-8.53-4.26-13c-0.62-3.02-3.74-13.73,3.22-10.4c3.12,1.46,5.93,5.51,7.9,8.21c2.39,3.12,4.26,6.55,6.03,10.19
			c1.25,2.6,5.62,0.73,4.68-1.98c-1.66-4.68-3.12-9.46-4.26-14.25c-0.62-2.91-4.89-16.43,2.6-13.73c6.45,2.29,9.98,13.62,13,19.34
			c6.55,12.17,13.93,24.23,19.34,37.02C311.37,277.04,315.74,274.44,314.49,271.42L314.49,271.42z"/>
	</g>
</g>
<g>
	<path fill="#434A53" d="M69.14,138.58l11.02-23.33c-3.74-5.07-8.55-8.08-13.88-8.08c-12.16,0-21.68,15.7-21.68,35.73
		c0,20.04,9.52,35.74,21.68,35.74c12.16,0,21.68-15.7,21.68-35.74c0-5.38-0.69-10.45-1.93-14.98L69.14,138.58z"/>
</g>
<g>
	<path fill="#434A53" d="M317.28,138.58l11.02-23.33c-3.74-5.07-8.55-8.08-13.88-8.08c-12.16,0-21.68,15.7-21.68,35.73
		c0,20.04,9.52,35.74,21.68,35.74c12.16,0,21.68-15.7,21.68-35.74c0-5.38-0.69-10.45-1.93-14.98L317.28,138.58z"/>
</g>
</svg>
