<?xml version="1.0" encoding="utf-8"?>
<!-- Generator: Adobe Illustrator 24.0.1, SVG Export Plug-In . SVG Version: 6.00 Build 0)  -->
<svg version="1.2" baseProfile="tiny" id="Capa_1" xmlns="http://www.w3.org/2000/svg" xmlns:xlink="http://www.w3.org/1999/xlink"
	 x="0px" y="0px" viewBox="0 0 379 296" xml:space="preserve">
<path fill="#F4F4F4" d="M355.9,290.11H24.2c-9.89,0-17.91-8.02-17.91-17.91V23.45c0-9.89,8.02-17.91,17.91-17.91h331.7
	c9.89,0,17.91,8.02,17.91,17.91V272.2C373.81,282.09,365.79,290.11,355.9,290.11z"/>
<line fill="none" stroke="#434A53" stroke-width="12.533" stroke-linecap="round" stroke-miterlimit="10" x1="53.71" y1="71.2" x2="99.11" y2="78.91"/>
<line fill="none" stroke="#434A53" stroke-width="12.533" stroke-linecap="round" stroke-miterlimit="10" x1="317.96" y1="71.2" x2="272.56" y2="78.91"/>
<circle fill="#434A53" cx="79.11" cy="146" r="33.99"/>
<circle fill="#FFFFFF" cx="58.94" cy="157.82" r="9.76"/>
<circle fill="#434A53" cx="298.13" cy="146" r="33.99"/>
<circle fill="#FFFFFF" cx="277.54" cy="157.82" r="9.76"/>
<g>
	<path fill="#434A53" d="M136.34,217.03c30.14,5.75,62.55,5.07,89.84-10.42c6.89-3.91,13.32-8.77,18.9-14.4
		c1.93-1.94,2.08-5.47,0-7.39c-2.08-1.91-5.33-2.07-7.39,0c-2.31,2.33-4.76,4.49-7.32,6.53c-1.08,0.86,0.87-0.64-0.24,0.18
		c-0.33,0.24-0.65,0.49-0.98,0.73c-0.66,0.48-1.33,0.95-2,1.42c-1.35,0.93-2.72,1.81-4.12,2.66c-2.8,1.7-5.7,3.24-8.68,4.62
		c-0.74,0.35-1.49,0.68-2.25,1.01c-0.2,0.09-1.45,0.68-0.27,0.12c-0.37,0.18-0.76,0.31-1.14,0.46c-1.53,0.61-3.07,1.18-4.63,1.72
		c-6.47,2.22-13.15,3.75-19.92,4.72c1.19-0.17-0.39,0.05-0.52,0.06c-0.48,0.06-0.95,0.12-1.43,0.17c-0.96,0.11-1.91,0.2-2.87,0.29
		c-1.91,0.17-3.83,0.29-5.75,0.37c-3.85,0.16-7.7,0.16-11.54,0.01c-4.34-0.17-8.66-0.53-12.97-1.04c-0.48-0.06-0.96-0.12-1.44-0.18
		c-1.59-0.2,1.06,0.15-0.52-0.07c-1.11-0.16-2.23-0.32-3.34-0.49c-2.22-0.35-4.44-0.74-6.65-1.16c-2.67-0.51-5.76,0.75-6.42,3.65
		C132.11,213.18,133.47,216.48,136.34,217.03L136.34,217.03z"/>
</g>
<g>
	<path fill="#434A53" d="M176.84,235.46c15.68,1.79,31.84-1.46,45.73-8.91c3.97-2.13,7.7-4.64,11.25-7.42
		c1.11-0.87,0.91-2.78,0-3.69c-1.1-1.1-2.58-0.87-3.69,0c-11.49,9-25.93,14.32-40.48,15.17c-4.27,0.25-8.55,0.12-12.8-0.37
		c-1.4-0.16-2.61,1.32-2.61,2.61C174.23,234.39,175.43,235.3,176.84,235.46L176.84,235.46z"/>
</g>
</svg>
