<?xml version="1.0" encoding="utf-8"?>
<!-- Generator: Adobe Illustrator 21.0.0, SVG Export Plug-In . SVG Version: 6.00 Build 0)  -->
<svg version="1.2" baseProfile="tiny" id="Capa_1" xmlns="http://www.w3.org/2000/svg" xmlns:xlink="http://www.w3.org/1999/xlink"
	 x="0px" y="0px" viewBox="0 0 379 296" xml:space="preserve">
<path fill="#FFFFFF" d="M355.4,289.8H23.7c-9.9,0-17.9-8-17.9-17.9V23.1c0-9.9,8-17.9,17.9-17.9h331.7c9.9,0,17.9,8,17.9,17.9v248.7
	C373.3,281.8,365.3,289.8,355.4,289.8z"/>
<path fill="none" stroke="#434A53" stroke-width="11" stroke-linecap="round" stroke-miterlimit="10" d="M152.1,227.5
	c0,0,34.4-8.5,76,0.3"/>
<path fill="none" stroke="#434A53" stroke-width="11" stroke-linecap="round" stroke-miterlimit="10" d="M32.9,82
	c0,0,12.9-21.5,45.9-15.8"/>
<path fill="none" stroke="#434A53" stroke-width="11" stroke-linecap="round" stroke-miterlimit="10" d="M346.5,82
	c0,0-12.9-21.5-45.9-15.8"/>
<ellipse fill="#ED5463" cx="63.8" cy="176.7" rx="36.8" ry="17.7"/>
<g>
	<path fill="#CE495C" d="M29.9,169.7c-1.6,1.7-2.6,3.6-2.9,5.6l11.4-11.4c-2.9,1.3-5.4,2.9-7.3,4.6L29.9,169.7z"/>
	<path fill="#CE495C" d="M53.7,159.7c-1.1,0.1-2.1,0.3-3.2,0.5l-21.9,21.9c0.3,0.5,0.7,1,1.2,1.5L53.7,159.7z"/>
	<path fill="#CE495C" d="M65.5,159.1c-0.6,0-1.3,0-1.9,0c-0.2,0-0.5,0-0.7,0l-28.4,28.4c0.5,0.3,1.1,0.7,1.7,1L65.5,159.1z"/>
	<path fill="#CE495C" d="M75.8,160.1c-0.8-0.1-1.5-0.2-2.3-0.3l-31.3,31.3c0.7,0.2,1.3,0.4,2,0.7L75.8,160.1z"/>
	<path fill="#CE495C" d="M84.7,162.3c-0.7-0.2-1.3-0.4-2-0.6L51,193.4c0.8,0.1,1.5,0.2,2.3,0.4L84.7,162.3z"/>
	<path fill="#CE495C" d="M90.7,164.8l-29.5,29.5c0.8,0,1.6,0,2.4,0c0.1,0,0.1,0,0.2,0l28.6-28.6C91.9,165.5,91.3,165.2,90.7,164.8z"
		/>
	<path fill="#CE495C" d="M98.4,171c-0.4-0.5-0.8-1-1.2-1.5l-24.3,24.3c1.1-0.1,2.1-0.3,3.1-0.5L98.4,171z"/>
	<path fill="#CE495C" d="M98.8,181.8c0.8-1.3,1.3-2.7,1.5-4.1L88,190c2.2-0.9,4.1-2,5.8-3.1L98.8,181.8z"/>
</g>
<ellipse fill="#ED5463" cx="316.1" cy="176.7" rx="36.8" ry="17.7"/>
<g>
	<path fill="#CE495C" d="M282.2,169.7c-1.6,1.7-2.6,3.6-2.9,5.6l11.4-11.4c-2.9,1.3-5.4,2.9-7.3,4.6L282.2,169.7z"/>
	<path fill="#CE495C" d="M306.1,159.7c-1.1,0.1-2.1,0.3-3.2,0.5l-21.9,21.9c0.3,0.5,0.7,1,1.2,1.5L306.1,159.7z"/>
	<path fill="#CE495C" d="M317.9,159.1c-0.6,0-1.3,0-1.9,0c-0.2,0-0.5,0-0.7,0l-28.4,28.4c0.5,0.3,1.1,0.7,1.7,1L317.9,159.1z"/>
	<path fill="#CE495C" d="M328.1,160.1c-0.8-0.1-1.5-0.2-2.3-0.3l-31.3,31.3c0.7,0.2,1.3,0.4,2,0.7L328.1,160.1z"/>
	<path fill="#CE495C" d="M337.1,162.3c-0.7-0.2-1.3-0.4-2-0.6l-31.7,31.7c0.8,0.1,1.5,0.2,2.3,0.4L337.1,162.3z"/>
	<path fill="#CE495C" d="M343.1,164.8l-29.5,29.5c0.8,0,1.6,0,2.4,0c0.1,0,0.1,0,0.2,0l28.6-28.6
		C344.2,165.5,343.6,165.2,343.1,164.8z"/>
	<path fill="#CE495C" d="M350.7,171c-0.4-0.5-0.8-1-1.2-1.5l-24.3,24.3c1.1-0.1,2.1-0.3,3.1-0.5L350.7,171z"/>
	<path fill="#CE495C" d="M351.2,181.8c0.8-1.3,1.3-2.7,1.5-4.1L340.3,190c2.2-0.9,4.1-2,5.8-3.1L351.2,181.8z"/>
</g>
<circle fill="#434A53" cx="72.4" cy="140.8" r="24.9"/>
<circle fill="#FFFFFF" cx="65.1" cy="150.8" r="10"/>
<circle fill="#434A53" cx="310.1" cy="140.8" r="24.9"/>
<circle fill="#FFFFFF" cx="302.5" cy="150.8" r="10"/>
</svg>
