<?xml version="1.0" encoding="utf-8"?>
<!-- Generator: Adobe Illustrator 24.0.1, SVG Export Plug-In . SVG Version: 6.00 Build 0)  -->
<svg version="1.2" baseProfile="tiny" id="Capa_1" xmlns="http://www.w3.org/2000/svg" xmlns:xlink="http://www.w3.org/1999/xlink"
	 x="0px" y="0px" viewBox="0 0 379 296" xml:space="preserve">
<path fill="#FFFFFF" d="M354.87,290.5H23.17c-9.89,0-17.91-8.02-17.91-17.91V23.84c0-9.89,8.02-17.91,17.91-17.91h331.7
	c9.89,0,17.91,8.02,17.91,17.91v248.75C372.77,282.48,364.76,290.5,354.87,290.5z"/>
<path fill="none" stroke="#434A53" stroke-width="13" stroke-linecap="round" stroke-miterlimit="10" d="M90.04,73.19
	c0,0-13.81,25.56-54.2,20.96"/>
<path fill="none" stroke="#434A53" stroke-width="13" stroke-linecap="round" stroke-miterlimit="10" d="M285.16,73.19
	c0,0,13.81,25.56,54.2,20.96"/>
<g>
	<circle fill="#434A53" cx="73.13" cy="141.32" r="29.2"/>
	<circle fill="#FFFFFF" cx="86.66" cy="133.05" r="10.57"/>
	<circle fill="#FFFFFF" cx="93.81" cy="149.76" r="3.95"/>
	<circle fill="#FFFFFF" cx="74.35" cy="119.89" r="4.22"/>
</g>
<g>
	<circle fill="#434A53" cx="305.63" cy="141.32" r="29.2"/>
	<circle fill="#FFFFFF" cx="319.16" cy="133.05" r="10.57"/>
	<circle fill="#FFFFFF" cx="326.31" cy="149.76" r="3.95"/>
	<circle fill="#FFFFFF" cx="306.85" cy="119.89" r="4.22"/>
</g>
<path fill="none" stroke="#434A53" stroke-width="11" stroke-linecap="round" stroke-miterlimit="10" d="M142.31,239.36
	c0,0,7.72-33.65,48.38-35s51.61,35,51.61,35"/>
<path fill="#4FC2E9" d="M59.38,177.42c0,0-20.35,29.39,0,30.52C79.42,209.06,59.38,177.42,59.38,177.42z"/>
</svg>
