<?xml version="1.0" encoding="utf-8"?>
<!-- Generator: Adobe Illustrator 21.0.0, SVG Export Plug-In . SVG Version: 6.00 Build 0)  -->
<svg version="1.2" baseProfile="tiny" id="Capa_1" xmlns="http://www.w3.org/2000/svg" xmlns:xlink="http://www.w3.org/1999/xlink"
	 x="0px" y="0px" viewBox="0 0 379 296" xml:space="preserve">
<path fill="#F4F4F4" d="M356,291.7H24.3c-9.9,0-17.9-8-17.9-17.9V25c0-9.9,8-17.9,17.9-17.9H356c9.9,0,17.9,8,17.9,17.9v248.7
	C373.9,283.7,365.9,291.7,356,291.7z"/>
<line fill="none" stroke="#434A53" stroke-width="13" stroke-linecap="round" stroke-miterlimit="10" x1="40.5" y1="62.6" x2="72.1" y2="48"/>
<line fill="none" stroke="#434A53" stroke-width="13" stroke-linecap="round" stroke-miterlimit="10" x1="339.5" y1="62" x2="307.4" y2="48.6"/>
<circle fill="#434A53" stroke="#434A53" stroke-width="8.2952" stroke-linecap="round" stroke-linejoin="round" stroke-miterlimit="10" cx="188.9" cy="228.5" r="36.5"/>
<path fill="#ED5463" d="M163,245.3c0,0,21.1-14.3,51.5,0.6C214.5,245.9,192.8,281.9,163,245.3z"/>
<g>
	<path fill="#F4F4F4" d="M97.7,283c4.6-11.1,18.8-35.5,24.2-46.2c3-6,6.7-12.4,12.6-15.3c1-0.5,2.4-0.9,3.5-0.8
		c3.7,0.5,4.2,5.6,3.7,9.6c-1.2,8.5-3.3,16.7-6.3,24.9c3.1-7.1,7.9-13.5,13.5-18.7c3-2.7,7.7-5.9,10.1-2.6c1,1.4,1.2,4.2,1,6
		c-0.8,8.1-2.9,16-6.3,23.4c2.2-5.9,5.9-11.3,10.7-15.3c2.9-2.5,7.3-4.3,10.1-2c2.2,2,2.1,5.6,1.6,8.6c-1.3,6.8-3.4,13.5-6.5,19.6
		c2.2-5.4,5.9-10.1,10.5-13.5c1.3-0.9,2.7-1.8,4.3-1.7c3.8,0.3,4.8,5.8,3.8,9.6c-3,11.4,0,4.7-6.4,15"/>
	<g>
		<path fill="#434A53" d="M99.9,284.3c5.8-13.5,13.6-26.2,20.5-39.1c3.3-6.1,6.8-17.5,13.6-20.4c8.2-3.4,3.9,10.5,3.1,13.9
			c-1.2,5.4-2.7,10.6-4.6,15.7c-1,2.9,3.7,4.8,5,2.1c1.6-3.1,3.1-6.3,5.2-9.2c2-2.9,5.6-8.5,9-9.9c7.2-3,5,6,4.1,10.2
			c-1,5-2.6,9.7-4.6,14.4c1.7,0.7,3.3,1.4,5,2.1c1.2-3,14.1-23.7,17.4-13.2c0.8,2.5-1.2,7.3-1.8,9.8c-1.2,4.2-2.9,8.2-4.7,12.3
			c1.6,0.9,3.1,1.8,4.7,2.7c1.7-3.9,3.9-7.6,7.1-10.5c1.2-1,4.2-4.3,6-2.5c1.8,1.8,0.1,6.1-0.4,8.1c-1.2,4.8-2.6,7.3-5.4,11.6
			c-1.8,3,2.9,5.6,4.7,2.7c4.2-6.7,9.9-16.5,6-24.6c-6.3-12.8-20.2,6.4-22.8,12.4c-1.3,3.1,3.1,5.9,4.7,2.7
			c3.3-6.9,13.7-28.1,2.5-32.8c-10.6-4.4-20.2,12.2-23.3,19.8c-1.2,2.7,3.7,4.8,5,2.1c3-7.2,5.4-14.7,6.3-22.4
			c0.5-4.1,0.8-10.2-3.8-12c-4.8-2-9.9,2.7-13.1,5.8c-5.2,5.1-9.3,11.3-12.4,17.8c1.7,0.7,3.3,1.4,5,2.1c2.5-6.9,4.4-14.1,5.8-21.5
			c0.7-3.9,1.7-8.6-0.3-12.4c-4.8-9.3-15.4,0.4-19.1,5.6c-5.8,8.2-9.9,18.2-14.8,27c-4.8,8.9-10.1,17.8-14,27.2
			C94,284.9,98.6,287.6,99.9,284.3L99.9,284.3z"/>
	</g>
</g>
<ellipse fill="#434A53" cx="79.1" cy="123.9" rx="25.6" ry="32.5"/>
<circle fill="#FFFFFF" cx="96.9" cy="113.2" r="11.4"/>
<ellipse fill="#434A53" cx="297.4" cy="123.9" rx="25.6" ry="32.5"/>
<circle fill="#FFFFFF" cx="314.2" cy="115.2" r="11.4"/>
<path fill="#F4F4F4" d="M50,129.7c0,0,18.7-31.3,57.3-22C107.3,107.7,56.7,47.7,50,129.7z"/>
<path fill="#F4F4F4" d="M328.3,129.7c0,0-18.7-31.3-57.3-22C271,107.7,321.7,47.7,328.3,129.7z"/>
</svg>
