<?xml version="1.0" encoding="utf-8"?>
<!-- Generator: Adobe Illustrator 24.0.1, SVG Export Plug-In . SVG Version: 6.00 Build 0)  -->
<svg version="1.2" baseProfile="tiny" id="Capa_1" xmlns="http://www.w3.org/2000/svg" xmlns:xlink="http://www.w3.org/1999/xlink"
	 x="0px" y="0px" viewBox="0 0 151.22 55.28" xml:space="preserve">
<path fill="#FFCE54" d="M136,53.35H15.53c-7.62,0-13.79-6.18-13.79-13.79v-23.6c0-7.62,6.18-13.79,13.79-13.79H136
	c7.62,0,13.79,6.18,13.79,13.79v23.6C149.79,47.17,143.62,53.35,136,53.35z"/>
<path fill="#434A53" d="M14.85,33.95c0.48,0.77,1.48,1.03,2.28,0.58l0,0c0.8-0.48,1.03-1.51,0.55-2.32
	c-1.13-1.83-1.67-4.02-1.45-6.37c0.48-4.95,4.57-8.87,9.52-9.23c6.01-0.42,11.03,4.4,10.96,10.32C36.65,32.43,32.15,37,26.65,37.1
	c-0.03,0-0.06,0-0.06,0v-2.44c0-0.71-0.77-1.16-1.38-0.77l-6.59,4.15c-0.58,0.35-0.58,1.19,0,1.54l6.56,4.12
	c0.61,0.39,1.38-0.06,1.38-0.77v-2.48c7.81-0.06,14.05-6.69,13.47-14.63c-0.51-6.62-5.88-11.99-12.54-12.51
	c-7.94-0.58-14.63,5.72-14.63,13.57C12.86,29.44,13.6,31.89,14.85,33.95z"/>
</svg>
