<?xml version="1.0" encoding="utf-8"?>
<!-- Generator: Adobe Illustrator 24.0.1, SVG Export Plug-In . SVG Version: 6.00 Build 0)  -->
<svg version="1.2" baseProfile="tiny" id="Capa_1" xmlns="http://www.w3.org/2000/svg" xmlns:xlink="http://www.w3.org/1999/xlink"
	 x="0px" y="0px" viewBox="0 0 74.92 75.34" xml:space="preserve">
<g>
	<circle fill="#ED5463" cx="37.37" cy="37.55" r="36.29"/>
	<g>
		<path fill="#FFCE54" d="M25.06,18.09c1.22,0,2.36,0.56,3.04,1.49l5.45,7.49c1.7,2.33,3.12,4.49,4.64,6.82h0.28
			c1.52-2.51,3.03-4.66,4.55-6.9l5.36-7.4c0.68-0.93,1.82-1.49,3.04-1.49h0c2.96,0,4.69,3.04,2.98,5.24L44.29,36.4
			c-0.88,1.13-0.89,2.64-0.04,3.79l10.81,14.48c1.65,2.21-0.09,5.19-3.02,5.19h-0.6c-1.23,0-2.38-0.57-3.06-1.51l-5.65-7.9
			c-1.8-2.42-3.31-4.75-4.92-7.25h-0.19c-1.52,2.51-3.12,4.75-4.83,7.25l-5.55,7.88c-0.67,0.95-1.83,1.53-3.07,1.53h-0.21
			c-2.95,0-4.68-3.02-2.99-5.22l10.85-14.2c0.87-1.14,0.87-2.65,0.01-3.79L21.7,23.31c-1.67-2.2,0.06-5.22,3-5.22H25.06z"/>
	</g>
</g>
</svg>
