<?xml version="1.0" encoding="utf-8"?>
<!-- Generator: Adobe Illustrator 24.0.1, SVG Export Plug-In . SVG Version: 6.00 Build 0)  -->
<svg version="1.2" baseProfile="tiny" id="Capa_1" xmlns="http://www.w3.org/2000/svg" xmlns:xlink="http://www.w3.org/1999/xlink"
	 x="0px" y="0px" viewBox="0 0 264.83 266.17" xml:space="preserve">
<circle fill="#ED5463" cx="132.54" cy="134.65" r="124.84"/>
<g>
	<path fill="#CD4250" d="M91.64,16.68c-6,2.08-11.8,4.61-17.34,7.54L22.1,76.41c-2.93,5.55-5.46,11.34-7.54,17.34L91.64,16.68z"/>
	<path fill="#CD4250" d="M132.54,9.81c-0.9,0-1.8,0.02-2.7,0.03L7.73,131.95c-0.02,0.9-0.03,1.8-0.03,2.7c0,2.33,0.07,4.64,0.2,6.94
		L139.48,10.01C137.18,9.88,134.87,9.81,132.54,9.81z"/>
	<path fill="#CD4250" d="M173.84,16.82c-2.45-0.86-4.93-1.65-7.45-2.36L12.35,168.51c0.71,2.52,1.5,5,2.36,7.45L173.84,16.82z"/>
	<path fill="#CD4250" d="M201.35,30.48c-1.98-1.31-3.99-2.56-6.04-3.76l-170.7,170.7c1.2,2.05,2.45,4.07,3.76,6.04L201.35,30.48z"/>
	<path fill="#CD4250" d="M218.8,44.41L42.3,220.91c1.6,1.67,3.24,3.29,4.93,4.87L223.67,49.34
		C222.09,47.65,220.47,46.01,218.8,44.41z"/>
	<path fill="#CD4250" d="M241.14,73.05c-1.18-2.07-2.41-4.11-3.7-6.1l-172.6,172.6c2,1.29,4.03,2.52,6.1,3.7L241.14,73.05z"/>
	<path fill="#CD4250" d="M253.12,102.24c-0.68-2.54-1.43-5.06-2.27-7.53L92.59,252.96c2.48,0.84,4.99,1.59,7.53,2.27L253.12,102.24z
		"/>
	<path fill="#CD4250" d="M257.38,134.65c0-1.74-0.05-3.46-0.12-5.19L127.35,259.38c1.72,0.07,3.45,0.12,5.19,0.12
		c1.54,0,3.07-0.04,4.6-0.09l120.15-120.15C257.34,137.72,257.38,136.19,257.38,134.65z"/>
	<path fill="#CD4250" d="M240.73,196.98c3.41-5.9,6.34-12.1,8.75-18.56l-73.17,73.17c6.46-2.42,12.66-5.35,18.56-8.75L240.73,196.98
		z"/>
</g>
</svg>
