<?xml version="1.0" encoding="utf-8"?>
<!-- Generator: Adobe Illustrator 21.0.0, SVG Export Plug-In . SVG Version: 6.00 Build 0)  -->
<svg version="1.2" baseProfile="tiny" id="Capa_1" xmlns="http://www.w3.org/2000/svg" xmlns:xlink="http://www.w3.org/1999/xlink"
	 x="0px" y="0px" viewBox="0 0 63 59" xml:space="preserve">
<g>
	<polygon fill="#939598" points="32,7.5 39.2,22.2 55.3,24.5 43.6,35.9 46.4,52 32,44.4 17.5,52 20.3,35.9 8.6,24.5 24.7,22.2 	"/>
	<path fill="#808285" d="M34.5,16.4c0.8,1.4,1.4,2.8,2,4.3c0.3,0.7,0.5,1.5,0.8,2.2c0.2,0.7,0.5,1.5,0.7,2.2l-0.9-0.7
		c0.8,0,1.6,0.1,2.4,0.2c0.8,0.1,1.6,0.2,2.4,0.3c0.8,0.1,1.6,0.3,2.4,0.4c0.8,0.2,1.6,0.4,2.3,0.6c-0.8,0.2-1.6,0.3-2.4,0.4
		c-0.8,0.1-1.6,0.1-2.4,0.2c-0.8,0.1-1.6,0-2.4,0c-0.8,0-1.6,0-2.4-0.1h-0.7l-0.2-0.7c-0.2-0.8-0.4-1.5-0.6-2.3
		c-0.2-0.8-0.3-1.5-0.4-2.3C34.7,19.6,34.5,18.1,34.5,16.4z"/>
	<path fill="#808285" d="M39.5,46.9c-1.5-0.6-2.8-1.4-4.2-2.2c-0.7-0.4-1.3-0.9-1.9-1.3c-0.6-0.4-1.3-0.9-1.9-1.4h1.2
		c-0.7,0.4-1.3,0.9-2,1.3c-0.7,0.4-1.4,0.8-2.1,1.2s-1.4,0.7-2.1,1.1c-0.7,0.3-1.5,0.7-2.2,0.9c0.5-0.6,1.1-1.2,1.7-1.7
		s1.2-1.1,1.8-1.6c0.6-0.5,1.2-1,1.9-1.5c0.6-0.5,1.3-0.9,1.9-1.4l0.6-0.4l0.6,0.5c0.6,0.5,1.2,1,1.8,1.5c0.6,0.5,1.2,1,1.7,1.6
		C37.5,44.5,38.6,45.6,39.5,46.9z"/>
</g>
</svg>
