<?xml version="1.0" encoding="utf-8"?>
<!-- Generator: Adobe Illustrator 21.0.0, SVG Export Plug-In . SVG Version: 6.00 Build 0)  -->
<svg version="1.2" baseProfile="tiny" id="Capa_1" xmlns="http://www.w3.org/2000/svg" xmlns:xlink="http://www.w3.org/1999/xlink"
	 x="0px" y="0px" viewBox="0 0 63 59" xml:space="preserve">
<g>
	<polygon fill="#FFCE54" points="31.1,7.3 38.3,22 54.4,24.3 42.7,35.7 45.5,51.8 31.1,44.2 16.6,51.8 19.4,35.7 7.7,24.3 23.8,22 	
		"/>
	<path fill="#F6BB43" d="M33.6,16.2c0.8,1.4,1.4,2.8,2,4.3c0.3,0.7,0.5,1.5,0.8,2.2c0.2,0.7,0.5,1.5,0.7,2.2l-0.9-0.7
		c0.8,0,1.6,0.1,2.4,0.2c0.8,0.1,1.6,0.2,2.4,0.3c0.8,0.1,1.6,0.3,2.4,0.4c0.8,0.2,1.6,0.4,2.3,0.6c-0.8,0.2-1.6,0.3-2.4,0.4
		c-0.8,0.1-1.6,0.1-2.4,0.2c-0.8,0.1-1.6,0-2.4,0c-0.8,0-1.6,0-2.4-0.1l-0.7,0l-0.2-0.7c-0.2-0.8-0.4-1.5-0.6-2.3
		c-0.2-0.8-0.3-1.5-0.4-2.3C33.8,19.4,33.6,17.9,33.6,16.2z"/>
	<path fill="#F6BB43" d="M38.6,46.7c-1.5-0.6-2.8-1.4-4.2-2.2c-0.7-0.4-1.3-0.9-1.9-1.3c-0.6-0.4-1.3-0.9-1.9-1.4l1.2,0
		c-0.7,0.4-1.3,0.9-2,1.3c-0.7,0.4-1.4,0.8-2.1,1.2c-0.7,0.4-1.4,0.7-2.1,1.1c-0.7,0.3-1.5,0.7-2.2,0.9c0.5-0.6,1.1-1.2,1.7-1.7
		c0.6-0.5,1.2-1.1,1.8-1.6c0.6-0.5,1.2-1,1.9-1.5c0.6-0.5,1.3-0.9,1.9-1.4l0.6-0.4l0.6,0.5c0.6,0.5,1.2,1,1.8,1.5
		c0.6,0.5,1.2,1,1.7,1.6C36.6,44.3,37.7,45.4,38.6,46.7z"/>
</g>
</svg>
