<?xml version="1.0" encoding="utf-8"?>
<!-- Generator: Adobe Illustrator 21.0.0, SVG Export Plug-In . SVG Version: 6.00 Build 0)  -->
<svg version="1.1" id="Capa_1" xmlns="http://www.w3.org/2000/svg" xmlns:xlink="http://www.w3.org/1999/xlink" x="0px" y="0px"
	 viewBox="0 0 1024 768" style="enable-background:new 0 0 1024 768;" xml:space="preserve">
<style type="text/css">
	.st0{fill:url(#SVGID_1_);}
	.st1{clip-path:url(#SVGID_3_);}
	.st2{fill:#22252D;}
	.st3{clip-path:url(#SVGID_3_);fill:#22252D;}
</style>
<radialGradient id="SVGID_1_" cx="511.6442" cy="383.8405" r="577.9539" gradientTransform="matrix(0.9967 0 0 0.9967 1.9125 1.4144)" gradientUnits="userSpaceOnUse">
	<stop  offset="0" style="stop-color:#161728"/>
	<stop  offset="6.367961e-02" style="stop-color:#151627"/>
	<stop  offset="0.9875" style="stop-color:#0B0C16"/>
</radialGradient>
<rect x="-0.2" y="0" class="st0" width="1024.3" height="768"/>
<g>
	<defs>
		<rect id="SVGID_2_" x="-0.1" y="-0.1" width="1024.1" height="768.1"/>
	</defs>
	<clipPath id="SVGID_3_">
		<use xlink:href="#SVGID_2_"  style="overflow:visible;"/>
	</clipPath>
	<g class="st1">
		<g>
			<path class="st2" d="M309.7,815.6c-27.2,9.2-56.8-5.5-66-32.7c-9.2-27.2,5.5-56.8,32.7-66c27.2-9.2,56.8,5.5,66,32.7
				C351.6,776.8,336.9,806.4,309.7,815.6z M277.5,720.1c-25.4,8.6-39.1,36.3-30.5,61.7c8.6,25.4,36.3,39.1,61.7,30.6
				c25.4-8.6,39.1-36.3,30.6-61.7C330.6,725.2,302.9,711.6,277.5,720.1z"/>
		</g>
		<g>
			<path class="st2" d="M307,807.5c-22.8,7.7-47.5-4.6-55.2-27.3c-7.7-22.7,4.6-47.5,27.3-55.2c22.7-7.7,47.5,4.6,55.2,27.3
				C342,775.1,329.7,799.8,307,807.5z M280.2,728.2c-21,7.1-32.3,29.9-25.2,50.9c7.1,21,29.9,32.3,50.9,25.2
				c21-7.1,32.3-29.9,25.2-50.9C324,732.4,301.2,721.1,280.2,728.2z"/>
		</g>
		<g>
			<path class="st2" d="M317.2,779.5L317.2,779.5c-2.8,0.8-5.6-0.6-6.4-3.3c-3.4-11.3-7.8-20.3-10.3-23.9
				c-0.7,4.1-0.7,14.1,1.4,26.1c0.4,2.5-1.1,5-3.7,5.7c-2.6,0.6-5.2-0.9-5.9-3.4c-2.8-9.1-6.5-17.2-9-21.3
				c-0.4,5.3,0.3,15.4,2.3,26.2c0.4,2.4-1,4.8-3.3,5.6l-0.3,0.1c-2.6,0.7-5.2-0.7-6.1-3.2l-9.6-28.3c-0.9-2.6,0.5-5.4,3.1-6.3
				c1.6-0.6,3.4-0.2,4.6,0.8c1-3.6,2.7-5.9,5.2-6.9l0.3-0.1c1.3-0.4,3.3-0.7,5.6,0.4c1.7,0.8,3.4,2.4,5.2,4.8
				c0.9-6.2,3.2-10,6.8-11.2l0.2-0.1c8.7-2.5,14.5,10.7,17,16.4c3.2,7.4,5.5,14.9,5.8,15.7C321.1,775.9,319.7,778.6,317.2,779.5z"/>
		</g>
	</g>
	<g transform="translate(0,-952.36218)" class="st1">
		<path class="st2" d="M451.9,1657.5l-50,43.2l43.2,50l50-43.2L451.9,1657.5z M423.5,1693.5c3.3-0.6,6.4,1.5,7,4.8
			c0.6,3.3-1.5,6.4-4.8,7c-3.3,0.6-6.4-1.5-7-4.8C418.1,1697.3,420.2,1694.1,423.5,1693.5z M446.8,1695.2c3.3-0.6,6.4,1.5,7,4.8
			c0.6,3.3-1.5,6.4-4.8,7c-3.3,0.6-6.4-1.5-7-4.8C441.4,1699,443.5,1695.8,446.8,1695.2z M470.1,1696.9c3.3-0.6,6.4,1.5,7,4.8
			c0.6,3.3-1.5,6.4-4.8,7c-3.3,0.6-6.4-1.5-7-4.8C464.7,1700.7,466.8,1697.5,470.1,1696.9z M493,1695.9l6.6,7.7
			c2.2,2.5,1.9,6.3-0.6,8.5c0,0,0,0,0,0l-26.5,22.9c1.3,0.9,2.2,2.2,2.5,3.9c0.6,3.3-1.5,6.4-4.8,7c-2.8,0.5-5.4-0.9-6.5-3.4
			l-10.7,9.3l57.4,20.1l21.9-62.4L493,1695.9z M510.1,1713.8c3.3-0.6,6.4,1.5,7,4.8c0.6,3.3-1.5,6.4-4.8,7c-3.3,0.6-6.4-1.5-7-4.8
			C504.7,1717.6,506.8,1714.5,510.1,1713.8z M499.1,1745c3.3-0.6,6.4,1.5,7,4.8c0.6,3.3-1.5,6.4-4.8,7c-3.3,0.6-6.4-1.5-7-4.8
			C493.7,1748.8,495.9,1745.6,499.1,1745z"/>
	</g>
	<polygon class="st3" points="627.1,809.2 587.9,753.9 627.1,698.5 666.2,753.9 	"/>
	<polygon class="st3" points="1039.4,13.7 1050.6,46.3 1083.7,55.6 1056.2,76.3 1057.6,110.7 1029.4,90.9 997.1,102.8 1007.2,69.9 
		985.9,42.9 1020.3,42.4 	"/>
	<g class="st1">
		<g>
			<path class="st2" d="M309.7,41c-27.2,9.2-56.8-5.5-66-32.7c-9.2-27.2,5.5-56.8,32.7-66c27.2-9.2,56.8,5.5,66,32.7
				C351.6,2.2,336.9,31.8,309.7,41z M277.5-54.5c-25.4,8.6-39.1,36.3-30.5,61.7c8.6,25.4,36.3,39.1,61.7,30.6
				c25.4-8.6,39.1-36.3,30.6-61.7C330.6-49.4,302.9-63.1,277.5-54.5z"/>
		</g>
		<g>
			<path class="st2" d="M307,32.9c-22.8,7.7-47.5-4.6-55.2-27.3c-7.7-22.7,4.6-47.5,27.3-55.2c22.7-7.7,47.5,4.6,55.2,27.3
				C342,0.4,329.7,25.2,307,32.9z M280.2-46.4c-21,7.1-32.3,29.9-25.2,50.9c7.1,21,29.9,32.3,50.9,25.2c21-7.1,32.3-29.9,25.2-50.9
				C324-42.2,301.2-53.5,280.2-46.4z"/>
		</g>
		<g>
			<path class="st2" d="M317.2,4.8L317.2,4.8c-2.8,0.8-5.6-0.6-6.4-3.3c-3.4-11.3-7.8-20.3-10.3-23.9c-0.7,4.1-0.7,14.1,1.4,26.1
				c0.4,2.5-1.1,5-3.7,5.7c-2.6,0.6-5.2-0.9-5.9-3.4c-2.8-9.1-6.5-17.2-9-21.3c-0.4,5.3,0.3,15.4,2.3,26.2c0.4,2.4-1,4.8-3.3,5.6
				l-0.3,0.1c-2.6,0.7-5.2-0.7-6.1-3.2l-9.6-28.3c-0.9-2.6,0.5-5.4,3.1-6.3c1.6-0.6,3.4-0.2,4.6,0.8c1-3.6,2.7-5.9,5.2-6.9l0.3-0.1
				c1.3-0.4,3.3-0.7,5.6,0.4c1.7,0.8,3.4,2.4,5.2,4.8c0.9-6.2,3.2-10,6.8-11.2l0.2-0.1c8.7-2.5,14.5,10.7,17,16.4
				c3.2,7.4,5.5,14.9,5.8,15.7C321.1,1.3,319.7,4,317.2,4.8z"/>
		</g>
	</g>
	<g transform="translate(0,-952.36218)" class="st1">
		<path class="st2" d="M451.9,882.8l-50,43.2l43.2,50l50-43.2L451.9,882.8z M423.5,918.8c3.3-0.6,6.4,1.5,7,4.8
			c0.6,3.3-1.5,6.4-4.8,7c-3.3,0.6-6.4-1.5-7-4.8C418.1,922.6,420.2,919.5,423.5,918.8z M446.8,920.5c3.3-0.6,6.4,1.5,7,4.8
			c0.6,3.3-1.5,6.4-4.8,7c-3.3,0.6-6.4-1.5-7-4.8C441.4,924.3,443.5,921.2,446.8,920.5z M470.1,922.3c3.3-0.6,6.4,1.5,7,4.8
			c0.6,3.3-1.5,6.4-4.8,7c-3.3,0.6-6.4-1.5-7-4.8C464.7,926,466.8,922.9,470.1,922.3z M493,921.2l6.6,7.7c2.2,2.5,1.9,6.3-0.6,8.5
			c0,0,0,0,0,0l-26.5,22.9c1.3,0.9,2.2,2.2,2.5,3.9c0.6,3.3-1.5,6.4-4.8,7c-2.8,0.5-5.4-0.9-6.5-3.4l-10.7,9.3l57.4,20.1l21.9-62.4
			L493,921.2z M510.1,939.2c3.3-0.6,6.4,1.5,7,4.8c0.6,3.3-1.5,6.4-4.8,7c-3.3,0.6-6.4-1.5-7-4.8C504.7,943,506.8,939.8,510.1,939.2
			z M499.1,970.4c3.3-0.6,6.4,1.5,7,4.8c0.6,3.3-1.5,6.4-4.8,7c-3.3,0.6-6.4-1.5-7-4.8C493.7,974.1,495.9,971,499.1,970.4z"/>
	</g>
	<polygon class="st3" points="627.1,34.6 587.9,-20.8 627.1,-76.2 666.2,-20.8 	"/>
	<g class="st1">
		<g>
			<path class="st2" d="M483,350.5c-29.6,10-61.9-6-71.9-35.6c-10-29.6,6-61.9,35.6-71.9c29.6-10,61.9,6,71.9,35.6
				C528.6,308.3,512.6,340.5,483,350.5z M447.9,246.5c-27.7,9.4-42.7,39.5-33.3,67.2c9.4,27.7,39.5,42.6,67.2,33.3
				c27.7-9.4,42.6-39.5,33.3-67.2C505.7,252.1,475.6,237.1,447.9,246.5z"/>
		</g>
		<g>
			<path class="st2" d="M480,341.7c-24.8,8.4-51.8-5-60.1-29.8c-8.4-24.8,5-51.8,29.8-60.1c24.8-8.4,51.8,5,60.1,29.8
				C518.2,306.4,504.8,333.3,480,341.7z M450.8,255.3c-22.9,7.7-35.2,32.6-27.5,55.5c7.7,22.8,32.6,35.2,55.5,27.5
				c22.9-7.7,35.2-32.6,27.5-55.4C498.6,259.9,473.7,247.6,450.8,255.3z"/>
		</g>
		<g>
			<path class="st2" d="M491.1,311.2l-0.1,0c-2.9,0.9-6-0.7-6.8-3.6c-3.7-12.3-8.5-22.2-11.2-26c-0.8,4.5-0.7,15.4,1.5,28.5
				c0.5,2.8-1.2,5.5-4,6.2c-2.8,0.7-5.6-0.9-6.5-3.7c-3.1-9.9-7-18.7-9.8-23.2c-0.4,5.8,0.4,16.8,2.5,28.5c0.5,2.6-1.1,5.3-3.6,6.1
				l-0.3,0.1c-2.8,0.7-5.7-0.8-6.6-3.5l-10.4-30.9c-1-2.8,0.6-5.9,3.4-6.9c1.8-0.6,3.7-0.2,5.1,0.9c1.1-3.9,3-6.5,5.6-7.5l0.4-0.1
				c1.4-0.5,3.6-0.8,6.2,0.4c1.9,0.9,3.7,2.6,5.6,5.3c1-6.8,3.5-10.9,7.4-12.2l0.3-0.1c9.5-2.8,15.8,11.7,18.5,17.8
				c3.5,8.1,6,16.2,6.3,17.1C495.4,307.3,493.9,310.2,491.1,311.2z"/>
		</g>
	</g>
	<g class="st1">
		<g>
			<path class="st2" d="M207.5,546.2c-25.9,8.8-54.1-5.2-62.9-31.1c-8.8-25.9,5.2-54.1,31.1-62.9c25.9-8.8,54.1,5.2,62.9,31.1
				C247.4,509.2,233.4,537.4,207.5,546.2z M176.8,455.2c-24.2,8.2-37.3,34.6-29.1,58.8c8.2,24.2,34.6,37.3,58.8,29.1
				c24.2-8.2,37.3-34.6,29.1-58.8C227.4,460,201,447,176.8,455.2z"/>
		</g>
		<g>
			<path class="st2" d="M204.9,538.5c-21.7,7.3-45.3-4.4-52.6-26c-7.3-21.7,4.4-45.3,26-52.6c21.7-7.3,45.3,4.4,52.6,26
				C238.2,507.5,226.6,531.1,204.9,538.5z M179.4,462.9c-20,6.8-30.8,28.5-24,48.5c6.7,20,28.5,30.8,48.5,24
				c20-6.8,30.8-28.5,24-48.5C221.1,466.9,199.4,456.1,179.4,462.9z"/>
		</g>
		<g>
			<path class="st2" d="M214.6,511.7L214.6,511.7c-2.6,0.8-5.3-0.6-6.1-3.1c-3.3-10.7-7.4-19.4-9.8-22.7c-0.7,4-0.6,13.4,1.3,24.9
				c0.4,2.4-1.1,4.8-3.5,5.4c-2.4,0.6-4.9-0.8-5.7-3.2c-2.7-8.6-6.1-16.4-8.6-20.3c-0.3,5,0.3,14.7,2.2,24.9
				c0.4,2.3-0.9,4.6-3.1,5.4l-0.2,0.1c-2.5,0.6-5-0.7-5.8-3l-9.1-27c-0.8-2.5,0.5-5.2,3-6c1.6-0.5,3.2-0.2,4.4,0.8
				c1-3.4,2.6-5.6,4.9-6.6l0.3-0.1c1.2-0.4,3.1-0.7,5.4,0.4c1.6,0.8,3.3,2.3,4.9,4.6c0.9-5.9,3-9.5,6.5-10.7l0.2-0.1
				c8.3-2.4,13.8,10.2,16.2,15.6c3.1,7.1,5.3,14.2,5.5,14.9C218.4,508.3,217.1,510.9,214.6,511.7z"/>
		</g>
	</g>
	<g class="st1">
		<g>
			<path class="st2" d="M773.2,165.9c-28.6,9.7-59.8-5.8-69.4-34.4c-9.7-28.6,5.8-59.8,34.4-69.4c28.6-9.7,59.8,5.8,69.4,34.4
				C817.2,125.1,801.8,156.2,773.2,165.9z M739.3,65.5c-26.8,9-41.2,38.1-32.1,64.9c9,26.7,38.1,41.2,64.9,32.1
				c26.7-9,41.2-38.2,32.1-64.9C795.1,70.8,766,56.4,739.3,65.5z"/>
		</g>
		<g>
			<path class="st2" d="M770.3,157.4c-23.9,8.1-50-4.8-58-28.7c-8.1-23.9,4.8-50,28.7-58c23.9-8.1,50,4.8,58,28.7
				C807.1,123.3,794.2,149.3,770.3,157.4z M742.1,74c-22.1,7.5-34,31.5-26.5,53.5c7.4,22.1,31.5,34,53.5,26.5
				c22.1-7.5,34-31.5,26.5-53.5C788.2,78.4,764.2,66.5,742.1,74z"/>
		</g>
		<g>
			<path class="st2" d="M781,127.9l-0.1,0c-2.8,0.8-5.7-0.7-6.6-3.5c-3.6-11.8-8.2-21.4-10.8-25.1c-0.7,4.4-0.7,14.8,1.5,27.5
				c0.5,2.7-1.2,5.3-3.9,6c-2.7,0.6-5.4-0.9-6.2-3.5c-3-9.5-6.8-18.1-9.4-22.4c-0.4,5.6,0.3,16.2,2.4,27.5c0.5,2.5-1,5.1-3.5,5.9
				l-0.3,0.1c-2.7,0.7-5.5-0.8-6.4-3.4l-10.1-29.8c-0.9-2.7,0.6-5.7,3.3-6.6c1.7-0.6,3.5-0.2,4.9,0.8c1.1-3.8,2.9-6.2,5.4-7.2
				l0.3-0.1c1.4-0.5,3.5-0.8,5.9,0.4c1.8,0.9,3.6,2.5,5.4,5.1c1-6.5,3.4-10.5,7.1-11.8l0.2-0.1c9.2-2.7,15.3,11.3,17.9,17.2
				c3.4,7.8,5.8,15.6,6.1,16.5C785.2,124.1,783.7,127,781,127.9z"/>
		</g>
	</g>
	<g class="st1">
		<g>
			<path class="st2" d="M228.5,266.5c-28.2,9.5-58.9-5.7-68.4-33.9c-9.5-28.2,5.7-58.9,33.9-68.4c28.2-9.5,58.9,5.7,68.4,33.9
				C271.9,226.3,256.7,257,228.5,266.5z M195.1,167.5c-26.4,8.9-40.6,37.6-31.7,64c8.9,26.4,37.6,40.6,64,31.7
				c26.4-8.9,40.6-37.6,31.7-64C250.1,172.8,221.4,158.6,195.1,167.5z"/>
		</g>
		<g>
			<path class="st2" d="M225.7,258.1c-23.6,8-49.2-4.7-57.2-28.3c-8-23.6,4.7-49.2,28.3-57.2c23.6-8,49.2,4.8,57.2,28.3
				C261.9,224.5,249.2,250.2,225.7,258.1z M197.9,175.9c-21.7,7.3-33.5,31-26.1,52.8c7.3,21.7,31,33.5,52.8,26.1
				c21.7-7.3,33.5-31,26.1-52.8C243.3,180.3,219.6,168.6,197.9,175.9z"/>
		</g>
		<g>
			<path class="st2" d="M236.2,229.1L236.2,229.1c-2.9,0.9-5.8-0.7-6.6-3.4c-3.6-11.7-8.1-21.1-10.7-24.7
				c-0.7,4.3-0.7,14.6,1.4,27.1c0.5,2.6-1.2,5.2-3.8,5.9c-2.7,0.6-5.3-0.9-6.2-3.5c-3-9.4-6.7-17.8-9.3-22.1
				c-0.4,5.5,0.3,15.9,2.4,27.1c0.5,2.5-1,5-3.4,5.8l-0.3,0.1c-2.7,0.7-5.4-0.8-6.3-3.3l-9.9-29.4c-0.9-2.7,0.5-5.6,3.2-6.5
				c1.7-0.6,3.5-0.2,4.8,0.8c1-3.8,2.8-6.1,5.4-7.1l0.3-0.1c1.3-0.5,3.4-0.8,5.9,0.4c1.8,0.8,3.5,2.5,5.4,5c0.9-6.4,3.3-10.3,7-11.6
				l0.2-0.1c9.1-2.6,15.1,11.1,17.6,17c3.4,7.7,5.7,15.4,6,16.3C240.3,225.4,238.9,228.2,236.2,229.1z"/>
		</g>
	</g>
	<g class="st1">
		<g>
			<path class="st2" d="M309.7,815.3c-27.2,9.2-56.8-5.5-66-32.7c-9.2-27.2,5.5-56.8,32.7-66c27.2-9.2,56.8,5.5,66,32.7
				C351.6,776.5,336.9,806.1,309.7,815.3z M277.5,719.8c-25.4,8.6-39.1,36.3-30.5,61.7c8.6,25.4,36.3,39.1,61.7,30.6
				c25.4-8.6,39.1-36.3,30.6-61.7C330.6,724.9,302.9,711.2,277.5,719.8z"/>
		</g>
		<g>
			<path class="st2" d="M307,807.2c-22.8,7.7-47.5-4.6-55.2-27.3c-7.7-22.7,4.6-47.5,27.3-55.2c22.7-7.7,47.5,4.6,55.2,27.3
				C342,774.8,329.7,799.5,307,807.2z M280.2,727.9c-21,7.1-32.3,29.9-25.2,50.9c7.1,21,29.9,32.3,50.9,25.2
				c21-7.1,32.3-29.9,25.2-50.9C324,732.1,301.2,720.8,280.2,727.9z"/>
		</g>
		<g>
			<path class="st2" d="M317.2,779.1L317.2,779.1c-2.8,0.8-5.6-0.6-6.4-3.3c-3.4-11.3-7.8-20.3-10.3-23.9
				c-0.7,4.1-0.7,14.1,1.4,26.1c0.4,2.5-1.1,5-3.7,5.7c-2.6,0.6-5.2-0.9-5.9-3.4c-2.8-9.1-6.5-17.2-9-21.3
				c-0.4,5.3,0.3,15.4,2.3,26.2c0.4,2.4-1,4.8-3.3,5.6l-0.3,0.1c-2.6,0.7-5.2-0.7-6.1-3.2l-9.6-28.3c-0.9-2.6,0.5-5.4,3.1-6.3
				c1.6-0.6,3.4-0.2,4.6,0.8c1-3.6,2.7-5.9,5.2-6.9l0.3-0.1c1.3-0.4,3.3-0.7,5.6,0.4c1.7,0.8,3.4,2.4,5.2,4.8
				c0.9-6.2,3.2-10,6.8-11.2l0.2-0.1c8.7-2.5,14.5,10.7,17,16.4c3.2,7.4,5.5,14.9,5.8,15.7C321.1,775.6,319.7,778.3,317.2,779.1z"/>
		</g>
	</g>
	<g class="st1">
		<g>
			<path class="st2" d="M704.7,453.9c-29.9-4.5-50.6-32.6-46.1-62.5c4.5-29.9,32.5-50.6,62.5-46c29.9,4.5,50.6,32.5,46,62.5
				C762.6,437.8,734.6,458.4,704.7,453.9z M720.6,348.9c-28-4.2-54.2,15.1-58.4,43.1c-4.2,28,15.1,54.2,43.1,58.4
				c28,4.2,54.2-15.1,58.4-43.1C767.9,379.3,748.5,353.1,720.6,348.9z"/>
		</g>
		<g>
			<path class="st2" d="M706,445c-25-3.8-42.3-27.2-38.5-52.2c3.8-25,27.2-42.3,52.2-38.5c25,3.8,42.3,27.2,38.5,52.2
				C754.5,431.5,731,448.8,706,445z M719.2,357.8c-23.1-3.5-44.7,12.4-48.2,35.5c-3.5,23.1,12.4,44.7,35.5,48.2
				c23.1,3.5,44.7-12.4,48.2-35.5C758.2,382.9,742.3,361.3,719.2,357.8z"/>
		</g>
		<g>
			<path class="st2" d="M729.1,423.7l-0.1,0c-2.9-0.5-4.8-3.3-4.3-6.1c2.2-12.2,2.5-22.8,1.9-27.3c-2.6,3.6-7.4,12.9-11.3,25.1
				c-0.8,2.6-3.5,4.1-6.2,3.5c-2.7-0.7-4.4-3.3-3.9-6c1.7-9.9,2.2-19.2,1.9-24.3c-2.9,4.8-7.1,14.6-10.5,25.6
				c-0.7,2.5-3.2,4.1-5.8,3.7l-0.3-0.1c-2.8-0.6-4.5-3.2-4.1-5.9l4.7-31.2c0.4-2.9,3.1-4.8,6-4.4c1.8,0.3,3.3,1.4,4,3
				c2.7-2.9,5.4-4.2,8.2-4l0.4,0.1c1.4,0.2,3.4,0.9,5.1,3.1c1.2,1.6,2,3.9,2.5,7c3.9-5.4,7.8-7.8,11.8-7.2l0.2,0.1
				c9.4,1.8,8.4,17,8,23.5c-0.5,8.5-2,16.6-2.2,17.5C734.5,422.2,731.9,424.1,729.1,423.7z"/>
		</g>
	</g>
	<g class="st1">
		<g>
			<path class="st2" d="M942.1,716.5c-32,3.7-61-19.3-64.7-51.2c-3.7-32,19.3-61,51.2-64.7c32-3.7,61,19.3,64.7,51.2
				C997,683.7,974.1,712.7,942.1,716.5z M929,604.3c-29.9,3.5-51.4,30.6-47.9,60.5c3.5,29.9,30.6,51.4,60.5,47.9
				c29.9-3.5,51.4-30.6,47.9-60.5C986.1,622.3,958.9,600.8,929,604.3z"/>
		</g>
		<g>
			<path class="st2" d="M941,707c-26.7,3.1-51-16.1-54.1-42.8c-3.1-26.7,16.1-51,42.8-54.1c26.7-3.1,51,16.1,54.1,42.8
				C986.9,679.6,967.7,703.9,941,707z M930.1,613.8c-24.7,2.9-42.4,25.3-39.5,49.9c2.9,24.6,25.3,42.4,49.9,39.5
				c24.7-2.9,42.4-25.3,39.5-49.9C977.2,628.6,954.8,610.9,930.1,613.8z"/>
		</g>
		<g>
			<path class="st2" d="M958.7,678.6l-0.1,0c-3.1,0.3-5.8-2-6.1-5.1c-1.1-13.2-3.8-24.1-5.7-28.6c-1.7,4.4-4,15.3-4.6,29
				c-0.1,2.9-2.4,5.2-5.4,5.3c-2.9,0.1-5.5-2.1-5.7-5.1c-1-10.6-3.1-20.3-4.9-25.5c-1.6,5.7-3.2,16.9-3.6,29.2
				c-0.1,2.8-2.2,5.1-4.9,5.4l-0.3,0c-3,0.1-5.6-2-5.9-4.9l-3.9-33.3c-0.4-3.1,1.8-5.8,4.9-6.2c1.9-0.2,3.7,0.6,4.9,2
				c1.9-3.7,4.4-5.9,7.3-6.3l0.4,0c1.5-0.2,3.8,0,6.1,1.8c1.7,1.3,3.2,3.4,4.5,6.5c2.5-6.6,5.8-10.2,10.1-10.7l0.3,0
				c10.2-0.7,13.4,15.1,14.8,21.9c1.8,8.9,2.6,17.6,2.7,18.5C963.9,675.6,961.7,678.2,958.7,678.6z"/>
		</g>
	</g>
	<g class="st1">
		<g>
			<path class="st2" d="M542.8,680.4c-26.8-5.4-44.3-31.6-38.9-58.4c5.4-26.8,31.6-44.3,58.4-38.9c26.8,5.4,44.3,31.6,38.9,58.4
				C595.8,668.3,569.6,685.8,542.8,680.4z M561.6,586.2c-25.1-5-49.6,11.3-54.6,36.4c-5,25.1,11.3,49.6,36.4,54.6
				c25.1,5,49.6-11.3,54.6-36.4C603,615.7,586.7,591.2,561.6,586.2z"/>
		</g>
		<g>
			<path class="st2" d="M544.4,672.4c-22.4-4.5-37-26.4-32.6-48.8c4.5-22.4,26.4-37.1,48.8-32.6c22.4,4.5,37,26.4,32.6,48.8
				C588.7,662.3,566.8,676.9,544.4,672.4z M560,594.2c-20.7-4.1-40.9,9.3-45,30c-4.1,20.7,9.3,40.9,30,45c20.7,4.1,40.9-9.3,45-30
				C594.2,618.5,580.7,598.3,560,594.2z"/>
		</g>
		<g>
			<path class="st2" d="M566.2,654.1L566.2,654.1c-2.7-0.6-4.3-3.2-3.7-5.7c2.5-10.9,3.3-20.5,2.9-24.6c-2.5,3.1-7.3,11.3-11.3,22.2
				c-0.8,2.3-3.3,3.6-5.8,2.9c-2.4-0.7-3.9-3.2-3.3-5.6c2-8.8,2.8-17.2,2.7-21.9c-2.8,4.2-7.1,12.9-10.5,22.7
				c-0.8,2.2-3.1,3.5-5.4,3.1l-0.2-0.1c-2.5-0.7-4-3.1-3.5-5.5l5.6-28c0.5-2.6,3-4.2,5.6-3.7c1.6,0.3,2.9,1.4,3.5,2.9
				c2.5-2.5,5.1-3.6,7.6-3.2l0.3,0.1c1.3,0.3,3.1,1,4.5,3c1,1.5,1.7,3.6,2,6.5c3.7-4.7,7.4-6.7,10.9-6l0.2,0.1
				c8.4,2.1,6.9,15.8,6.3,21.6c-0.9,7.7-2.5,14.9-2.7,15.7C571.1,653.1,568.7,654.6,566.2,654.1z"/>
		</g>
	</g>
	<polygon class="st3" points="614,80 623.5,107.8 651.7,115.7 628.3,133.3 629.5,162.7 605.5,145.8 577.9,156 586.6,127.9 
		568.4,104.9 597.7,104.5 	"/>
	<polygon class="st3" points="561.2,364.2 570,390 596.3,397.4 574.5,413.7 575.6,441 553.3,425.3 527.7,434.8 535.7,408.7 
		518.8,387.3 546.1,386.9 	"/>
	<polygon class="st3" points="342.7,485.3 352.2,513 380.4,521 356.9,538.6 358.1,567.9 334.1,551 306.6,561.2 315.3,533.2 
		297.1,510.1 326.4,509.7 	"/>
	<polygon class="st3" points="840.8,262.8 850.3,290.5 878.5,298.5 855,316.1 856.2,345.4 832.2,328.5 804.7,338.7 813.4,310.7 
		795.2,287.6 824.5,287.2 	"/>
	<polygon class="st3" points="805.9,513.5 816.8,545.6 849.5,554.7 822.4,575.1 823.7,609 796,589.5 764.1,601.3 774.1,568.8 
		753.1,542.2 787,541.7 	"/>
	<polygon class="st3" points="342.5,230.4 352,258.2 380.3,266.1 356.8,283.7 358,313.1 334,296.2 306.5,306.4 315.1,278.3 
		296.9,255.3 326.2,254.8 	"/>
	<polygon class="st3" points="100.9,332.7 112.3,366.2 146.3,375.7 118.1,396.9 119.5,432.3 90.6,411.9 57.4,424.2 67.8,390.4 
		45.9,362.7 81.3,362.2 	"/>
	<g transform="translate(0,-952.36218)" class="st1">
		<path class="st2" d="M595.4,1172.8l-44.5,25.8l25.8,44.5l44.5-25.8L595.4,1172.8z M568.5,1196.2c2.6,0,4.7,2.1,4.7,4.7
			c0,2.6-2.1,4.7-4.7,4.7c-2.6,0-4.7-2.1-4.7-4.7C563.8,1198.3,565.9,1196.2,568.5,1196.2z M586,1200.9c2.6,0,4.7,2.1,4.7,4.7
			c0,2.6-2.1,4.7-4.7,4.7s-4.7-2.1-4.7-4.7C581.3,1203,583.4,1200.9,586,1200.9z M603.6,1205.6c2.6,0,4.7,2.1,4.7,4.7
			s-2.1,4.7-4.7,4.7c-2.6,0-4.7-2.1-4.7-4.7S601,1205.6,603.6,1205.6z M621.3,1208.1l4,6.8c1.3,2.2,0.5,5.1-1.7,6.4c0,0,0,0,0,0
			l-23.6,13.7c0.8,0.8,1.4,2,1.4,3.3c0,2.6-2.1,4.7-4.7,4.7c-2.2,0-4-1.5-4.5-3.5l-9.6,5.6l41,23.7l25.8-44.5L621.3,1208.1z
			 M631.7,1224.3c2.6,0,4.7,2.1,4.7,4.7c0,2.6-2.1,4.7-4.7,4.7c-2.6,0-4.7-2.1-4.7-4.7C627,1226.4,629.1,1224.3,631.7,1224.3z
			 M618.8,1246.6c2.6,0,4.7,2.1,4.7,4.7c0,2.6-2.1,4.7-4.7,4.7s-4.7-2.1-4.7-4.7C614.1,1248.7,616.2,1246.6,618.8,1246.6z"/>
	</g>
	<g transform="translate(0,-952.36218)" class="st1">
		<path class="st2" d="M883.6,1364.8l-49.6,28.7l28.7,49.6l49.6-28.7L883.6,1364.8z M853.6,1390.9c2.9,0,5.2,2.3,5.2,5.2
			c0,2.9-2.3,5.2-5.2,5.2c-2.9,0-5.2-2.3-5.2-5.2C848.3,1393.2,850.7,1390.9,853.6,1390.9z M873.2,1396.1c2.9,0,5.2,2.3,5.2,5.2
			c0,2.9-2.3,5.2-5.2,5.2c-2.9,0-5.2-2.3-5.2-5.2C867.9,1398.5,870.3,1396.1,873.2,1396.1z M892.8,1401.3c2.9,0,5.2,2.3,5.2,5.2
			c0,2.9-2.3,5.2-5.2,5.2c-2.9,0-5.2-2.3-5.2-5.2C887.5,1403.7,889.9,1401.3,892.8,1401.3z M912.5,1404.2l4.4,7.6
			c1.4,2.5,0.6,5.7-1.9,7.1c0,0,0,0,0,0l-26.3,15.3c0.9,0.9,1.5,2.3,1.5,3.7c0,2.9-2.3,5.2-5.2,5.2c-2.4,0-4.4-1.7-5-3.9l-10.7,6.2
			l45.7,26.5l28.7-49.6L912.5,1404.2z M924.1,1422.2c2.9,0,5.2,2.3,5.2,5.2c0,2.9-2.3,5.2-5.2,5.2c-2.9,0-5.2-2.3-5.2-5.2
			C918.9,1424.6,921.2,1422.2,924.1,1422.2z M909.7,1447.1c2.9,0,5.2,2.3,5.2,5.2c0,2.9-2.3,5.2-5.2,5.2c-2.9,0-5.2-2.3-5.2-5.2
			C904.5,1449.4,906.8,1447.1,909.7,1447.1z"/>
	</g>
	<g transform="translate(0,-952.36218)" class="st1">
		<path class="st2" d="M775.1,1609.5l-43.1,37.8l37.8,43.1l43.1-37.8L775.1,1609.5z M750.7,1641c2.8-0.6,5.6,1.3,6.1,4.1
			c0.6,2.8-1.3,5.6-4.1,6.1c-2.8,0.6-5.6-1.3-6.1-4.1C746,1644.3,747.9,1641.5,750.7,1641z M770.9,1642.3c2.8-0.6,5.6,1.3,6.1,4.1
			c0.6,2.8-1.3,5.6-4.1,6.1c-2.8,0.6-5.6-1.3-6.1-4.1C766.2,1645.6,768.1,1642.9,770.9,1642.3z M791.2,1643.6
			c2.8-0.6,5.6,1.3,6.1,4.1c0.6,2.8-1.3,5.6-4.1,6.1c-2.8,0.6-5.6-1.3-6.1-4.1C786.5,1647,788.3,1644.2,791.2,1643.6z M811,1642.6
			l5.8,6.6c1.9,2.2,1.7,5.5-0.5,7.4c0,0,0,0,0,0l-22.9,20.1c1.1,0.7,1.9,1.9,2.2,3.4c0.6,2.8-1.3,5.6-4.1,6.1
			c-2.4,0.5-4.7-0.8-5.7-2.9l-9.3,8.2l50,17.1l18.6-54.3L811,1642.6z M826,1658.1c2.8-0.6,5.6,1.3,6.1,4.1c0.6,2.8-1.3,5.6-4.1,6.1
			s-5.6-1.3-6.1-4.1C821.3,1661.4,823.1,1658.6,826,1658.1z M816.7,1685.2c2.8-0.6,5.6,1.3,6.1,4.1c0.6,2.8-1.3,5.6-4.1,6.1
			c-2.8,0.6-5.6-1.3-6.1-4.1C812,1688.5,813.8,1685.8,816.7,1685.2z"/>
	</g>
	<g transform="translate(0,-952.36218)" class="st1">
		<path class="st2" d="M901.7,1099.3l-50.3,29.1l29.1,50.3l50.3-29.1L901.7,1099.3z M871.3,1125.8c2.9,0,5.3,2.4,5.3,5.3
			c0,2.9-2.4,5.3-5.3,5.3c-2.9,0-5.3-2.4-5.3-5.3C866,1128.1,868.3,1125.8,871.3,1125.8z M891.1,1131.1c2.9,0,5.3,2.4,5.3,5.3
			c0,2.9-2.4,5.3-5.3,5.3s-5.3-2.4-5.3-5.3C885.8,1133.4,888.2,1131.1,891.1,1131.1z M911,1136.4c2.9,0,5.3,2.4,5.3,5.3
			s-2.4,5.3-5.3,5.3s-5.3-2.4-5.3-5.3S908.1,1136.4,911,1136.4z M931,1139.2l4.5,7.7c1.5,2.5,0.6,5.8-1.9,7.2c0,0,0,0,0,0
			l-26.7,15.5c1,1,1.5,2.3,1.5,3.8c0,2.9-2.4,5.3-5.3,5.3c-2.5,0-4.5-1.7-5.1-4l-10.8,6.3l46.4,26.8l29.1-50.3L931,1139.2z
			 M942.8,1157.6c2.9,0,5.3,2.4,5.3,5.3s-2.4,5.3-5.3,5.3s-5.3-2.4-5.3-5.3S939.8,1157.6,942.8,1157.6z M928.2,1182.7
			c2.9,0,5.3,2.4,5.3,5.3s-2.4,5.3-5.3,5.3s-5.3-2.4-5.3-5.3S925.3,1182.7,928.2,1182.7z"/>
	</g>
	<g transform="translate(0,-952.36218)" class="st1">
		<path class="st2" d="M209,1532.1l-48.5,28.1l28.1,48.5l48.5-28.1L209,1532.1z M179.7,1557.7c2.8,0,5.1,2.3,5.1,5.1
			c0,2.8-2.3,5.1-5.1,5.1c-2.8,0-5.1-2.3-5.1-5.1C174.6,1560,176.9,1557.7,179.7,1557.7z M198.8,1562.8c2.8,0,5.1,2.3,5.1,5.1
			c0,2.8-2.3,5.1-5.1,5.1c-2.8,0-5.1-2.3-5.1-5.1C193.7,1565.1,196,1562.8,198.8,1562.8z M218,1567.9c2.8,0,5.1,2.3,5.1,5.1
			c0,2.8-2.3,5.1-5.1,5.1c-2.8,0-5.1-2.3-5.1-5.1C212.9,1570.2,215.2,1567.9,218,1567.9z M237.2,1570.6l4.3,7.5
			c1.4,2.4,0.6,5.6-1.9,7c0,0,0,0,0,0l-25.7,14.9c0.9,0.9,1.5,2.2,1.5,3.6c0,2.8-2.3,5.1-5.1,5.1c-2.4,0-4.3-1.6-4.9-3.8L195,1611
			l44.7,25.8l28.1-48.5L237.2,1570.6z M248.6,1588.3c2.8,0,5.1,2.3,5.1,5.1c0,2.8-2.3,5.1-5.1,5.1c-2.8,0-5.1-2.3-5.1-5.1
			C243.5,1590.6,245.8,1588.3,248.6,1588.3z M234.6,1612.6c2.8,0,5.1,2.3,5.1,5.1c0,2.8-2.3,5.1-5.1,5.1c-2.8,0-5.1-2.3-5.1-5.1
			C229.5,1614.8,231.8,1612.6,234.6,1612.6z"/>
	</g>
	<g transform="translate(0,-952.36218)" class="st1">
		<path class="st2" d="M351.9,1305.6l-44.5,25.8l25.8,44.5l44.5-25.8L351.9,1305.6z M324.9,1329c2.6,0,4.7,2.1,4.7,4.7
			c0,2.6-2.1,4.7-4.7,4.7c-2.6,0-4.7-2.1-4.7-4.7C320.2,1331.1,322.3,1329,324.9,1329z M342.5,1333.7c2.6,0,4.7,2.1,4.7,4.7
			c0,2.6-2.1,4.7-4.7,4.7s-4.7-2.1-4.7-4.7C337.8,1335.8,339.9,1333.7,342.5,1333.7z M360.1,1338.4c2.6,0,4.7,2.1,4.7,4.7
			s-2.1,4.7-4.7,4.7c-2.6,0-4.7-2.1-4.7-4.7S357.5,1338.4,360.1,1338.4z M377.8,1340.9l4,6.8c1.3,2.2,0.5,5.1-1.7,6.4c0,0,0,0,0,0
			l-23.6,13.7c0.8,0.8,1.4,2,1.4,3.3c0,2.6-2.1,4.7-4.7,4.7c-2.2,0-4-1.5-4.5-3.5l-9.6,5.6l41,23.7l25.8-44.5L377.8,1340.9z
			 M388.2,1357.1c2.6,0,4.7,2.1,4.7,4.7c0,2.6-2.1,4.7-4.7,4.7s-4.7-2.1-4.7-4.7C383.5,1359.2,385.6,1357.1,388.2,1357.1z
			 M375.3,1379.4c2.6,0,4.7,2.1,4.7,4.7c0,2.6-2.1,4.7-4.7,4.7s-4.7-2.1-4.7-4.7C370.6,1381.5,372.7,1379.4,375.3,1379.4z"/>
	</g>
	<g transform="translate(0,-952.36218)" class="st1">
		<path class="st2" d="M62.7,1137.8l-48.1,27.8l27.8,48.1l48.1-27.8L62.7,1137.8z M33.6,1163.1c2.8,0,5.1,2.3,5.1,5.1
			s-2.3,5.1-5.1,5.1s-5.1-2.3-5.1-5.1S30.8,1163.1,33.6,1163.1z M52.6,1168.1c2.8,0,5.1,2.3,5.1,5.1c0,2.8-2.3,5.1-5.1,5.1
			s-5.1-2.3-5.1-5.1C47.5,1170.4,49.8,1168.1,52.6,1168.1z M71.6,1173.2c2.8,0,5.1,2.3,5.1,5.1c0,2.8-2.3,5.1-5.1,5.1
			s-5.1-2.3-5.1-5.1C66.5,1175.5,68.8,1173.2,71.6,1173.2z M90.7,1175.9l4.3,7.4c1.4,2.4,0.6,5.5-1.9,6.9c0,0,0,0,0,0L67.6,1205
			c0.9,0.9,1.5,2.2,1.5,3.6c0,2.8-2.3,5.1-5.1,5.1c-2.4,0-4.3-1.6-4.9-3.8l-10.3,6l44.3,25.6l27.8-48.1L90.7,1175.9z M101.9,1193.5
			c2.8,0,5.1,2.3,5.1,5.1s-2.3,5.1-5.1,5.1s-5.1-2.3-5.1-5.1S99.1,1193.5,101.9,1193.5z M88,1217.5c2.8,0,5.1,2.3,5.1,5.1
			c0,2.8-2.3,5.1-5.1,5.1s-5.1-2.3-5.1-5.1C82.9,1219.8,85.2,1217.5,88,1217.5z"/>
	</g>
	<g transform="translate(0,-952.36218)" class="st1">
		<path class="st2" d="M608,1419.9l-34.5,38.1l38.1,34.5l34.5-38.1L608,1419.9z M589.4,1450.4c2.5-0.8,5.1,0.6,5.9,3
			c0.8,2.5-0.6,5.1-3,5.9c-2.5,0.8-5.1-0.6-5.9-3C585.6,1453.9,587,1451.2,589.4,1450.4z M607.6,1449.5c2.5-0.8,5.1,0.6,5.9,3
			s-0.6,5.1-3,5.9s-5.1-0.6-5.9-3C603.8,1453,605.1,1450.3,607.6,1449.5z M625.8,1448.6c2.5-0.8,5.1,0.6,5.9,3
			c0.8,2.5-0.6,5.1-3,5.9s-5.1-0.6-5.9-3C621.9,1452.1,623.3,1449.4,625.8,1448.6z M643.4,1445.7l5.9,5.3c1.9,1.7,2.1,4.7,0.3,6.6
			c0,0,0,0,0,0l-18.3,20.2c1.1,0.5,1.9,1.5,2.3,2.8c0.8,2.5-0.6,5.1-3,5.9c-2.1,0.7-4.2-0.2-5.4-2l-7.4,8.2l46.3,10.1l11-50.3
			L643.4,1445.7z M658.2,1457.9c2.5-0.8,5.1,0.6,5.9,3s-0.6,5.1-3,5.9s-5.1-0.6-5.9-3C654.4,1461.4,655.8,1458.7,658.2,1457.9z
			 M652.8,1483.1c2.5-0.8,5.1,0.6,5.9,3c0.8,2.5-0.6,5.1-3,5.9c-2.5,0.8-5.1-0.6-5.9-3C648.9,1486.5,650.3,1483.8,652.8,1483.1z"/>
	</g>
	<polygon class="st3" points="715.3,292 683.7,247.2 715.3,202.4 747,247.2 	"/>
	<polygon class="st3" points="1012.4,542.2 980.8,497.4 1012.4,452.6 1044.1,497.4 	"/>
	<polygon class="st3" points="245,390.4 200.1,358.8 214.8,306 259.7,337.6 	"/>
	<polygon class="st3" points="477.7,549.4 446,504.6 477.7,459.8 509.3,504.6 	"/>
	<polygon class="st3" points="321.3,172.8 286.3,123.2 321.3,73.6 356.3,123.2 	"/>
	<polygon class="st3" points="111.6,747.8 79.9,703 111.6,658.2 143.2,703 	"/>
	<path class="st3" d="M476.2,124.6c7.3-14.5-2.6-27.4-13.8-29.8s-25.5,5.1-24.9,21.4c-8.2,1.3-15.2,7.4-17,16
		c-3.1,14.1,8.8,26.4,22.3,24.9l-4.3,8.6l16.1,3.5l-0.3-9.6c12.7,7.7,27.9-0.5,30.7-13.4C486.9,137.6,483.1,129.2,476.2,124.6z"/>
	<path class="st3" d="M418.3,639.5c7.3-14.5-2.6-27.4-13.8-29.8c-11.1-2.4-25.5,5.1-24.9,21.4c-8.2,1.3-15.2,7.4-17,16
		c-3.1,14.1,8.8,26.4,22.3,24.9l-4.3,8.6l16.1,3.5l-0.3-9.6c12.7,7.7,27.9-0.5,30.7-13.4C429,652.6,425.2,644.1,418.3,639.5z"/>
	<path class="st3" d="M703.6,622.2c7.5-15-2.7-28.4-14.3-31c-11.6-2.5-26.4,5.3-25.9,22.2c-8.5,1.3-15.7,7.7-17.7,16.6
		c-3.2,14.7,9.1,27.5,23.2,25.9l-4.4,8.9l16.8,3.7l-0.3-10c13.2,8,28.9-0.5,31.8-13.9C714.7,635.7,710.8,626.9,703.6,622.2z"/>
	<path class="st3" d="M846.8,79.8c3.2,14.9,20.7,24.3,35.5,15.4l-0.3,11.1l18.7-4.1l-4.9-10c15.6,1.8,29.4-12.5,25.8-28.8
		c-2.2-9.9-10.2-17-19.7-18.5c0.6-18.8-15.9-27.5-28.8-24.7S848.6,38.1,857,54.8C849,60.1,844.6,69.9,846.8,79.8z"/>
	<path class="st3" d="M152.4,63.5c-2.2-19.4-20.7-25.9-33.6-21s-22.3,22-11,38c-7.4,6.7-10.4,17.4-6.6,27.3
		c6.2,16.3,26.3,20.9,38.9,10.4l1.4,11.5l18.6-7.1l-6.6-9.5c17.9-0.7,27.8-18.9,22.1-33.7C171.8,69.5,162.4,63.5,152.4,63.5z"/>
	<path class="st3" d="M982.3,319.6c-2.1-18.1-19.3-24.2-31.3-19.6c-12,4.6-20.8,20.5-10.3,35.5c-6.9,6.2-9.7,16.3-6.2,25.5
		c5.8,15.2,24.5,19.4,36.3,9.7l1.3,10.7l17.3-6.6l-6.2-8.9c16.7-0.6,25.9-17.6,20.6-31.4C1000.4,325.3,991.6,319.7,982.3,319.6z"/>
	<path class="st3" d="M74.9,569.5c-2.1-18.5-19.8-24.8-32.1-20.1c-12.3,4.7-21.3,21-10.5,36.4c-7.1,6.4-10,16.7-6.4,26.1
		c5.9,15.6,25.2,19.9,37.2,9.9l1.3,11l17.8-6.8l-6.3-9.1c17.1-0.6,26.6-18.1,21.1-32.2C93.5,575.3,84.5,569.6,74.9,569.5z"/>
	<polygon class="st3" points="7.4,13.7 18.5,46.3 51.7,55.6 24.1,76.3 25.5,110.7 -2.7,90.9 -35,102.8 -24.8,69.9 -46.2,42.9 
		-11.7,42.4 	"/>
	<polygon class="st3" points="-19.6,542.2 -51.3,497.4 -19.6,452.6 12,497.4 	"/>
</g>
</svg>
