<?xml version="1.0" encoding="utf-8"?>
<!-- Generator: Adobe Illustrator 21.0.0, SVG Export Plug-In . SVG Version: 6.00 Build 0)  -->
<svg version="1.2" baseProfile="tiny" id="Capa_1" xmlns="http://www.w3.org/2000/svg" xmlns:xlink="http://www.w3.org/1999/xlink"
	 x="0px" y="0px" viewBox="0 0 420 406.5" xml:space="preserve">
<rect x="16.1" y="96.1" fill="#FFFFFF" width="384.3" height="127.6"/>
<rect x="16.1" y="232.6" fill="#646D78" width="384.3" height="67.2"/>
<rect x="16.1" y="308.3" fill="#FFFFFF" width="384.3" height="72.6"/>
<g>
	<path fill="#646D78" d="M34.3,322.7V320h41.1v2.7H34.3z M34.3,328.2v-2.7h41.1v2.7H34.3z M34.3,333.7v-2.7h41.1v2.7H34.3z
		 M45.2,335.2h2.7v39.6h-2.7V335.2z M50.7,335.2h2.7v39.6h-2.7V335.2z M56.2,335.2h2.7v39.6h-2.7V335.2z M61.6,335.2h2.7v39.6h-2.7
		V335.2z"/>
	<path fill="#646D78" d="M86.9,362.1c-1.3-3.1-2-6.3-2-9.8c0-3.4,0.7-6.7,2-9.8c1.3-3.1,3.1-5.8,5.4-8c2.2-2.2,4.9-4,8-5.4
		c3.1-1.3,6.3-2,9.8-2c3.4,0,6.7,0.7,9.8,2c3.1,1.3,5.8,3.1,8,5.4c2.2,2.2,4,4.9,5.4,8c1.3,3.1,2,6.3,2,9.8c0,3.4-0.7,6.7-2,9.8
		c-1.3,3.1-3.1,5.8-5.4,8c-2.2,2.2-4.9,4-8,5.4c-3.1,1.3-6.3,2-9.8,2c-3.4,0-6.7-0.7-9.8-2c-3.1-1.3-5.8-3.1-8-5.4
		C90,367.9,88.2,365.2,86.9,362.1z M89,343.5c-1.2,2.8-1.8,5.8-1.8,8.9c0,3.1,0.6,6,1.8,8.9c1.2,2.8,2.8,5.3,4.9,7.3
		c2,2,4.5,3.7,7.3,4.9c2.8,1.2,5.8,1.8,8.9,1.8c3.1,0,6-0.6,8.9-1.8c2.8-1.2,5.3-2.8,7.3-4.9c2-2,3.7-4.5,4.9-7.3
		c1.2-2.8,1.8-5.8,1.8-8.9c0-3.1-0.6-6-1.8-8.9c-1.2-2.8-2.8-5.3-4.9-7.3c-2-2-4.5-3.7-7.3-4.9c-2.8-1.2-5.8-1.8-8.9-1.8
		c-3.1,0-6,0.6-8.9,1.8c-2.8,1.2-5.3,2.8-7.3,4.9C91.8,338.3,90.2,340.7,89,343.5z M91.1,360.4c-1.1-2.5-1.6-5.2-1.6-8
		c0-2.8,0.5-5.5,1.6-8c1.1-2.5,2.5-4.7,4.4-6.5c1.8-1.8,4-3.3,6.5-4.4c2.5-1.1,5.2-1.6,8-1.6s5.5,0.5,8,1.6c2.5,1.1,4.7,2.5,6.5,4.4
		c1.8,1.8,3.3,4,4.4,6.5c1.1,2.5,1.6,5.2,1.6,8c0,2.8-0.5,5.5-1.6,8c-1.1,2.5-2.5,4.7-4.4,6.5c-1.8,1.8-4,3.3-6.5,4.4
		c-2.5,1.1-5.2,1.6-8,1.6s-5.5-0.5-8-1.6c-2.5-1.1-4.7-2.5-6.5-4.4C93.7,365.1,92.2,362.9,91.1,360.4z M93.2,345.3
		c-1,2.3-1.4,4.6-1.4,7.1c0,2.5,0.5,4.8,1.4,7.1c1,2.3,2.3,4.2,3.9,5.8c1.6,1.6,3.6,2.9,5.8,3.9c2.3,1,4.6,1.4,7.1,1.4
		s4.8-0.5,7.1-1.4c2.3-1,4.2-2.3,5.8-3.9c1.6-1.6,2.9-3.6,3.9-5.8c1-2.3,1.4-4.6,1.4-7.1c0-2.5-0.5-4.8-1.4-7.1
		c-1-2.3-2.3-4.2-3.9-5.8c-1.6-1.6-3.6-2.9-5.8-3.9c-2.3-1-4.6-1.4-7.1-1.4s-4.8,0.5-7.1,1.4c-2.3,1-4.2,2.3-5.8,3.9
		C95.5,341.1,94.2,343,93.2,345.3z M96.2,360.4c-1.4-2.5-2.1-5.1-2.1-8c0-2.9,0.7-5.6,2.1-8c1.4-2.5,3.4-4.4,5.8-5.8
		c2.5-1.4,5.1-2.1,8-2.1s5.6,0.7,8,2.1c2.5,1.4,4.4,3.4,5.8,5.8c1.4,2.5,2.1,5.1,2.1,8c0,2.9-0.7,5.6-2.1,8
		c-1.4,2.5-3.4,4.4-5.8,5.8c-2.5,1.4-5.1,2.1-8,2.1s-5.6-0.7-8-2.1C99.6,364.8,97.6,362.8,96.2,360.4z M100.3,342.7
		c-2.7,2.7-4,5.9-4,9.7c0,3.8,1.3,7,4,9.7c2.7,2.7,5.9,4,9.7,4s7-1.3,9.7-4c2.7-2.7,4-5.9,4-9.7c0-3.8-1.3-7-4-9.7
		c-2.7-2.7-5.9-4-9.7-4S103,340,100.3,342.7z M102,360.4c-2.2-2.2-3.3-4.9-3.3-8.1c0-3.1,1.1-5.8,3.3-8.1c2.2-2.2,4.9-3.3,8.1-3.3
		c3.1,0,5.8,1.1,8.1,3.3c2.2,2.2,3.3,4.9,3.3,8.1c0,3.2-1.1,5.8-3.3,8.1c-2.2,2.2-4.9,3.3-8.1,3.3
		C106.9,363.8,104.2,362.7,102,360.4z M103.6,345.9c-1.8,1.8-2.7,3.9-2.7,6.5c0,2.5,0.9,4.7,2.7,6.5c1.8,1.8,3.9,2.7,6.5,2.7
		c2.5,0,4.7-0.9,6.5-2.7c1.8-1.8,2.7-3.9,2.7-6.5c0-2.5-0.9-4.7-2.7-6.5c-1.8-1.8-3.9-2.7-6.5-2.7
		C107.5,343.2,105.4,344.1,103.6,345.9z"/>
	<path fill="#646D78" d="M177.9,374.8h-31.6V320h31.6c4.8,0,9.3,1.2,13.5,3.7c4.2,2.4,7.5,5.8,10,10c2.5,4.2,3.7,8.8,3.7,13.7
		c0,3.7-0.7,7.3-2.2,10.7c-1.5,3.4-3.4,6.3-5.9,8.8c-2.4,2.4-5.3,4.4-8.7,5.8C185,374,181.5,374.8,177.9,374.8z M149,372h28.9
		c4.3,0,8.4-1.1,12.1-3.3c3.7-2.2,6.7-5.2,8.9-9c2.2-3.8,3.3-7.9,3.3-12.4c0-4.4-1.1-8.5-3.3-12.3c-2.2-3.8-5.2-6.8-8.9-9
		c-3.7-2.2-7.8-3.3-12.1-3.3H149V372z M151.8,369.3v-43.8h26.1c3.8,0,7.4,1,10.7,2.9c3.3,2,5.9,4.6,7.9,8c2,3.4,2.9,7,2.9,10.9
		c0,4-1,7.7-2.9,11c-2,3.4-4.6,6.1-7.9,8c-3.3,2-6.9,2.9-10.7,2.9H151.8z M154.5,366.5h23.4c3.3,0,6.5-0.8,9.3-2.5
		c2.9-1.7,5.1-4,6.8-7c1.7-3,2.5-6.2,2.5-9.7c0-3.4-0.8-6.6-2.5-9.5c-1.7-2.9-4-5.3-6.9-7c-2.9-1.7-6-2.6-9.3-2.6h-23.4V366.5z
		 M157.2,363.8v-32.9h20.7c4.3,0,8.1,1.6,11.2,4.8c3.1,3.2,4.7,7.1,4.7,11.5c0,4.6-1.6,8.5-4.7,11.7c-3.1,3.2-6.9,4.8-11.2,4.8
		H157.2z M160,361.1h17.9c3.6,0,6.7-1.3,9.2-4c2.6-2.7,3.8-5.9,3.8-9.8c0-3.8-1.3-7-3.9-9.6s-5.6-4-9.2-4H160V361.1z M162.7,358.3
		v-21.9h15.2c2.8,0,5.2,1.1,7.2,3.2s3,4.7,3,7.7c0,3.1-1,5.7-3,7.8c-2,2.1-4.4,3.2-7.3,3.2H162.7z M165.5,355.6h12.4
		c2.1,0,3.8-0.8,5.3-2.4c1.5-1.6,2.2-3.6,2.2-5.9c0-2.2-0.7-4.1-2.2-5.7c-1.5-1.6-3.2-2.4-5.3-2.4h-12.4V355.6z"/>
	<path fill="#646D78" d="M269.2,347.7v27h-2.7v-27c0-5.2-1.2-9.8-3.6-13.9c-2.4-4.1-5.7-7.2-9.9-9.4s-8.8-3.3-13.9-3.3
		c-4.9,0-9.4,1.2-13.5,3.5c-4.1,2.4-7.3,5.5-9.6,9.6c-2.3,4-3.5,8.4-3.5,13.1c0,3.1,0.5,6.1,1.5,8.9c1,2.8,2.4,5.3,4.1,7.3
		s3.7,3.9,6,5.4c2.3,1.5,4.7,2.7,7.3,3.5c2.6,0.8,5.3,1.2,8,1.2c3,0,5.8-0.6,8.5-1.7v2.8c-2.8,1-5.7,1.5-8.7,1.5
		c-3.1,0-6.1-0.4-9-1.3c-2.9-0.9-5.6-2.1-8.1-3.8c-2.5-1.7-4.6-3.7-6.5-6c-1.9-2.3-3.3-5-4.4-8c-1.1-3.1-1.6-6.3-1.6-9.7
		c0-3.9,0.7-7.7,2.2-11.2c1.5-3.6,3.5-6.6,6.1-9.2c2.6-2.6,5.7-4.7,9.4-6.2c3.7-1.5,7.6-2.3,11.7-2.3c4.2,0,8.2,0.7,11.9,2.1
		c3.7,1.4,6.9,3.4,9.6,5.9c2.7,2.5,4.8,5.6,6.4,9.3C268.4,339.4,269.2,343.4,269.2,347.7z M263.7,347.7v27H261v-27
		c0-4.2-1-7.9-2.9-11.1c-1.9-3.2-4.5-5.7-7.9-7.4c-3.3-1.7-7.1-2.6-11.2-2.6c-3.9,0-7.5,0.9-10.8,2.8c-3.2,1.9-5.8,4.4-7.6,7.6
		c-1.8,3.2-2.8,6.6-2.8,10.4c0,3.2,0.6,6.2,1.8,8.9c1.2,2.7,2.8,4.9,4.8,6.6c2,1.7,4.3,3.1,6.9,4c2.6,1,5.3,1.4,8.1,1.4
		c2.9,0,5.7-0.6,8.4-1.8v2.8c-2.9,1.1-5.7,1.6-8.5,1.6c-4.4,0-8.4-1-12.1-3c-3.7-2-6.6-4.8-8.8-8.4c-2.2-3.6-3.3-7.7-3.3-12.2
		c0-3.2,0.6-6.2,1.8-9.1c1.2-2.9,2.9-5.4,5-7.5c2.1-2.1,4.6-3.8,7.6-5c3-1.2,6.1-1.9,9.4-1.9c4.6,0,8.8,1,12.6,3
		c3.7,2,6.7,4.8,8.8,8.4C262.7,338.9,263.7,343.1,263.7,347.7z M258.3,347.7v27h-2.7v-27c0-4.8-1.5-8.6-4.6-11.4
		c-3.1-2.8-7-4.2-11.8-4.2c-4.5,0-8.2,1.5-11.2,4.5c-3,3-4.5,6.6-4.5,10.8c0,2.6,0.4,4.9,1.4,7c0.9,2.1,2.1,3.7,3.7,4.9
		c1.5,1.2,3.3,2.2,5.2,2.8c1.9,0.6,3.9,1,6.1,1c2.9,0,5.6-0.7,8.3-2v2.9c-2.7,1.1-5.5,1.7-8.3,1.7c-2.5,0-4.9-0.4-7.2-1.2
		c-2.3-0.8-4.3-1.9-6-3.4c-1.8-1.5-3.2-3.4-4.2-5.8c-1-2.4-1.6-5-1.6-8c0-5,1.8-9.2,5.3-12.8c3.5-3.5,7.9-5.3,13.1-5.3
		c3.7,0,6.9,0.7,9.8,2.2c2.9,1.5,5.2,3.6,6.8,6.4C257.4,340.8,258.3,344.1,258.3,347.7z M250.1,347.7c0-3.2-1-5.8-3-7.5
		c-2-1.8-4.7-2.7-8-2.7c-2.8,0-5.2,1-7.2,2.9c-2,1.9-3,4.2-3,6.9c0,1.5,0.2,2.9,0.6,4.1c0.4,1.2,1,2.2,1.7,3c0.7,0.8,1.5,1.5,2.5,2
		c1,0.5,2,0.9,3,1.1c1.1,0.2,2.2,0.3,3.4,0.3c2.9,0,5.5-0.7,7.9-2.1v2.7c-2.5,1.3-5.1,1.9-7.9,1.9c-1.8,0-3.5-0.2-5.2-0.7
		c-1.6-0.5-3.1-1.2-4.4-2.2c-1.3-1-2.4-2.4-3.1-4.1c-0.8-1.7-1.2-3.7-1.2-6c0-3.5,1.2-6.5,3.7-8.9c2.5-2.4,5.5-3.7,9.2-3.7
		c4.1,0,7.4,1.1,9.9,3.4c2.5,2.3,3.8,5.5,3.8,9.5v27h-2.7V347.7z"/>
	<path fill="#646D78" d="M309.3,320h2.7l-17.2,36.3v18.5H292v-18.5L273.7,320h2.7l17,33.5L309.3,320z M279.2,320h2.7l13.6,25.8
		l-1.4,3L279.2,320z M284.7,320h2.8l10.8,19.8l-1.4,3L284.7,320z M290.2,320h2.7l8,13.8l-1.4,3L290.2,320z M314.8,320h2.7
		l-17.2,36.3v18.5h-2.7v-18.5L314.8,320z M320.2,320h2.7l-17.2,36.3v18.5H303v-18.5L320.2,320z M325.7,320h2.7l-17.2,36.3v18.5h-2.7
		v-18.5L325.7,320z"/>
	<path fill="#646D78" d="M354.9,319.6c-3.8,0-7.3,0.6-10.5,1.7c-3.3,1.1-6,2.7-8.2,4.7l-1.9-1.4c2.4-2.3,5.4-4.1,9-5.4
		c3.6-1.3,7.4-1.9,11.6-1.9c3.2,0,6.2,0.5,9.1,1.4c2.9,1,5.3,2.3,7.4,4c2.1,1.7,3.8,3.8,5,6.3c1.2,2.5,1.8,5.2,1.8,8
		c0,2.9-0.5,5.5-1.6,8c-1.1,2.4-2.5,4.5-4.2,6.1c-1.8,1.6-3.8,2.9-6.1,3.8c-2.3,0.9-4.7,1.4-7.3,1.4c-0.3,0-0.8,0-1.5,0
		c-0.7,0-1.4,0-2,0s-1.2,0-1.6,0.1v-2.3h5c2.1,0,4.2-0.4,6.2-1.2c2-0.8,3.8-1.9,5.4-3.3c1.6-1.4,2.9-3.2,3.8-5.4
		c1-2.2,1.4-4.5,1.4-7.1c0-2.6-0.6-4.9-1.7-7.1c-1.1-2.2-2.6-4-4.5-5.5c-1.9-1.5-4.1-2.6-6.7-3.5C360.5,320,357.8,319.6,354.9,319.6
		z M354.9,324.4c-3,0-5.8,0.4-8.4,1.2s-4.8,2-6.6,3.5l-1.9-1.5c2-1.8,4.4-3.2,7.4-4.1c2.9-1,6.1-1.5,9.5-1.5s6.5,0.6,9.3,1.8
		c2.8,1.2,5,2.9,6.7,5.2c1.7,2.3,2.5,4.9,2.5,7.9c0,2.8-0.7,5.3-2,7.5c-1.4,2.2-3.2,4-5.5,5.2s-4.9,1.9-7.6,1.9
		c-1.4,0-2.9,0.1-4.4,0.2v-2.4c1.5-0.1,3-0.1,4.3-0.1c2.3,0,4.4-0.5,6.3-1.4c1.9-0.9,3.5-2.3,4.7-4.2c1.2-1.9,1.8-4.1,1.8-6.7
		c0-3.8-1.5-6.8-4.6-9.1C363.3,325.6,359.5,324.4,354.9,324.4z M353.6,362.7v2.4H339v-2.4H353.6z M353.6,367.5v2.4H339v-2.4H353.6z
		 M353.6,372.3v2.4H339v-2.4H353.6z M342.7,360.4h-2.4v-20.2h2.4V360.4z M354.9,329.2c-4.8,0-8.6,1-11.2,2.9l-1.9-1.5
		c3.1-2.5,7.5-3.8,13.1-3.8c3.9,0,7.2,0.9,9.9,2.7c2.6,1.8,3.9,4.3,3.9,7.4c0,3.1-1.1,5.6-3.2,7.3c-2.1,1.8-4.7,2.7-7.8,2.7
		c-1,0-2.3,0.1-3.8,0.2v-2.5c1.3,0.1,2.5,0.1,3.8,0.1c2.4,0,4.4-0.7,6.1-2c1.7-1.3,2.5-3.3,2.5-5.7c0-2.4-1.1-4.3-3.2-5.7
		C360.9,329.9,358.2,329.2,354.9,329.2z M347.5,360.4h-2.4v-20.2h2.4V360.4z M354.9,334c-3.5,0-6,0.4-7.5,1.1l-1.9-1.5
		c2.2-1.3,5.3-2,9.4-2c2.6,0,4.8,0.4,6.5,1.3c1.7,0.9,2.5,2.2,2.5,4c0,1.9-0.6,3.3-1.9,4.1c-1.3,0.9-2.9,1.3-4.9,1.3
		c-1.5,0-2.5,0-3.2,0V340c0.8,0.1,1.8,0.2,3.2,0.2c1.3,0,2.4-0.3,3.2-0.8c0.8-0.5,1.2-1.3,1.2-2.5C361.5,335,359.3,334,354.9,334z
		 M352.3,360.4h-2.4v-20.2h2.4V360.4z"/>
	<circle fill="#646D78" cx="88.6" cy="325.8" r="6.1"/>
	<circle fill="#646D78" cx="131" cy="325.8" r="6.1"/>
</g>
<g>
	<path fill="#FFFFFF" d="M36.5,294.6h-2.7v-54.8h2.7V294.6z M42,294.6h-2.7v-54.8H42V294.6z M47.5,294.6h-2.7v-54.8h2.7V294.6z
		 M53,294.6h-2.7v-54.8h26.1v2.7H53v2.7h23.4v2.7H53v2.7h23.4v2.7H53v8.4h21.6v2.7H53v2.7h21.6v2.7H53v2.7h21.6v2.7H53V294.6z"/>
	<path fill="#FFFFFF" d="M85.3,294.6h-2.7v-54.8h2.7V294.6z M90.8,294.6H88v-54.8h2.7V294.6z M96.2,294.6h-2.7v-54.8h2.7V294.6z
		 M101.7,280.9h26.2v2.7h-26.2v2.7h26.2v2.7h-26.2v2.7h26.2v2.7H99v-54.8h28.9v2.7h-26.2v2.7h26.2v2.7h-26.2v2.7h26.2v2.7h-26.2v6.8
		h24.7v2.7h-24.7v2.7h24.7v2.7h-24.7v2.7h24.7v2.7h-24.7V280.9z"/>
	<path fill="#FFFFFF" d="M137.2,294.6h-2.7v-54.8h2.7V294.6z M142.7,294.6H140v-54.8h2.7V294.6z M148.2,294.6h-2.7v-54.8h2.7V294.6z
		 M153.7,280.9h26.2v2.7h-26.2v2.7h26.2v2.7h-26.2v2.7h26.2v2.7h-28.9v-54.8h28.9v2.7h-26.2v2.7h26.2v2.7h-26.2v2.7h26.2v2.7h-26.2
		v6.8h24.7v2.7h-24.7v2.7h24.7v2.7h-24.7v2.7h24.7v2.7h-24.7V280.9z"/>
	<path fill="#FFFFFF" d="M186.5,239.8h2.7v54.8h-2.7V239.8z M191.9,239.8h2.7v54.8h-2.7V239.8z M197.4,239.8h2.7v54.8h-2.7V239.8z
		 M202.9,239.8h2.7v41.1h20.2v2.7h-20.2v2.7h20.2v2.7h-20.2v2.7h20.2v2.7h-22.9V239.8z"/>
	<path fill="#FFFFFF" d="M231.9,239.8h2.7v54.8h-2.7V239.8z M237.4,239.8h2.7v54.8h-2.7V239.8z M242.8,239.8h2.7v54.8h-2.7V239.8z
		 M248.3,239.8h2.7v54.8h-2.7V239.8z"/>
	<path fill="#FFFFFF" d="M260.9,244.6v50.1h-2.7v-54.8h3.3l31.6,54.8h-3.2L260.9,244.6z M263.7,252.1l2.7,5v37.5h-2.7V252.1z
		 M264.6,239.8h3.2l31.7,54.8h-3.2L264.6,239.8z M269.2,261.9l2.7,5v27.7h-2.7V261.9z M271.1,239.8h3.2l31.7,54.8h-3.3L271.1,239.8z
		 M277.5,239.8h3.2l28.9,50v-50h2.7v54.8h-3.2L277.5,239.8z M301.4,272.5l-2.7-5v-27.7h2.7V272.5z M306.9,282l-2.7-4.6v-37.5h2.7
		V282z"/>
	<path fill="#FFFFFF" d="M358.1,266.9h2.7v27.8c-4.1,1.8-8.3,2.7-12.6,2.7c-4.1,0-8-0.8-11.7-2.4c-3.7-1.6-6.9-3.7-9.6-6.4
		c-2.7-2.7-4.8-5.9-6.4-9.6c-1.6-3.7-2.4-7.6-2.4-11.7c0-4.1,0.8-8,2.4-11.7c1.6-3.7,3.7-6.9,6.4-9.6c2.7-2.7,5.9-4.8,9.6-6.4
		c3.7-1.6,7.6-2.4,11.7-2.4c4.7,0,9.1,1,13.2,3c4.1,2,7.6,4.8,10.4,8.3l-2.2,1.6c-2.6-3.2-5.7-5.7-9.4-7.5s-7.7-2.7-11.9-2.7
		c-3.7,0-7.2,0.7-10.6,2.2c-3.4,1.4-6.3,3.4-8.8,5.8s-4.4,5.4-5.8,8.7s-2.2,6.9-2.2,10.6c0,3.7,0.7,7.2,2.2,10.6
		c1.4,3.4,3.4,6.3,5.8,8.7c2.4,2.4,5.4,4.4,8.8,5.8c3.4,1.4,6.9,2.2,10.6,2.2c3.4,0,6.7-0.6,9.9-1.8V290c-3.2,1.3-6.5,1.9-9.9,1.9
		c-3.3,0-6.5-0.7-9.6-2c-3-1.3-5.7-3.1-7.9-5.2s-3.9-4.8-5.2-7.9c-1.3-3-2-6.2-2-9.6s0.7-6.5,2-9.6c1.3-3,3.1-5.7,5.2-7.9
		c2.2-2.2,4.8-3.9,7.9-5.2c3-1.3,6.2-2,9.6-2c3.8,0,7.4,0.8,10.8,2.5c3.4,1.6,6.2,3.9,8.5,6.8l-2.1,1.7c-2.1-2.6-4.6-4.6-7.6-6
		c-3-1.5-6.2-2.2-9.6-2.2c-3,0-5.8,0.6-8.5,1.7c-2.7,1.2-5,2.7-7,4.7c-2,2-3.5,4.3-4.7,7c-1.2,2.7-1.7,5.5-1.7,8.5s0.6,5.8,1.7,8.5
		c1.2,2.7,2.7,5,4.7,7c2,2,4.3,3.5,7,4.7c2.7,1.2,5.5,1.7,8.5,1.7c3.5,0,6.8-0.7,9.9-2.1v-2.8c-3.1,1.5-6.4,2.2-9.9,2.2
		c-3.5,0-6.7-0.9-9.6-2.6c-2.9-1.7-5.3-4-7-7c-1.7-2.9-2.6-6.1-2.6-9.6c0-3.5,0.9-6.7,2.6-9.6c1.7-2.9,4-5.3,7-7
		c2.9-1.7,6.1-2.6,9.6-2.6c3,0,5.8,0.6,8.4,1.9c2.6,1.3,4.8,3,6.6,5.3L361,257c-1.5-1.9-3.4-3.4-5.6-4.5c-2.2-1.1-4.6-1.6-7.2-1.6
		c-4.5,0-8.4,1.6-11.6,4.8c-3.2,3.2-4.8,7.1-4.8,11.6c0,4.5,1.6,8.4,4.8,11.6c3.2,3.2,7.1,4.8,11.6,4.8c3.5,0,6.8-0.9,9.9-2.6v-2.8
		c-3,1.8-6.3,2.6-9.9,2.6c-3.8,0-7-1.3-9.7-4s-4-5.9-4-9.7c0-3.8,1.3-7,4-9.7s5.9-4,9.7-4c2.1,0,4.1,0.5,6,1.4s3.4,2.2,4.7,3.8
		l-2.2,1.7c-2.2-2.7-5-4.1-8.5-4.1c-3,0-5.6,1.1-7.7,3.2c-2.1,2.1-3.2,4.7-3.2,7.7c0,3,1.1,5.6,3.2,7.7c2.1,2.1,4.7,3.2,7.7,3.2
		c3.9,0,7.2-1.1,9.9-3.2V266.9z M363.5,266.9h2.7v27.8h-2.7V266.9z M369,266.9h2.7v27.8H369V266.9z M374.5,266.9h2.7v27.8h-2.7
		V266.9z"/>
</g>
<path fill="#646D78" d="M102.8,110.6h5.2l-32.7,68.8v35.1h-5.2v-35.1l-34.8-68.8h5.2l32.2,63.6L102.8,110.6z M45.7,110.6h5.2
	l25.8,49l-2.6,5.7L45.7,110.6z M56.1,110.6h5.3l20.5,37.6l-2.7,5.7L56.1,110.6z M66.6,110.6h5.2L87,136.8l-2.6,5.7L66.6,110.6z
	 M113.2,110.6h5.2l-32.7,68.8v35.1h-5.2v-35.1L113.2,110.6z M123.5,110.6h5.2l-32.7,68.8v35.1h-5.2v-35.1L123.5,110.6z M133.9,110.6
	h5.2l-32.7,68.8v35.1h-5.2v-35.1L133.9,110.6z"/>
<path fill="#646D78" d="M149.8,184.7c-3-7-4.5-14.4-4.5-22.2c0-7.7,1.5-15.1,4.5-22.2c3-7,7.1-13.1,12.2-18.2
	c5.1-5.1,11.2-9.2,18.2-12.2c7-3,14.4-4.5,22.2-4.5c7.7,0,15.1,1.5,22.2,4.5c7,3,13.1,7.1,18.2,12.2c5.1,5.1,9.2,11.2,12.2,18.2
	c3,7,4.5,14.4,4.5,22.2c0,7.7-1.5,15.1-4.5,22.2c-3,7-7.1,13.1-12.2,18.2c-5.1,5.1-11.2,9.2-18.2,12.2c-7,3-14.4,4.5-22.2,4.5
	c-7.7,0-15.1-1.5-22.2-4.5c-7-3-13.1-7.1-18.2-12.2C156.9,197.8,152.8,191.7,149.8,184.7z M154.6,142.3c-2.7,6.4-4.1,13.1-4.1,20.2
	c0,7,1.4,13.7,4.1,20.2c2.7,6.4,6.4,12,11.1,16.6c4.6,4.6,10.2,8.3,16.6,11.1c6.4,2.7,13.1,4.1,20.2,4.1c7,0,13.7-1.4,20.2-4.1
	c6.4-2.7,11.9-6.4,16.6-11.1c4.6-4.6,8.3-10.2,11.1-16.6c2.7-6.4,4.1-13.1,4.1-20.2c0-7-1.4-13.7-4.1-20.2
	c-2.7-6.4-6.4-11.9-11.1-16.6c-4.6-4.6-10.2-8.3-16.6-11.1c-6.4-2.7-13.1-4.1-20.2-4.1c-7,0-13.7,1.4-20.2,4.1
	c-6.4,2.7-12,6.4-16.6,11.1C161,130.4,157.3,135.9,154.6,142.3z M159.4,180.7c-2.5-5.8-3.7-11.8-3.7-18.2c0-6.3,1.2-12.4,3.7-18.2
	c2.5-5.8,5.8-10.7,10-14.9c4.2-4.2,9.1-7.5,14.9-10c5.8-2.5,11.8-3.7,18.2-3.7s12.4,1.2,18.2,3.7c5.8,2.5,10.7,5.8,14.9,10
	c4.2,4.2,7.5,9.1,10,14.9c2.5,5.8,3.7,11.8,3.7,18.2c0,6.3-1.2,12.4-3.7,18.2c-2.5,5.8-5.8,10.7-10,14.9c-4.2,4.2-9.1,7.5-14.9,10
	c-5.8,2.5-11.8,3.7-18.2,3.7s-12.4-1.2-18.2-3.7c-5.8-2.5-10.7-5.8-14.9-10C165.2,191.4,161.8,186.4,159.4,180.7z M164.1,146.4
	c-2.2,5.1-3.3,10.5-3.3,16.1c0,5.6,1.1,11,3.3,16.1c2.2,5.1,5.1,9.5,8.9,13.3c3.7,3.7,8.2,6.7,13.3,8.9c5.1,2.2,10.5,3.3,16.1,3.3
	c5.6,0,11-1.1,16.1-3.3c5.1-2.2,9.5-5.1,13.3-8.9c3.7-3.7,6.7-8.2,8.9-13.3c2.2-5.1,3.3-10.5,3.3-16.1c0-5.6-1.1-11-3.3-16.1
	c-2.2-5.1-5.1-9.5-8.9-13.3c-3.7-3.7-8.2-6.7-13.3-8.9c-5.1-2.2-10.5-3.3-16.1-3.3c-5.6,0-11,1.1-16.1,3.3
	c-5.1,2.2-9.5,5.1-13.3,8.9C169.3,136.8,166.3,141.2,164.1,146.4z M170.9,180.7c-3.2-5.6-4.9-11.7-4.9-18.2c0-6.6,1.6-12.7,4.9-18.3
	c3.2-5.6,7.7-10,13.2-13.2c5.6-3.2,11.7-4.9,18.3-4.9c6.6,0,12.7,1.6,18.3,4.9c5.6,3.2,10,7.7,13.2,13.2c3.2,5.6,4.9,11.7,4.9,18.3
	c0,6.6-1.6,12.7-4.9,18.2c-3.2,5.6-7.7,10-13.2,13.2c-5.6,3.2-11.7,4.9-18.3,4.9c-6.6,0-12.7-1.6-18.3-4.9
	C178.6,190.7,174.1,186.3,170.9,180.7z M180.3,140.5c-6.1,6.1-9.1,13.4-9.1,22c0,8.6,3,15.9,9.1,22c6.1,6.1,13.4,9.2,22,9.2
	c8.6,0,16-3.1,22-9.2c6.1-6.1,9.1-13.4,9.1-22c0-8.6-3-15.9-9.1-22c-6.1-6.1-13.4-9.2-22-9.2C193.8,131.3,186.4,134.4,180.3,140.5z
	 M184,180.8c-5.1-5.1-7.6-11.2-7.6-18.4s2.5-13.3,7.6-18.4c5.1-5.1,11.2-7.6,18.4-7.6c7.2,0,13.3,2.5,18.4,7.6
	c5.1,5.1,7.6,11.2,7.6,18.4s-2.5,13.3-7.6,18.4c-5.1,5.1-11.2,7.6-18.4,7.6C195.2,188.5,189.1,185.9,184,180.8z M187.7,147.8
	c-4.1,4.1-6.1,9-6.1,14.7c0,5.7,2,10.6,6.1,14.7c4.1,4.1,9,6.1,14.7,6.1c5.7,0,10.6-2,14.7-6.1c4.1-4.1,6.1-9,6.1-14.7
	c0-5.7-2-10.6-6.1-14.7c-4.1-4.1-9-6.1-14.7-6.1C196.7,141.7,191.8,143.7,187.7,147.8z"/>
<g>
	<path fill="#646D78" d="M370.5,168.4v-28.5h5.2v28.5c0,6.9-1.4,13.6-4.2,19.9c-2.8,6.3-6.5,11.8-11.3,16.3
		c-4.7,4.6-10.3,8.2-16.8,10.9c-6.5,2.7-13.3,4.1-20.4,4.1c-7.1,0-13.9-1.4-20.4-4.1c-6.5-2.7-12.1-6.4-16.8-10.9
		c-4.7-4.6-8.5-10-11.3-16.3c-2.8-6.3-4.2-12.9-4.2-19.9v-28.5h5.2v28.5c0,8.3,2.1,15.9,6.4,23c4.3,7.1,10,12.7,17.3,16.8
		c7.3,4.1,15.2,6.2,23.8,6.2c8.6,0,16.5-2.1,23.8-6.2c7.3-4.1,13.1-9.7,17.3-16.8C368.3,184.3,370.5,176.7,370.5,168.4z
		 M360.1,168.4v-28.5h5.2v28.5c0,7.4-1.9,14.2-5.7,20.5c-3.8,6.3-8.9,11.2-15.4,14.9c-6.5,3.7-13.5,5.5-21.1,5.5
		c-7.6,0-14.6-1.8-21.1-5.5c-6.5-3.7-11.6-8.6-15.4-14.9c-3.8-6.3-5.7-13.1-5.7-20.5v-28.5h5.2v28.5c0,6.4,1.7,12.3,5,17.8
		c3.3,5.5,7.8,9.8,13.5,13c5.7,3.2,11.9,4.8,18.6,4.8c6.7,0,12.9-1.6,18.6-4.8c5.7-3.2,10.2-7.5,13.5-13
		C358.4,180.7,360.1,174.8,360.1,168.4z M349.7,168.4v-28.5h5.2v28.5c0,8.4-3.1,15.6-9.4,21.5c-6.3,5.9-13.8,8.9-22.5,8.9
		c-8.8,0-16.3-3-22.5-8.9c-6.3-5.9-9.4-13.1-9.4-21.5v-28.5h5.2v28.5c0,7,2.6,12.9,7.8,17.9c5.2,4.9,11.5,7.4,18.9,7.4
		c7.3,0,13.6-2.5,18.8-7.4C347.1,181.3,349.7,175.4,349.7,168.4z M339.3,168.4v-28.5h5.2v28.5c0,5.5-2.1,10.2-6.3,14.1
		c-4.2,3.9-9.3,5.9-15.2,5.9c-5.9,0-11-2-15.2-5.9c-4.2-3.9-6.3-8.7-6.3-14.1v-28.5h5.2v28.5c0,4.1,1.6,7.6,4.8,10.5
		c3.2,2.9,7,4.4,11.5,4.4c4.5,0,8.3-1.5,11.5-4.4C337.7,176,339.3,172.5,339.3,168.4z"/>
	<circle fill="#646D78" cx="287.8" cy="120" r="10.7"/>
	<circle fill="#646D78" cx="356.3" cy="120" r="10.7"/>
</g>
<rect x="16.1" y="17.2" fill="#646D78" width="384.3" height="70.1"/>
<g>
	<path fill="#FFFFFF" d="M33.1,29.7h2.4v47.8h-2.4V29.7z M37.9,29.7h2.4v47.8h-2.4V29.7z M42.7,29.7h2.4v47.8h-2.4V29.7z M66.7,29.7
		H69v47.8h-2.4V58.4H49.9v19.1h-2.4V29.7h2.4v16.7h16.8V29.7z M66.7,51.2v-2.4H49.9v2.4H66.7z M66.7,56v-2.4H49.9V56H66.7z
		 M71.4,29.7h2.4v47.8h-2.4V29.7z M76.2,29.7h2.4v47.8h-2.4V29.7z M81,29.7h2.4v47.8H81V29.7z"/>
	<path fill="#FFFFFF" d="M90.5,63.9c-1.4-3.2-2.1-6.6-2.1-10.2c0-3.6,0.7-7,2.1-10.2c1.4-3.2,3.3-6,5.6-8.4c2.3-2.3,5.1-4.2,8.4-5.6
		c3.2-1.4,6.6-2.1,10.2-2.1c3.6,0,7,0.7,10.2,2.1c3.2,1.4,6,3.3,8.4,5.6c2.3,2.3,4.2,5.1,5.6,8.4c1.4,3.2,2.1,6.6,2.1,10.2
		c0,3.6-0.7,7-2.1,10.2c-1.4,3.2-3.3,6-5.6,8.4c-2.3,2.3-5.1,4.2-8.4,5.6s-6.6,2.1-10.2,2.1c-3.6,0-7-0.7-10.2-2.1
		c-3.2-1.4-6-3.3-8.4-5.6C93.7,69.9,91.9,67.1,90.5,63.9z M92.7,44.4c-1.3,3-1.9,6.1-1.9,9.3c0,3.2,0.6,6.3,1.9,9.3
		c1.3,3,3,5.5,5.1,7.6c2.1,2.1,4.7,3.8,7.6,5.1s6,1.9,9.3,1.9c3.2,0,6.3-0.6,9.3-1.9c3-1.3,5.5-3,7.6-5.1c2.1-2.1,3.8-4.7,5.1-7.6
		c1.3-3,1.9-6,1.9-9.3c0-3.2-0.6-6.3-1.9-9.3c-1.3-3-3-5.5-5.1-7.6c-2.1-2.1-4.7-3.8-7.6-5.1c-3-1.3-6.1-1.9-9.3-1.9
		c-3.2,0-6.3,0.6-9.3,1.9c-3,1.3-5.5,3-7.6,5.1C95.6,38.9,93.9,41.4,92.7,44.4z M94.9,62c-1.1-2.7-1.7-5.4-1.7-8.4
		c0-2.9,0.6-5.7,1.7-8.4c1.1-2.7,2.7-4.9,4.6-6.9c1.9-1.9,4.2-3.4,6.9-4.6c2.7-1.1,5.4-1.7,8.4-1.7c2.9,0,5.7,0.6,8.4,1.7
		c2.7,1.1,4.9,2.7,6.9,4.6c1.9,1.9,3.4,4.2,4.6,6.9c1.1,2.7,1.7,5.4,1.7,8.4c0,2.9-0.6,5.7-1.7,8.4c-1.1,2.7-2.7,4.9-4.6,6.9
		c-1.9,1.9-4.2,3.4-6.9,4.6c-2.7,1.1-5.4,1.7-8.4,1.7c-2.9,0-5.7-0.6-8.4-1.7c-2.7-1.1-4.9-2.7-6.9-4.6C97.5,67,96,64.7,94.9,62z
		 M97.1,46.2c-1,2.4-1.5,4.8-1.5,7.4c0,2.6,0.5,5.1,1.5,7.4c1,2.4,2.4,4.4,4.1,6.1c1.7,1.7,3.8,3.1,6.1,4.1c2.4,1,4.8,1.5,7.4,1.5
		s5.1-0.5,7.4-1.5c2.4-1,4.4-2.4,6.1-4.1c1.7-1.7,3.1-3.8,4.1-6.1c1-2.4,1.5-4.8,1.5-7.4c0-2.6-0.5-5.1-1.5-7.4
		c-1-2.4-2.4-4.4-4.1-6.1c-1.7-1.7-3.8-3.1-6.1-4.1c-2.4-1-4.8-1.5-7.4-1.5s-5.1,0.5-7.4,1.5c-2.4,1-4.4,2.4-6.1,4.1
		C99.4,41.8,98.1,43.9,97.1,46.2z M100.2,62c-1.5-2.6-2.2-5.4-2.2-8.4c0-3,0.7-5.8,2.2-8.4c1.5-2.6,3.5-4.6,6.1-6.1
		c2.6-1.5,5.4-2.2,8.4-2.2c3,0,5.8,0.7,8.4,2.2c2.6,1.5,4.6,3.5,6.1,6.1c1.5,2.6,2.2,5.4,2.2,8.4c0,3-0.7,5.8-2.2,8.4
		c-1.5,2.6-3.5,4.6-6.1,6.1s-5.4,2.2-8.4,2.2c-3,0-5.8-0.7-8.4-2.2S101.7,64.6,100.2,62z M104.5,43.5c-2.8,2.8-4.2,6.2-4.2,10.1
		c0,3.9,1.4,7.3,4.2,10.1c2.8,2.8,6.2,4.2,10.1,4.2c4,0,7.3-1.4,10.1-4.2c2.8-2.8,4.2-6.2,4.2-10.1c0-3.9-1.4-7.3-4.2-10.1
		c-2.8-2.8-6.2-4.2-10.1-4.2C110.7,39.3,107.3,40.7,104.5,43.5z M106.2,62.1c-2.3-2.3-3.5-5.2-3.5-8.5c0-3.3,1.2-6.1,3.5-8.5
		s5.2-3.5,8.5-3.5c3.3,0,6.1,1.2,8.5,3.5s3.5,5.2,3.5,8.5c0,3.3-1.2,6.1-3.5,8.5c-2.3,2.3-5.2,3.5-8.5,3.5
		C111.4,65.6,108.6,64.4,106.2,62.1z M107.9,46.9c-1.9,1.9-2.8,4.1-2.8,6.8c0,2.6,0.9,4.9,2.8,6.8c1.9,1.9,4.1,2.8,6.8,2.8
		c2.6,0,4.9-0.9,6.8-2.8c1.9-1.9,2.8-4.1,2.8-6.8c0-2.6-0.9-4.9-2.8-6.8c-1.9-1.9-4.1-2.8-6.8-2.8C112,44.1,109.8,45,107.9,46.9z"/>
	<path fill="#FFFFFF" d="M193.5,62.2c0.5,0,1,0,1.7,0c0.7,0,1.2,0,1.7,0s0.9-0.1,1.4-0.3c0.5-0.1,0.9-0.3,1.2-0.6
		c0.3-0.2,0.5-0.6,0.7-1c0.2-0.5,0.3-1,0.3-1.6V29.7h2.4v28.9c0,4-2.5,6-7.6,6c-2.6,0-4.5-0.5-5.7-1.5c-0.2,0.9-0.4,1.6-0.6,2.3
		c1.7,1,3.8,1.6,6.3,1.6c3,0,5.4-0.7,7.2-2.1c1.9-1.4,2.8-3.5,2.8-6.3V29.7h2.4v28.9c0,3.5-1.2,6.1-3.5,8c-2.3,1.8-5.3,2.8-8.9,2.8
		c-2.8,0-5.2-0.6-7.2-1.7c-0.3,0.7-0.7,1.4-1.2,2c2.4,1.4,5.2,2.1,8.4,2.1c2.1,0,4-0.3,5.8-0.9c1.8-0.6,3.3-1.4,4.7-2.5
		c1.4-1.1,2.4-2.5,3.2-4.2c0.8-1.7,1.2-3.6,1.2-5.6V29.7h2.4v28.9c0,3.2-0.8,6-2.3,8.4c-1.6,2.4-3.6,4.2-6.2,5.4
		c-2.6,1.2-5.5,1.8-8.7,1.8c-3.7,0-7-0.9-9.8-2.6c-0.6,0.7-1.2,1.3-1.7,1.7c3.3,2.1,7.1,3.2,11.5,3.2c3.6,0,6.9-0.7,9.8-2.1
		c2.9-1.4,5.3-3.5,7.1-6.3c1.8-2.8,2.7-5.9,2.7-9.5V29.7h2.4v28.9c0,3.1-0.6,5.9-1.7,8.4c-1.2,2.6-2.7,4.7-4.7,6.4
		c-2,1.7-4.3,3.1-7,4c-2.7,1-5.5,1.4-8.5,1.4c-5.3,0-9.8-1.4-13.5-4.1c-3.9,2.7-8.4,4.1-13.7,4.1c-3,0-5.9-0.5-8.5-1.4
		c-2.7-1-5-2.3-7-4c-2-1.7-3.6-3.9-4.7-6.4c-1.2-2.6-1.7-5.4-1.7-8.4V29.7h2.4v28.9c0,2.7,0.5,5.2,1.5,7.5c1,2.3,2.4,4.2,4.2,5.7
		c1.8,1.5,3.8,2.7,6.2,3.5c2.4,0.8,4.9,1.2,7.6,1.2c3.5,0,6.8-0.8,9.8-2.4c3-1.6,5.4-3.8,7.2-6.5c1.8-2.8,2.6-5.8,2.6-9V29.7h2.4
		v28.9c0,0.6,0.1,1.2,0.3,1.6c0.2,0.5,0.4,0.8,0.7,1c0.3,0.2,0.7,0.4,1.2,0.6C192.6,62,193.1,62.1,193.5,62.2z M185.2,29.7v28.9
		c0,3.2-0.8,6-2.3,8.4c-1.6,2.4-3.6,4.2-6.2,5.4c-2.6,1.2-5.5,1.8-8.7,1.8s-6.1-0.6-8.7-1.8c-2.6-1.2-4.6-3-6.2-5.4
		c-1.6-2.4-2.3-5.2-2.3-8.4V29.7h2.4v28.9c0,2.1,0.4,4,1.2,5.6c0.8,1.7,1.8,3.1,3.2,4.2c1.4,1.1,2.9,1.9,4.7,2.5
		c1.8,0.6,3.7,0.9,5.8,0.9s4-0.3,5.8-0.9c1.8-0.6,3.3-1.4,4.7-2.5c1.4-1.1,2.4-2.5,3.2-4.2c0.8-1.7,1.2-3.6,1.2-5.6V29.7H185.2z
		 M180.4,29.7v28.9c0,3.5-1.2,6.1-3.5,8c-2.3,1.8-5.3,2.8-8.9,2.8s-6.6-0.9-8.9-2.8c-2.3-1.8-3.5-4.5-3.5-8V29.7h2.4v28.9
		c0,2.8,0.9,4.9,2.8,6.3c1.9,1.4,4.3,2.1,7.2,2.1c3,0,5.4-0.7,7.2-2.1c1.9-1.4,2.8-3.5,2.8-6.3V29.7H180.4z M175.6,29.7v28.9
		c0,4-2.5,6-7.6,6c-5.1,0-7.6-2-7.6-6V29.7h2.4v28.9c0,0.6,0.1,1.2,0.3,1.6c0.2,0.5,0.4,0.8,0.7,1c0.3,0.2,0.7,0.4,1.2,0.6
		s1,0.2,1.4,0.3c0.5,0,1,0,1.7,0s1.2,0,1.7,0c0.5,0,0.9-0.1,1.4-0.3c0.5-0.1,0.9-0.3,1.2-0.6c0.3-0.2,0.5-0.6,0.7-1
		c0.2-0.5,0.3-1,0.3-1.6V29.7H175.6z"/>
	<path fill="#FFFFFF" d="M281.2,54v23.6h-2.4V54c0-4.5-1.1-8.6-3.2-12.1s-5-6.3-8.6-8.2c-3.6-1.9-7.7-2.9-12.2-2.9
		c-4.3,0-8.2,1-11.8,3.1s-6.4,4.8-8.4,8.4c-2,3.5-3.1,7.3-3.1,11.5c0,2.7,0.4,5.3,1.3,7.8c0.9,2.4,2.1,4.6,3.6,6.4s3.3,3.4,5.2,4.7
		c2,1.3,4.1,2.3,6.4,3c2.3,0.7,4.6,1,7,1c2.6,0,5.1-0.5,7.4-1.5v2.5c-2.5,0.9-5,1.3-7.6,1.3c-2.7,0-5.3-0.4-7.8-1.1s-4.9-1.9-7-3.3
		c-2.2-1.5-4.1-3.2-5.7-5.2c-1.6-2-2.9-4.3-3.9-7c-0.9-2.7-1.4-5.5-1.4-8.5c0-3.4,0.6-6.7,1.9-9.8c1.3-3.1,3.1-5.8,5.3-8.1
		s5-4.1,8.2-5.4c3.2-1.3,6.6-2,10.2-2c3.7,0,7.1,0.6,10.4,1.9c3.2,1.2,6,3,8.4,5.2s4.2,4.9,5.5,8.1C280.6,46.7,281.2,50.2,281.2,54z
		 M276.5,54v23.6h-2.4V54c0-3.7-0.8-6.9-2.5-9.7c-1.7-2.8-4-5-6.9-6.5c-2.9-1.5-6.2-2.3-9.8-2.3c-3.4,0-6.6,0.8-9.4,2.4
		c-2.8,1.6-5.1,3.8-6.7,6.6c-1.6,2.8-2.4,5.8-2.4,9.1c0,2.8,0.5,5.4,1.6,7.8c1,2.3,2.4,4.3,4.2,5.8c1.8,1.5,3.8,2.7,6,3.5
		c2.2,0.8,4.6,1.2,7.1,1.2c2.5,0,5-0.5,7.4-1.6v2.4c-2.5,1-5,1.4-7.4,1.4c-3.8,0-7.4-0.9-10.6-2.6c-3.2-1.7-5.8-4.2-7.7-7.3
		c-1.9-3.2-2.9-6.7-2.9-10.6c0-2.8,0.5-5.4,1.6-8s2.5-4.7,4.4-6.5s4.1-3.3,6.6-4.4c2.6-1.1,5.3-1.6,8.2-1.6c4.1,0,7.7,0.9,11,2.6
		s5.8,4.2,7.7,7.4C275.5,46.3,276.5,49.9,276.5,54z M271.7,54v23.6h-2.4V54c0-4.2-1.3-7.5-4-10c-2.7-2.5-6.1-3.7-10.3-3.7
		c-3.9,0-7.2,1.3-9.8,3.9c-2.6,2.6-3.9,5.7-3.9,9.5c0,2.3,0.4,4.3,1.2,6.1c0.8,1.8,1.9,3.2,3.2,4.3c1.3,1.1,2.9,1.9,4.5,2.5
		s3.4,0.8,5.3,0.8c2.5,0,4.9-0.6,7.2-1.8v2.5c-2.4,1-4.8,1.5-7.2,1.5c-2.2,0-4.3-0.3-6.2-1c-2-0.7-3.7-1.7-5.3-3
		c-1.5-1.3-2.8-3-3.7-5c-0.9-2.1-1.4-4.4-1.4-7c0-4.4,1.5-8.1,4.6-11.1c3.1-3.1,6.9-4.6,11.4-4.6c3.2,0,6,0.6,8.6,1.9
		c2.5,1.3,4.5,3.2,6,5.6C270.9,47.9,271.7,50.8,271.7,54z M264.5,54c0-2.8-0.9-5-2.6-6.6c-1.7-1.5-4.1-2.3-6.9-2.3
		c-2.4,0-4.5,0.8-6.3,2.5c-1.8,1.7-2.6,3.7-2.6,6c0,1.3,0.2,2.5,0.5,3.6c0.4,1.1,0.8,1.9,1.4,2.6c0.6,0.7,1.3,1.3,2.2,1.7
		c0.8,0.5,1.7,0.8,2.6,1c0.9,0.2,1.9,0.3,2.9,0.3c2.5,0,4.8-0.6,6.9-1.9v2.4c-2.1,1.1-4.5,1.7-6.9,1.7c-1.6,0-3.1-0.2-4.5-0.6
		c-1.4-0.4-2.7-1.1-3.8-2c-1.2-0.9-2.1-2.1-2.7-3.6c-0.7-1.5-1-3.3-1-5.2c0-3.1,1.1-5.6,3.2-7.8s4.8-3.2,8.1-3.2c3.6,0,6.4,1,8.7,3
		c2.2,2,3.3,4.8,3.3,8.3v23.6h-2.4V54z"/>
	<path fill="#FFFFFF" d="M305.2,64.3h14.4c2.9,0,5.7-0.7,8.2-2.1c2.5-1.4,4.5-3.4,6-5.9c1.5-2.5,2.2-5.3,2.2-8.4
		c0-2.8-0.7-5.4-2.2-7.8s-3.5-4.4-6-5.8c-2.5-1.4-5.3-2.2-8.2-2.2h-30.1v45.4h-2.4V29.7h32.5c2.5,0,4.9,0.5,7.2,1.5
		c2.3,1,4.3,2.3,6,3.9c1.7,1.6,3,3.6,4.1,5.8s1.5,4.5,1.5,6.9c0,3.9-0.9,7.3-2.7,10.1c-1.8,2.9-4.2,5.1-7.1,6.6l5,13h-2.6l-4.7-12
		c-0.6,0.2-1.3,0.4-2.1,0.6l4.5,11.4h-2.6l-4.4-11c-0.7,0.1-1.4,0.1-2.2,0.1l4.2,10.9h-2.5l-4.2-10.9H315l4,10.9h-2.5l-4.1-10.9
		h-7.2V64.3z M305.2,59.5h14.4c3.2,0,5.9-1.1,8.2-3.3c2.3-2.2,3.4-5,3.4-8.4c0-2.9-1.2-5.5-3.5-7.7c-2.3-2.2-5-3.3-8.1-3.3h-25.3
		v40.7h-2.4v-43h27.7c3.8,0,7,1.3,9.8,4c2.8,2.7,4.2,5.8,4.2,9.3c0,4-1.4,7.3-4.1,10s-6,4-9.9,4h-14.4V59.5z M305.2,54.7h14.4
		c1.9,0,3.5-0.6,4.8-1.8c1.3-1.2,2-2.9,2-5c0-1.6-0.7-3-2.1-4.3c-1.4-1.3-3-1.9-4.8-1.9h-20.5v35.9h-2.4V39.3h22.9
		c2.5,0,4.6,0.9,6.5,2.6s2.8,3.7,2.8,6c0,2.8-0.9,5.1-2.7,6.7c-1.8,1.7-4,2.5-6.5,2.5h-14.4V54.7z M303.9,77.6h-2.4V44.1h18.1
		c1.2,0,2.3,0.4,3.2,1.1c0.9,0.7,1.3,1.6,1.3,2.7c0,3-1.5,4.5-4.5,4.5h-14.4v-2.4h14.4c1.4,0,2.1-0.7,2.1-2.1c0-0.4-0.2-0.7-0.6-1
		c-0.4-0.3-0.9-0.4-1.4-0.4h-15.7V77.6z"/>
	<path fill="#FFFFFF" d="M346.1,77.6h-2.4V29.7h2.4V77.6z M350.9,77.6h-2.4V29.7h2.4V77.6z M355.7,77.6h-2.4V29.7h2.4V77.6z
		 M360.4,65.6h22.9V68h-22.9v2.4h22.9v2.4h-22.9v2.4h22.9v2.4h-25.3V29.7h25.3v2.4h-22.9v2.4h22.9v2.4h-22.9v2.4h22.9v2.4h-22.9v5.9
		H382V50h-21.6v2.4H382v2.4h-21.6v2.4H382v2.4h-21.6V65.6z"/>
</g>
</svg>
