<?xml version="1.0" encoding="utf-8"?>
<!-- Generator: Adobe Illustrator 21.0.0, SVG Export Plug-In . SVG Version: 6.00 Build 0)  -->
<svg version="1.2" baseProfile="tiny" id="Capa_1" xmlns="http://www.w3.org/2000/svg" xmlns:xlink="http://www.w3.org/1999/xlink"
	 x="0px" y="0px" viewBox="0 0 664.5 768" xml:space="preserve">
<path fill="#DC4453" d="M634.4,505.7h-42.3V267.2h42.3c10.4,0,18.8,8.4,18.8,18.8v200.9C653.2,497.3,644.8,505.7,634.4,505.7z"/>
<path fill="#DC4453" d="M75,505.7H32.7c-10.4,0-18.8-8.4-18.8-18.8V286c0-10.4,8.4-18.8,18.8-18.8H75V505.7z"/>
<g>
	<path fill="#CD4250" d="M34.4,267.2h-1.6c-10.4,0-18.8,8.4-18.8,18.8v1.6L34.4,267.2z"/>
	<polygon fill="#CD4250" points="75.2,267.6 75.2,267.2 65.8,267.2 14.1,318.9 14.1,328.7 	"/>
	<polygon fill="#CD4250" points="75.2,308.8 75.2,299 14.1,360.1 14.1,369.9 	"/>
	<polygon fill="#CD4250" points="75.2,350 75.2,340.2 14.1,401.3 14.1,411.1 	"/>
	<polygon fill="#CD4250" points="75.2,391.2 75.2,381.4 14.1,442.5 14.1,452.3 	"/>
	<path fill="#CD4250" d="M75.2,422.5l-61.1,61.1v3.2c0,2,0.3,3.9,0.9,5.7l60.2-60.2V422.5z"/>
	<polygon fill="#CD4250" points="75.2,473.5 75.2,463.7 33.2,505.6 43.1,505.6 	"/>
	<polygon fill="#CD4250" points="75.2,504.9 74.4,505.6 75.2,505.6 	"/>
</g>
<path fill="#FFCE54" d="M549,146.8l-435.7,3.8l0,0l0,0c-0.2-26.8,21.3-48.8,48.2-49l338.5-3C526.8,98.4,548.8,119.9,549,146.8
	L549,146.8z"/>
<g>
	<polygon fill="#CD4250" points="592,269.7 592,279.5 604.2,267.3 594.4,267.3 	"/>
	<path fill="#CD4250" d="M643.1,269.5c-2.3-1.2-4.9-2-7.7-2.2L592,310.9v9.8L643.1,269.5z"/>
	<polygon fill="#CD4250" points="653.1,300.7 653.1,290.9 592,352 592,361.8 	"/>
	<polygon fill="#CD4250" points="653.1,341.9 653.1,332.1 592,393.2 592,403 	"/>
	<polygon fill="#CD4250" points="653.1,383.1 653.1,373.3 592,434.4 592,444.2 	"/>
	<polygon fill="#CD4250" points="653.1,424.3 653.1,414.5 592,475.6 592,485.4 	"/>
	<polygon fill="#CD4250" points="653.1,465.4 653.1,455.6 603,505.7 612.8,505.7 	"/>
</g>
<rect x="74.8" y="143" fill="#ED5463" width="517.3" height="471.7"/>
<polygon fill="#DC4453" points="636.5,708.4 30.4,708.4 74.8,597.4 592.1,597.4 "/>
<g>
	<polygon fill="#CD4250" points="178.6,597.4 168.8,597.4 57.7,708.4 67.5,708.4 	"/>
	<polygon fill="#CD4250" points="132.8,597.4 123,597.4 42.6,677.8 36.1,694.1 	"/>
	<polygon fill="#CD4250" points="73.1,601.5 66.5,617.9 87.1,597.4 77.3,597.4 	"/>
	<polygon fill="#CD4250" points="219.7,597.4 209.9,597.4 98.9,708.4 108.7,708.4 	"/>
	<polygon fill="#CD4250" points="260.9,597.4 251.1,597.4 140.1,708.4 149.9,708.4 	"/>
	<polygon fill="#CD4250" points="302.1,597.4 292.3,597.4 181.3,708.4 191.1,708.4 	"/>
	<polygon fill="#CD4250" points="343.3,597.4 333.5,597.4 222.4,708.4 232.2,708.4 	"/>
	<polygon fill="#CD4250" points="384.4,597.4 374.6,597.4 263.6,708.4 273.4,708.4 	"/>
	<polygon fill="#CD4250" points="425.6,597.4 415.8,597.4 304.8,708.4 314.6,708.4 	"/>
	<polygon fill="#CD4250" points="466.8,597.4 457,597.4 346,708.4 355.8,708.4 	"/>
	<polygon fill="#CD4250" points="508,597.4 498.2,597.4 387.1,708.4 396.9,708.4 	"/>
	<polygon fill="#CD4250" points="549.1,597.4 539.3,597.4 428.3,708.4 438.1,708.4 	"/>
	<polygon fill="#CD4250" points="590.3,597.4 580.5,597.4 469.5,708.4 479.3,708.4 	"/>
	<polygon fill="#CD4250" points="604.2,627.8 601.4,620.8 513.8,708.4 523.6,708.4 	"/>
	<polygon fill="#CD4250" points="616.9,659.5 614.1,652.5 558.2,708.4 568,708.4 	"/>
	<polygon fill="#CD4250" points="629.6,691.2 626.8,684.2 602.6,708.4 612.4,708.4 	"/>
</g>
<path fill="#DC4453" d="M508.5,130.7H158.2v-3.1c0-56,45.4-101.5,101.5-101.5H407c56,0,101.5,45.4,101.5,101.5V130.7z"/>
<path fill="#ED5463" d="M474.2,126.5H194.4v-3.1c0-36.7,29.8-66.5,66.5-66.5h146.9c36.7,0,66.5,29.8,66.5,66.5L474.2,126.5
	L474.2,126.5z"/>
<path fill="#ED5463" d="M630,475h-16.7c-3.9,0-7-3.1-7-7V311.9c0-3.9,3.1-7,7-7H630c3.9,0,7,3.1,7,7V468
	C637,471.9,633.9,475,630,475z"/>
<rect x="615.3" y="359.9" fill="#434A53" width="13.6" height="70"/>
<rect x="158.2" y="127.6" fill="#DC4453" width="350.5" height="15.4"/>
<rect x="30.4" y="708.4" fill="#ED5463" width="606" height="59.6"/>
<rect x="112.3" y="751.9" fill="#FFCE54" width="446.1" height="16.1"/>
<g>
	<g>
		<circle fill="#FFCE54" cx="175.9" cy="119.2" r="4.8"/>
		<circle fill="#FFFFFF" cx="194.7" cy="70.6" r="4.8"/>
		<circle fill="#FFCE54" cx="246.3" cy="42.1" r="4.8"/>
		<circle fill="#FFFFFF" cx="300.3" cy="42.1" r="4.8"/>
		<circle fill="#FFCE54" cx="354.2" cy="42.1" r="4.8"/>
		<circle fill="#FFFFFF" cx="491.5" cy="119.2" r="4.8"/>
		<circle fill="#FFCE54" cx="472.7" cy="70.6" r="4.8"/>
		<circle fill="#FFFFFF" cx="421.1" cy="42.1" r="4.8"/>
	</g>
	<g>
		<circle fill="#FFFFFF" cx="108.3" cy="175.8" r="4.8"/>
		<circle fill="#FFFFFF" cx="108.3" cy="276.2" r="4.8"/>
		<circle fill="#FFFFFF" cx="108.3" cy="376.7" r="4.8"/>
		<circle fill="#FFFFFF" cx="108.3" cy="477.1" r="4.8"/>
		<g>
			<circle fill="#FFCE54" cx="108.3" cy="226" r="4.8"/>
			<circle fill="#FFCE54" cx="108.3" cy="326.5" r="4.8"/>
			<circle fill="#FFCE54" cx="108.3" cy="426.9" r="4.8"/>
			<circle fill="#FFCE54" cx="108.3" cy="524.1" r="4.8"/>
		</g>
		<circle fill="#FFFFFF" cx="108.3" cy="571.6" r="4.8"/>
	</g>
	<g>
		<circle fill="#FFCE54" cx="558.4" cy="175.8" r="4.8"/>
		<circle fill="#FFFFFF" cx="558.4" cy="226" r="4.8"/>
		<circle fill="#FFCE54" cx="558.4" cy="276.2" r="4.8"/>
		<circle fill="#FFFFFF" cx="558.4" cy="326.5" r="4.8"/>
		<circle fill="#FFCE54" cx="558.4" cy="376.7" r="4.8"/>
		<circle fill="#FFFFFF" cx="558.4" cy="426.9" r="4.8"/>
		<circle fill="#FFCE54" cx="558.4" cy="477.1" r="4.8"/>
		<circle fill="#FFFFFF" cx="558.4" cy="524.1" r="4.8"/>
		<circle fill="#FFCE54" cx="558.4" cy="571.6" r="4.8"/>
	</g>
</g>
<rect x="74.8" y="585.1" fill="#434A53" width="517.4" height="12.3"/>
<rect x="30.4" y="708.4" fill="#434A53" width="606.2" height="10.2"/>
<polygon fill="#434A53" points="592.1,149.6 75.7,149.6 69.4,137.3 598.4,137.3 "/>
</svg>
