<?xml version="1.0" encoding="utf-8"?>
<!-- Generator: Adobe Illustrator 24.0.1, SVG Export Plug-In . SVG Version: 6.00 Build 0)  -->
<svg version="1.2" baseProfile="tiny" id="Capa_1" xmlns="http://www.w3.org/2000/svg" xmlns:xlink="http://www.w3.org/1999/xlink"
	 x="0px" y="0px" viewBox="0 0 717.33 588.19" xml:space="preserve">
<path fill="#FFCE54" d="M599.04,141.87l-486.71,4.23h0v0c-0.26-29.99,23.84-54.51,53.83-54.77l378.11-3.29
	C574.26,87.78,598.78,111.88,599.04,141.87L599.04,141.87z"/>
<path fill="#DC4453" d="M551.32,123.89H160.05v-3.51c0-62.61,50.76-113.36,113.36-113.36h164.54c62.61,0,113.36,50.76,113.36,113.36
	V123.89z"/>
<path fill="#ED5463" d="M511.99,119.23H199.38v-3.48c0-41.01,33.25-74.26,74.26-74.26h164.1c41.01,0,74.26,33.25,74.26,74.26V119.23
	z"/>
<g>
	<g>
		<polygon fill="#D89C30" points="355.72,56.02 365.03,74.88 385.85,77.91 370.79,92.59 374.34,113.33 355.72,103.54 337.1,113.33 
			340.66,92.59 325.6,77.91 346.41,74.88 		"/>
		<polygon fill="#D89C30" points="279.07,61.82 287.13,78.17 305.18,80.79 292.12,93.51 295.2,111.48 279.07,103 262.93,111.48 
			266.01,93.51 252.95,80.79 271,78.17 		"/>
		<polygon fill="#D89C30" points="434,61.82 442.07,78.17 460.11,80.79 447.06,93.51 450.14,111.48 434,103 417.86,111.48 
			420.95,93.51 407.89,80.79 425.93,78.17 		"/>
	</g>
	<g>
		<polygon fill="#FFCE54" points="354.03,53.52 363.34,72.38 384.16,75.41 369.1,90.09 372.65,110.82 354.03,101.04 335.41,110.82 
			338.97,90.09 323.9,75.41 344.72,72.38 		"/>
		<polygon fill="#FFCE54" points="277.37,59.32 285.44,75.66 303.48,78.29 290.43,91.01 293.51,108.98 277.37,100.5 261.24,108.98 
			264.32,91.01 251.26,78.29 269.31,75.66 		"/>
		<polygon fill="#FFCE54" points="432.31,59.32 440.38,75.66 458.42,78.29 445.37,91.01 448.45,108.98 432.31,100.5 416.17,108.98 
			419.25,91.01 406.2,78.29 424.24,75.66 		"/>
		<path fill="#F6BB43" d="M280.24,69.29c0.9,1.55,1.58,3.17,2.2,4.8c0.63,1.63,1.14,3.29,1.6,4.96l-1.03-0.83
			c1.77,0.09,3.53,0.24,5.28,0.51c0.88,0.12,1.76,0.29,2.63,0.46c0.87,0.2,1.75,0.39,2.62,0.69c-0.9,0.21-1.79,0.31-2.68,0.42
			c-0.89,0.08-1.78,0.16-2.66,0.19c-1.77,0.09-3.54,0.06-5.31-0.03l-0.82-0.04l-0.21-0.79c-0.45-1.68-0.83-3.37-1.11-5.09
			C280.46,72.82,280.24,71.08,280.24,69.29z"/>
		<path fill="#F6BB43" d="M285.83,103.33c-1.65-0.7-3.17-1.57-4.65-2.5c-1.48-0.92-2.89-1.93-4.27-2.99l1.32,0.04
			c-1.46,0.99-2.96,1.93-4.53,2.78c-0.77,0.43-1.57,0.83-2.38,1.22c-0.82,0.37-1.63,0.74-2.51,1.03c0.59-0.71,1.24-1.32,1.88-1.95
			c0.66-0.6,1.32-1.2,2.01-1.76c1.36-1.14,2.79-2.19,4.25-3.17l0.68-0.46l0.64,0.5c1.37,1.07,2.7,2.19,3.96,3.39
			C283.52,100.64,284.74,101.9,285.83,103.33z"/>
		<path fill="#F6BB43" d="M435.57,69.29c0.9,1.55,1.58,3.17,2.2,4.8c0.63,1.63,1.14,3.29,1.6,4.96l-1.03-0.83
			c1.77,0.09,3.53,0.24,5.28,0.51c0.88,0.12,1.76,0.29,2.63,0.46c0.87,0.2,1.75,0.39,2.62,0.69c-0.9,0.21-1.79,0.31-2.68,0.42
			c-0.89,0.08-1.78,0.16-2.66,0.19c-1.77,0.09-3.54,0.06-5.31-0.03l-0.82-0.04l-0.21-0.79c-0.45-1.68-0.83-3.37-1.11-5.09
			C435.79,72.82,435.57,71.08,435.57,69.29z"/>
		<path fill="#F6BB43" d="M441.16,103.33c-1.65-0.7-3.17-1.57-4.65-2.5c-1.48-0.92-2.89-1.93-4.27-2.99l1.32,0.04
			c-1.46,0.99-2.96,1.93-4.53,2.78c-0.77,0.43-1.57,0.83-2.38,1.22c-0.82,0.37-1.63,0.74-2.51,1.03c0.59-0.71,1.24-1.32,1.88-1.95
			c0.66-0.6,1.32-1.2,2.01-1.76c1.36-1.14,2.79-2.19,4.25-3.17l0.68-0.46l0.64,0.5c1.37,1.07,2.7,2.19,3.96,3.39
			C438.85,100.64,440.07,101.9,441.16,103.33z"/>
		<path fill="#F6BB43" d="M358.4,66.15c0.9,1.55,1.58,3.17,2.2,4.8c0.63,1.63,1.14,3.29,1.6,4.96l-1.03-0.83
			c1.77,0.09,3.53,0.24,5.28,0.51c0.88,0.12,1.76,0.29,2.63,0.46c0.87,0.2,1.75,0.39,2.62,0.69c-0.9,0.21-1.79,0.31-2.68,0.42
			c-0.89,0.08-1.78,0.16-2.67,0.19c-1.77,0.09-3.54,0.06-5.31-0.03l-0.82-0.04l-0.21-0.79c-0.45-1.68-0.83-3.37-1.11-5.09
			C358.62,69.69,358.4,67.95,358.4,66.15z"/>
		<path fill="#F6BB43" d="M362.83,103.82c-1.65-0.7-3.17-1.57-4.65-2.5c-1.48-0.92-2.89-1.93-4.27-2.99l1.32,0.04
			c-1.46,0.99-2.96,1.93-4.52,2.78c-0.77,0.43-1.57,0.83-2.38,1.22c-0.82,0.37-1.63,0.74-2.51,1.03c0.59-0.71,1.24-1.32,1.88-1.95
			c0.66-0.6,1.32-1.2,2.01-1.76c1.36-1.14,2.79-2.19,4.25-3.17l0.68-0.46l0.64,0.5c1.37,1.07,2.7,2.19,3.96,3.39
			C360.52,101.14,361.75,102.39,362.83,103.82z"/>
	</g>
</g>
<path fill="#DC4453" d="M683.72,574.74H27.66c-10.5,0-19.02-8.51-19.02-19.02V142.8c0-10.5,8.51-19.02,19.02-19.02h656.06
	c10.5,0,19.02,8.51,19.02,19.02v412.92C702.74,566.22,694.22,574.74,683.72,574.74z"/>
<path fill="#FFFFFF" d="M635.34,536.68H76.03c-8.78,0-15.91-7.12-15.91-15.91V182.22c0-8.78,7.12-15.91,15.91-15.91h559.31
	c8.78,0,15.91,7.12,15.91,15.91v338.55C651.25,529.56,644.13,536.68,635.34,536.68z"/>
<g>
	<circle fill="#FFCE54" cx="181.33" cy="111.31" r="5.32"/>
	<circle fill="#FFFFFF" cx="202.14" cy="57.64" r="5.32"/>
	<circle fill="#FFCE54" cx="259.11" cy="26.14" r="5.32"/>
	<circle fill="#FFFFFF" cx="318.73" cy="26.14" r="5.32"/>
	<circle fill="#FFCE54" cx="378.36" cy="26.14" r="5.32"/>
	<circle fill="#FFFFFF" cx="530.04" cy="111.31" r="5.32"/>
	<circle fill="#FFCE54" cx="509.24" cy="57.64" r="5.32"/>
	<circle fill="#FFFFFF" cx="452.27" cy="26.14" r="5.32"/>
</g>
<g>
	<circle fill="#FFCE54" cx="676.36" cy="152.21" r="4.81"/>
	<circle fill="#FFFFFF" cx="676.36" cy="202.43" r="4.81"/>
	<circle fill="#FFCE54" cx="676.36" cy="252.65" r="4.81"/>
	<circle fill="#FFFFFF" cx="676.36" cy="302.87" r="4.81"/>
	<circle fill="#FFCE54" cx="676.36" cy="353.08" r="4.81"/>
	<circle fill="#FFFFFF" cx="676.36" cy="403.3" r="4.81"/>
	<circle fill="#FFCE54" cx="676.36" cy="453.52" r="4.81"/>
	<circle fill="#FFFFFF" cx="676.36" cy="500.51" r="4.81"/>
	<circle fill="#FFCE54" cx="676.36" cy="548.02" r="4.81"/>
</g>
<g>
	<circle fill="#FFCE54" cx="32.67" cy="152.21" r="4.81"/>
	<circle fill="#FFFFFF" cx="32.67" cy="202.43" r="4.81"/>
	<circle fill="#FFCE54" cx="32.67" cy="252.65" r="4.81"/>
	<circle fill="#FFFFFF" cx="32.67" cy="302.87" r="4.81"/>
	<circle fill="#FFCE54" cx="32.67" cy="353.08" r="4.81"/>
	<circle fill="#FFFFFF" cx="32.67" cy="403.3" r="4.81"/>
	<circle fill="#FFCE54" cx="32.67" cy="453.52" r="4.81"/>
	<circle fill="#FFFFFF" cx="32.67" cy="500.51" r="4.81"/>
	<circle fill="#FFCE54" cx="32.67" cy="548.02" r="4.81"/>
</g>
</svg>
