<?xml version="1.0" encoding="utf-8"?>
<!-- Generator: Adobe Illustrator 24.0.1, SVG Export Plug-In . SVG Version: 6.00 Build 0)  -->
<svg version="1.2" baseProfile="tiny" id="Capa_1" xmlns="http://www.w3.org/2000/svg" xmlns:xlink="http://www.w3.org/1999/xlink"
	 x="0px" y="0px" viewBox="0 0 53.91 55.14" xml:space="preserve">
<circle fill="#FFCE54" cx="27.19" cy="28.44" r="23.76"/>
<path fill="#F6BB43" d="M21.66,51.54c12.76,3.05,25.58-4.82,28.63-17.58c3.05-12.76-4.82-25.58-17.58-28.63
	c0,0,2.25,17.53-0.4,26.17S21.66,51.54,21.66,51.54z"/>
<circle fill="#DC4453" cx="27.52" cy="28.37" r="18.17"/>
<g>
	<polygon fill="#CC3B50" points="27.83,15.56 31.8,23.6 40.67,24.89 34.25,31.15 35.77,39.99 27.83,35.82 19.89,39.99 21.4,31.15 
		14.98,24.89 23.86,23.6 	"/>
	<path fill="#BC354F" d="M29.23,20.46c0.44,0.76,0.78,1.56,1.08,2.36c0.16,0.4,0.28,0.81,0.42,1.21c0.13,0.41,0.25,0.82,0.37,1.23
		l-0.51-0.41c0.43,0.02,0.87,0.05,1.3,0.09c0.43,0.05,0.87,0.08,1.3,0.16c0.43,0.06,0.86,0.14,1.29,0.23
		c0.43,0.1,0.86,0.19,1.29,0.34c-0.44,0.1-0.88,0.15-1.32,0.21c-0.44,0.04-0.87,0.08-1.31,0.09C32.72,26,32.28,25.99,31.85,26
		c-0.44,0-0.87-0.02-1.3-0.04l-0.4-0.02l-0.1-0.39c-0.11-0.41-0.21-0.83-0.3-1.24c-0.08-0.42-0.18-0.84-0.24-1.26
		C29.35,22.2,29.24,21.34,29.23,20.46z"/>
	<path fill="#BC354F" d="M31.99,37.21c-0.81-0.34-1.56-0.77-2.29-1.23c-0.37-0.22-0.71-0.47-1.07-0.71
		c-0.35-0.24-0.69-0.5-1.03-0.76l0.65,0.02c-0.36,0.24-0.72,0.48-1.09,0.71c-0.38,0.22-0.74,0.46-1.13,0.66
		c-0.38,0.21-0.77,0.41-1.17,0.6c-0.4,0.18-0.8,0.36-1.23,0.51c0.29-0.35,0.61-0.65,0.93-0.96c0.32-0.3,0.65-0.59,0.99-0.86
		c0.33-0.29,0.69-0.54,1.03-0.81c0.35-0.26,0.7-0.51,1.06-0.75l0.33-0.23l0.31,0.25c0.34,0.26,0.67,0.53,0.99,0.81
		c0.32,0.28,0.65,0.56,0.95,0.86C30.85,35.89,31.45,36.5,31.99,37.21z"/>
</g>
</svg>
